<?xml version="1.0" standalone="no"?><!DOCTYPE svg PUBLIC "-//W3C//DTD SVG 1.1//EN" "http://www.w3.org/Graphics/SVG/1.1/DTD/svg11.dtd" ><svg xmlns="http://www.w3.org/2000/svg"><metadata></metadata><defs><font id="H&FJ: Gotham Rounded Light: 1.200" horiz-adv-x="2457"><font-face font-family="GothamRounded-Light" font-weight="300" font-stretch="normal" units-per-em="2048" panose-1="0 0 0 0 0 0 0 0 0 0" ascent="1638" descent="-410" x-height="0" bbox="-109 -442 2345 2093" underline-thickness="102" underline-position="-153" unicode-range="U+0020-fb04" /><missing-glyph horiz-adv-x="1024" d="M512 492 L145 -307 L879 -307 L512 492 ZM922 1384 L569 614 L922 -156 L922 1384 ZM102 -156 L455 614 L102 1384 L102 -156 ZM145 1536 L512 737 L879 1536 L145 1536 ZM0 -410 L0 1638 L1024 1638 L1024 -410 L0 -410 Z" /><glyph glyph-name="space" unicode=" " d="" /><glyph glyph-name="exclam" unicode="!" d="M190 115 Q190 144 210 163 Q230 182 258 182 Q287 182 306 163 Q325 144 326 115 L326 59 Q326 30 306 11 Q286 -8 258 -8 Q229 -8 210 11 Q191 30 190 59 L190 115 ZM270 1440 Q290 1440 306 1424 Q322 1408 322 1389 L289 399 Q289 387 280 378 Q270 369 258 369 Q246 369 236 378 Q226 387 227 399 L195 1389 Q195 1409 210 1424 Q225 1439 246 1440 L270 1440 Z" /><glyph glyph-name="quotedbl" unicode="&quot;" d="M301 1438 Q334 1438 334 1403 Q334 1401 324 1354 L207 942 Q195 905 172 905 Q137 905 143 944 L205 1384 Q213 1437 262 1438 L301 1438 ZM670 1438 Q703 1438 702 1403 Q702 1401 692 1354 L575 942 Q563 905 541 905 Q506 905 512 944 L573 1384 Q581 1437 631 1438 L670 1438 Z" /><glyph glyph-name="numbersign" unicode="#" d="M463 479 L887 479 L971 963 L547 963 L463 479 ZM141 383 Q121 383 106 396 Q92 410 92 430 Q92 450 106 464 Q120 478 141 479 L365 479 L449 963 L223 963 Q203 963 188 976 Q174 990 174 1010 Q174 1030 188 1044 Q202 1058 223 1059 L465 1059 L522 1397 Q528 1442 573 1442 Q598 1442 610 1424 Q622 1406 618 1382 L563 1059 L987 1059 L1044 1397 Q1050 1442 1096 1442 Q1121 1442 1133 1424 Q1145 1406 1141 1382 L1085 1059 L1290 1059 Q1310 1059 1324 1046 Q1338 1032 1339 1012 Q1339 992 1325 978 Q1311 964 1290 963 L1069 963 L985 479 L1208 479 Q1228 479 1242 466 Q1256 452 1257 432 Q1257 412 1243 398 Q1229 384 1208 383 L969 383 L909 37 Q903 -8 858 -8 Q833 -8 821 10 Q809 28 813 51 L870 383 L446 383 L387 37 Q381 -8 336 -8 Q311 -8 299 10 Q287 28 291 51 L348 383 L141 383 Z" /><glyph glyph-name="dollar" unicode="$" d="M283 1072 Q282 960 352 894 Q422 828 612 782 L612 1341 Q465 1340 374 1262 Q283 1184 283 1072 ZM947 173 Q1040 252 1040 367 Q1040 482 968 548 Q896 614 702 657 L702 92 Q854 94 947 173 ZM608 1511 Q608 1532 622 1546 Q636 1560 657 1560 Q678 1560 692 1546 Q706 1532 707 1511 L707 1430 Q900 1414 1071 1286 Q1100 1263 1100 1241 Q1100 1220 1084 1204 Q1068 1188 1048 1188 Q1027 1188 1010 1202 Q867 1317 702 1335 L702 762 Q936 713 1040 622 Q1144 531 1144 374 Q1144 217 1022 112 Q899 7 707 0 L707 -160 Q706 -180 692 -194 Q678 -208 658 -209 Q638 -209 623 -195 Q609 -181 608 -160 L608 2 Q352 22 147 201 Q124 220 124 242 Q124 264 140 280 Q155 296 177 295 Q199 295 213 281 Q389 117 612 94 L612 678 Q383 729 281 819 Q178 909 178 1064 Q178 1219 300 1324 Q422 1429 608 1434 L608 1511 Z" /><glyph glyph-name="percent" unicode="%" d="M1051 350 Q1050 232 1112 152 Q1174 72 1263 72 Q1352 72 1410 151 Q1468 230 1468 346 L1468 350 Q1468 469 1407 549 Q1346 629 1256 629 Q1166 629 1109 549 Q1051 469 1051 354 L1051 350 ZM219 1083 Q218 964 280 884 Q342 804 431 805 Q520 805 579 884 Q637 963 637 1079 L637 1083 Q638 1202 576 1282 Q514 1362 425 1362 Q336 1362 278 1282 Q220 1202 219 1087 L219 1083 ZM1575 350 Q1576 200 1486 92 Q1396 -16 1258 -16 Q1120 -16 1032 92 Q944 200 944 346 L944 350 Q944 500 1033 608 Q1122 716 1260 717 Q1398 717 1487 609 Q1575 501 1575 354 L1575 350 ZM312 4 Q299 17 299 34 Q299 51 307 61 L1305 1419 Q1321 1442 1341 1442 Q1360 1442 1374 1430 Q1388 1418 1388 1400 Q1388 1382 1380 1372 L383 14 Q366 -8 346 -8 Q326 -8 312 4 ZM427 717 Q289 716 201 824 Q113 932 113 1079 L113 1083 Q113 1234 202 1342 Q291 1450 429 1450 Q567 1450 655 1342 Q743 1234 743 1087 L743 1083 Q743 933 654 825 Q565 717 427 717 Z" /><glyph glyph-name="ampersand" unicode="&amp;" d="M543 72 Q766 72 958 297 L535 735 Q371 680 289 587 Q207 494 207 385 L207 381 Q206 250 302 161 Q398 72 543 72 ZM893 1139 L893 1143 Q893 1239 827 1304 Q761 1368 659 1368 Q557 1368 487 1302 Q417 1236 418 1137 L418 1133 Q418 1066 454 1002 Q490 938 584 838 Q893 936 893 1139 ZM1326 -3 Q1311 -18 1287 -18 Q1263 -18 1239 6 L1026 227 Q813 -21 541 -20 Q351 -20 225 91 Q100 203 100 377 L100 381 Q100 664 471 801 Q385 895 348 969 Q311 1043 311 1128 L311 1133 Q310 1272 412 1365 Q514 1458 662 1458 Q810 1458 904 1367 Q999 1276 999 1147 L999 1143 Q999 893 647 772 L1024 385 Q1116 516 1196 700 Q1208 731 1237 731 Q1266 731 1280 716 Q1294 702 1294 684 Q1294 666 1288 653 Q1194 446 1094 313 L1317 84 Q1342 60 1342 36 Q1342 12 1326 -3 Z" /><glyph glyph-name="quotesingle" unicode="&#39;" d="M301 1438 Q334 1438 334 1403 Q334 1401 324 1354 L207 942 Q195 905 172 905 Q137 905 143 944 L205 1384 Q213 1437 262 1438 L301 1438 Z" /><glyph glyph-name="parenleft" unicode="(" d="M719 -285 Q707 -285 694 -279 Q430 -123 288 97 Q146 318 146 588 Q146 858 288 1078 Q430 1298 694 1454 Q706 1460 719 1460 Q758 1460 758 1421 Q758 1396 735 1384 Q252 1077 252 588 Q252 99 735 -209 Q758 -221 758 -246 Q758 -285 719 -285 Z" /><glyph glyph-name="parenright" unicode=")" d="M162 -285 Q123 -285 123 -246 Q123 -221 145 -209 Q628 98 628 588 Q628 1078 145 1384 Q122 1396 123 1421 Q123 1460 162 1460 Q174 1460 186 1454 Q450 1298 592 1078 Q734 858 735 588 Q735 318 593 98 Q451 -122 186 -279 Q174 -285 162 -285 Z" /><glyph glyph-name="asterisk" unicode="*" d="M174 960 Q156 978 156 1000 Q156 1022 184 1034 L395 1135 L184 1235 Q155 1249 156 1274 Q156 1313 197 1317 Q211 1317 229 1305 L416 1178 L399 1401 Q398 1418 410 1432 Q422 1446 440 1446 Q458 1446 470 1433 Q482 1420 481 1401 L465 1178 L651 1305 Q668 1317 684 1317 Q700 1317 712 1304 Q724 1291 725 1269 Q725 1247 696 1235 L485 1135 L696 1034 Q725 1022 725 1000 Q725 978 713 966 Q688 939 651 965 L465 1092 L481 868 Q483 850 471 837 Q458 824 440 824 Q422 824 410 836 Q398 850 399 868 L416 1092 L229 965 Q192 940 174 960 Z" /><glyph glyph-name="plus" unicode="+" d="M584 274 L584 672 L180 672 Q160 672 145 686 Q131 700 131 720 Q131 740 145 756 Q159 770 180 770 L584 770 L584 1167 Q584 1186 599 1202 Q614 1218 634 1218 Q654 1218 670 1204 Q686 1188 686 1167 L686 770 L1090 770 Q1110 770 1124 756 Q1138 742 1138 722 Q1138 702 1124 686 Q1110 672 1090 672 L686 672 L686 274 Q686 254 671 239 Q656 224 636 224 Q616 224 600 238 Q584 254 584 274 Z" /><glyph glyph-name="comma" unicode="," d="M111 -184 Q111 -168 127 -158 Q231 -101 223 0 Q168 14 168 72 L168 115 Q168 144 187 163 Q206 182 236 182 Q266 182 284 163 Q303 144 303 115 L303 63 Q302 -96 242 -156 Q182 -216 146 -216 Q110 -216 111 -184 Z" /><glyph glyph-name="hyphen" unicode="-" d="M193 551 Q170 551 153 568 Q136 585 135 608 Q134 631 152 648 Q170 665 193 666 L643 666 Q666 666 683 648 Q700 630 700 608 Q700 585 683 568 Q666 551 643 551 L193 551 Z" /><glyph glyph-name="period" unicode="." d="M168 115 Q168 144 187 163 Q206 182 236 182 Q266 182 284 163 Q303 144 303 115 L303 59 Q303 30 284 11 Q265 -8 236 -8 Q207 -8 187 11 Q168 30 168 59 L168 115 Z" /><glyph glyph-name="slash" unicode="/" d="M0 -258 Q-12 -245 -12 -229 Q-12 -213 -6 -201 L920 1614 Q934 1642 958 1642 Q1004 1641 1006 1599 Q1006 1585 999 1573 L74 -242 Q60 -270 36 -270 Q12 -270 0 -258 Z" /><glyph glyph-name="zero" unicode="0" d="M379 264 Q514 72 729 72 Q944 72 1077 262 Q1210 452 1210 713 L1210 717 Q1210 979 1075 1170 Q940 1362 725 1362 Q510 1362 377 1172 Q244 982 244 721 L244 717 Q244 456 379 264 ZM725 -25 Q459 -25 296 190 Q133 405 133 713 L133 717 Q133 916 205 1084 Q277 1252 415 1354 Q553 1458 729 1458 Q995 1458 1158 1243 Q1321 1028 1321 721 L1321 717 Q1321 518 1249 350 Q1177 182 1039 78 Q901 -26 725 -25 Z" /><glyph glyph-name="one" unicode="1" d="M367 45 L367 1337 L133 1257 Q120 1251 104 1251 Q88 1250 75 1264 Q62 1278 62 1302 Q62 1326 100 1341 L350 1434 Q389 1448 416 1448 L420 1448 Q443 1448 457 1433 Q471 1418 471 1397 L471 45 Q471 22 456 7 Q441 -8 419 -8 Q397 -8 382 8 Q367 24 367 45 Z" /><glyph glyph-name="two" unicode="2" d="M141 0 Q118 0 104 14 Q90 28 90 52 Q90 74 115 94 L633 563 Q811 725 881 833 Q950 940 950 1064 Q950 1188 855 1274 Q760 1360 631 1360 Q502 1360 408 1300 Q314 1240 225 1120 Q208 1098 186 1098 Q164 1098 150 1111 Q136 1124 136 1142 Q136 1160 143 1171 Q241 1314 353 1384 Q465 1454 642 1454 Q819 1454 941 1341 Q1063 1228 1063 1061 L1063 1057 Q1063 916 984 799 Q905 682 705 500 L266 102 L1034 102 Q1057 102 1071 88 Q1085 74 1085 51 Q1085 28 1071 14 Q1057 0 1034 0 L141 0 Z" /><glyph glyph-name="three" unicode="3" d="M637 -25 Q324 -25 127 213 Q113 230 113 250 Q113 270 128 286 Q143 302 168 303 Q193 303 209 283 Q385 72 639 72 Q786 72 890 161 Q993 250 993 389 L993 393 Q993 540 869 622 Q745 704 547 705 L496 705 Q476 705 461 718 Q427 749 465 791 L936 1333 L227 1333 Q204 1334 190 1348 Q176 1362 176 1384 Q176 1406 190 1419 Q204 1433 227 1434 L1042 1434 Q1062 1434 1076 1422 Q1109 1392 1071 1346 L596 803 Q816 792 960 688 Q1104 584 1104 397 L1104 393 Q1104 211 966 93 Q828 -25 637 -25 Z" /><glyph glyph-name="four" unicode="4" d="M911 442 L911 1290 L227 442 L911 442 ZM911 43 L911 350 L152 350 Q127 350 112 366 Q78 402 113 449 L903 1425 Q923 1452 952 1452 Q1012 1452 1014 1393 L1014 442 L1208 442 Q1226 442 1240 428 Q1254 414 1255 396 Q1255 378 1241 364 Q1227 351 1208 350 L1014 350 L1014 43 Q1014 20 998 6 Q982 -8 963 -8 Q943 -8 927 6 Q911 20 911 43 Z" /><glyph glyph-name="five" unicode="5" d="M618 -25 Q488 -26 364 32 Q240 90 145 180 Q102 223 138 261 Q153 276 177 276 Q201 276 219 258 Q416 72 623 72 Q792 72 900 174 Q1008 276 1008 432 L1008 436 Q1008 588 898 682 Q788 776 628 776 Q468 776 349 717 Q306 696 286 696 Q266 696 236 716 Q206 736 211 786 L246 1376 Q248 1433 301 1434 L1012 1434 Q1032 1434 1048 1420 Q1064 1406 1063 1382 Q1063 1360 1048 1346 Q1033 1332 1012 1331 L344 1331 L309 795 Q469 873 627 872 Q838 872 978 752 Q1118 632 1118 440 L1118 436 Q1118 237 976 106 Q834 -25 618 -25 Z" /><glyph glyph-name="six" unicode="6" d="M281 432 Q280 278 396 175 Q512 72 684 72 Q856 72 963 179 Q1069 287 1069 442 L1069 446 Q1069 594 959 692 Q850 790 680 790 Q510 790 395 682 Q280 573 281 436 L281 432 ZM1180 446 Q1180 243 1036 109 Q892 -25 674 -25 Q457 -25 313 119 Q219 213 175 339 Q131 465 131 678 L131 682 Q131 1014 292 1236 Q453 1458 715 1458 Q918 1458 1098 1317 Q1120 1298 1120 1276 Q1120 1254 1105 1238 Q1090 1222 1070 1221 Q1050 1221 1034 1233 Q876 1362 707 1362 Q490 1362 360 1155 Q230 948 238 618 Q394 884 686 885 Q887 885 1033 761 Q1179 637 1180 451 L1180 446 Z" /><glyph glyph-name="seven" unicode="7" d="M451 29 Q436 -8 406 -8 Q376 -8 361 6 Q346 20 346 38 Q346 55 354 72 L971 1331 L182 1331 Q159 1332 145 1346 Q131 1360 131 1382 Q131 1404 145 1419 Q159 1433 182 1434 L1047 1434 Q1070 1434 1084 1420 Q1111 1393 1085 1346 L451 29 Z" /><glyph glyph-name="eight" unicode="8" d="M338 164 Q452 76 645 76 Q838 76 952 164 Q1066 252 1067 379 L1067 383 Q1067 516 944 603 Q821 690 645 690 Q469 690 346 603 Q223 516 223 383 L223 379 Q224 252 338 164 ZM380 863 Q488 780 645 780 Q802 780 910 863 Q1018 946 1018 1075 L1018 1079 Q1018 1200 910 1279 Q802 1358 644 1358 Q486 1358 380 1279 Q272 1200 272 1079 L272 1075 Q272 946 380 863 ZM1025 94 Q872 -20 645 -20 Q418 -20 265 94 Q112 208 113 383 L113 387 Q113 508 201 601 Q289 694 430 741 Q162 850 162 1075 L162 1079 Q162 1242 307 1348 Q452 1454 645 1454 Q838 1454 983 1348 Q1128 1242 1128 1079 L1128 1075 Q1128 850 860 741 Q1002 694 1090 601 Q1178 508 1178 387 L1178 383 Q1178 208 1025 94 Z" /><glyph glyph-name="nine" unicode="9" d="M246 977 Q246 825 356 727 Q466 629 637 629 Q809 630 922 740 Q1035 850 1034 993 L1034 997 Q1034 1151 919 1256 Q803 1362 630 1362 Q458 1362 352 1249 Q246 1136 246 981 L246 977 ZM600 -25 Q387 -25 193 133 Q170 151 170 175 Q170 199 185 214 Q200 229 222 229 Q244 229 260 215 Q428 72 602 72 Q819 72 954 281 Q1089 490 1077 811 Q923 535 631 535 Q416 535 275 660 Q135 786 135 973 L135 977 Q135 1180 276 1319 Q418 1458 638 1458 Q858 1458 1004 1313 Q1184 1133 1184 754 L1184 750 Q1184 414 1018 194 Q852 -26 600 -25 Z" /><glyph glyph-name="colon" unicode=":" d="M178 115 Q178 144 198 163 Q218 182 246 182 Q275 182 294 163 Q313 144 313 115 L313 59 Q313 30 294 11 Q275 -8 246 -8 Q217 -8 198 11 Q179 30 178 59 L178 115 ZM178 985 Q178 1014 198 1033 Q218 1052 246 1052 Q275 1052 294 1034 Q313 1014 313 985 L313 930 Q313 901 294 882 Q275 862 246 862 Q217 862 198 882 Q179 902 178 930 L178 985 Z" /><glyph glyph-name="semicolon" unicode=";" d="M121 -184 Q121 -168 137 -158 Q241 -101 233 0 Q178 14 178 72 L178 115 Q178 144 198 163 Q218 182 246 182 Q275 182 294 163 Q313 144 313 115 L313 63 Q312 -96 252 -156 Q192 -216 156 -216 Q120 -216 121 -184 ZM178 985 Q178 1014 198 1033 Q218 1052 246 1052 Q275 1052 294 1034 Q313 1014 313 985 L313 930 Q313 901 294 882 Q275 862 246 862 Q217 862 198 882 Q179 902 178 930 L178 985 Z" /><glyph glyph-name="less" unicode="&lt;" d="M1075 227 Q1062 213 1045 213 Q1028 213 1012 221 L160 664 Q123 684 123 719 L123 723 Q123 758 160 778 L1012 1221 Q1028 1229 1045 1229 Q1062 1228 1074 1214 Q1086 1200 1087 1176 Q1087 1152 1055 1133 L254 723 L1055 309 Q1088 290 1088 266 Q1088 242 1075 227 Z" /><glyph glyph-name="equal" unicode="=" d="M215 438 Q192 438 177 454 Q162 470 162 490 Q162 512 177 527 Q192 542 215 543 L1055 543 Q1078 544 1093 528 Q1108 512 1108 490 Q1108 468 1093 454 Q1078 439 1055 438 L215 438 ZM215 899 Q192 899 177 914 Q162 930 162 950 Q162 970 177 986 Q192 1002 215 1004 L1055 1004 Q1078 1004 1093 988 Q1108 972 1108 950 Q1108 930 1093 914 Q1078 898 1055 899 L215 899 Z" /><glyph glyph-name="greater" unicode="&gt;" d="M215 1133 Q182 1152 182 1176 Q182 1200 194 1214 Q206 1228 224 1229 Q241 1229 258 1221 L1110 778 Q1147 758 1147 723 L1147 719 Q1147 684 1110 664 L258 221 Q242 213 224 213 Q206 213 195 227 Q182 241 182 266 Q182 291 215 309 L1016 719 L215 1133 Z" /><glyph glyph-name="question" unicode="?" d="M434 115 Q434 144 454 163 Q474 182 502 182 Q531 182 550 163 Q569 144 569 115 L569 59 Q569 30 550 11 Q531 -8 502 -8 Q473 -8 454 11 Q435 30 434 59 L434 115 ZM504 367 L500 367 Q471 367 467 403 L444 668 Q442 688 456 702 Q470 716 492 719 Q668 729 773 814 Q878 899 879 1044 L879 1049 Q878 1178 784 1268 Q690 1358 539 1358 Q328 1358 164 1171 Q148 1151 126 1151 Q76 1151 76 1196 Q76 1216 88 1231 Q274 1452 543 1452 Q742 1452 864 1336 Q986 1220 987 1053 L987 1049 Q987 869 865 761 Q743 653 553 631 L537 403 Q533 367 504 367 Z" /><glyph glyph-name="at" unicode="@" d="M641 522 Q642 394 716 320 Q790 246 923 246 Q1056 246 1169 368 Q1282 490 1282 626 Q1282 762 1205 844 Q1128 926 998 926 Q868 926 755 808 Q641 690 641 522 ZM1022 -332 Q633 -332 371 -71 Q109 190 109 560 Q109 930 370 1194 Q631 1458 1005 1458 Q1378 1458 1638 1216 Q1898 974 1898 647 Q1898 403 1786 276 Q1674 149 1526 150 Q1420 150 1347 201 Q1274 252 1247 340 Q1093 150 897 150 Q745 150 640 252 Q535 354 535 514 Q535 724 683 874 Q831 1024 1012 1024 Q1221 1024 1317 842 L1339 963 Q1349 1012 1391 1012 Q1416 1012 1428 992 Q1440 972 1438 948 L1368 551 Q1350 445 1350 403 Q1350 315 1398 269 Q1446 223 1534 223 Q1653 223 1741 332 Q1829 441 1829 637 Q1830 832 1724 1004 Q1618 1176 1425 1284 Q1232 1392 1006 1393 Q654 1393 416 1150 Q178 907 178 560 Q178 213 417 -27 Q656 -267 1022 -266 Q1288 -266 1520 -135 Q1528 -131 1539 -131 Q1550 -131 1558 -140 Q1566 -148 1567 -162 Q1567 -176 1552 -186 Q1309 -332 1022 -332 Z" /><glyph glyph-name="A" unicode="a" d="M428 498 L1184 498 L807 1327 L428 498 ZM129 5 Q115 19 115 36 Q115 53 123 70 L735 1397 Q760 1448 807 1448 L811 1448 Q858 1448 883 1397 L1493 74 Q1501 58 1501 40 Q1501 22 1486 6 Q1471 -8 1443 -8 Q1415 -8 1397 33 L1229 401 L383 401 L215 31 Q200 -8 172 -8 Q144 -8 129 5 Z" /><glyph glyph-name="B" unicode="b" d="M319 98 L840 98 Q1024 98 1133 177 Q1242 256 1241 391 L1241 395 Q1241 528 1128 601 Q1015 674 805 674 L319 674 L319 98 ZM319 772 L793 772 Q959 772 1060 850 Q1161 928 1161 1067 L1161 1071 Q1161 1192 1067 1264 Q973 1336 803 1335 L319 1335 L319 772 ZM213 53 L213 1380 Q213 1400 229 1416 Q245 1432 266 1434 L805 1434 Q1051 1434 1178 1307 Q1270 1215 1270 1081 L1270 1077 Q1270 835 1026 737 Q1350 653 1350 395 L1350 391 Q1350 212 1210 106 Q1070 0 836 0 L266 0 Q246 0 229 16 Q213 33 213 53 Z" /><glyph glyph-name="C" unicode="c" d="M862 -25 Q557 -25 353 188 Q149 401 150 713 L150 717 Q150 1024 354 1241 Q559 1458 866 1458 Q1032 1458 1155 1407 Q1278 1356 1393 1257 Q1413 1238 1413 1216 Q1413 1194 1397 1178 Q1381 1162 1358 1162 Q1335 1162 1321 1176 Q1116 1362 861 1362 Q606 1362 433 1177 Q260 992 260 721 L260 717 Q260 444 435 258 Q610 72 866 72 Q1007 72 1117 121 Q1227 170 1333 270 Q1350 286 1370 286 Q1390 286 1406 272 Q1422 256 1421 236 Q1421 216 1405 199 Q1286 88 1159 32 Q1032 -24 862 -25 Z" /><glyph glyph-name="D" unicode="d" d="M319 98 L690 98 Q983 98 1162 274 Q1341 450 1341 713 L1341 717 Q1341 979 1162 1157 Q983 1335 690 1335 L319 1335 L319 98 ZM213 53 L213 1380 Q213 1400 229 1416 Q245 1432 266 1434 L690 1434 Q1024 1434 1238 1230 Q1452 1026 1452 721 L1452 717 Q1452 410 1238 205 Q1024 0 690 0 L266 0 Q246 0 229 16 Q213 33 213 53 Z" /><glyph glyph-name="E" unicode="e" d="M266 0 Q246 0 229 16 Q213 32 213 53 L213 1380 Q213 1400 229 1416 Q245 1432 266 1434 L1192 1434 Q1212 1434 1226 1420 Q1240 1406 1241 1384 Q1241 1364 1227 1350 Q1213 1336 1192 1335 L319 1335 L319 772 L1100 772 Q1120 772 1134 758 Q1148 744 1149 724 Q1149 704 1135 688 Q1121 674 1100 674 L319 674 L319 98 L1202 98 Q1222 98 1236 84 Q1250 70 1251 50 Q1251 30 1237 14 Q1223 0 1202 0 L266 0 Z" /><glyph glyph-name="F" unicode="f" d="M213 45 L213 1380 Q213 1400 229 1416 Q245 1432 266 1434 L1182 1434 Q1202 1434 1216 1420 Q1230 1406 1231 1384 Q1231 1364 1217 1350 Q1203 1336 1182 1335 L319 1335 L319 748 L1090 748 Q1110 748 1124 734 Q1138 720 1138 698 Q1138 678 1124 664 Q1110 650 1090 649 L319 649 L319 45 Q319 24 303 8 Q286 -8 266 -8 Q246 -8 229 8 Q213 25 213 45 Z" /><glyph glyph-name="G" unicode="g" d="M870 -25 Q540 -25 344 187 Q148 399 150 713 L150 717 Q150 1018 348 1238 Q547 1458 842 1458 Q1137 1458 1348 1298 Q1368 1282 1368 1257 Q1368 1232 1352 1218 Q1317 1186 1282 1217 Q1096 1362 846 1362 Q596 1362 428 1174 Q260 986 260 721 L260 717 Q260 432 426 251 Q592 70 874 70 Q1003 70 1125 116 Q1247 162 1331 233 L1331 645 L885 645 Q865 645 850 659 Q836 674 836 694 Q836 714 850 728 Q864 742 885 743 L1380 743 Q1400 743 1416 728 Q1432 713 1434 690 L1434 221 Q1434 190 1397 160 Q1159 -25 870 -25 Z" /><glyph glyph-name="H" unicode="h" d="M213 45 L213 1389 Q213 1409 229 1425 Q266 1462 303 1425 Q319 1409 319 1389 L319 770 L1237 770 L1237 1389 Q1237 1409 1253 1425 Q1290 1462 1327 1425 Q1343 1409 1343 1389 L1343 45 Q1343 24 1327 8 Q1310 -8 1290 -8 Q1270 -8 1253 8 Q1237 24 1237 45 L1237 672 L319 672 L319 45 Q319 24 303 8 Q286 -8 266 -8 Q246 -8 229 8 Q213 25 213 45 Z" /><glyph glyph-name="I" unicode="i" d="M227 45 L227 1389 Q226 1409 242 1425 Q258 1442 281 1442 Q304 1442 318 1426 Q332 1410 334 1389 L334 45 Q334 24 318 8 Q302 -8 280 -8 Q258 -8 242 8 Q226 24 227 45 Z" /><glyph glyph-name="J" unicode="j" d="M510 -20 Q242 -20 94 215 Q86 227 86 247 Q86 267 102 282 Q118 297 143 297 Q168 297 182 272 Q248 172 326 124 Q404 76 528 76 Q652 76 740 176 Q827 276 827 459 L827 1389 Q828 1409 844 1425 Q882 1462 918 1425 Q934 1409 934 1389 L934 467 Q934 224 811 102 Q688 -20 510 -20 Z" /><glyph glyph-name="K" unicode="k" d="M213 45 L213 1389 Q213 1409 229 1425 Q266 1462 303 1425 Q319 1409 319 1389 L319 492 L1225 1425 Q1242 1442 1262 1442 Q1282 1442 1298 1426 Q1334 1389 1298 1352 L752 801 L1335 86 Q1371 42 1335 8 Q1319 -8 1295 -8 Q1271 -8 1255 12 L676 725 L319 365 L319 45 Q319 24 303 8 Q286 -8 266 -8 Q246 -8 229 8 Q213 25 213 45 Z" /><glyph glyph-name="L" unicode="l" d="M213 53 L213 1389 Q213 1409 229 1425 Q266 1462 303 1425 Q319 1409 319 1389 L319 98 L1120 98 Q1140 98 1154 84 Q1168 70 1169 50 Q1169 30 1155 14 Q1141 0 1120 0 L266 0 Q246 0 229 16 Q213 33 213 53 Z" /><glyph glyph-name="M" unicode="m" d="M213 43 L213 1386 Q213 1409 229 1424 Q245 1439 266 1440 L276 1440 Q305 1440 330 1409 L889 586 L1448 1409 Q1468 1440 1501 1440 L1511 1440 Q1532 1440 1548 1424 Q1564 1408 1565 1386 L1565 45 Q1564 24 1548 8 Q1532 -8 1512 -8 Q1492 -8 1475 8 Q1459 24 1458 45 L1458 1245 L932 479 Q914 452 887 452 Q860 452 842 479 L315 1245 L315 43 Q315 20 301 6 Q287 -8 264 -8 Q241 -8 227 6 Q213 20 213 43 Z" /><glyph glyph-name="N" unicode="n" d="M213 43 L213 1386 Q213 1409 229 1424 Q245 1439 266 1440 L283 1440 Q312 1440 336 1409 L1303 182 L1303 1391 Q1303 1414 1317 1428 Q1331 1442 1354 1442 Q1377 1442 1391 1428 Q1405 1414 1405 1391 L1405 39 Q1405 22 1393 8 Q1381 -6 1362 -6 L1354 -6 Q1329 -6 1300 29 L315 1278 L315 43 Q315 20 301 6 Q287 -8 264 -8 Q241 -8 227 6 Q213 20 213 43 Z" /><glyph glyph-name="O" unicode="o" d="M435 260 Q610 72 872 72 Q1134 72 1308 258 Q1481 444 1481 713 L1481 717 Q1481 986 1306 1174 Q1130 1362 868 1362 Q606 1362 433 1176 Q260 990 260 721 L260 717 Q260 448 435 260 ZM868 -25 Q551 -26 350 192 Q149 410 150 713 L150 717 Q150 1020 352 1239 Q555 1458 872 1458 Q1188 1458 1390 1241 Q1592 1024 1591 721 L1591 717 Q1591 414 1388 194 Q1185 -26 868 -25 Z" /><glyph glyph-name="P" unicode="p" d="M319 633 L713 633 Q914 633 1036 729 Q1158 825 1159 985 L1159 989 Q1159 1155 1041 1245 Q923 1335 725 1335 L319 1335 L319 633 ZM213 45 L213 1380 Q213 1400 229 1416 Q245 1432 266 1434 L733 1434 Q973 1434 1119 1317 Q1265 1200 1266 995 L1266 991 Q1266 774 1105 654 Q944 534 707 535 L319 535 L319 45 Q319 24 303 8 Q286 -8 266 -8 Q246 -8 229 8 Q213 25 213 45 Z" /><glyph glyph-name="Q" unicode="q" d="M989 457 Q990 482 1006 498 Q1022 514 1043 514 Q1064 514 1090 494 L1325 279 Q1481 457 1481 713 L1481 717 Q1481 986 1306 1174 Q1130 1362 868 1362 Q606 1362 433 1176 Q260 990 260 721 L260 717 Q260 448 435 260 Q610 72 872 72 Q1091 72 1253 207 L1014 412 Q989 432 989 457 ZM868 -25 Q551 -26 350 192 Q149 410 150 713 L150 717 Q150 1020 352 1239 Q555 1458 872 1458 Q1188 1458 1390 1241 Q1592 1024 1591 721 L1591 717 Q1591 426 1403 211 L1567 74 Q1592 52 1592 28 Q1592 4 1575 -12 Q1539 -48 1491 -8 L1329 139 Q1136 -25 868 -25 Z" /><glyph glyph-name="R" unicode="r" d="M319 690 L803 690 Q987 690 1104 778 Q1221 866 1221 1018 L1221 1022 Q1221 1167 1112 1251 Q1003 1335 809 1335 L319 1335 L319 690 ZM213 45 L213 1380 Q213 1400 229 1416 Q245 1432 266 1434 L815 1434 Q1077 1434 1219 1292 Q1328 1183 1327 1026 L1327 1022 Q1327 848 1212 744 Q1097 640 907 612 L1315 84 Q1331 64 1331 44 Q1331 24 1315 8 Q1299 -8 1274 -8 Q1249 -8 1229 20 L788 594 L319 594 L319 45 Q319 24 303 8 Q286 -8 266 -8 Q246 -8 229 8 Q213 25 213 45 Z" /><glyph glyph-name="S" unicode="s" d="M698 -20 Q397 -20 154 180 Q134 196 134 218 Q134 240 148 258 Q164 274 184 274 Q204 274 221 262 Q428 76 705 76 Q865 76 966 157 Q1067 238 1067 360 L1067 365 Q1067 484 982 554 Q896 624 650 672 Q404 721 291 815 Q178 909 178 1073 L178 1077 Q178 1237 309 1346 Q440 1455 639 1454 Q899 1454 1096 1307 Q1118 1289 1118 1265 Q1118 1241 1102 1226 Q1086 1210 1066 1210 Q1046 1210 1030 1223 Q854 1358 635 1358 Q479 1358 382 1280 Q285 1202 285 1087 L285 1083 Q285 962 372 890 Q458 818 704 769 Q950 719 1062 626 Q1174 533 1174 375 L1174 371 Q1174 200 1040 90 Q906 -20 698 -20 Z" /><glyph glyph-name="T" unicode="t" d="M610 45 L610 1335 L152 1335 Q132 1336 118 1350 Q104 1364 102 1384 Q102 1404 116 1418 Q130 1432 152 1434 L1176 1434 Q1196 1434 1210 1420 Q1224 1406 1224 1384 Q1224 1364 1210 1350 Q1196 1336 1176 1335 L717 1335 L717 45 Q716 24 700 8 Q684 -8 664 -8 Q644 -8 627 8 Q610 24 610 45 Z" /><glyph glyph-name="U" unicode="u" d="M1206 142 Q1046 -23 780 -23 Q514 -23 352 139 Q190 301 190 596 L190 1389 Q190 1409 206 1425 Q222 1442 244 1442 Q267 1442 282 1426 Q297 1410 297 1389 L297 606 Q297 354 426 214 Q555 74 780 74 Q1005 74 1133 208 Q1260 342 1260 596 L1260 1389 Q1260 1409 1275 1425 Q1290 1442 1313 1442 Q1336 1442 1351 1426 Q1366 1410 1366 1389 L1366 608 Q1366 307 1206 142 Z" /><glyph glyph-name="V" unicode="v" d="M766 -14 Q723 -14 702 33 L119 1368 Q115 1376 115 1392 Q115 1408 130 1425 Q145 1442 175 1442 Q205 1442 223 1399 L770 115 L1319 1401 Q1336 1442 1364 1442 Q1392 1442 1408 1426 Q1424 1410 1423 1396 Q1423 1381 1419 1372 L834 33 Q814 -14 770 -14 L766 -14 Z" /><glyph glyph-name="W" unicode="w" d="M129 1360 Q123 1376 123 1392 Q123 1408 139 1425 Q155 1442 187 1442 Q219 1442 236 1393 L672 158 L1079 1401 Q1093 1442 1130 1442 L1135 1442 Q1172 1442 1186 1401 L1593 158 L2032 1399 Q2048 1442 2076 1442 Q2104 1442 2120 1426 Q2136 1410 2136 1395 Q2136 1381 2128 1360 L1649 31 Q1631 -16 1593 -16 L1589 -16 Q1548 -16 1534 31 L1128 1235 L723 31 Q709 -16 668 -16 L664 -16 Q624 -16 608 31 L129 1360 Z" /><glyph glyph-name="X" unicode="x" d="M163 6 Q150 21 150 39 Q150 57 164 76 L676 731 L188 1352 Q170 1379 170 1395 Q170 1411 185 1426 Q200 1442 223 1442 Q246 1442 266 1415 L741 803 L1210 1409 Q1234 1442 1258 1442 Q1282 1442 1295 1428 Q1324 1396 1294 1358 L805 733 L1311 82 Q1329 62 1329 42 Q1329 22 1314 8 Q1299 -8 1276 -8 Q1253 -8 1233 18 L737 662 L248 25 Q223 -8 200 -8 Q177 -8 163 6 Z" /><glyph glyph-name="Y" unicode="y" d="M680 45 L680 567 L121 1356 Q111 1372 111 1390 Q111 1408 127 1425 Q143 1442 169 1442 Q195 1442 215 1411 L735 664 L1257 1411 Q1280 1442 1302 1442 Q1324 1442 1341 1426 Q1372 1396 1341 1350 L786 569 L786 45 Q786 24 770 8 Q754 -8 734 -8 Q714 -8 696 8 Q680 25 680 45 Z" /><glyph glyph-name="Z" unicode="z" d="M197 0 Q177 0 161 14 Q146 28 145 45 L145 47 Q145 67 164 92 L1120 1337 L215 1337 Q194 1336 180 1350 Q166 1364 166 1384 Q166 1404 180 1418 Q194 1432 215 1434 L1214 1434 Q1234 1434 1250 1420 Q1266 1406 1266 1389 L1266 1386 Q1266 1366 1247 1341 L291 96 L1231 96 Q1252 96 1266 83 Q1280 70 1280 50 Q1280 30 1266 14 Q1252 0 1231 0 L197 0 Z" /><glyph glyph-name="bracketleft" unicode="[" d="M201 -213 L201 1380 Q201 1400 217 1416 Q233 1432 254 1434 L729 1434 Q744 1434 756 1422 Q768 1410 768 1395 Q768 1380 757 1368 Q746 1356 729 1356 L295 1356 L295 -188 L729 -188 Q744 -188 756 -200 Q768 -212 768 -227 Q768 -242 757 -254 Q746 -266 729 -266 L254 -266 Q234 -266 217 -250 Q201 -233 201 -213 Z" /><glyph glyph-name="backslash" unicode="\" d="M1036 -229 Q1036 -246 1024 -258 Q1012 -270 988 -270 Q964 -270 950 -242 L25 1573 Q8 1606 26 1624 Q44 1642 66 1642 Q90 1642 104 1614 L1030 -201 Q1036 -213 1036 -229 Z" /><glyph glyph-name="bracketright" unicode="]" d="M680 1380 L680 -213 Q680 -234 664 -250 Q648 -266 627 -266 L152 -266 Q136 -266 124 -254 Q113 -242 113 -228 Q113 -214 124 -201 Q135 -189 152 -188 L586 -188 L586 1356 L152 1356 Q136 1356 124 1368 Q113 1380 113 1394 Q113 1408 124 1421 Q135 1433 152 1434 L627 1434 Q648 1434 664 1417 Q680 1400 680 1380 Z" /><glyph glyph-name="asciicircum" unicode="^" d="M264 1030 Q244 1001 204 1001 Q164 1001 164 1024 Q164 1036 174 1051 L446 1411 Q477 1448 504 1448 L520 1448 Q547 1448 578 1411 L850 1051 Q860 1037 860 1024 Q860 1001 818 1001 Q776 1001 756 1030 L510 1352 L264 1030 Z" /><glyph glyph-name="underscore" unicode="_" d="M-4 -328 Q-22 -328 -36 -314 Q-50 -300 -49 -283 Q-49 -266 -36 -252 Q-23 -238 -4 -238 L1233 -238 Q1250 -238 1264 -251 Q1278 -264 1278 -282 Q1278 -300 1265 -314 Q1252 -327 1233 -328 L-4 -328 Z" /><glyph glyph-name="grave" unicode="`" d="M612 1231 Q613 1212 581 1212 Q549 1212 520 1239 L356 1397 Q334 1420 334 1435 Q334 1450 362 1465 Q437 1505 477 1444 L604 1253 Q612 1241 612 1231 Z" /><glyph glyph-name="a" unicode="a" d="M300 135 Q390 70 534 70 Q678 70 794 161 Q910 252 909 391 L909 510 Q725 557 558 557 Q391 557 301 490 Q211 423 211 313 L211 309 Q211 200 300 135 ZM956 -8 Q909 -8 907 43 L907 174 Q766 -25 508 -25 Q348 -25 226 62 Q104 149 104 303 L104 307 Q104 467 229 557 Q354 647 546 647 Q738 647 907 602 L907 647 Q907 803 817 885 Q727 967 569 967 Q411 967 266 897 Q254 891 240 891 Q226 891 211 905 Q197 919 197 945 Q197 971 225 983 Q401 1061 569 1061 Q784 1060 894 950 Q1004 840 1006 651 L1006 43 Q1006 20 992 6 Q978 -8 956 -8 Z" /><glyph glyph-name="b" unicode="b" d="M285 520 Q285 324 413 198 Q541 72 714 72 Q887 72 1004 193 Q1121 314 1120 518 L1120 522 Q1120 723 1000 848 Q880 973 710 973 Q540 973 413 845 Q285 717 285 524 L285 520 ZM190 43 L190 1452 Q190 1475 204 1489 Q218 1503 240 1503 Q289 1503 291 1452 L291 811 Q461 1069 721 1069 Q922 1070 1076 920 Q1230 770 1229 526 L1229 522 Q1229 278 1075 126 Q921 -26 721 -25 Q455 -25 291 225 L291 43 Q290 20 276 6 Q262 -8 242 -8 Q222 -8 206 6 Q190 20 190 43 Z" /><glyph glyph-name="c" unicode="c" d="M1055 156 Q878 -25 653 -25 Q428 -25 273 136 Q118 297 119 518 L119 522 Q119 743 274 906 Q430 1069 648 1069 Q866 1069 1044 903 Q1058 889 1058 866 Q1058 843 1044 829 Q1028 815 1006 815 Q984 815 973 827 Q817 974 644 974 Q471 974 349 845 Q227 715 227 526 L227 522 Q227 334 352 202 Q477 70 656 70 Q835 70 985 219 Q1019 253 1052 220 Q1067 204 1067 186 Q1067 168 1055 156 Z" /><glyph glyph-name="d" unicode="d" d="M939 846 Q811 973 638 973 Q465 973 348 852 Q231 731 231 526 L231 522 Q231 320 351 196 Q471 72 641 72 Q811 72 939 200 Q1067 328 1067 520 L1067 524 Q1067 719 939 846 ZM1161 1452 L1161 43 Q1161 20 1148 6 Q1135 -8 1112 -8 Q1089 -8 1075 6 Q1061 20 1061 43 L1061 233 Q891 -25 631 -25 Q430 -25 276 125 Q122 275 123 518 L123 522 Q123 766 276 918 Q430 1070 631 1069 Q897 1069 1061 819 L1061 1452 Q1061 1475 1074 1489 Q1087 1503 1110 1503 Q1133 1503 1147 1489 Q1161 1475 1161 1452 Z" /><glyph glyph-name="e" unicode="e" d="M1038 145 Q868 -25 644 -25 Q420 -25 269 129 Q118 283 119 520 L119 524 Q119 753 261 911 Q403 1069 616 1069 Q830 1069 962 913 Q1094 757 1094 528 Q1094 510 1078 496 Q1062 482 1044 481 L225 481 Q239 293 357 181 Q475 69 635 70 Q825 70 973 213 Q986 227 1006 227 Q1026 227 1040 214 Q1054 201 1054 181 Q1054 161 1038 145 ZM877 860 Q780 977 618 977 Q456 977 348 861 Q240 745 225 571 L985 571 Q973 743 877 860 Z" /><glyph glyph-name="f" unicode="f" d="M252 43 L252 952 L139 952 Q120 952 106 966 Q92 980 92 998 Q92 1016 106 1030 Q120 1044 139 1044 L252 1044 L252 1147 Q252 1327 339 1414 Q426 1501 563 1501 Q626 1501 688 1487 Q727 1481 727 1440 Q726 1387 648 1401 Q604 1409 563 1409 Q352 1409 352 1145 L352 1044 L678 1044 Q698 1044 712 1031 Q726 1018 725 998 Q725 978 711 966 Q697 953 678 952 L352 952 L352 43 Q352 20 338 6 Q324 -8 304 -8 Q284 -8 267 6 Q252 20 252 43 Z" /><glyph glyph-name="g" unicode="g" d="M231 573 Q231 402 350 288 Q469 174 637 174 Q805 174 936 287 Q1067 400 1067 571 L1067 575 Q1067 749 937 861 Q807 973 636 973 Q465 973 348 864 Q231 755 231 578 L231 573 ZM1161 162 Q1161 -60 1025 -196 Q889 -332 643 -332 Q397 -332 193 -188 Q170 -172 170 -150 Q170 -128 191 -106 Q212 -85 250 -104 Q430 -238 634 -238 Q838 -238 949 -134 Q1061 -30 1061 168 L1061 319 Q893 77 625 78 Q426 78 274 216 Q122 354 123 569 L123 573 Q123 790 274 930 Q426 1069 625 1069 Q897 1069 1061 836 L1061 1001 Q1061 1024 1075 1038 Q1090 1052 1110 1052 Q1130 1052 1146 1038 Q1162 1024 1161 1001 L1161 162 Z" /><glyph glyph-name="h" unicode="h" d="M190 43 L190 1452 Q190 1475 204 1489 Q218 1503 241 1503 Q262 1503 276 1489 Q290 1475 291 1452 L291 850 Q416 1069 668 1069 Q862 1069 974 949 Q1086 829 1085 639 L1085 43 Q1085 20 1072 6 Q1059 -8 1036 -8 Q1013 -8 999 6 Q985 20 985 43 L985 621 Q985 785 897 881 Q809 977 653 977 Q497 978 394 872 Q291 766 291 604 L291 43 Q291 20 278 6 Q265 -8 242 -8 Q218 -8 204 6 Q190 20 190 43 Z" /><glyph glyph-name="i" unicode="i" d="M205 43 L205 1001 Q205 1024 219 1038 Q233 1052 255 1052 Q277 1052 291 1038 Q305 1024 305 1001 L305 43 Q305 20 292 6 Q279 -8 256 -8 Q233 -8 219 6 Q205 20 205 43 ZM193 1368 L193 1403 Q193 1430 210 1447 Q227 1464 254 1464 Q281 1464 299 1447 Q317 1430 317 1403 L317 1368 Q317 1341 299 1324 Q281 1307 254 1307 Q227 1307 210 1324 Q193 1341 193 1368 Z" /><glyph glyph-name="j" unicode="j" d="M205 -98 L205 1001 Q205 1024 219 1038 Q233 1052 255 1052 Q277 1052 291 1038 Q305 1024 305 1001 L305 -92 Q306 -210 246 -272 Q186 -334 82 -334 Q47 -334 33 -332 Q-10 -324 -10 -287 Q-10 -270 3 -256 Q16 -242 35 -242 L80 -244 Q137 -244 171 -207 Q205 -170 205 -98 ZM193 1368 L193 1403 Q193 1430 210 1447 Q227 1464 254 1464 Q281 1464 299 1447 Q317 1430 317 1403 L317 1368 Q317 1341 299 1324 Q281 1307 254 1307 Q227 1307 210 1324 Q193 1341 193 1368 Z" /><glyph glyph-name="k" unicode="k" d="M190 43 L190 1452 Q190 1475 204 1489 Q218 1503 241 1503 Q262 1503 276 1489 Q290 1475 291 1452 L291 375 L932 1038 Q946 1052 966 1052 Q986 1052 1000 1040 Q1032 1007 997 971 L614 582 L1024 76 Q1038 60 1038 39 Q1038 -8 989 -8 Q966 -8 946 14 L545 510 L291 254 L291 43 Q291 20 278 6 Q265 -8 242 -8 Q218 -8 204 6 Q190 20 190 43 Z" /><glyph glyph-name="l" unicode="l" d="M205 43 L205 1452 Q205 1475 219 1489 Q234 1503 254 1503 Q274 1503 290 1489 Q306 1475 305 1452 L305 43 Q305 20 292 6 Q279 -8 256 -8 Q233 -8 219 6 Q205 20 205 43 Z" /><glyph glyph-name="m" unicode="m" d="M190 43 L190 1001 Q190 1024 204 1038 Q218 1052 241 1052 Q262 1052 276 1038 Q290 1024 291 1001 L291 858 Q352 956 432 1012 Q512 1068 639 1069 Q885 1069 991 844 Q1122 1069 1368 1069 Q1552 1069 1661 950 Q1770 831 1769 633 L1769 43 Q1769 20 1756 6 Q1743 -8 1720 -8 Q1697 -8 1683 6 Q1669 20 1669 43 L1669 621 Q1669 789 1587 883 Q1505 977 1364 977 Q1222 977 1126 877 Q1030 777 1030 608 L1030 43 Q1030 20 1017 6 Q1004 -8 981 -8 Q958 -8 944 6 Q930 20 930 43 L930 627 Q930 789 847 883 Q764 977 625 977 Q486 977 388 868 Q290 759 291 602 L291 43 Q291 20 278 6 Q265 -8 242 -8 Q218 -8 204 6 Q190 20 190 43 Z" /><glyph glyph-name="n" unicode="n" d="M190 43 L190 1001 Q190 1024 204 1038 Q218 1052 241 1052 Q262 1052 276 1038 Q290 1024 291 1001 L291 850 Q416 1069 668 1069 Q862 1069 974 949 Q1086 829 1085 639 L1085 43 Q1085 20 1072 6 Q1059 -8 1036 -8 Q1013 -8 999 6 Q985 20 985 43 L985 621 Q985 785 897 881 Q809 977 653 977 Q497 978 394 872 Q291 766 291 604 L291 43 Q291 20 278 6 Q265 -8 242 -8 Q218 -8 204 6 Q190 20 190 43 Z" /><glyph glyph-name="o" unicode="o" d="M352 202 Q477 70 659 70 Q841 70 963 201 Q1084 332 1083 518 L1083 522 Q1083 710 958 842 Q833 974 651 975 Q469 975 348 844 Q227 713 227 526 L227 522 Q227 334 352 202 ZM1037 137 Q882 -25 653 -25 Q424 -25 271 135 Q118 295 119 518 L119 522 Q119 745 273 907 Q428 1069 657 1069 Q886 1069 1039 909 Q1192 749 1192 526 L1192 522 Q1192 299 1037 137 Z" /><glyph glyph-name="p" unicode="p" d="M285 520 Q285 324 413 198 Q541 72 714 72 Q887 72 1004 193 Q1121 314 1120 518 L1120 522 Q1120 723 1000 848 Q880 973 710 973 Q540 973 413 845 Q285 717 285 524 L285 520 ZM190 -285 L190 1001 Q190 1051 240 1053 Q262 1052 276 1038 Q290 1024 291 1001 L291 811 Q461 1069 721 1069 Q922 1070 1076 920 Q1230 770 1229 526 L1229 522 Q1229 278 1075 126 Q921 -26 721 -25 Q455 -25 291 225 L291 -285 Q291 -308 278 -322 Q265 -336 242 -336 Q218 -336 204 -322 Q190 -308 190 -285 Z" /><glyph glyph-name="q" unicode="q" d="M939 846 Q811 973 638 973 Q465 973 348 852 Q231 731 231 526 L231 522 Q231 320 351 196 Q471 72 641 72 Q811 72 939 200 Q1067 328 1067 520 L1067 524 Q1067 719 939 846 ZM1161 1001 L1161 -285 Q1161 -308 1148 -322 Q1135 -336 1112 -336 Q1089 -336 1075 -322 Q1061 -308 1061 -285 L1061 233 Q891 -25 631 -25 Q430 -25 276 125 Q122 275 123 518 L123 522 Q123 766 276 918 Q430 1070 631 1069 Q897 1069 1061 819 L1061 1001 Q1061 1024 1075 1038 Q1090 1052 1110 1052 Q1130 1052 1146 1038 Q1162 1024 1161 1001 Z" /><glyph glyph-name="r" unicode="r" d="M190 43 L190 1001 Q190 1024 204 1038 Q218 1052 241 1052 Q262 1052 276 1038 Q290 1024 291 1001 L291 748 Q357 893 475 977 Q594 1061 711 1061 Q734 1060 749 1044 Q764 1028 764 1006 Q764 955 711 950 Q531 934 411 800 Q291 666 291 428 L291 43 Q290 20 276 6 Q262 -8 240 -8 Q218 -8 204 6 Q190 20 190 43 Z" /><glyph glyph-name="s" unicode="s" d="M528 -20 Q424 -20 314 16 Q204 52 123 115 Q104 130 104 152 Q104 174 118 188 Q132 202 152 202 Q172 202 186 193 Q352 74 535 74 Q644 74 716 129 Q788 184 786 272 L786 276 Q786 360 716 403 Q646 446 542 476 Q292 547 226 605 Q198 631 175 675 Q151 719 152 772 L152 776 Q152 903 248 984 Q344 1065 506 1065 Q668 1065 834 971 Q860 954 860 930 Q860 906 846 892 Q832 878 814 877 Q796 877 782 885 Q638 971 512 971 Q386 971 320 920 Q254 869 254 788 L254 784 Q254 720 313 675 Q372 630 498 595 Q623 559 672 541 Q721 522 777 488 Q889 419 889 289 L889 285 Q890 148 786 64 Q682 -20 528 -20 Z" /><glyph glyph-name="t" unicode="t" d="M539 -18 Q410 -18 328 54 Q246 126 246 268 L246 952 L133 952 Q114 952 100 966 Q86 980 86 999 Q86 1016 100 1030 Q114 1044 133 1044 L246 1044 L246 1335 Q246 1358 260 1372 Q274 1386 294 1386 Q314 1386 330 1371 Q346 1356 346 1335 L346 1044 L674 1044 Q692 1044 706 1030 Q720 1016 721 998 Q721 980 707 966 Q693 953 674 952 L346 952 L346 279 Q346 76 555 76 Q598 76 635 86 L674 96 Q690 96 704 83 Q718 70 719 45 Q719 20 686 8 Q611 -18 539 -18 Z" /><glyph glyph-name="u" unicode="u" d="M965 1001 Q965 1051 1014 1053 Q1037 1052 1051 1038 Q1065 1024 1065 1001 L1065 43 Q1065 20 1051 6 Q1037 -8 1015 -8 Q993 -8 979 6 Q965 20 965 43 L965 195 Q840 -24 588 -25 Q394 -25 282 95 Q170 215 170 406 L170 1001 Q170 1051 219 1053 Q242 1052 256 1038 Q270 1024 270 1001 L270 424 Q270 260 358 164 Q446 68 602 68 Q758 68 861 173 Q964 278 965 440 L965 1001 Z" /><glyph glyph-name="v" unicode="v" d="M598 -14 L594 -14 Q557 -14 537 29 L117 971 Q109 992 109 1008 Q109 1024 124 1038 Q139 1052 168 1052 Q197 1052 215 1012 L596 113 L983 1016 Q996 1053 1024 1053 Q1052 1052 1068 1038 Q1084 1024 1083 1008 Q1083 992 1077 975 L655 29 Q635 -14 598 -14 Z" /><glyph glyph-name="w" unicode="w" d="M524 -14 Q485 -14 469 31 L127 971 Q119 992 119 1008 Q119 1024 134 1038 Q149 1052 180 1052 Q211 1052 225 1010 L528 127 L831 1014 Q845 1053 881 1053 L885 1053 Q922 1053 936 1014 L1239 127 L1544 1014 Q1556 1053 1584 1053 Q1612 1053 1634 1034 Q1655 1015 1636 971 L1294 31 Q1278 -14 1239 -14 L1235 -14 Q1196 -14 1180 33 L883 887 L584 33 Q568 -14 528 -14 L524 -14 Z" /><glyph glyph-name="x" unicode="x" d="M137 39 Q137 57 150 72 L520 532 L168 971 Q154 990 154 1008 Q154 1026 168 1039 Q182 1052 205 1052 Q228 1052 244 1032 L586 602 L926 1028 Q946 1053 966 1053 Q986 1052 1000 1038 Q1029 1005 1001 973 L647 535 L1016 74 Q1030 56 1030 38 Q1030 20 1016 6 Q1002 -8 979 -8 Q956 -8 940 12 L582 465 L225 16 Q204 -8 184 -8 Q164 -8 150 6 Q136 20 137 39 Z" /><glyph glyph-name="y" unicode="y" d="M515 -266 Q432 -334 330 -334 Q228 -334 139 -301 Q110 -290 110 -264 Q111 -210 158 -211 Q166 -211 206 -225 Q246 -240 326 -240 Q408 -240 465 -184 Q522 -128 575 -8 L582 6 L115 971 Q97 1016 117 1034 Q137 1052 166 1052 Q195 1052 213 1012 L631 111 L995 1016 Q1008 1053 1036 1053 Q1064 1053 1084 1034 Q1104 1015 1090 975 L666 -37 Q598 -198 515 -266 Z" /><glyph glyph-name="z" unicode="z" d="M172 0 Q154 0 139 12 Q125 24 125 41 L125 43 Q125 66 143 86 L872 954 L184 954 Q166 954 153 968 Q140 982 139 999 Q138 1016 152 1030 Q166 1044 184 1044 L969 1044 Q987 1044 1001 1032 Q1015 1020 1016 1004 L1016 1001 Q1016 978 997 958 L268 90 L985 90 Q1002 90 1016 77 Q1030 64 1030 46 Q1030 28 1017 14 Q1004 0 985 0 L172 0 Z" /><glyph glyph-name="braceleft" unicode="{" d="M420 127 L420 289 Q420 420 366 484 Q312 548 162 549 Q113 549 113 588 Q113 627 162 627 Q312 628 366 692 Q420 756 420 887 L420 1049 Q420 1221 504 1316 Q588 1411 831 1460 Q850 1464 862 1455 Q874 1446 874 1424 Q874 1402 850 1395 Q637 1340 579 1269 Q521 1198 520 1036 L520 883 Q520 754 466 686 Q412 618 307 588 Q418 551 469 486 Q520 421 520 293 L520 139 Q520 -24 578 -94 Q636 -164 850 -219 Q874 -226 874 -248 Q873 -294 831 -285 Q588 -236 504 -140 Q420 -44 420 127 Z" /><glyph glyph-name="bar" unicode="|" d="M248 -225 L248 1597 Q248 1614 261 1628 Q274 1642 292 1642 Q310 1642 324 1629 Q338 1616 338 1597 L338 -225 Q338 -242 325 -256 Q312 -270 294 -270 Q276 -270 261 -257 Q248 -243 248 -225 Z" /><glyph glyph-name="braceright" unicode="}" d="M563 1049 L563 887 Q563 756 617 691 Q671 626 821 627 Q870 627 870 588 Q870 549 821 549 Q671 549 617 484 Q563 419 563 289 L563 127 Q563 -45 479 -140 Q395 -235 152 -285 Q109 -295 109 -249 Q109 -227 133 -219 Q346 -164 404 -93 Q462 -22 463 139 L463 293 Q463 422 517 490 Q571 558 676 588 Q565 626 514 690 Q463 754 463 883 L463 1036 Q462 1198 404 1269 Q346 1340 133 1395 Q108 1403 108 1424 Q109 1469 152 1460 Q396 1411 480 1316 Q564 1221 563 1049 Z" /><glyph glyph-name="asciitilde" unicode="~" d="M174 526 Q174 538 178 551 Q207 637 245 671 Q283 705 332 705 Q381 705 475 663 Q569 621 602 621 Q635 621 655 638 Q675 655 694 698 Q708 727 731 727 Q768 727 768 692 Q768 680 764 668 Q735 582 697 548 Q659 514 610 514 Q561 514 467 556 Q373 598 340 598 Q306 598 286 580 Q266 562 248 520 Q234 491 211 492 Q174 492 174 526 Z" /><glyph glyph-name="nonbreakingspace" unicode=" " d="" /><glyph glyph-name="exclamdown" unicode="¡" d="M326 1319 Q326 1290 306 1271 Q286 1252 258 1252 Q229 1252 210 1270 Q191 1290 190 1319 L190 1374 Q190 1403 210 1422 Q230 1442 258 1442 Q287 1442 306 1422 Q325 1402 326 1374 L326 1319 ZM270 -6 L246 -6 Q226 -6 210 9 Q195 24 195 45 L227 1034 Q226 1046 236 1056 Q246 1066 258 1065 Q270 1065 280 1056 Q289 1046 289 1034 L322 45 Q322 26 306 10 Q290 -6 270 -6 Z" /><glyph glyph-name="cent" unicode="¢" d="M236 727 Q236 584 312 469 Q388 354 508 305 L676 1180 L657 1180 Q479 1180 357 1050 Q235 920 236 731 L236 727 ZM127 723 L127 727 Q127 948 283 1111 Q439 1274 659 1274 L690 1274 L717 1413 Q725 1454 766 1454 Q791 1454 806 1436 Q821 1418 815 1391 L788 1260 Q923 1227 1053 1106 Q1071 1088 1071 1065 Q1071 1042 1057 1028 Q1043 1014 1021 1014 Q999 1014 983 1030 Q872 1139 764 1165 L592 281 Q629 275 666 274 Q844 274 993 424 Q1010 442 1030 442 Q1050 442 1064 428 Q1078 414 1077 396 Q1077 378 1063 362 Q891 180 659 180 Q606 180 580 184 L547 20 Q539 -20 506 -20 Q473 -20 458 -2 Q443 16 449 43 L483 211 Q323 266 225 408 Q127 550 127 723 Z" /><glyph glyph-name="sterling" unicode="£" d="M162 0 Q135 0 135 25 Q135 50 160 55 L319 92 L319 625 L184 625 Q164 625 150 639 Q136 654 136 674 Q136 694 150 708 Q164 722 184 723 L319 723 L319 965 Q320 1202 446 1328 Q572 1454 760 1454 Q1008 1454 1169 1264 Q1201 1222 1169 1190 Q1154 1176 1132 1176 Q1110 1176 1092 1194 Q1022 1274 946 1316 Q870 1358 742 1358 Q614 1358 520 1263 Q424 1168 424 967 L424 723 L993 723 Q1014 723 1028 709 Q1042 694 1042 674 Q1042 654 1028 640 Q1014 626 993 625 L424 625 L424 96 L1149 96 Q1170 96 1184 82 Q1198 68 1198 48 Q1198 28 1184 14 Q1170 0 1149 0 L162 0 Z" /><glyph glyph-name="yen" unicode="¥" d="M754 549 L754 348 L1151 348 Q1170 348 1184 335 Q1198 322 1198 302 Q1198 282 1184 270 Q1170 256 1151 256 L754 256 L754 43 Q754 20 740 6 Q726 -8 702 -8 Q653 -8 651 43 L651 256 L254 256 Q236 256 221 269 Q207 282 207 302 Q207 322 221 334 Q235 348 254 348 L651 348 L651 549 L254 549 Q236 549 221 562 Q207 576 207 594 Q207 612 221 626 Q235 640 254 641 L614 641 L121 1354 Q109 1372 109 1392 Q109 1412 124 1426 Q139 1442 164 1442 Q189 1442 211 1409 L705 670 L1202 1413 Q1220 1442 1246 1442 Q1272 1442 1284 1428 Q1298 1414 1298 1395 Q1298 1377 1284 1354 L788 641 L1151 641 Q1170 641 1184 627 Q1198 612 1198 594 Q1198 576 1184 562 Q1170 548 1151 549 L754 549 Z" /><glyph glyph-name="section" unicode="§" d="M240 752 Q240 631 536 557 Q692 518 800 518 Q908 518 982 566 Q1056 614 1055 678 L1055 682 Q1056 802 758 877 Q602 916 494 916 Q386 916 313 867 Q239 819 240 756 L240 752 ZM674 -20 Q422 -20 236 147 Q218 165 217 188 Q217 211 233 226 Q269 260 313 223 Q467 80 684 80 Q801 80 861 124 Q921 168 922 238 L922 242 Q922 310 838 360 Q754 410 537 462 Q320 514 226 579 Q133 644 133 743 L133 748 Q133 838 215 900 Q297 962 436 979 Q260 1057 260 1194 L260 1198 Q260 1314 359 1384 Q458 1454 621 1454 Q873 1454 1059 1286 Q1077 1268 1077 1245 Q1077 1222 1061 1207 Q1044 1192 1024 1192 Q1004 1192 981 1210 Q827 1353 610 1354 Q493 1354 433 1310 Q373 1266 373 1196 L373 1192 Q373 1124 457 1074 Q541 1024 758 972 Q975 920 1068 855 Q1161 790 1161 690 L1161 686 Q1161 596 1079 534 Q997 472 858 455 Q1034 377 1034 240 L1034 236 Q1034 120 935 50 Q836 -20 674 -20 Z" /><glyph glyph-name="dieresis" unicode="¨" d="M344 1391 Q375 1392 395 1372 Q415 1352 416 1321 L416 1280 Q416 1249 396 1230 Q376 1210 344 1210 Q313 1210 293 1230 Q273 1250 272 1280 L272 1321 Q272 1352 292 1372 Q312 1392 344 1391 ZM680 1391 Q711 1392 731 1372 Q751 1352 752 1321 L752 1280 Q752 1249 732 1230 Q712 1210 680 1210 Q649 1210 629 1230 Q609 1250 608 1280 L608 1321 Q608 1352 628 1372 Q648 1392 680 1391 Z" /><glyph glyph-name="copyright" unicode="©" d="M1133 451 Q1004 340 852 340 Q700 340 592 453 Q484 566 485 725 L485 729 Q485 888 594 1002 Q703 1116 855 1116 Q1007 1116 1124 1014 Q1142 1000 1142 980 Q1142 960 1130 946 Q1116 934 1100 934 Q1084 934 1065 948 Q965 1034 851 1034 Q737 1034 656 945 Q575 856 575 731 L575 727 Q575 602 658 512 Q741 422 859 422 Q977 422 1077 512 Q1094 522 1108 522 Q1122 522 1134 510 Q1146 498 1147 480 Q1147 462 1133 451 ZM364 232 Q558 34 848 33 Q1138 32 1334 232 Q1530 432 1530 717 L1530 721 Q1530 1004 1335 1202 Q1140 1400 852 1401 Q564 1401 366 1201 Q170 1001 170 717 L170 713 Q170 430 364 232 ZM848 -25 Q539 -25 324 191 Q109 407 109 713 L109 717 Q109 1022 326 1240 Q543 1458 852 1458 Q1161 1458 1376 1242 Q1591 1026 1591 721 L1591 717 Q1591 412 1374 194 Q1157 -24 848 -25 Z" /><glyph glyph-name="ordfeminine" unicode="ª" d="M160 600 Q144 600 131 612 Q119 624 119 640 Q119 656 131 670 Q143 682 160 682 L610 682 Q626 682 638 670 Q650 658 651 642 Q651 626 639 612 Q627 600 610 600 L160 600 ZM257 946 Q300 915 370 915 Q440 915 499 959 Q557 1003 557 1073 L557 1128 Q483 1151 394 1151 Q305 1151 260 1118 Q215 1085 215 1034 L215 1030 Q215 977 257 946 ZM356 842 Q268 842 200 891 Q132 940 133 1026 L133 1030 Q133 1118 203 1169 Q273 1220 372 1220 Q471 1220 557 1198 L557 1208 Q557 1286 512 1326 Q467 1366 391 1366 Q315 1366 233 1329 Q221 1323 209 1323 Q197 1323 185 1333 Q174 1343 174 1364 Q174 1385 199 1395 Q298 1440 404 1440 Q510 1440 571 1378 Q632 1316 633 1210 L633 883 Q633 870 622 858 Q610 846 594 846 Q578 846 567 857 Q557 868 557 883 L557 938 Q483 842 356 842 Z" /><glyph glyph-name="guillemotleft" unicode="«" d="M484 100 Q470 88 450 88 Q430 88 414 111 L133 477 Q113 504 113 522 Q113 540 133 567 L414 934 Q430 956 450 956 Q470 956 484 944 Q498 932 498 914 Q498 896 485 879 L227 524 L485 166 Q498 152 498 132 Q498 112 484 100 ZM870 88 Q847 88 831 111 L551 477 Q531 504 530 522 Q530 540 551 567 L831 934 Q848 956 868 956 Q888 956 902 944 Q916 932 915 914 Q915 896 903 879 L645 524 L903 166 Q915 148 915 131 Q911 88 870 88 Z" /><glyph glyph-name="registered" unicode="®" d="M350 1102 L446 1102 Q526 1102 526 1166 Q526 1230 446 1231 L350 1231 L350 1102 ZM293 946 L293 1253 Q293 1282 322 1282 L453 1282 Q510 1282 548 1252 Q586 1222 586 1171 Q586 1087 500 1061 L578 969 Q588 957 588 944 Q588 917 561 918 Q545 918 532 934 L432 1055 L350 1055 L350 946 Q350 917 322 918 Q293 917 293 946 ZM202 870 Q293 776 426 776 Q559 776 650 870 Q741 964 741 1096 L741 1098 Q741 1229 650 1322 Q559 1415 426 1415 Q293 1415 202 1321 Q111 1227 111 1096 L111 1094 Q111 964 202 870 ZM782 1096 Q782 949 678 843 Q574 737 424 737 Q276 738 173 842 Q70 946 70 1094 L70 1096 Q70 1242 174 1348 Q278 1454 427 1454 Q576 1454 679 1350 Q782 1246 782 1098 L782 1096 Z" /><glyph glyph-name="macron" unicode="¯" d="M782 1272 L242 1272 Q222 1272 207 1286 Q193 1300 193 1320 Q193 1340 207 1356 Q221 1370 242 1370 L782 1370 Q802 1370 816 1356 Q830 1342 831 1322 Q831 1302 817 1286 Q802 1272 782 1272 Z" /><glyph glyph-name="degree" unicode="°" d="M313 996 Q373 934 461 934 Q549 934 608 996 Q667 1058 668 1143 L668 1147 Q668 1231 608 1293 Q548 1356 461 1356 Q374 1356 314 1294 Q254 1232 254 1147 L254 1143 Q254 1059 313 996 ZM677 934 Q584 844 461 844 Q338 844 245 934 Q152 1024 152 1143 L152 1147 Q152 1266 245 1356 Q338 1446 461 1446 Q584 1446 677 1356 Q770 1266 770 1147 L770 1143 Q770 1024 677 934 Z" /><glyph glyph-name="plusminus" unicode="±" d="M201 0 Q181 0 166 14 Q152 28 152 48 Q152 68 166 84 Q180 98 201 98 L1069 98 Q1090 98 1104 84 Q1118 70 1118 50 Q1118 30 1104 14 Q1090 0 1069 0 L201 0 ZM584 360 L584 733 L201 733 Q180 734 166 748 Q152 762 152 782 Q152 802 166 816 Q180 830 201 831 L584 831 L584 1204 Q584 1224 599 1240 Q614 1256 634 1255 Q654 1255 670 1240 Q686 1225 686 1204 L686 831 L1069 831 Q1090 831 1104 817 Q1118 802 1118 782 Q1118 762 1104 748 Q1090 734 1069 733 L686 733 L686 360 Q686 340 671 325 Q656 310 636 310 Q616 310 600 324 Q584 340 584 360 Z" /><glyph glyph-name="acute" unicode="´" d="M504 1239 Q475 1212 443 1212 Q411 1212 412 1231 Q412 1241 420 1253 L547 1444 Q572 1481 602 1481 Q632 1482 662 1466 Q690 1450 690 1435 Q690 1420 668 1397 L504 1239 Z" /><glyph glyph-name="paragraph" unicode="¶" d="M682 45 L682 567 L670 567 Q426 567 267 683 Q108 799 109 999 L109 1004 Q109 1202 256 1318 Q403 1434 639 1434 L735 1434 Q758 1434 774 1418 Q790 1402 791 1378 L791 45 Q792 22 776 7 Q760 -8 737 -8 Q714 -8 698 7 Q682 22 682 45 Z" /><glyph glyph-name="periodcentered" unicode="·" d="M168 637 Q168 666 187 685 Q206 704 236 704 Q266 704 284 686 Q303 666 303 637 L303 582 Q303 553 284 534 Q265 514 236 514 Q208 514 188 534 Q168 554 168 582 L168 637 Z" /><glyph glyph-name="cedilla" unicode="¸" d="M422 -291 Q392 -290 370 -274 Q348 -258 348 -244 Q348 -230 358 -211 L516 20 L604 20 L471 -250 Q451 -291 422 -291 Z" /><glyph glyph-name="ordmasculine" unicode="º" d="M193 1143 Q193 1050 253 986 Q313 922 402 922 Q491 922 549 985 Q606 1048 606 1139 L606 1143 Q606 1236 546 1300 Q486 1364 396 1364 Q306 1364 250 1300 Q193 1236 193 1147 L193 1143 ZM137 600 Q121 600 109 612 Q80 641 109 670 Q121 682 137 682 L662 682 Q678 682 690 670 Q702 658 702 642 Q702 626 690 612 Q678 600 662 600 L137 600 ZM609 931 Q524 842 398 842 Q272 842 188 929 Q104 1016 104 1139 L104 1143 Q104 1266 189 1355 Q274 1444 400 1444 Q526 1444 610 1357 Q694 1270 694 1147 L694 1143 Q694 1020 609 931 Z" /><glyph glyph-name="guillemotright" unicode="»" d="M184 956 Q207 956 223 934 L504 567 Q524 540 524 522 Q524 504 504 477 L223 111 Q206 88 186 88 Q166 88 153 100 Q123 128 152 166 L410 520 L152 879 Q138 899 139 913 Q143 956 184 956 ZM570 944 Q584 956 604 956 Q624 956 641 934 L922 567 Q942 540 942 522 Q942 504 922 477 L641 111 Q624 88 604 88 Q584 88 570 100 Q557 112 557 130 Q557 148 569 166 L827 520 L569 879 Q557 895 557 913 Q557 931 570 944 Z" /><glyph glyph-name="questiondown" unicode="¿" d="M659 1319 Q659 1290 640 1271 Q621 1252 592 1252 Q563 1252 544 1270 Q525 1290 524 1319 L524 1374 Q524 1403 544 1422 Q564 1442 592 1442 Q621 1442 640 1422 Q659 1402 659 1374 L659 1319 ZM590 1067 L594 1067 Q623 1067 627 1030 L649 766 Q651 746 638 732 Q625 718 602 715 Q426 705 321 620 Q216 535 215 389 L215 385 Q215 256 309 166 Q403 76 555 76 Q766 76 930 262 Q946 282 968 282 Q990 282 1004 270 Q1018 258 1018 238 Q1018 218 1006 203 Q820 -18 551 -18 Q352 -18 229 98 Q106 214 106 381 L106 385 Q106 565 228 673 Q350 781 541 803 L557 1030 Q561 1067 590 1067 Z" /><glyph glyph-name="Agrave" unicode="à" d="M804 1581 Q772 1581 743 1608 L580 1765 Q557 1788 557 1803 Q557 1818 586 1834 Q616 1850 646 1849 Q676 1849 700 1812 L827 1622 Q854 1581 804 1581 ZM428 498 L1184 498 L807 1327 L428 498 ZM129 5 Q115 19 115 36 Q115 53 123 70 L735 1397 Q760 1448 807 1448 L811 1448 Q858 1448 883 1397 L1493 74 Q1501 58 1501 40 Q1501 22 1486 6 Q1471 -8 1443 -8 Q1415 -8 1397 33 L1229 401 L383 401 L215 31 Q200 -8 172 -8 Q144 -8 129 5 Z" /><glyph glyph-name="Aacute" unicode="á" d="M870 1608 Q842 1581 810 1581 Q778 1581 778 1599 Q778 1609 786 1622 L913 1812 Q938 1849 969 1849 Q1000 1849 1028 1834 Q1056 1820 1057 1804 Q1057 1788 1034 1765 L870 1608 ZM428 498 L1184 498 L807 1327 L428 498 ZM129 5 Q115 19 115 36 Q115 53 123 70 L735 1397 Q760 1448 807 1448 L811 1448 Q858 1448 883 1397 L1493 74 Q1501 58 1501 40 Q1501 22 1486 6 Q1471 -8 1443 -8 Q1415 -8 1397 33 L1229 401 L383 401 L215 31 Q200 -8 172 -8 Q144 -8 129 5 Z" /><glyph glyph-name="Acircumflex" unicode="â" d="M676 1608 Q647 1581 615 1581 Q583 1581 584 1602 Q584 1614 594 1626 L741 1806 Q772 1843 799 1843 L815 1843 Q842 1843 872 1806 L1020 1626 Q1030 1614 1030 1602 Q1030 1582 996 1582 Q962 1582 934 1608 L805 1726 L676 1608 ZM428 498 L1184 498 L807 1327 L428 498 ZM129 5 Q115 19 115 36 Q115 53 123 70 L735 1397 Q760 1448 807 1448 L811 1448 Q858 1448 883 1397 L1493 74 Q1501 58 1501 40 Q1501 22 1486 6 Q1471 -8 1443 -8 Q1415 -8 1397 33 L1229 401 L383 401 L215 31 Q200 -8 172 -8 Q144 -8 129 5 Z" /><glyph glyph-name="Atilde" unicode="ã" d="M516 1599 Q516 1611 520 1624 Q572 1778 673 1778 Q721 1778 815 1736 Q909 1694 943 1694 Q977 1694 997 1711 Q1017 1728 1036 1772 Q1050 1801 1073 1800 Q1110 1800 1110 1765 Q1110 1753 1106 1741 Q1054 1587 953 1587 Q905 1587 811 1629 Q717 1671 683 1671 Q648 1672 628 1654 Q608 1636 590 1593 Q576 1564 553 1565 Q516 1565 516 1599 ZM428 498 L1184 498 L807 1327 L428 498 ZM129 5 Q115 19 115 36 Q115 53 123 70 L735 1397 Q760 1448 807 1448 L811 1448 Q858 1448 883 1397 L1493 74 Q1501 58 1501 40 Q1501 22 1486 6 Q1471 -8 1443 -8 Q1415 -8 1397 33 L1229 401 L383 401 L215 31 Q200 -8 172 -8 Q144 -8 129 5 Z" /><glyph glyph-name="Adieresis" unicode="ä" d="M588 1740 Q608 1759 639 1759 Q670 1759 690 1740 Q710 1721 711 1690 L711 1649 Q710 1618 690 1598 Q670 1578 639 1579 Q608 1579 588 1598 Q568 1617 567 1649 L567 1690 Q568 1721 588 1740 ZM924 1740 Q944 1759 975 1759 Q1006 1759 1026 1740 Q1046 1721 1047 1690 L1047 1649 Q1046 1618 1026 1598 Q1006 1578 975 1579 Q944 1579 924 1598 Q904 1617 903 1649 L903 1690 Q904 1721 924 1740 ZM428 498 L1184 498 L807 1327 L428 498 ZM129 5 Q115 19 115 36 Q115 53 123 70 L735 1397 Q760 1448 807 1448 L811 1448 Q858 1448 883 1397 L1493 74 Q1501 58 1501 40 Q1501 22 1486 6 Q1471 -8 1443 -8 Q1415 -8 1397 33 L1229 401 L383 401 L215 31 Q200 -8 172 -8 Q144 -8 129 5 Z" /><glyph glyph-name="Aring" unicode="å" d="M428 498 L1184 498 L807 1327 L428 498 ZM720 1475 Q758 1438 809 1438 Q860 1438 898 1475 Q936 1512 936 1563 L936 1567 Q936 1618 898 1655 Q860 1692 809 1692 Q758 1692 720 1655 Q682 1618 682 1567 L682 1563 Q682 1512 720 1475 ZM1497 66 Q1501 58 1501 42 Q1501 26 1486 8 Q1471 -8 1443 -8 Q1415 -8 1397 33 L1229 401 L383 401 L215 31 Q198 -8 172 -8 Q146 -8 130 7 Q115 22 115 36 Q115 50 119 61 L731 1389 Q678 1412 643 1458 Q608 1504 608 1563 L608 1567 Q608 1645 668 1701 Q728 1757 809 1757 Q889 1757 949 1701 Q1009 1645 1010 1567 L1010 1563 Q1010 1506 976 1459 Q942 1412 887 1389 L1497 66 Z" /><glyph glyph-name="AE" unicode="æ" d="M1012 498 L1012 1337 L958 1337 L455 498 L1012 498 ZM86 4 Q72 19 72 35 Q72 51 82 68 L889 1401 Q909 1434 942 1434 L1960 1434 Q1980 1434 1994 1420 Q2008 1406 2009 1384 Q2009 1364 1995 1350 Q1981 1336 1960 1335 L1118 1335 L1118 772 L1868 772 Q1888 772 1902 758 Q1916 744 1917 724 Q1917 704 1903 688 Q1889 674 1868 674 L1118 674 L1118 98 L1970 98 Q1990 98 2004 84 Q2018 70 2019 50 Q2019 30 2005 14 Q1991 0 1970 0 L1065 0 Q1045 0 1028 16 Q1012 32 1012 53 L1012 401 L397 401 L166 16 Q150 -10 126 -10 Q102 -10 86 4 Z" /><glyph glyph-name="Ccedilla" unicode="ç" d="M729 -291 Q700 -290 678 -274 Q656 -258 655 -244 Q655 -230 666 -211 L795 -20 Q514 4 332 212 Q150 420 150 713 L150 717 Q150 1024 354 1241 Q559 1458 866 1458 Q1032 1458 1155 1407 Q1278 1356 1393 1257 Q1413 1238 1413 1216 Q1413 1194 1397 1178 Q1381 1162 1358 1162 Q1335 1162 1321 1176 Q1116 1362 861 1362 Q606 1362 433 1177 Q260 992 260 721 L260 717 Q260 444 435 258 Q610 72 866 72 Q1007 72 1117 121 Q1227 170 1333 270 Q1350 286 1370 286 Q1390 286 1406 272 Q1422 256 1421 236 Q1421 216 1405 199 Q1174 -16 889 -25 L778 -250 Q758 -291 729 -291 Z" /><glyph glyph-name="Egrave" unicode="è" d="M756 1579 Q756 1561 724 1561 Q692 1561 664 1587 L500 1745 Q477 1768 477 1783 Q477 1798 506 1814 Q536 1830 566 1829 Q596 1829 621 1792 L748 1602 Q756 1590 756 1579 ZM266 0 Q246 0 229 16 Q213 32 213 53 L213 1380 Q213 1400 229 1416 Q245 1432 266 1434 L1192 1434 Q1212 1434 1226 1420 Q1240 1406 1241 1384 Q1241 1364 1227 1350 Q1213 1336 1192 1335 L319 1335 L319 772 L1100 772 Q1120 772 1134 758 Q1148 744 1149 724 Q1149 704 1135 688 Q1121 674 1100 674 L319 674 L319 98 L1202 98 Q1222 98 1236 84 Q1250 70 1251 50 Q1251 30 1237 14 Q1223 0 1202 0 L266 0 Z" /><glyph glyph-name="Eacute" unicode="é" d="M791 1587 Q762 1561 730 1561 Q698 1561 698 1579 Q698 1589 707 1602 L834 1792 Q860 1829 890 1829 Q920 1829 948 1814 Q976 1800 977 1784 Q977 1768 954 1745 L791 1587 ZM266 0 Q246 0 229 16 Q213 32 213 53 L213 1380 Q213 1400 229 1416 Q245 1432 266 1434 L1192 1434 Q1212 1434 1226 1420 Q1240 1406 1241 1384 Q1241 1364 1227 1350 Q1213 1336 1192 1335 L319 1335 L319 772 L1100 772 Q1120 772 1134 758 Q1148 744 1149 724 Q1149 704 1135 688 Q1121 674 1100 674 L319 674 L319 98 L1202 98 Q1222 98 1236 84 Q1250 70 1251 50 Q1251 30 1237 14 Q1223 0 1202 0 L266 0 Z" /><glyph glyph-name="Ecircumflex" unicode="ê" d="M719 1823 L735 1823 Q762 1823 793 1786 L940 1606 Q950 1594 950 1581 Q950 1561 916 1561 Q882 1561 854 1587 L725 1706 L596 1587 Q567 1560 535 1560 Q503 1560 504 1581 Q504 1593 514 1606 L662 1786 Q693 1823 719 1823 ZM266 0 Q246 0 229 16 Q213 32 213 53 L213 1380 Q213 1400 229 1416 Q245 1432 266 1434 L1192 1434 Q1212 1434 1226 1420 Q1240 1406 1241 1384 Q1241 1364 1227 1350 Q1213 1336 1192 1335 L319 1335 L319 772 L1100 772 Q1120 772 1134 758 Q1148 744 1149 724 Q1149 704 1135 688 Q1121 674 1100 674 L319 674 L319 98 L1202 98 Q1222 98 1236 84 Q1250 70 1251 50 Q1251 30 1237 14 Q1223 0 1202 0 L266 0 Z" /><glyph glyph-name="Edieresis" unicode="ë" d="M559 1739 Q590 1740 610 1720 Q630 1700 631 1669 L631 1628 Q630 1597 610 1578 Q590 1559 559 1559 Q528 1559 508 1578 Q488 1597 487 1628 L487 1669 Q488 1700 508 1720 Q528 1740 559 1739 ZM895 1739 Q926 1740 946 1720 Q966 1700 967 1669 L967 1628 Q966 1597 946 1578 Q926 1559 895 1559 Q864 1559 844 1578 Q824 1597 823 1628 L823 1669 Q824 1700 844 1720 Q864 1740 895 1739 ZM266 0 Q246 0 229 16 Q213 32 213 53 L213 1380 Q213 1400 229 1416 Q245 1432 266 1434 L1192 1434 Q1212 1434 1226 1420 Q1240 1406 1241 1384 Q1241 1364 1227 1350 Q1213 1336 1192 1335 L319 1335 L319 772 L1100 772 Q1120 772 1134 758 Q1148 744 1149 724 Q1149 704 1135 688 Q1121 674 1100 674 L319 674 L319 98 L1202 98 Q1222 98 1236 84 Q1250 70 1251 50 Q1251 30 1237 14 Q1223 0 1202 0 L266 0 Z" /><glyph glyph-name="Igrave" unicode="ì" d="M309 1579 Q310 1561 278 1561 Q246 1561 217 1587 L53 1745 Q30 1768 30 1783 Q30 1798 59 1814 Q88 1829 119 1829 Q150 1829 174 1792 L301 1602 Q309 1590 309 1579 ZM227 45 L227 1389 Q226 1409 242 1425 Q258 1442 281 1442 Q304 1442 318 1426 Q332 1410 334 1389 L334 45 Q334 24 318 8 Q302 -8 280 -8 Q258 -8 242 8 Q226 24 227 45 Z" /><glyph glyph-name="Iacute" unicode="í" d="M344 1587 Q316 1561 284 1561 Q252 1561 252 1579 Q252 1589 260 1602 L387 1792 Q412 1829 442 1829 Q472 1829 502 1814 Q530 1800 530 1784 Q530 1768 508 1745 L344 1587 ZM227 45 L227 1389 Q226 1409 242 1425 Q258 1442 281 1442 Q304 1442 318 1426 Q332 1410 334 1389 L334 45 Q334 24 318 8 Q302 -8 280 -8 Q258 -8 242 8 Q226 24 227 45 Z" /><glyph glyph-name="Icircumflex" unicode="î" d="M57 1581 Q57 1593 68 1606 L215 1786 Q246 1823 272 1823 L289 1823 Q316 1823 346 1786 L494 1606 Q504 1594 504 1581 Q504 1561 470 1561 Q436 1561 408 1587 L279 1706 L150 1587 Q121 1560 89 1560 Q57 1560 57 1581 ZM227 45 L227 1389 Q226 1409 242 1425 Q258 1442 281 1442 Q304 1442 318 1426 Q332 1410 334 1389 L334 45 Q334 24 318 8 Q302 -8 280 -8 Q258 -8 242 8 Q226 24 227 45 Z" /><glyph glyph-name="Idieresis" unicode="ï" d="M113 1739 Q144 1740 164 1720 Q184 1700 184 1669 L184 1628 Q184 1597 164 1578 Q144 1559 113 1559 Q82 1559 61 1578 Q41 1597 41 1628 L41 1669 Q42 1700 62 1720 Q82 1740 113 1739 ZM449 1739 Q480 1740 500 1720 Q520 1700 520 1669 L520 1628 Q520 1597 500 1578 Q480 1559 449 1559 Q418 1559 397 1578 Q377 1597 377 1628 L377 1669 Q378 1700 398 1720 Q418 1740 449 1739 ZM227 45 L227 1389 Q226 1409 242 1425 Q258 1442 281 1442 Q304 1442 318 1426 Q332 1410 334 1389 L334 45 Q334 24 318 8 Q302 -8 280 -8 Q258 -8 242 8 Q226 24 227 45 Z" /><glyph glyph-name="Eth" unicode="ð" d="M381 1335 L381 770 L815 770 Q836 770 850 756 Q864 742 864 722 Q864 702 850 686 Q836 672 815 672 L381 672 L381 98 L752 98 Q1045 98 1224 274 Q1403 450 1403 713 L1403 717 Q1403 979 1224 1157 Q1045 1335 752 1335 L381 1335 ZM162 770 L274 770 L274 1380 Q274 1400 290 1416 Q306 1432 328 1434 L752 1434 Q1086 1434 1300 1230 Q1514 1026 1513 721 L1513 717 Q1513 410 1299 205 Q1085 0 752 0 L328 0 Q308 0 291 16 Q275 32 274 53 L274 672 L162 672 Q142 672 127 686 Q113 700 113 720 Q113 740 127 756 Q142 770 162 770 Z" /><glyph glyph-name="Ntilde" unicode="ñ" d="M555 1544 Q518 1544 518 1579 Q518 1591 522 1604 Q551 1690 589 1724 Q627 1758 676 1757 Q725 1757 819 1715 Q913 1673 946 1673 Q979 1672 999 1690 Q1019 1708 1038 1751 Q1052 1780 1075 1780 Q1112 1780 1112 1745 Q1112 1733 1108 1720 Q1079 1634 1041 1600 Q1003 1566 954 1567 Q905 1567 811 1609 Q717 1651 684 1651 Q650 1652 630 1634 Q610 1616 592 1573 Q578 1544 555 1544 ZM213 43 L213 1386 Q213 1409 229 1424 Q245 1439 266 1440 L283 1440 Q312 1440 336 1409 L1303 182 L1303 1391 Q1303 1414 1317 1428 Q1331 1442 1354 1442 Q1377 1442 1391 1428 Q1405 1414 1405 1391 L1405 39 Q1405 22 1393 8 Q1381 -6 1362 -6 L1354 -6 Q1329 -6 1300 29 L315 1278 L315 43 Q315 20 301 6 Q287 -8 264 -8 Q241 -8 227 6 Q213 20 213 43 Z" /><glyph glyph-name="Ograve" unicode="ò" d="M899 1599 Q899 1581 867 1581 Q835 1581 807 1608 L643 1765 Q620 1788 620 1803 Q620 1818 649 1834 Q678 1849 709 1849 Q740 1849 764 1812 L891 1622 Q899 1610 899 1599 ZM435 260 Q610 72 872 72 Q1134 72 1308 258 Q1481 444 1481 713 L1481 717 Q1481 986 1306 1174 Q1130 1362 868 1362 Q606 1362 433 1176 Q260 990 260 721 L260 717 Q260 448 435 260 ZM868 -25 Q551 -26 350 192 Q149 410 150 713 L150 717 Q150 1020 352 1239 Q555 1458 872 1458 Q1188 1458 1390 1241 Q1592 1024 1591 721 L1591 717 Q1591 414 1388 194 Q1185 -26 868 -25 Z" /><glyph glyph-name="Oacute" unicode="ó" d="M934 1608 Q905 1581 873 1581 Q841 1581 842 1599 Q842 1609 850 1622 L977 1812 Q1002 1849 1032 1849 Q1062 1849 1092 1834 Q1120 1820 1120 1804 Q1120 1788 1098 1765 L934 1608 ZM435 260 Q610 72 872 72 Q1134 72 1308 258 Q1481 444 1481 713 L1481 717 Q1481 986 1306 1174 Q1130 1362 868 1362 Q606 1362 433 1176 Q260 990 260 721 L260 717 Q260 448 435 260 ZM868 -25 Q551 -26 350 192 Q149 410 150 713 L150 717 Q150 1020 352 1239 Q555 1458 872 1458 Q1188 1458 1390 1241 Q1592 1024 1591 721 L1591 717 Q1591 414 1388 194 Q1185 -26 868 -25 Z" /><glyph glyph-name="Ocircumflex" unicode="ô" d="M739 1608 Q710 1581 678 1581 Q646 1581 647 1602 Q647 1614 657 1626 L805 1806 Q836 1843 862 1843 L879 1843 Q906 1843 936 1806 L1083 1626 Q1094 1614 1094 1598 Q1094 1582 1060 1582 Q1026 1582 997 1608 L868 1726 L739 1608 ZM435 260 Q610 72 872 72 Q1134 72 1308 258 Q1481 444 1481 713 L1481 717 Q1481 986 1306 1174 Q1130 1362 868 1362 Q606 1362 433 1176 Q260 990 260 721 L260 717 Q260 448 435 260 ZM868 -25 Q551 -26 350 192 Q149 410 150 713 L150 717 Q150 1020 352 1239 Q555 1458 872 1458 Q1188 1458 1390 1241 Q1592 1024 1591 721 L1591 717 Q1591 414 1388 194 Q1185 -26 868 -25 Z" /><glyph glyph-name="Otilde" unicode="õ" d="M650 1744 Q688 1778 737 1778 Q786 1778 880 1736 Q974 1694 1008 1694 Q1041 1694 1061 1711 Q1081 1728 1100 1772 Q1114 1801 1137 1800 Q1174 1800 1174 1765 Q1174 1753 1169 1741 Q1140 1655 1102 1621 Q1064 1587 1016 1587 Q966 1587 872 1629 Q778 1671 745 1671 Q712 1672 692 1654 Q672 1636 653 1593 Q639 1564 616 1565 Q579 1565 580 1599 Q580 1611 584 1624 Q613 1710 650 1744 ZM435 260 Q610 72 872 72 Q1134 72 1308 258 Q1481 444 1481 713 L1481 717 Q1481 986 1306 1174 Q1130 1362 868 1362 Q606 1362 433 1176 Q260 990 260 721 L260 717 Q260 448 435 260 ZM868 -25 Q551 -26 350 192 Q149 410 150 713 L150 717 Q150 1020 352 1239 Q555 1458 872 1458 Q1188 1458 1390 1241 Q1592 1024 1591 721 L1591 717 Q1591 414 1388 194 Q1185 -26 868 -25 Z" /><glyph glyph-name="Odieresis" unicode="ö" d="M702 1759 Q734 1759 754 1740 Q774 1721 774 1690 L774 1649 Q774 1618 754 1598 Q734 1578 702 1579 Q670 1579 651 1598 Q631 1617 631 1649 L631 1690 Q631 1721 651 1740 Q671 1759 702 1759 ZM1038 1759 Q1070 1759 1090 1740 Q1110 1721 1110 1690 L1110 1649 Q1110 1618 1090 1598 Q1070 1578 1038 1579 Q1006 1579 987 1598 Q967 1617 967 1649 L967 1690 Q967 1721 987 1740 Q1007 1759 1038 1759 ZM435 260 Q610 72 872 72 Q1134 72 1308 258 Q1481 444 1481 713 L1481 717 Q1481 986 1306 1174 Q1130 1362 868 1362 Q606 1362 433 1176 Q260 990 260 721 L260 717 Q260 448 435 260 ZM868 -25 Q551 -26 350 192 Q149 410 150 713 L150 717 Q150 1020 352 1239 Q555 1458 872 1458 Q1188 1458 1390 1241 Q1592 1024 1591 721 L1591 717 Q1591 414 1388 194 Q1185 -26 868 -25 Z" /><glyph glyph-name="multiply" unicode="×" d="M1047 383 Q1065 365 1065 342 Q1065 319 1051 305 Q1037 291 1014 291 Q991 291 973 309 L633 653 L291 307 Q274 291 254 291 Q234 291 219 305 Q205 320 205 340 Q205 360 221 377 L567 719 L223 1059 Q205 1077 205 1100 Q205 1123 219 1137 Q233 1151 256 1151 Q279 1151 297 1133 L637 788 L979 1135 Q996 1151 1016 1151 Q1036 1151 1050 1137 Q1064 1123 1065 1102 Q1065 1081 1049 1065 L702 723 L1047 383 Z" /><glyph glyph-name="Oslash" unicode="ø" d="M469 225 Q638 72 886 72 Q1134 72 1308 258 Q1481 444 1481 713 L1481 717 Q1481 961 1329 1145 L469 225 ZM260 717 Q260 467 412 287 L1270 1208 Q1100 1362 853 1362 Q606 1362 433 1176 Q260 990 260 721 L260 717 ZM868 -25 Q596 -25 401 143 L264 -2 Q248 -18 228 -18 Q208 -18 197 -6 Q184 6 184 26 Q184 46 197 57 L336 207 Q150 420 150 713 L150 717 Q150 1020 352 1239 Q555 1458 872 1458 Q1142 1458 1339 1288 L1477 1436 Q1493 1452 1512 1452 Q1532 1452 1544 1440 Q1556 1428 1556 1408 Q1556 1388 1544 1376 L1403 1225 Q1591 1018 1591 721 L1591 717 Q1591 414 1388 194 Q1185 -26 868 -25 Z" /><glyph glyph-name="Ugrave" unicode="ù" d="M807 1579 Q807 1561 775 1561 Q743 1561 715 1587 L551 1745 Q528 1768 528 1783 Q528 1798 557 1814 Q586 1830 616 1829 Q646 1829 672 1792 L799 1602 Q807 1590 807 1579 ZM1206 142 Q1046 -23 780 -23 Q514 -23 352 139 Q190 301 190 596 L190 1389 Q190 1409 206 1425 Q222 1442 244 1442 Q267 1442 282 1426 Q297 1410 297 1389 L297 606 Q297 354 426 214 Q555 74 780 74 Q1005 74 1133 208 Q1260 342 1260 596 L1260 1389 Q1260 1409 1275 1425 Q1290 1442 1313 1442 Q1336 1442 1351 1426 Q1366 1410 1366 1389 L1366 608 Q1366 307 1206 142 Z" /><glyph glyph-name="Uacute" unicode="ú" d="M842 1587 Q813 1561 781 1561 Q749 1561 750 1579 Q750 1589 758 1602 L885 1792 Q910 1829 940 1829 Q970 1829 1000 1814 Q1028 1800 1028 1784 Q1028 1768 1006 1745 L842 1587 ZM1206 142 Q1046 -23 780 -23 Q514 -23 352 139 Q190 301 190 596 L190 1389 Q190 1409 206 1425 Q222 1442 244 1442 Q267 1442 282 1426 Q297 1410 297 1389 L297 606 Q297 354 426 214 Q555 74 780 74 Q1005 74 1133 208 Q1260 342 1260 596 L1260 1389 Q1260 1409 1275 1425 Q1290 1442 1313 1442 Q1336 1442 1351 1426 Q1366 1410 1366 1389 L1366 608 Q1366 307 1206 142 Z" /><glyph glyph-name="Ucircumflex" unicode="û" d="M555 1581 Q555 1593 565 1606 L713 1786 Q744 1823 770 1823 L786 1823 Q813 1823 844 1786 L991 1606 Q1001 1594 1001 1581 Q1002 1561 968 1561 Q934 1561 905 1587 L776 1706 L647 1587 Q618 1560 586 1560 Q554 1560 555 1581 ZM1206 142 Q1046 -23 780 -23 Q514 -23 352 139 Q190 301 190 596 L190 1389 Q190 1409 206 1425 Q222 1442 244 1442 Q267 1442 282 1426 Q297 1410 297 1389 L297 606 Q297 354 426 214 Q555 74 780 74 Q1005 74 1133 208 Q1260 342 1260 596 L1260 1389 Q1260 1409 1275 1425 Q1290 1442 1313 1442 Q1336 1442 1351 1426 Q1366 1410 1366 1389 L1366 608 Q1366 307 1206 142 Z" /><glyph glyph-name="Udieresis" unicode="ü" d="M610 1739 Q642 1740 662 1720 Q682 1700 682 1669 L682 1628 Q682 1597 662 1578 Q642 1559 610 1559 Q578 1559 559 1578 Q539 1597 539 1628 L539 1669 Q539 1700 559 1720 Q579 1740 610 1739 ZM946 1739 Q977 1740 997 1720 Q1017 1700 1018 1669 L1018 1628 Q1018 1597 998 1578 Q978 1559 946 1559 Q915 1559 895 1578 Q875 1597 874 1628 L874 1669 Q874 1700 894 1720 Q914 1740 946 1739 ZM1206 142 Q1046 -23 780 -23 Q514 -23 352 139 Q190 301 190 596 L190 1389 Q190 1409 206 1425 Q222 1442 244 1442 Q267 1442 282 1426 Q297 1410 297 1389 L297 606 Q297 354 426 214 Q555 74 780 74 Q1005 74 1133 208 Q1260 342 1260 596 L1260 1389 Q1260 1409 1275 1425 Q1290 1442 1313 1442 Q1336 1442 1351 1426 Q1366 1410 1366 1389 L1366 608 Q1366 307 1206 142 Z" /><glyph glyph-name="Yacute" unicode="ý" d="M797 1587 Q768 1561 736 1561 Q704 1561 705 1579 Q705 1589 713 1602 L840 1792 Q866 1829 896 1829 Q926 1829 954 1814 Q982 1800 983 1784 Q983 1768 961 1745 L797 1587 ZM680 45 L680 567 L121 1356 Q111 1372 111 1390 Q111 1408 127 1425 Q143 1442 169 1442 Q195 1442 215 1411 L735 664 L1257 1411 Q1280 1442 1302 1442 Q1324 1442 1341 1426 Q1372 1396 1341 1350 L786 569 L786 45 Q786 24 770 8 Q754 -8 734 -8 Q714 -8 696 8 Q680 25 680 45 Z" /><glyph glyph-name="Thorn" unicode="þ" d="M319 371 L713 371 Q914 371 1036 468 Q1158 565 1159 725 L1159 729 Q1159 895 1041 985 Q923 1075 725 1075 L319 1075 L319 371 ZM213 45 L213 1389 Q213 1409 229 1425 Q266 1462 303 1425 Q319 1409 319 1389 L319 1174 L733 1174 Q973 1174 1119 1057 Q1265 940 1266 735 L1266 731 Q1266 514 1105 393 Q944 272 707 272 L319 272 L319 45 Q319 24 303 8 Q286 -8 266 -8 Q246 -8 229 8 Q213 25 213 45 Z" /><glyph glyph-name="germandbls" unicode="ß" d="M584 41 Q584 60 596 72 Q608 84 627 86 Q811 96 922 170 Q1033 244 1032 383 L1032 387 Q1032 518 923 595 Q813 672 635 694 Q584 700 584 743 Q584 780 625 795 Q940 906 940 1143 L940 1147 Q940 1264 855 1340 Q770 1416 626 1415 Q482 1415 387 1309 Q291 1203 291 1024 L291 41 Q290 20 276 6 Q262 -8 240 -8 Q218 -8 204 6 Q191 20 190 41 L190 1024 Q190 1239 313 1374 Q436 1509 630 1509 Q824 1509 936 1407 Q1049 1305 1049 1151 L1049 1147 Q1050 1008 956 908 Q862 808 727 758 Q907 727 1024 636 Q1141 545 1141 391 L1141 387 Q1142 204 1000 104 Q858 4 627 -4 Q611 -4 597 9 Q584 23 584 41 Z" /><glyph glyph-name="agrave" unicode="à" d="M616 1231 Q617 1212 585 1212 Q553 1212 524 1239 L360 1397 Q338 1420 338 1435 Q338 1450 367 1465 Q442 1504 481 1444 L608 1253 Q616 1241 616 1231 ZM300 135 Q390 70 534 70 Q678 70 794 161 Q910 252 909 391 L909 510 Q725 557 558 557 Q391 557 301 490 Q211 423 211 313 L211 309 Q211 200 300 135 ZM956 -8 Q909 -8 907 43 L907 174 Q766 -25 508 -25 Q348 -25 226 62 Q104 149 104 303 L104 307 Q104 467 229 557 Q354 647 546 647 Q738 647 907 602 L907 647 Q907 803 817 885 Q727 967 569 967 Q411 967 266 897 Q254 891 240 891 Q226 891 211 905 Q197 919 197 945 Q197 971 225 983 Q401 1061 569 1061 Q784 1060 894 950 Q1004 840 1006 651 L1006 43 Q1006 20 992 6 Q978 -8 956 -8 Z" /><glyph glyph-name="aacute" unicode="á" d="M651 1239 Q623 1212 591 1212 Q559 1212 559 1231 Q559 1241 567 1253 L694 1444 Q719 1481 750 1481 Q782 1482 810 1466 Q838 1450 838 1435 Q838 1420 815 1397 L651 1239 ZM300 135 Q390 70 534 70 Q678 70 794 161 Q910 252 909 391 L909 510 Q725 557 558 557 Q391 557 301 490 Q211 423 211 313 L211 309 Q211 200 300 135 ZM956 -8 Q909 -8 907 43 L907 174 Q766 -25 508 -25 Q348 -25 226 62 Q104 149 104 303 L104 307 Q104 467 229 557 Q354 647 546 647 Q738 647 907 602 L907 647 Q907 803 817 885 Q727 967 569 967 Q411 967 266 897 Q254 891 240 891 Q226 891 211 905 Q197 919 197 945 Q197 971 225 983 Q401 1061 569 1061 Q784 1060 894 950 Q1004 840 1006 651 L1006 43 Q1006 20 992 6 Q978 -8 956 -8 Z" /><glyph glyph-name="acircumflex" unicode="â" d="M457 1239 Q428 1212 396 1212 Q364 1212 365 1233 Q365 1245 375 1257 L522 1438 Q553 1475 580 1475 L596 1475 Q623 1475 653 1438 L801 1257 Q811 1245 811 1233 Q811 1212 777 1212 Q743 1212 715 1239 L586 1358 L457 1239 ZM300 135 Q390 70 534 70 Q678 70 794 161 Q910 252 909 391 L909 510 Q725 557 558 557 Q391 557 301 490 Q211 423 211 313 L211 309 Q211 200 300 135 ZM956 -8 Q909 -8 907 43 L907 174 Q766 -25 508 -25 Q348 -25 226 62 Q104 149 104 303 L104 307 Q104 467 229 557 Q354 647 546 647 Q738 647 907 602 L907 647 Q907 803 817 885 Q727 967 569 967 Q411 967 266 897 Q254 891 240 891 Q226 891 211 905 Q197 919 197 945 Q197 971 225 983 Q401 1061 569 1061 Q784 1060 894 950 Q1004 840 1006 651 L1006 43 Q1006 20 992 6 Q978 -8 956 -8 Z" /><glyph glyph-name="atilde" unicode="ã" d="M334 1196 Q297 1196 297 1231 Q297 1243 301 1255 Q353 1409 454 1409 Q502 1409 597 1367 Q692 1325 725 1325 Q758 1325 778 1342 Q798 1359 817 1403 Q831 1432 854 1432 Q891 1432 891 1397 Q891 1385 887 1372 Q858 1286 820 1252 Q782 1218 733 1218 Q684 1218 590 1261 Q496 1303 463 1303 Q430 1304 410 1286 Q390 1268 371 1225 Q357 1196 334 1196 ZM300 135 Q390 70 534 70 Q678 70 794 161 Q910 252 909 391 L909 510 Q725 557 558 557 Q391 557 301 490 Q211 423 211 313 L211 309 Q211 200 300 135 ZM956 -8 Q909 -8 907 43 L907 174 Q766 -25 508 -25 Q348 -25 226 62 Q104 149 104 303 L104 307 Q104 467 229 557 Q354 647 546 647 Q738 647 907 602 L907 647 Q907 803 817 885 Q727 967 569 967 Q411 967 266 897 Q254 891 240 891 Q226 891 211 905 Q197 919 197 945 Q197 971 225 983 Q401 1061 569 1061 Q784 1060 894 950 Q1004 840 1006 651 L1006 43 Q1006 20 992 6 Q978 -8 956 -8 Z" /><glyph glyph-name="adieresis" unicode="ä" d="M420 1391 Q451 1392 471 1372 Q491 1352 492 1321 L492 1280 Q492 1249 472 1230 Q452 1210 420 1210 Q389 1210 369 1230 Q349 1250 348 1280 L348 1321 Q348 1352 368 1372 Q388 1392 420 1391 ZM756 1391 Q787 1392 807 1372 Q827 1352 827 1321 L827 1280 Q827 1249 807 1230 Q787 1210 756 1210 Q725 1210 705 1230 Q685 1250 684 1280 L684 1321 Q684 1352 704 1372 Q724 1392 756 1391 ZM300 135 Q390 70 534 70 Q678 70 794 161 Q910 252 909 391 L909 510 Q725 557 558 557 Q391 557 301 490 Q211 423 211 313 L211 309 Q211 200 300 135 ZM956 -8 Q909 -8 907 43 L907 174 Q766 -25 508 -25 Q348 -25 226 62 Q104 149 104 303 L104 307 Q104 467 229 557 Q354 647 546 647 Q738 647 907 602 L907 647 Q907 803 817 885 Q727 967 569 967 Q411 967 266 897 Q254 891 240 891 Q226 891 211 905 Q197 919 197 945 Q197 971 225 983 Q401 1061 569 1061 Q784 1060 894 950 Q1004 840 1006 651 L1006 43 Q1006 20 992 6 Q978 -8 956 -8 Z" /><glyph glyph-name="aring" unicode="å" d="M499 1317 Q537 1280 588 1280 Q639 1280 677 1317 Q715 1354 715 1405 L715 1409 Q715 1460 677 1497 Q639 1534 588 1534 Q537 1534 499 1497 Q461 1460 461 1409 L461 1405 Q461 1354 499 1317 ZM728 1270 Q668 1214 588 1214 Q508 1214 448 1270 Q388 1326 387 1405 L387 1409 Q387 1487 447 1543 Q508 1599 588 1599 Q668 1599 728 1543 Q788 1487 788 1409 L788 1405 Q788 1326 728 1270 ZM300 135 Q390 70 534 70 Q678 70 794 161 Q910 252 909 391 L909 510 Q725 557 558 557 Q391 557 301 490 Q211 423 211 313 L211 309 Q211 200 300 135 ZM956 -8 Q909 -8 907 43 L907 174 Q766 -25 508 -25 Q348 -25 226 62 Q104 149 104 303 L104 307 Q104 467 229 557 Q354 647 546 647 Q738 647 907 602 L907 647 Q907 803 817 885 Q727 967 569 967 Q411 967 266 897 Q254 891 240 891 Q226 891 211 905 Q197 919 197 945 Q197 971 225 983 Q401 1061 569 1061 Q784 1060 894 950 Q1004 840 1006 651 L1006 43 Q1006 20 992 6 Q978 -8 956 -8 Z" /><glyph glyph-name="ae" unicode="æ" d="M1389 -25 Q1260 -24 1148 36 Q1036 96 967 205 Q768 -24 498 -25 Q340 -25 222 62 Q104 149 104 303 L104 307 Q104 467 227 557 Q350 647 530 647 Q710 647 879 602 L879 647 Q879 803 793 885 Q708 967 560 967 Q412 967 266 897 Q254 891 240 891 Q226 891 211 905 Q197 919 197 945 Q197 971 225 983 Q393 1061 555 1061 Q879 1061 950 799 Q1013 922 1125 996 Q1237 1070 1372 1069 Q1587 1069 1719 913 Q1851 757 1851 528 Q1851 510 1836 496 Q1821 482 1802 481 L983 481 Q997 293 1115 181 Q1233 69 1393 70 Q1583 70 1731 213 Q1745 227 1764 227 Q1784 227 1798 214 Q1812 201 1812 181 Q1812 161 1796 145 Q1626 -25 1389 -25 ZM504 70 Q746 70 922 289 Q879 395 877 512 Q682 557 534 557 Q386 557 299 490 Q211 423 211 313 L211 309 Q211 198 295 134 Q379 70 504 70 ZM1634 860 Q1538 977 1376 977 Q1214 977 1106 861 Q998 745 983 571 L1743 571 Q1730 743 1634 860 Z" /><glyph glyph-name="ccedilla" unicode="ç" d="M516 -291 Q486 -290 464 -274 Q442 -258 442 -244 Q442 -230 453 -211 L582 -20 Q383 8 251 162 Q119 316 119 518 L119 522 Q119 743 274 906 Q430 1069 648 1069 Q866 1069 1044 903 Q1058 889 1058 866 Q1058 843 1044 829 Q1028 815 1006 815 Q984 815 973 827 Q817 974 644 974 Q471 974 349 845 Q227 715 227 526 L227 522 Q227 334 352 202 Q477 70 656 70 Q835 70 985 219 Q1019 253 1052 220 Q1067 204 1067 186 Q1067 168 1055 156 Q889 -14 676 -25 L565 -250 Q545 -291 516 -291 Z" /><glyph glyph-name="egrave" unicode="è" d="M643 1231 Q643 1212 611 1212 Q579 1212 551 1239 L387 1397 Q364 1420 364 1435 Q364 1450 394 1465 Q469 1505 508 1444 L635 1253 Q643 1241 643 1231 ZM1038 145 Q868 -25 644 -25 Q420 -25 269 129 Q118 283 119 520 L119 524 Q119 753 261 911 Q403 1069 616 1069 Q830 1069 962 913 Q1094 757 1094 528 Q1094 510 1078 496 Q1062 482 1044 481 L225 481 Q239 293 357 181 Q475 69 635 70 Q825 70 973 213 Q986 227 1006 227 Q1026 227 1040 214 Q1054 201 1054 181 Q1054 161 1038 145 ZM877 860 Q780 977 618 977 Q456 977 348 861 Q240 745 225 571 L985 571 Q973 743 877 860 Z" /><glyph glyph-name="eacute" unicode="é" d="M678 1239 Q649 1212 617 1212 Q585 1212 586 1231 Q586 1241 594 1253 L721 1444 Q746 1481 776 1481 Q806 1482 836 1466 Q864 1450 864 1435 Q864 1420 842 1397 L678 1239 ZM1038 145 Q868 -25 644 -25 Q420 -25 269 129 Q118 283 119 520 L119 524 Q119 753 261 911 Q403 1069 616 1069 Q830 1069 962 913 Q1094 757 1094 528 Q1094 510 1078 496 Q1062 482 1044 481 L225 481 Q239 293 357 181 Q475 69 635 70 Q825 70 973 213 Q986 227 1006 227 Q1026 227 1040 214 Q1054 201 1054 181 Q1054 161 1038 145 ZM877 860 Q780 977 618 977 Q456 977 348 861 Q240 745 225 571 L985 571 Q973 743 877 860 Z" /><glyph glyph-name="ecircumflex" unicode="ê" d="M483 1239 Q454 1212 422 1212 Q390 1212 391 1233 Q391 1245 401 1257 L549 1438 Q580 1475 606 1475 L623 1475 Q650 1475 680 1438 L827 1257 Q838 1245 838 1229 Q838 1212 804 1212 Q770 1212 741 1239 L612 1358 L483 1239 ZM1038 145 Q868 -25 644 -25 Q420 -25 269 129 Q118 283 119 520 L119 524 Q119 753 261 911 Q403 1069 616 1069 Q830 1069 962 913 Q1094 757 1094 528 Q1094 510 1078 496 Q1062 482 1044 481 L225 481 Q239 293 357 181 Q475 69 635 70 Q825 70 973 213 Q986 227 1006 227 Q1026 227 1040 214 Q1054 201 1054 181 Q1054 161 1038 145 ZM877 860 Q780 977 618 977 Q456 977 348 861 Q240 745 225 571 L985 571 Q973 743 877 860 Z" /><glyph glyph-name="edieresis" unicode="ë" d="M446 1391 Q478 1392 498 1372 Q518 1352 518 1321 L518 1280 Q518 1249 498 1230 Q478 1210 446 1210 Q414 1210 395 1230 Q375 1250 375 1280 L375 1321 Q375 1352 395 1372 Q415 1392 446 1391 ZM782 1391 Q814 1392 834 1372 Q854 1352 854 1321 L854 1280 Q854 1249 834 1230 Q814 1210 782 1210 Q750 1210 731 1230 Q711 1250 711 1280 L711 1321 Q711 1352 731 1372 Q751 1392 782 1391 ZM1038 145 Q868 -25 644 -25 Q420 -25 269 129 Q118 283 119 520 L119 524 Q119 753 261 911 Q403 1069 616 1069 Q830 1069 962 913 Q1094 757 1094 528 Q1094 510 1078 496 Q1062 482 1044 481 L225 481 Q239 293 357 181 Q475 69 635 70 Q825 70 973 213 Q986 227 1006 227 Q1026 227 1040 214 Q1054 201 1054 181 Q1054 161 1038 145 ZM877 860 Q780 977 618 977 Q456 977 348 861 Q240 745 225 571 L985 571 Q973 743 877 860 Z" /><glyph glyph-name="igrave" unicode="ì" d="M283 1231 Q283 1212 251 1212 Q219 1212 190 1239 L27 1397 Q4 1420 4 1435 Q4 1450 33 1465 Q108 1504 147 1444 L274 1253 Q282 1241 283 1231 ZM205 43 L205 1001 Q205 1024 219 1038 Q233 1052 255 1052 Q277 1052 291 1038 Q305 1024 305 1001 L305 43 Q305 20 292 6 Q279 -8 256 -8 Q233 -8 219 6 Q205 20 205 43 Z" /><glyph glyph-name="iacute" unicode="í" d="M317 1239 Q289 1212 257 1212 Q225 1212 225 1231 Q225 1241 233 1253 L360 1444 Q385 1481 416 1481 Q448 1482 476 1466 Q504 1450 504 1435 Q504 1420 481 1397 L317 1239 ZM205 43 L205 1001 Q205 1024 219 1038 Q233 1052 255 1052 Q277 1052 291 1038 Q305 1024 305 1001 L305 43 Q305 20 292 6 Q279 -8 256 -8 Q233 -8 219 6 Q205 20 205 43 Z" /><glyph glyph-name="icircumflex" unicode="î" d="M123 1239 Q94 1212 62 1212 Q30 1212 31 1233 Q31 1245 41 1257 L188 1438 Q219 1475 246 1475 L262 1475 Q289 1475 319 1438 L467 1257 Q477 1245 477 1233 Q478 1212 444 1212 Q410 1212 381 1239 L252 1358 L123 1239 ZM205 43 L205 1001 Q205 1024 219 1038 Q233 1052 255 1052 Q277 1052 291 1038 Q305 1024 305 1001 L305 43 Q305 20 292 6 Q279 -8 256 -8 Q233 -8 219 6 Q205 20 205 43 Z" /><glyph glyph-name="idieresis" unicode="ï" d="M86 1391 Q117 1392 137 1372 Q157 1352 158 1321 L158 1280 Q158 1249 138 1230 Q118 1210 86 1210 Q55 1210 35 1230 Q15 1250 14 1280 L14 1321 Q14 1352 34 1372 Q54 1392 86 1391 ZM422 1391 Q453 1392 473 1372 Q493 1352 494 1321 L494 1280 Q494 1249 474 1230 Q454 1210 422 1210 Q391 1210 371 1230 Q351 1250 350 1280 L350 1321 Q350 1352 370 1372 Q390 1392 422 1391 ZM205 43 L205 1001 Q205 1024 219 1038 Q233 1052 255 1052 Q277 1052 291 1038 Q305 1024 305 1001 L305 43 Q305 20 292 6 Q279 -8 256 -8 Q233 -8 219 6 Q205 20 205 43 Z" /><glyph glyph-name="eth" unicode="ð" d="M939 196 Q1055 322 1055 494 Q1055 666 930 786 Q805 906 625 905 Q445 905 336 788 Q227 672 227 498 Q227 324 347 197 Q467 70 645 70 Q823 70 939 196 ZM394 1159 Q378 1160 366 1174 Q352 1188 352 1210 Q352 1232 381 1247 L621 1364 L584 1417 Q554 1458 587 1489 Q602 1503 627 1503 Q652 1503 670 1477 L713 1411 L889 1501 Q901 1507 916 1507 Q930 1507 944 1493 Q958 1479 958 1456 Q958 1433 930 1419 L764 1337 L985 1008 Q1075 875 1119 761 Q1163 647 1163 508 Q1163 289 1015 132 Q866 -25 640 -25 Q414 -25 266 130 Q119 285 119 501 Q119 717 264 856 Q409 995 607 995 Q805 995 973 866 L672 1292 L422 1165 Q410 1159 394 1159 Z" /><glyph glyph-name="ntilde" unicode="ñ" d="M383 1196 Q346 1196 346 1231 Q346 1243 350 1255 Q379 1341 417 1375 Q455 1409 504 1409 Q553 1409 647 1367 Q741 1325 774 1325 Q807 1325 827 1342 Q847 1359 866 1403 Q880 1432 903 1432 Q940 1432 940 1397 Q940 1385 936 1372 Q884 1216 783 1218 Q735 1218 640 1261 Q545 1303 512 1303 Q478 1304 458 1286 Q438 1268 420 1225 Q406 1196 383 1196 ZM190 43 L190 1001 Q190 1024 204 1038 Q218 1052 241 1052 Q262 1052 276 1038 Q290 1024 291 1001 L291 850 Q416 1069 668 1069 Q862 1069 974 949 Q1086 829 1085 639 L1085 43 Q1085 20 1072 6 Q1059 -8 1036 -8 Q1013 -8 999 6 Q985 20 985 43 L985 621 Q985 785 897 881 Q809 977 653 977 Q497 978 394 872 Q291 766 291 604 L291 43 Q291 20 278 6 Q265 -8 242 -8 Q218 -8 204 6 Q190 20 190 43 Z" /><glyph glyph-name="ograve" unicode="ò" d="M684 1231 Q684 1212 652 1212 Q620 1212 592 1239 L428 1397 Q406 1420 406 1435 Q406 1450 434 1465 Q509 1505 549 1444 L676 1253 Q684 1241 684 1231 ZM352 202 Q477 70 659 70 Q841 70 963 201 Q1084 332 1083 518 L1083 522 Q1083 710 958 842 Q833 974 651 975 Q469 975 348 844 Q227 713 227 526 L227 522 Q227 334 352 202 ZM1037 137 Q882 -25 653 -25 Q424 -25 271 135 Q118 295 119 518 L119 522 Q119 745 273 907 Q428 1069 657 1069 Q886 1069 1039 909 Q1192 749 1192 526 L1192 522 Q1192 299 1037 137 Z" /><glyph glyph-name="oacute" unicode="ó" d="M719 1239 Q690 1212 658 1212 Q626 1212 627 1231 Q627 1241 635 1253 L762 1444 Q788 1481 818 1481 Q848 1482 877 1466 Q906 1450 906 1435 Q906 1420 883 1397 L719 1239 ZM352 202 Q477 70 659 70 Q841 70 963 201 Q1084 332 1083 518 L1083 522 Q1083 710 958 842 Q833 974 651 975 Q469 975 348 844 Q227 713 227 526 L227 522 Q227 334 352 202 ZM1037 137 Q882 -25 653 -25 Q424 -25 271 135 Q118 295 119 518 L119 522 Q119 745 273 907 Q428 1069 657 1069 Q886 1069 1039 909 Q1192 749 1192 526 L1192 522 Q1192 299 1037 137 Z" /><glyph glyph-name="ocircumflex" unicode="ô" d="M524 1239 Q496 1212 464 1212 Q432 1212 432 1233 Q432 1245 442 1257 L590 1438 Q621 1475 647 1475 L664 1475 Q691 1475 721 1438 L868 1257 Q878 1245 878 1229 Q878 1212 845 1212 Q811 1212 782 1239 L653 1358 L524 1239 ZM352 202 Q477 70 659 70 Q841 70 963 201 Q1084 332 1083 518 L1083 522 Q1083 710 958 842 Q833 974 651 975 Q469 975 348 844 Q227 713 227 526 L227 522 Q227 334 352 202 ZM1037 137 Q882 -25 653 -25 Q424 -25 271 135 Q118 295 119 518 L119 522 Q119 745 273 907 Q428 1069 657 1069 Q886 1069 1039 909 Q1192 749 1192 526 L1192 522 Q1192 299 1037 137 Z" /><glyph glyph-name="otilde" unicode="õ" d="M401 1196 Q364 1196 365 1231 Q365 1243 369 1255 Q398 1341 435 1375 Q473 1409 521 1409 Q570 1409 664 1367 Q758 1325 792 1325 Q826 1325 846 1342 Q866 1359 885 1403 Q899 1432 922 1432 Q959 1432 958 1397 Q958 1385 954 1372 Q926 1286 888 1252 Q850 1218 802 1218 Q754 1218 660 1261 Q566 1303 531 1303 Q496 1304 476 1286 Q456 1268 438 1225 Q424 1196 401 1196 ZM352 202 Q477 70 659 70 Q841 70 963 201 Q1084 332 1083 518 L1083 522 Q1083 710 958 842 Q833 974 651 975 Q469 975 348 844 Q227 713 227 526 L227 522 Q227 334 352 202 ZM1037 137 Q882 -25 653 -25 Q424 -25 271 135 Q118 295 119 518 L119 522 Q119 745 273 907 Q428 1069 657 1069 Q886 1069 1039 909 Q1192 749 1192 526 L1192 522 Q1192 299 1037 137 Z" /><glyph glyph-name="odieresis" unicode="ö" d="M487 1391 Q518 1392 538 1372 Q558 1352 559 1321 L559 1280 Q559 1249 539 1230 Q520 1210 488 1210 Q456 1210 436 1230 Q416 1250 416 1280 L416 1321 Q416 1352 436 1372 Q456 1392 487 1391 ZM823 1391 Q854 1392 874 1372 Q894 1352 895 1321 L895 1280 Q894 1249 874 1230 Q854 1210 823 1210 Q792 1210 772 1230 Q752 1250 752 1280 L752 1321 Q752 1352 772 1372 Q792 1392 823 1391 ZM352 202 Q477 70 659 70 Q841 70 963 201 Q1084 332 1083 518 L1083 522 Q1083 710 958 842 Q833 974 651 975 Q469 975 348 844 Q227 713 227 526 L227 522 Q227 334 352 202 ZM1037 137 Q882 -25 653 -25 Q424 -25 271 135 Q118 295 119 518 L119 522 Q119 745 273 907 Q428 1069 657 1069 Q886 1069 1039 909 Q1192 749 1192 526 L1192 522 Q1192 299 1037 137 Z" /><glyph glyph-name="divide" unicode="÷" d="M578 402 Q602 426 635 426 Q668 426 692 401 Q716 376 717 344 L717 309 Q717 274 692 250 Q666 226 634 227 Q602 227 578 251 Q554 275 553 309 L553 344 Q554 378 578 402 ZM578 1191 Q602 1214 635 1214 Q668 1214 692 1190 Q716 1166 717 1133 L717 1098 Q717 1065 692 1040 Q666 1016 634 1016 Q602 1016 578 1040 Q554 1064 553 1098 L553 1133 Q554 1168 578 1191 ZM180 672 Q160 672 145 686 Q131 700 131 720 Q131 740 145 756 Q159 770 180 770 L1090 770 Q1110 770 1124 756 Q1138 742 1138 722 Q1138 702 1124 686 Q1110 672 1090 672 L180 672 Z" /><glyph glyph-name="oslash" unicode="ø" d="M227 522 Q227 356 324 233 L934 866 Q813 975 641 975 Q469 975 348 844 Q227 713 227 526 L227 522 ZM377 176 Q495 70 668 70 Q841 70 963 201 Q1084 332 1083 518 L1083 522 Q1083 686 985 811 L377 176 ZM1037 137 Q882 -25 669 -25 Q456 -25 311 98 L213 -2 Q196 -18 178 -18 Q160 -18 147 -7 Q135 4 135 21 Q135 38 147 51 L250 158 Q119 316 119 518 L119 522 Q119 745 273 907 Q428 1069 641 1069 Q854 1069 999 944 L1098 1051 Q1114 1067 1132 1067 Q1150 1067 1163 1056 Q1176 1046 1176 1028 Q1176 1010 1163 997 L1059 887 Q1192 733 1192 526 L1192 522 Q1192 299 1037 137 Z" /><glyph glyph-name="ugrave" unicode="ù" d="M645 1231 Q645 1212 613 1212 Q581 1212 553 1239 L389 1397 Q366 1420 366 1435 Q366 1450 396 1465 Q471 1505 510 1444 L637 1253 Q645 1241 645 1231 ZM965 1001 Q965 1051 1014 1053 Q1037 1052 1051 1038 Q1065 1024 1065 1001 L1065 43 Q1065 20 1051 6 Q1037 -8 1015 -8 Q993 -8 979 6 Q965 20 965 43 L965 195 Q840 -24 588 -25 Q394 -25 282 95 Q170 215 170 406 L170 1001 Q170 1051 219 1053 Q242 1052 256 1038 Q270 1024 270 1001 L270 424 Q270 260 358 164 Q446 68 602 68 Q758 68 861 173 Q964 278 965 440 L965 1001 Z" /><glyph glyph-name="uacute" unicode="ú" d="M680 1239 Q651 1212 619 1212 Q587 1212 588 1231 Q588 1241 596 1253 L723 1444 Q748 1481 778 1481 Q808 1482 838 1466 Q866 1450 866 1435 Q866 1420 844 1397 L680 1239 ZM965 1001 Q965 1051 1014 1053 Q1037 1052 1051 1038 Q1065 1024 1065 1001 L1065 43 Q1065 20 1051 6 Q1037 -8 1015 -8 Q993 -8 979 6 Q965 20 965 43 L965 195 Q840 -24 588 -25 Q394 -25 282 95 Q170 215 170 406 L170 1001 Q170 1051 219 1053 Q242 1052 256 1038 Q270 1024 270 1001 L270 424 Q270 260 358 164 Q446 68 602 68 Q758 68 861 173 Q964 278 965 440 L965 1001 Z" /><glyph glyph-name="ucircumflex" unicode="û" d="M485 1239 Q456 1212 424 1212 Q392 1212 393 1233 Q393 1245 403 1257 L551 1438 Q582 1475 608 1475 L625 1475 Q652 1475 682 1438 L829 1257 Q840 1245 840 1229 Q840 1212 806 1212 Q772 1212 743 1239 L614 1358 L485 1239 ZM965 1001 Q965 1051 1014 1053 Q1037 1052 1051 1038 Q1065 1024 1065 1001 L1065 43 Q1065 20 1051 6 Q1037 -8 1015 -8 Q993 -8 979 6 Q965 20 965 43 L965 195 Q840 -24 588 -25 Q394 -25 282 95 Q170 215 170 406 L170 1001 Q170 1051 219 1053 Q242 1052 256 1038 Q270 1024 270 1001 L270 424 Q270 260 358 164 Q446 68 602 68 Q758 68 861 173 Q964 278 965 440 L965 1001 Z" /><glyph glyph-name="udieresis" unicode="ü" d="M449 1391 Q480 1392 500 1372 Q520 1352 520 1321 L520 1280 Q520 1249 500 1230 Q480 1210 449 1210 Q418 1210 398 1230 Q378 1250 377 1280 L377 1321 Q378 1352 398 1372 Q418 1392 449 1391 ZM784 1391 Q816 1392 836 1372 Q856 1352 856 1321 L856 1280 Q856 1249 836 1230 Q816 1210 784 1210 Q752 1210 733 1230 Q713 1250 713 1280 L713 1321 Q713 1352 733 1372 Q753 1392 784 1391 ZM965 1001 Q965 1051 1014 1053 Q1037 1052 1051 1038 Q1065 1024 1065 1001 L1065 43 Q1065 20 1051 6 Q1037 -8 1015 -8 Q993 -8 979 6 Q965 20 965 43 L965 195 Q840 -24 588 -25 Q394 -25 282 95 Q170 215 170 406 L170 1001 Q170 1051 219 1053 Q242 1052 256 1038 Q270 1024 270 1001 L270 424 Q270 260 358 164 Q446 68 602 68 Q758 68 861 173 Q964 278 965 440 L965 1001 Z" /><glyph glyph-name="yacute" unicode="ý" d="M674 1239 Q645 1212 613 1212 Q581 1212 582 1231 Q582 1241 590 1253 L717 1444 Q742 1481 772 1481 Q802 1482 832 1466 Q860 1450 860 1435 Q860 1420 838 1397 L674 1239 ZM515 -266 Q432 -334 330 -334 Q228 -334 139 -301 Q110 -290 110 -264 Q111 -210 158 -211 Q166 -211 206 -225 Q246 -240 326 -240 Q408 -240 465 -184 Q522 -128 575 -8 L582 6 L115 971 Q97 1016 117 1034 Q137 1052 166 1052 Q195 1052 213 1012 L631 111 L995 1016 Q1008 1053 1036 1053 Q1064 1053 1084 1034 Q1104 1015 1090 975 L666 -37 Q598 -198 515 -266 Z" /><glyph glyph-name="thorn" unicode="þ" d="M285 520 Q285 324 413 198 Q541 72 714 72 Q887 72 1004 193 Q1121 314 1120 518 L1120 522 Q1120 723 1000 848 Q880 973 710 973 Q540 973 413 845 Q285 717 285 524 L285 520 ZM190 -285 L190 1452 Q190 1475 204 1489 Q218 1503 240 1503 Q289 1503 291 1452 L291 811 Q461 1069 721 1069 Q922 1070 1076 920 Q1230 770 1229 526 L1229 522 Q1229 278 1075 126 Q921 -26 721 -25 Q455 -25 291 225 L291 -285 Q291 -308 278 -322 Q265 -336 242 -336 Q218 -336 204 -322 Q190 -308 190 -285 Z" /><glyph glyph-name="ydieresis" unicode="ÿ" d="M442 1391 Q474 1392 494 1372 Q514 1352 514 1321 L514 1280 Q514 1249 494 1230 Q474 1210 442 1210 Q410 1210 391 1230 Q371 1250 371 1280 L371 1321 Q371 1352 391 1372 Q411 1392 442 1391 ZM778 1391 Q809 1392 829 1372 Q849 1352 850 1321 L850 1280 Q850 1249 830 1230 Q810 1210 778 1210 Q747 1210 727 1230 Q707 1250 707 1280 L707 1321 Q707 1352 727 1372 Q747 1392 778 1391 ZM515 -266 Q432 -334 330 -334 Q228 -334 139 -301 Q110 -290 110 -264 Q111 -210 158 -211 Q166 -211 206 -225 Q246 -240 326 -240 Q408 -240 465 -184 Q522 -128 575 -8 L582 6 L115 971 Q97 1016 117 1034 Q137 1052 166 1052 Q195 1052 213 1012 L631 111 L995 1016 Q1008 1053 1036 1053 Q1064 1053 1084 1034 Q1104 1015 1090 975 L666 -37 Q598 -198 515 -266 Z" /><glyph glyph-name="Amacron" unicode="&#x100;" d="M1077 1640 L537 1640 Q516 1640 502 1654 Q488 1668 488 1690 Q488 1710 502 1724 Q516 1738 537 1739 L1077 1739 Q1098 1738 1112 1724 Q1126 1710 1126 1690 Q1126 1670 1112 1655 Q1098 1640 1077 1640 ZM428 498 L1184 498 L807 1327 L428 498 ZM129 5 Q115 19 115 36 Q115 53 123 70 L735 1397 Q760 1448 807 1448 L811 1448 Q858 1448 883 1397 L1493 74 Q1501 58 1501 40 Q1501 22 1486 6 Q1471 -8 1443 -8 Q1415 -8 1397 33 L1229 401 L383 401 L215 31 Q200 -8 172 -8 Q144 -8 129 5 Z" /><glyph glyph-name="amacron" unicode="&#x101;" d="M858 1272 L317 1272 Q297 1272 283 1286 Q268 1300 268 1320 Q268 1340 282 1356 Q296 1370 317 1370 L858 1370 Q878 1370 892 1356 Q906 1342 907 1322 Q907 1302 893 1286 Q878 1272 858 1272 ZM300 135 Q390 70 534 70 Q678 70 794 161 Q910 252 909 391 L909 510 Q725 557 558 557 Q391 557 301 490 Q211 423 211 313 L211 309 Q211 200 300 135 ZM956 -8 Q909 -8 907 43 L907 174 Q766 -25 508 -25 Q348 -25 226 62 Q104 149 104 303 L104 307 Q104 467 229 557 Q354 647 546 647 Q738 647 907 602 L907 647 Q907 803 817 885 Q727 967 569 967 Q411 967 266 897 Q254 891 240 891 Q226 891 211 905 Q197 919 197 945 Q197 971 225 983 Q401 1061 569 1061 Q784 1060 894 950 Q1004 840 1006 651 L1006 43 Q1006 20 992 6 Q978 -8 956 -8 Z" /><glyph glyph-name="Abreve" unicode="&#x102;" d="M1051 1722 Q977 1583 807 1583 Q637 1583 563 1722 Q540 1763 540 1804 Q540 1845 580 1845 Q611 1845 623 1810 Q670 1688 807 1688 Q944 1688 991 1810 Q1003 1845 1034 1845 Q1073 1845 1073 1804 Q1073 1763 1051 1722 ZM428 498 L1184 498 L807 1327 L428 498 ZM129 5 Q115 19 115 36 Q115 53 123 70 L735 1397 Q760 1448 807 1448 L811 1448 Q858 1448 883 1397 L1493 74 Q1501 58 1501 40 Q1501 22 1486 6 Q1471 -8 1443 -8 Q1415 -8 1397 33 L1229 401 L383 401 L215 31 Q200 -8 172 -8 Q144 -8 129 5 Z" /><glyph glyph-name="abreve" unicode="&#x103;" d="M831 1354 Q758 1214 588 1214 Q418 1214 344 1354 Q322 1395 322 1436 Q322 1477 360 1477 Q391 1477 403 1442 Q450 1319 588 1319 Q726 1319 772 1442 Q784 1477 815 1477 Q854 1477 854 1436 Q854 1395 831 1354 ZM300 135 Q390 70 534 70 Q678 70 794 161 Q910 252 909 391 L909 510 Q725 557 558 557 Q391 557 301 490 Q211 423 211 313 L211 309 Q211 200 300 135 ZM956 -8 Q909 -8 907 43 L907 174 Q766 -25 508 -25 Q348 -25 226 62 Q104 149 104 303 L104 307 Q104 467 229 557 Q354 647 546 647 Q738 647 907 602 L907 647 Q907 803 817 885 Q727 967 569 967 Q411 967 266 897 Q254 891 240 891 Q226 891 211 905 Q197 919 197 945 Q197 971 225 983 Q401 1061 569 1061 Q784 1060 894 950 Q1004 840 1006 651 L1006 43 Q1006 20 992 6 Q978 -8 956 -8 Z" /><glyph glyph-name="Aogonek" unicode="&#x104;" d="M428 498 L1184 498 L807 1327 L428 498 ZM129 5 Q115 19 115 36 Q115 53 123 70 L735 1397 Q760 1448 807 1448 L811 1448 Q858 1448 883 1397 L1499 61 Q1507 46 1507 26 Q1507 6 1483 -14 Q1384 -96 1384 -166 Q1384 -236 1493 -256 Q1548 -266 1548 -297 Q1548 -334 1499 -334 Q1450 -334 1394 -314 Q1282 -272 1282 -178 Q1282 -84 1405 14 L1229 401 L383 401 L215 31 Q200 -8 172 -8 Q144 -8 129 5 Z" /><glyph glyph-name="aogonek" unicode="&#x105;" d="M300 135 Q390 70 534 70 Q678 70 794 161 Q910 252 909 391 L909 510 Q725 557 558 557 Q391 557 301 490 Q211 423 211 313 L211 309 Q211 200 300 135 ZM508 -25 Q348 -25 226 62 Q104 149 104 303 L104 307 Q104 467 229 557 Q354 647 546 647 Q738 647 907 602 L907 647 Q907 803 817 885 Q727 967 569 967 Q411 967 266 897 Q254 891 240 891 Q226 891 211 905 Q197 919 197 945 Q197 971 225 983 Q401 1061 569 1061 Q784 1060 894 950 Q1004 840 1006 651 L1006 35 Q1006 4 977 -18 Q883 -98 883 -162 Q883 -236 991 -256 Q1046 -266 1047 -297 Q1047 -334 997 -334 Q947 -334 892 -314 Q780 -272 780 -176 Q780 -80 907 18 L907 174 Q766 -25 508 -25 Z" /><glyph glyph-name="Cacute" unicode="&#x106;" d="M920 1608 Q891 1581 859 1581 Q827 1581 827 1599 Q827 1609 836 1622 L963 1812 Q988 1849 1018 1849 Q1048 1849 1078 1834 Q1106 1820 1106 1804 Q1106 1788 1083 1765 L920 1608 ZM862 -25 Q557 -25 353 188 Q149 401 150 713 L150 717 Q150 1024 354 1241 Q559 1458 866 1458 Q1032 1458 1155 1407 Q1278 1356 1393 1257 Q1413 1238 1413 1216 Q1413 1194 1397 1178 Q1381 1162 1358 1162 Q1335 1162 1321 1176 Q1116 1362 861 1362 Q606 1362 433 1177 Q260 992 260 721 L260 717 Q260 444 435 258 Q610 72 866 72 Q1007 72 1117 121 Q1227 170 1333 270 Q1350 286 1370 286 Q1390 286 1406 272 Q1422 256 1421 236 Q1421 216 1405 199 Q1286 88 1159 32 Q1032 -24 862 -25 Z" /><glyph glyph-name="cacute" unicode="&#x107;" d="M705 1239 Q676 1212 644 1212 Q612 1212 612 1231 Q612 1241 621 1253 L748 1444 Q774 1481 804 1481 Q834 1482 862 1466 Q890 1450 891 1435 Q891 1420 868 1397 L705 1239 ZM1055 156 Q878 -25 653 -25 Q428 -25 273 136 Q118 297 119 518 L119 522 Q119 743 274 906 Q430 1069 648 1069 Q866 1069 1044 903 Q1058 889 1058 866 Q1058 843 1044 829 Q1028 815 1006 815 Q984 815 973 827 Q817 974 644 974 Q471 974 349 845 Q227 715 227 526 L227 522 Q227 334 352 202 Q477 70 656 70 Q835 70 985 219 Q1019 253 1052 220 Q1067 204 1067 186 Q1067 168 1055 156 Z" /><glyph glyph-name="Cdotaccent" unicode="&#x10a;" d="M930 1690 L930 1651 Q930 1618 910 1598 Q890 1578 856 1579 Q823 1579 803 1598 Q783 1617 782 1651 L782 1690 Q782 1723 802 1742 Q822 1761 856 1761 Q890 1761 910 1742 Q930 1723 930 1690 ZM862 -25 Q557 -25 353 188 Q149 401 150 713 L150 717 Q150 1024 354 1241 Q559 1458 866 1458 Q1032 1458 1155 1407 Q1278 1356 1393 1257 Q1413 1238 1413 1216 Q1413 1194 1397 1178 Q1381 1162 1358 1162 Q1335 1162 1321 1176 Q1116 1362 861 1362 Q606 1362 433 1177 Q260 992 260 721 L260 717 Q260 444 435 258 Q610 72 866 72 Q1007 72 1117 121 Q1227 170 1333 270 Q1350 286 1370 286 Q1390 286 1406 272 Q1422 256 1421 236 Q1421 216 1405 199 Q1286 88 1159 32 Q1032 -24 862 -25 Z" /><glyph glyph-name="cdotaccent" unicode="&#x10b;" d="M715 1321 L715 1282 Q714 1249 694 1230 Q674 1210 641 1210 Q608 1210 588 1230 Q568 1250 567 1282 L567 1321 Q568 1354 588 1373 Q608 1392 641 1392 Q674 1392 694 1374 Q714 1354 715 1321 ZM1055 156 Q878 -25 653 -25 Q428 -25 273 136 Q118 297 119 518 L119 522 Q119 743 274 906 Q430 1069 648 1069 Q866 1069 1044 903 Q1058 889 1058 866 Q1058 843 1044 829 Q1028 815 1006 815 Q984 815 973 827 Q817 974 644 974 Q471 974 349 845 Q227 715 227 526 L227 522 Q227 334 352 202 Q477 70 656 70 Q835 70 985 219 Q1019 253 1052 220 Q1067 204 1067 186 Q1067 168 1055 156 Z" /><glyph glyph-name="Ccaron" unicode="&#x10c;" d="M864 1581 L848 1581 Q821 1581 791 1618 L643 1798 Q633 1810 633 1823 Q633 1843 667 1843 Q701 1843 729 1817 L858 1698 L987 1817 Q1016 1844 1048 1844 Q1080 1844 1079 1823 Q1079 1811 1069 1798 L922 1618 Q891 1581 864 1581 ZM862 -25 Q557 -25 353 188 Q149 401 150 713 L150 717 Q150 1024 354 1241 Q559 1458 866 1458 Q1032 1458 1155 1407 Q1278 1356 1393 1257 Q1413 1238 1413 1216 Q1413 1194 1397 1178 Q1381 1162 1358 1162 Q1335 1162 1321 1176 Q1116 1362 861 1362 Q606 1362 433 1177 Q260 992 260 721 L260 717 Q260 444 435 258 Q610 72 866 72 Q1007 72 1117 121 Q1227 170 1333 270 Q1350 286 1370 286 Q1390 286 1406 272 Q1422 256 1421 236 Q1421 216 1405 199 Q1286 88 1159 32 Q1032 -24 862 -25 Z" /><glyph glyph-name="ccaron" unicode="&#x10d;" d="M772 1448 Q801 1475 833 1475 Q865 1475 864 1454 Q864 1442 854 1430 L707 1249 Q676 1212 649 1212 L633 1212 Q606 1212 575 1249 L428 1430 Q418 1442 418 1454 Q418 1474 452 1474 Q486 1474 514 1448 L643 1329 L772 1448 ZM1055 156 Q878 -25 653 -25 Q428 -25 273 136 Q118 297 119 518 L119 522 Q119 743 274 906 Q430 1069 648 1069 Q866 1069 1044 903 Q1058 889 1058 866 Q1058 843 1044 829 Q1028 815 1006 815 Q984 815 973 827 Q817 974 644 974 Q471 974 349 845 Q227 715 227 526 L227 522 Q227 334 352 202 Q477 70 656 70 Q835 70 985 219 Q1019 253 1052 220 Q1067 204 1067 186 Q1067 168 1055 156 Z" /><glyph glyph-name="Dcaron" unicode="&#x10e;" d="M899 1796 Q928 1823 960 1823 Q992 1823 991 1802 Q991 1790 981 1778 L834 1597 Q803 1560 776 1561 L760 1561 Q733 1561 702 1597 L555 1778 Q545 1790 545 1802 Q544 1822 578 1822 Q612 1822 641 1796 L770 1677 L899 1796 ZM319 98 L690 98 Q983 98 1162 274 Q1341 450 1341 713 L1341 717 Q1341 979 1162 1157 Q983 1335 690 1335 L319 1335 L319 98 ZM213 53 L213 1380 Q213 1400 229 1416 Q245 1432 266 1434 L690 1434 Q1024 1434 1238 1230 Q1452 1026 1452 721 L1452 717 Q1452 410 1238 205 Q1024 0 690 0 L266 0 Q246 0 229 16 Q213 33 213 53 Z" /><glyph glyph-name="dcaron" unicode="&#x10f;" d="M1386 1503 L1413 1503 Q1448 1503 1448 1468 Q1448 1456 1436 1419 L1368 1221 Q1356 1184 1333 1184 Q1299 1184 1305 1223 L1329 1450 Q1337 1503 1386 1503 ZM939 846 Q811 973 638 973 Q465 973 348 852 Q231 731 231 526 L231 522 Q231 320 351 196 Q471 72 641 72 Q811 72 939 200 Q1067 328 1067 520 L1067 524 Q1067 719 939 846 ZM1161 1452 L1161 43 Q1161 20 1148 6 Q1135 -8 1112 -8 Q1089 -8 1075 6 Q1061 20 1061 43 L1061 233 Q891 -25 631 -25 Q430 -25 276 125 Q122 275 123 518 L123 522 Q123 766 276 918 Q430 1070 631 1069 Q897 1069 1061 819 L1061 1452 Q1061 1475 1074 1489 Q1087 1503 1110 1503 Q1133 1503 1147 1489 Q1161 1475 1161 1452 Z" /><glyph glyph-name="Dcroat" unicode="&#x110;" d="M381 1335 L381 770 L815 770 Q836 770 850 756 Q864 742 864 722 Q864 702 850 686 Q836 672 815 672 L381 672 L381 98 L752 98 Q1045 98 1224 274 Q1403 450 1403 713 L1403 717 Q1403 979 1224 1157 Q1045 1335 752 1335 L381 1335 ZM162 770 L274 770 L274 1380 Q274 1400 290 1416 Q306 1432 328 1434 L752 1434 Q1086 1434 1300 1230 Q1514 1026 1513 721 L1513 717 Q1513 410 1299 205 Q1085 0 752 0 L328 0 Q308 0 291 16 Q275 32 274 53 L274 672 L162 672 Q142 672 127 686 Q113 700 113 720 Q113 740 127 756 Q142 770 162 770 Z" /><glyph glyph-name="dcroat" unicode="&#x111;" d="M939 846 Q811 973 638 973 Q465 973 348 852 Q231 731 231 526 L231 522 Q231 320 351 196 Q471 72 641 72 Q811 72 939 200 Q1067 328 1067 520 L1067 524 Q1067 719 939 846 ZM1161 1452 L1161 1358 L1268 1358 Q1286 1358 1299 1345 Q1312 1332 1312 1314 Q1312 1296 1300 1282 Q1286 1268 1268 1268 L1161 1268 L1161 43 Q1161 20 1148 6 Q1135 -8 1112 -8 Q1089 -8 1075 6 Q1061 20 1061 43 L1061 233 Q891 -25 631 -25 Q430 -25 276 125 Q122 275 123 518 L123 522 Q123 766 276 918 Q430 1070 631 1069 Q897 1069 1061 819 L1061 1268 L719 1268 Q701 1268 687 1281 Q674 1294 674 1312 Q674 1330 687 1344 Q700 1358 719 1358 L1061 1358 L1061 1452 Q1061 1475 1074 1489 Q1087 1503 1110 1503 Q1133 1503 1147 1489 Q1161 1475 1161 1452 Z" /><glyph glyph-name="Emacron" unicode="&#x112;" d="M997 1620 L457 1620 Q437 1620 422 1634 Q408 1648 408 1668 Q408 1688 422 1704 Q436 1718 457 1718 L997 1718 Q1018 1718 1032 1704 Q1046 1690 1046 1670 Q1046 1650 1032 1634 Q1017 1620 997 1620 ZM266 0 Q246 0 229 16 Q213 32 213 53 L213 1380 Q213 1400 229 1416 Q245 1432 266 1434 L1192 1434 Q1212 1434 1226 1420 Q1240 1406 1241 1384 Q1241 1364 1227 1350 Q1213 1336 1192 1335 L319 1335 L319 772 L1100 772 Q1120 772 1134 758 Q1148 744 1149 724 Q1149 704 1135 688 Q1121 674 1100 674 L319 674 L319 98 L1202 98 Q1222 98 1236 84 Q1250 70 1251 50 Q1251 30 1237 14 Q1223 0 1202 0 L266 0 Z" /><glyph glyph-name="emacron" unicode="&#x113;" d="M885 1272 L344 1272 Q324 1272 309 1286 Q295 1300 295 1320 Q295 1340 309 1356 Q323 1370 344 1370 L885 1370 Q906 1370 920 1356 Q934 1342 934 1322 Q934 1302 920 1286 Q905 1272 885 1272 ZM1038 145 Q868 -25 644 -25 Q420 -25 269 129 Q118 283 119 520 L119 524 Q119 753 261 911 Q403 1069 616 1069 Q830 1069 962 913 Q1094 757 1094 528 Q1094 510 1078 496 Q1062 482 1044 481 L225 481 Q239 293 357 181 Q475 69 635 70 Q825 70 973 213 Q986 227 1006 227 Q1026 227 1040 214 Q1054 201 1054 181 Q1054 161 1038 145 ZM877 860 Q780 977 618 977 Q456 977 348 861 Q240 745 225 571 L985 571 Q973 743 877 860 Z" /><glyph glyph-name="Ebreve" unicode="&#x114;" d="M971 1702 Q897 1563 727 1563 Q557 1563 483 1702 Q460 1743 460 1784 Q460 1825 500 1825 Q531 1825 543 1790 Q590 1667 727 1667 Q864 1667 911 1790 Q923 1825 954 1825 Q993 1825 993 1784 Q993 1743 971 1702 ZM266 0 Q246 0 229 16 Q213 32 213 53 L213 1380 Q213 1400 229 1416 Q245 1432 266 1434 L1192 1434 Q1212 1434 1226 1420 Q1240 1406 1241 1384 Q1241 1364 1227 1350 Q1213 1336 1192 1335 L319 1335 L319 772 L1100 772 Q1120 772 1134 758 Q1148 744 1149 724 Q1149 704 1135 688 Q1121 674 1100 674 L319 674 L319 98 L1202 98 Q1222 98 1236 84 Q1250 70 1251 50 Q1251 30 1237 14 Q1223 0 1202 0 L266 0 Z" /><glyph glyph-name="ebreve" unicode="&#x115;" d="M858 1354 Q784 1214 614 1214 Q444 1214 371 1354 Q348 1395 348 1436 Q348 1477 387 1477 Q418 1477 430 1442 Q477 1319 614 1319 Q751 1319 799 1442 Q811 1477 842 1477 Q881 1477 881 1436 Q881 1395 858 1354 ZM1038 145 Q868 -25 644 -25 Q420 -25 269 129 Q118 283 119 520 L119 524 Q119 753 261 911 Q403 1069 616 1069 Q830 1069 962 913 Q1094 757 1094 528 Q1094 510 1078 496 Q1062 482 1044 481 L225 481 Q239 293 357 181 Q475 69 635 70 Q825 70 973 213 Q986 227 1006 227 Q1026 227 1040 214 Q1054 201 1054 181 Q1054 161 1038 145 ZM877 860 Q780 977 618 977 Q456 977 348 861 Q240 745 225 571 L985 571 Q973 743 877 860 Z" /><glyph glyph-name="Edotaccent" unicode="&#x116;" d="M801 1669 L801 1630 Q800 1597 780 1578 Q760 1559 727 1559 Q694 1559 674 1578 Q654 1597 653 1630 L653 1669 Q654 1702 674 1721 Q694 1740 727 1740 Q760 1740 780 1722 Q800 1702 801 1669 ZM266 0 Q246 0 229 16 Q213 32 213 53 L213 1380 Q213 1400 229 1416 Q245 1432 266 1434 L1192 1434 Q1212 1434 1226 1420 Q1240 1406 1241 1384 Q1241 1364 1227 1350 Q1213 1336 1192 1335 L319 1335 L319 772 L1100 772 Q1120 772 1134 758 Q1148 744 1149 724 Q1149 704 1135 688 Q1121 674 1100 674 L319 674 L319 98 L1202 98 Q1222 98 1236 84 Q1250 70 1251 50 Q1251 30 1237 14 Q1223 0 1202 0 L266 0 Z" /><glyph glyph-name="edotaccent" unicode="&#x117;" d="M688 1321 L688 1282 Q688 1249 668 1230 Q648 1210 614 1210 Q580 1210 561 1230 Q541 1250 541 1282 L541 1321 Q541 1354 561 1373 Q581 1392 614 1392 Q648 1392 668 1374 Q688 1354 688 1321 ZM1038 145 Q868 -25 644 -25 Q420 -25 269 129 Q118 283 119 520 L119 524 Q119 753 261 911 Q403 1069 616 1069 Q830 1069 962 913 Q1094 757 1094 528 Q1094 510 1078 496 Q1062 482 1044 481 L225 481 Q239 293 357 181 Q475 69 635 70 Q825 70 973 213 Q986 227 1006 227 Q1026 227 1040 214 Q1054 201 1054 181 Q1054 161 1038 145 ZM877 860 Q780 977 618 977 Q456 977 348 861 Q240 745 225 571 L985 571 Q973 743 877 860 Z" /><glyph glyph-name="Eogonek" unicode="&#x118;" d="M266 0 Q246 0 229 16 Q213 32 213 53 L213 1380 Q213 1400 229 1416 Q245 1432 266 1434 L1192 1434 Q1212 1434 1226 1420 Q1240 1406 1241 1384 Q1241 1364 1227 1350 Q1213 1336 1192 1335 L319 1335 L319 772 L1100 772 Q1120 772 1134 758 Q1148 744 1149 724 Q1149 704 1135 688 Q1121 674 1100 674 L319 674 L319 98 L1198 98 Q1251 98 1251 55 Q1251 26 1219 2 Q1145 -53 1116 -88 Q1087 -123 1087 -164 Q1087 -236 1194 -256 Q1249 -266 1249 -297 Q1248 -334 1200 -334 Q1152 -334 1096 -314 Q983 -275 983 -183 Q983 -90 1100 0 L266 0 Z" /><glyph glyph-name="eogonek" unicode="&#x119;" d="M877 860 Q780 977 618 977 Q456 977 348 861 Q240 745 225 571 L985 571 Q973 743 877 860 ZM1094 528 Q1094 510 1078 496 Q1062 482 1044 481 L225 481 Q239 293 357 181 Q475 69 635 70 Q825 70 973 213 Q986 227 1006 227 Q1026 227 1040 214 Q1054 202 1054 182 Q1054 162 1035 142 Q1014 122 940 60 Q866 -2 832 -51 Q798 -100 799 -150 Q799 -236 909 -256 Q964 -266 965 -297 Q965 -334 924 -334 Q842 -334 770 -293 Q698 -252 698 -169 Q698 -86 776 -8 Q704 -24 631 -25 Q420 -25 269 129 Q118 283 119 520 L119 524 Q119 753 261 911 Q403 1069 616 1069 Q830 1069 962 913 Q1094 757 1094 528 Z" /><glyph glyph-name="Ecaron" unicode="&#x11a;" d="M858 1796 Q887 1823 919 1823 Q951 1823 950 1802 Q950 1790 940 1778 L793 1597 Q762 1560 735 1561 L719 1561 Q692 1561 662 1597 L514 1778 Q504 1790 504 1802 Q504 1822 538 1822 Q572 1822 600 1796 L729 1677 L858 1796 ZM266 0 Q246 0 229 16 Q213 32 213 53 L213 1380 Q213 1400 229 1416 Q245 1432 266 1434 L1192 1434 Q1212 1434 1226 1420 Q1240 1406 1241 1384 Q1241 1364 1227 1350 Q1213 1336 1192 1335 L319 1335 L319 772 L1100 772 Q1120 772 1134 758 Q1148 744 1149 724 Q1149 704 1135 688 Q1121 674 1100 674 L319 674 L319 98 L1202 98 Q1222 98 1236 84 Q1250 70 1251 50 Q1251 30 1237 14 Q1223 0 1202 0 L266 0 Z" /><glyph glyph-name="ecaron" unicode="&#x11b;" d="M745 1448 Q774 1475 806 1475 Q838 1475 838 1454 Q838 1442 827 1430 L680 1249 Q649 1212 623 1212 L606 1212 Q579 1212 549 1249 L401 1430 Q391 1442 391 1454 Q391 1474 425 1474 Q459 1474 487 1448 L616 1329 L745 1448 ZM1038 145 Q868 -25 644 -25 Q420 -25 269 129 Q118 283 119 520 L119 524 Q119 753 261 911 Q403 1069 616 1069 Q830 1069 962 913 Q1094 757 1094 528 Q1094 510 1078 496 Q1062 482 1044 481 L225 481 Q239 293 357 181 Q475 69 635 70 Q825 70 973 213 Q986 227 1006 227 Q1026 227 1040 214 Q1054 201 1054 181 Q1054 161 1038 145 ZM877 860 Q780 977 618 977 Q456 977 348 861 Q240 745 225 571 L985 571 Q973 743 877 860 Z" /><glyph glyph-name="Gbreve" unicode="&#x11e;" d="M1087 1722 Q1014 1583 844 1583 Q674 1583 600 1722 Q578 1763 578 1804 Q578 1845 616 1845 Q647 1845 659 1810 Q706 1688 844 1688 Q982 1688 1028 1810 Q1040 1845 1071 1845 Q1110 1845 1110 1804 Q1110 1763 1087 1722 ZM870 -25 Q540 -25 344 187 Q148 399 150 713 L150 717 Q150 1018 348 1238 Q547 1458 842 1458 Q1137 1458 1348 1298 Q1368 1282 1368 1257 Q1368 1232 1352 1218 Q1317 1186 1282 1217 Q1096 1362 846 1362 Q596 1362 428 1174 Q260 986 260 721 L260 717 Q260 432 426 251 Q592 70 874 70 Q1003 70 1125 116 Q1247 162 1331 233 L1331 645 L885 645 Q865 645 850 659 Q836 674 836 694 Q836 714 850 728 Q864 742 885 743 L1380 743 Q1400 743 1416 728 Q1432 713 1434 690 L1434 221 Q1434 190 1397 160 Q1159 -25 870 -25 Z" /><glyph glyph-name="gbreve" unicode="&#x11f;" d="M920 1354 Q846 1214 676 1214 Q506 1214 432 1354 Q410 1395 410 1436 Q410 1477 449 1477 Q480 1477 492 1442 Q539 1319 676 1319 Q813 1319 860 1442 Q872 1477 903 1477 Q942 1477 942 1436 Q942 1395 920 1354 ZM231 573 Q231 402 350 288 Q469 174 637 174 Q805 174 936 287 Q1067 400 1067 571 L1067 575 Q1067 749 937 861 Q807 973 636 973 Q465 973 348 864 Q231 755 231 578 L231 573 ZM1161 162 Q1161 -60 1025 -196 Q889 -332 643 -332 Q397 -332 193 -188 Q170 -172 170 -150 Q170 -128 191 -106 Q212 -85 250 -104 Q430 -238 634 -238 Q838 -238 949 -134 Q1061 -30 1061 168 L1061 319 Q893 77 625 78 Q426 78 274 216 Q122 354 123 569 L123 573 Q123 790 274 930 Q426 1069 625 1069 Q897 1069 1061 836 L1061 1001 Q1061 1024 1075 1038 Q1090 1052 1110 1052 Q1130 1052 1146 1038 Q1162 1024 1161 1001 L1161 162 Z" /><glyph glyph-name="Gdotaccent" unicode="&#x120;" d="M918 1690 L918 1651 Q918 1618 898 1598 Q878 1578 844 1579 Q811 1579 791 1598 Q771 1617 770 1651 L770 1690 Q770 1723 790 1742 Q810 1761 844 1761 Q878 1761 898 1742 Q918 1723 918 1690 ZM870 -25 Q540 -25 344 187 Q148 399 150 713 L150 717 Q150 1018 348 1238 Q547 1458 842 1458 Q1137 1458 1348 1298 Q1368 1282 1368 1257 Q1368 1232 1352 1218 Q1317 1186 1282 1217 Q1096 1362 846 1362 Q596 1362 428 1174 Q260 986 260 721 L260 717 Q260 432 426 251 Q592 70 874 70 Q1003 70 1125 116 Q1247 162 1331 233 L1331 645 L885 645 Q865 645 850 659 Q836 674 836 694 Q836 714 850 728 Q864 742 885 743 L1380 743 Q1400 743 1416 728 Q1432 713 1434 690 L1434 221 Q1434 190 1397 160 Q1159 -25 870 -25 Z" /><glyph glyph-name="gdotaccent" unicode="&#x121;" d="M750 1321 L750 1282 Q750 1249 730 1230 Q710 1210 676 1210 Q643 1210 623 1230 Q603 1250 602 1282 L602 1321 Q602 1354 622 1373 Q642 1392 676 1392 Q710 1392 730 1374 Q750 1354 750 1321 ZM231 573 Q231 402 350 288 Q469 174 637 174 Q805 174 936 287 Q1067 400 1067 571 L1067 575 Q1067 749 937 861 Q807 973 636 973 Q465 973 348 864 Q231 755 231 578 L231 573 ZM1161 162 Q1161 -60 1025 -196 Q889 -332 643 -332 Q397 -332 193 -188 Q170 -172 170 -150 Q170 -128 191 -106 Q212 -85 250 -104 Q430 -238 634 -238 Q838 -238 949 -134 Q1061 -30 1061 168 L1061 319 Q893 77 625 78 Q426 78 274 216 Q122 354 123 569 L123 573 Q123 790 274 930 Q426 1069 625 1069 Q897 1069 1061 836 L1061 1001 Q1061 1024 1075 1038 Q1090 1052 1110 1052 Q1130 1052 1146 1038 Q1162 1024 1161 1001 L1161 162 Z" /><glyph glyph-name="Gcommaaccent" unicode="&#x122;" d="M768 -229 L768 -217 Q768 -186 790 -164 Q812 -142 842 -143 Q872 -143 894 -166 Q916 -189 915 -225 L915 -238 Q915 -353 866 -401 Q840 -426 800 -442 Q707 -479 709 -436 Q709 -416 735 -408 Q790 -394 812 -370 Q834 -346 834 -301 Q768 -287 768 -229 ZM870 -25 Q540 -25 344 187 Q148 399 150 713 L150 717 Q150 1018 348 1238 Q547 1458 842 1458 Q1137 1458 1348 1298 Q1368 1282 1368 1257 Q1368 1232 1352 1218 Q1317 1186 1282 1217 Q1096 1362 846 1362 Q596 1362 428 1174 Q260 986 260 721 L260 717 Q260 432 426 251 Q592 70 874 70 Q1003 70 1125 116 Q1247 162 1331 233 L1331 645 L885 645 Q865 645 850 659 Q836 674 836 694 Q836 714 850 728 Q864 742 885 743 L1380 743 Q1400 743 1416 728 Q1432 713 1434 690 L1434 221 Q1434 190 1397 160 Q1159 -25 870 -25 Z" /><glyph glyph-name="gcommaaccent" unicode="&#x123;" d="M750 1296 L750 1284 Q750 1254 728 1232 Q706 1210 676 1210 Q646 1210 624 1233 Q602 1256 602 1292 L602 1305 Q602 1420 651 1468 Q676 1493 717 1509 Q809 1545 809 1503 Q809 1483 782 1475 Q728 1459 706 1436 Q684 1413 684 1368 Q750 1354 750 1296 ZM231 573 Q231 402 350 288 Q469 174 637 174 Q805 174 936 287 Q1067 400 1067 571 L1067 575 Q1067 749 937 861 Q807 973 636 973 Q465 973 348 864 Q231 755 231 578 L231 573 ZM1161 162 Q1161 -60 1025 -196 Q889 -332 643 -332 Q397 -332 193 -188 Q170 -172 170 -150 Q170 -128 191 -106 Q212 -85 250 -104 Q430 -238 634 -238 Q838 -238 949 -134 Q1061 -30 1061 168 L1061 319 Q893 77 625 78 Q426 78 274 216 Q122 354 123 569 L123 573 Q123 790 274 930 Q426 1069 625 1069 Q897 1069 1061 836 L1061 1001 Q1061 1024 1075 1038 Q1090 1052 1110 1052 Q1130 1052 1146 1038 Q1162 1024 1161 1001 L1161 162 Z" /><glyph glyph-name="Hbar" unicode="&#x126;" d="M381 770 L1298 770 L1298 1044 L381 1044 L381 770 ZM274 45 L274 1044 L158 1044 Q140 1044 126 1058 Q112 1072 113 1090 Q113 1108 126 1121 Q139 1134 158 1135 L274 1135 L274 1389 Q274 1409 290 1425 Q328 1462 365 1425 Q381 1409 381 1389 L381 1135 L1298 1135 L1298 1389 Q1298 1409 1314 1425 Q1352 1462 1389 1425 Q1405 1409 1405 1389 L1405 1135 L1522 1135 Q1540 1136 1553 1122 Q1566 1108 1566 1090 Q1566 1072 1554 1058 Q1540 1044 1522 1044 L1405 1044 L1405 45 Q1405 24 1389 8 Q1372 -8 1352 -8 Q1332 -8 1315 8 Q1299 24 1298 45 L1298 672 L381 672 L381 45 Q381 24 365 8 Q348 -8 328 -8 Q308 -8 291 8 Q274 24 274 45 Z" /><glyph glyph-name="hbar" unicode="&#x127;" d="M190 43 L190 1268 L84 1268 Q66 1268 52 1281 Q39 1294 39 1312 Q39 1330 52 1344 Q65 1358 84 1358 L190 1358 L190 1452 Q190 1475 204 1489 Q218 1503 241 1503 Q262 1503 276 1489 Q290 1475 291 1452 L291 1358 L633 1358 Q650 1358 664 1345 Q678 1332 678 1314 Q678 1296 665 1282 Q652 1268 633 1268 L291 1268 L291 850 Q416 1069 668 1069 Q862 1069 974 949 Q1086 829 1085 639 L1085 43 Q1085 20 1072 6 Q1059 -8 1036 -8 Q1013 -8 999 6 Q985 20 985 43 L985 621 Q985 785 897 881 Q809 977 653 977 Q497 978 394 872 Q291 766 291 604 L291 43 Q291 20 278 6 Q265 -8 242 -8 Q218 -8 204 6 Q190 20 190 43 Z" /><glyph glyph-name="Imacron" unicode="&#x12a;" d="M551 1620 L10 1620 Q-10 1620 -25 1634 Q-39 1648 -39 1668 Q-39 1688 -25 1704 Q-11 1718 10 1718 L551 1718 Q572 1718 586 1704 Q600 1690 600 1670 Q600 1650 586 1634 Q571 1620 551 1620 ZM227 45 L227 1389 Q226 1409 242 1425 Q258 1442 281 1442 Q304 1442 318 1426 Q332 1410 334 1389 L334 45 Q334 24 318 8 Q302 -8 280 -8 Q258 -8 242 8 Q226 24 227 45 Z" /><glyph glyph-name="imacron" unicode="&#x12b;" d="M524 1272 L-16 1272 Q-36 1272 -51 1286 Q-66 1300 -66 1320 Q-66 1340 -52 1356 Q-38 1370 -16 1370 L524 1370 Q544 1370 558 1356 Q572 1342 573 1322 Q573 1302 559 1286 Q544 1272 524 1272 ZM205 43 L205 1001 Q205 1024 219 1038 Q233 1052 255 1052 Q277 1052 291 1038 Q305 1024 305 1001 L305 43 Q305 20 292 6 Q279 -8 256 -8 Q233 -8 219 6 Q205 20 205 43 Z" /><glyph glyph-name="Ibreve" unicode="&#x12c;" d="M524 1702 Q451 1563 281 1563 Q111 1563 37 1702 Q14 1743 14 1784 Q14 1825 53 1825 Q84 1825 96 1790 Q142 1667 280 1667 Q418 1667 465 1790 Q477 1825 508 1825 Q547 1825 547 1784 Q547 1743 524 1702 ZM227 45 L227 1389 Q226 1409 242 1425 Q258 1442 281 1442 Q304 1442 318 1426 Q332 1410 334 1389 L334 45 Q334 24 318 8 Q302 -8 280 -8 Q258 -8 242 8 Q226 24 227 45 Z" /><glyph glyph-name="ibreve" unicode="&#x12d;" d="M498 1354 Q424 1214 254 1214 Q84 1214 10 1354 Q-12 1395 -12 1436 Q-12 1477 27 1477 Q58 1477 70 1442 Q117 1319 254 1319 Q391 1319 438 1442 Q450 1477 481 1477 Q520 1477 520 1436 Q520 1395 498 1354 ZM205 43 L205 1001 Q205 1024 219 1038 Q233 1052 255 1052 Q277 1052 291 1038 Q305 1024 305 1001 L305 43 Q305 20 292 6 Q279 -8 256 -8 Q233 -8 219 6 Q205 20 205 43 Z" /><glyph glyph-name="Iogonek" unicode="&#x12e;" d="M227 1389 Q226 1409 242 1425 Q258 1442 281 1442 Q304 1442 318 1426 Q332 1410 334 1389 L334 35 Q334 4 293 -30 Q252 -64 232 -93 Q212 -123 211 -162 Q211 -236 319 -256 Q374 -266 375 -297 Q375 -334 326 -334 Q277 -334 221 -314 Q109 -272 109 -177 Q109 -82 227 12 L227 1389 Z" /><glyph glyph-name="iogonek" unicode="&#x12f;" d="M193 1368 L193 1403 Q193 1430 210 1447 Q227 1464 254 1464 Q281 1464 299 1447 Q317 1430 317 1403 L317 1368 Q317 1341 299 1324 Q281 1307 254 1307 Q227 1307 210 1324 Q193 1341 193 1368 ZM305 1001 L305 35 Q305 4 276 -18 Q182 -98 182 -162 Q182 -236 291 -256 Q346 -266 346 -297 Q346 -334 297 -334 Q248 -334 192 -314 Q80 -272 80 -176 Q80 -80 205 16 L205 1001 Q205 1024 219 1038 Q233 1052 255 1052 Q277 1052 291 1038 Q305 1024 305 1001 Z" /><glyph glyph-name="Idotaccent" unicode="&#x130;" d="M354 1669 L354 1630 Q354 1597 334 1578 Q314 1559 281 1559 Q248 1559 227 1578 Q207 1597 207 1630 L207 1669 Q207 1702 227 1721 Q246 1740 280 1740 Q314 1740 334 1722 Q354 1702 354 1669 ZM227 45 L227 1389 Q226 1409 242 1425 Q258 1442 281 1442 Q304 1442 318 1426 Q332 1410 334 1389 L334 45 Q334 24 318 8 Q302 -8 280 -8 Q258 -8 242 8 Q226 24 227 45 Z" /><glyph glyph-name="dotlessi" unicode="&#x131;" d="M205 43 L205 1001 Q205 1024 219 1038 Q233 1052 255 1052 Q277 1052 291 1038 Q305 1024 305 1001 L305 43 Q305 20 292 6 Q279 -8 256 -8 Q233 -8 219 6 Q205 20 205 43 Z" /><glyph glyph-name="Kcommaaccent" unicode="&#x136;" d="M666 -207 Q666 -176 688 -154 Q710 -132 740 -133 Q770 -133 792 -156 Q814 -179 813 -215 L813 -227 Q813 -342 764 -391 Q739 -416 698 -432 Q606 -468 606 -426 Q606 -406 633 -397 Q688 -380 710 -358 Q732 -336 731 -291 Q665 -277 666 -219 L666 -207 ZM213 45 L213 1389 Q213 1409 229 1425 Q266 1462 303 1425 Q319 1409 319 1389 L319 492 L1225 1425 Q1242 1442 1262 1442 Q1282 1442 1298 1426 Q1334 1389 1298 1352 L752 801 L1335 86 Q1371 42 1335 8 Q1319 -8 1295 -8 Q1271 -8 1255 12 L676 725 L319 365 L319 45 Q319 24 303 8 Q286 -8 266 -8 Q246 -8 229 8 Q213 25 213 45 Z" /><glyph glyph-name="kcommaaccent" unicode="&#x137;" d="M532 -229 L532 -217 Q532 -186 554 -164 Q576 -142 606 -143 Q636 -143 658 -166 Q680 -189 680 -225 L680 -238 Q680 -353 631 -401 Q606 -426 565 -442 Q473 -478 473 -436 Q473 -416 500 -408 Q555 -392 577 -369 Q598 -346 598 -301 Q532 -287 532 -229 ZM190 43 L190 1452 Q190 1475 204 1489 Q218 1503 241 1503 Q262 1503 276 1489 Q290 1475 291 1452 L291 375 L932 1038 Q946 1052 966 1052 Q986 1052 1000 1040 Q1032 1007 997 971 L614 582 L1024 76 Q1038 60 1038 39 Q1038 -8 989 -8 Q966 -8 946 14 L545 510 L291 254 L291 43 Q291 20 278 6 Q265 -8 242 -8 Q218 -8 204 6 Q190 20 190 43 Z" /><glyph glyph-name="Lacute" unicode="&#x139;" d="M354 1587 Q326 1561 294 1561 Q262 1561 262 1579 Q262 1589 270 1602 L397 1792 Q422 1829 453 1829 Q484 1829 512 1814 Q540 1800 541 1784 Q541 1768 518 1745 L354 1587 ZM213 53 L213 1389 Q213 1409 229 1425 Q266 1462 303 1425 Q319 1409 319 1389 L319 98 L1120 98 Q1140 98 1154 84 Q1168 70 1169 50 Q1169 30 1155 14 Q1141 0 1120 0 L266 0 Q246 0 229 16 Q213 33 213 53 Z" /><glyph glyph-name="lacute" unicode="&#x13a;" d="M324 1634 Q295 1608 263 1608 Q231 1608 231 1626 Q231 1636 240 1649 L367 1839 Q392 1876 422 1876 Q452 1876 482 1861 Q510 1846 510 1830 Q510 1814 487 1792 L324 1634 ZM205 43 L205 1452 Q205 1475 219 1489 Q234 1503 254 1503 Q274 1503 290 1489 Q306 1475 305 1452 L305 43 Q305 20 292 6 Q279 -8 256 -8 Q233 -8 219 6 Q205 20 205 43 Z" /><glyph glyph-name="Lcommaaccent" unicode="&#x13b;" d="M602 -229 L602 -217 Q602 -186 624 -164 Q646 -142 676 -143 Q706 -143 728 -166 Q750 -189 750 -225 L750 -238 Q750 -353 700 -401 Q674 -426 634 -442 Q541 -479 543 -436 Q543 -416 569 -408 Q624 -392 646 -369 Q668 -346 668 -301 Q602 -287 602 -229 ZM213 53 L213 1389 Q213 1409 229 1425 Q266 1462 303 1425 Q319 1409 319 1389 L319 98 L1120 98 Q1140 98 1154 84 Q1168 70 1169 50 Q1169 30 1155 14 Q1141 0 1120 0 L266 0 Q246 0 229 16 Q213 33 213 53 Z" /><glyph glyph-name="lcommaaccent" unicode="&#x13c;" d="M178 -229 L178 -217 Q178 -186 200 -164 Q222 -142 252 -143 Q282 -143 304 -166 Q326 -189 326 -225 L326 -238 Q326 -353 276 -401 Q250 -426 210 -442 Q117 -479 119 -436 Q119 -416 145 -408 Q200 -392 222 -369 Q244 -346 244 -301 Q178 -287 178 -229 ZM205 43 L205 1452 Q205 1475 219 1489 Q234 1503 254 1503 Q274 1503 290 1489 Q306 1475 305 1452 L305 43 Q305 20 292 6 Q279 -8 256 -8 Q233 -8 219 6 Q205 20 205 43 Z" /><glyph glyph-name="Lcaron" unicode="&#x13d;" d="M629 1440 Q664 1440 664 1405 Q664 1393 651 1356 L584 1157 Q572 1120 549 1120 Q514 1120 520 1159 L545 1386 Q553 1439 602 1440 L629 1440 ZM213 53 L213 1389 Q213 1409 229 1425 Q266 1462 303 1425 Q319 1409 319 1389 L319 98 L1120 98 Q1140 98 1154 84 Q1168 70 1169 50 Q1169 30 1155 14 Q1141 0 1120 0 L266 0 Q246 0 229 16 Q213 33 213 53 Z" /><glyph glyph-name="lcaron" unicode="&#x13e;" d="M535 1501 L561 1501 Q596 1501 596 1466 Q596 1454 584 1417 L516 1219 Q504 1182 481 1182 Q447 1182 453 1221 L477 1448 Q485 1501 535 1501 ZM205 43 L205 1452 Q205 1475 219 1489 Q234 1503 254 1503 Q274 1503 290 1489 Q306 1475 305 1452 L305 43 Q305 20 292 6 Q279 -8 256 -8 Q233 -8 219 6 Q205 20 205 43 Z" /><glyph glyph-name="Ldot" unicode="&#x13f;" d="M1010 762 L1010 723 Q1010 690 990 671 Q970 652 936 652 Q903 652 883 670 Q863 690 862 723 L862 762 Q862 795 882 814 Q902 834 936 834 Q970 834 990 814 Q1010 794 1010 762 ZM213 53 L213 1389 Q213 1409 229 1425 Q266 1462 303 1425 Q319 1409 319 1389 L319 98 L1120 98 Q1140 98 1154 84 Q1168 70 1169 50 Q1169 30 1155 14 Q1141 0 1120 0 L266 0 Q246 0 229 16 Q213 33 213 53 Z" /><glyph glyph-name="ldot" unicode="&#x140;" d="M205 43 L205 1452 Q205 1475 219 1489 Q234 1503 254 1503 Q274 1503 290 1489 Q306 1475 305 1452 L305 43 Q305 20 292 6 Q279 -8 256 -8 Q233 -8 219 6 Q205 20 205 43 ZM647 766 L647 731 Q648 700 626 678 Q604 656 573 657 Q542 657 520 679 Q498 701 500 731 L500 766 Q500 796 522 818 Q544 840 574 840 Q604 840 626 818 Q648 796 647 766 Z" /><glyph glyph-name="Lslash" unicode="&#x141;" d="M379 98 L1182 98 Q1202 98 1216 84 Q1230 70 1231 50 Q1231 30 1217 14 Q1203 0 1182 0 L328 0 Q308 0 291 16 Q275 32 274 53 L274 647 L188 621 Q162 614 150 614 Q138 614 126 628 Q114 642 113 669 Q113 697 147 707 L274 745 L274 1389 Q274 1409 290 1425 Q306 1442 328 1442 Q348 1442 364 1426 Q380 1410 379 1389 L379 776 L772 899 Q797 905 810 905 Q824 905 836 892 Q848 879 848 851 Q848 823 813 813 L379 678 L379 98 Z" /><glyph glyph-name="lslash" unicode="&#x142;" d="M367 43 Q368 20 354 6 Q340 -8 317 -8 Q268 -8 266 43 L266 688 L178 662 Q153 656 140 656 Q127 656 115 668 Q102 682 102 710 Q102 738 144 750 Q186 764 266 788 L266 1452 Q266 1475 280 1489 Q294 1503 315 1503 Q334 1503 350 1489 Q366 1475 367 1452 L367 819 L455 846 Q480 852 492 852 Q504 852 518 839 Q530 826 530 798 Q530 770 496 760 L367 719 L367 43 Z" /><glyph glyph-name="Nacute" unicode="&#x143;" d="M872 1587 Q844 1561 812 1561 Q780 1561 780 1579 Q780 1589 788 1602 L915 1792 Q940 1829 971 1829 Q1002 1829 1030 1814 Q1058 1800 1059 1784 Q1059 1768 1036 1745 L872 1587 ZM213 43 L213 1386 Q213 1409 229 1424 Q245 1439 266 1440 L283 1440 Q312 1440 336 1409 L1303 182 L1303 1391 Q1303 1414 1317 1428 Q1331 1442 1354 1442 Q1377 1442 1391 1428 Q1405 1414 1405 1391 L1405 39 Q1405 22 1393 8 Q1381 -6 1362 -6 L1354 -6 Q1329 -6 1300 29 L315 1278 L315 43 Q315 20 301 6 Q287 -8 264 -8 Q241 -8 227 6 Q213 20 213 43 Z" /><glyph glyph-name="nacute" unicode="&#x144;" d="M700 1239 Q672 1212 640 1212 Q608 1212 608 1231 Q608 1241 616 1253 L743 1444 Q768 1481 799 1481 Q830 1482 858 1466 Q886 1450 887 1435 Q887 1420 864 1397 L700 1239 ZM190 43 L190 1001 Q190 1024 204 1038 Q218 1052 241 1052 Q262 1052 276 1038 Q290 1024 291 1001 L291 850 Q416 1069 668 1069 Q862 1069 974 949 Q1086 829 1085 639 L1085 43 Q1085 20 1072 6 Q1059 -8 1036 -8 Q1013 -8 999 6 Q985 20 985 43 L985 621 Q985 785 897 881 Q809 977 653 977 Q497 978 394 872 Q291 766 291 604 L291 43 Q291 20 278 6 Q265 -8 242 -8 Q218 -8 204 6 Q190 20 190 43 Z" /><glyph glyph-name="Ncommaaccent" unicode="&#x145;" d="M733 -219 L733 -207 Q733 -176 755 -154 Q778 -132 808 -133 Q838 -133 860 -156 Q882 -179 881 -215 L881 -227 Q881 -342 831 -391 Q806 -416 766 -432 Q673 -469 674 -426 Q674 -406 700 -397 Q755 -380 777 -358 Q799 -336 799 -291 Q733 -277 733 -219 ZM213 43 L213 1386 Q213 1409 229 1424 Q245 1439 266 1440 L283 1440 Q312 1440 336 1409 L1303 182 L1303 1391 Q1303 1414 1317 1428 Q1331 1442 1354 1442 Q1377 1442 1391 1428 Q1405 1414 1405 1391 L1405 39 Q1405 22 1393 8 Q1381 -6 1362 -6 L1354 -6 Q1329 -6 1300 29 L315 1278 L315 43 Q315 20 301 6 Q287 -8 264 -8 Q241 -8 227 6 Q213 20 213 43 Z" /><glyph glyph-name="ncommaaccent" unicode="&#x146;" d="M561 -229 L561 -217 Q561 -186 583 -164 Q606 -142 636 -143 Q666 -143 688 -166 Q710 -189 709 -225 L709 -238 Q709 -353 659 -401 Q634 -426 594 -442 Q501 -479 502 -436 Q502 -416 528 -408 Q583 -392 605 -369 Q627 -346 627 -301 Q561 -287 561 -229 ZM190 43 L190 1001 Q190 1024 204 1038 Q218 1052 241 1052 Q262 1052 276 1038 Q290 1024 291 1001 L291 850 Q416 1069 668 1069 Q862 1069 974 949 Q1086 829 1085 639 L1085 43 Q1085 20 1072 6 Q1059 -8 1036 -8 Q1013 -8 999 6 Q985 20 985 43 L985 621 Q985 785 897 881 Q809 977 653 977 Q497 978 394 872 Q291 766 291 604 L291 43 Q291 20 278 6 Q265 -8 242 -8 Q218 -8 204 6 Q190 20 190 43 Z" /><glyph glyph-name="Ncaron" unicode="&#x147;" d="M940 1796 Q969 1823 1001 1823 Q1033 1823 1032 1802 Q1032 1790 1022 1778 L874 1597 Q843 1560 817 1561 L801 1561 Q774 1561 743 1597 L596 1778 Q586 1790 586 1802 Q586 1822 620 1822 Q654 1822 682 1796 L811 1677 L940 1796 ZM213 43 L213 1386 Q213 1409 229 1424 Q245 1439 266 1440 L283 1440 Q312 1440 336 1409 L1303 182 L1303 1391 Q1303 1414 1317 1428 Q1331 1442 1354 1442 Q1377 1442 1391 1428 Q1405 1414 1405 1391 L1405 39 Q1405 22 1393 8 Q1381 -6 1362 -6 L1354 -6 Q1329 -6 1300 29 L315 1278 L315 43 Q315 20 301 6 Q287 -8 264 -8 Q241 -8 227 6 Q213 20 213 43 Z" /><glyph glyph-name="ncaron" unicode="&#x148;" d="M768 1448 Q797 1475 829 1475 Q861 1475 860 1454 Q860 1442 850 1430 L702 1249 Q671 1212 645 1212 L629 1212 Q602 1212 571 1249 L424 1430 Q414 1442 414 1454 Q414 1474 448 1474 Q482 1474 510 1448 L639 1329 L768 1448 ZM190 43 L190 1001 Q190 1024 204 1038 Q218 1052 241 1052 Q262 1052 276 1038 Q290 1024 291 1001 L291 850 Q416 1069 668 1069 Q862 1069 974 949 Q1086 829 1085 639 L1085 43 Q1085 20 1072 6 Q1059 -8 1036 -8 Q1013 -8 999 6 Q985 20 985 43 L985 621 Q985 785 897 881 Q809 977 653 977 Q497 978 394 872 Q291 766 291 604 L291 43 Q291 20 278 6 Q265 -8 242 -8 Q218 -8 204 6 Q190 20 190 43 Z" /><glyph glyph-name="Omacron" unicode="&#x14c;" d="M1141 1640 L600 1640 Q580 1640 566 1654 Q552 1668 551 1690 Q551 1710 565 1724 Q579 1738 600 1739 L1141 1739 Q1162 1738 1176 1724 Q1190 1710 1190 1690 Q1190 1670 1176 1655 Q1162 1640 1141 1640 ZM435 260 Q610 72 872 72 Q1134 72 1308 258 Q1481 444 1481 713 L1481 717 Q1481 986 1306 1174 Q1130 1362 868 1362 Q606 1362 433 1176 Q260 990 260 721 L260 717 Q260 448 435 260 ZM868 -25 Q551 -26 350 192 Q149 410 150 713 L150 717 Q150 1020 352 1239 Q555 1458 872 1458 Q1188 1458 1390 1241 Q1592 1024 1591 721 L1591 717 Q1591 414 1388 194 Q1185 -26 868 -25 Z" /><glyph glyph-name="omacron" unicode="&#x14d;" d="M926 1272 L385 1272 Q365 1272 350 1286 Q336 1300 336 1320 Q336 1340 350 1356 Q364 1370 385 1370 L926 1370 Q946 1370 960 1356 Q974 1342 975 1322 Q975 1302 961 1286 Q946 1272 926 1272 ZM352 202 Q477 70 659 70 Q841 70 963 201 Q1084 332 1083 518 L1083 522 Q1083 710 958 842 Q833 974 651 975 Q469 975 348 844 Q227 713 227 526 L227 522 Q227 334 352 202 ZM1037 137 Q882 -25 653 -25 Q424 -25 271 135 Q118 295 119 518 L119 522 Q119 745 273 907 Q428 1069 657 1069 Q886 1069 1039 909 Q1192 749 1192 526 L1192 522 Q1192 299 1037 137 Z" /><glyph glyph-name="Obreve" unicode="&#x14e;" d="M1114 1722 Q1040 1583 870 1583 Q700 1583 627 1722 Q604 1763 604 1804 Q604 1845 643 1845 Q674 1845 686 1810 Q733 1688 870 1688 Q1007 1688 1055 1810 Q1067 1845 1098 1845 Q1137 1845 1137 1804 Q1137 1763 1114 1722 ZM435 260 Q610 72 872 72 Q1134 72 1308 258 Q1481 444 1481 713 L1481 717 Q1481 986 1306 1174 Q1130 1362 868 1362 Q606 1362 433 1176 Q260 990 260 721 L260 717 Q260 448 435 260 ZM868 -25 Q551 -26 350 192 Q149 410 150 713 L150 717 Q150 1020 352 1239 Q555 1458 872 1458 Q1188 1458 1390 1241 Q1592 1024 1591 721 L1591 717 Q1591 414 1388 194 Q1185 -26 868 -25 Z" /><glyph glyph-name="obreve" unicode="&#x14f;" d="M899 1354 Q825 1214 655 1214 Q485 1214 412 1354 Q389 1395 389 1436 Q389 1477 428 1477 Q459 1477 471 1442 Q518 1319 655 1319 Q792 1319 840 1442 Q852 1477 883 1477 Q922 1477 922 1436 Q922 1395 899 1354 ZM352 202 Q477 70 659 70 Q841 70 963 201 Q1084 332 1083 518 L1083 522 Q1083 710 958 842 Q833 974 651 975 Q469 975 348 844 Q227 713 227 526 L227 522 Q227 334 352 202 ZM1037 137 Q882 -25 653 -25 Q424 -25 271 135 Q118 295 119 518 L119 522 Q119 745 273 907 Q428 1069 657 1069 Q886 1069 1039 909 Q1192 749 1192 526 L1192 522 Q1192 299 1037 137 Z" /><glyph glyph-name="Ohungarumlaut" unicode="&#x150;" d="M752 1608 Q723 1581 691 1581 Q659 1581 659 1599 Q659 1609 668 1622 L797 1815 Q835 1873 905 1835 Q932 1822 932 1806 Q932 1790 911 1769 L752 1608 ZM1063 1608 Q1034 1581 1002 1581 Q970 1581 971 1599 Q971 1609 979 1622 L1108 1815 Q1146 1872 1217 1835 Q1244 1822 1244 1806 Q1244 1790 1223 1769 L1063 1608 ZM435 260 Q610 72 872 72 Q1134 72 1308 258 Q1481 444 1481 713 L1481 717 Q1481 986 1306 1174 Q1130 1362 868 1362 Q606 1362 433 1176 Q260 990 260 721 L260 717 Q260 448 435 260 ZM868 -25 Q551 -26 350 192 Q149 410 150 713 L150 717 Q150 1020 352 1239 Q555 1458 872 1458 Q1188 1458 1390 1241 Q1592 1024 1591 721 L1591 717 Q1591 414 1388 194 Q1185 -26 868 -25 Z" /><glyph glyph-name="ohungarumlaut" unicode="&#x151;" d="M537 1239 Q508 1212 476 1212 Q444 1212 444 1231 Q444 1241 453 1253 L582 1446 Q604 1481 634 1481 Q664 1480 690 1466 Q716 1452 717 1437 Q717 1422 696 1401 L537 1239 ZM848 1239 Q819 1212 787 1212 Q755 1212 756 1231 Q756 1241 764 1253 L893 1446 Q916 1481 946 1481 Q976 1480 1002 1466 Q1028 1452 1028 1437 Q1028 1422 1008 1401 L848 1239 ZM352 202 Q477 70 659 70 Q841 70 963 201 Q1084 332 1083 518 L1083 522 Q1083 710 958 842 Q833 974 651 975 Q469 975 348 844 Q227 713 227 526 L227 522 Q227 334 352 202 ZM1037 137 Q882 -25 653 -25 Q424 -25 271 135 Q118 295 119 518 L119 522 Q119 745 273 907 Q428 1069 657 1069 Q886 1069 1039 909 Q1192 749 1192 526 L1192 522 Q1192 299 1037 137 Z" /><glyph glyph-name="OE" unicode="&#x152;" d="M911 98 L1231 98 L1231 1335 L911 1335 Q618 1335 439 1159 Q260 983 260 721 L260 717 Q260 454 439 276 Q618 98 911 98 ZM911 0 Q575 0 362 203 Q149 406 150 713 L150 717 Q150 1024 364 1229 Q578 1434 911 1434 L2179 1434 Q2200 1434 2214 1420 Q2228 1406 2228 1384 Q2228 1364 2214 1350 Q2200 1336 2179 1335 L1337 1335 L1337 772 L2087 772 Q2108 772 2122 758 Q2136 744 2136 724 Q2136 704 2122 688 Q2108 674 2087 674 L1337 674 L1337 98 L2189 98 Q2210 98 2224 84 Q2238 70 2238 50 Q2238 30 2224 14 Q2210 0 2189 0 L911 0 Z" /><glyph glyph-name="oe" unicode="&#x153;" d="M1599 -25 Q1446 -25 1320 62 Q1194 149 1135 297 Q1074 154 944 65 Q814 -24 651 -25 Q426 -25 272 135 Q118 295 119 518 L119 522 Q119 745 273 907 Q428 1069 655 1069 Q817 1069 945 981 Q1073 893 1135 750 Q1192 895 1311 982 Q1430 1069 1581 1069 Q1794 1069 1926 913 Q2058 757 2058 528 Q2058 510 2043 496 Q2028 482 2009 481 L1190 481 Q1204 293 1322 181 Q1440 69 1599 70 Q1789 70 1937 213 Q1950 227 1970 227 Q1990 227 2004 214 Q2018 201 2019 181 Q2019 161 2003 145 Q1833 -25 1599 -25 ZM352 202 Q477 70 659 70 Q841 70 963 201 Q1084 332 1083 518 L1083 522 Q1083 710 958 842 Q833 974 651 975 Q469 975 348 844 Q227 713 227 526 L227 522 Q227 334 352 202 ZM1842 860 Q1746 977 1583 977 Q1420 977 1312 861 Q1204 745 1190 571 L1950 571 Q1938 743 1842 860 Z" /><glyph glyph-name="Racute" unicode="&#x154;" d="M782 1587 Q754 1561 722 1561 Q690 1561 690 1579 Q690 1589 698 1602 L825 1792 Q850 1829 881 1829 Q912 1829 940 1814 Q968 1800 969 1784 Q969 1768 946 1745 L782 1587 ZM319 690 L803 690 Q987 690 1104 778 Q1221 866 1221 1018 L1221 1022 Q1221 1167 1112 1251 Q1003 1335 809 1335 L319 1335 L319 690 ZM213 45 L213 1380 Q213 1400 229 1416 Q245 1432 266 1434 L815 1434 Q1077 1434 1219 1292 Q1328 1183 1327 1026 L1327 1022 Q1327 848 1212 744 Q1097 640 907 612 L1315 84 Q1331 64 1331 44 Q1331 24 1315 8 Q1299 -8 1274 -8 Q1249 -8 1229 20 L788 594 L319 594 L319 45 Q319 24 303 8 Q286 -8 266 -8 Q246 -8 229 8 Q213 25 213 45 Z" /><glyph glyph-name="racute" unicode="&#x155;" d="M496 1239 Q467 1212 435 1212 Q403 1212 403 1231 Q403 1241 412 1253 L539 1444 Q564 1481 594 1481 Q624 1482 654 1466 Q682 1450 682 1435 Q682 1420 659 1397 L496 1239 ZM190 43 L190 1001 Q190 1024 204 1038 Q218 1052 241 1052 Q262 1052 276 1038 Q290 1024 291 1001 L291 748 Q357 893 475 977 Q594 1061 711 1061 Q734 1060 749 1044 Q764 1028 764 1006 Q764 955 711 950 Q531 934 411 800 Q291 666 291 428 L291 43 Q290 20 276 6 Q262 -8 240 -8 Q218 -8 204 6 Q190 20 190 43 Z" /><glyph glyph-name="Rcommaaccent" unicode="&#x156;" d="M643 -219 L643 -207 Q643 -176 665 -154 Q688 -132 718 -133 Q748 -133 770 -156 Q792 -179 791 -215 L791 -227 Q791 -342 741 -391 Q716 -416 676 -432 Q583 -469 584 -426 Q584 -406 610 -397 Q665 -380 687 -358 Q709 -336 709 -291 Q643 -277 643 -219 ZM319 690 L803 690 Q987 690 1104 778 Q1221 866 1221 1018 L1221 1022 Q1221 1167 1112 1251 Q1003 1335 809 1335 L319 1335 L319 690 ZM213 45 L213 1380 Q213 1400 229 1416 Q245 1432 266 1434 L815 1434 Q1077 1434 1219 1292 Q1328 1183 1327 1026 L1327 1022 Q1327 848 1212 744 Q1097 640 907 612 L1315 84 Q1331 64 1331 44 Q1331 24 1315 8 Q1299 -8 1274 -8 Q1249 -8 1229 20 L788 594 L319 594 L319 45 Q319 24 303 8 Q286 -8 266 -8 Q246 -8 229 8 Q213 25 213 45 Z" /><glyph glyph-name="rcommaaccent" unicode="&#x157;" d="M182 -229 L182 -217 Q182 -186 204 -164 Q226 -142 256 -143 Q286 -143 308 -166 Q330 -189 330 -225 L330 -238 Q330 -353 281 -401 Q256 -426 215 -442 Q123 -478 123 -436 Q123 -416 150 -408 Q204 -392 226 -369 Q248 -346 248 -301 Q182 -287 182 -229 ZM190 43 L190 1001 Q190 1024 204 1038 Q218 1052 241 1052 Q262 1052 276 1038 Q290 1024 291 1001 L291 748 Q357 893 475 977 Q594 1061 711 1061 Q734 1060 749 1044 Q764 1028 764 1006 Q764 955 711 950 Q531 934 411 800 Q291 666 291 428 L291 43 Q290 20 276 6 Q262 -8 240 -8 Q218 -8 204 6 Q190 20 190 43 Z" /><glyph glyph-name="Rcaron" unicode="&#x158;" d="M850 1796 Q878 1823 910 1823 Q942 1823 942 1802 Q942 1790 932 1778 L784 1597 Q753 1560 727 1561 L711 1561 Q684 1561 653 1597 L506 1778 Q496 1790 496 1802 Q496 1822 530 1822 Q564 1822 592 1796 L721 1677 L850 1796 ZM319 690 L803 690 Q987 690 1104 778 Q1221 866 1221 1018 L1221 1022 Q1221 1167 1112 1251 Q1003 1335 809 1335 L319 1335 L319 690 ZM213 45 L213 1380 Q213 1400 229 1416 Q245 1432 266 1434 L815 1434 Q1077 1434 1219 1292 Q1328 1183 1327 1026 L1327 1022 Q1327 848 1212 744 Q1097 640 907 612 L1315 84 Q1331 64 1331 44 Q1331 24 1315 8 Q1299 -8 1274 -8 Q1249 -8 1229 20 L788 594 L319 594 L319 45 Q319 24 303 8 Q286 -8 266 -8 Q246 -8 229 8 Q213 25 213 45 Z" /><glyph glyph-name="rcaron" unicode="&#x159;" d="M563 1448 Q592 1475 624 1475 Q656 1475 655 1454 Q655 1442 645 1430 L498 1249 Q467 1212 440 1212 L424 1212 Q397 1212 367 1249 L219 1430 Q209 1442 209 1454 Q209 1474 243 1474 Q277 1474 305 1448 L434 1329 L563 1448 ZM190 43 L190 1001 Q190 1024 204 1038 Q218 1052 241 1052 Q262 1052 276 1038 Q290 1024 291 1001 L291 748 Q357 893 475 977 Q594 1061 711 1061 Q734 1060 749 1044 Q764 1028 764 1006 Q764 955 711 950 Q531 934 411 800 Q291 666 291 428 L291 43 Q290 20 276 6 Q262 -8 240 -8 Q218 -8 204 6 Q190 20 190 43 Z" /><glyph glyph-name="Sacute" unicode="&#x15a;" d="M735 1608 Q707 1581 675 1581 Q643 1581 643 1599 Q643 1609 651 1622 L778 1812 Q803 1849 834 1849 Q866 1849 894 1834 Q922 1820 922 1804 Q922 1788 899 1765 L735 1608 ZM698 -20 Q397 -20 154 180 Q134 196 134 218 Q134 240 148 258 Q164 274 184 274 Q204 274 221 262 Q428 76 705 76 Q865 76 966 157 Q1067 238 1067 360 L1067 365 Q1067 484 982 554 Q896 624 650 672 Q404 721 291 815 Q178 909 178 1073 L178 1077 Q178 1237 309 1346 Q440 1455 639 1454 Q899 1454 1096 1307 Q1118 1289 1118 1265 Q1118 1241 1102 1226 Q1086 1210 1066 1210 Q1046 1210 1030 1223 Q854 1358 635 1358 Q479 1358 382 1280 Q285 1202 285 1087 L285 1083 Q285 962 372 890 Q458 818 704 769 Q950 719 1062 626 Q1174 533 1174 375 L1174 371 Q1174 200 1040 90 Q906 -20 698 -20 Z" /><glyph glyph-name="sacute" unicode="&#x15b;" d="M580 1239 Q551 1212 519 1212 Q487 1212 487 1231 Q487 1241 496 1253 L623 1444 Q648 1481 678 1481 Q708 1482 738 1466 Q766 1450 766 1435 Q766 1420 743 1397 L580 1239 ZM528 -20 Q424 -20 314 16 Q204 52 123 115 Q104 130 104 152 Q104 174 118 188 Q132 202 152 202 Q172 202 186 193 Q352 74 535 74 Q644 74 716 129 Q788 184 786 272 L786 276 Q786 360 716 403 Q646 446 542 476 Q292 547 226 605 Q198 631 175 675 Q151 719 152 772 L152 776 Q152 903 248 984 Q344 1065 506 1065 Q668 1065 834 971 Q860 954 860 930 Q860 906 846 892 Q832 878 814 877 Q796 877 782 885 Q638 971 512 971 Q386 971 320 920 Q254 869 254 788 L254 784 Q254 720 313 675 Q372 630 498 595 Q623 559 672 541 Q721 522 777 488 Q889 419 889 289 L889 285 Q890 148 786 64 Q682 -20 528 -20 Z" /><glyph glyph-name="Scedilla" unicode="&#x15e;" d="M1174 371 Q1174 204 1050 98 Q926 -8 729 -18 L616 -250 Q596 -291 567 -291 Q538 -290 516 -274 Q494 -258 494 -244 Q494 -230 504 -211 L635 -18 Q373 -2 154 180 Q134 196 134 218 Q134 240 148 258 Q164 274 184 274 Q204 274 221 262 Q428 76 705 76 Q865 76 966 157 Q1067 238 1067 360 L1067 365 Q1067 484 982 554 Q896 624 650 672 Q404 721 291 815 Q178 909 178 1073 L178 1077 Q178 1237 309 1346 Q440 1455 639 1454 Q899 1454 1096 1307 Q1118 1289 1118 1265 Q1118 1241 1102 1226 Q1086 1210 1066 1210 Q1046 1210 1030 1223 Q854 1358 635 1358 Q479 1358 382 1280 Q285 1202 285 1087 L285 1083 Q285 962 372 890 Q458 818 704 769 Q950 719 1062 626 Q1174 533 1174 375 L1174 371 Z" /><glyph glyph-name="scedilla" unicode="&#x15f;" d="M889 285 Q889 152 792 69 Q695 -14 547 -20 L434 -250 Q414 -291 385 -291 Q356 -290 334 -274 Q312 -258 311 -244 Q311 -230 322 -211 L455 -14 Q260 9 123 115 Q104 130 104 152 Q104 174 118 188 Q132 202 152 202 Q172 202 186 193 Q352 74 535 74 Q644 74 716 129 Q788 184 786 272 L786 276 Q786 360 716 403 Q646 446 542 476 Q292 547 226 605 Q198 631 175 675 Q151 719 152 772 L152 776 Q152 903 248 984 Q344 1065 506 1065 Q668 1065 834 971 Q860 954 860 930 Q860 906 846 892 Q832 878 814 877 Q796 877 782 885 Q638 971 512 971 Q386 971 320 920 Q254 869 254 788 L254 784 Q254 720 313 675 Q372 630 498 595 Q623 559 672 541 Q721 522 777 488 Q889 419 889 289 L889 285 Z" /><glyph glyph-name="Scaron" unicode="&#x160;" d="M895 1823 Q895 1811 885 1798 L737 1618 Q706 1581 680 1581 L664 1581 Q637 1581 606 1618 L459 1798 Q449 1810 449 1823 Q448 1843 482 1843 Q516 1843 545 1817 L674 1698 L803 1817 Q832 1844 864 1844 Q896 1844 895 1823 ZM698 -20 Q397 -20 154 180 Q134 196 134 218 Q134 240 148 258 Q164 274 184 274 Q204 274 221 262 Q428 76 705 76 Q865 76 966 157 Q1067 238 1067 360 L1067 365 Q1067 484 982 554 Q896 624 650 672 Q404 721 291 815 Q178 909 178 1073 L178 1077 Q178 1237 309 1346 Q440 1455 639 1454 Q899 1454 1096 1307 Q1118 1289 1118 1265 Q1118 1241 1102 1226 Q1086 1210 1066 1210 Q1046 1210 1030 1223 Q854 1358 635 1358 Q479 1358 382 1280 Q285 1202 285 1087 L285 1083 Q285 962 372 890 Q458 818 704 769 Q950 719 1062 626 Q1174 533 1174 375 L1174 371 Q1174 200 1040 90 Q906 -20 698 -20 Z" /><glyph glyph-name="scaron" unicode="&#x161;" d="M647 1448 Q676 1475 708 1475 Q740 1475 739 1454 Q739 1442 729 1430 L582 1249 Q551 1212 524 1212 L508 1212 Q481 1212 451 1249 L303 1430 Q293 1442 293 1454 Q293 1474 327 1474 Q361 1474 389 1448 L518 1329 L647 1448 ZM528 -20 Q424 -20 314 16 Q204 52 123 115 Q104 130 104 152 Q104 174 118 188 Q132 202 152 202 Q172 202 186 193 Q352 74 535 74 Q644 74 716 129 Q788 184 786 272 L786 276 Q786 360 716 403 Q646 446 542 476 Q292 547 226 605 Q198 631 175 675 Q151 719 152 772 L152 776 Q152 903 248 984 Q344 1065 506 1065 Q668 1065 834 971 Q860 954 860 930 Q860 906 846 892 Q832 878 814 877 Q796 877 782 885 Q638 971 512 971 Q386 971 320 920 Q254 869 254 788 L254 784 Q254 720 313 675 Q372 630 498 595 Q623 559 672 541 Q721 522 777 488 Q889 419 889 289 L889 285 Q890 148 786 64 Q682 -20 528 -20 Z" /><glyph glyph-name="Tcommaaccent" unicode="&#x162;" d="M588 -217 Q588 -186 610 -164 Q632 -142 662 -143 Q692 -143 714 -166 Q736 -189 735 -225 L735 -238 Q735 -353 686 -401 Q660 -426 620 -442 Q528 -479 528 -436 Q528 -416 555 -408 Q610 -392 632 -369 Q653 -346 653 -301 Q587 -287 588 -229 L588 -217 ZM610 45 L610 1335 L152 1335 Q132 1336 118 1350 Q104 1364 102 1384 Q102 1404 116 1418 Q130 1432 152 1434 L1176 1434 Q1196 1434 1210 1420 Q1224 1406 1224 1384 Q1224 1364 1210 1350 Q1196 1336 1176 1335 L717 1335 L717 45 Q716 24 700 8 Q684 -8 664 -8 Q644 -8 627 8 Q610 24 610 45 Z" /><glyph glyph-name="tcommaaccent" unicode="&#x163;" d="M387 -229 L387 -217 Q387 -186 409 -164 Q432 -142 462 -143 Q492 -143 514 -166 Q536 -189 535 -225 L535 -238 Q535 -353 485 -401 Q460 -426 420 -442 Q327 -479 328 -436 Q328 -416 354 -408 Q409 -392 431 -369 Q453 -346 453 -301 Q387 -287 387 -229 ZM539 -18 Q410 -18 328 54 Q246 126 246 268 L246 952 L133 952 Q114 952 100 966 Q86 980 86 999 Q86 1016 100 1030 Q114 1044 133 1044 L246 1044 L246 1335 Q246 1358 260 1372 Q274 1386 294 1386 Q314 1386 330 1371 Q346 1356 346 1335 L346 1044 L674 1044 Q692 1044 706 1030 Q720 1016 721 998 Q721 980 707 966 Q693 953 674 952 L346 952 L346 279 Q346 76 555 76 Q598 76 635 86 L674 96 Q690 96 704 83 Q718 70 719 45 Q719 20 686 8 Q611 -18 539 -18 Z" /><glyph glyph-name="Tcaron" unicode="&#x164;" d="M795 1796 Q824 1823 856 1823 Q888 1823 887 1802 Q887 1790 877 1778 L729 1597 Q698 1560 672 1561 L655 1561 Q628 1561 598 1597 L451 1778 Q440 1790 440 1806 Q440 1822 474 1822 Q508 1822 537 1796 L666 1677 L795 1796 ZM610 45 L610 1335 L152 1335 Q132 1336 118 1350 Q104 1364 102 1384 Q102 1404 116 1418 Q130 1432 152 1434 L1176 1434 Q1196 1434 1210 1420 Q1224 1406 1224 1384 Q1224 1364 1210 1350 Q1196 1336 1176 1335 L717 1335 L717 45 Q716 24 700 8 Q684 -8 664 -8 Q644 -8 627 8 Q610 24 610 45 Z" /><glyph glyph-name="tcaron" unicode="&#x165;" d="M676 1499 L702 1499 Q737 1499 737 1464 Q737 1452 725 1415 L657 1217 Q645 1180 623 1180 Q588 1180 594 1219 L618 1446 Q626 1499 676 1499 ZM539 -18 Q410 -18 328 54 Q246 126 246 268 L246 952 L133 952 Q114 952 100 966 Q86 980 86 999 Q86 1016 100 1030 Q114 1044 133 1044 L246 1044 L246 1335 Q246 1358 260 1372 Q274 1386 294 1386 Q314 1386 330 1371 Q346 1356 346 1335 L346 1044 L674 1044 Q692 1044 706 1030 Q720 1016 721 998 Q721 980 707 966 Q693 953 674 952 L346 952 L346 279 Q346 76 555 76 Q598 76 635 86 L674 96 Q690 96 704 83 Q718 70 719 45 Q719 20 686 8 Q611 -18 539 -18 Z" /><glyph glyph-name="Umacron" unicode="&#x16a;" d="M1049 1620 L508 1620 Q488 1620 473 1634 Q459 1648 459 1668 Q459 1688 473 1704 Q487 1718 508 1718 L1049 1718 Q1069 1718 1083 1704 Q1098 1690 1098 1670 Q1098 1650 1084 1634 Q1070 1620 1049 1620 ZM1206 142 Q1046 -23 780 -23 Q514 -23 352 139 Q190 301 190 596 L190 1389 Q190 1409 206 1425 Q222 1442 244 1442 Q267 1442 282 1426 Q297 1410 297 1389 L297 606 Q297 354 426 214 Q555 74 780 74 Q1005 74 1133 208 Q1260 342 1260 596 L1260 1389 Q1260 1409 1275 1425 Q1290 1442 1313 1442 Q1336 1442 1351 1426 Q1366 1410 1366 1389 L1366 608 Q1366 307 1206 142 Z" /><glyph glyph-name="umacron" unicode="&#x16b;" d="M887 1272 L346 1272 Q326 1272 311 1286 Q297 1300 297 1320 Q297 1340 311 1356 Q325 1370 346 1370 L887 1370 Q908 1370 922 1356 Q936 1342 936 1322 Q936 1302 922 1286 Q907 1272 887 1272 ZM965 1001 Q965 1051 1014 1053 Q1037 1052 1051 1038 Q1065 1024 1065 1001 L1065 43 Q1065 20 1051 6 Q1037 -8 1015 -8 Q993 -8 979 6 Q965 20 965 43 L965 195 Q840 -24 588 -25 Q394 -25 282 95 Q170 215 170 406 L170 1001 Q170 1051 219 1053 Q242 1052 256 1038 Q270 1024 270 1001 L270 424 Q270 260 358 164 Q446 68 602 68 Q758 68 861 173 Q964 278 965 440 L965 1001 Z" /><glyph glyph-name="Ubreve" unicode="&#x16c;" d="M1022 1702 Q948 1563 778 1563 Q608 1563 535 1702 Q512 1743 512 1784 Q512 1825 551 1825 Q582 1825 594 1790 Q641 1667 778 1667 Q915 1667 963 1790 Q975 1825 1006 1825 Q1044 1825 1044 1784 Q1044 1743 1022 1702 ZM1206 142 Q1046 -23 780 -23 Q514 -23 352 139 Q190 301 190 596 L190 1389 Q190 1409 206 1425 Q222 1442 244 1442 Q267 1442 282 1426 Q297 1410 297 1389 L297 606 Q297 354 426 214 Q555 74 780 74 Q1005 74 1133 208 Q1260 342 1260 596 L1260 1389 Q1260 1409 1275 1425 Q1290 1442 1313 1442 Q1336 1442 1351 1426 Q1366 1410 1366 1389 L1366 608 Q1366 307 1206 142 Z" /><glyph glyph-name="ubreve" unicode="&#x16d;" d="M860 1354 Q786 1214 616 1214 Q446 1214 373 1354 Q350 1395 350 1436 Q350 1477 389 1477 Q420 1477 432 1442 Q479 1319 616 1319 Q753 1319 801 1442 Q813 1477 844 1477 Q883 1477 883 1436 Q883 1395 860 1354 ZM965 1001 Q965 1051 1014 1053 Q1037 1052 1051 1038 Q1065 1024 1065 1001 L1065 43 Q1065 20 1051 6 Q1037 -8 1015 -8 Q993 -8 979 6 Q965 20 965 43 L965 195 Q840 -24 588 -25 Q394 -25 282 95 Q170 215 170 406 L170 1001 Q170 1051 219 1053 Q242 1052 256 1038 Q270 1024 270 1001 L270 424 Q270 260 358 164 Q446 68 602 68 Q758 68 861 173 Q964 278 965 440 L965 1001 Z" /><glyph glyph-name="Uring" unicode="&#x16e;" d="M689 1645 Q727 1608 778 1608 Q829 1608 867 1645 Q905 1682 905 1733 L905 1737 Q905 1788 867 1825 Q829 1862 778 1862 Q727 1862 689 1825 Q651 1788 651 1737 L651 1733 Q651 1682 689 1645 ZM919 1598 Q858 1542 778 1542 Q698 1542 638 1598 Q578 1654 578 1733 L578 1737 Q578 1815 638 1871 Q698 1927 778 1927 Q858 1927 918 1871 Q978 1815 979 1737 L979 1733 Q979 1655 919 1598 ZM1206 142 Q1046 -23 780 -23 Q514 -23 352 139 Q190 301 190 596 L190 1389 Q190 1409 206 1425 Q222 1442 244 1442 Q267 1442 282 1426 Q297 1410 297 1389 L297 606 Q297 354 426 214 Q555 74 780 74 Q1005 74 1133 208 Q1260 342 1260 596 L1260 1389 Q1260 1409 1275 1425 Q1290 1442 1313 1442 Q1336 1442 1351 1426 Q1366 1410 1366 1389 L1366 608 Q1366 307 1206 142 Z" /><glyph glyph-name="uring" unicode="&#x16f;" d="M527 1307 Q565 1270 616 1270 Q667 1270 706 1307 Q744 1344 743 1395 L743 1399 Q743 1450 706 1487 Q668 1524 616 1524 Q564 1524 527 1487 Q489 1450 489 1399 L489 1395 Q489 1344 527 1307 ZM756 1260 Q696 1204 616 1204 Q536 1204 476 1260 Q416 1316 416 1395 L416 1399 Q416 1477 476 1533 Q536 1589 616 1589 Q696 1589 756 1533 Q816 1477 817 1399 L817 1395 Q816 1316 756 1260 ZM965 1001 Q965 1051 1014 1053 Q1037 1052 1051 1038 Q1065 1024 1065 1001 L1065 43 Q1065 20 1051 6 Q1037 -8 1015 -8 Q993 -8 979 6 Q965 20 965 43 L965 195 Q840 -24 588 -25 Q394 -25 282 95 Q170 215 170 406 L170 1001 Q170 1051 219 1053 Q242 1052 256 1038 Q270 1024 270 1001 L270 424 Q270 260 358 164 Q446 68 602 68 Q758 68 861 173 Q964 278 965 440 L965 1001 Z" /><glyph glyph-name="Uhungarumlaut" unicode="&#x170;" d="M659 1587 Q631 1561 599 1561 Q567 1561 567 1579 Q567 1589 575 1602 L705 1794 Q728 1829 758 1829 Q788 1829 814 1815 Q840 1802 840 1786 Q840 1770 819 1749 L659 1587 ZM971 1587 Q942 1561 910 1561 Q878 1561 879 1579 Q879 1589 887 1602 L1016 1794 Q1038 1829 1068 1829 Q1098 1829 1124 1815 Q1150 1802 1151 1786 Q1151 1770 1130 1749 L971 1587 ZM1206 142 Q1046 -23 780 -23 Q514 -23 352 139 Q190 301 190 596 L190 1389 Q190 1409 206 1425 Q222 1442 244 1442 Q267 1442 282 1426 Q297 1410 297 1389 L297 606 Q297 354 426 214 Q555 74 780 74 Q1005 74 1133 208 Q1260 342 1260 596 L1260 1389 Q1260 1409 1275 1425 Q1290 1442 1313 1442 Q1336 1442 1351 1426 Q1366 1410 1366 1389 L1366 608 Q1366 307 1206 142 Z" /><glyph glyph-name="uhungarumlaut" unicode="&#x171;" d="M498 1239 Q469 1212 437 1212 Q405 1212 406 1231 Q406 1241 414 1253 L543 1446 Q566 1481 596 1481 Q626 1480 652 1466 Q678 1452 678 1437 Q678 1422 657 1401 L498 1239 ZM809 1239 Q780 1212 748 1212 Q716 1212 717 1231 Q717 1241 725 1253 L854 1446 Q876 1481 906 1481 Q936 1480 963 1466 Q990 1452 990 1437 Q990 1422 969 1401 L809 1239 ZM965 1001 Q965 1051 1014 1053 Q1037 1052 1051 1038 Q1065 1024 1065 1001 L1065 43 Q1065 20 1051 6 Q1037 -8 1015 -8 Q993 -8 979 6 Q965 20 965 43 L965 195 Q840 -24 588 -25 Q394 -25 282 95 Q170 215 170 406 L170 1001 Q170 1051 219 1053 Q242 1052 256 1038 Q270 1024 270 1001 L270 424 Q270 260 358 164 Q446 68 602 68 Q758 68 861 173 Q964 278 965 440 L965 1001 Z" /><glyph glyph-name="Uogonek" unicode="&#x172;" d="M637 -174 Q637 -96 719 -18 Q477 -2 334 158 Q191 318 190 596 L190 1389 Q190 1409 206 1425 Q222 1442 244 1442 Q267 1442 282 1426 Q297 1410 297 1389 L297 606 Q297 354 426 214 Q555 74 780 74 Q1005 74 1133 208 Q1260 342 1260 596 L1260 1389 Q1260 1409 1275 1425 Q1290 1442 1313 1442 Q1336 1442 1351 1426 Q1366 1410 1366 1389 L1366 608 Q1366 320 1221 158 Q1076 -4 829 -20 Q739 -98 739 -162 Q739 -236 848 -256 Q903 -266 903 -297 Q903 -334 854 -334 Q805 -334 749 -314 Q637 -272 637 -174 Z" /><glyph glyph-name="uogonek" unicode="&#x173;" d="M965 1001 Q965 1051 1014 1053 Q1037 1052 1051 1038 Q1065 1024 1065 1001 L1065 35 Q1065 4 1036 -18 Q942 -98 942 -162 Q942 -236 1051 -256 Q1106 -266 1106 -297 Q1106 -334 1057 -334 Q1008 -334 952 -314 Q838 -272 839 -176 Q840 -80 965 16 L965 195 Q840 -24 588 -25 Q394 -25 282 95 Q170 215 170 406 L170 1001 Q170 1051 219 1053 Q242 1052 256 1038 Q270 1024 270 1001 L270 424 Q270 260 358 164 Q446 68 602 68 Q758 68 861 173 Q964 278 965 440 L965 1001 Z" /><glyph glyph-name="Wcircumflex" unicode="&#x174;" d="M905 1581 Q905 1593 915 1606 L1063 1786 Q1094 1823 1120 1823 L1137 1823 Q1164 1823 1194 1786 L1341 1606 Q1352 1594 1352 1578 Q1352 1562 1318 1561 Q1284 1561 1255 1587 L1126 1706 L997 1587 Q968 1560 936 1560 Q904 1560 905 1581 ZM129 1360 Q123 1376 123 1392 Q123 1408 139 1425 Q155 1442 187 1442 Q219 1442 236 1393 L672 158 L1079 1401 Q1093 1442 1130 1442 L1135 1442 Q1172 1442 1186 1401 L1593 158 L2032 1399 Q2048 1442 2076 1442 Q2104 1442 2120 1426 Q2136 1410 2136 1395 Q2136 1381 2128 1360 L1649 31 Q1631 -16 1593 -16 L1589 -16 Q1548 -16 1534 31 L1128 1235 L723 31 Q709 -16 668 -16 L664 -16 Q624 -16 608 31 L129 1360 Z" /><glyph glyph-name="wcircumflex" unicode="&#x175;" d="M750 1239 Q721 1212 689 1212 Q657 1212 657 1233 Q657 1245 668 1257 L815 1438 Q846 1475 872 1475 L889 1475 Q916 1475 946 1438 L1094 1257 Q1104 1245 1104 1233 Q1104 1212 1070 1212 Q1036 1212 1008 1239 L879 1358 L750 1239 ZM524 -14 Q485 -14 469 31 L127 971 Q119 992 119 1008 Q119 1024 134 1038 Q149 1052 180 1052 Q211 1052 225 1010 L528 127 L831 1014 Q845 1053 881 1053 L885 1053 Q922 1053 936 1014 L1239 127 L1544 1014 Q1556 1053 1584 1053 Q1612 1053 1634 1034 Q1655 1015 1636 971 L1294 31 Q1278 -14 1239 -14 L1235 -14 Q1196 -14 1180 33 L883 887 L584 33 Q568 -14 528 -14 L524 -14 Z" /><glyph glyph-name="Ycircumflex" unicode="&#x176;" d="M510 1581 Q510 1593 520 1606 L668 1786 Q699 1823 725 1823 L741 1823 Q768 1823 799 1786 L946 1606 Q956 1594 956 1581 Q956 1561 922 1561 Q888 1561 860 1587 L731 1706 L602 1587 Q574 1560 542 1560 Q510 1560 510 1581 ZM680 45 L680 567 L121 1356 Q111 1372 111 1390 Q111 1408 127 1425 Q143 1442 169 1442 Q195 1442 215 1411 L735 664 L1257 1411 Q1280 1442 1302 1442 Q1324 1442 1341 1426 Q1372 1396 1341 1350 L786 569 L786 45 Q786 24 770 8 Q754 -8 734 -8 Q714 -8 696 8 Q680 25 680 45 Z" /><glyph glyph-name="ycircumflex" unicode="&#x177;" d="M479 1239 Q450 1212 418 1212 Q386 1212 387 1233 Q387 1245 397 1257 L545 1438 Q576 1475 602 1475 L618 1475 Q645 1475 676 1438 L823 1257 Q834 1245 834 1229 Q834 1212 800 1212 Q766 1212 737 1239 L608 1358 L479 1239 ZM515 -266 Q432 -334 330 -334 Q228 -334 139 -301 Q110 -290 110 -264 Q111 -210 158 -211 Q166 -211 206 -225 Q246 -240 326 -240 Q408 -240 465 -184 Q522 -128 575 -8 L582 6 L115 971 Q97 1016 117 1034 Q137 1052 166 1052 Q195 1052 213 1012 L631 111 L995 1016 Q1008 1053 1036 1053 Q1064 1053 1084 1034 Q1104 1015 1090 975 L666 -37 Q598 -198 515 -266 Z" /><glyph glyph-name="Ydieresis" unicode="&#x178;" d="M565 1739 Q596 1740 616 1720 Q636 1700 637 1669 L637 1628 Q636 1597 616 1578 Q596 1559 565 1559 Q534 1559 514 1578 Q494 1597 494 1628 L494 1669 Q494 1700 514 1720 Q534 1740 565 1739 ZM901 1739 Q932 1740 952 1720 Q972 1700 973 1669 L973 1628 Q972 1597 952 1578 Q932 1559 901 1559 Q870 1559 850 1578 Q830 1597 829 1628 L829 1669 Q830 1700 850 1720 Q870 1740 901 1739 ZM680 45 L680 567 L121 1356 Q111 1372 111 1390 Q111 1408 127 1425 Q143 1442 169 1442 Q195 1442 215 1411 L735 664 L1257 1411 Q1280 1442 1302 1442 Q1324 1442 1341 1426 Q1372 1396 1341 1350 L786 569 L786 45 Q786 24 770 8 Q754 -8 734 -8 Q714 -8 696 8 Q680 25 680 45 Z" /><glyph glyph-name="Zacute" unicode="&#x179;" d="M786 1587 Q758 1561 726 1561 Q694 1561 694 1579 Q694 1589 702 1602 L829 1792 Q854 1829 885 1829 Q916 1829 944 1814 Q972 1800 973 1784 Q973 1768 950 1745 L786 1587 ZM197 0 Q177 0 161 14 Q146 28 145 45 L145 47 Q145 67 164 92 L1120 1337 L215 1337 Q194 1336 180 1350 Q166 1364 166 1384 Q166 1404 180 1418 Q194 1432 215 1434 L1214 1434 Q1234 1434 1250 1420 Q1266 1406 1266 1389 L1266 1386 Q1266 1366 1247 1341 L291 96 L1231 96 Q1252 96 1266 83 Q1280 70 1280 50 Q1280 30 1266 14 Q1252 0 1231 0 L197 0 Z" /><glyph glyph-name="zacute" unicode="&#x17a;" d="M641 1239 Q612 1212 580 1212 Q548 1212 549 1231 Q549 1241 557 1253 L684 1444 Q710 1481 740 1481 Q770 1482 799 1466 Q828 1450 828 1435 Q828 1420 805 1397 L641 1239 ZM172 0 Q154 0 139 12 Q125 24 125 41 L125 43 Q125 66 143 86 L872 954 L184 954 Q166 954 153 968 Q140 982 139 999 Q138 1016 152 1030 Q166 1044 184 1044 L969 1044 Q987 1044 1001 1032 Q1015 1020 1016 1004 L1016 1001 Q1016 978 997 958 L268 90 L985 90 Q1002 90 1016 77 Q1030 64 1030 46 Q1030 28 1017 14 Q1004 0 985 0 L172 0 Z" /><glyph glyph-name="Zdotaccent" unicode="&#x17b;" d="M797 1669 L797 1630 Q796 1597 776 1578 Q756 1559 723 1559 Q690 1559 670 1578 Q650 1597 649 1630 L649 1669 Q650 1702 670 1721 Q690 1740 723 1740 Q756 1740 776 1722 Q796 1702 797 1669 ZM197 0 Q177 0 161 14 Q146 28 145 45 L145 47 Q145 67 164 92 L1120 1337 L215 1337 Q194 1336 180 1350 Q166 1364 166 1384 Q166 1404 180 1418 Q194 1432 215 1434 L1214 1434 Q1234 1434 1250 1420 Q1266 1406 1266 1389 L1266 1386 Q1266 1366 1247 1341 L291 96 L1231 96 Q1252 96 1266 83 Q1280 70 1280 50 Q1280 30 1266 14 Q1252 0 1231 0 L197 0 Z" /><glyph glyph-name="zdotaccent" unicode="&#x17c;" d="M651 1321 L651 1282 Q651 1249 631 1230 Q611 1210 578 1210 Q544 1210 524 1230 Q504 1250 504 1282 L504 1321 Q504 1354 524 1373 Q544 1392 578 1392 Q612 1392 631 1374 Q651 1354 651 1321 ZM172 0 Q154 0 139 12 Q125 24 125 41 L125 43 Q125 66 143 86 L872 954 L184 954 Q166 954 153 968 Q140 982 139 999 Q138 1016 152 1030 Q166 1044 184 1044 L969 1044 Q987 1044 1001 1032 Q1015 1020 1016 1004 L1016 1001 Q1016 978 997 958 L268 90 L985 90 Q1002 90 1016 77 Q1030 64 1030 46 Q1030 28 1017 14 Q1004 0 985 0 L172 0 Z" /><glyph glyph-name="Zcaron" unicode="&#x17d;" d="M854 1796 Q883 1823 915 1823 Q947 1823 946 1802 Q946 1790 936 1778 L788 1597 Q757 1560 731 1561 L715 1561 Q688 1561 657 1597 L510 1778 Q500 1790 500 1802 Q500 1822 534 1822 Q568 1822 596 1796 L725 1677 L854 1796 ZM197 0 Q177 0 161 14 Q146 28 145 45 L145 47 Q145 67 164 92 L1120 1337 L215 1337 Q194 1336 180 1350 Q166 1364 166 1384 Q166 1404 180 1418 Q194 1432 215 1434 L1214 1434 Q1234 1434 1250 1420 Q1266 1406 1266 1389 L1266 1386 Q1266 1366 1247 1341 L291 96 L1231 96 Q1252 96 1266 83 Q1280 70 1280 50 Q1280 30 1266 14 Q1252 0 1231 0 L197 0 Z" /><glyph glyph-name="zcaron" unicode="&#x17e;" d="M709 1448 Q738 1475 770 1475 Q802 1475 801 1454 Q801 1442 791 1430 L643 1249 Q612 1212 586 1212 L569 1212 Q542 1212 512 1249 L365 1430 Q354 1442 354 1458 Q354 1474 388 1474 Q422 1474 451 1448 L580 1329 L709 1448 ZM172 0 Q154 0 139 12 Q125 24 125 41 L125 43 Q125 66 143 86 L872 954 L184 954 Q166 954 153 968 Q140 982 139 999 Q138 1016 152 1030 Q166 1044 184 1044 L969 1044 Q987 1044 1001 1032 Q1015 1020 1016 1004 L1016 1001 Q1016 978 997 958 L268 90 L985 90 Q1002 90 1016 77 Q1030 64 1030 46 Q1030 28 1017 14 Q1004 0 985 0 L172 0 Z" /><glyph glyph-name="florin" unicode="&#x192;" d="M193 -10 Q115 -10 115 35 Q115 80 178 80 Q315 80 346 248 L446 786 L262 786 Q244 786 230 800 Q216 814 215 832 Q215 850 229 864 Q243 878 262 879 L463 879 L516 1157 Q546 1308 616 1376 Q686 1444 809 1444 Q881 1444 926 1433 Q971 1422 971 1384 Q972 1366 958 1354 Q944 1342 934 1342 Q924 1342 887 1348 Q850 1354 819 1354 Q735 1354 690 1307 Q645 1260 625 1151 L573 879 L852 879 Q870 878 884 864 Q898 850 899 832 Q899 814 885 800 Q871 787 852 786 L557 786 L455 242 Q406 -10 193 -10 Z" /><glyph glyph-name="Aringacute" unicode="&#x1fa;" d="M874 1851 Q846 1825 814 1825 Q782 1825 782 1843 Q782 1853 791 1866 L918 2056 Q944 2093 974 2093 Q1004 2093 1032 2078 Q1060 2064 1061 2048 Q1061 2032 1038 2009 L874 1851 ZM428 498 L1184 498 L807 1327 L428 498 ZM720 1475 Q758 1438 809 1438 Q860 1438 898 1475 Q936 1512 936 1563 L936 1567 Q936 1618 898 1655 Q860 1692 809 1692 Q758 1692 720 1655 Q682 1618 682 1567 L682 1563 Q682 1512 720 1475 ZM1497 66 Q1501 58 1501 42 Q1501 26 1486 8 Q1471 -8 1443 -8 Q1415 -8 1397 33 L1229 401 L383 401 L215 31 Q198 -8 172 -8 Q146 -8 130 7 Q115 22 115 36 Q115 50 119 61 L731 1389 Q678 1412 643 1458 Q608 1504 608 1563 L608 1567 Q608 1645 668 1701 Q728 1757 809 1757 Q889 1757 949 1701 Q1009 1645 1010 1567 L1010 1563 Q1010 1506 976 1459 Q942 1412 887 1389 L1497 66 Z" /><glyph glyph-name="aringacute" unicode="&#x1fb;" d="M651 1700 Q623 1673 591 1673 Q559 1673 559 1692 Q559 1702 567 1714 L694 1905 Q719 1942 750 1942 Q782 1942 810 1926 Q838 1910 838 1896 Q838 1880 815 1858 L651 1700 ZM499 1317 Q537 1280 588 1280 Q639 1280 677 1317 Q715 1354 715 1405 L715 1409 Q715 1460 677 1497 Q639 1534 588 1534 Q537 1534 499 1497 Q461 1460 461 1409 L461 1405 Q461 1354 499 1317 ZM728 1270 Q668 1214 588 1214 Q508 1214 448 1270 Q388 1326 387 1405 L387 1409 Q387 1487 447 1543 Q508 1599 588 1599 Q668 1599 728 1543 Q788 1487 788 1409 L788 1405 Q788 1326 728 1270 ZM300 135 Q390 70 534 70 Q678 70 794 161 Q910 252 909 391 L909 510 Q725 557 558 557 Q391 557 301 490 Q211 423 211 313 L211 309 Q211 200 300 135 ZM956 -8 Q909 -8 907 43 L907 174 Q766 -25 508 -25 Q348 -25 226 62 Q104 149 104 303 L104 307 Q104 467 229 557 Q354 647 546 647 Q738 647 907 602 L907 647 Q907 803 817 885 Q727 967 569 967 Q411 967 266 897 Q254 891 240 891 Q226 891 211 905 Q197 919 197 945 Q197 971 225 983 Q401 1061 569 1061 Q784 1060 894 950 Q1004 840 1006 651 L1006 43 Q1006 20 992 6 Q978 -8 956 -8 Z" /><glyph glyph-name="AEacute" unicode="&#x1fc;" d="M1108 1587 Q1079 1561 1047 1561 Q1015 1561 1016 1579 Q1016 1589 1024 1602 L1151 1792 Q1176 1829 1206 1829 Q1236 1829 1266 1814 Q1294 1800 1294 1784 Q1294 1768 1272 1745 L1108 1587 ZM1012 498 L1012 1337 L958 1337 L455 498 L1012 498 ZM86 4 Q72 19 72 35 Q72 51 82 68 L889 1401 Q909 1434 942 1434 L1960 1434 Q1980 1434 1994 1420 Q2008 1406 2009 1384 Q2009 1364 1995 1350 Q1981 1336 1960 1335 L1118 1335 L1118 772 L1868 772 Q1888 772 1902 758 Q1916 744 1917 724 Q1917 704 1903 688 Q1889 674 1868 674 L1118 674 L1118 98 L1970 98 Q1990 98 2004 84 Q2018 70 2019 50 Q2019 30 2005 14 Q1991 0 1970 0 L1065 0 Q1045 0 1028 16 Q1012 32 1012 53 L1012 401 L397 401 L166 16 Q150 -10 126 -10 Q102 -10 86 4 Z" /><glyph glyph-name="aeacute" unicode="&#x1fd;" d="M1040 1239 Q1012 1212 980 1212 Q948 1212 948 1231 Q948 1241 956 1253 L1083 1444 Q1108 1481 1139 1481 Q1170 1482 1198 1466 Q1226 1450 1227 1435 Q1227 1420 1204 1397 L1040 1239 ZM1389 -25 Q1260 -24 1148 36 Q1036 96 967 205 Q768 -24 498 -25 Q340 -25 222 62 Q104 149 104 303 L104 307 Q104 467 227 557 Q350 647 530 647 Q710 647 879 602 L879 647 Q879 803 793 885 Q708 967 560 967 Q412 967 266 897 Q254 891 240 891 Q226 891 211 905 Q197 919 197 945 Q197 971 225 983 Q393 1061 555 1061 Q879 1061 950 799 Q1013 922 1125 996 Q1237 1070 1372 1069 Q1587 1069 1719 913 Q1851 757 1851 528 Q1851 510 1836 496 Q1821 482 1802 481 L983 481 Q997 293 1115 181 Q1233 69 1393 70 Q1583 70 1731 213 Q1745 227 1764 227 Q1784 227 1798 214 Q1812 201 1812 181 Q1812 161 1796 145 Q1626 -25 1389 -25 ZM504 70 Q746 70 922 289 Q879 395 877 512 Q682 557 534 557 Q386 557 299 490 Q211 423 211 313 L211 309 Q211 198 295 134 Q379 70 504 70 ZM1634 860 Q1538 977 1376 977 Q1214 977 1106 861 Q998 745 983 571 L1743 571 Q1730 743 1634 860 Z" /><glyph glyph-name="Oslashacute" unicode="&#x1fe;" d="M934 1608 Q905 1581 873 1581 Q841 1581 842 1599 Q842 1609 850 1622 L977 1812 Q1002 1849 1032 1849 Q1062 1849 1092 1834 Q1120 1820 1120 1804 Q1120 1788 1098 1765 L934 1608 ZM260 717 Q260 467 412 287 L1270 1208 Q1100 1362 853 1362 Q606 1362 433 1176 Q260 990 260 721 L260 717 ZM469 225 Q638 72 886 72 Q1134 72 1308 258 Q1481 444 1481 713 L1481 717 Q1481 961 1329 1145 L469 225 ZM868 -25 Q596 -25 401 143 L264 -2 Q248 -18 228 -18 Q208 -18 197 -6 Q184 6 184 26 Q184 46 197 57 L336 207 Q150 420 150 713 L150 717 Q150 1020 352 1239 Q555 1458 872 1458 Q1142 1458 1339 1288 L1477 1436 Q1493 1452 1512 1452 Q1532 1452 1544 1440 Q1556 1428 1556 1408 Q1556 1388 1544 1376 L1403 1225 Q1591 1018 1591 721 L1591 717 Q1591 414 1388 194 Q1185 -26 868 -25 Z" /><glyph glyph-name="oslashacute" unicode="&#x1ff;" d="M719 1239 Q690 1212 658 1212 Q626 1212 627 1231 Q627 1241 635 1253 L762 1444 Q788 1481 818 1481 Q848 1482 877 1466 Q906 1450 906 1435 Q906 1420 883 1397 L719 1239 ZM227 522 Q227 356 324 233 L934 866 Q813 975 641 975 Q469 975 348 844 Q227 713 227 526 L227 522 ZM377 176 Q495 70 668 70 Q841 70 963 201 Q1084 332 1083 518 L1083 522 Q1083 686 985 811 L377 176 ZM1037 137 Q882 -25 669 -25 Q456 -25 311 98 L213 -2 Q196 -18 178 -18 Q160 -18 147 -7 Q135 4 135 21 Q135 38 147 51 L250 158 Q119 316 119 518 L119 522 Q119 745 273 907 Q428 1069 641 1069 Q854 1069 999 944 L1098 1051 Q1114 1067 1132 1067 Q1150 1067 1163 1056 Q1176 1046 1176 1028 Q1176 1010 1163 997 L1059 887 Q1192 733 1192 526 L1192 522 Q1192 299 1037 137 Z" /><glyph glyph-name="Scommaaccent" unicode="&#x218;" d="M596 -229 L596 -217 Q596 -186 618 -164 Q640 -142 670 -143 Q700 -143 722 -166 Q744 -189 743 -225 L743 -238 Q743 -353 694 -401 Q668 -426 628 -442 Q535 -479 537 -436 Q537 -416 563 -408 Q618 -392 640 -369 Q662 -346 662 -301 Q596 -287 596 -229 ZM698 -20 Q397 -20 154 180 Q134 196 134 218 Q134 240 148 258 Q164 274 184 274 Q204 274 221 262 Q428 76 705 76 Q865 76 966 157 Q1067 238 1067 360 L1067 365 Q1067 484 982 554 Q896 624 650 672 Q404 721 291 815 Q178 909 178 1073 L178 1077 Q178 1237 309 1346 Q440 1455 639 1454 Q899 1454 1096 1307 Q1118 1289 1118 1265 Q1118 1241 1102 1226 Q1086 1210 1066 1210 Q1046 1210 1030 1223 Q854 1358 635 1358 Q479 1358 382 1280 Q285 1202 285 1087 L285 1083 Q285 962 372 890 Q458 818 704 769 Q950 719 1062 626 Q1174 533 1174 375 L1174 371 Q1174 200 1040 90 Q906 -20 698 -20 Z" /><glyph glyph-name="scommaaccent" unicode="&#x219;" d="M440 -229 L440 -217 Q440 -186 462 -164 Q484 -142 514 -143 Q544 -143 566 -166 Q588 -189 588 -225 L588 -238 Q588 -353 539 -401 Q514 -426 473 -442 Q381 -478 381 -436 Q381 -416 408 -408 Q462 -392 484 -369 Q506 -346 506 -301 Q440 -287 440 -229 ZM528 -20 Q424 -20 314 16 Q204 52 123 115 Q104 130 104 152 Q104 174 118 188 Q132 202 152 202 Q172 202 186 193 Q352 74 535 74 Q644 74 716 129 Q788 184 786 272 L786 276 Q786 360 716 403 Q646 446 542 476 Q292 547 226 605 Q198 631 175 675 Q151 719 152 772 L152 776 Q152 903 248 984 Q344 1065 506 1065 Q668 1065 834 971 Q860 954 860 930 Q860 906 846 892 Q832 878 814 877 Q796 877 782 885 Q638 971 512 971 Q386 971 320 920 Q254 869 254 788 L254 784 Q254 720 313 675 Q372 630 498 595 Q623 559 672 541 Q721 522 777 488 Q889 419 889 289 L889 285 Q890 148 786 64 Q682 -20 528 -20 Z" /><glyph glyph-name="schwa" unicode="&#x259;" d="M158 899 Q328 1069 552 1069 Q776 1069 927 915 Q1078 761 1077 524 L1077 520 Q1077 291 935 133 Q793 -25 580 -25 Q367 -25 234 131 Q102 287 102 516 Q102 534 118 548 Q134 562 152 563 L971 563 Q957 751 839 863 Q721 975 546 975 Q371 975 223 831 Q210 817 190 817 Q170 817 156 830 Q142 843 142 863 Q142 883 158 899 ZM971 473 L211 473 Q223 301 319 184 Q416 68 578 68 Q740 68 848 184 Q956 300 971 473 Z" /><glyph glyph-name="circumflex" unicode="&#x2c6;" d="M381 1239 Q352 1212 320 1212 Q288 1212 289 1233 Q289 1245 299 1257 L446 1438 Q477 1475 504 1475 L520 1475 Q547 1475 578 1438 L725 1257 Q735 1245 735 1233 Q736 1212 702 1212 Q668 1212 639 1239 L510 1358 L381 1239 Z" /><glyph glyph-name="caron" unicode="&#x2c7;" d="M643 1448 Q672 1475 704 1475 Q736 1475 735 1454 Q735 1442 725 1430 L578 1249 Q547 1212 520 1212 L504 1212 Q477 1212 446 1249 L299 1430 Q289 1442 289 1454 Q288 1474 322 1474 Q356 1474 385 1448 L514 1329 L643 1448 Z" /><glyph glyph-name="breve" unicode="&#x2d8;" d="M756 1354 Q682 1214 512 1214 Q342 1214 268 1354 Q246 1395 246 1436 Q246 1477 285 1477 Q316 1477 328 1442 Q375 1319 512 1319 Q649 1319 696 1442 Q708 1477 739 1477 Q778 1477 778 1436 Q778 1395 756 1354 Z" /><glyph glyph-name="dotaccent" unicode="&#x2d9;" d="M586 1321 L586 1282 Q586 1249 566 1230 Q546 1210 512 1210 Q479 1210 459 1230 Q439 1250 438 1282 L438 1321 Q438 1354 458 1373 Q478 1392 512 1392 Q546 1392 566 1374 Q586 1354 586 1321 Z" /><glyph glyph-name="ring" unicode="&#x2da;" d="M423 1317 Q461 1280 512 1280 Q563 1280 601 1317 Q639 1354 639 1405 L639 1409 Q639 1460 601 1497 Q563 1534 512 1534 Q461 1534 423 1497 Q385 1460 385 1409 L385 1405 Q385 1354 423 1317 ZM652 1270 Q592 1214 512 1214 Q432 1214 372 1270 Q312 1326 311 1405 L311 1409 Q312 1487 372 1543 Q432 1599 512 1599 Q592 1599 652 1543 Q712 1487 713 1409 L713 1405 Q712 1326 652 1270 Z" /><glyph glyph-name="ogonek" unicode="&#x2db;" d="M428 -258 Q399 -223 399 -171 Q399 -119 435 -71 Q471 -23 549 37 L621 2 Q555 -49 528 -85 Q501 -121 502 -162 Q502 -236 610 -256 Q665 -266 666 -297 Q666 -334 616 -334 Q566 -334 511 -314 Q457 -294 428 -258 Z" /><glyph glyph-name="tilde" unicode="&#x2dc;" d="M252 1196 Q215 1196 215 1231 Q215 1243 219 1255 Q271 1409 372 1409 Q420 1409 515 1367 Q610 1325 643 1325 Q676 1325 696 1342 Q716 1359 735 1403 Q749 1432 772 1432 Q809 1432 809 1397 Q809 1385 805 1372 Q753 1216 652 1218 Q604 1218 509 1261 Q414 1303 381 1303 Q348 1304 328 1286 Q308 1268 289 1225 Q275 1196 252 1196 Z" /><glyph glyph-name="hungarumlaut" unicode="&#x2dd;" d="M315 1239 Q287 1212 255 1212 Q223 1212 223 1231 Q223 1241 231 1253 L360 1446 Q383 1481 413 1481 Q444 1480 470 1466 Q496 1452 496 1437 Q496 1422 475 1401 L315 1239 ZM627 1239 Q598 1212 566 1212 Q534 1212 535 1231 Q535 1241 543 1253 L672 1446 Q694 1481 724 1481 Q754 1480 780 1466 Q806 1452 807 1437 Q807 1422 786 1401 L627 1239 Z" /><glyph glyph-name="commaaccent" unicode="&#x326;" d="M438 -229 L438 -217 Q438 -186 460 -164 Q482 -142 512 -143 Q542 -143 564 -166 Q586 -189 586 -225 L586 -238 Q586 -353 537 -401 Q512 -426 471 -442 Q379 -478 379 -436 Q379 -416 406 -408 Q460 -392 482 -369 Q504 -346 504 -301 Q438 -287 438 -229 Z" /><glyph glyph-name="Wgrave" unicode="&#x1e80;" d="M1157 1579 Q1157 1561 1125 1561 Q1093 1561 1065 1587 L901 1745 Q878 1768 878 1783 Q878 1798 907 1814 Q936 1829 967 1829 Q998 1829 1022 1792 L1149 1602 Q1157 1590 1157 1579 ZM129 1360 Q123 1376 123 1392 Q123 1408 139 1425 Q155 1442 187 1442 Q219 1442 236 1393 L672 158 L1079 1401 Q1093 1442 1130 1442 L1135 1442 Q1172 1442 1186 1401 L1593 158 L2032 1399 Q2048 1442 2076 1442 Q2104 1442 2120 1426 Q2136 1410 2136 1395 Q2136 1381 2128 1360 L1649 31 Q1631 -16 1593 -16 L1589 -16 Q1548 -16 1534 31 L1128 1235 L723 31 Q709 -16 668 -16 L664 -16 Q624 -16 608 31 L129 1360 Z" /><glyph glyph-name="wgrave" unicode="&#x1e81;" d="M909 1231 Q910 1212 878 1212 Q846 1212 817 1239 L653 1397 Q630 1420 630 1435 Q630 1450 660 1465 Q735 1505 774 1444 L901 1253 Q909 1241 909 1231 ZM524 -14 Q485 -14 469 31 L127 971 Q119 992 119 1008 Q119 1024 134 1038 Q149 1052 180 1052 Q211 1052 225 1010 L528 127 L831 1014 Q845 1053 881 1053 L885 1053 Q922 1053 936 1014 L1239 127 L1544 1014 Q1556 1053 1584 1053 Q1612 1053 1634 1034 Q1655 1015 1636 971 L1294 31 Q1278 -14 1239 -14 L1235 -14 Q1196 -14 1180 33 L883 887 L584 33 Q568 -14 528 -14 L524 -14 Z" /><glyph glyph-name="Wacute" unicode="&#x1e82;" d="M1192 1587 Q1163 1561 1131 1561 Q1099 1561 1100 1579 Q1100 1589 1108 1602 L1235 1792 Q1260 1829 1290 1829 Q1320 1829 1350 1814 Q1378 1800 1378 1784 Q1378 1768 1356 1745 L1192 1587 ZM129 1360 Q123 1376 123 1392 Q123 1408 139 1425 Q155 1442 187 1442 Q219 1442 236 1393 L672 158 L1079 1401 Q1093 1442 1130 1442 L1135 1442 Q1172 1442 1186 1401 L1593 158 L2032 1399 Q2048 1442 2076 1442 Q2104 1442 2120 1426 Q2136 1410 2136 1395 Q2136 1381 2128 1360 L1649 31 Q1631 -16 1593 -16 L1589 -16 Q1548 -16 1534 31 L1128 1235 L723 31 Q709 -16 668 -16 L664 -16 Q624 -16 608 31 L129 1360 Z" /><glyph glyph-name="wacute" unicode="&#x1e83;" d="M944 1239 Q916 1212 884 1212 Q852 1212 852 1231 Q852 1241 860 1253 L987 1444 Q1012 1481 1042 1481 Q1072 1482 1102 1466 Q1130 1450 1130 1435 Q1130 1420 1108 1397 L944 1239 ZM524 -14 Q485 -14 469 31 L127 971 Q119 992 119 1008 Q119 1024 134 1038 Q149 1052 180 1052 Q211 1052 225 1010 L528 127 L831 1014 Q845 1053 881 1053 L885 1053 Q922 1053 936 1014 L1239 127 L1544 1014 Q1556 1053 1584 1053 Q1612 1053 1634 1034 Q1655 1015 1636 971 L1294 31 Q1278 -14 1239 -14 L1235 -14 Q1196 -14 1180 33 L883 887 L584 33 Q568 -14 528 -14 L524 -14 Z" /><glyph glyph-name="Wdieresis" unicode="&#x1e84;" d="M961 1739 Q992 1740 1012 1720 Q1032 1700 1032 1669 L1032 1628 Q1032 1597 1012 1578 Q992 1559 961 1559 Q930 1559 909 1578 Q889 1597 889 1628 L889 1669 Q890 1700 910 1720 Q930 1740 961 1739 ZM1296 1739 Q1328 1740 1348 1720 Q1368 1700 1368 1669 L1368 1628 Q1368 1597 1348 1578 Q1328 1559 1296 1559 Q1264 1559 1245 1578 Q1225 1597 1225 1628 L1225 1669 Q1225 1700 1245 1720 Q1265 1740 1296 1739 ZM129 1360 Q123 1376 123 1392 Q123 1408 139 1425 Q155 1442 187 1442 Q219 1442 236 1393 L672 158 L1079 1401 Q1093 1442 1130 1442 L1135 1442 Q1172 1442 1186 1401 L1593 158 L2032 1399 Q2048 1442 2076 1442 Q2104 1442 2120 1426 Q2136 1410 2136 1395 Q2136 1381 2128 1360 L1649 31 Q1631 -16 1593 -16 L1589 -16 Q1548 -16 1534 31 L1128 1235 L723 31 Q709 -16 668 -16 L664 -16 Q624 -16 608 31 L129 1360 Z" /><glyph glyph-name="wdieresis" unicode="&#x1e85;" d="M713 1391 Q744 1392 764 1372 Q784 1352 784 1321 L784 1280 Q784 1249 764 1230 Q744 1210 713 1210 Q682 1210 662 1230 Q642 1250 641 1280 L641 1321 Q642 1352 662 1372 Q682 1392 713 1391 ZM1049 1391 Q1080 1392 1100 1372 Q1120 1352 1120 1321 L1120 1280 Q1120 1249 1100 1230 Q1080 1210 1049 1210 Q1018 1210 998 1230 Q978 1250 977 1280 L977 1321 Q978 1352 998 1372 Q1018 1392 1049 1391 ZM524 -14 Q485 -14 469 31 L127 971 Q119 992 119 1008 Q119 1024 134 1038 Q149 1052 180 1052 Q211 1052 225 1010 L528 127 L831 1014 Q845 1053 881 1053 L885 1053 Q922 1053 936 1014 L1239 127 L1544 1014 Q1556 1053 1584 1053 Q1612 1053 1634 1034 Q1655 1015 1636 971 L1294 31 Q1278 -14 1239 -14 L1235 -14 Q1196 -14 1180 33 L883 887 L584 33 Q568 -14 528 -14 L524 -14 Z" /><glyph glyph-name="Ygrave" unicode="&#x1ef2;" d="M762 1579 Q762 1561 730 1561 Q698 1561 670 1587 L506 1745 Q483 1768 483 1783 Q483 1798 512 1814 Q542 1830 572 1829 Q602 1829 627 1792 L754 1602 Q762 1590 762 1579 ZM680 45 L680 567 L121 1356 Q111 1372 111 1390 Q111 1408 127 1425 Q143 1442 169 1442 Q195 1442 215 1411 L735 664 L1257 1411 Q1280 1442 1302 1442 Q1324 1442 1341 1426 Q1372 1396 1341 1350 L786 569 L786 45 Q786 24 770 8 Q754 -8 734 -8 Q714 -8 696 8 Q680 25 680 45 Z" /><glyph glyph-name="ygrave" unicode="&#x1ef3;" d="M639 1231 Q639 1212 607 1212 Q575 1212 547 1239 L383 1397 Q360 1420 360 1435 Q360 1450 389 1465 Q464 1504 504 1444 L631 1253 Q639 1241 639 1231 ZM515 -266 Q432 -334 330 -334 Q228 -334 139 -301 Q110 -290 110 -264 Q111 -210 158 -211 Q166 -211 206 -225 Q246 -240 326 -240 Q408 -240 465 -184 Q522 -128 575 -8 L582 6 L115 971 Q97 1016 117 1034 Q137 1052 166 1052 Q195 1052 213 1012 L631 111 L995 1016 Q1008 1053 1036 1053 Q1064 1053 1084 1034 Q1104 1015 1090 975 L666 -37 Q598 -198 515 -266 Z" /><glyph glyph-name="enspace" unicode="&#x2002;" d="" /><glyph glyph-name="emspace" unicode="&#x2003;" d="" /><glyph glyph-name="threeperemspace" unicode="&#x2004;" d="" /><glyph glyph-name="fourperemspace" unicode="&#x2005;" d="" /><glyph glyph-name="thinspace" unicode="&#x2009;" d="" /><glyph glyph-name="hairspace" unicode="&#x200a;" d="" /><glyph glyph-name="endash" unicode="&#x2013;" d="M188 555 Q168 555 152 570 Q136 585 135 608 Q136 631 152 646 Q168 661 188 662 L893 662 Q914 662 930 646 Q946 630 946 608 Q946 585 930 570 Q914 555 893 555 L188 555 Z" /><glyph glyph-name="emdash" unicode="&#x2014;" d="M188 555 Q168 555 152 570 Q136 585 135 608 Q136 631 152 646 Q168 661 188 662 L1651 662 Q1672 662 1688 646 Q1704 630 1704 608 Q1704 585 1688 570 Q1672 555 1651 555 L188 555 Z" /><glyph glyph-name="quoteleft" unicode="&#x2018;" d="M350 1409 Q350 1393 334 1382 Q230 1325 238 1225 Q293 1211 293 1153 L293 1110 Q294 1081 274 1062 Q254 1042 225 1042 Q196 1042 177 1062 Q158 1082 158 1110 L158 1161 Q158 1320 218 1380 Q278 1440 314 1440 Q350 1440 350 1409 Z" /><glyph glyph-name="quoteright" unicode="&#x2019;" d="M121 1075 Q121 1091 137 1102 Q241 1159 233 1260 Q178 1274 178 1331 L178 1374 Q178 1401 198 1421 Q218 1442 246 1442 Q275 1442 294 1422 Q313 1402 313 1374 L313 1323 Q312 1164 252 1104 Q192 1044 156 1044 Q120 1044 121 1075 Z" /><glyph glyph-name="quotesinglbase" unicode="&#x201a;" d="M111 -184 Q111 -168 127 -158 Q231 -101 223 0 Q168 14 168 72 L168 115 Q168 144 187 163 Q206 182 236 182 Q266 182 284 163 Q303 144 303 115 L303 63 Q302 -96 242 -156 Q182 -216 146 -216 Q110 -216 111 -184 Z" /><glyph glyph-name="quotedblleft" unicode="&#x201c;" d="M350 1409 Q350 1393 334 1382 Q230 1325 238 1225 Q293 1211 293 1153 L293 1110 Q294 1081 274 1062 Q254 1042 225 1042 Q196 1042 177 1062 Q158 1082 158 1110 L158 1161 Q158 1320 218 1380 Q278 1440 314 1440 Q350 1440 350 1409 ZM719 1409 Q719 1393 702 1382 Q598 1325 606 1225 Q661 1211 662 1153 L662 1110 Q662 1081 642 1062 Q622 1042 594 1042 Q565 1042 546 1062 Q527 1082 526 1110 L526 1161 Q526 1320 587 1380 Q648 1440 684 1440 Q720 1440 719 1409 Z" /><glyph glyph-name="quotedblright" unicode="&#x201d;" d="M489 1075 Q489 1091 506 1102 Q610 1159 602 1260 Q547 1274 547 1331 L547 1374 Q547 1401 566 1421 Q585 1442 614 1442 Q642 1442 662 1422 Q682 1402 682 1374 L682 1323 Q682 1164 622 1104 Q562 1044 525 1044 Q489 1044 489 1075 ZM121 1075 Q121 1091 137 1102 Q241 1159 233 1260 Q178 1274 178 1331 L178 1374 Q178 1401 198 1421 Q218 1442 246 1442 Q275 1442 294 1422 Q313 1402 313 1374 L313 1323 Q312 1164 252 1104 Q192 1044 156 1044 Q120 1044 121 1075 Z" /><glyph glyph-name="quotedblbase" unicode="&#x201e;" d="M479 -184 Q479 -168 496 -158 Q600 -101 592 0 Q537 14 537 72 L537 115 Q537 144 557 163 Q577 182 604 182 Q631 182 651 163 Q671 144 672 115 L672 63 Q672 -96 611 -156 Q550 -216 514 -216 Q478 -216 479 -184 ZM111 -184 Q111 -168 127 -158 Q231 -101 223 0 Q168 14 168 72 L168 115 Q168 144 187 163 Q206 182 236 182 Q266 182 284 163 Q303 144 303 115 L303 63 Q302 -96 242 -156 Q182 -216 146 -216 Q110 -216 111 -184 Z" /><glyph glyph-name="dagger" unicode="&#x2020;" d="M135 1072 Q121 1086 121 1104 Q121 1122 135 1136 Q149 1150 168 1149 L383 1137 L371 1389 Q369 1412 383 1426 Q397 1440 420 1442 Q443 1442 457 1426 Q471 1410 469 1389 L457 1137 L672 1149 Q690 1151 704 1137 Q718 1122 719 1104 Q719 1086 705 1072 Q691 1058 672 1061 L455 1073 L465 526 Q465 506 452 493 Q438 480 420 480 Q402 480 388 492 Q374 506 375 526 L385 1073 L168 1061 Q150 1059 135 1072 Z" /><glyph glyph-name="daggerdbl" unicode="&#x2021;" d="M739 1104 Q739 1086 725 1072 Q711 1058 692 1061 L475 1073 L485 717 L475 360 L692 373 Q710 376 724 362 Q738 348 739 330 Q739 312 725 298 Q711 284 692 285 L477 297 L489 45 Q491 22 477 7 Q463 -8 440 -8 Q417 -8 403 7 Q389 22 391 45 L403 297 L188 285 Q170 283 156 297 Q142 312 142 330 Q142 348 156 361 Q170 374 188 373 L406 360 L395 717 L406 1073 L188 1061 Q170 1059 156 1072 Q142 1086 142 1104 Q142 1122 156 1136 Q170 1150 188 1149 L403 1137 L391 1389 Q389 1412 403 1426 Q417 1440 440 1442 Q463 1442 477 1426 Q491 1410 489 1389 L477 1137 L692 1149 Q710 1151 724 1137 Q738 1122 739 1104 Z" /><glyph glyph-name="bullet" unicode="&#x2022;" d="M660 541 Q585 467 481 467 Q377 467 302 541 Q227 615 227 719 L227 723 Q227 825 304 900 Q381 975 481 975 Q581 975 658 900 Q735 825 735 723 L735 719 Q735 615 660 541 Z" /><glyph glyph-name="ellipsis" unicode="&#x2026;" d="M168 115 Q168 144 186 163 Q204 182 233 182 Q262 182 280 163 Q298 144 299 115 L299 59 Q299 30 281 11 Q264 -8 234 -8 Q204 -8 186 11 Q168 30 168 59 L168 115 ZM631 115 Q631 144 649 163 Q667 182 696 182 Q725 182 743 163 Q761 144 762 115 L762 59 Q762 30 744 11 Q726 -8 696 -8 Q667 -8 649 11 Q631 30 631 59 L631 115 ZM1094 115 Q1094 144 1112 163 Q1130 182 1159 182 Q1188 182 1206 163 Q1224 144 1225 115 L1225 59 Q1224 30 1206 11 Q1188 -8 1159 -8 Q1130 -8 1112 11 Q1094 30 1094 59 L1094 115 Z" /><glyph glyph-name="perthousand" unicode="&#x2030;" d="M1051 350 Q1050 232 1112 152 Q1174 72 1263 72 Q1352 72 1410 151 Q1468 230 1468 346 L1468 350 Q1468 469 1407 549 Q1346 629 1256 629 Q1166 629 1109 549 Q1051 469 1051 354 L1051 350 ZM1821 350 Q1820 232 1882 152 Q1944 72 2033 72 Q2122 72 2180 151 Q2238 230 2238 346 L2238 350 Q2238 469 2177 549 Q2116 629 2027 629 Q1938 629 1880 549 Q1822 469 1821 354 L1821 350 ZM219 1083 Q218 964 280 884 Q342 804 431 805 Q520 805 579 884 Q637 963 637 1079 L637 1083 Q638 1202 576 1282 Q514 1362 425 1362 Q336 1362 278 1282 Q220 1202 219 1087 L219 1083 ZM1575 350 Q1576 200 1486 92 Q1396 -16 1258 -16 Q1120 -16 1032 92 Q944 200 944 346 L944 350 Q944 500 1033 608 Q1122 716 1260 717 Q1398 717 1487 609 Q1575 501 1575 354 L1575 350 ZM2256 92 Q2167 -16 2029 -16 Q1891 -16 1802 91 Q1714 199 1714 346 L1714 350 Q1714 500 1803 608 Q1892 716 2030 717 Q2168 717 2257 609 Q2345 501 2345 354 L2345 350 Q2345 200 2256 92 ZM312 4 Q299 17 299 34 Q299 51 307 61 L1305 1419 Q1321 1442 1341 1442 Q1360 1442 1374 1430 Q1388 1418 1388 1400 Q1388 1382 1380 1372 L383 14 Q366 -8 346 -8 Q326 -8 312 4 ZM427 717 Q289 716 201 824 Q113 932 113 1079 L113 1083 Q113 1234 202 1342 Q291 1450 429 1450 Q567 1450 655 1342 Q743 1234 743 1087 L743 1083 Q743 933 654 825 Q565 717 427 717 Z" /><glyph glyph-name="guilsinglleft" unicode="&#x2039;" d="M484 100 Q470 88 450 88 Q430 88 414 111 L133 477 Q113 504 113 522 Q113 540 133 567 L414 934 Q430 956 450 956 Q470 956 484 944 Q498 932 498 914 Q498 896 485 879 L227 524 L485 166 Q498 152 498 132 Q498 112 484 100 Z" /><glyph glyph-name="guilsinglright" unicode="&#x203a;" d="M184 956 Q207 956 223 934 L504 567 Q524 540 524 522 Q524 504 504 477 L223 111 Q206 88 186 88 Q166 88 153 100 Q123 128 152 166 L410 520 L152 879 Q138 899 139 913 Q143 956 184 956 Z" /><glyph glyph-name="fraction" unicode="&#x2044;" d="M-54 -209 Q-78 -208 -94 -196 Q-109 -184 -109 -167 Q-109 -150 -100 -133 L809 1530 Q826 1561 850 1561 Q874 1560 888 1548 Q902 1536 903 1519 Q903 1502 895 1485 L-14 -178 Q-30 -209 -54 -209 Z" /><glyph glyph-name="Euro" unicode="&#x20ac;" d="M1260 301 Q1276 324 1298 324 Q1320 324 1334 312 Q1348 300 1348 282 Q1348 265 1337 250 Q1147 -24 877 -25 Q666 -24 512 120 Q358 264 307 502 L162 502 Q142 502 127 516 Q113 530 113 550 Q113 570 127 586 Q141 600 162 600 L291 600 Q285 655 285 724 Q285 793 293 852 L162 852 Q142 852 127 866 Q113 880 113 900 Q113 920 127 936 Q141 950 162 950 L313 950 Q370 1174 518 1316 Q666 1458 862 1458 Q1149 1458 1333 1202 Q1362 1164 1331 1135 Q1317 1120 1292 1120 Q1267 1120 1253 1143 Q1167 1258 1078 1311 Q990 1364 848 1364 Q706 1364 586 1249 Q466 1134 418 950 L958 950 Q978 950 992 936 Q1006 922 1008 902 Q1008 882 994 866 Q980 852 958 852 L399 852 Q389 780 389 718 Q389 656 395 600 L958 600 Q978 600 992 586 Q1006 572 1008 552 Q1008 532 994 516 Q980 502 958 502 L414 502 Q463 305 588 187 Q713 69 883 70 Q1102 70 1260 301 Z" /><glyph glyph-name="published" unicode="&#x2117;" d="M696 705 L883 705 Q981 704 1038 746 Q1095 788 1096 864 L1096 868 Q1096 1024 889 1024 L696 1024 L696 705 ZM606 395 L606 1063 Q606 1080 620 1094 Q634 1108 651 1108 L895 1108 Q1030 1108 1109 1047 Q1188 986 1188 872 L1188 868 Q1188 748 1100 684 Q1012 620 881 621 L696 621 L696 395 Q696 377 683 364 Q670 350 652 350 Q634 350 620 364 Q606 378 606 395 ZM364 232 Q558 34 848 33 Q1138 32 1334 232 Q1530 432 1530 717 L1530 721 Q1530 1004 1335 1202 Q1140 1400 852 1401 Q564 1401 366 1201 Q170 1001 170 717 L170 713 Q170 430 364 232 ZM848 -25 Q539 -25 324 191 Q109 407 109 713 L109 717 Q109 1022 326 1240 Q543 1458 852 1458 Q1161 1458 1376 1242 Q1591 1026 1591 721 L1591 717 Q1591 412 1374 194 Q1157 -24 848 -25 Z" /><glyph glyph-name="servicemark" unicode="&#x2120;" d="M74 909 Q74 942 106 942 Q118 942 133 932 Q227 858 338 858 Q404 858 444 890 Q484 922 485 969 L485 971 Q484 1016 448 1042 Q412 1068 306 1092 Q200 1114 150 1154 Q100 1194 98 1270 L98 1272 Q98 1346 160 1395 Q222 1444 326 1444 Q430 1444 520 1382 Q538 1370 538 1354 Q538 1338 530 1328 Q520 1318 507 1317 Q494 1317 479 1327 Q407 1378 328 1378 Q248 1378 210 1348 Q172 1318 172 1276 L172 1274 Q172 1229 208 1202 Q244 1176 350 1152 Q456 1128 507 1087 Q559 1046 559 975 L559 973 Q558 893 494 843 Q430 793 336 793 Q195 793 92 877 Q74 893 74 909 ZM719 829 L719 1399 Q719 1434 754 1434 L764 1434 Q784 1434 797 1415 L1040 1044 L1284 1415 Q1296 1433 1317 1434 L1325 1434 Q1340 1434 1350 1424 Q1360 1414 1360 1399 L1360 829 Q1360 794 1324 794 Q1288 794 1288 829 L1288 1292 L1073 971 Q1060 950 1040 950 Q1020 950 1006 971 L791 1292 L791 829 Q791 794 754 795 Q740 795 729 805 Q719 815 719 829 Z" /><glyph glyph-name="trademark" unicode="&#x2122;" d="M682 829 L682 1399 Q682 1434 717 1434 L727 1434 Q747 1434 760 1415 L1004 1044 L1247 1415 Q1259 1433 1280 1434 L1288 1434 Q1302 1434 1312 1424 Q1322 1414 1323 1399 L1323 829 Q1323 794 1287 794 Q1251 794 1251 829 L1251 1292 L1036 971 Q1022 950 1003 950 Q984 950 969 971 L754 1292 L754 829 Q754 794 717 795 Q703 795 692 805 Q682 815 682 829 ZM260 829 L260 1364 L80 1364 Q66 1364 55 1374 Q45 1384 45 1398 Q45 1412 55 1423 Q65 1433 80 1434 L512 1434 Q526 1434 536 1424 Q546 1414 547 1399 Q547 1384 537 1374 Q527 1364 512 1364 L332 1364 L332 829 Q332 794 296 794 Q260 794 260 829 Z" /><glyph glyph-name="minus" unicode="&#x2212;" d="M1087 670 L182 670 Q159 670 145 685 Q131 700 131 720 Q131 740 145 756 Q159 772 182 772 L1087 772 Q1110 772 1124 757 Q1138 742 1138 722 Q1138 702 1124 686 Q1110 670 1087 670 Z" /><glyph glyph-name="f_f" unicode="&#xfb00;" d="M993 43 L993 952 L881 952 Q862 952 848 966 Q834 980 834 998 Q834 1016 848 1030 Q862 1044 881 1044 L993 1044 L993 1147 Q993 1327 1080 1414 Q1167 1501 1305 1501 Q1368 1501 1430 1487 Q1469 1481 1468 1440 Q1468 1387 1390 1401 Q1346 1409 1305 1409 Q1094 1409 1094 1145 L1094 1044 L1419 1044 Q1438 1044 1452 1031 Q1466 1018 1466 998 Q1466 978 1452 966 Q1438 953 1419 952 L1094 952 L1094 43 Q1094 20 1080 6 Q1066 -8 1044 -8 Q1024 -8 1008 6 Q992 20 993 43 ZM252 43 L252 952 L139 952 Q120 952 106 966 Q92 980 92 998 Q92 1016 106 1030 Q120 1044 139 1044 L252 1044 L252 1147 Q252 1327 339 1414 Q426 1501 563 1501 Q626 1501 688 1487 Q727 1481 727 1440 Q726 1387 648 1401 Q604 1409 563 1409 Q352 1409 352 1145 L352 1044 L678 1044 Q698 1044 712 1031 Q726 1018 725 998 Q725 978 711 966 Q697 953 678 952 L352 952 L352 43 Q352 20 338 6 Q324 -8 304 -8 Q284 -8 267 6 Q252 20 252 43 Z" /><glyph glyph-name="fi" unicode="&#xfb01;" d="M946 43 L946 1001 Q946 1024 960 1038 Q974 1052 996 1052 Q1018 1052 1032 1038 Q1046 1024 1047 1001 L1047 43 Q1048 20 1034 6 Q1020 -8 997 -8 Q974 -8 960 6 Q946 20 946 43 ZM934 1368 L934 1403 Q934 1430 951 1447 Q968 1464 995 1464 Q1022 1464 1040 1447 Q1058 1430 1059 1403 L1059 1368 Q1058 1341 1040 1324 Q1022 1307 995 1307 Q968 1307 951 1324 Q934 1341 934 1368 ZM252 43 L252 952 L139 952 Q120 952 106 966 Q92 980 92 998 Q92 1016 106 1030 Q120 1044 139 1044 L252 1044 L252 1147 Q252 1327 339 1414 Q426 1501 563 1501 Q626 1501 688 1487 Q727 1481 727 1440 Q726 1387 648 1401 Q604 1409 563 1409 Q352 1409 352 1145 L352 1044 L678 1044 Q698 1044 712 1031 Q726 1018 725 998 Q725 978 711 966 Q697 953 678 952 L352 952 L352 43 Q352 20 338 6 Q324 -8 304 -8 Q284 -8 267 6 Q252 20 252 43 Z" /><glyph glyph-name="fl" unicode="&#xfb02;" d="M946 43 L946 1452 Q946 1475 960 1489 Q974 1503 995 1503 Q1014 1503 1030 1489 Q1046 1475 1047 1452 L1047 43 Q1048 20 1034 6 Q1020 -8 997 -8 Q974 -8 960 6 Q946 20 946 43 ZM252 43 L252 952 L139 952 Q120 952 106 966 Q92 980 92 998 Q92 1016 106 1030 Q120 1044 139 1044 L252 1044 L252 1147 Q252 1327 339 1414 Q426 1501 563 1501 Q626 1501 688 1487 Q727 1481 727 1440 Q726 1387 648 1401 Q604 1409 563 1409 Q352 1409 352 1145 L352 1044 L678 1044 Q698 1044 712 1031 Q726 1018 725 998 Q725 978 711 966 Q697 953 678 952 L352 952 L352 43 Q352 20 338 6 Q324 -8 304 -8 Q284 -8 267 6 Q252 20 252 43 Z" /><glyph glyph-name="f_f_i" unicode="&#xfb03;" d="M1688 43 L1688 1001 Q1688 1024 1702 1038 Q1716 1052 1738 1052 Q1760 1052 1774 1038 Q1788 1024 1788 1001 L1788 43 Q1788 20 1775 6 Q1762 -8 1739 -8 Q1716 -8 1702 6 Q1688 20 1688 43 ZM1675 1368 L1675 1403 Q1674 1430 1692 1447 Q1710 1464 1737 1464 Q1764 1464 1782 1447 Q1800 1430 1800 1403 L1800 1368 Q1800 1341 1782 1324 Q1764 1307 1737 1307 Q1710 1307 1692 1324 Q1674 1341 1675 1368 ZM993 43 L993 952 L881 952 Q862 952 848 966 Q834 980 834 998 Q834 1016 848 1030 Q862 1044 881 1044 L993 1044 L993 1147 Q993 1327 1080 1414 Q1167 1501 1305 1501 Q1368 1501 1430 1487 Q1469 1481 1468 1440 Q1468 1387 1390 1401 Q1346 1409 1305 1409 Q1094 1409 1094 1145 L1094 1044 L1419 1044 Q1438 1044 1452 1031 Q1466 1018 1466 998 Q1466 978 1452 966 Q1438 953 1419 952 L1094 952 L1094 43 Q1094 20 1080 6 Q1066 -8 1044 -8 Q1024 -8 1008 6 Q992 20 993 43 ZM252 43 L252 952 L139 952 Q120 952 106 966 Q92 980 92 998 Q92 1016 106 1030 Q120 1044 139 1044 L252 1044 L252 1147 Q252 1327 339 1414 Q426 1501 563 1501 Q626 1501 688 1487 Q727 1481 727 1440 Q726 1387 648 1401 Q604 1409 563 1409 Q352 1409 352 1145 L352 1044 L678 1044 Q698 1044 712 1031 Q726 1018 725 998 Q725 978 711 966 Q697 953 678 952 L352 952 L352 43 Q352 20 338 6 Q324 -8 304 -8 Q284 -8 267 6 Q252 20 252 43 Z" /><glyph glyph-name="f_f_l" unicode="&#xfb04;" d="M1688 43 L1688 1452 Q1688 1475 1702 1489 Q1716 1503 1736 1503 Q1756 1503 1772 1489 Q1788 1475 1788 1452 L1788 43 Q1788 20 1775 6 Q1762 -8 1739 -8 Q1716 -8 1702 6 Q1688 20 1688 43 ZM993 43 L993 952 L881 952 Q862 952 848 966 Q834 980 834 998 Q834 1016 848 1030 Q862 1044 881 1044 L993 1044 L993 1147 Q993 1327 1080 1414 Q1167 1501 1305 1501 Q1368 1501 1430 1487 Q1469 1481 1468 1440 Q1468 1387 1390 1401 Q1346 1409 1305 1409 Q1094 1409 1094 1145 L1094 1044 L1419 1044 Q1438 1044 1452 1031 Q1466 1018 1466 998 Q1466 978 1452 966 Q1438 953 1419 952 L1094 952 L1094 43 Q1094 20 1080 6 Q1066 -8 1044 -8 Q1024 -8 1008 6 Q992 20 993 43 ZM252 43 L252 952 L139 952 Q120 952 106 966 Q92 980 92 998 Q92 1016 106 1030 Q120 1044 139 1044 L252 1044 L252 1147 Q252 1327 339 1414 Q426 1501 563 1501 Q626 1501 688 1487 Q727 1481 727 1440 Q726 1387 648 1401 Q604 1409 563 1409 Q352 1409 352 1145 L352 1044 L678 1044 Q698 1044 712 1031 Q726 1018 725 998 Q725 978 711 966 Q697 953 678 952 L352 952 L352 43 Q352 20 338 6 Q324 -8 304 -8 Q284 -8 267 6 Q252 20 252 43 Z" /></font>
</defs>
</svg>
