<?xml version="1.0" standalone="no"?><!DOCTYPE svg PUBLIC "-//W3C//DTD SVG 1.1//EN" "http://www.w3.org/Graphics/SVG/1.1/DTD/svg11.dtd" ><svg xmlns="http://www.w3.org/2000/svg"><metadata></metadata><defs><font id="H&FJ: Gotham Rounded Light Italic: 1.200" horiz-adv-x="2463"><font-face font-family="GothamRounded-LightItalic" font-weight="300" font-stretch="normal" units-per-em="2048" panose-1="0 0 0 0 0 0 0 0 0 0" ascent="1638" descent="-410" x-height="0" bbox="-264 -459 2464 2083" underline-thickness="102" underline-position="-153" unicode-range="U+0020-fb04" /><missing-glyph horiz-adv-x="1024" d="M512 492 L145 -307 L879 -307 L512 492 ZM922 1384 L569 614 L922 -156 L922 1384 ZM102 -156 L455 614 L102 1384 L102 -156 ZM145 1536 L512 737 L879 1536 L145 1536 ZM0 -410 L0 1638 L1024 1638 L1024 -410 L0 -410 Z" /><glyph glyph-name="space" unicode=" " d="" /><glyph glyph-name="exclam" unicode="!" d="M121 -8 Q92 -8 75 9 Q58 26 63 53 L84 129 Q100 182 158 182 Q187 182 204 164 Q221 146 215 119 L195 41 Q183 -8 121 -8 ZM489 1440 L506 1440 Q531 1440 544 1424 Q557 1408 549 1382 L252 395 Q244 368 221 369 Q186 369 197 410 L430 1395 Q440 1440 489 1440 Z" /><glyph glyph-name="quotedbl" unicode="&quot;" d="M610 905 Q573 905 588 946 L752 1395 Q766 1438 819 1438 L831 1438 Q862 1438 872 1420 Q882 1402 866 1368 L645 932 Q631 905 610 905 ZM242 905 Q205 905 219 946 L383 1395 Q397 1438 451 1438 L463 1438 Q494 1438 504 1420 Q514 1402 498 1368 L276 932 Q262 905 242 905 Z" /><glyph glyph-name="numbersign" unicode="#" d="M1196 1399 Q1212 1442 1245 1442 Q1278 1442 1288 1426 Q1298 1410 1290 1386 L1176 1059 L1370 1059 Q1390 1059 1404 1046 Q1418 1032 1419 1012 Q1419 992 1405 978 Q1391 964 1370 963 L1143 963 L973 479 L1192 479 Q1212 479 1226 466 Q1240 452 1241 432 Q1241 412 1227 398 Q1213 384 1192 383 L940 383 L819 35 Q803 -8 770 -8 Q706 -8 725 47 L842 383 L418 383 L297 35 Q283 -8 250 -8 Q217 -8 206 8 Q195 24 203 47 L319 383 L125 383 Q105 383 90 396 Q76 410 76 430 Q76 450 90 464 Q104 478 125 479 L352 479 L522 963 L303 963 Q283 963 268 976 Q254 990 254 1010 Q254 1030 268 1044 Q282 1058 303 1059 L555 1059 L674 1399 Q688 1442 721 1442 Q754 1442 765 1426 Q776 1410 768 1386 L653 1059 L1077 1059 L1196 1399 ZM453 479 L874 479 L1044 963 L621 963 L453 479 Z" /><glyph glyph-name="dollar" unicode="$" d="M381 1061 Q381 971 445 912 Q510 854 666 797 L811 1333 Q633 1358 507 1276 Q381 1194 381 1061 ZM995 395 Q995 482 934 544 Q873 606 723 666 L569 96 Q753 90 874 174 Q995 258 995 395 ZM29 217 Q6 240 6 262 Q6 284 20 298 Q34 312 56 313 Q78 313 96 295 Q248 137 481 104 L639 694 Q438 770 355 849 Q272 928 272 1051 Q272 1214 408 1324 Q544 1434 748 1434 Q781 1434 838 1430 L860 1513 Q872 1560 915 1561 Q938 1560 951 1544 Q964 1528 958 1503 L934 1415 Q1118 1378 1257 1260 Q1280 1242 1280 1216 Q1280 1190 1266 1178 Q1233 1146 1190 1180 Q1073 1286 899 1323 L750 766 Q938 698 1021 614 Q1104 530 1104 406 Q1104 230 958 115 Q812 0 582 0 L543 0 L500 -164 Q488 -211 444 -211 Q421 -211 408 -195 Q395 -179 401 -154 L446 10 Q194 51 29 217 Z" /><glyph glyph-name="percent" unicode="%" d="M228 -8 Q186 -8 184 33 Q184 53 207 76 L1507 1411 Q1540 1444 1560 1444 Q1602 1444 1604 1403 Q1604 1383 1581 1360 L281 25 Q248 -8 228 -8 ZM1495 408 Q1494 640 1294 639 Q1192 639 1108 529 Q1024 419 1024 305 Q1024 74 1224 74 Q1326 74 1411 184 Q1495 294 1495 408 ZM291 1028 Q292 797 492 797 Q594 796 678 906 Q762 1016 762 1130 Q762 1362 561 1362 Q458 1362 374 1252 Q290 1142 291 1028 ZM1204 -14 Q1081 -14 1002 71 Q923 156 924 279 Q924 455 1038 591 Q1153 727 1315 727 Q1438 727 1517 642 Q1596 557 1595 434 Q1594 258 1480 122 Q1366 -14 1204 -14 ZM471 709 Q348 709 269 794 Q190 879 190 1001 Q190 1178 305 1314 Q420 1450 582 1450 Q706 1450 784 1365 Q862 1280 862 1157 Q862 981 748 845 Q634 709 471 709 Z" /><glyph glyph-name="ampersand" unicode="&amp;" d="M464 -20 Q297 -20 180 76 Q63 172 63 342 Q63 512 191 638 Q319 764 565 825 Q469 981 469 1098 Q469 1252 581 1355 Q694 1458 846 1458 Q998 1458 1090 1376 Q1182 1294 1182 1161 Q1182 893 719 768 L1010 356 Q1116 475 1223 655 Q1248 694 1270 694 Q1292 694 1304 682 Q1316 670 1317 652 Q1317 634 1305 614 Q1182 415 1067 287 L1223 66 Q1239 43 1239 25 Q1239 -20 1192 -20 Q1166 -21 1143 12 L997 219 Q872 96 752 38 Q632 -20 464 -20 ZM485 74 Q723 74 942 289 L616 750 Q392 696 282 590 Q172 484 172 354 Q172 224 257 148 Q342 74 485 74 ZM1013 1310 Q948 1368 840 1368 Q732 1368 653 1289 Q484 1122 668 842 Q1078 948 1077 1157 Q1077 1251 1013 1310 Z" /><glyph glyph-name="quotesingle" unicode="&#39;" d="M242 905 Q205 905 219 946 L383 1395 Q397 1438 451 1438 L463 1438 Q494 1438 504 1420 Q514 1402 498 1368 L276 932 Q262 905 242 905 Z" /><glyph glyph-name="parenleft" unicode="(" d="M596 -207 Q612 -226 612 -242 Q612 -258 600 -269 Q588 -280 570 -280 Q552 -280 535 -264 Q203 53 203 446 Q203 757 401 1027 Q600 1296 975 1456 Q996 1464 1010 1464 Q1024 1464 1036 1453 Q1048 1442 1048 1419 Q1048 1396 1020 1384 Q678 1234 494 986 Q310 738 309 449 Q309 240 386 88 Q463 -64 596 -207 Z" /><glyph glyph-name="parenright" unicode=")" d="M317 1452 Q330 1464 348 1464 Q366 1464 383 1448 Q715 1131 715 737 Q715 426 516 157 Q317 -112 -57 -272 Q-98 -288 -114 -273 Q-131 -258 -131 -236 Q-131 -214 -102 -201 Q240 -51 424 197 Q608 445 608 735 Q608 944 531 1096 Q455 1248 322 1391 Q306 1409 305 1425 Q305 1440 317 1452 Z" /><glyph glyph-name="asterisk" unicode="*" d="M344 1026 Q328 1020 314 1020 Q300 1020 288 1031 Q277 1042 276 1059 Q276 1098 317 1104 L547 1147 L371 1294 Q351 1312 350 1333 Q350 1374 387 1374 Q410 1374 426 1356 L578 1182 L618 1395 Q628 1438 664 1438 Q686 1438 696 1422 Q706 1406 698 1382 L625 1169 L834 1243 Q848 1249 863 1249 Q878 1249 888 1237 Q898 1225 899 1208 Q899 1171 860 1165 L633 1122 L805 977 Q848 937 817 906 Q805 895 788 895 Q771 895 752 915 L602 1087 L561 870 Q555 833 520 834 Q497 834 485 850 Q473 866 481 887 L555 1100 L344 1026 Z" /><glyph glyph-name="plus" unicode="+" d="M561 223 Q536 224 524 242 Q512 260 518 283 L625 672 L233 672 Q213 672 199 686 Q184 700 184 720 Q184 740 198 756 Q212 770 233 770 L651 770 L758 1171 Q772 1218 806 1218 Q840 1218 852 1202 Q864 1184 858 1161 L754 770 L1145 770 Q1166 770 1180 757 Q1194 744 1194 724 Q1194 704 1180 688 Q1166 672 1145 672 L727 672 L618 272 Q604 223 561 223 Z" /><glyph glyph-name="comma" unicode="," d="M137 182 Q166 182 184 162 Q202 142 195 115 L170 23 Q141 -80 90 -132 Q39 -184 -43 -211 Q-59 -217 -71 -210 Q-82 -202 -82 -186 Q-82 -170 -61 -162 Q4 -133 38 -96 Q72 -59 84 0 Q64 2 51 18 Q39 34 45 61 L63 129 Q79 182 137 182 Z" /><glyph glyph-name="hyphen" unicode="-" d="M668 551 L215 551 Q192 551 175 568 Q158 585 158 608 Q158 631 175 648 Q192 665 215 666 L668 666 Q691 666 708 648 Q725 630 725 608 Q725 585 708 568 Q691 551 668 551 Z" /><glyph glyph-name="period" unicode="." d="M100 -8 Q71 -8 54 10 Q37 28 43 55 L63 129 Q79 182 137 182 Q166 182 184 164 Q202 146 195 119 L174 45 Q158 -8 100 -8 Z" /><glyph glyph-name="slash" unicode="/" d="M1248 1645 Q1268 1644 1280 1632 Q1292 1620 1292 1604 Q1292 1588 1272 1561 L-121 -242 Q-164 -296 -200 -260 Q-224 -234 -190 -188 L1202 1614 Q1227 1645 1248 1645 Z" /><glyph glyph-name="zero" unicode="0" d="M377 196 Q475 72 646 72 Q817 72 963 197 Q1108 322 1192 518 Q1276 714 1276 914 Q1276 1114 1178 1238 Q1080 1362 908 1362 Q736 1362 592 1237 Q446 1112 362 916 Q278 720 278 520 Q278 320 377 196 ZM528 1319 Q700 1458 917 1458 Q1134 1458 1260 1310 Q1386 1162 1386 926 Q1386 690 1292 472 Q1198 254 1026 114 Q854 -26 637 -25 Q420 -24 294 124 Q168 272 168 508 Q168 744 262 962 Q356 1180 528 1319 Z" /><glyph glyph-name="one" unicode="1" d="M250 -8 Q227 -8 212 9 Q197 26 205 53 L547 1327 L303 1249 Q284 1243 268 1243 Q252 1243 241 1256 Q230 1269 230 1296 Q230 1323 266 1335 L561 1434 Q600 1448 631 1448 L633 1448 Q684 1448 670 1391 L307 39 Q295 -8 250 -8 Z" /><glyph glyph-name="two" unicode="2" d="M930 0 L16 0 Q-35 0 -35 43 Q-35 70 -10 88 L836 745 Q967 846 1027 930 Q1087 1014 1087 1116 Q1088 1218 1006 1288 Q924 1358 780 1358 Q583 1358 399 1182 Q372 1159 352 1159 Q332 1159 318 1171 Q305 1183 305 1206 Q305 1229 328 1251 Q437 1350 542 1402 Q647 1454 784 1454 Q966 1454 1082 1359 Q1198 1264 1198 1112 Q1198 993 1125 893 Q1052 793 901 676 L160 102 L930 102 Q950 102 966 88 Q982 74 981 51 Q982 28 966 14 Q950 0 930 0 Z" /><glyph glyph-name="three" unicode="3" d="M43 213 Q31 232 31 254 Q31 276 45 290 Q59 304 83 305 Q107 305 125 274 Q252 71 518 72 Q708 72 834 173 Q958 274 958 420 Q958 566 851 636 Q743 705 557 705 L526 705 Q477 705 477 741 Q477 759 496 776 L1114 1333 L406 1333 Q383 1334 369 1348 Q354 1362 354 1384 Q354 1406 370 1419 Q386 1433 406 1434 L1247 1434 Q1290 1434 1290 1397 Q1290 1370 1264 1348 L647 791 Q829 784 950 692 Q1071 600 1071 440 Q1071 240 907 108 Q743 -24 512 -25 Q186 -25 43 213 Z" /><glyph glyph-name="four" unicode="4" d="M813 -8 Q790 -8 776 8 Q762 24 770 53 L850 350 L102 350 Q45 350 45 391 Q45 416 74 444 L1126 1423 Q1159 1452 1189 1452 Q1219 1452 1230 1434 Q1241 1416 1233 1391 L979 442 L1159 442 Q1178 442 1192 429 Q1206 416 1206 396 Q1206 376 1192 364 Q1178 351 1159 350 L954 350 L870 39 Q858 -8 813 -8 ZM203 442 L874 442 L1098 1274 L203 442 Z" /><glyph glyph-name="five" unicode="5" d="M68 182 Q45 206 45 230 Q45 254 59 268 Q73 282 98 282 Q123 282 143 256 Q282 68 522 68 Q725 68 855 186 Q985 304 985 458 Q985 612 889 694 Q794 776 644 776 Q494 776 344 705 Q305 686 273 708 Q241 730 258 782 L455 1384 Q471 1433 514 1434 L1186 1434 Q1209 1434 1223 1420 Q1237 1406 1237 1382 Q1237 1360 1223 1346 Q1209 1332 1186 1331 L537 1331 L360 805 Q406 832 492 852 Q578 872 641 872 Q850 872 973 764 Q1096 656 1096 462 Q1096 266 934 121 Q772 -24 506 -24 Q240 -24 68 182 Z" /><glyph glyph-name="six" unicode="6" d="M291 413 Q291 266 388 168 Q485 70 662 70 Q839 70 962 188 Q1084 307 1083 473 Q1083 600 991 696 Q899 792 719 792 Q539 792 415 677 Q291 561 291 413 ZM1300 1305 Q1323 1282 1323 1260 Q1323 1238 1309 1222 Q1295 1206 1273 1206 Q1251 1206 1233 1225 Q1092 1362 899 1362 Q706 1362 539 1194 Q439 1094 369 946 Q299 798 289 649 Q360 755 474 823 Q588 891 735 891 Q944 891 1069 768 Q1194 646 1194 458 Q1194 270 1038 123 Q882 -24 661 -24 Q440 -24 305 110 Q170 245 170 488 Q170 731 249 928 Q328 1125 457 1253 Q662 1458 902 1458 Q1142 1458 1300 1305 Z" /><glyph glyph-name="seven" unicode="7" d="M248 -8 Q203 -8 203 33 Q203 53 223 82 L1128 1331 L362 1331 Q340 1332 326 1346 Q312 1360 312 1382 Q312 1404 326 1419 Q340 1433 362 1434 L1233 1434 Q1276 1434 1276 1397 Q1276 1378 1251 1343 L307 29 Q278 -8 248 -8 Z" /><glyph glyph-name="eight" unicode="8" d="M308 157 Q422 76 616 76 Q810 76 934 165 Q1057 254 1057 385 Q1057 516 943 603 Q828 690 634 690 Q440 690 316 596 Q192 502 192 370 Q192 238 308 157 ZM512 858 Q612 778 785 778 Q958 778 1067 869 Q1176 960 1176 1081 Q1176 1202 1074 1280 Q972 1358 803 1358 Q633 1358 522 1272 Q412 1186 412 1062 Q412 938 512 858 ZM1007 96 Q846 -20 610 -20 Q374 -20 227 88 Q82 196 82 358 Q82 520 205 626 Q328 732 520 760 Q426 794 364 874 Q302 954 301 1065 Q300 1230 448 1342 Q596 1454 807 1454 Q1018 1454 1152 1352 Q1286 1250 1286 1096 Q1286 942 1180 843 Q1074 744 915 715 Q1020 678 1094 592 Q1168 506 1167 391 Q1167 213 1007 96 Z" /><glyph glyph-name="nine" unicode="9" d="M689 623 Q870 622 995 744 Q1120 866 1120 1016 Q1120 1166 1022 1264 Q924 1362 748 1362 Q572 1362 450 1240 Q328 1118 326 950 Q324 819 416 721 Q508 623 689 623 ZM954 178 Q750 -27 512 -27 Q274 -27 100 139 Q57 182 92 222 Q106 238 128 238 Q150 238 168 219 Q311 70 508 70 Q705 70 872 238 Q972 336 1041 481 Q1110 626 1122 776 Q952 524 672 524 Q463 524 338 649 Q213 774 215 966 Q217 1158 375 1307 Q533 1456 752 1456 Q971 1456 1106 1321 Q1241 1186 1241 944 Q1241 702 1162 504 Q1083 307 954 178 Z" /><glyph glyph-name="colon" unicode=":" d="M344 862 Q315 862 298 880 Q281 898 287 926 L307 999 Q323 1052 381 1053 Q410 1052 427 1034 Q444 1016 438 989 L418 915 Q402 862 344 862 ZM111 -8 Q82 -8 65 10 Q48 28 53 55 L74 129 Q90 182 147 182 Q176 182 194 164 Q212 146 205 119 L184 45 Q168 -8 111 -8 Z" /><glyph glyph-name="semicolon" unicode=";" d="M344 862 Q315 862 298 880 Q281 898 287 926 L307 999 Q323 1052 381 1053 Q410 1052 427 1034 Q444 1016 438 989 L418 915 Q402 862 344 862 ZM147 182 Q176 182 194 162 Q212 142 205 115 L180 23 Q151 -80 100 -132 Q49 -184 -33 -211 Q-49 -217 -60 -210 Q-71 -202 -71 -186 Q-71 -170 -51 -162 Q14 -133 48 -96 Q82 -59 94 0 Q74 2 61 18 Q49 34 55 61 L74 129 Q90 182 147 182 Z" /><glyph glyph-name="less" unicode="&lt;" d="M1268 1180 Q1268 1147 1229 1128 L305 713 L985 305 Q1016 290 1016 264 Q1016 238 1002 224 Q988 210 970 209 Q951 209 930 221 L211 653 Q172 678 172 709 L172 711 Q172 755 227 778 L1180 1212 Q1205 1224 1227 1225 Q1268 1225 1268 1180 Z" /><glyph glyph-name="equal" unicode="=" d="M205 438 Q182 438 167 454 Q152 470 152 490 Q152 512 168 527 Q184 542 205 543 L1044 543 Q1064 544 1080 528 Q1096 512 1098 490 Q1098 468 1082 454 Q1066 439 1044 438 L205 438 ZM328 899 Q305 899 290 914 Q274 930 274 950 Q274 970 290 986 Q306 1002 328 1004 L1167 1004 Q1188 1004 1204 988 Q1220 972 1220 950 Q1220 930 1206 914 Q1190 898 1167 899 L328 899 Z" /><glyph glyph-name="greater" unicode="&gt;" d="M147 217 Q106 217 106 262 Q106 295 145 313 L1069 729 L389 1137 Q358 1152 358 1178 Q358 1204 372 1218 Q386 1232 404 1233 Q424 1233 444 1221 L1163 788 Q1202 763 1202 733 L1202 731 Q1202 687 1147 664 L195 229 Q170 217 147 217 Z" /><glyph glyph-name="question" unicode="?" d="M334 -8 Q305 -8 288 9 Q271 26 276 53 L297 129 Q313 182 371 182 Q400 182 417 164 Q434 146 428 119 L408 41 Q396 -8 334 -8 ZM295 1198 Q270 1178 251 1178 Q232 1178 218 1191 Q205 1204 205 1224 Q205 1244 221 1260 Q422 1453 682 1452 Q870 1452 982 1352 Q1094 1252 1094 1094 Q1094 901 940 782 Q786 663 551 631 L471 397 Q461 366 436 367 L434 367 Q418 367 409 379 Q400 391 403 412 L453 670 Q459 713 502 719 Q719 742 852 839 Q985 936 985 1092 Q985 1216 897 1286 Q809 1356 674 1356 Q471 1356 295 1198 Z" /><glyph glyph-name="at" unicode="@" d="M995 -330 Q604 -330 370 -110 Q136 110 135 473 Q135 732 270 960 Q406 1188 638 1323 Q870 1458 1141 1458 Q1512 1458 1726 1253 Q1940 1048 1942 735 Q1942 465 1808 307 Q1674 149 1520 150 Q1414 150 1350 204 Q1287 258 1272 354 Q1110 145 891 145 Q754 144 662 238 Q570 332 569 485 Q569 704 723 866 Q877 1028 1067 1028 Q1190 1028 1269 966 Q1348 904 1382 807 L1434 975 Q1448 1018 1480 1018 Q1512 1018 1525 998 Q1538 978 1530 948 L1386 485 Q1352 374 1390 300 Q1428 226 1540 225 Q1652 225 1760 360 Q1870 495 1870 735 Q1870 1018 1673 1205 Q1476 1392 1141 1393 Q760 1392 484 1118 Q208 844 207 473 Q207 140 423 -62 Q639 -264 995 -264 Q1214 -264 1395 -182 Q1407 -176 1419 -176 Q1450 -176 1450 -209 Q1450 -230 1423 -242 Q1228 -330 995 -330 ZM911 242 Q1067 242 1200 374 Q1333 506 1333 666 Q1334 784 1262 858 Q1190 932 1071 932 Q912 932 798 801 Q684 670 684 489 Q684 374 748 308 Q812 242 911 242 Z" /><glyph glyph-name="A" unicode="a" d="M1354 74 Q1358 58 1358 40 Q1358 22 1344 8 Q1330 -8 1307 -8 Q1262 -8 1251 43 L1186 401 L340 401 L72 31 Q40 -8 18 -8 Q-29 -8 -31 39 Q-31 57 -18 70 L950 1397 Q989 1448 1030 1448 L1034 1448 Q1088 1448 1098 1397 L1354 74 ZM410 498 L1165 498 L1012 1327 L410 498 Z" /><glyph glyph-name="B" unicode="b" d="M719 0 L133 0 Q110 0 96 16 Q82 32 88 53 L444 1380 Q450 1403 468 1418 Q486 1433 506 1434 L989 1434 Q1186 1434 1303 1347 Q1420 1260 1420 1108 Q1420 956 1313 855 Q1207 754 1040 721 Q1163 688 1239 614 Q1315 540 1315 422 Q1315 236 1153 118 Q991 0 719 0 ZM725 98 Q948 98 1077 184 Q1206 270 1206 422 Q1206 542 1102 608 Q998 674 827 674 L360 674 L207 98 L725 98 ZM829 772 Q1046 772 1178 862 Q1309 952 1309 1098 Q1309 1215 1222 1275 Q1135 1335 979 1335 L539 1335 L387 772 L829 772 Z" /><glyph glyph-name="C" unicode="c" d="M774 -27 Q528 -27 358 132 Q188 292 188 538 Q188 784 302 993 Q416 1202 615 1330 Q815 1458 1044 1458 Q1212 1458 1340 1388 Q1468 1318 1540 1202 Q1567 1153 1538 1122 Q1524 1108 1498 1109 Q1472 1110 1458 1133 Q1388 1242 1291 1302 Q1194 1362 1038 1362 Q735 1362 517 1116 Q299 870 299 559 Q299 336 435 204 Q571 72 784 72 Q1040 72 1241 260 Q1280 299 1315 264 Q1329 250 1329 229 Q1329 208 1309 188 Q1080 -27 774 -27 Z" /><glyph glyph-name="D" unicode="d" d="M506 1434 L780 1434 Q1145 1434 1337 1241 Q1495 1083 1495 831 Q1495 499 1272 276 Q1142 144 952 72 Q762 0 543 0 L133 0 Q110 0 96 16 Q82 32 88 53 L444 1380 Q450 1402 468 1418 Q486 1434 506 1434 ZM557 98 Q946 98 1192 344 Q1385 537 1384 823 Q1384 1044 1251 1174 Q1089 1336 774 1335 L539 1335 L207 98 L557 98 Z" /><glyph glyph-name="E" unicode="e" d="M1065 0 L133 0 Q110 0 96 16 Q82 32 88 53 L444 1380 Q450 1403 468 1418 Q486 1433 506 1434 L1413 1434 Q1434 1434 1448 1420 Q1462 1406 1462 1384 Q1462 1364 1448 1350 Q1434 1336 1413 1335 L539 1335 L387 772 L1143 772 Q1164 772 1178 758 Q1192 744 1192 724 Q1192 704 1178 688 Q1164 674 1143 674 L360 674 L207 98 L1065 98 Q1086 98 1100 84 Q1114 70 1114 50 Q1114 30 1100 14 Q1085 0 1065 0 Z" /><glyph glyph-name="F" unicode="f" d="M506 1434 L1413 1434 Q1434 1434 1448 1420 Q1462 1406 1462 1384 Q1462 1364 1448 1350 Q1434 1336 1413 1335 L539 1335 L381 748 L1137 748 Q1157 748 1171 734 Q1186 720 1186 698 Q1186 678 1172 664 Q1158 650 1137 649 L354 649 L193 45 Q188 22 170 7 Q152 -8 130 -8 Q108 -8 94 8 Q80 24 86 45 L444 1380 Q450 1402 468 1418 Q486 1434 506 1434 Z" /><glyph glyph-name="G" unicode="g" d="M1278 102 Q1053 -27 797 -27 Q541 -27 367 139 Q193 305 193 578 Q194 798 306 1000 Q418 1202 622 1330 Q826 1458 1067 1458 Q1384 1458 1554 1245 Q1591 1199 1562 1164 Q1549 1149 1524 1149 Q1499 1149 1483 1171 Q1350 1361 1057 1362 Q848 1362 672 1247 Q496 1132 400 954 Q304 776 303 582 Q303 344 444 207 Q585 70 820 70 Q1055 70 1231 186 L1362 645 L934 645 Q914 645 899 659 Q885 674 885 694 Q885 714 899 728 Q913 742 934 743 L1430 743 Q1455 742 1469 724 Q1483 706 1477 686 L1329 170 Q1317 125 1278 102 Z" /><glyph glyph-name="H" unicode="h" d="M1147 -8 Q1124 -8 1109 9 Q1094 26 1102 53 L1268 672 L360 672 L190 39 Q178 -8 133 -8 Q110 -8 95 9 Q80 26 88 53 L449 1395 Q461 1442 506 1442 Q529 1442 544 1424 Q559 1406 551 1380 L387 770 L1294 770 L1462 1395 Q1474 1442 1520 1442 Q1543 1442 1558 1424 Q1573 1406 1565 1380 L1204 39 Q1192 -8 1147 -8 Z" /><glyph glyph-name="I" unicode="i" d="M147 -8 Q124 -8 110 9 Q96 26 102 53 L463 1395 Q475 1442 520 1442 Q543 1442 558 1424 Q573 1406 565 1380 L205 39 Q193 -8 147 -8 Z" /><glyph glyph-name="J" unicode="j" d="M401 -20 Q114 -20 4 258 Q-2 274 -2 294 Q-2 314 12 328 Q26 342 55 342 Q84 342 98 301 Q178 76 397 76 Q702 76 817 496 L1059 1395 Q1071 1442 1116 1442 Q1139 1442 1154 1424 Q1169 1406 1161 1380 L920 481 Q858 240 726 110 Q594 -20 401 -20 Z" /><glyph glyph-name="K" unicode="k" d="M133 -8 Q110 -8 95 9 Q80 26 88 53 L449 1395 Q461 1442 506 1442 Q529 1442 544 1424 Q559 1406 551 1380 L315 502 L1450 1423 Q1470 1442 1492 1442 Q1514 1442 1528 1428 Q1542 1414 1542 1392 Q1542 1370 1518 1352 L823 793 L1212 82 Q1241 34 1210 6 Q1196 -8 1168 -8 Q1140 -8 1118 29 L735 731 L276 358 L190 39 Q178 -8 133 -8 Z" /><glyph glyph-name="L" unicode="l" d="M993 0 L133 0 Q110 0 96 16 Q82 32 88 53 L449 1395 Q461 1442 506 1442 Q529 1442 544 1424 Q559 1406 551 1380 L207 98 L993 98 Q1014 98 1028 84 Q1042 70 1042 50 Q1042 30 1028 14 Q1013 0 993 0 Z" /><glyph glyph-name="M" unicode="m" d="M1745 1440 L1747 1440 Q1776 1440 1789 1422 Q1802 1404 1794 1374 L1436 39 Q1424 -8 1376 -8 Q1353 -8 1339 8 Q1325 24 1333 53 L1653 1245 L924 481 Q895 452 868 452 Q841 452 829 483 L510 1245 L188 41 Q176 -8 131 -8 Q108 -8 94 8 Q80 24 88 53 L444 1380 Q460 1439 504 1440 L506 1440 Q545 1440 561 1399 L895 586 L1663 1397 Q1704 1440 1745 1440 Z" /><glyph glyph-name="N" unicode="n" d="M1585 1442 Q1608 1442 1622 1426 Q1636 1410 1628 1380 L1268 39 Q1256 -6 1219 -6 L1217 -6 Q1184 -6 1161 37 L520 1282 L186 39 Q174 -8 131 -8 Q108 -8 94 8 Q80 24 88 53 L446 1386 Q460 1439 508 1440 L512 1440 Q553 1440 582 1386 L1202 178 L1530 1395 Q1542 1442 1585 1442 Z" /><glyph glyph-name="O" unicode="o" d="M307 577 Q306 366 448 218 Q590 70 801 70 Q1012 70 1178 180 Q1344 290 1437 468 Q1530 645 1530 855 Q1530 1065 1389 1213 Q1248 1362 1036 1362 Q824 1362 659 1251 Q493 1140 400 964 Q307 788 307 577 ZM815 -27 Q547 -28 372 150 Q197 328 197 590 Q197 811 306 1012 Q416 1214 607 1336 Q798 1458 1022 1458 Q1290 1458 1465 1281 Q1640 1104 1640 842 Q1640 621 1530 420 Q1420 219 1230 96 Q1038 -27 815 -27 Z" /><glyph glyph-name="P" unicode="p" d="M694 633 Q983 632 1138 740 Q1293 848 1292 1044 Q1292 1161 1219 1235 Q1119 1335 903 1335 L539 1335 L350 633 L694 633 ZM133 -8 Q110 -8 95 9 Q80 26 88 53 L444 1380 Q450 1403 468 1418 Q486 1433 506 1434 L905 1434 Q1171 1434 1300 1305 Q1398 1207 1399 1049 Q1398 807 1208 672 Q1018 537 690 537 L326 537 L190 39 Q178 -8 133 -8 Z" /><glyph glyph-name="Q" unicode="q" d="M803 -27 Q547 -28 372 150 Q197 328 197 590 Q197 811 306 1012 Q416 1214 607 1336 Q798 1458 1022 1458 Q1290 1458 1465 1281 Q1640 1104 1640 842 Q1640 658 1560 484 Q1480 310 1341 184 L1458 57 Q1483 28 1483 10 Q1483 -37 1434 -37 Q1406 -37 1386 -12 L1270 125 Q1059 -27 803 -27 ZM1530 842 Q1530 1065 1389 1213 Q1248 1362 1036 1362 Q824 1362 659 1251 Q493 1140 400 964 Q307 788 307 577 Q306 366 448 218 Q590 70 808 70 Q1026 70 1204 199 L1004 422 Q977 453 977 471 Q977 522 1026 522 Q1051 523 1071 498 L1276 258 Q1394 370 1462 524 Q1530 678 1530 842 Z" /><glyph glyph-name="R" unicode="r" d="M795 690 Q1100 690 1245 836 Q1341 932 1341 1052 Q1341 1172 1278 1237 Q1180 1335 969 1335 L539 1335 L365 690 L795 690 ZM133 -8 Q110 -8 95 9 Q80 26 88 53 L444 1380 Q450 1403 468 1418 Q486 1433 506 1434 L973 1434 Q1231 1434 1358 1307 Q1448 1217 1448 1059 Q1448 901 1315 768 Q1182 635 899 604 L1169 86 Q1197 33 1168 6 Q1153 -8 1124 -8 Q1095 -8 1079 25 L784 594 L340 594 L190 39 Q178 -8 133 -8 Z" /><glyph glyph-name="S" unicode="s" d="M623 76 Q799 76 918 165 Q1037 254 1036 389 Q1036 483 967 547 Q896 610 696 688 Q496 766 404 848 Q313 930 313 1059 Q312 1226 456 1340 Q600 1454 827 1454 Q1097 1454 1286 1278 Q1309 1255 1309 1234 Q1310 1214 1294 1198 Q1278 1182 1255 1182 Q1232 1182 1212 1202 Q1056 1358 817 1358 Q639 1358 530 1272 Q422 1186 422 1078 Q422 970 500 908 Q578 846 774 771 Q970 696 1057 611 Q1145 526 1145 397 Q1145 221 993 100 Q841 -21 612 -20 Q274 -20 74 211 Q36 263 68 293 Q82 307 106 307 Q130 307 147 283 Q326 76 623 76 Z" /><glyph glyph-name="T" unicode="t" d="M487 -8 Q464 -8 450 9 Q436 26 442 53 L786 1335 L342 1335 Q322 1336 308 1350 Q294 1364 293 1384 Q293 1404 307 1418 Q321 1432 342 1434 L1364 1434 Q1384 1434 1398 1420 Q1412 1406 1413 1384 Q1413 1364 1399 1350 Q1385 1336 1364 1335 L893 1335 L545 39 Q533 -8 487 -8 Z" /><glyph glyph-name="U" unicode="u" d="M197 428 Q197 539 225 649 L424 1395 Q436 1442 481 1442 Q504 1442 519 1424 Q534 1406 526 1380 L319 600 Q301 526 301 436 Q302 274 408 174 Q514 74 719 74 Q924 74 1064 214 Q1204 354 1272 602 L1485 1395 Q1497 1442 1542 1442 Q1565 1442 1580 1424 Q1595 1406 1587 1380 L1372 580 Q1300 314 1145 158 Q965 -22 714 -22 Q463 -22 330 102 Q197 227 197 428 Z" /><glyph glyph-name="V" unicode="v" d="M582 -14 L578 -14 Q531 -14 522 39 L303 1360 Q299 1380 299 1396 Q299 1412 314 1427 Q329 1441 352 1442 Q401 1442 408 1391 L604 115 L1497 1403 Q1524 1442 1556 1442 Q1601 1442 1602 1401 Q1601 1381 1585 1358 L659 39 Q622 -14 582 -14 Z" /><glyph glyph-name="W" unicode="w" d="M1325 1442 L1327 1442 Q1368 1442 1372 1399 L1448 158 L2220 1401 Q2245 1442 2284 1442 Q2302 1442 2314 1430 Q2326 1418 2326 1399 Q2326 1380 2314 1362 L1481 37 Q1449 -16 1413 -16 L1409 -16 Q1366 -16 1362 37 L1280 1235 L555 37 Q524 -16 487 -16 L483 -16 Q440 -16 436 37 L313 1360 L311 1389 Q312 1412 328 1426 Q344 1440 367 1442 Q418 1442 422 1386 L526 158 L1270 1407 Q1290 1442 1325 1442 Z" /><glyph glyph-name="X" unicode="x" d="M1444 1442 Q1491 1442 1491 1397 Q1491 1376 1470 1356 L829 723 L1178 82 Q1192 53 1192 36 Q1192 20 1178 6 Q1164 -8 1137 -8 Q1110 -8 1096 23 L754 662 L113 23 Q82 -8 60 -8 Q15 -8 12 35 Q12 58 33 78 L702 741 L367 1352 Q341 1406 367 1428 Q382 1442 408 1442 Q434 1442 449 1411 L778 803 L1391 1411 Q1422 1442 1444 1442 Z" /><glyph glyph-name="Y" unicode="y" d="M539 -8 Q516 -8 501 9 Q486 26 494 53 L635 582 L295 1354 Q287 1372 287 1393 Q287 1414 301 1428 Q315 1442 344 1442 Q373 1442 393 1395 L707 664 L1432 1413 Q1461 1442 1484 1442 Q1508 1442 1522 1428 Q1536 1414 1536 1394 Q1536 1372 1511 1348 L733 555 L596 39 Q584 -8 539 -8 Z" /><glyph glyph-name="Z" unicode="z" d="M410 1337 Q390 1336 376 1350 Q362 1364 360 1384 Q360 1404 374 1418 Q388 1432 410 1434 L1411 1434 Q1452 1434 1452 1399 L1452 1397 Q1452 1370 1423 1341 L154 96 L1065 96 Q1086 96 1100 83 Q1114 70 1114 50 Q1114 30 1100 14 Q1086 0 1065 0 L23 0 Q-18 0 -18 35 L-18 37 Q-19 63 10 92 L1280 1337 L410 1337 Z" /><glyph glyph-name="bracketleft" unicode="[" d="M1006 1356 L561 1356 L147 -188 L571 -188 Q586 -188 598 -200 Q610 -212 610 -227 Q610 -242 598 -254 Q586 -266 571 -266 L98 -266 Q69 -266 55 -249 Q41 -232 49 -205 L475 1380 Q487 1433 545 1434 L1006 1434 Q1020 1434 1032 1422 Q1044 1410 1044 1395 Q1044 1380 1032 1368 Q1020 1356 1006 1356 Z" /><glyph glyph-name="backslash" unicode="\" d="M791 -270 Q754 -270 745 -227 L315 1573 Q311 1589 311 1603 Q312 1618 324 1630 Q336 1642 354 1642 Q391 1642 399 1599 L829 -201 Q839 -240 824 -255 Q809 -270 791 -270 Z" /><glyph glyph-name="bracketright" unicode="]" d="M367 -266 L-94 -266 Q-110 -266 -122 -254 Q-133 -242 -133 -228 Q-133 -214 -122 -201 Q-111 -189 -94 -188 L350 -188 L764 1356 L340 1356 Q324 1356 312 1368 Q301 1380 301 1394 Q301 1408 312 1421 Q323 1433 340 1434 L813 1434 Q842 1434 856 1416 Q870 1398 862 1372 L436 -213 Q422 -266 367 -266 Z" /><glyph glyph-name="asciicircum" unicode="^" d="M743 1448 L752 1448 Q791 1448 807 1411 L981 1051 Q989 1035 989 1026 Q989 1001 949 1001 Q909 1001 893 1034 L735 1352 L403 1032 Q370 1001 334 1001 Q298 1001 297 1026 Q297 1041 315 1059 L674 1411 Q711 1448 743 1448 Z" /><glyph glyph-name="underscore" unicode="_" d="M-219 -328 Q-236 -328 -250 -314 Q-264 -300 -264 -283 Q-264 -266 -251 -252 Q-238 -238 -219 -238 L1018 -238 Q1036 -238 1050 -251 Q1064 -264 1063 -282 Q1063 -300 1050 -314 Q1037 -327 1018 -328 L-219 -328 Z" /><glyph glyph-name="grave" unicode="`" d="M614 1401 Q600 1418 600 1434 Q600 1450 626 1465 Q652 1480 688 1480 Q724 1480 737 1444 L811 1255 Q817 1237 817 1231 Q817 1212 787 1212 Q757 1212 739 1237 L614 1401 Z" /><glyph glyph-name="a" unicode="a" d="M815 -8 Q792 -8 780 8 Q768 24 774 49 L809 180 Q637 -25 389 -25 Q248 -25 147 52 Q47 129 47 268 Q47 440 178 544 Q310 648 506 647 Q702 647 920 588 L928 616 Q942 669 942 721 Q942 840 861 903 Q780 966 636 966 Q492 966 362 924 Q346 920 336 920 Q295 920 295 965 Q295 1000 334 1012 Q481 1061 653 1061 Q825 1061 933 974 Q1041 887 1040 735 Q1040 676 1020 598 L870 39 Q858 -8 815 -8 ZM222 126 Q290 68 426 68 Q562 68 698 165 Q834 262 874 416 L899 508 Q702 557 525 557 Q348 557 251 480 Q154 403 154 294 Q154 185 222 126 Z" /><glyph glyph-name="b" unicode="b" d="M635 68 Q842 68 981 232 Q1120 396 1120 616 Q1120 776 1030 876 Q940 976 797 975 Q600 975 437 807 Q274 639 274 432 Q274 278 376 173 Q478 68 635 68 ZM639 -27 Q477 -27 373 56 Q269 139 223 266 L162 39 Q150 -8 106 -8 Q84 -8 72 8 Q60 24 66 49 L442 1456 Q454 1503 498 1503 Q520 1503 532 1487 Q544 1471 539 1446 L375 840 Q568 1069 809 1069 Q991 1069 1110 945 Q1229 821 1229 629 Q1229 355 1053 164 Q877 -27 639 -27 Z" /><glyph glyph-name="c" unicode="c" d="M940 127 Q764 -25 570 -25 Q376 -25 239 98 Q103 221 102 426 Q102 684 286 877 Q470 1070 719 1070 Q969 1070 1102 862 Q1116 839 1116 821 Q1116 803 1103 790 Q1090 776 1065 776 Q1040 776 1022 803 Q904 975 708 975 Q512 975 361 811 Q210 647 211 432 Q211 264 314 167 Q417 70 572 70 Q727 70 877 197 Q893 211 913 211 Q934 211 946 198 Q958 185 958 165 Q958 145 940 127 Z" /><glyph glyph-name="d" unicode="d" d="M965 -8 Q942 -8 930 8 Q918 24 924 49 L963 203 Q770 -26 530 -27 Q348 -27 229 97 Q110 221 111 414 Q111 688 287 878 Q463 1068 700 1069 Q862 1069 966 986 Q1070 903 1116 776 L1298 1456 Q1310 1503 1354 1503 Q1377 1503 1389 1487 Q1401 1471 1395 1446 L1020 39 Q1008 -8 965 -8 ZM543 68 Q740 68 902 236 Q1064 404 1065 610 Q1065 764 964 869 Q863 974 705 975 Q498 975 358 811 Q218 647 219 426 Q220 266 310 167 Q400 68 543 68 Z" /><glyph glyph-name="e" unicode="e" d="M307 165 Q403 70 572 70 Q741 70 887 188 Q928 220 956 190 Q968 178 968 156 Q968 134 948 119 Q778 -24 567 -24 Q356 -24 229 98 Q102 221 102 414 Q102 666 280 868 Q458 1070 707 1069 Q895 1069 998 954 Q1101 839 1102 670 Q1102 602 1087 535 Q1077 488 1026 487 L215 487 Q211 442 211 418 Q211 260 307 165 ZM999 664 Q999 799 925 888 Q850 977 694 977 Q538 976 408 862 Q280 748 233 578 L991 578 Q999 615 999 664 Z" /><glyph glyph-name="f" unicode="f" d="M168 -8 Q145 -8 133 8 Q121 24 127 49 L369 952 L270 952 Q250 952 237 966 Q224 980 224 998 Q224 1016 238 1030 Q252 1044 270 1044 L393 1044 L434 1196 Q514 1495 768 1495 Q858 1495 936 1464 Q977 1448 977 1419 Q978 1390 958 1376 Q938 1362 911 1374 Q835 1405 764 1405 Q588 1405 528 1174 L494 1044 L817 1044 Q836 1044 850 1031 Q864 1018 864 998 Q864 978 850 966 Q836 953 817 952 L469 952 L223 39 Q211 -8 168 -8 Z" /><glyph glyph-name="g" unicode="g" d="M1235 1053 Q1258 1052 1270 1036 Q1282 1020 1276 995 L1047 129 Q992 -74 883 -182 Q733 -332 478 -332 Q223 -332 20 -164 Q-2 -146 -2 -122 Q-2 -98 11 -84 Q24 -70 46 -70 Q68 -70 86 -84 Q266 -238 479 -238 Q692 -238 809 -121 Q901 -29 952 154 L989 285 Q794 78 559 78 Q383 78 253 190 Q123 302 123 483 Q123 735 303 902 Q483 1069 715 1069 Q1001 1070 1122 791 L1180 1006 Q1192 1053 1235 1053 ZM578 172 Q774 172 926 316 Q1078 460 1077 639 Q1077 772 976 872 Q875 972 698 972 Q520 972 376 836 Q232 699 231 489 Q231 340 334 256 Q437 172 578 172 Z" /><glyph glyph-name="h" unicode="h" d="M893 -8 Q870 -8 858 8 Q846 24 852 49 L997 598 Q1013 659 1014 727 Q1014 844 942 912 Q870 980 739 979 Q608 979 481 868 Q354 757 309 590 L162 39 Q150 -8 106 -8 Q84 -8 72 8 Q60 24 66 49 L442 1456 Q454 1503 498 1503 Q520 1503 532 1487 Q544 1471 539 1446 L379 850 Q561 1069 774 1069 Q930 1069 1023 978 Q1116 887 1116 737 Q1117 680 1094 590 L948 39 Q936 -8 893 -8 Z" /><glyph glyph-name="i" unicode="i" d="M121 -8 Q98 -8 86 8 Q74 24 80 49 L336 1006 Q348 1053 391 1053 Q414 1052 426 1036 Q438 1020 432 995 L176 39 Q164 -8 121 -8 ZM473 1307 Q444 1307 429 1323 Q414 1339 420 1364 L434 1417 Q446 1464 504 1464 Q533 1464 548 1448 Q563 1432 557 1407 L543 1354 Q531 1307 473 1307 Z" /><glyph glyph-name="j" unicode="j" d="M473 1307 Q444 1307 429 1323 Q414 1339 420 1364 L434 1417 Q446 1464 504 1464 Q533 1464 548 1448 Q563 1432 557 1407 L543 1354 Q531 1307 473 1307 ZM391 1053 Q414 1052 426 1036 Q438 1020 432 995 L137 -106 Q108 -215 45 -274 Q-18 -333 -106 -334 Q-235 -334 -236 -279 Q-236 -226 -168 -234 Q-133 -238 -113 -240 Q0 -240 39 -98 L336 1006 Q348 1053 391 1053 Z" /><glyph glyph-name="k" unicode="k" d="M1143 1012 Q1143 987 1120 971 L631 578 L899 80 Q913 55 913 38 Q913 20 899 6 Q885 -8 857 -8 Q829 -8 811 27 L547 516 L219 254 L162 39 Q150 -8 106 -8 Q84 -8 72 8 Q60 24 66 49 L442 1456 Q454 1503 498 1503 Q521 1503 533 1487 Q545 1471 539 1446 L256 387 L1057 1036 Q1077 1052 1100 1053 Q1143 1053 1143 1012 Z" /><glyph glyph-name="l" unicode="l" d="M121 -8 Q98 -8 86 8 Q74 24 80 49 L457 1456 Q469 1503 512 1503 Q535 1503 547 1487 Q559 1471 553 1446 L176 39 Q164 -8 121 -8 Z" /><glyph glyph-name="m" unicode="m" d="M718 979 Q598 979 475 867 Q352 755 309 590 L162 39 Q150 -8 106 -8 Q84 -8 72 8 Q60 24 66 49 L319 1006 Q331 1053 375 1053 Q398 1052 410 1036 Q422 1020 416 995 L379 850 Q467 959 552 1014 Q637 1069 761 1069 Q885 1069 963 994 Q1041 919 1059 813 Q1215 1069 1497 1069 Q1638 1069 1730 976 Q1822 883 1823 737 Q1823 696 1796 590 L1651 39 Q1639 -8 1595 -8 Q1572 -8 1560 8 Q1548 24 1554 49 L1700 598 Q1716 659 1716 727 Q1716 842 1648 910 Q1580 978 1461 979 Q1340 979 1218 867 Q1096 755 1053 590 L907 39 Q895 -8 852 -8 Q829 -8 817 8 Q805 24 811 49 L956 598 Q972 659 973 727 Q973 842 905 910 Q838 978 718 979 Z" /><glyph glyph-name="n" unicode="n" d="M375 1053 Q398 1052 410 1036 Q422 1020 416 995 L379 850 Q561 1069 774 1069 Q930 1069 1023 978 Q1116 887 1116 737 Q1116 680 1094 590 L948 39 Q936 -8 893 -8 Q870 -8 858 8 Q846 24 852 49 L997 598 Q1013 659 1014 727 Q1014 844 942 912 Q870 980 739 979 Q608 979 481 868 Q354 757 309 590 L162 39 Q150 -8 106 -8 Q84 -8 72 8 Q60 24 66 49 L319 1006 Q332 1053 375 1053 Z" /><glyph glyph-name="o" unicode="o" d="M213 442 Q214 268 314 169 Q414 70 594 70 Q774 70 928 230 Q1082 390 1081 602 Q1081 776 981 876 Q881 976 715 975 Q516 975 364 813 Q212 651 213 442 ZM569 -25 Q362 -25 233 105 Q104 235 104 438 Q104 688 290 878 Q476 1068 725 1069 Q932 1069 1061 939 Q1190 809 1190 606 Q1190 352 1002 164 Q814 -24 569 -25 Z" /><glyph glyph-name="p" unicode="p" d="M375 1053 Q398 1052 410 1036 Q422 1020 416 995 L375 840 Q568 1069 809 1069 Q991 1069 1110 945 Q1229 821 1229 629 Q1229 354 1053 164 Q877 -26 639 -27 Q477 -27 373 56 Q269 139 223 266 L74 -289 Q62 -336 18 -336 Q-4 -336 -16 -320 Q-28 -304 -23 -279 L319 1006 Q332 1053 375 1053 ZM797 975 Q600 975 437 807 Q274 639 274 432 Q274 278 376 173 Q478 68 635 68 Q842 68 981 232 Q1120 396 1120 616 Q1120 776 1030 876 Q940 976 797 975 Z" /><glyph glyph-name="q" unicode="q" d="M705 975 Q498 975 358 811 Q218 647 219 426 Q219 266 309 167 Q399 68 543 68 Q740 68 902 237 Q1064 406 1065 612 Q1065 766 964 870 Q863 974 705 975 ZM700 1069 Q864 1069 968 986 Q1072 903 1116 778 L1178 1006 Q1190 1053 1233 1053 Q1256 1052 1268 1036 Q1280 1020 1274 995 L932 -289 Q920 -336 877 -336 Q854 -336 842 -320 Q830 -304 836 -279 L965 205 Q772 -26 530 -27 Q348 -27 229 97 Q110 221 111 414 Q110 688 286 878 Q462 1068 700 1069 Z" /><glyph glyph-name="r" unicode="r" d="M829 1061 Q882 1061 883 1010 Q883 955 809 948 Q633 932 480 795 Q327 658 266 428 L162 39 Q150 -8 106 -8 Q84 -8 72 8 Q60 24 66 49 L319 1006 Q331 1053 375 1053 Q398 1052 410 1036 Q422 1020 416 995 L352 748 Q446 889 578 975 Q710 1061 829 1061 Z" /><glyph glyph-name="s" unicode="s" d="M457 70 Q561 70 644 128 Q727 186 727 276 Q727 338 679 386 Q632 434 488 487 Q344 540 275 602 Q206 664 207 764 Q207 891 314 979 Q422 1067 594 1067 Q684 1067 780 1033 Q961 969 961 909 Q962 889 948 876 Q934 862 914 862 Q894 862 881 872 Q734 974 596 974 Q458 974 386 918 Q313 861 313 789 Q313 717 360 674 Q407 630 556 572 Q706 514 770 451 Q834 388 834 293 Q834 158 719 68 Q604 -22 444 -23 Q217 -23 37 125 Q12 144 12 168 Q12 192 26 206 Q40 220 58 221 Q77 221 104 201 Q262 70 457 70 Z" /><glyph glyph-name="t" unicode="t" d="M592 49 Q592 -18 402 -18 Q310 -18 242 34 Q172 86 172 188 Q172 235 184 289 L362 952 L264 952 Q244 952 230 966 Q216 980 217 998 Q217 1016 231 1030 Q245 1044 264 1044 L387 1044 L467 1339 Q479 1386 522 1386 Q545 1386 557 1370 Q569 1354 563 1329 L487 1044 L795 1044 Q815 1044 828 1031 Q842 1018 842 998 Q842 978 828 966 Q814 953 795 952 L463 952 L285 287 Q275 242 274 199 Q274 74 444 74 Q487 74 522 84 Q590 103 592 49 Z" /><glyph glyph-name="u" unicode="u" d="M872 -8 Q850 -8 838 8 Q826 24 831 49 L868 195 Q686 -24 473 -25 Q317 -26 224 66 Q131 158 131 307 Q131 364 154 455 L299 1006 Q311 1053 354 1053 Q377 1052 389 1036 Q401 1020 395 995 L250 446 Q234 385 233 317 Q233 200 305 132 Q377 64 508 66 Q639 66 766 176 Q893 286 938 455 L1085 1006 Q1097 1053 1141 1053 Q1164 1052 1176 1036 Q1188 1020 1182 995 L928 39 Q915 -8 872 -8 Z" /><glyph glyph-name="v" unicode="v" d="M416 -14 L412 -14 Q369 -14 360 29 L197 963 Q193 984 193 1004 Q193 1024 207 1038 Q221 1052 244 1053 Q291 1053 297 999 L436 113 L1055 1012 Q1082 1053 1107 1053 Q1132 1054 1144 1040 Q1156 1026 1157 1006 Q1157 986 1143 967 L479 29 Q448 -14 416 -14 Z" /><glyph glyph-name="w" unicode="w" d="M977 1053 L979 1053 Q1020 1053 1024 1008 L1092 135 L1636 1014 Q1659 1053 1690 1053 Q1733 1053 1733 1012 Q1733 994 1720 973 L1122 27 Q1097 -14 1063 -14 L1061 -14 Q1014 -14 1008 43 L940 887 L410 29 Q385 -14 350 -14 L348 -14 Q303 -14 299 43 L209 969 L207 997 Q207 1052 260 1053 Q305 1053 309 997 L381 135 L920 1016 Q945 1053 977 1053 Z" /><glyph glyph-name="x" unicode="x" d="M48 -8 Q2 -8 2 37 Q2 58 27 80 L522 541 L291 963 Q265 1017 291 1039 Q305 1052 331 1052 Q357 1052 375 1016 L590 604 L1022 1020 Q1055 1053 1076 1053 Q1098 1052 1110 1040 Q1122 1028 1122 1006 Q1122 984 1098 965 L635 532 L879 82 Q893 53 893 36 Q893 20 879 6 Q865 -8 839 -8 Q813 -8 795 29 L567 469 L102 25 Q69 -8 48 -8 Z" /><glyph glyph-name="y" unicode="y" d="M62 -240 Q214 -240 387 6 L190 965 Q186 985 186 1001 Q186 1052 232 1052 Q278 1052 289 999 L463 111 L1069 1012 Q1096 1053 1128 1053 Q1173 1053 1174 1010 Q1174 990 1161 971 L469 -37 Q358 -198 257 -266 Q156 -334 52 -334 Q-52 -334 -145 -285 Q-174 -272 -174 -246 Q-174 -194 -127 -193 Q-110 -193 -94 -201 Q-12 -240 62 -240 Z" /><glyph glyph-name="z" unicode="z" d="M301 1044 L1079 1044 Q1122 1044 1122 1008 L1122 1006 Q1122 986 1102 965 L154 90 L842 90 Q860 90 873 77 Q886 64 886 46 Q886 28 874 14 Q860 0 842 0 L29 0 Q-14 0 -14 37 L-14 39 Q-14 59 6 80 L954 954 L301 954 Q284 954 270 968 Q256 982 256 999 Q256 1017 269 1031 Q283 1044 301 1044 Z" /><glyph glyph-name="braceleft" unicode="{" d="M182 627 L207 627 Q366 627 438 710 Q510 793 553 1007 Q596 1220 710 1330 Q824 1440 1075 1462 Q1120 1466 1120 1425 Q1120 1390 1079 1386 Q876 1370 781 1276 Q686 1182 648 982 Q610 782 542 694 Q474 606 338 584 Q479 541 479 414 Q480 359 448 251 Q416 143 416 61 Q416 -144 635 -215 Q668 -227 668 -250 Q668 -268 654 -280 Q640 -292 614 -283 Q315 -205 315 53 Q316 127 348 246 Q380 365 381 412 Q381 549 186 549 L182 549 Q133 549 133 588 Q133 627 182 627 Z" /><glyph glyph-name="bar" unicode="|" d="M289 -225 L289 1597 Q289 1614 302 1628 Q316 1642 334 1642 Q352 1642 366 1629 Q380 1616 379 1597 L379 -225 Q379 -242 366 -256 Q352 -270 334 -270 Q316 -270 302 -257 Q289 -243 289 -225 Z" /><glyph glyph-name="braceright" unicode="}" d="M836 549 L811 549 Q652 549 580 466 Q508 383 465 169 Q422 -45 308 -155 Q194 -265 -57 -287 Q-102 -291 -102 -250 Q-102 -215 -61 -211 Q142 -194 237 -100 Q332 -6 370 194 Q408 394 476 481 Q545 569 680 592 Q539 635 539 762 Q538 817 570 925 Q602 1033 602 1114 Q602 1319 383 1391 Q350 1403 350 1423 Q350 1442 364 1454 Q378 1466 403 1458 Q702 1380 702 1122 Q702 1048 670 930 Q638 812 637 764 Q637 627 831 627 L836 627 Q885 627 885 588 Q885 549 836 549 Z" /><glyph glyph-name="asciitilde" unicode="~" d="M229 496 Q186 496 186 532 Q186 552 215 600 Q244 648 286 689 Q328 729 380 729 Q432 729 460 713 Q488 696 540 646 Q592 596 632 596 Q674 596 733 694 Q751 725 774 725 Q817 725 817 688 Q816 668 788 620 Q760 572 718 531 Q676 492 624 492 Q572 492 544 508 Q516 524 464 574 Q412 624 371 624 Q330 624 270 526 Q252 496 229 496 Z" /><glyph glyph-name="nonbreakingspace" unicode=" " d="" /><glyph glyph-name="exclamdown" unicode="¡" d="M498 1442 Q527 1442 544 1424 Q561 1406 555 1380 L535 1305 Q519 1252 461 1251 Q432 1252 415 1270 Q398 1288 403 1315 L424 1393 Q436 1442 498 1442 ZM397 1065 Q432 1065 422 1024 L188 39 Q178 -6 129 -6 L113 -6 Q88 -6 75 9 Q62 24 70 51 L367 1038 Q375 1065 397 1065 Z" /><glyph glyph-name="cent" unicode="¢" d="M262 623 Q262 512 313 427 Q364 342 457 303 L801 1178 L772 1178 Q562 1178 412 1014 Q262 850 262 623 ZM606 178 Q561 178 510 188 L446 29 Q426 -20 395 -20 Q364 -20 352 -1 Q340 18 350 43 L418 215 Q297 266 225 375 Q153 484 154 621 Q154 888 338 1080 Q522 1272 778 1272 Q815 1272 834 1270 L887 1405 Q907 1454 938 1454 Q969 1454 981 1436 Q993 1418 983 1391 L928 1253 Q1092 1214 1182 1065 Q1194 1045 1194 1026 Q1194 1007 1180 994 Q1166 981 1142 981 Q1118 981 1102 1006 Q1059 1072 1012 1108 Q965 1144 887 1165 L539 279 Q574 273 612 272 Q796 272 958 403 Q996 432 1025 401 Q1038 386 1038 368 Q1038 350 1022 334 Q848 178 606 178 Z" /><glyph glyph-name="sterling" unicode="£" d="M930 1352 Q784 1352 686 1254 Q588 1156 539 973 L471 723 L1026 723 Q1046 723 1060 709 Q1074 694 1075 674 Q1075 654 1061 640 Q1047 626 1026 625 L444 625 L303 96 L1014 96 Q1034 96 1048 82 Q1062 68 1063 48 Q1063 28 1049 14 Q1035 0 1014 0 L23 0 Q-4 0 -4 25 Q-4 50 20 55 L197 92 L340 625 L219 625 Q199 625 184 639 Q170 654 170 674 Q170 694 184 708 Q198 722 219 723 L367 723 L438 991 Q493 1200 602 1309 Q741 1448 948 1448 Q1155 1448 1284 1276 Q1320 1220 1289 1191 Q1274 1176 1249 1176 Q1224 1176 1210 1198 Q1154 1276 1090 1314 Q1026 1352 930 1352 Z" /><glyph glyph-name="yen" unicode="¥" d="M1522 1442 Q1572 1442 1571 1397 Q1571 1377 1548 1350 L852 641 L1178 641 Q1196 641 1210 627 Q1224 612 1224 594 Q1224 576 1210 562 Q1196 548 1178 549 L766 549 L713 348 L1100 348 Q1118 348 1132 335 Q1146 322 1147 302 Q1147 282 1133 270 Q1119 256 1100 256 L688 256 L631 39 Q619 -8 573 -8 Q550 -8 536 9 Q522 26 528 53 L582 256 L203 256 Q185 256 170 269 Q156 282 156 302 Q156 322 170 334 Q184 348 203 348 L606 348 L659 549 L281 549 Q263 549 248 562 Q234 576 234 594 Q234 612 248 626 Q262 640 281 641 L643 641 L330 1356 Q322 1374 322 1394 Q322 1414 336 1427 Q350 1442 381 1442 Q412 1442 432 1395 L745 664 L1470 1413 Q1500 1442 1522 1442 Z" /><glyph glyph-name="section" unicode="§" d="M604 72 Q710 72 782 116 Q854 160 854 227 Q854 294 788 342 Q722 390 543 452 Q364 514 274 580 Q184 646 184 741 Q184 860 299 932 Q414 1004 590 1004 Q432 1074 432 1196 Q432 1318 538 1386 Q644 1454 782 1454 Q920 1454 1034 1413 Q1148 1372 1225 1313 Q1250 1295 1250 1270 Q1250 1245 1235 1230 Q1204 1196 1161 1231 Q997 1362 788 1362 Q682 1362 610 1318 Q538 1274 538 1206 Q538 1138 604 1092 Q670 1045 849 982 Q1028 920 1118 854 Q1208 788 1208 680 Q1208 572 1094 502 Q980 430 803 430 Q961 360 961 238 Q960 116 854 48 Q748 -20 590 -20 Q352 -20 166 121 Q141 139 141 164 Q142 189 156 204 Q170 219 189 219 Q208 219 229 203 Q391 72 604 72 ZM377 879 Q291 826 291 758 Q291 690 353 644 Q414 596 550 549 Q686 502 808 502 Q930 502 1016 555 Q1102 608 1102 676 Q1102 744 1040 790 Q978 838 840 885 Q702 932 582 932 Q462 932 377 879 Z" /><glyph glyph-name="dieresis" unicode="¨" d="M922 1262 Q906 1207 846 1206 Q815 1206 798 1226 Q781 1246 786 1274 L805 1341 Q821 1396 881 1397 Q912 1396 930 1376 Q948 1356 940 1329 L922 1262 ZM588 1262 Q572 1207 512 1206 Q481 1206 464 1226 Q447 1246 453 1274 L471 1341 Q487 1396 547 1397 Q578 1396 596 1376 Q614 1356 606 1329 L588 1262 Z" /><glyph glyph-name="copyright" unicode="©" d="M906 340 Q752 340 644 453 Q536 566 537 725 L537 729 Q538 888 646 1002 Q754 1116 906 1116 Q1058 1116 1176 1014 Q1194 1000 1194 980 Q1194 960 1181 946 Q1168 934 1152 934 Q1136 934 1116 948 Q1016 1034 902 1034 Q788 1034 708 945 Q628 856 627 731 L627 727 Q627 602 710 512 Q794 422 910 422 Q1026 422 1126 510 Q1142 522 1157 522 Q1196 522 1196 483 Q1196 465 1180 449 Q1061 340 906 340 ZM899 33 Q1188 34 1384 234 Q1580 434 1581 719 Q1581 1004 1386 1202 Q1190 1400 902 1401 Q614 1401 418 1200 Q222 998 221 714 Q222 430 416 232 Q610 34 899 33 ZM899 -25 Q590 -26 375 192 Q160 410 160 715 Q160 1020 377 1239 Q594 1458 903 1458 Q1212 1458 1427 1241 Q1642 1024 1642 719 Q1642 414 1425 194 Q1208 -26 899 -25 Z" /><glyph glyph-name="ordfeminine" unicode="ª" d="M160 600 Q144 600 131 612 Q119 624 119 640 Q119 656 131 670 Q143 682 160 682 L598 682 Q614 682 626 670 Q638 658 639 642 Q639 626 627 612 Q615 600 598 600 L160 600 ZM537 1366 Q468 1366 430 1354 Q392 1342 379 1341 Q346 1341 346 1378 Q346 1405 377 1413 Q460 1442 560 1442 Q660 1442 719 1394 Q778 1346 778 1262 Q778 1235 766 1182 L686 883 Q676 844 641 844 Q596 844 606 889 L625 954 Q521 839 391 840 Q317 840 267 882 Q217 924 217 1008 Q217 1092 292 1150 Q367 1210 466 1210 Q565 1210 684 1180 Q696 1216 696 1247 Q697 1366 537 1366 ZM303 1012 Q302 906 426 905 Q490 906 566 962 Q642 1018 662 1094 L670 1122 Q568 1147 486 1147 Q404 1147 354 1106 Q303 1066 303 1012 Z" /><glyph glyph-name="guillemotleft" unicode="«" d="M1018 909 Q1018 889 999 870 L637 508 L791 168 Q799 150 799 132 Q800 114 786 102 Q772 88 746 88 Q720 88 705 123 L524 485 Q514 505 514 518 Q514 531 528 545 L920 922 Q953 955 975 954 Q1018 954 1018 909 ZM600 909 Q600 889 582 870 L219 508 L373 168 Q381 150 381 132 Q381 114 368 102 Q355 88 329 88 Q303 88 287 123 L106 485 Q88 522 111 545 L502 922 Q535 955 557 954 Q600 954 600 909 Z" /><glyph glyph-name="registered" unicode="®" d="M504 1102 L600 1102 Q680 1102 680 1166 Q680 1230 600 1231 L504 1231 L504 1102 ZM446 946 L446 1253 Q446 1282 475 1282 L606 1282 Q663 1282 701 1252 Q739 1222 739 1171 Q739 1087 653 1061 L731 969 Q741 957 741 944 Q741 917 715 918 Q699 918 686 934 L586 1055 L504 1055 L504 946 Q504 917 475 918 Q446 917 446 946 ZM355 869 Q447 776 580 776 Q713 776 804 870 Q895 964 895 1096 L895 1098 Q895 1229 804 1322 Q713 1415 580 1415 Q448 1415 356 1321 Q264 1227 264 1096 L264 1094 Q264 963 355 869 ZM936 1096 Q936 949 832 843 Q728 737 578 737 Q430 738 327 842 Q224 946 223 1094 L223 1096 Q224 1242 328 1348 Q432 1454 581 1454 Q730 1454 833 1350 Q936 1246 936 1098 L936 1096 Z" /><glyph glyph-name="macron" unicode="¯" d="M997 1272 L457 1272 Q437 1272 422 1286 Q408 1300 408 1320 Q408 1340 422 1356 Q436 1370 457 1370 L997 1370 Q1018 1370 1032 1356 Q1046 1342 1046 1322 Q1046 1302 1032 1286 Q1017 1272 997 1272 Z" /><glyph glyph-name="degree" unicode="°" d="M344 1283 Q272 1208 272 1117 Q272 1026 322 977 Q372 928 457 928 Q542 928 614 1002 Q686 1076 686 1168 Q686 1260 637 1309 Q588 1358 502 1358 Q416 1358 344 1283 ZM450 842 Q324 842 252 916 Q180 990 180 1113 Q180 1237 282 1340 Q384 1444 508 1444 Q633 1444 706 1370 Q778 1296 778 1172 Q778 1048 677 945 Q575 842 450 842 Z" /><glyph glyph-name="plusminus" unicode="±" d="M76 0 Q56 0 41 14 Q27 28 27 48 Q27 68 41 84 Q55 98 76 98 L944 98 Q964 98 978 84 Q992 70 993 50 Q993 30 979 14 Q965 0 944 0 L76 0 ZM586 309 Q561 310 549 328 Q537 346 543 369 L641 733 L270 733 Q250 734 236 748 Q222 762 221 782 Q222 802 236 816 Q250 830 270 831 L668 831 L768 1208 Q782 1255 825 1255 Q850 1255 862 1238 Q874 1221 868 1198 L770 831 L1141 831 Q1162 831 1176 818 Q1190 804 1190 784 Q1190 764 1176 749 Q1162 734 1141 733 L743 733 L643 358 Q629 309 586 309 Z" /><glyph glyph-name="acute" unicode="´" d="M645 1239 Q610 1212 574 1212 Q538 1212 539 1233 Q539 1245 549 1255 L729 1450 Q764 1485 790 1485 Q816 1486 848 1468 Q879 1450 879 1432 Q879 1414 856 1399 L645 1239 Z" /><glyph glyph-name="paragraph" unicode="¶" d="M592 -8 Q569 -8 554 9 Q539 26 547 53 L676 539 Q469 551 339 641 Q209 731 209 913 Q209 1157 387 1295 Q565 1433 877 1434 L965 1434 Q992 1434 1005 1418 Q1018 1402 1010 1372 L651 39 Q639 -8 592 -8 Z" /><glyph glyph-name="periodcentered" unicode="·" d="M240 514 Q211 514 194 531 Q177 548 182 575 L203 651 Q219 704 276 705 Q304 704 322 686 Q340 668 334 641 L313 563 Q301 514 240 514 Z" /><glyph glyph-name="cedilla" unicode="¸" d="M268 -268 Q248 -293 225 -293 Q202 -293 186 -279 Q170 -265 170 -244 Q170 -223 190 -201 L399 20 L487 20 L268 -268 Z" /><glyph glyph-name="ordmasculine" unicode="º" d="M164 600 Q148 600 135 612 Q123 624 123 640 Q123 656 135 670 Q147 682 164 682 L651 682 Q668 682 680 670 Q692 658 692 642 Q692 626 680 612 Q668 600 651 600 L164 600 ZM517 909 Q608 909 682 989 Q756 1070 756 1166 Q756 1262 705 1315 Q654 1368 562 1368 Q470 1368 395 1288 Q322 1208 322 1112 Q322 1016 374 962 Q426 908 517 909 ZM770 1369 Q844 1294 844 1168 Q844 1042 742 938 Q640 834 512 834 Q383 834 309 908 Q236 982 236 1109 Q236 1235 337 1339 Q438 1444 566 1444 Q694 1444 770 1369 Z" /><glyph glyph-name="guillemotright" unicode="»" d="M78 88 Q35 88 35 133 Q35 153 53 172 L416 535 L262 874 Q254 892 254 910 Q254 928 267 940 Q280 954 306 954 Q332 954 348 920 L528 557 Q538 536 538 524 Q538 512 524 498 L133 121 Q100 88 78 88 ZM496 88 Q453 88 453 133 Q453 153 471 172 L834 535 L680 874 Q672 892 672 910 Q672 928 685 940 Q698 954 724 954 Q750 954 766 920 L946 557 Q956 536 956 524 Q956 512 942 498 L551 121 Q518 88 496 88 Z" /><glyph glyph-name="questiondown" unicode="¿" d="M864 1442 Q893 1442 910 1424 Q927 1406 922 1380 L901 1305 Q885 1252 827 1251 Q798 1252 781 1270 Q764 1288 770 1315 L791 1393 Q803 1442 864 1442 ZM903 236 Q928 256 947 256 Q966 256 980 243 Q994 230 993 210 Q993 190 977 174 Q776 -19 516 -18 Q328 -18 216 82 Q104 182 104 340 Q104 534 258 652 Q412 770 647 803 L727 1036 Q737 1067 762 1067 L764 1067 Q780 1067 790 1055 Q800 1043 795 1022 L745 764 Q739 721 696 715 Q479 692 346 595 Q213 498 213 342 Q213 217 301 147 Q389 77 524 78 Q727 78 903 236 Z" /><glyph glyph-name="Agrave" unicode="à" d="M954 1849 Q990 1849 1004 1812 L1077 1624 Q1083 1606 1083 1599 Q1084 1581 1054 1581 Q1024 1581 1006 1606 L881 1769 Q848 1808 892 1834 Q918 1850 954 1849 ZM1354 74 Q1358 58 1358 40 Q1358 22 1344 8 Q1330 -8 1307 -8 Q1262 -8 1251 43 L1186 401 L340 401 L72 31 Q40 -8 18 -8 Q-29 -8 -31 39 Q-31 57 -18 70 L950 1397 Q989 1448 1030 1448 L1034 1448 Q1088 1448 1098 1397 L1354 74 ZM410 498 L1165 498 L1012 1327 L410 498 Z" /><glyph glyph-name="Aacute" unicode="á" d="M1149 1608 Q1114 1581 1078 1581 Q1042 1581 1042 1602 Q1042 1614 1053 1624 L1233 1819 Q1268 1854 1294 1854 Q1320 1854 1352 1836 Q1383 1819 1383 1801 Q1383 1783 1360 1767 L1149 1608 ZM1354 74 Q1358 58 1358 40 Q1358 22 1344 8 Q1330 -8 1307 -8 Q1262 -8 1251 43 L1186 401 L340 401 L72 31 Q40 -8 18 -8 Q-29 -8 -31 39 Q-31 57 -18 70 L950 1397 Q989 1448 1030 1448 L1034 1448 Q1088 1448 1098 1397 L1354 74 ZM410 498 L1165 498 L1012 1327 L410 498 Z" /><glyph glyph-name="Acircumflex" unicode="â" d="M950 1608 Q910 1581 882 1581 Q854 1581 854 1602 Q854 1614 870 1630 L1063 1806 Q1100 1843 1130 1843 L1143 1843 Q1171 1843 1194 1806 L1292 1628 Q1302 1608 1303 1602 Q1303 1582 1267 1582 Q1231 1582 1208 1610 L1118 1726 L950 1608 ZM1354 74 Q1358 58 1358 40 Q1358 22 1344 8 Q1330 -8 1307 -8 Q1262 -8 1251 43 L1186 401 L340 401 L72 31 Q40 -8 18 -8 Q-29 -8 -31 39 Q-31 57 -18 70 L950 1397 Q989 1448 1030 1448 L1034 1448 Q1088 1448 1098 1397 L1354 74 ZM410 498 L1165 498 L1012 1327 L410 498 Z" /><glyph glyph-name="Atilde" unicode="ã" d="M834 1577 Q791 1577 791 1614 Q792 1634 820 1682 Q895 1809 995 1810 Q1036 1810 1064 1794 Q1092 1778 1144 1728 Q1196 1678 1237 1678 Q1278 1678 1337 1776 Q1355 1807 1378 1806 Q1421 1806 1421 1769 Q1420 1748 1392 1700 Q1317 1572 1217 1573 Q1176 1573 1148 1589 Q1120 1606 1068 1656 Q1016 1706 975 1706 Q934 1706 874 1608 Q857 1577 834 1577 ZM1354 74 Q1358 58 1358 40 Q1358 22 1344 8 Q1330 -8 1307 -8 Q1262 -8 1251 43 L1186 401 L340 401 L72 31 Q40 -8 18 -8 Q-29 -8 -31 39 Q-31 57 -18 70 L950 1397 Q989 1448 1030 1448 L1034 1448 Q1088 1448 1098 1397 L1354 74 ZM410 498 L1165 498 L1012 1327 L410 498 Z" /><glyph glyph-name="Adieresis" unicode="ä" d="M1247 1575 Q1216 1575 1199 1594 Q1182 1613 1188 1642 L1206 1710 Q1222 1765 1282 1765 Q1313 1765 1331 1745 Q1349 1725 1341 1698 L1323 1630 Q1307 1575 1247 1575 ZM913 1575 Q882 1575 865 1594 Q848 1613 854 1642 L872 1710 Q888 1765 948 1765 Q979 1765 997 1745 Q1015 1725 1008 1698 L989 1630 Q973 1575 913 1575 ZM1354 74 Q1358 58 1358 40 Q1358 22 1344 8 Q1330 -8 1307 -8 Q1262 -8 1251 43 L1186 401 L340 401 L72 31 Q40 -8 18 -8 Q-29 -8 -31 39 Q-31 57 -18 70 L950 1397 Q989 1448 1030 1448 L1034 1448 Q1088 1448 1098 1397 L1354 74 ZM410 498 L1165 498 L1012 1327 L410 498 Z" /><glyph glyph-name="Aring" unicode="å" d="M962 1466 Q994 1438 1053 1438 Q1112 1438 1154 1480 Q1196 1522 1196 1574 Q1196 1626 1164 1655 Q1132 1684 1073 1684 Q1014 1684 972 1641 Q930 1599 930 1547 Q930 1494 962 1466 ZM410 498 L1165 498 L1012 1327 L410 498 ZM18 -8 Q-29 -8 -31 39 Q-31 57 -18 70 L950 1395 Q856 1440 856 1533 Q856 1626 921 1688 Q986 1750 1072 1749 Q1158 1749 1214 1702 Q1270 1655 1270 1581 Q1270 1507 1222 1450 Q1174 1393 1100 1376 L1354 74 Q1358 58 1358 40 Q1358 22 1344 8 Q1330 -8 1307 -8 Q1262 -8 1251 43 L1186 401 L340 401 L72 31 Q40 -8 18 -8 Z" /><glyph glyph-name="AE" unicode="æ" d="M1223 1434 L2238 1434 Q2258 1434 2272 1420 Q2286 1406 2288 1384 Q2288 1364 2274 1350 Q2260 1336 2238 1335 L1384 1335 L1233 772 L1968 772 Q1988 772 2002 758 Q2016 744 2017 724 Q2017 704 2003 688 Q1989 674 1968 674 L1206 674 L1053 98 L1890 98 Q1910 98 1924 84 Q1938 70 1939 50 Q1939 30 1925 14 Q1911 0 1890 0 L979 0 Q956 0 942 16 Q928 32 934 53 L1028 401 L412 401 L92 33 Q57 -8 27 -8 Q-16 -8 -16 35 Q-16 58 2 78 L1141 1382 Q1188 1434 1223 1434 ZM496 498 L1053 498 L1278 1337 L1223 1337 L496 498 Z" /><glyph glyph-name="Ccedilla" unicode="ç" d="M774 -27 L764 -27 L582 -268 Q562 -293 539 -293 Q516 -293 500 -279 Q462 -245 504 -201 L674 -18 Q463 12 326 166 Q188 320 188 552 Q188 784 302 993 Q416 1202 615 1330 Q815 1458 1044 1458 Q1212 1458 1340 1388 Q1468 1318 1540 1202 Q1567 1153 1538 1122 Q1524 1108 1498 1109 Q1472 1110 1458 1133 Q1388 1242 1291 1302 Q1194 1362 1038 1362 Q735 1362 517 1116 Q299 870 299 559 Q299 336 435 204 Q571 72 784 72 Q1040 72 1241 260 Q1280 299 1315 264 Q1329 250 1329 229 Q1329 208 1309 188 Q1080 -27 774 -27 Z" /><glyph glyph-name="Egrave" unicode="è" d="M864 1829 Q900 1829 913 1792 L987 1604 Q993 1586 993 1579 Q993 1560 963 1560 Q933 1560 915 1585 L791 1749 Q758 1788 802 1814 Q828 1830 864 1829 ZM1065 0 L133 0 Q110 0 96 16 Q82 32 88 53 L444 1380 Q450 1403 468 1418 Q486 1433 506 1434 L1413 1434 Q1434 1434 1448 1420 Q1462 1406 1462 1384 Q1462 1364 1448 1350 Q1434 1336 1413 1335 L539 1335 L387 772 L1143 772 Q1164 772 1178 758 Q1192 744 1192 724 Q1192 704 1178 688 Q1164 674 1143 674 L360 674 L207 98 L1065 98 Q1086 98 1100 84 Q1114 70 1114 50 Q1114 30 1100 14 Q1085 0 1065 0 Z" /><glyph glyph-name="Eacute" unicode="é" d="M952 1581 Q952 1593 963 1604 L1143 1798 Q1178 1833 1204 1833 Q1230 1833 1262 1816 Q1293 1799 1293 1781 Q1293 1763 1270 1747 L1059 1587 Q1024 1560 988 1560 Q952 1560 952 1581 ZM1065 0 L133 0 Q110 0 96 16 Q82 32 88 53 L444 1380 Q450 1403 468 1418 Q486 1433 506 1434 L1413 1434 Q1434 1434 1448 1420 Q1462 1406 1462 1384 Q1462 1364 1448 1350 Q1434 1336 1413 1335 L539 1335 L387 772 L1143 772 Q1164 772 1178 758 Q1192 744 1192 724 Q1192 704 1178 688 Q1164 674 1143 674 L360 674 L207 98 L1065 98 Q1086 98 1100 84 Q1114 70 1114 50 Q1114 30 1100 14 Q1085 0 1065 0 Z" /><glyph glyph-name="Ecircumflex" unicode="ê" d="M1212 1581 Q1212 1561 1176 1561 Q1140 1561 1118 1589 L1028 1706 L860 1587 Q820 1560 792 1560 Q764 1560 764 1581 Q764 1593 780 1610 L973 1786 Q1010 1823 1040 1823 L1053 1823 Q1081 1823 1104 1786 L1202 1608 Q1212 1588 1212 1581 ZM1065 0 L133 0 Q110 0 96 16 Q82 32 88 53 L444 1380 Q450 1403 468 1418 Q486 1433 506 1434 L1413 1434 Q1434 1434 1448 1420 Q1462 1406 1462 1384 Q1462 1364 1448 1350 Q1434 1336 1413 1335 L539 1335 L387 772 L1143 772 Q1164 772 1178 758 Q1192 744 1192 724 Q1192 704 1178 688 Q1164 674 1143 674 L360 674 L207 98 L1065 98 Q1086 98 1100 84 Q1114 70 1114 50 Q1114 30 1100 14 Q1085 0 1065 0 Z" /><glyph glyph-name="Edieresis" unicode="ë" d="M1192 1745 Q1223 1744 1241 1724 Q1259 1704 1251 1677 L1233 1610 Q1217 1555 1157 1554 Q1126 1554 1109 1574 Q1092 1594 1098 1622 L1116 1690 Q1132 1745 1192 1745 ZM858 1745 Q889 1744 907 1724 Q925 1704 918 1677 L899 1610 Q883 1555 823 1554 Q792 1554 775 1574 Q758 1594 764 1622 L782 1690 Q798 1745 858 1745 ZM1065 0 L133 0 Q110 0 96 16 Q82 32 88 53 L444 1380 Q450 1403 468 1418 Q486 1433 506 1434 L1413 1434 Q1434 1434 1448 1420 Q1462 1406 1462 1384 Q1462 1364 1448 1350 Q1434 1336 1413 1335 L539 1335 L387 772 L1143 772 Q1164 772 1178 758 Q1192 744 1192 724 Q1192 704 1178 688 Q1164 674 1143 674 L360 674 L207 98 L1065 98 Q1086 98 1100 84 Q1114 70 1114 50 Q1114 30 1100 14 Q1085 0 1065 0 Z" /><glyph glyph-name="Igrave" unicode="ì" d="M438 1829 Q474 1829 487 1792 L561 1604 Q567 1586 567 1579 Q567 1560 537 1560 Q507 1560 489 1585 L365 1749 Q332 1788 376 1814 Q402 1830 438 1829 ZM147 -8 Q124 -8 110 9 Q96 26 102 53 L463 1395 Q475 1442 520 1442 Q543 1442 558 1424 Q573 1406 565 1380 L205 39 Q193 -8 147 -8 Z" /><glyph glyph-name="Iacute" unicode="í" d="M526 1581 Q526 1593 537 1604 L717 1798 Q752 1833 778 1833 Q804 1833 836 1816 Q867 1799 867 1781 Q867 1763 844 1747 L633 1587 Q598 1560 562 1560 Q526 1560 526 1581 ZM147 -8 Q124 -8 110 9 Q96 26 102 53 L463 1395 Q475 1442 520 1442 Q543 1442 558 1424 Q573 1406 565 1380 L205 39 Q193 -8 147 -8 Z" /><glyph glyph-name="Icircumflex" unicode="î" d="M786 1581 Q786 1561 750 1561 Q714 1561 692 1589 L602 1706 L434 1587 Q394 1560 366 1560 Q338 1560 338 1581 Q338 1593 354 1610 L547 1786 Q584 1823 614 1823 L627 1823 Q655 1823 678 1786 L776 1608 Q786 1588 786 1581 ZM147 -8 Q124 -8 110 9 Q96 26 102 53 L463 1395 Q475 1442 520 1442 Q543 1442 558 1424 Q573 1406 565 1380 L205 39 Q193 -8 147 -8 Z" /><glyph glyph-name="Idieresis" unicode="ï" d="M768 1745 Q799 1744 817 1724 Q835 1704 827 1677 L809 1610 Q793 1555 733 1554 Q702 1554 685 1574 Q668 1594 674 1622 L692 1690 Q708 1745 768 1745 ZM434 1745 Q465 1744 483 1724 Q501 1704 494 1677 L475 1610 Q459 1555 399 1554 Q368 1554 351 1574 Q334 1594 340 1622 L358 1690 Q374 1745 434 1745 ZM147 -8 Q124 -8 110 9 Q96 26 102 53 L463 1395 Q475 1442 520 1442 Q543 1442 558 1424 Q573 1406 565 1380 L205 39 Q193 -8 147 -8 Z" /><glyph glyph-name="Eth" unicode="ð" d="M618 98 Q1007 98 1253 344 Q1446 537 1446 823 Q1446 1044 1313 1174 Q1151 1336 836 1335 L600 1335 L449 770 L868 770 Q888 770 902 756 Q916 742 918 722 Q918 702 904 686 Q890 672 868 672 L422 672 L268 98 L618 98 ZM567 1434 L842 1434 Q1207 1434 1399 1241 Q1557 1083 1556 831 Q1556 499 1333 276 Q1202 144 1013 72 Q824 0 604 0 L195 0 Q172 0 158 16 Q144 32 150 53 L315 672 L217 672 Q197 672 182 686 Q168 700 168 720 Q168 740 182 756 Q196 770 217 770 L342 770 L506 1380 Q512 1402 530 1418 Q548 1434 567 1434 Z" /><glyph glyph-name="Ntilde" unicode="ñ" d="M842 1556 Q799 1556 799 1593 Q800 1614 828 1662 Q856 1710 898 1750 Q940 1790 992 1790 Q1044 1790 1072 1774 Q1100 1758 1152 1708 Q1204 1658 1245 1657 Q1286 1657 1346 1755 Q1364 1786 1386 1786 Q1429 1786 1430 1749 Q1430 1728 1401 1680 Q1372 1632 1330 1592 Q1288 1552 1236 1552 Q1184 1552 1156 1568 Q1128 1584 1076 1635 Q1024 1686 983 1686 Q942 1686 883 1587 Q865 1556 842 1556 ZM1585 1442 Q1608 1442 1622 1426 Q1636 1410 1628 1380 L1268 39 Q1256 -6 1219 -6 L1217 -6 Q1184 -6 1161 37 L520 1282 L186 39 Q174 -8 131 -8 Q108 -8 94 8 Q80 24 88 53 L446 1386 Q460 1439 508 1440 L512 1440 Q553 1440 582 1386 L1202 178 L1530 1395 Q1542 1442 1585 1442 Z" /><glyph glyph-name="Ograve" unicode="ò" d="M1000 1849 Q1036 1849 1051 1812 L1124 1624 Q1130 1606 1130 1599 Q1130 1581 1100 1581 Q1070 1581 1053 1606 L928 1769 Q895 1808 939 1834 Q964 1850 1000 1849 ZM307 577 Q306 366 448 218 Q590 70 801 70 Q1012 70 1178 180 Q1344 290 1437 468 Q1530 645 1530 855 Q1530 1065 1389 1213 Q1248 1362 1036 1362 Q824 1362 659 1251 Q493 1140 400 964 Q307 788 307 577 ZM815 -27 Q547 -28 372 150 Q197 328 197 590 Q197 811 306 1012 Q416 1214 607 1336 Q798 1458 1022 1458 Q1290 1458 1465 1281 Q1640 1104 1640 842 Q1640 621 1530 420 Q1420 219 1230 96 Q1038 -27 815 -27 Z" /><glyph glyph-name="Oacute" unicode="ó" d="M1196 1608 Q1161 1581 1125 1581 Q1089 1581 1090 1602 Q1090 1614 1100 1624 L1280 1819 Q1316 1854 1342 1854 Q1368 1854 1399 1836 Q1430 1819 1430 1801 Q1430 1783 1407 1767 L1196 1608 ZM307 577 Q306 366 448 218 Q590 70 801 70 Q1012 70 1178 180 Q1344 290 1437 468 Q1530 645 1530 855 Q1530 1065 1389 1213 Q1248 1362 1036 1362 Q824 1362 659 1251 Q493 1140 400 964 Q307 788 307 577 ZM815 -27 Q547 -28 372 150 Q197 328 197 590 Q197 811 306 1012 Q416 1214 607 1336 Q798 1458 1022 1458 Q1290 1458 1465 1281 Q1640 1104 1640 842 Q1640 621 1530 420 Q1420 219 1230 96 Q1038 -27 815 -27 Z" /><glyph glyph-name="Ocircumflex" unicode="ô" d="M995 1608 Q956 1581 928 1581 Q900 1581 899 1602 Q899 1614 915 1630 L1108 1806 Q1145 1843 1176 1843 L1188 1843 Q1216 1843 1239 1806 L1337 1628 Q1347 1608 1348 1602 Q1348 1582 1312 1582 Q1276 1582 1253 1610 L1163 1726 L995 1608 ZM307 577 Q306 366 448 218 Q590 70 801 70 Q1012 70 1178 180 Q1344 290 1437 468 Q1530 645 1530 855 Q1530 1065 1389 1213 Q1248 1362 1036 1362 Q824 1362 659 1251 Q493 1140 400 964 Q307 788 307 577 ZM815 -27 Q547 -28 372 150 Q197 328 197 590 Q197 811 306 1012 Q416 1214 607 1336 Q798 1458 1022 1458 Q1290 1458 1465 1281 Q1640 1104 1640 842 Q1640 621 1530 420 Q1420 219 1230 96 Q1038 -27 815 -27 Z" /><glyph glyph-name="Otilde" unicode="õ" d="M881 1577 Q838 1577 838 1614 Q838 1634 866 1682 Q941 1809 1042 1810 Q1083 1810 1111 1794 Q1139 1778 1191 1728 Q1243 1678 1284 1678 Q1325 1678 1384 1776 Q1402 1807 1425 1806 Q1468 1806 1468 1769 Q1468 1748 1440 1700 Q1365 1572 1264 1573 Q1223 1573 1195 1589 Q1167 1606 1115 1656 Q1063 1706 1022 1706 Q981 1706 922 1608 Q904 1577 881 1577 ZM307 577 Q306 366 448 218 Q590 70 801 70 Q1012 70 1178 180 Q1344 290 1437 468 Q1530 645 1530 855 Q1530 1065 1389 1213 Q1248 1362 1036 1362 Q824 1362 659 1251 Q493 1140 400 964 Q307 788 307 577 ZM815 -27 Q547 -28 372 150 Q197 328 197 590 Q197 811 306 1012 Q416 1214 607 1336 Q798 1458 1022 1458 Q1290 1458 1465 1281 Q1640 1104 1640 842 Q1640 621 1530 420 Q1420 219 1230 96 Q1038 -27 815 -27 Z" /><glyph glyph-name="Odieresis" unicode="ö" d="M1294 1575 Q1263 1575 1246 1594 Q1229 1613 1235 1642 L1253 1710 Q1269 1765 1329 1765 Q1360 1765 1378 1745 Q1396 1725 1389 1698 L1370 1630 Q1354 1575 1294 1575 ZM961 1575 Q930 1575 912 1594 Q895 1613 901 1642 L920 1710 Q936 1765 995 1765 Q1026 1765 1044 1745 Q1062 1725 1055 1698 L1036 1630 Q1020 1575 961 1575 ZM307 577 Q306 366 448 218 Q590 70 801 70 Q1012 70 1178 180 Q1344 290 1437 468 Q1530 645 1530 855 Q1530 1065 1389 1213 Q1248 1362 1036 1362 Q824 1362 659 1251 Q493 1140 400 964 Q307 788 307 577 ZM815 -27 Q547 -28 372 150 Q197 328 197 590 Q197 811 306 1012 Q416 1214 607 1336 Q798 1458 1022 1458 Q1290 1458 1465 1281 Q1640 1104 1640 842 Q1640 621 1530 420 Q1420 219 1230 96 Q1038 -27 815 -27 Z" /><glyph glyph-name="multiply" unicode="×" d="M1004 381 Q1018 360 1018 342 Q1018 324 1002 308 Q986 292 962 293 Q938 293 922 315 L676 655 L236 305 Q220 293 202 293 Q184 293 171 307 Q158 321 158 344 Q158 367 180 383 L623 729 L375 1063 Q345 1106 377 1136 Q393 1151 417 1151 Q441 1151 457 1128 L702 788 L1143 1139 Q1158 1151 1176 1151 Q1194 1151 1207 1137 Q1220 1123 1220 1100 Q1220 1077 1198 1061 L756 715 L1004 381 Z" /><glyph glyph-name="Oslash" unicode="ø" d="M31 20 Q31 45 53 63 L287 258 Q197 410 197 610 Q197 810 306 1012 Q416 1214 607 1336 Q798 1458 1022 1458 Q1309 1458 1487 1260 L1681 1423 Q1714 1452 1741 1452 Q1782 1452 1782 1415 Q1782 1388 1759 1370 L1542 1188 Q1640 1030 1640 826 Q1640 622 1530 420 Q1420 219 1230 96 Q1039 -27 815 -27 Q520 -27 340 184 L131 10 Q98 -19 70 -18 Q31 -18 31 20 ZM815 70 Q1012 70 1178 180 Q1344 290 1437 468 Q1530 646 1530 822 Q1530 998 1460 1120 L418 250 Q559 70 815 70 ZM307 615 Q307 443 369 326 L1409 1194 Q1264 1362 1022 1362 Q825 1362 659 1251 Q493 1140 400 964 Q307 788 307 615 Z" /><glyph glyph-name="Ugrave" unicode="ù" d="M908 1829 Q944 1829 958 1792 L1032 1604 Q1038 1586 1038 1579 Q1038 1560 1008 1560 Q978 1560 961 1585 L836 1749 Q803 1788 847 1814 Q872 1830 908 1829 ZM197 428 Q197 539 225 649 L424 1395 Q436 1442 481 1442 Q504 1442 519 1424 Q534 1406 526 1380 L319 600 Q301 526 301 436 Q302 274 408 174 Q514 74 719 74 Q924 74 1064 214 Q1204 354 1272 602 L1485 1395 Q1497 1442 1542 1442 Q1565 1442 1580 1424 Q1595 1406 1587 1380 L1372 580 Q1300 314 1145 158 Q965 -22 714 -22 Q463 -22 330 102 Q197 227 197 428 Z" /><glyph glyph-name="Uacute" unicode="ú" d="M997 1581 Q997 1593 1008 1604 L1188 1798 Q1224 1833 1250 1833 Q1276 1833 1307 1816 Q1338 1799 1338 1781 Q1338 1763 1315 1747 L1104 1587 Q1069 1560 1033 1560 Q997 1560 997 1581 ZM197 428 Q197 539 225 649 L424 1395 Q436 1442 481 1442 Q504 1442 519 1424 Q534 1406 526 1380 L319 600 Q301 526 301 436 Q302 274 408 174 Q514 74 719 74 Q924 74 1064 214 Q1204 354 1272 602 L1485 1395 Q1497 1442 1542 1442 Q1565 1442 1580 1424 Q1595 1406 1587 1380 L1372 580 Q1300 314 1145 158 Q965 -22 714 -22 Q463 -22 330 102 Q197 227 197 428 Z" /><glyph glyph-name="Ucircumflex" unicode="û" d="M1257 1581 Q1258 1561 1222 1561 Q1186 1561 1163 1589 L1073 1706 L905 1587 Q866 1560 838 1560 Q810 1560 809 1581 Q809 1593 825 1610 L1018 1786 Q1055 1823 1085 1823 L1098 1823 Q1126 1823 1149 1786 L1247 1608 Q1257 1588 1257 1581 ZM197 428 Q197 539 225 649 L424 1395 Q436 1442 481 1442 Q504 1442 519 1424 Q534 1406 526 1380 L319 600 Q301 526 301 436 Q302 274 408 174 Q514 74 719 74 Q924 74 1064 214 Q1204 354 1272 602 L1485 1395 Q1497 1442 1542 1442 Q1565 1442 1580 1424 Q1595 1406 1587 1380 L1372 580 Q1300 314 1145 158 Q965 -22 714 -22 Q463 -22 330 102 Q197 227 197 428 Z" /><glyph glyph-name="Udieresis" unicode="ü" d="M1239 1745 Q1270 1744 1288 1724 Q1306 1704 1298 1677 L1280 1610 Q1264 1555 1204 1554 Q1173 1554 1156 1574 Q1139 1594 1145 1622 L1163 1690 Q1179 1745 1239 1745 ZM905 1745 Q936 1744 954 1724 Q972 1704 965 1677 L946 1610 Q930 1555 870 1554 Q839 1554 822 1574 Q805 1594 811 1622 L829 1690 Q845 1745 905 1745 ZM197 428 Q197 539 225 649 L424 1395 Q436 1442 481 1442 Q504 1442 519 1424 Q534 1406 526 1380 L319 600 Q301 526 301 436 Q302 274 408 174 Q514 74 719 74 Q924 74 1064 214 Q1204 354 1272 602 L1485 1395 Q1497 1442 1542 1442 Q1565 1442 1580 1424 Q1595 1406 1587 1380 L1372 580 Q1300 314 1145 158 Q965 -22 714 -22 Q463 -22 330 102 Q197 227 197 428 Z" /><glyph glyph-name="Yacute" unicode="ý" d="M899 1581 Q899 1593 909 1604 L1090 1798 Q1126 1833 1152 1833 Q1178 1833 1208 1816 Q1268 1783 1217 1747 L1006 1587 Q971 1560 935 1560 Q899 1560 899 1581 ZM539 -8 Q516 -8 501 9 Q486 26 494 53 L635 582 L295 1354 Q287 1372 287 1393 Q287 1414 301 1428 Q315 1442 344 1442 Q373 1442 393 1395 L707 664 L1432 1413 Q1461 1442 1484 1442 Q1508 1442 1522 1428 Q1536 1414 1536 1394 Q1536 1372 1511 1348 L733 555 L596 39 Q584 -8 539 -8 Z" /><glyph glyph-name="Thorn" unicode="þ" d="M836 1174 Q1102 1174 1231 1044 Q1329 946 1329 788 Q1329 546 1139 412 Q949 278 621 276 L256 276 L190 39 Q178 -8 133 -8 Q110 -8 95 9 Q80 26 88 53 L449 1395 Q461 1442 504 1442 Q527 1442 542 1424 Q557 1406 549 1380 L496 1174 L836 1174 ZM625 373 Q914 372 1068 480 Q1222 588 1223 784 Q1223 901 1149 975 Q1049 1075 834 1075 L469 1075 L281 373 L625 373 Z" /><glyph glyph-name="germandbls" unicode="ß" d="M1118 1176 Q1118 1282 1042 1349 Q966 1416 826 1416 Q686 1416 578 1304 Q470 1192 418 993 L162 39 Q150 -8 106 -8 Q84 -8 72 8 Q60 24 66 49 L326 1024 Q385 1247 504 1366 Q646 1509 828 1509 Q1010 1509 1118 1416 Q1226 1323 1227 1180 Q1227 869 793 748 Q1119 662 1118 412 Q1118 230 940 113 Q762 -4 500 -4 Q455 -4 455 39 Q455 82 500 86 Q756 98 883 188 Q1010 278 1010 414 Q1010 617 692 690 Q643 700 643 744 Q643 788 684 797 Q1118 908 1118 1176 Z" /><glyph glyph-name="agrave" unicode="à" d="M532 1401 Q518 1418 518 1434 Q518 1450 544 1465 Q570 1480 606 1480 Q642 1480 655 1444 L729 1255 Q735 1237 735 1231 Q735 1212 705 1212 Q675 1212 657 1237 L532 1401 ZM815 -8 Q792 -8 780 8 Q768 24 774 49 L809 180 Q637 -25 389 -25 Q248 -25 147 52 Q47 129 47 268 Q47 440 178 544 Q310 648 506 647 Q702 647 920 588 L928 616 Q942 669 942 721 Q942 840 861 903 Q780 966 636 966 Q492 966 362 924 Q346 920 336 920 Q295 920 295 965 Q295 1000 334 1012 Q481 1061 653 1061 Q825 1061 933 974 Q1041 887 1040 735 Q1040 676 1020 598 L870 39 Q858 -8 815 -8 ZM222 126 Q290 68 426 68 Q562 68 698 165 Q834 262 874 416 L899 508 Q702 557 525 557 Q348 557 251 480 Q154 403 154 294 Q154 185 222 126 Z" /><glyph glyph-name="aacute" unicode="á" d="M801 1239 Q766 1212 730 1212 Q694 1212 694 1233 Q694 1245 705 1255 L885 1450 Q920 1485 946 1485 Q972 1486 1004 1468 Q1035 1450 1035 1432 Q1035 1414 1012 1399 L801 1239 ZM815 -8 Q792 -8 780 8 Q768 24 774 49 L809 180 Q637 -25 389 -25 Q248 -25 147 52 Q47 129 47 268 Q47 440 178 544 Q310 648 506 647 Q702 647 920 588 L928 616 Q942 669 942 721 Q942 840 861 903 Q780 966 636 966 Q492 966 362 924 Q346 920 336 920 Q295 920 295 965 Q295 1000 334 1012 Q481 1061 653 1061 Q825 1061 933 974 Q1041 887 1040 735 Q1040 676 1020 598 L870 39 Q858 -8 815 -8 ZM222 126 Q290 68 426 68 Q562 68 698 165 Q834 262 874 416 L899 508 Q702 557 525 557 Q348 557 251 480 Q154 403 154 294 Q154 185 222 126 Z" /><glyph glyph-name="acircumflex" unicode="â" d="M954 1233 Q954 1212 918 1212 Q882 1212 860 1241 L770 1358 L602 1239 Q562 1212 534 1212 Q506 1212 506 1233 Q506 1245 522 1262 L715 1438 Q752 1475 782 1475 L795 1475 Q823 1475 846 1438 L944 1260 Q954 1240 954 1233 ZM815 -8 Q792 -8 780 8 Q768 24 774 49 L809 180 Q637 -25 389 -25 Q248 -25 147 52 Q47 129 47 268 Q47 440 178 544 Q310 648 506 647 Q702 647 920 588 L928 616 Q942 669 942 721 Q942 840 861 903 Q780 966 636 966 Q492 966 362 924 Q346 920 336 920 Q295 920 295 965 Q295 1000 334 1012 Q481 1061 653 1061 Q825 1061 933 974 Q1041 887 1040 735 Q1040 676 1020 598 L870 39 Q858 -8 815 -8 ZM222 126 Q290 68 426 68 Q562 68 698 165 Q834 262 874 416 L899 508 Q702 557 525 557 Q348 557 251 480 Q154 403 154 294 Q154 185 222 126 Z" /><glyph glyph-name="atilde" unicode="ã" d="M485 1208 Q442 1208 442 1245 Q442 1266 471 1314 Q500 1362 542 1402 Q584 1442 636 1442 Q688 1442 716 1426 Q744 1410 796 1359 Q848 1309 888 1309 Q930 1309 989 1407 Q1007 1438 1030 1438 Q1073 1438 1073 1401 Q1072 1380 1044 1332 Q1016 1284 974 1244 Q932 1204 880 1204 Q828 1204 800 1220 Q772 1236 720 1287 Q668 1337 627 1337 Q586 1337 526 1239 Q508 1208 485 1208 ZM815 -8 Q792 -8 780 8 Q768 24 774 49 L809 180 Q637 -25 389 -25 Q248 -25 147 52 Q47 129 47 268 Q47 440 178 544 Q310 648 506 647 Q702 647 920 588 L928 616 Q942 669 942 721 Q942 840 861 903 Q780 966 636 966 Q492 966 362 924 Q346 920 336 920 Q295 920 295 965 Q295 1000 334 1012 Q481 1061 653 1061 Q825 1061 933 974 Q1041 887 1040 735 Q1040 676 1020 598 L870 39 Q858 -8 815 -8 ZM222 126 Q290 68 426 68 Q562 68 698 165 Q834 262 874 416 L899 508 Q702 557 525 557 Q348 557 251 480 Q154 403 154 294 Q154 185 222 126 Z" /><glyph glyph-name="adieresis" unicode="ä" d="M975 1262 Q959 1207 899 1206 Q868 1206 851 1226 Q834 1246 840 1274 L858 1341 Q874 1396 934 1397 Q965 1396 983 1376 Q1001 1356 993 1329 L975 1262 ZM641 1262 Q625 1207 565 1206 Q534 1206 517 1226 Q500 1246 506 1274 L524 1341 Q540 1396 600 1397 Q631 1396 649 1376 Q667 1356 659 1329 L641 1262 ZM815 -8 Q792 -8 780 8 Q768 24 774 49 L809 180 Q637 -25 389 -25 Q248 -25 147 52 Q47 129 47 268 Q47 440 178 544 Q310 648 506 647 Q702 647 920 588 L928 616 Q942 669 942 721 Q942 840 861 903 Q780 966 636 966 Q492 966 362 924 Q346 920 336 920 Q295 920 295 965 Q295 1000 334 1012 Q481 1061 653 1061 Q825 1061 933 974 Q1041 887 1040 735 Q1040 676 1020 598 L870 39 Q858 -8 815 -8 ZM222 126 Q290 68 426 68 Q562 68 698 165 Q834 262 874 416 L899 508 Q702 557 525 557 Q348 557 251 480 Q154 403 154 294 Q154 185 222 126 Z" /><glyph glyph-name="aring" unicode="å" d="M913 1419 Q913 1530 793 1530 Q734 1530 690 1489 Q646 1448 647 1395 Q647 1342 678 1313 Q709 1284 768 1284 Q827 1284 870 1325 Q913 1366 913 1419 ZM987 1421 Q988 1341 920 1280 Q852 1219 765 1219 Q678 1219 626 1266 Q574 1312 574 1392 Q574 1472 641 1534 Q709 1596 796 1595 Q883 1595 935 1548 Q987 1501 987 1421 ZM815 -8 Q792 -8 780 8 Q768 24 774 49 L809 180 Q637 -25 389 -25 Q248 -25 147 52 Q47 129 47 268 Q47 440 178 544 Q310 648 506 647 Q702 647 920 588 L928 616 Q942 669 942 721 Q942 840 861 903 Q780 966 636 966 Q492 966 362 924 Q346 920 336 920 Q295 920 295 965 Q295 1000 334 1012 Q481 1061 653 1061 Q825 1061 933 974 Q1041 887 1040 735 Q1040 676 1020 598 L870 39 Q858 -8 815 -8 ZM222 126 Q290 68 426 68 Q562 68 698 165 Q834 262 874 416 L899 508 Q702 557 525 557 Q348 557 251 480 Q154 403 154 294 Q154 185 222 126 Z" /><glyph glyph-name="ae" unicode="æ" d="M1786 664 Q1786 799 1711 888 Q1636 977 1480 977 Q1324 976 1195 862 Q1067 748 1020 578 L1778 578 Q1786 615 1786 664 ZM1888 670 Q1888 602 1874 535 Q1864 488 1812 487 L1001 487 Q997 442 997 418 Q998 260 1094 165 Q1190 70 1358 70 Q1526 70 1673 188 Q1713 220 1743 190 Q1755 178 1755 156 Q1755 134 1735 119 Q1569 -24 1346 -25 Q1194 -25 1087 44 Q981 113 932 231 Q686 -25 410 -25 Q252 -25 150 55 Q48 135 48 291 Q48 447 182 547 Q317 647 521 647 Q725 647 920 588 L928 616 Q942 669 942 721 Q942 840 861 903 Q780 966 636 966 Q492 966 362 924 Q346 920 336 920 Q295 920 295 965 Q295 1000 334 1012 Q481 1061 640 1061 Q799 1061 902 995 Q1005 929 1032 813 Q1118 930 1238 1000 Q1358 1070 1493 1069 Q1680 1068 1784 954 Q1888 840 1888 670 ZM512 557 Q356 557 255 481 Q154 405 154 297 Q154 189 223 128 Q293 68 418 68 Q670 68 905 324 Q897 365 897 416 Q897 467 903 510 Q737 557 512 557 Z" /><glyph glyph-name="ccedilla" unicode="ç" d="M557 -25 L551 -25 L367 -268 Q347 -293 324 -293 Q301 -293 285 -279 Q247 -245 289 -201 L463 -14 Q309 16 206 132 Q103 248 102 426 Q102 684 286 877 Q470 1070 719 1070 Q969 1070 1102 862 Q1116 839 1116 821 Q1116 803 1103 790 Q1090 776 1065 776 Q1040 776 1022 803 Q904 975 708 975 Q512 975 361 811 Q210 647 211 432 Q211 264 314 167 Q417 70 572 70 Q727 70 877 197 Q893 211 913 211 Q934 211 946 198 Q958 185 958 165 Q958 145 940 127 Q764 -25 557 -25 Z" /><glyph glyph-name="egrave" unicode="è" d="M780 1231 Q780 1212 750 1212 Q720 1212 702 1237 L578 1401 Q544 1439 589 1465 Q614 1480 650 1480 Q686 1480 700 1444 L774 1255 Q780 1237 780 1231 ZM307 165 Q403 70 572 70 Q741 70 887 188 Q928 220 956 190 Q968 178 968 156 Q968 134 948 119 Q778 -24 567 -24 Q356 -24 229 98 Q102 221 102 414 Q102 666 280 868 Q458 1070 707 1069 Q895 1069 998 954 Q1101 839 1102 670 Q1102 602 1087 535 Q1077 488 1026 487 L215 487 Q211 442 211 418 Q211 260 307 165 ZM999 664 Q999 799 925 888 Q850 977 694 977 Q538 976 408 862 Q280 748 233 578 L991 578 Q999 615 999 664 Z" /><glyph glyph-name="eacute" unicode="é" d="M846 1239 Q811 1212 775 1212 Q739 1212 739 1233 Q739 1245 750 1255 L930 1450 Q966 1485 992 1485 Q1018 1486 1049 1468 Q1080 1450 1080 1432 Q1080 1414 1057 1399 L846 1239 ZM307 165 Q403 70 572 70 Q741 70 887 188 Q928 220 956 190 Q968 178 968 156 Q968 134 948 119 Q778 -24 567 -24 Q356 -24 229 98 Q102 221 102 414 Q102 666 280 868 Q458 1070 707 1069 Q895 1069 998 954 Q1101 839 1102 670 Q1102 602 1087 535 Q1077 488 1026 487 L215 487 Q211 442 211 418 Q211 260 307 165 ZM999 664 Q999 799 925 888 Q850 977 694 977 Q538 976 408 862 Q280 748 233 578 L991 578 Q999 615 999 664 Z" /><glyph glyph-name="ecircumflex" unicode="ê" d="M997 1233 Q998 1212 962 1212 Q926 1212 903 1241 L813 1358 L645 1239 Q606 1212 578 1212 Q550 1212 549 1233 Q549 1245 565 1262 L758 1438 Q795 1475 825 1475 L838 1475 Q869 1475 889 1438 L987 1260 Q997 1240 997 1233 ZM307 165 Q403 70 572 70 Q741 70 887 188 Q928 220 956 190 Q968 178 968 156 Q968 134 948 119 Q778 -24 567 -24 Q356 -24 229 98 Q102 221 102 414 Q102 666 280 868 Q458 1070 707 1069 Q895 1069 998 954 Q1101 839 1102 670 Q1102 602 1087 535 Q1077 488 1026 487 L215 487 Q211 442 211 418 Q211 260 307 165 ZM999 664 Q999 799 925 888 Q850 977 694 977 Q538 976 408 862 Q280 748 233 578 L991 578 Q999 615 999 664 Z" /><glyph glyph-name="edieresis" unicode="ë" d="M1020 1262 Q1004 1207 944 1206 Q913 1206 896 1226 Q879 1246 885 1274 L903 1341 Q919 1396 979 1397 Q1010 1396 1028 1376 Q1046 1356 1038 1329 L1020 1262 ZM686 1262 Q670 1207 610 1206 Q579 1206 562 1226 Q545 1246 551 1274 L569 1341 Q585 1396 645 1397 Q676 1396 694 1376 Q712 1356 705 1329 L686 1262 ZM307 165 Q403 70 572 70 Q741 70 887 188 Q928 220 956 190 Q968 178 968 156 Q968 134 948 119 Q778 -24 567 -24 Q356 -24 229 98 Q102 221 102 414 Q102 666 280 868 Q458 1070 707 1069 Q895 1069 998 954 Q1101 839 1102 670 Q1102 602 1087 535 Q1077 488 1026 487 L215 487 Q211 442 211 418 Q211 260 307 165 ZM999 664 Q999 799 925 888 Q850 977 694 977 Q538 976 408 862 Q280 748 233 578 L991 578 Q999 615 999 664 Z" /><glyph glyph-name="igrave" unicode="ì" d="M371 1237 L246 1401 Q212 1439 257 1465 Q282 1480 318 1480 Q354 1480 369 1444 L442 1255 Q448 1237 449 1231 Q449 1212 419 1212 Q389 1212 371 1237 ZM121 -8 Q98 -8 86 8 Q74 24 80 49 L336 1006 Q348 1053 391 1053 Q414 1052 426 1036 Q438 1020 432 995 L176 39 Q164 -8 121 -8 Z" /><glyph glyph-name="iacute" unicode="í" d="M514 1239 Q479 1212 443 1212 Q407 1212 408 1233 Q408 1245 418 1255 L598 1450 Q634 1485 660 1485 Q686 1486 717 1468 Q748 1450 748 1432 Q748 1414 725 1399 L514 1239 ZM121 -8 Q98 -8 86 8 Q74 24 80 49 L336 1006 Q348 1053 391 1053 Q414 1052 426 1036 Q438 1020 432 995 L176 39 Q164 -8 121 -8 Z" /><glyph glyph-name="icircumflex" unicode="î" d="M313 1239 Q274 1212 246 1212 Q218 1212 217 1233 Q217 1245 233 1262 L426 1438 Q463 1475 494 1475 L506 1475 Q537 1475 557 1438 L655 1260 Q665 1240 666 1233 Q666 1212 630 1212 Q594 1212 571 1241 L481 1358 L313 1239 ZM121 -8 Q98 -8 86 8 Q74 24 80 49 L336 1006 Q348 1053 391 1053 Q414 1052 426 1036 Q438 1020 432 995 L176 39 Q164 -8 121 -8 Z" /><glyph glyph-name="idieresis" unicode="ï" d="M690 1262 Q674 1207 614 1206 Q583 1206 566 1226 Q549 1246 555 1274 L573 1341 Q589 1396 649 1397 Q680 1396 698 1376 Q716 1356 709 1329 L690 1262 ZM356 1262 Q340 1207 281 1206 Q250 1206 232 1226 Q214 1246 221 1274 L240 1341 Q256 1396 315 1397 Q346 1396 364 1376 Q382 1356 375 1329 L356 1262 ZM121 -8 Q98 -8 86 8 Q74 24 80 49 L336 1006 Q348 1053 391 1053 Q414 1052 426 1036 Q438 1020 432 995 L176 39 Q164 -8 121 -8 Z" /><glyph glyph-name="eth" unicode="ð" d="M565 72 Q764 72 908 215 Q1052 358 1053 557 Q1054 702 950 802 Q846 902 664 903 Q482 903 344 759 Q206 615 205 420 Q205 260 305 166 Q405 72 565 72 ZM760 1417 Q752 1436 752 1454 Q752 1472 768 1488 Q784 1504 815 1503 Q846 1503 862 1460 L881 1413 L1075 1499 Q1087 1505 1104 1505 Q1147 1505 1147 1460 Q1147 1427 1110 1413 L913 1327 L1065 950 Q1161 708 1161 561 Q1161 332 987 155 Q813 -22 555 -23 Q358 -23 227 103 Q96 229 96 414 Q96 652 269 822 Q442 992 670 993 Q858 993 985 885 L815 1284 L528 1157 Q516 1151 500 1151 Q457 1151 457 1196 Q457 1229 494 1243 L780 1368 L760 1417 Z" /><glyph glyph-name="ntilde" unicode="ñ" d="M565 1208 Q522 1208 522 1245 Q522 1266 551 1314 Q580 1362 622 1402 Q664 1442 716 1442 Q768 1442 796 1426 Q824 1410 876 1359 Q928 1309 968 1309 Q1010 1309 1069 1407 Q1087 1438 1110 1438 Q1153 1438 1153 1401 Q1152 1380 1124 1332 Q1096 1284 1054 1244 Q1012 1204 960 1204 Q908 1204 880 1220 Q852 1236 800 1287 Q748 1337 707 1337 Q666 1337 606 1239 Q588 1208 565 1208 ZM375 1053 Q398 1052 410 1036 Q422 1020 416 995 L379 850 Q561 1069 774 1069 Q930 1069 1023 978 Q1116 887 1116 737 Q1116 680 1094 590 L948 39 Q936 -8 893 -8 Q870 -8 858 8 Q846 24 852 49 L997 598 Q1013 659 1014 727 Q1014 844 942 912 Q870 980 739 979 Q608 979 481 868 Q354 757 309 590 L162 39 Q150 -8 106 -8 Q84 -8 72 8 Q60 24 66 49 L319 1006 Q332 1053 375 1053 Z" /><glyph glyph-name="ograve" unicode="ò" d="M827 1231 Q828 1212 798 1212 Q768 1212 750 1237 L625 1401 Q591 1439 636 1465 Q662 1480 698 1480 Q734 1480 748 1444 L821 1255 Q827 1237 827 1231 ZM213 442 Q214 268 314 169 Q414 70 594 70 Q774 70 928 230 Q1082 390 1081 602 Q1081 776 981 876 Q881 976 715 975 Q516 975 364 813 Q212 651 213 442 ZM569 -25 Q362 -25 233 105 Q104 235 104 438 Q104 688 290 878 Q476 1068 725 1069 Q932 1069 1061 939 Q1190 809 1190 606 Q1190 352 1002 164 Q814 -24 569 -25 Z" /><glyph glyph-name="oacute" unicode="ó" d="M893 1239 Q858 1212 822 1212 Q786 1212 786 1233 Q786 1245 797 1255 L977 1450 Q1012 1485 1038 1485 Q1064 1486 1096 1468 Q1127 1450 1127 1432 Q1127 1414 1104 1399 L893 1239 ZM213 442 Q214 268 314 169 Q414 70 594 70 Q774 70 928 230 Q1082 390 1081 602 Q1081 776 981 876 Q881 976 715 975 Q516 975 364 813 Q212 651 213 442 ZM569 -25 Q362 -25 233 105 Q104 235 104 438 Q104 688 290 878 Q476 1068 725 1069 Q932 1069 1061 939 Q1190 809 1190 606 Q1190 352 1002 164 Q814 -24 569 -25 Z" /><glyph glyph-name="ocircumflex" unicode="ô" d="M1044 1233 Q1044 1212 1008 1212 Q972 1212 950 1241 L860 1358 L692 1239 Q652 1212 624 1212 Q596 1212 596 1233 Q596 1245 612 1262 L805 1438 Q842 1475 872 1475 L885 1475 Q913 1475 936 1438 L1034 1260 Q1044 1240 1044 1233 ZM213 442 Q214 268 314 169 Q414 70 594 70 Q774 70 928 230 Q1082 390 1081 602 Q1081 776 981 876 Q881 976 715 975 Q516 975 364 813 Q212 651 213 442 ZM569 -25 Q362 -25 233 105 Q104 235 104 438 Q104 688 290 878 Q476 1068 725 1069 Q932 1069 1061 939 Q1190 809 1190 606 Q1190 352 1002 164 Q814 -24 569 -25 Z" /><glyph glyph-name="otilde" unicode="õ" d="M578 1208 Q535 1208 535 1245 Q536 1266 564 1314 Q640 1442 739 1442 Q780 1442 808 1426 Q836 1410 888 1359 Q940 1309 981 1309 Q1022 1309 1081 1407 Q1099 1438 1122 1438 Q1165 1438 1165 1401 Q1164 1380 1136 1332 Q1060 1204 961 1204 Q920 1204 892 1220 Q864 1236 812 1287 Q760 1337 719 1337 Q678 1337 618 1239 Q601 1208 578 1208 ZM213 442 Q214 268 314 169 Q414 70 594 70 Q774 70 928 230 Q1082 390 1081 602 Q1081 776 981 876 Q881 976 715 975 Q516 975 364 813 Q212 651 213 442 ZM569 -25 Q362 -25 233 105 Q104 235 104 438 Q104 688 290 878 Q476 1068 725 1069 Q932 1069 1061 939 Q1190 809 1190 606 Q1190 352 1002 164 Q814 -24 569 -25 Z" /><glyph glyph-name="odieresis" unicode="ö" d="M1067 1262 Q1051 1207 991 1206 Q960 1206 943 1226 Q926 1246 932 1274 L950 1341 Q966 1396 1026 1397 Q1057 1396 1075 1376 Q1093 1356 1085 1329 L1067 1262 ZM733 1262 Q717 1207 657 1206 Q626 1206 609 1226 Q592 1246 598 1274 L616 1341 Q632 1396 692 1397 Q723 1396 741 1376 Q759 1356 752 1329 L733 1262 ZM213 442 Q214 268 314 169 Q414 70 594 70 Q774 70 928 230 Q1082 390 1081 602 Q1081 776 981 876 Q881 976 715 975 Q516 975 364 813 Q212 651 213 442 ZM569 -25 Q362 -25 233 105 Q104 235 104 438 Q104 688 290 878 Q476 1068 725 1069 Q932 1069 1061 939 Q1190 809 1190 606 Q1190 352 1002 164 Q814 -24 569 -25 Z" /><glyph glyph-name="divide" unicode="÷" d="M655 291 Q635 228 565 227 Q530 227 508 250 Q486 273 496 305 L512 362 Q532 425 602 426 Q636 426 658 403 Q680 380 672 348 L655 291 ZM776 1016 Q742 1016 720 1038 Q698 1060 707 1094 L723 1151 Q743 1214 813 1214 Q848 1214 870 1192 Q892 1170 883 1137 L866 1079 Q846 1016 776 1016 ZM236 672 Q216 672 201 686 Q186 700 186 720 Q186 740 200 756 Q214 770 236 770 L1145 770 Q1166 770 1180 756 Q1194 742 1194 722 Q1194 702 1180 686 Q1166 672 1145 672 L236 672 Z" /><glyph glyph-name="oslash" unicode="ø" d="M33 -18 Q-6 -18 -6 18 Q-6 43 16 61 L170 186 Q104 295 104 438 Q104 688 290 878 Q476 1068 725 1069 Q940 1069 1071 928 L1219 1047 Q1246 1067 1266 1067 Q1305 1067 1305 1030 Q1305 1005 1282 987 L1124 858 Q1190 749 1190 606 Q1190 352 1002 164 Q814 -24 569 -25 Q356 -24 223 119 L80 2 Q53 -18 33 -18 ZM213 442 Q213 338 252 254 L995 864 Q896 975 706 975 Q516 975 364 813 Q212 651 213 442 ZM299 180 Q398 70 586 70 Q774 70 928 230 Q1082 390 1081 602 Q1081 706 1042 791 L299 180 Z" /><glyph glyph-name="ugrave" unicode="ù" d="M713 1237 L588 1401 Q554 1439 599 1465 Q624 1480 660 1480 Q696 1480 711 1444 L784 1255 Q790 1237 791 1231 Q791 1212 761 1212 Q731 1212 713 1237 ZM872 -8 Q850 -8 838 8 Q826 24 831 49 L868 195 Q686 -24 473 -25 Q317 -26 224 66 Q131 158 131 307 Q131 364 154 455 L299 1006 Q311 1053 354 1053 Q377 1052 389 1036 Q401 1020 395 995 L250 446 Q234 385 233 317 Q233 200 305 132 Q377 64 508 66 Q639 66 766 176 Q893 286 938 455 L1085 1006 Q1097 1053 1141 1053 Q1164 1052 1176 1036 Q1188 1020 1182 995 L928 39 Q915 -8 872 -8 Z" /><glyph glyph-name="uacute" unicode="ú" d="M856 1239 Q821 1212 785 1212 Q749 1212 750 1233 Q750 1245 760 1255 L940 1450 Q976 1485 1002 1485 Q1028 1486 1059 1468 Q1090 1450 1090 1432 Q1090 1414 1067 1399 L856 1239 ZM872 -8 Q850 -8 838 8 Q826 24 831 49 L868 195 Q686 -24 473 -25 Q317 -26 224 66 Q131 158 131 307 Q131 364 154 455 L299 1006 Q311 1053 354 1053 Q377 1052 389 1036 Q401 1020 395 995 L250 446 Q234 385 233 317 Q233 200 305 132 Q377 64 508 66 Q639 66 766 176 Q893 286 938 455 L1085 1006 Q1097 1053 1141 1053 Q1164 1052 1176 1036 Q1188 1020 1182 995 L928 39 Q915 -8 872 -8 Z" /><glyph glyph-name="ucircumflex" unicode="û" d="M657 1239 Q618 1212 590 1212 Q562 1212 561 1233 Q561 1245 578 1262 L770 1438 Q807 1475 838 1475 L850 1475 Q881 1475 901 1438 L999 1260 Q1009 1240 1010 1233 Q1010 1212 974 1212 Q938 1212 915 1241 L825 1358 L657 1239 ZM872 -8 Q850 -8 838 8 Q826 24 831 49 L868 195 Q686 -24 473 -25 Q317 -26 224 66 Q131 158 131 307 Q131 364 154 455 L299 1006 Q311 1053 354 1053 Q377 1052 389 1036 Q401 1020 395 995 L250 446 Q234 385 233 317 Q233 200 305 132 Q377 64 508 66 Q639 66 766 176 Q893 286 938 455 L1085 1006 Q1097 1053 1141 1053 Q1164 1052 1176 1036 Q1188 1020 1182 995 L928 39 Q915 -8 872 -8 Z" /><glyph glyph-name="udieresis" unicode="ü" d="M1030 1262 Q1014 1207 954 1206 Q923 1206 906 1226 Q889 1246 895 1274 L913 1341 Q929 1396 989 1397 Q1020 1396 1038 1376 Q1056 1356 1049 1329 L1030 1262 ZM696 1262 Q680 1207 621 1206 Q590 1206 572 1226 Q554 1246 561 1274 L580 1341 Q596 1396 655 1397 Q686 1396 704 1376 Q722 1356 715 1329 L696 1262 ZM872 -8 Q850 -8 838 8 Q826 24 831 49 L868 195 Q686 -24 473 -25 Q317 -26 224 66 Q131 158 131 307 Q131 364 154 455 L299 1006 Q311 1053 354 1053 Q377 1052 389 1036 Q401 1020 395 995 L250 446 Q234 385 233 317 Q233 200 305 132 Q377 64 508 66 Q639 66 766 176 Q893 286 938 455 L1085 1006 Q1097 1053 1141 1053 Q1164 1052 1176 1036 Q1188 1020 1182 995 L928 39 Q915 -8 872 -8 Z" /><glyph glyph-name="yacute" unicode="ý" d="M780 1239 Q745 1212 709 1212 Q673 1212 674 1233 Q674 1245 684 1255 L864 1450 Q899 1485 926 1485 Q954 1486 984 1468 Q1014 1450 1014 1432 Q1014 1414 991 1399 L780 1239 ZM62 -240 Q214 -240 387 6 L190 965 Q186 985 186 1001 Q186 1052 232 1052 Q278 1052 289 999 L463 111 L1069 1012 Q1096 1053 1128 1053 Q1173 1053 1174 1010 Q1174 990 1161 971 L469 -37 Q358 -198 257 -266 Q156 -334 52 -334 Q-52 -334 -145 -285 Q-174 -272 -174 -246 Q-174 -194 -127 -193 Q-110 -193 -94 -201 Q-12 -240 62 -240 Z" /><glyph glyph-name="thorn" unicode="þ" d="M498 1503 Q520 1503 532 1487 Q544 1471 539 1446 L375 840 Q568 1069 809 1069 Q991 1069 1110 945 Q1229 821 1229 629 Q1229 354 1053 164 Q877 -26 639 -27 Q477 -27 373 56 Q269 139 223 266 L74 -289 Q62 -336 18 -336 Q-5 -336 -17 -320 Q-29 -304 -23 -279 L442 1456 Q454 1503 498 1503 ZM635 68 Q842 68 981 232 Q1120 396 1120 616 Q1120 776 1030 876 Q940 976 797 975 Q600 975 437 807 Q274 639 274 432 Q274 278 376 173 Q478 68 635 68 Z" /><glyph glyph-name="ydieresis" unicode="ÿ" d="M954 1262 Q938 1207 879 1206 Q848 1206 830 1226 Q812 1246 819 1274 L838 1341 Q854 1396 913 1397 Q944 1396 962 1376 Q980 1356 973 1329 L954 1262 ZM621 1262 Q605 1207 545 1206 Q514 1206 497 1226 Q480 1246 485 1274 L504 1341 Q520 1396 580 1397 Q611 1396 629 1376 Q647 1356 639 1329 L621 1262 ZM62 -240 Q214 -240 387 6 L190 965 Q186 985 186 1001 Q186 1052 232 1052 Q278 1052 289 999 L463 111 L1069 1012 Q1096 1053 1128 1053 Q1173 1053 1174 1010 Q1174 990 1161 971 L469 -37 Q358 -198 257 -266 Q156 -334 52 -334 Q-52 -334 -145 -285 Q-174 -272 -174 -246 Q-174 -194 -127 -193 Q-110 -193 -94 -201 Q-12 -240 62 -240 Z" /><glyph glyph-name="Amacron" unicode="&#x100;" d="M1376 1640 L836 1640 Q816 1640 802 1654 Q788 1668 786 1690 Q786 1710 800 1724 Q814 1738 836 1739 L1376 1739 Q1396 1738 1410 1724 Q1424 1710 1425 1690 Q1424 1670 1410 1655 Q1396 1640 1376 1640 ZM1354 74 Q1358 58 1358 40 Q1358 22 1344 8 Q1330 -8 1307 -8 Q1262 -8 1251 43 L1186 401 L340 401 L72 31 Q40 -8 18 -8 Q-29 -8 -31 39 Q-31 57 -18 70 L950 1397 Q989 1448 1030 1448 L1034 1448 Q1088 1448 1098 1397 L1354 74 ZM410 498 L1165 498 L1012 1327 L410 498 Z" /><glyph glyph-name="amacron" unicode="&#x101;" d="M1028 1272 L487 1272 Q467 1272 453 1286 Q438 1300 438 1320 Q438 1340 452 1356 Q466 1370 487 1370 L1028 1370 Q1048 1370 1062 1356 Q1076 1342 1077 1322 Q1077 1302 1063 1286 Q1048 1272 1028 1272 ZM815 -8 Q792 -8 780 8 Q768 24 774 49 L809 180 Q637 -25 389 -25 Q248 -25 147 52 Q47 129 47 268 Q47 440 178 544 Q310 648 506 647 Q702 647 920 588 L928 616 Q942 669 942 721 Q942 840 861 903 Q780 966 636 966 Q492 966 362 924 Q346 920 336 920 Q295 920 295 965 Q295 1000 334 1012 Q481 1061 653 1061 Q825 1061 933 974 Q1041 887 1040 735 Q1040 676 1020 598 L870 39 Q858 -8 815 -8 ZM222 126 Q290 68 426 68 Q562 68 698 165 Q834 262 874 416 L899 508 Q702 557 525 557 Q348 557 251 480 Q154 403 154 294 Q154 185 222 126 Z" /><glyph glyph-name="Abreve" unicode="&#x102;" d="M1267 1635 Q1181 1583 1084 1583 Q987 1583 928 1630 Q868 1678 868 1762 Q868 1846 918 1845 Q954 1845 960 1796 Q966 1747 996 1717 Q1026 1687 1104 1688 Q1231 1688 1311 1808 Q1336 1845 1357 1845 Q1378 1845 1390 1834 Q1402 1822 1403 1808 Q1403 1794 1397 1782 Q1352 1688 1267 1635 ZM1354 74 Q1358 58 1358 40 Q1358 22 1344 8 Q1330 -8 1307 -8 Q1262 -8 1251 43 L1186 401 L340 401 L72 31 Q40 -8 18 -8 Q-29 -8 -31 39 Q-31 57 -18 70 L950 1397 Q989 1448 1030 1448 L1034 1448 Q1088 1448 1098 1397 L1354 74 ZM410 498 L1165 498 L1012 1327 L410 498 Z" /><glyph glyph-name="abreve" unicode="&#x103;" d="M738 1214 Q641 1214 582 1262 Q522 1310 522 1393 Q522 1477 571 1477 Q606 1477 613 1428 Q620 1379 650 1349 Q680 1319 758 1319 Q885 1319 965 1440 Q990 1477 1011 1477 Q1032 1477 1049 1461 Q1066 1445 1051 1413 Q1006 1318 920 1266 Q834 1214 738 1214 ZM815 -8 Q792 -8 780 8 Q768 24 774 49 L809 180 Q637 -25 389 -25 Q248 -25 147 52 Q47 129 47 268 Q47 440 178 544 Q310 648 506 647 Q702 647 920 588 L928 616 Q942 669 942 721 Q942 840 861 903 Q780 966 636 966 Q492 966 362 924 Q346 920 336 920 Q295 920 295 965 Q295 1000 334 1012 Q481 1061 653 1061 Q825 1061 933 974 Q1041 887 1040 735 Q1040 676 1020 598 L870 39 Q858 -8 815 -8 ZM222 126 Q290 68 426 68 Q562 68 698 165 Q834 262 874 416 L899 508 Q702 557 525 557 Q348 557 251 480 Q154 403 154 294 Q154 185 222 126 Z" /><glyph glyph-name="Aogonek" unicode="&#x104;" d="M410 498 L1165 498 L1012 1327 L410 498 ZM1266 -334 Q1170 -334 1117 -295 Q1065 -256 1065 -199 Q1065 -142 1114 -90 Q1163 -38 1255 23 L1186 401 L340 401 L72 31 Q40 -8 18 -8 Q-29 -8 -31 39 Q-31 57 -18 70 L950 1397 Q989 1448 1030 1448 L1034 1448 Q1087 1448 1098 1397 L1354 74 Q1358 58 1358 37 Q1358 16 1335 0 Q1169 -109 1169 -184 Q1169 -213 1193 -229 Q1217 -245 1276 -258 Q1309 -264 1309 -295 Q1309 -334 1266 -334 Z" /><glyph glyph-name="aogonek" unicode="&#x105;" d="M222 126 Q290 68 426 68 Q562 68 698 165 Q834 262 874 416 L899 508 Q702 557 525 557 Q348 557 251 480 Q154 403 154 294 Q154 185 222 126 ZM682 -184 Q682 -213 706 -229 Q730 -245 788 -258 Q821 -264 821 -295 Q821 -334 778 -334 Q682 -334 630 -295 Q578 -256 578 -201 Q578 -97 772 27 Q772 41 774 49 L809 180 Q637 -25 389 -25 Q248 -25 147 52 Q47 129 47 268 Q47 440 178 544 Q310 648 506 647 Q702 647 920 588 L928 616 Q942 669 942 721 Q942 840 861 903 Q780 966 636 966 Q492 966 362 924 Q346 920 336 920 Q295 920 295 965 Q295 1000 334 1012 Q481 1061 653 1061 Q825 1061 933 974 Q1041 887 1040 735 Q1040 676 1020 598 L870 39 Q863 10 840 -4 Q682 -110 682 -184 Z" /><glyph glyph-name="Cacute" unicode="&#x106;" d="M1151 1608 Q1116 1581 1080 1581 Q1044 1581 1044 1602 Q1044 1614 1055 1624 L1235 1819 Q1270 1854 1296 1854 Q1322 1854 1354 1836 Q1385 1819 1385 1801 Q1385 1783 1362 1767 L1151 1608 ZM774 -27 Q528 -27 358 132 Q188 292 188 538 Q188 784 302 993 Q416 1202 615 1330 Q815 1458 1044 1458 Q1212 1458 1340 1388 Q1468 1318 1540 1202 Q1567 1153 1538 1122 Q1524 1108 1498 1109 Q1472 1110 1458 1133 Q1388 1242 1291 1302 Q1194 1362 1038 1362 Q735 1362 517 1116 Q299 870 299 559 Q299 336 435 204 Q571 72 784 72 Q1040 72 1241 260 Q1280 299 1315 264 Q1329 250 1329 229 Q1329 208 1309 188 Q1080 -27 774 -27 Z" /><glyph glyph-name="cacute" unicode="&#x107;" d="M838 1239 Q803 1212 767 1212 Q731 1212 731 1233 Q731 1245 741 1255 L922 1450 Q958 1485 984 1485 Q1010 1486 1040 1468 Q1099 1434 1049 1399 L838 1239 ZM940 127 Q764 -25 570 -25 Q376 -25 239 98 Q103 221 102 426 Q102 684 286 877 Q470 1070 719 1070 Q969 1070 1102 862 Q1116 839 1116 821 Q1116 803 1103 790 Q1090 776 1065 776 Q1040 776 1022 803 Q904 975 708 975 Q512 975 361 811 Q210 647 211 432 Q211 264 314 167 Q417 70 572 70 Q727 70 877 197 Q893 211 913 211 Q934 211 946 198 Q958 185 958 165 Q958 145 940 127 Z" /><glyph glyph-name="Cdotaccent" unicode="&#x10a;" d="M1083 1575 Q1052 1575 1035 1594 Q1018 1613 1024 1642 L1042 1710 Q1058 1765 1118 1765 Q1149 1765 1167 1745 Q1185 1725 1178 1698 L1159 1630 Q1143 1575 1083 1575 ZM774 -27 Q528 -27 358 132 Q188 292 188 538 Q188 784 302 993 Q416 1202 615 1330 Q815 1458 1044 1458 Q1212 1458 1340 1388 Q1468 1318 1540 1202 Q1567 1153 1538 1122 Q1524 1108 1498 1109 Q1472 1110 1458 1133 Q1388 1242 1291 1302 Q1194 1362 1038 1362 Q735 1362 517 1116 Q299 870 299 559 Q299 336 435 204 Q571 72 784 72 Q1040 72 1241 260 Q1280 299 1315 264 Q1329 250 1329 229 Q1329 208 1309 188 Q1080 -27 774 -27 Z" /><glyph glyph-name="cdotaccent" unicode="&#x10b;" d="M846 1262 Q830 1207 770 1206 Q739 1206 722 1226 Q705 1246 711 1274 L729 1341 Q745 1396 805 1397 Q836 1396 854 1376 Q872 1356 864 1329 L846 1262 ZM940 127 Q764 -25 570 -25 Q376 -25 239 98 Q103 221 102 426 Q102 684 286 877 Q470 1070 719 1070 Q969 1070 1102 862 Q1116 839 1116 821 Q1116 803 1103 790 Q1090 776 1065 776 Q1040 776 1022 803 Q904 975 708 975 Q512 975 361 811 Q210 647 211 432 Q211 264 314 167 Q417 70 572 70 Q727 70 877 197 Q893 211 913 211 Q934 211 946 198 Q958 185 958 165 Q958 145 940 127 Z" /><glyph glyph-name="Ccaron" unicode="&#x10c;" d="M920 1823 Q920 1843 956 1843 Q992 1843 1014 1815 L1104 1698 L1272 1817 Q1312 1844 1340 1844 Q1368 1844 1368 1823 Q1368 1811 1352 1794 L1159 1618 Q1122 1581 1092 1581 L1079 1581 Q1048 1581 1028 1618 L930 1796 Q920 1816 920 1823 ZM774 -27 Q528 -27 358 132 Q188 292 188 538 Q188 784 302 993 Q416 1202 615 1330 Q815 1458 1044 1458 Q1212 1458 1340 1388 Q1468 1318 1540 1202 Q1567 1153 1538 1122 Q1524 1108 1498 1109 Q1472 1110 1458 1133 Q1388 1242 1291 1302 Q1194 1362 1038 1362 Q735 1362 517 1116 Q299 870 299 559 Q299 336 435 204 Q571 72 784 72 Q1040 72 1241 260 Q1280 299 1315 264 Q1329 250 1329 229 Q1329 208 1309 188 Q1080 -27 774 -27 Z" /><glyph glyph-name="ccaron" unicode="&#x10d;" d="M606 1454 Q606 1474 642 1474 Q678 1474 700 1446 L791 1329 L958 1448 Q997 1475 1026 1475 Q1055 1475 1055 1454 Q1055 1442 1038 1425 L846 1249 Q809 1212 778 1212 L766 1212 Q738 1212 715 1249 L616 1427 Q606 1447 606 1454 ZM940 127 Q764 -25 570 -25 Q376 -25 239 98 Q103 221 102 426 Q102 684 286 877 Q470 1070 719 1070 Q969 1070 1102 862 Q1116 839 1116 821 Q1116 803 1103 790 Q1090 776 1065 776 Q1040 776 1022 803 Q904 975 708 975 Q512 975 361 811 Q210 647 211 432 Q211 264 314 167 Q417 70 572 70 Q727 70 877 197 Q893 211 913 211 Q934 211 946 198 Q958 185 958 165 Q958 145 940 127 Z" /><glyph glyph-name="Dcaron" unicode="&#x10e;" d="M834 1802 Q834 1822 870 1822 Q906 1822 928 1794 L1018 1677 L1186 1796 Q1226 1823 1254 1823 Q1282 1823 1282 1802 Q1282 1790 1266 1774 L1073 1597 Q1036 1560 1006 1561 L993 1561 Q962 1560 942 1597 L844 1776 Q834 1796 834 1802 ZM506 1434 L780 1434 Q1145 1434 1337 1241 Q1495 1083 1495 831 Q1495 499 1272 276 Q1142 144 952 72 Q762 0 543 0 L133 0 Q110 0 96 16 Q82 32 88 53 L444 1380 Q450 1402 468 1418 Q486 1434 506 1434 ZM557 98 Q946 98 1192 344 Q1385 537 1384 823 Q1384 1044 1251 1174 Q1089 1336 774 1335 L539 1335 L207 98 L557 98 Z" /><glyph glyph-name="dcaron" unicode="&#x10f;" d="M1645 1501 L1671 1501 Q1700 1501 1700 1479 Q1700 1463 1681 1434 L1550 1217 Q1530 1182 1505 1182 Q1480 1182 1481 1200 Q1481 1209 1487 1223 L1573 1450 Q1593 1501 1645 1501 ZM965 -8 Q942 -8 930 8 Q918 24 924 49 L963 203 Q770 -26 530 -27 Q348 -27 229 97 Q110 221 111 414 Q111 688 287 878 Q463 1068 700 1069 Q862 1069 966 986 Q1070 903 1116 776 L1298 1456 Q1310 1503 1354 1503 Q1377 1503 1389 1487 Q1401 1471 1395 1446 L1020 39 Q1008 -8 965 -8 ZM543 68 Q740 68 902 236 Q1064 404 1065 610 Q1065 764 964 869 Q863 974 705 975 Q498 975 358 811 Q218 647 219 426 Q220 266 310 167 Q400 68 543 68 Z" /><glyph glyph-name="Dcroat" unicode="&#x110;" d="M618 98 Q1007 98 1253 344 Q1446 537 1446 823 Q1446 1044 1313 1174 Q1151 1336 836 1335 L600 1335 L449 770 L868 770 Q888 770 902 756 Q916 742 918 722 Q918 702 904 686 Q890 672 868 672 L422 672 L268 98 L618 98 ZM567 1434 L842 1434 Q1207 1434 1399 1241 Q1557 1083 1556 831 Q1556 499 1333 276 Q1202 144 1013 72 Q824 0 604 0 L195 0 Q172 0 158 16 Q144 32 150 53 L315 672 L217 672 Q197 672 182 686 Q168 700 168 720 Q168 740 182 756 Q196 770 217 770 L342 770 L506 1380 Q512 1402 530 1418 Q548 1434 567 1434 Z" /><glyph glyph-name="dcroat" unicode="&#x111;" d="M543 68 Q740 68 902 236 Q1064 404 1065 610 Q1065 764 964 869 Q863 974 705 975 Q498 975 358 811 Q218 647 219 426 Q220 266 310 167 Q400 68 543 68 ZM965 -8 Q942 -8 930 8 Q918 24 924 49 L963 203 Q770 -26 530 -27 Q348 -27 229 97 Q110 221 111 414 Q111 688 287 878 Q463 1068 700 1069 Q862 1069 966 986 Q1070 903 1116 776 L1247 1268 L918 1268 Q900 1268 886 1281 Q872 1294 872 1312 Q872 1330 886 1344 Q900 1358 918 1358 L1272 1358 L1298 1456 Q1310 1503 1354 1503 Q1377 1503 1389 1487 Q1401 1471 1395 1446 L1370 1358 L1466 1358 Q1484 1358 1498 1345 Q1512 1332 1511 1314 Q1511 1296 1498 1282 Q1485 1268 1466 1268 L1348 1268 L1020 39 Q1008 -8 965 -8 Z" /><glyph glyph-name="Emacron" unicode="&#x112;" d="M1286 1620 L745 1620 Q725 1620 711 1634 Q696 1648 696 1668 Q696 1688 710 1704 Q724 1718 745 1718 L1286 1718 Q1306 1718 1320 1704 Q1334 1690 1335 1670 Q1335 1650 1321 1634 Q1306 1620 1286 1620 ZM1065 0 L133 0 Q110 0 96 16 Q82 32 88 53 L444 1380 Q450 1403 468 1418 Q486 1433 506 1434 L1413 1434 Q1434 1434 1448 1420 Q1462 1406 1462 1384 Q1462 1364 1448 1350 Q1434 1336 1413 1335 L539 1335 L387 772 L1143 772 Q1164 772 1178 758 Q1192 744 1192 724 Q1192 704 1178 688 Q1164 674 1143 674 L360 674 L207 98 L1065 98 Q1086 98 1100 84 Q1114 70 1114 50 Q1114 30 1100 14 Q1085 0 1065 0 Z" /><glyph glyph-name="emacron" unicode="&#x113;" d="M1073 1272 L532 1272 Q512 1272 498 1286 Q484 1300 484 1320 Q484 1340 498 1356 Q512 1370 532 1370 L1073 1370 Q1094 1370 1108 1356 Q1122 1342 1122 1322 Q1122 1302 1108 1286 Q1093 1272 1073 1272 ZM307 165 Q403 70 572 70 Q741 70 887 188 Q928 220 956 190 Q968 178 968 156 Q968 134 948 119 Q778 -24 567 -24 Q356 -24 229 98 Q102 221 102 414 Q102 666 280 868 Q458 1070 707 1069 Q895 1069 998 954 Q1101 839 1102 670 Q1102 602 1087 535 Q1077 488 1026 487 L215 487 Q211 442 211 418 Q211 260 307 165 ZM999 664 Q999 799 925 888 Q850 977 694 977 Q538 976 408 862 Q280 748 233 578 L991 578 Q999 615 999 664 Z" /><glyph glyph-name="Ebreve" unicode="&#x114;" d="M994 1563 Q897 1563 838 1610 Q778 1657 778 1741 Q778 1825 827 1825 Q862 1825 869 1776 Q876 1727 906 1697 Q936 1667 1014 1667 Q1141 1667 1221 1788 Q1246 1825 1267 1825 Q1288 1825 1305 1809 Q1322 1793 1307 1761 Q1262 1667 1176 1615 Q1090 1563 994 1563 ZM1065 0 L133 0 Q110 0 96 16 Q82 32 88 53 L444 1380 Q450 1403 468 1418 Q486 1433 506 1434 L1413 1434 Q1434 1434 1448 1420 Q1462 1406 1462 1384 Q1462 1364 1448 1350 Q1434 1336 1413 1335 L539 1335 L387 772 L1143 772 Q1164 772 1178 758 Q1192 744 1192 724 Q1192 704 1178 688 Q1164 674 1143 674 L360 674 L207 98 L1065 98 Q1086 98 1100 84 Q1114 70 1114 50 Q1114 30 1100 14 Q1085 0 1065 0 Z" /><glyph glyph-name="ebreve" unicode="&#x115;" d="M964 1266 Q878 1214 781 1214 Q684 1214 625 1262 Q566 1310 566 1393 Q566 1477 614 1477 Q649 1477 656 1428 Q663 1379 693 1349 Q723 1319 801 1319 Q928 1319 1008 1440 Q1033 1477 1054 1477 Q1075 1477 1092 1461 Q1109 1445 1094 1413 Q1050 1318 964 1266 ZM307 165 Q403 70 572 70 Q741 70 887 188 Q928 220 956 190 Q968 178 968 156 Q968 134 948 119 Q778 -24 567 -24 Q356 -24 229 98 Q102 221 102 414 Q102 666 280 868 Q458 1070 707 1069 Q895 1069 998 954 Q1101 839 1102 670 Q1102 602 1087 535 Q1077 488 1026 487 L215 487 Q211 442 211 418 Q211 260 307 165 ZM999 664 Q999 799 925 888 Q850 977 694 977 Q538 976 408 862 Q280 748 233 578 L991 578 Q999 615 999 664 Z" /><glyph glyph-name="Edotaccent" unicode="&#x116;" d="M1026 1745 Q1057 1744 1075 1724 Q1093 1704 1085 1677 L1067 1610 Q1051 1555 991 1554 Q960 1554 943 1574 Q926 1594 932 1622 L950 1690 Q966 1745 1026 1745 ZM1065 0 L133 0 Q110 0 96 16 Q82 32 88 53 L444 1380 Q450 1403 468 1418 Q486 1433 506 1434 L1413 1434 Q1434 1434 1448 1420 Q1462 1406 1462 1384 Q1462 1364 1448 1350 Q1434 1336 1413 1335 L539 1335 L387 772 L1143 772 Q1164 772 1178 758 Q1192 744 1192 724 Q1192 704 1178 688 Q1164 674 1143 674 L360 674 L207 98 L1065 98 Q1086 98 1100 84 Q1114 70 1114 50 Q1114 30 1100 14 Q1085 0 1065 0 Z" /><glyph glyph-name="edotaccent" unicode="&#x117;" d="M854 1262 Q838 1207 778 1206 Q747 1206 730 1226 Q713 1246 719 1274 L737 1341 Q753 1396 813 1397 Q844 1396 862 1376 Q880 1356 872 1329 L854 1262 ZM307 165 Q403 70 572 70 Q741 70 887 188 Q928 220 956 190 Q968 178 968 156 Q968 134 948 119 Q778 -24 567 -24 Q356 -24 229 98 Q102 221 102 414 Q102 666 280 868 Q458 1070 707 1069 Q895 1069 998 954 Q1101 839 1102 670 Q1102 602 1087 535 Q1077 488 1026 487 L215 487 Q211 442 211 418 Q211 260 307 165 ZM999 664 Q999 799 925 888 Q850 977 694 977 Q538 976 408 862 Q280 748 233 578 L991 578 Q999 615 999 664 Z" /><glyph glyph-name="Eogonek" unicode="&#x118;" d="M915 -184 Q915 -213 939 -229 Q963 -245 1022 -258 Q1055 -264 1055 -295 Q1055 -334 1012 -334 Q916 -334 863 -295 Q811 -256 811 -201 Q811 -105 965 0 L133 0 Q110 0 96 16 Q82 32 88 53 L444 1380 Q450 1403 468 1418 Q486 1433 506 1434 L1413 1434 Q1434 1434 1448 1420 Q1462 1406 1462 1384 Q1462 1364 1448 1350 Q1434 1336 1413 1335 L539 1335 L387 772 L1143 772 Q1164 772 1178 758 Q1192 744 1192 724 Q1192 704 1178 688 Q1164 674 1143 674 L360 674 L207 98 L1063 98 Q1114 98 1114 53 Q1114 22 1083 2 Q915 -109 915 -184 Z" /><glyph glyph-name="eogonek" unicode="&#x119;" d="M999 664 Q999 799 925 888 Q850 977 694 977 Q538 976 408 862 Q280 748 233 578 L991 578 Q999 615 999 664 ZM637 -179 Q636 -213 660 -229 Q684 -245 743 -258 Q776 -264 776 -295 Q776 -334 733 -334 Q637 -334 585 -295 Q533 -256 532 -201 Q532 -109 664 -16 Q594 -24 557 -25 Q356 -25 229 98 Q102 221 102 414 Q102 666 280 868 Q458 1070 707 1069 Q895 1069 998 954 Q1101 839 1102 670 Q1102 602 1087 535 Q1077 488 1026 487 L215 487 Q211 442 211 418 Q211 260 307 165 Q403 70 572 70 Q741 70 887 188 Q928 220 956 190 Q968 178 968 156 Q968 134 948 119 L795 2 Q705 -68 671 -106 Q637 -144 637 -179 Z" /><glyph glyph-name="Ecaron" unicode="&#x11a;" d="M1182 1796 Q1222 1823 1250 1823 Q1278 1823 1278 1802 Q1278 1790 1262 1774 L1069 1597 Q1032 1560 1001 1561 L989 1561 Q958 1560 938 1597 L840 1776 Q830 1796 829 1802 Q829 1822 865 1822 Q901 1822 924 1794 L1014 1677 L1182 1796 ZM1065 0 L133 0 Q110 0 96 16 Q82 32 88 53 L444 1380 Q450 1403 468 1418 Q486 1433 506 1434 L1413 1434 Q1434 1434 1448 1420 Q1462 1406 1462 1384 Q1462 1364 1448 1350 Q1434 1336 1413 1335 L539 1335 L387 772 L1143 772 Q1164 772 1178 758 Q1192 744 1192 724 Q1192 704 1178 688 Q1164 674 1143 674 L360 674 L207 98 L1065 98 Q1086 98 1100 84 Q1114 70 1114 50 Q1114 30 1100 14 Q1085 0 1065 0 Z" /><glyph glyph-name="ecaron" unicode="&#x11b;" d="M967 1448 Q1006 1475 1034 1475 Q1062 1475 1063 1454 Q1063 1442 1047 1425 L854 1249 Q817 1212 786 1212 L774 1212 Q746 1212 723 1249 L625 1427 Q615 1447 614 1454 Q614 1474 650 1474 Q686 1474 709 1446 L799 1329 L967 1448 ZM307 165 Q403 70 572 70 Q741 70 887 188 Q928 220 956 190 Q968 178 968 156 Q968 134 948 119 Q778 -24 567 -24 Q356 -24 229 98 Q102 221 102 414 Q102 666 280 868 Q458 1070 707 1069 Q895 1069 998 954 Q1101 839 1102 670 Q1102 602 1087 535 Q1077 488 1026 487 L215 487 Q211 442 211 418 Q211 260 307 165 ZM999 664 Q999 799 925 888 Q850 977 694 977 Q538 976 408 862 Q280 748 233 578 L991 578 Q999 615 999 664 Z" /><glyph glyph-name="Gbreve" unicode="&#x11e;" d="M1113 1583 Q1016 1583 956 1630 Q897 1678 897 1762 Q897 1846 946 1845 Q981 1845 988 1796 Q995 1747 1025 1717 Q1055 1687 1133 1688 Q1260 1688 1339 1808 Q1364 1845 1386 1845 Q1408 1845 1425 1829 Q1443 1813 1425 1782 Q1380 1688 1295 1636 Q1210 1584 1113 1583 ZM1278 102 Q1053 -27 797 -27 Q541 -27 367 139 Q193 305 193 578 Q194 798 306 1000 Q418 1202 622 1330 Q826 1458 1067 1458 Q1384 1458 1554 1245 Q1591 1199 1562 1164 Q1549 1149 1524 1149 Q1499 1149 1483 1171 Q1350 1361 1057 1362 Q848 1362 672 1247 Q496 1132 400 954 Q304 776 303 582 Q303 344 444 207 Q585 70 820 70 Q1055 70 1231 186 L1362 645 L934 645 Q914 645 899 659 Q885 674 885 694 Q885 714 899 728 Q913 742 934 743 L1430 743 Q1455 742 1469 724 Q1483 706 1477 686 L1329 170 Q1317 125 1278 102 Z" /><glyph glyph-name="gbreve" unicode="&#x11f;" d="M1039 1266 Q954 1214 857 1214 Q760 1214 700 1262 Q640 1310 641 1393 Q641 1477 690 1477 Q725 1477 732 1428 Q739 1379 769 1349 Q799 1319 877 1319 Q1004 1319 1083 1440 Q1108 1477 1130 1477 Q1152 1477 1168 1460 Q1185 1443 1169 1413 Q1124 1318 1039 1266 ZM1235 1053 Q1258 1052 1270 1036 Q1282 1020 1276 995 L1047 129 Q992 -74 883 -182 Q733 -332 478 -332 Q223 -332 20 -164 Q-2 -146 -2 -122 Q-2 -98 11 -84 Q24 -70 46 -70 Q68 -70 86 -84 Q266 -238 479 -238 Q692 -238 809 -121 Q901 -29 952 154 L989 285 Q794 78 559 78 Q383 78 253 190 Q123 302 123 483 Q123 735 303 902 Q483 1069 715 1069 Q1001 1070 1122 791 L1180 1006 Q1192 1053 1235 1053 ZM578 172 Q774 172 926 316 Q1078 460 1077 639 Q1077 772 976 872 Q875 972 698 972 Q520 972 376 836 Q232 699 231 489 Q231 340 334 256 Q437 172 578 172 Z" /><glyph glyph-name="Gdotaccent" unicode="&#x120;" d="M1110 1575 Q1079 1575 1062 1594 Q1045 1613 1051 1642 L1069 1710 Q1085 1765 1145 1765 Q1176 1765 1194 1745 Q1212 1725 1204 1698 L1186 1630 Q1170 1575 1110 1575 ZM1278 102 Q1053 -27 797 -27 Q541 -27 367 139 Q193 305 193 578 Q194 798 306 1000 Q418 1202 622 1330 Q826 1458 1067 1458 Q1384 1458 1554 1245 Q1591 1199 1562 1164 Q1549 1149 1524 1149 Q1499 1149 1483 1171 Q1350 1361 1057 1362 Q848 1362 672 1247 Q496 1132 400 954 Q304 776 303 582 Q303 344 444 207 Q585 70 820 70 Q1055 70 1231 186 L1362 645 L934 645 Q914 645 899 659 Q885 674 885 694 Q885 714 899 728 Q913 742 934 743 L1430 743 Q1455 742 1469 724 Q1483 706 1477 686 L1329 170 Q1317 125 1278 102 Z" /><glyph glyph-name="gdotaccent" unicode="&#x121;" d="M930 1262 Q914 1207 854 1206 Q823 1206 806 1226 Q789 1246 795 1274 L813 1341 Q829 1396 889 1397 Q920 1396 938 1376 Q956 1356 948 1329 L930 1262 ZM1235 1053 Q1258 1052 1270 1036 Q1282 1020 1276 995 L1047 129 Q992 -74 883 -182 Q733 -332 478 -332 Q223 -332 20 -164 Q-2 -146 -2 -122 Q-2 -98 11 -84 Q24 -70 46 -70 Q68 -70 86 -84 Q266 -238 479 -238 Q692 -238 809 -121 Q901 -29 952 154 L989 285 Q794 78 559 78 Q383 78 253 190 Q123 302 123 483 Q123 735 303 902 Q483 1069 715 1069 Q1001 1070 1122 791 L1180 1006 Q1192 1053 1235 1053 ZM578 172 Q774 172 926 316 Q1078 460 1077 639 Q1077 772 976 872 Q875 972 698 972 Q520 972 376 836 Q232 699 231 489 Q231 340 334 256 Q437 172 578 172 Z" /><glyph glyph-name="Gcommaaccent" unicode="&#x122;" d="M610 -301 Q561 -291 561 -250 Q561 -209 584 -176 Q607 -143 649 -143 Q715 -143 715 -209 Q715 -252 692 -305 Q625 -459 471 -459 Q446 -459 446 -437 Q446 -414 492 -404 Q587 -382 610 -301 ZM1278 102 Q1053 -27 797 -27 Q541 -27 367 139 Q193 305 193 578 Q194 798 306 1000 Q418 1202 622 1330 Q826 1458 1067 1458 Q1384 1458 1554 1245 Q1591 1199 1562 1164 Q1549 1149 1524 1149 Q1499 1149 1483 1171 Q1350 1361 1057 1362 Q848 1362 672 1247 Q496 1132 400 954 Q304 776 303 582 Q303 344 444 207 Q585 70 820 70 Q1055 70 1231 186 L1362 645 L934 645 Q914 645 899 659 Q885 674 885 694 Q885 714 899 728 Q913 742 934 743 L1430 743 Q1455 742 1469 724 Q1483 706 1477 686 L1329 170 Q1317 125 1278 102 Z" /><glyph glyph-name="gcommaaccent" unicode="&#x123;" d="M891 1364 Q940 1354 940 1313 Q940 1272 918 1239 Q896 1206 852 1206 Q786 1206 786 1272 Q786 1315 809 1368 Q876 1522 1030 1522 Q1055 1522 1055 1500 Q1055 1478 1009 1467 Q913 1444 891 1364 ZM1235 1053 Q1258 1052 1270 1036 Q1282 1020 1276 995 L1047 129 Q992 -74 883 -182 Q733 -332 478 -332 Q223 -332 20 -164 Q-2 -146 -2 -122 Q-2 -98 11 -84 Q24 -70 46 -70 Q68 -70 86 -84 Q266 -238 479 -238 Q692 -238 809 -121 Q901 -29 952 154 L989 285 Q794 78 559 78 Q383 78 253 190 Q123 302 123 483 Q123 735 303 902 Q483 1069 715 1069 Q1001 1070 1122 791 L1180 1006 Q1192 1053 1235 1053 ZM578 172 Q774 172 926 316 Q1078 460 1077 639 Q1077 772 976 872 Q875 972 698 972 Q520 972 376 836 Q232 699 231 489 Q231 340 334 256 Q437 172 578 172 Z" /><glyph glyph-name="Hbar" unicode="&#x126;" d="M387 770 L1294 770 L1368 1042 L459 1042 L387 770 ZM1597 1137 Q1618 1136 1632 1122 Q1665 1089 1632 1057 Q1618 1043 1597 1042 L1473 1042 L1204 39 Q1192 -8 1147 -8 Q1124 -8 1109 9 Q1094 26 1102 53 L1268 672 L360 672 L190 39 Q178 -8 133 -8 Q110 -8 95 9 Q80 26 88 53 L354 1042 L256 1042 Q236 1042 222 1056 Q208 1070 207 1090 Q207 1108 221 1122 Q235 1136 256 1137 L379 1137 L449 1395 Q461 1442 506 1442 Q529 1442 544 1424 Q559 1406 551 1380 L485 1137 L1393 1137 L1462 1395 Q1474 1442 1520 1442 Q1543 1442 1558 1424 Q1573 1406 1565 1380 L1499 1137 L1597 1137 Z" /><glyph glyph-name="hbar" unicode="&#x127;" d="M893 -8 Q870 -8 858 8 Q846 24 852 49 L997 598 Q1013 659 1014 727 Q1014 844 942 912 Q870 980 739 979 Q608 979 481 868 Q354 757 309 590 L162 39 Q150 -8 106 -8 Q84 -8 72 8 Q60 24 66 49 L391 1268 L295 1268 Q277 1268 263 1281 Q250 1294 250 1312 Q250 1330 263 1344 Q276 1358 295 1358 L416 1358 L442 1456 Q454 1503 498 1503 Q520 1503 532 1487 Q544 1471 539 1446 L514 1358 L844 1358 Q862 1358 876 1345 Q890 1332 889 1314 Q889 1296 876 1282 Q863 1268 844 1268 L489 1268 L379 850 Q561 1069 774 1069 Q930 1069 1023 978 Q1116 887 1116 737 Q1117 680 1094 590 L948 39 Q936 -8 893 -8 Z" /><glyph glyph-name="Imacron" unicode="&#x12a;" d="M860 1620 L319 1620 Q299 1620 285 1634 Q270 1648 270 1668 Q270 1688 284 1704 Q298 1718 319 1718 L860 1718 Q880 1718 894 1704 Q908 1690 909 1670 Q909 1650 895 1634 Q880 1620 860 1620 ZM147 -8 Q124 -8 110 9 Q96 26 102 53 L463 1395 Q475 1442 520 1442 Q543 1442 558 1424 Q573 1406 565 1380 L205 39 Q193 -8 147 -8 Z" /><glyph glyph-name="imacron" unicode="&#x12b;" d="M741 1272 L201 1272 Q181 1272 166 1286 Q152 1300 152 1320 Q152 1340 166 1356 Q180 1370 201 1370 L741 1370 Q762 1370 776 1356 Q790 1342 790 1322 Q790 1302 776 1286 Q761 1272 741 1272 ZM121 -8 Q98 -8 86 8 Q74 24 80 49 L336 1006 Q348 1053 391 1053 Q414 1052 426 1036 Q438 1020 432 995 L176 39 Q164 -8 121 -8 Z" /><glyph glyph-name="Ibreve" unicode="&#x12c;" d="M568 1563 Q471 1563 412 1610 Q352 1657 352 1741 Q352 1825 401 1825 Q436 1825 443 1776 Q450 1727 480 1697 Q510 1667 588 1667 Q715 1667 795 1788 Q820 1825 841 1825 Q862 1825 879 1809 Q896 1793 881 1761 Q836 1667 750 1615 Q664 1563 568 1563 ZM147 -8 Q124 -8 110 9 Q96 26 102 53 L463 1395 Q475 1442 520 1442 Q543 1442 558 1424 Q573 1406 565 1380 L205 39 Q193 -8 147 -8 Z" /><glyph glyph-name="ibreve" unicode="&#x12d;" d="M632 1266 Q546 1214 449 1214 Q352 1214 293 1262 Q234 1310 234 1393 Q234 1477 283 1477 Q318 1477 325 1428 Q332 1379 362 1349 Q392 1319 469 1319 Q596 1319 676 1440 Q701 1477 722 1477 Q744 1478 756 1466 Q768 1454 768 1440 Q768 1426 762 1413 Q718 1318 632 1266 ZM121 -8 Q98 -8 86 8 Q74 24 80 49 L336 1006 Q348 1053 391 1053 Q414 1052 426 1036 Q438 1020 432 995 L176 39 Q164 -8 121 -8 Z" /><glyph glyph-name="Iogonek" unicode="&#x12e;" d="M111 -334 Q15 -334 -38 -295 Q-90 -256 -90 -201 Q-90 -99 102 25 Q100 39 102 53 L463 1395 Q475 1442 520 1442 Q543 1442 558 1424 Q573 1406 565 1380 L205 39 Q197 12 170 -6 Q14 -115 14 -184 Q14 -213 38 -229 Q62 -245 121 -258 Q154 -264 154 -295 Q154 -334 111 -334 Z" /><glyph glyph-name="iogonek" unicode="&#x12f;" d="M473 1307 Q444 1307 429 1323 Q414 1339 420 1364 L434 1417 Q446 1464 504 1464 Q533 1464 548 1448 Q563 1432 557 1407 L543 1354 Q531 1307 473 1307 ZM127 -295 Q127 -334 84 -334 Q-12 -334 -65 -295 Q-117 -256 -117 -201 Q-117 -97 78 27 Q78 41 80 49 L336 1006 Q348 1053 391 1053 Q414 1052 426 1036 Q438 1020 432 995 L176 39 Q168 10 145 -4 Q-13 -110 -12 -184 Q-12 -213 12 -229 Q36 -245 94 -258 Q127 -264 127 -295 Z" /><glyph glyph-name="Idotaccent" unicode="&#x130;" d="M602 1745 Q633 1744 651 1724 Q669 1704 662 1677 L643 1610 Q627 1555 567 1554 Q536 1554 519 1574 Q502 1594 508 1622 L526 1690 Q542 1745 602 1745 ZM147 -8 Q124 -8 110 9 Q96 26 102 53 L463 1395 Q475 1442 520 1442 Q543 1442 558 1424 Q573 1406 565 1380 L205 39 Q193 -8 147 -8 Z" /><glyph glyph-name="dotlessi" unicode="&#x131;" d="M121 -8 Q98 -8 86 8 Q74 24 80 49 L336 1006 Q348 1053 391 1053 Q414 1052 426 1036 Q438 1020 432 995 L176 39 Q164 -8 121 -8 Z" /><glyph glyph-name="Kcommaaccent" unicode="&#x136;" d="M545 -291 Q496 -281 496 -240 Q496 -199 518 -166 Q541 -133 584 -133 Q650 -133 649 -199 Q648 -242 626 -295 Q604 -348 571 -381 Q503 -449 406 -449 Q381 -449 381 -427 Q381 -405 427 -394 Q523 -371 545 -291 ZM133 -8 Q110 -8 95 9 Q80 26 88 53 L449 1395 Q461 1442 506 1442 Q529 1442 544 1424 Q559 1406 551 1380 L315 502 L1450 1423 Q1470 1442 1492 1442 Q1514 1442 1528 1428 Q1542 1414 1542 1392 Q1542 1370 1518 1352 L823 793 L1212 82 Q1241 34 1210 6 Q1196 -8 1168 -8 Q1140 -8 1118 29 L735 731 L276 358 L190 39 Q178 -8 133 -8 Z" /><glyph glyph-name="kcommaaccent" unicode="&#x137;" d="M375 -301 Q326 -291 326 -250 Q326 -209 348 -176 Q371 -143 414 -143 Q480 -143 479 -209 Q478 -252 456 -305 Q434 -358 401 -391 Q333 -459 236 -459 Q211 -459 211 -437 Q211 -414 257 -404 Q352 -382 375 -301 ZM1143 1012 Q1143 987 1120 971 L631 578 L899 80 Q913 55 913 38 Q913 20 899 6 Q885 -8 857 -8 Q829 -8 811 27 L547 516 L219 254 L162 39 Q150 -8 106 -8 Q84 -8 72 8 Q60 24 66 49 L442 1456 Q454 1503 498 1503 Q521 1503 533 1487 Q545 1471 539 1446 L256 387 L1057 1036 Q1077 1052 1100 1053 Q1143 1053 1143 1012 Z" /><glyph glyph-name="Lacute" unicode="&#x139;" d="M725 1798 Q760 1833 786 1833 Q812 1833 844 1816 Q875 1799 875 1781 Q875 1763 852 1747 L641 1587 Q606 1560 570 1560 Q534 1560 535 1581 Q535 1593 545 1604 L725 1798 ZM993 0 L133 0 Q110 0 96 16 Q82 32 88 53 L449 1395 Q461 1442 506 1442 Q529 1442 544 1424 Q559 1406 551 1380 L207 98 L993 98 Q1014 98 1028 84 Q1042 70 1042 50 Q1042 30 1028 14 Q1013 0 993 0 Z" /><glyph glyph-name="lacute" unicode="&#x13a;" d="M516 1628 Q516 1640 526 1651 L707 1845 Q742 1880 768 1880 Q794 1880 826 1863 Q886 1830 834 1794 L623 1634 Q588 1608 552 1608 Q516 1608 516 1628 ZM121 -8 Q98 -8 86 8 Q74 24 80 49 L457 1456 Q469 1503 512 1503 Q535 1503 547 1487 Q559 1471 553 1446 L176 39 Q164 -8 121 -8 Z" /><glyph glyph-name="Lcommaaccent" unicode="&#x13b;" d="M436 -301 Q387 -291 387 -250 Q387 -209 410 -176 Q433 -143 475 -143 Q541 -143 541 -209 Q541 -252 518 -305 Q451 -459 297 -459 Q272 -459 272 -437 Q272 -414 318 -404 Q413 -382 436 -301 ZM993 0 L133 0 Q110 0 96 16 Q82 32 88 53 L449 1395 Q461 1442 506 1442 Q529 1442 544 1424 Q559 1406 551 1380 L207 98 L993 98 Q1014 98 1028 84 Q1042 70 1042 50 Q1042 30 1028 14 Q1013 0 993 0 Z" /><glyph glyph-name="lcommaaccent" unicode="&#x13c;" d="M47 -301 Q-2 -291 -2 -250 Q-2 -209 20 -176 Q43 -143 86 -143 Q152 -143 152 -209 Q152 -252 129 -305 Q62 -459 -92 -459 Q-117 -459 -117 -437 Q-117 -414 -71 -404 Q24 -382 47 -301 ZM121 -8 Q98 -8 86 8 Q74 24 80 49 L457 1456 Q469 1503 512 1503 Q535 1503 547 1487 Q559 1471 553 1446 L176 39 Q164 -8 121 -8 Z" /><glyph glyph-name="Lcaron" unicode="&#x13d;" d="M825 1440 L852 1440 Q881 1440 881 1417 Q881 1401 862 1372 L731 1155 Q711 1120 686 1120 Q661 1120 662 1139 Q662 1147 668 1161 L754 1389 Q774 1440 825 1440 ZM993 0 L133 0 Q110 0 96 16 Q82 32 88 53 L449 1395 Q461 1442 506 1442 Q529 1442 544 1424 Q559 1406 551 1380 L207 98 L993 98 Q1014 98 1028 84 Q1042 70 1042 50 Q1042 30 1028 14 Q1013 0 993 0 Z" /><glyph glyph-name="lcaron" unicode="&#x13e;" d="M766 1501 L793 1501 Q822 1501 821 1479 Q821 1463 803 1434 L672 1217 Q652 1182 627 1182 Q602 1182 602 1200 Q602 1209 608 1223 L694 1450 Q714 1501 766 1501 ZM121 -8 Q98 -8 86 8 Q74 24 80 49 L457 1456 Q469 1503 512 1503 Q535 1503 547 1487 Q559 1471 553 1446 L176 39 Q164 -8 121 -8 Z" /><glyph glyph-name="Ldot" unicode="&#x13f;" d="M993 0 L133 0 Q110 0 96 16 Q82 32 88 53 L449 1395 Q461 1442 506 1442 Q529 1442 544 1424 Q559 1406 551 1380 L207 98 L993 98 Q1014 98 1028 84 Q1042 70 1042 50 Q1042 30 1028 14 Q1013 0 993 0 ZM1063 711 Q1047 652 981 651 Q948 651 930 673 Q912 695 918 723 L932 774 Q948 833 1014 834 Q1047 834 1066 812 Q1085 790 1077 762 L1063 711 Z" /><glyph glyph-name="ldot" unicode="&#x140;" d="M121 -8 Q98 -8 86 8 Q74 24 80 49 L457 1456 Q469 1503 512 1503 Q535 1503 547 1487 Q559 1471 553 1446 L176 39 Q164 -8 121 -8 ZM698 717 Q682 658 618 657 Q585 657 567 679 Q549 701 555 729 L569 780 Q585 839 651 840 Q684 840 702 818 Q720 796 713 768 L698 717 Z" /><glyph glyph-name="Lslash" unicode="&#x141;" d="M608 1442 Q631 1442 646 1424 Q661 1406 653 1380 L492 776 L909 897 Q934 903 946 903 Q985 903 985 862 Q985 829 938 815 L465 680 L309 98 L1096 98 Q1116 98 1130 84 Q1144 70 1144 50 Q1144 30 1130 14 Q1116 0 1096 0 L236 0 Q213 0 199 16 Q185 32 190 53 L348 645 L266 623 Q241 617 229 616 Q190 616 190 657 Q191 691 238 705 L375 743 L551 1395 Q563 1442 608 1442 Z" /><glyph glyph-name="lslash" unicode="&#x142;" d="M573 1503 Q596 1503 608 1487 Q620 1471 614 1446 L446 817 L535 844 Q560 850 567 850 Q608 850 608 805 Q608 772 573 762 L420 717 L238 39 Q226 -8 182 -8 Q159 -8 147 8 Q135 24 141 49 L311 686 L229 664 Q204 658 197 657 Q156 657 156 702 Q155 735 190 745 L338 786 L518 1456 Q530 1503 573 1503 Z" /><glyph glyph-name="Nacute" unicode="&#x143;" d="M1241 1798 Q1276 1833 1302 1833 Q1328 1833 1360 1816 Q1391 1799 1391 1781 Q1391 1763 1368 1747 L1157 1587 Q1122 1560 1086 1560 Q1050 1560 1051 1581 Q1051 1593 1061 1604 L1241 1798 ZM1585 1442 Q1608 1442 1622 1426 Q1636 1410 1628 1380 L1268 39 Q1256 -6 1219 -6 L1217 -6 Q1184 -6 1161 37 L520 1282 L186 39 Q174 -8 131 -8 Q108 -8 94 8 Q80 24 88 53 L446 1386 Q460 1439 508 1440 L512 1440 Q553 1440 582 1386 L1202 178 L1530 1395 Q1542 1442 1585 1442 Z" /><glyph glyph-name="nacute" unicode="&#x144;" d="M881 1239 Q846 1212 810 1212 Q774 1212 774 1233 Q774 1245 784 1255 L965 1450 Q1000 1485 1026 1485 Q1052 1486 1084 1468 Q1143 1434 1092 1399 L881 1239 ZM375 1053 Q398 1052 410 1036 Q422 1020 416 995 L379 850 Q561 1069 774 1069 Q930 1069 1023 978 Q1116 887 1116 737 Q1116 680 1094 590 L948 39 Q936 -8 893 -8 Q870 -8 858 8 Q846 24 852 49 L997 598 Q1013 659 1014 727 Q1014 844 942 912 Q870 980 739 979 Q608 979 481 868 Q354 757 309 590 L162 39 Q150 -8 106 -8 Q84 -8 72 8 Q60 24 66 49 L319 1006 Q332 1053 375 1053 Z" /><glyph glyph-name="Ncommaaccent" unicode="&#x145;" d="M598 -291 Q549 -281 549 -240 Q549 -199 571 -166 Q594 -133 637 -133 Q703 -133 702 -199 Q702 -242 680 -295 Q615 -449 459 -449 Q434 -449 434 -427 Q434 -405 480 -394 Q576 -371 598 -291 ZM1585 1442 Q1608 1442 1622 1426 Q1636 1410 1628 1380 L1268 39 Q1256 -6 1219 -6 L1217 -6 Q1184 -6 1161 37 L520 1282 L186 39 Q174 -8 131 -8 Q108 -8 94 8 Q80 24 88 53 L446 1386 Q460 1439 508 1440 L512 1440 Q553 1440 582 1386 L1202 178 L1530 1395 Q1542 1442 1585 1442 Z" /><glyph glyph-name="ncommaaccent" unicode="&#x146;" d="M414 -301 Q365 -291 365 -250 Q365 -209 387 -176 Q410 -143 453 -143 Q519 -143 518 -209 Q518 -252 496 -305 Q431 -459 274 -459 Q249 -459 250 -438 Q250 -414 296 -404 Q391 -382 414 -301 ZM375 1053 Q398 1052 410 1036 Q422 1020 416 995 L379 850 Q561 1069 774 1069 Q930 1069 1023 978 Q1116 887 1116 737 Q1116 680 1094 590 L948 39 Q936 -8 893 -8 Q870 -8 858 8 Q846 24 852 49 L997 598 Q1013 659 1014 727 Q1014 844 942 912 Q870 980 739 979 Q608 979 481 868 Q354 757 309 590 L162 39 Q150 -8 106 -8 Q84 -8 72 8 Q60 24 66 49 L319 1006 Q332 1053 375 1053 Z" /><glyph glyph-name="Ncaron" unicode="&#x147;" d="M928 1802 Q928 1822 964 1822 Q1000 1822 1022 1794 L1112 1677 L1280 1796 Q1319 1823 1348 1823 Q1377 1823 1376 1802 Q1376 1790 1360 1774 L1167 1597 Q1130 1560 1100 1561 L1087 1561 Q1056 1560 1036 1597 L938 1776 Q928 1796 928 1802 ZM1585 1442 Q1608 1442 1622 1426 Q1636 1410 1628 1380 L1268 39 Q1256 -6 1219 -6 L1217 -6 Q1184 -6 1161 37 L520 1282 L186 39 Q174 -8 131 -8 Q108 -8 94 8 Q80 24 88 53 L446 1386 Q460 1439 508 1440 L512 1440 Q553 1440 582 1386 L1202 178 L1530 1395 Q1542 1442 1585 1442 Z" /><glyph glyph-name="ncaron" unicode="&#x148;" d="M1004 1448 Q1044 1475 1072 1475 Q1100 1475 1100 1454 Q1100 1442 1083 1425 L891 1249 Q854 1212 823 1212 L811 1212 Q783 1212 760 1249 L662 1427 Q652 1447 651 1454 Q651 1474 687 1474 Q723 1474 745 1446 L836 1329 L1004 1448 ZM375 1053 Q398 1052 410 1036 Q422 1020 416 995 L379 850 Q561 1069 774 1069 Q930 1069 1023 978 Q1116 887 1116 737 Q1116 680 1094 590 L948 39 Q936 -8 893 -8 Q870 -8 858 8 Q846 24 852 49 L997 598 Q1013 659 1014 727 Q1014 844 942 912 Q870 980 739 979 Q608 979 481 868 Q354 757 309 590 L162 39 Q150 -8 106 -8 Q84 -8 72 8 Q60 24 66 49 L319 1006 Q332 1053 375 1053 Z" /><glyph glyph-name="Omacron" unicode="&#x14c;" d="M1423 1640 L883 1640 Q862 1640 848 1654 Q834 1668 834 1690 Q834 1710 848 1724 Q862 1738 883 1739 L1423 1739 Q1444 1738 1458 1724 Q1472 1710 1472 1690 Q1472 1670 1458 1655 Q1443 1640 1423 1640 ZM307 577 Q306 366 448 218 Q590 70 801 70 Q1012 70 1178 180 Q1344 290 1437 468 Q1530 645 1530 855 Q1530 1065 1389 1213 Q1248 1362 1036 1362 Q824 1362 659 1251 Q493 1140 400 964 Q307 788 307 577 ZM815 -27 Q547 -28 372 150 Q197 328 197 590 Q197 811 306 1012 Q416 1214 607 1336 Q798 1458 1022 1458 Q1290 1458 1465 1281 Q1640 1104 1640 842 Q1640 621 1530 420 Q1420 219 1230 96 Q1038 -27 815 -27 Z" /><glyph glyph-name="omacron" unicode="&#x14d;" d="M1120 1272 L580 1272 Q560 1272 545 1286 Q530 1300 530 1320 Q530 1340 544 1356 Q558 1370 580 1370 L1120 1370 Q1140 1370 1154 1356 Q1168 1342 1169 1322 Q1169 1302 1155 1286 Q1140 1272 1120 1272 ZM213 442 Q214 268 314 169 Q414 70 594 70 Q774 70 928 230 Q1082 390 1081 602 Q1081 776 981 876 Q881 976 715 975 Q516 975 364 813 Q212 651 213 442 ZM569 -25 Q362 -25 233 105 Q104 235 104 438 Q104 688 290 878 Q476 1068 725 1069 Q932 1069 1061 939 Q1190 809 1190 606 Q1190 352 1002 164 Q814 -24 569 -25 Z" /><glyph glyph-name="Obreve" unicode="&#x14e;" d="M1314 1635 Q1228 1583 1131 1583 Q1034 1583 975 1630 Q916 1678 916 1762 Q916 1846 965 1845 Q1000 1845 1007 1796 Q1014 1747 1044 1717 Q1074 1687 1151 1688 Q1278 1688 1358 1808 Q1383 1845 1404 1845 Q1426 1845 1438 1834 Q1450 1822 1450 1808 Q1450 1794 1444 1782 Q1399 1688 1314 1635 ZM307 577 Q306 366 448 218 Q590 70 801 70 Q1012 70 1178 180 Q1344 290 1437 468 Q1530 645 1530 855 Q1530 1065 1389 1213 Q1248 1362 1036 1362 Q824 1362 659 1251 Q493 1140 400 964 Q307 788 307 577 ZM815 -27 Q547 -28 372 150 Q197 328 197 590 Q197 811 306 1012 Q416 1214 607 1336 Q798 1458 1022 1458 Q1290 1458 1465 1281 Q1640 1104 1640 842 Q1640 621 1530 420 Q1420 219 1230 96 Q1038 -27 815 -27 Z" /><glyph glyph-name="obreve" unicode="&#x14f;" d="M828 1214 Q731 1214 672 1262 Q612 1310 612 1393 Q612 1477 662 1477 Q698 1477 704 1428 Q710 1379 740 1349 Q770 1319 848 1319 Q975 1319 1055 1440 Q1080 1477 1101 1477 Q1122 1478 1134 1466 Q1146 1454 1147 1440 Q1147 1426 1141 1413 Q1096 1318 1010 1266 Q924 1214 828 1214 ZM213 442 Q214 268 314 169 Q414 70 594 70 Q774 70 928 230 Q1082 390 1081 602 Q1081 776 981 876 Q881 976 715 975 Q516 975 364 813 Q212 651 213 442 ZM569 -25 Q362 -25 233 105 Q104 235 104 438 Q104 688 290 878 Q476 1068 725 1069 Q932 1069 1061 939 Q1190 809 1190 606 Q1190 352 1002 164 Q814 -24 569 -25 Z" /><glyph glyph-name="Ohungarumlaut" unicode="&#x150;" d="M1358 1819 Q1392 1853 1417 1853 Q1442 1853 1457 1837 Q1495 1797 1448 1763 L1253 1608 Q1218 1581 1190 1581 Q1162 1581 1163 1599 Q1163 1611 1176 1624 L1358 1819 ZM1047 1819 Q1081 1853 1106 1853 Q1131 1853 1146 1837 Q1161 1821 1161 1801 Q1161 1781 1137 1763 L942 1608 Q907 1581 879 1581 Q851 1581 852 1599 Q852 1611 864 1624 L1047 1819 ZM307 577 Q306 366 448 218 Q590 70 801 70 Q1012 70 1178 180 Q1344 290 1437 468 Q1530 645 1530 855 Q1530 1065 1389 1213 Q1248 1362 1036 1362 Q824 1362 659 1251 Q493 1140 400 964 Q307 788 307 577 ZM815 -27 Q547 -28 372 150 Q197 328 197 590 Q197 811 306 1012 Q416 1214 607 1336 Q798 1458 1022 1458 Q1290 1458 1465 1281 Q1640 1104 1640 842 Q1640 621 1530 420 Q1420 219 1230 96 Q1038 -27 815 -27 Z" /><glyph glyph-name="ohungarumlaut" unicode="&#x151;" d="M1114 1485 Q1139 1484 1154 1468 Q1169 1452 1169 1432 Q1169 1412 1145 1395 L950 1239 Q916 1212 888 1212 Q860 1212 860 1231 Q860 1243 872 1255 L1055 1450 Q1089 1485 1114 1485 ZM803 1485 Q828 1484 843 1468 Q858 1452 858 1432 Q858 1412 834 1395 L639 1239 Q604 1212 576 1212 Q548 1212 549 1231 Q549 1243 561 1255 L743 1450 Q778 1485 803 1485 ZM213 442 Q214 268 314 169 Q414 70 594 70 Q774 70 928 230 Q1082 390 1081 602 Q1081 776 981 876 Q881 976 715 975 Q516 975 364 813 Q212 651 213 442 ZM569 -25 Q362 -25 233 105 Q104 235 104 438 Q104 688 290 878 Q476 1068 725 1069 Q932 1069 1061 939 Q1190 809 1190 606 Q1190 352 1002 164 Q814 -24 569 -25 Z" /><glyph glyph-name="OE" unicode="&#x152;" d="M2066 0 L903 0 Q538 0 346 193 Q188 351 188 602 Q188 934 412 1157 Q543 1288 732 1361 Q921 1434 1141 1434 L2415 1434 Q2435 1434 2449 1420 Q2464 1406 2464 1384 Q2464 1364 2450 1350 Q2436 1336 2415 1335 L1563 1335 L1411 772 L2144 772 Q2164 772 2178 758 Q2192 744 2193 724 Q2193 704 2179 688 Q2165 674 2144 674 L1384 674 L1231 98 L2066 98 Q2086 98 2100 84 Q2114 70 2116 50 Q2116 30 2101 14 Q2086 0 2066 0 ZM909 98 L1124 98 L1456 1335 L1126 1335 Q737 1335 492 1090 Q299 897 299 610 Q299 393 432 260 Q594 98 909 98 Z" /><glyph glyph-name="oe" unicode="&#x153;" d="M1163 418 Q1163 260 1259 165 Q1355 70 1523 70 Q1691 70 1839 188 Q1879 220 1909 190 Q1921 178 1921 156 Q1921 134 1901 119 Q1733 -24 1516 -25 Q1350 -25 1233 62 Q1116 149 1083 293 Q999 154 866 65 Q732 -24 548 -24 Q364 -24 234 106 Q104 237 104 438 Q104 688 290 878 Q476 1068 725 1069 Q897 1069 1010 975 Q1123 881 1155 735 Q1335 1069 1659 1069 Q1846 1069 1950 954 Q2054 839 2054 670 Q2054 598 2038 528 Q2030 487 1987 487 L1167 487 Q1163 442 1163 418 ZM213 442 Q214 268 314 169 Q414 70 594 70 Q774 70 928 228 Q1082 386 1082 578 Q1082 772 981 873 Q880 974 698 974 Q516 974 364 813 Q212 651 213 442 ZM1952 664 Q1952 799 1877 888 Q1802 977 1646 977 Q1490 976 1361 862 Q1233 748 1186 578 L1944 578 Q1952 615 1952 664 Z" /><glyph glyph-name="Racute" unicode="&#x154;" d="M901 1581 Q901 1593 911 1604 L1092 1798 Q1128 1833 1154 1833 Q1180 1833 1210 1816 Q1270 1783 1219 1747 L1008 1587 Q973 1560 937 1560 Q901 1560 901 1581 ZM795 690 Q1100 690 1245 836 Q1341 932 1341 1052 Q1341 1172 1278 1237 Q1180 1335 969 1335 L539 1335 L365 690 L795 690 ZM133 -8 Q110 -8 95 9 Q80 26 88 53 L444 1380 Q450 1403 468 1418 Q486 1433 506 1434 L973 1434 Q1231 1434 1358 1307 Q1448 1217 1448 1059 Q1448 901 1315 768 Q1182 635 899 604 L1169 86 Q1197 33 1168 6 Q1153 -8 1124 -8 Q1095 -8 1079 25 L784 594 L340 594 L190 39 Q178 -8 133 -8 Z" /><glyph glyph-name="racute" unicode="&#x155;" d="M657 1239 Q622 1212 586 1212 Q550 1212 551 1233 Q551 1245 561 1255 L741 1450 Q776 1485 803 1485 Q830 1486 860 1468 Q890 1450 891 1432 Q891 1414 868 1399 L657 1239 ZM829 1061 Q882 1061 883 1010 Q883 955 809 948 Q633 932 480 795 Q327 658 266 428 L162 39 Q150 -8 106 -8 Q84 -8 72 8 Q60 24 66 49 L319 1006 Q331 1053 375 1053 Q398 1052 410 1036 Q422 1020 416 995 L352 748 Q446 889 578 975 Q710 1061 829 1061 Z" /><glyph glyph-name="Rcommaaccent" unicode="&#x156;" d="M520 -291 Q471 -281 471 -240 Q471 -199 494 -166 Q517 -133 559 -133 Q625 -133 625 -199 Q625 -242 602 -295 Q535 -449 381 -449 Q356 -449 356 -427 Q356 -405 402 -394 Q498 -371 520 -291 ZM795 690 Q1100 690 1245 836 Q1341 932 1341 1052 Q1341 1172 1278 1237 Q1180 1335 969 1335 L539 1335 L365 690 L795 690 ZM133 -8 Q110 -8 95 9 Q80 26 88 53 L444 1380 Q450 1403 468 1418 Q486 1433 506 1434 L973 1434 Q1231 1434 1358 1307 Q1448 1217 1448 1059 Q1448 901 1315 768 Q1182 635 899 604 L1169 86 Q1197 33 1168 6 Q1153 -8 1124 -8 Q1095 -8 1079 25 L784 594 L340 594 L190 39 Q178 -8 133 -8 Z" /><glyph glyph-name="rcommaaccent" unicode="&#x157;" d="M45 -301 Q-4 -291 -4 -250 Q-4 -209 18 -176 Q41 -143 84 -143 Q150 -143 150 -209 Q150 -252 127 -305 Q60 -459 -94 -459 Q-119 -459 -119 -437 Q-119 -414 -73 -404 Q22 -382 45 -301 ZM829 1061 Q882 1061 883 1010 Q883 955 809 948 Q633 932 480 795 Q327 658 266 428 L162 39 Q150 -8 106 -8 Q84 -8 72 8 Q60 24 66 49 L319 1006 Q331 1053 375 1053 Q398 1052 410 1036 Q422 1020 416 995 L352 748 Q446 889 578 975 Q710 1061 829 1061 Z" /><glyph glyph-name="Rcaron" unicode="&#x158;" d="M778 1802 Q778 1822 814 1822 Q850 1822 872 1794 L963 1677 L1130 1796 Q1169 1823 1198 1823 Q1227 1823 1227 1802 Q1227 1790 1210 1774 L1018 1597 Q981 1560 950 1561 L938 1561 Q910 1560 887 1597 L788 1776 Q778 1796 778 1802 ZM795 690 Q1100 690 1245 836 Q1341 932 1341 1052 Q1341 1172 1278 1237 Q1180 1335 969 1335 L539 1335 L365 690 L795 690 ZM133 -8 Q110 -8 95 9 Q80 26 88 53 L444 1380 Q450 1403 468 1418 Q486 1433 506 1434 L973 1434 Q1231 1434 1358 1307 Q1448 1217 1448 1059 Q1448 901 1315 768 Q1182 635 899 604 L1169 86 Q1197 33 1168 6 Q1153 -8 1124 -8 Q1095 -8 1079 25 L784 594 L340 594 L190 39 Q178 -8 133 -8 Z" /><glyph glyph-name="rcaron" unicode="&#x159;" d="M426 1454 Q426 1474 462 1474 Q498 1474 520 1446 L610 1329 L778 1448 Q817 1475 846 1475 Q875 1475 874 1454 Q874 1442 858 1425 L666 1249 Q629 1212 598 1212 L586 1212 Q558 1212 535 1249 L436 1427 Q426 1447 426 1454 ZM829 1061 Q882 1061 883 1010 Q883 955 809 948 Q633 932 480 795 Q327 658 266 428 L162 39 Q150 -8 106 -8 Q84 -8 72 8 Q60 24 66 49 L319 1006 Q331 1053 375 1053 Q398 1052 410 1036 Q422 1020 416 995 L352 748 Q446 889 578 975 Q710 1061 829 1061 Z" /><glyph glyph-name="Sacute" unicode="&#x15a;" d="M987 1608 Q952 1581 916 1581 Q880 1581 881 1602 Q881 1614 891 1624 L1071 1819 Q1106 1854 1132 1854 Q1158 1854 1190 1836 Q1221 1819 1221 1801 Q1221 1783 1198 1767 L987 1608 ZM623 76 Q799 76 918 165 Q1037 254 1036 389 Q1036 483 967 547 Q896 610 696 688 Q496 766 404 848 Q313 930 313 1059 Q312 1226 456 1340 Q600 1454 827 1454 Q1097 1454 1286 1278 Q1309 1255 1309 1234 Q1310 1214 1294 1198 Q1278 1182 1255 1182 Q1232 1182 1212 1202 Q1056 1358 817 1358 Q639 1358 530 1272 Q422 1186 422 1078 Q422 970 500 908 Q578 846 774 771 Q970 696 1057 611 Q1145 526 1145 397 Q1145 221 993 100 Q841 -21 612 -20 Q274 -20 74 211 Q36 263 68 293 Q82 307 106 307 Q130 307 147 283 Q326 76 623 76 Z" /><glyph glyph-name="sacute" unicode="&#x15b;" d="M743 1239 Q708 1212 672 1212 Q636 1212 637 1233 Q637 1245 647 1255 L827 1450 Q862 1485 889 1485 Q916 1486 946 1468 Q976 1450 977 1432 Q977 1414 954 1399 L743 1239 ZM457 70 Q561 70 644 128 Q727 186 727 276 Q727 338 679 386 Q632 434 488 487 Q344 540 275 602 Q206 664 207 764 Q207 891 314 979 Q422 1067 594 1067 Q684 1067 780 1033 Q961 969 961 909 Q962 889 948 876 Q934 862 914 862 Q894 862 881 872 Q734 974 596 974 Q458 974 386 918 Q313 861 313 789 Q313 717 360 674 Q407 630 556 572 Q706 514 770 451 Q834 388 834 293 Q834 158 719 68 Q604 -22 444 -23 Q217 -23 37 125 Q12 144 12 168 Q12 192 26 206 Q40 220 58 221 Q77 221 104 201 Q262 70 457 70 Z" /><glyph glyph-name="Scedilla" unicode="&#x15e;" d="M623 76 Q799 76 918 165 Q1037 254 1036 389 Q1036 483 967 547 Q896 610 696 688 Q496 766 404 848 Q313 930 313 1059 Q312 1226 456 1340 Q600 1454 827 1454 Q1097 1454 1286 1278 Q1309 1255 1309 1234 Q1310 1214 1294 1198 Q1278 1182 1255 1182 Q1232 1182 1212 1202 Q1056 1358 817 1358 Q639 1358 530 1272 Q422 1186 422 1078 Q422 970 500 908 Q578 846 774 771 Q970 696 1057 611 Q1145 526 1145 397 Q1145 221 993 100 Q841 -21 612 -20 L590 -20 L401 -268 Q381 -293 358 -293 Q335 -293 319 -279 Q303 -265 303 -244 Q303 -223 324 -201 L500 -12 Q240 19 74 211 Q36 263 68 293 Q82 307 106 307 Q130 307 147 283 Q326 76 623 76 Z" /><glyph glyph-name="scedilla" unicode="&#x15f;" d="M457 70 Q561 70 644 128 Q727 186 727 276 Q727 338 679 386 Q632 434 488 487 Q344 540 275 602 Q206 664 207 764 Q207 891 314 979 Q422 1067 594 1067 Q684 1067 780 1033 Q961 969 961 909 Q962 889 948 876 Q934 862 914 862 Q894 862 881 872 Q734 974 596 974 Q458 974 386 918 Q313 861 313 789 Q313 717 360 674 Q407 630 556 572 Q706 514 770 451 Q834 388 834 293 Q834 158 719 68 Q604 -22 444 -23 L422 -23 L236 -268 Q216 -293 193 -293 Q170 -293 154 -279 Q116 -245 158 -201 L334 -12 Q174 13 37 125 Q12 144 12 168 Q12 192 26 206 Q40 220 58 221 Q77 221 104 201 Q262 70 457 70 Z" /><glyph glyph-name="Scaron" unicode="&#x160;" d="M756 1823 Q756 1843 792 1843 Q828 1843 850 1815 L940 1698 L1108 1817 Q1147 1844 1176 1844 Q1205 1844 1204 1823 Q1204 1811 1188 1794 L995 1618 Q958 1581 928 1581 L915 1581 Q887 1581 864 1618 L766 1796 Q756 1816 756 1823 ZM623 76 Q799 76 918 165 Q1037 254 1036 389 Q1036 483 967 547 Q896 610 696 688 Q496 766 404 848 Q313 930 313 1059 Q312 1226 456 1340 Q600 1454 827 1454 Q1097 1454 1286 1278 Q1309 1255 1309 1234 Q1310 1214 1294 1198 Q1278 1182 1255 1182 Q1232 1182 1212 1202 Q1056 1358 817 1358 Q639 1358 530 1272 Q422 1186 422 1078 Q422 970 500 908 Q578 846 774 771 Q970 696 1057 611 Q1145 526 1145 397 Q1145 221 993 100 Q841 -21 612 -20 Q274 -20 74 211 Q36 263 68 293 Q82 307 106 307 Q130 307 147 283 Q326 76 623 76 Z" /><glyph glyph-name="scaron" unicode="&#x161;" d="M512 1454 Q512 1474 548 1474 Q584 1474 606 1446 L696 1329 L864 1448 Q903 1475 932 1475 Q961 1475 961 1454 Q961 1442 944 1425 L752 1249 Q715 1212 684 1212 L672 1212 Q644 1212 621 1249 L522 1427 Q512 1447 512 1454 ZM457 70 Q561 70 644 128 Q727 186 727 276 Q727 338 679 386 Q632 434 488 487 Q344 540 275 602 Q206 664 207 764 Q207 891 314 979 Q422 1067 594 1067 Q684 1067 780 1033 Q961 969 961 909 Q962 889 948 876 Q934 862 914 862 Q894 862 881 872 Q734 974 596 974 Q458 974 386 918 Q313 861 313 789 Q313 717 360 674 Q407 630 556 572 Q706 514 770 451 Q834 388 834 293 Q834 158 719 68 Q604 -22 444 -23 Q217 -23 37 125 Q12 144 12 168 Q12 192 26 206 Q40 220 58 221 Q77 221 104 201 Q262 70 457 70 Z" /><glyph glyph-name="Tcommaaccent" unicode="&#x162;" d="M451 -143 Q517 -143 516 -209 Q516 -252 494 -305 Q429 -459 272 -459 Q247 -459 248 -438 Q248 -414 294 -404 Q389 -382 412 -301 Q362 -291 362 -250 Q362 -209 385 -176 Q408 -143 451 -143 ZM487 -8 Q464 -8 450 9 Q436 26 442 53 L786 1335 L342 1335 Q322 1336 308 1350 Q294 1364 293 1384 Q293 1404 307 1418 Q321 1432 342 1434 L1364 1434 Q1384 1434 1398 1420 Q1412 1406 1413 1384 Q1413 1364 1399 1350 Q1385 1336 1364 1335 L893 1335 L545 39 Q533 -8 487 -8 Z" /><glyph glyph-name="tcommaaccent" unicode="&#x163;" d="M258 -301 Q209 -291 209 -250 Q209 -209 231 -176 Q254 -143 297 -143 Q363 -143 362 -209 Q362 -252 340 -305 Q275 -459 119 -459 Q94 -459 94 -437 Q94 -414 140 -404 Q235 -382 258 -301 ZM592 49 Q592 -18 402 -18 Q310 -18 242 34 Q172 86 172 188 Q172 235 184 289 L362 952 L264 952 Q244 952 230 966 Q216 980 217 998 Q217 1016 231 1030 Q245 1044 264 1044 L387 1044 L467 1339 Q479 1386 522 1386 Q545 1386 557 1370 Q569 1354 563 1329 L487 1044 L795 1044 Q815 1044 828 1031 Q842 1018 842 998 Q842 978 828 966 Q814 953 795 952 L463 952 L285 287 Q275 242 274 199 Q274 74 444 74 Q487 74 522 84 Q590 103 592 49 Z" /><glyph glyph-name="Tcaron" unicode="&#x164;" d="M1096 1796 Q1136 1823 1164 1823 Q1192 1823 1192 1802 Q1192 1790 1176 1774 L983 1597 Q946 1560 915 1561 L903 1561 Q872 1560 852 1597 L754 1776 Q744 1796 743 1802 Q743 1822 779 1822 Q815 1822 838 1794 L928 1677 L1096 1796 ZM487 -8 Q464 -8 450 9 Q436 26 442 53 L786 1335 L342 1335 Q322 1336 308 1350 Q294 1364 293 1384 Q293 1404 307 1418 Q321 1432 342 1434 L1364 1434 Q1384 1434 1398 1420 Q1412 1406 1413 1384 Q1413 1364 1399 1350 Q1385 1336 1364 1335 L893 1335 L545 39 Q533 -8 487 -8 Z" /><glyph glyph-name="tcaron" unicode="&#x165;" d="M883 1513 L909 1513 Q938 1513 938 1491 Q938 1475 920 1446 L788 1229 Q768 1194 743 1194 Q718 1194 719 1212 Q719 1221 725 1235 L811 1462 Q831 1513 883 1513 ZM592 49 Q592 -18 402 -18 Q310 -18 242 34 Q172 86 172 188 Q172 235 184 289 L362 952 L264 952 Q244 952 230 966 Q216 980 217 998 Q217 1016 231 1030 Q245 1044 264 1044 L387 1044 L467 1339 Q479 1386 522 1386 Q545 1386 557 1370 Q569 1354 563 1329 L487 1044 L795 1044 Q815 1044 828 1031 Q842 1018 842 998 Q842 978 828 966 Q814 953 795 952 L463 952 L285 287 Q275 242 274 199 Q274 74 444 74 Q487 74 522 84 Q590 103 592 49 Z" /><glyph glyph-name="Umacron" unicode="&#x16a;" d="M1331 1620 L791 1620 Q771 1620 756 1634 Q742 1648 742 1668 Q742 1688 756 1704 Q770 1718 791 1718 L1331 1718 Q1352 1718 1366 1704 Q1380 1690 1380 1670 Q1380 1650 1366 1634 Q1351 1620 1331 1620 ZM197 428 Q197 539 225 649 L424 1395 Q436 1442 481 1442 Q504 1442 519 1424 Q534 1406 526 1380 L319 600 Q301 526 301 436 Q302 274 408 174 Q514 74 719 74 Q924 74 1064 214 Q1204 354 1272 602 L1485 1395 Q1497 1442 1542 1442 Q1565 1442 1580 1424 Q1595 1406 1587 1380 L1372 580 Q1300 314 1145 158 Q965 -22 714 -22 Q463 -22 330 102 Q197 227 197 428 Z" /><glyph glyph-name="umacron" unicode="&#x16b;" d="M1083 1272 L543 1272 Q523 1272 508 1286 Q494 1300 494 1320 Q494 1340 508 1356 Q522 1370 543 1370 L1083 1370 Q1104 1370 1118 1356 Q1132 1342 1132 1322 Q1132 1302 1118 1286 Q1103 1272 1083 1272 ZM872 -8 Q850 -8 838 8 Q826 24 831 49 L868 195 Q686 -24 473 -25 Q317 -26 224 66 Q131 158 131 307 Q131 364 154 455 L299 1006 Q311 1053 354 1053 Q377 1052 389 1036 Q401 1020 395 995 L250 446 Q234 385 233 317 Q233 200 305 132 Q377 64 508 66 Q639 66 766 176 Q893 286 938 455 L1085 1006 Q1097 1053 1141 1053 Q1164 1052 1176 1036 Q1188 1020 1182 995 L928 39 Q915 -8 872 -8 Z" /><glyph glyph-name="Ubreve" unicode="&#x16c;" d="M1224 1615 Q1138 1563 1041 1563 Q944 1563 885 1610 Q826 1657 826 1741 Q826 1825 874 1825 Q909 1825 916 1776 Q923 1727 953 1697 Q983 1667 1061 1667 Q1188 1667 1268 1788 Q1293 1825 1314 1825 Q1336 1825 1348 1814 Q1360 1802 1360 1788 Q1360 1774 1354 1761 Q1310 1667 1224 1615 ZM197 428 Q197 539 225 649 L424 1395 Q436 1442 481 1442 Q504 1442 519 1424 Q534 1406 526 1380 L319 600 Q301 526 301 436 Q302 274 408 174 Q514 74 719 74 Q924 74 1064 214 Q1204 354 1272 602 L1485 1395 Q1497 1442 1542 1442 Q1565 1442 1580 1424 Q1595 1406 1587 1380 L1372 580 Q1300 314 1145 158 Q965 -22 714 -22 Q463 -22 330 102 Q197 227 197 428 Z" /><glyph glyph-name="ubreve" unicode="&#x16d;" d="M794 1214 Q698 1214 638 1262 Q578 1310 578 1393 Q578 1477 627 1477 Q662 1477 669 1428 Q676 1379 706 1349 Q736 1319 813 1319 Q940 1319 1020 1440 Q1045 1477 1066 1477 Q1088 1478 1100 1466 Q1112 1454 1112 1440 Q1112 1426 1106 1413 Q1061 1318 976 1266 Q891 1214 794 1214 ZM872 -8 Q850 -8 838 8 Q826 24 831 49 L868 195 Q686 -24 473 -25 Q317 -26 224 66 Q131 158 131 307 Q131 364 154 455 L299 1006 Q311 1053 354 1053 Q377 1052 389 1036 Q401 1020 395 995 L250 446 Q234 385 233 317 Q233 200 305 132 Q377 64 508 66 Q639 66 766 176 Q893 286 938 455 L1085 1006 Q1097 1053 1141 1053 Q1164 1052 1176 1036 Q1188 1020 1182 995 L928 39 Q915 -8 872 -8 Z" /><glyph glyph-name="Uring" unicode="&#x16e;" d="M944 1722 Q944 1612 1065 1612 Q1124 1612 1167 1653 Q1210 1694 1210 1747 Q1210 1858 1090 1858 Q1032 1858 988 1817 Q944 1776 944 1722 ZM1284 1749 Q1284 1670 1216 1608 Q1148 1546 1062 1546 Q975 1546 923 1593 Q870 1640 870 1720 Q870 1800 938 1862 Q1006 1924 1093 1923 Q1180 1923 1232 1876 Q1284 1829 1284 1749 ZM197 428 Q197 539 225 649 L424 1395 Q436 1442 481 1442 Q504 1442 519 1424 Q534 1406 526 1380 L319 600 Q301 526 301 436 Q302 274 408 174 Q514 74 719 74 Q924 74 1064 214 Q1204 354 1272 602 L1485 1395 Q1497 1442 1542 1442 Q1565 1442 1580 1424 Q1595 1406 1587 1380 L1372 580 Q1300 314 1145 158 Q965 -22 714 -22 Q463 -22 330 102 Q197 227 197 428 Z" /><glyph glyph-name="uring" unicode="&#x16f;" d="M698 1384 Q698 1274 819 1274 Q878 1274 922 1315 Q965 1356 965 1409 Q965 1462 934 1491 Q903 1520 844 1520 Q786 1520 742 1479 Q698 1438 698 1384 ZM1038 1411 Q1038 1332 970 1270 Q902 1208 816 1208 Q729 1208 677 1255 Q625 1302 625 1382 Q625 1462 692 1524 Q760 1585 847 1585 Q934 1585 986 1538 Q1038 1491 1038 1411 ZM872 -8 Q850 -8 838 8 Q826 24 831 49 L868 195 Q686 -24 473 -25 Q317 -26 224 66 Q131 158 131 307 Q131 364 154 455 L299 1006 Q311 1053 354 1053 Q377 1052 389 1036 Q401 1020 395 995 L250 446 Q234 385 233 317 Q233 200 305 132 Q377 64 508 66 Q639 66 766 176 Q893 286 938 455 L1085 1006 Q1097 1053 1141 1053 Q1164 1052 1176 1036 Q1188 1020 1182 995 L928 39 Q915 -8 872 -8 Z" /><glyph glyph-name="Uhungarumlaut" unicode="&#x170;" d="M1266 1798 Q1300 1833 1325 1833 Q1350 1833 1365 1817 Q1380 1801 1380 1781 Q1380 1761 1356 1743 L1161 1587 Q1126 1560 1098 1560 Q1070 1560 1071 1579 Q1071 1591 1083 1604 L1266 1798 ZM954 1798 Q989 1833 1014 1833 Q1039 1833 1054 1817 Q1069 1801 1069 1781 Q1069 1761 1044 1743 L850 1587 Q815 1560 787 1560 Q759 1560 760 1579 Q760 1591 772 1604 L954 1798 ZM197 428 Q197 539 225 649 L424 1395 Q436 1442 481 1442 Q504 1442 519 1424 Q534 1406 526 1380 L319 600 Q301 526 301 436 Q302 274 408 174 Q514 74 719 74 Q924 74 1064 214 Q1204 354 1272 602 L1485 1395 Q1497 1442 1542 1442 Q1565 1442 1580 1424 Q1595 1406 1587 1380 L1372 580 Q1300 314 1145 158 Q965 -22 714 -22 Q463 -22 330 102 Q197 227 197 428 Z" /><glyph glyph-name="uhungarumlaut" unicode="&#x171;" d="M1077 1485 Q1102 1484 1117 1468 Q1154 1427 1108 1395 L913 1239 Q878 1212 850 1212 Q822 1212 823 1231 Q823 1243 836 1255 L1018 1450 Q1052 1485 1077 1485 ZM766 1485 Q791 1484 806 1468 Q821 1452 821 1432 Q821 1412 797 1395 L602 1239 Q568 1212 540 1212 Q512 1212 512 1231 Q512 1243 524 1255 L707 1450 Q741 1485 766 1485 ZM872 -8 Q850 -8 838 8 Q826 24 831 49 L868 195 Q686 -24 473 -25 Q317 -26 224 66 Q131 158 131 307 Q131 364 154 455 L299 1006 Q311 1053 354 1053 Q377 1052 389 1036 Q401 1020 395 995 L250 446 Q234 385 233 317 Q233 200 305 132 Q377 64 508 66 Q639 66 766 176 Q893 286 938 455 L1085 1006 Q1097 1053 1141 1053 Q1164 1052 1176 1036 Q1188 1020 1182 995 L928 39 Q915 -8 872 -8 Z" /><glyph glyph-name="Uogonek" unicode="&#x172;" d="M659 -334 Q563 -334 511 -295 Q459 -256 459 -201 Q459 -109 594 -12 Q399 18 298 136 Q197 254 197 428 Q197 539 225 649 L424 1395 Q436 1442 481 1442 Q504 1442 519 1424 Q534 1406 526 1380 L319 600 Q301 526 301 436 Q302 274 408 174 Q514 74 719 74 Q924 74 1064 214 Q1204 354 1272 602 L1485 1395 Q1497 1442 1542 1442 Q1565 1442 1580 1424 Q1595 1406 1587 1380 L1372 580 Q1300 314 1145 158 Q965 -22 713 -23 L694 -23 Q563 -115 563 -184 Q563 -213 587 -229 Q611 -245 670 -258 Q703 -264 702 -295 Q702 -334 659 -334 Z" /><glyph glyph-name="uogonek" unicode="&#x173;" d="M739 -184 Q739 -213 763 -229 Q787 -245 846 -258 Q879 -264 879 -295 Q879 -334 836 -334 Q740 -334 687 -295 Q635 -256 635 -201 Q635 -97 829 27 Q829 41 831 49 L868 195 Q686 -24 473 -25 Q317 -26 224 66 Q131 158 131 307 Q131 364 154 455 L299 1006 Q311 1053 354 1053 Q377 1052 389 1036 Q401 1020 395 995 L250 446 Q234 385 233 317 Q233 200 305 132 Q377 64 508 66 Q639 66 766 176 Q893 286 938 455 L1085 1006 Q1097 1053 1141 1053 Q1164 1052 1176 1036 Q1188 1020 1182 995 L928 39 Q920 10 897 -4 Q739 -110 739 -184 Z" /><glyph glyph-name="Wcircumflex" unicode="&#x174;" d="M1583 1581 Q1583 1561 1547 1561 Q1511 1561 1489 1589 L1399 1706 L1231 1587 Q1192 1560 1163 1560 Q1134 1560 1135 1581 Q1135 1593 1151 1610 L1343 1786 Q1380 1823 1411 1823 L1423 1823 Q1455 1823 1475 1786 L1573 1608 Q1583 1588 1583 1581 ZM1325 1442 L1327 1442 Q1368 1442 1372 1399 L1448 158 L2220 1401 Q2245 1442 2284 1442 Q2302 1442 2314 1430 Q2326 1418 2326 1399 Q2326 1380 2314 1362 L1481 37 Q1449 -16 1413 -16 L1409 -16 Q1366 -16 1362 37 L1280 1235 L555 37 Q524 -16 487 -16 L483 -16 Q440 -16 436 37 L313 1360 L311 1389 Q312 1412 328 1426 Q344 1440 367 1442 Q418 1442 422 1386 L526 158 L1270 1407 Q1290 1442 1325 1442 Z" /><glyph glyph-name="wcircumflex" unicode="&#x175;" d="M1253 1233 Q1254 1212 1218 1212 Q1182 1212 1159 1241 L1069 1358 L901 1239 Q862 1212 834 1212 Q806 1212 805 1233 Q805 1245 821 1262 L1014 1438 Q1051 1475 1081 1475 L1094 1475 Q1122 1475 1145 1438 L1243 1260 Q1253 1240 1253 1233 ZM977 1053 L979 1053 Q1020 1053 1024 1008 L1092 135 L1636 1014 Q1659 1053 1690 1053 Q1733 1053 1733 1012 Q1733 994 1720 973 L1122 27 Q1097 -14 1063 -14 L1061 -14 Q1014 -14 1008 43 L940 887 L410 29 Q385 -14 350 -14 L348 -14 Q303 -14 299 43 L209 969 L207 997 Q207 1052 260 1053 Q305 1053 309 997 L381 135 L920 1016 Q945 1053 977 1053 Z" /><glyph glyph-name="Ycircumflex" unicode="&#x176;" d="M1159 1581 Q1159 1561 1123 1561 Q1087 1561 1065 1589 L975 1706 L807 1587 Q768 1560 739 1560 Q710 1560 711 1581 Q711 1593 727 1610 L920 1786 Q957 1823 987 1823 L999 1823 Q1028 1823 1051 1786 L1149 1608 Q1159 1588 1159 1581 ZM539 -8 Q516 -8 501 9 Q486 26 494 53 L635 582 L295 1354 Q287 1372 287 1393 Q287 1414 301 1428 Q315 1442 344 1442 Q373 1442 393 1395 L707 664 L1432 1413 Q1461 1442 1484 1442 Q1508 1442 1522 1428 Q1536 1414 1536 1394 Q1536 1372 1511 1348 L733 555 L596 39 Q584 -8 539 -8 Z" /><glyph glyph-name="ycircumflex" unicode="&#x177;" d="M932 1233 Q932 1212 896 1212 Q860 1212 838 1241 L748 1358 L580 1239 Q541 1212 512 1212 Q483 1212 483 1233 Q483 1245 500 1262 L692 1438 Q729 1475 760 1475 L772 1475 Q803 1475 823 1438 L922 1260 Q932 1240 932 1233 ZM62 -240 Q214 -240 387 6 L190 965 Q186 985 186 1001 Q186 1052 232 1052 Q278 1052 289 999 L463 111 L1069 1012 Q1096 1053 1128 1053 Q1173 1053 1174 1010 Q1174 990 1161 971 L469 -37 Q358 -198 257 -266 Q156 -334 52 -334 Q-52 -334 -145 -285 Q-174 -272 -174 -246 Q-174 -194 -127 -193 Q-110 -193 -94 -201 Q-12 -240 62 -240 Z" /><glyph glyph-name="Ydieresis" unicode="&#x178;" d="M1139 1745 Q1170 1744 1188 1724 Q1206 1704 1198 1677 L1180 1610 Q1164 1555 1104 1554 Q1073 1554 1056 1574 Q1039 1594 1044 1622 L1063 1690 Q1079 1745 1139 1745 ZM805 1745 Q836 1744 854 1724 Q872 1704 864 1677 L846 1610 Q830 1555 770 1554 Q739 1554 722 1574 Q705 1594 711 1622 L729 1690 Q745 1745 805 1745 ZM539 -8 Q516 -8 501 9 Q486 26 494 53 L635 582 L295 1354 Q287 1372 287 1393 Q287 1414 301 1428 Q315 1442 344 1442 Q373 1442 393 1395 L707 664 L1432 1413 Q1461 1442 1484 1442 Q1508 1442 1522 1428 Q1536 1414 1536 1394 Q1536 1372 1511 1348 L733 555 L596 39 Q584 -8 539 -8 Z" /><glyph glyph-name="Zacute" unicode="&#x179;" d="M872 1581 Q872 1593 883 1604 L1063 1798 Q1098 1833 1124 1833 Q1150 1833 1182 1816 Q1213 1799 1213 1781 Q1213 1763 1190 1747 L979 1587 Q944 1560 908 1560 Q872 1560 872 1581 ZM410 1337 Q390 1336 376 1350 Q362 1364 360 1384 Q360 1404 374 1418 Q388 1432 410 1434 L1411 1434 Q1452 1434 1452 1399 L1452 1397 Q1452 1370 1423 1341 L154 96 L1065 96 Q1086 96 1100 83 Q1114 70 1114 50 Q1114 30 1100 14 Q1086 0 1065 0 L23 0 Q-18 0 -18 35 L-18 37 Q-19 63 10 92 L1280 1337 L410 1337 Z" /><glyph glyph-name="zacute" unicode="&#x17a;" d="M776 1239 Q741 1212 705 1212 Q669 1212 670 1233 Q670 1245 680 1255 L860 1450 Q895 1485 922 1485 Q950 1486 980 1468 Q1010 1450 1010 1432 Q1010 1414 987 1399 L776 1239 ZM301 1044 L1079 1044 Q1122 1044 1122 1008 L1122 1006 Q1122 986 1102 965 L154 90 L842 90 Q860 90 873 77 Q886 64 886 46 Q886 28 874 14 Q860 0 842 0 L29 0 Q-14 0 -14 37 L-14 39 Q-14 59 6 80 L954 954 L301 954 Q284 954 270 968 Q256 982 256 999 Q256 1017 269 1031 Q283 1044 301 1044 Z" /><glyph glyph-name="Zdotaccent" unicode="&#x17b;" d="M946 1745 Q977 1744 995 1724 Q1013 1704 1006 1677 L987 1610 Q971 1555 911 1554 Q880 1554 863 1574 Q846 1594 852 1622 L870 1690 Q886 1745 946 1745 ZM410 1337 Q390 1336 376 1350 Q362 1364 360 1384 Q360 1404 374 1418 Q388 1432 410 1434 L1411 1434 Q1452 1434 1452 1399 L1452 1397 Q1452 1370 1423 1341 L154 96 L1065 96 Q1086 96 1100 83 Q1114 70 1114 50 Q1114 30 1100 14 Q1086 0 1065 0 L23 0 Q-18 0 -18 35 L-18 37 Q-19 63 10 92 L1280 1337 L410 1337 Z" /><glyph glyph-name="zdotaccent" unicode="&#x17c;" d="M784 1262 Q768 1207 709 1206 Q678 1206 660 1226 Q642 1246 649 1274 L668 1341 Q684 1396 743 1397 Q774 1396 792 1376 Q810 1356 803 1329 L784 1262 ZM301 1044 L1079 1044 Q1122 1044 1122 1008 L1122 1006 Q1122 986 1102 965 L154 90 L842 90 Q860 90 873 77 Q886 64 886 46 Q886 28 874 14 Q860 0 842 0 L29 0 Q-14 0 -14 37 L-14 39 Q-14 59 6 80 L954 954 L301 954 Q284 954 270 968 Q256 982 256 999 Q256 1017 269 1031 Q283 1044 301 1044 Z" /><glyph glyph-name="Zcaron" unicode="&#x17d;" d="M750 1802 Q750 1822 786 1822 Q822 1822 844 1794 L934 1677 L1102 1796 Q1142 1823 1170 1823 Q1198 1823 1198 1802 Q1198 1790 1182 1774 L989 1597 Q952 1560 922 1561 L909 1561 Q881 1560 858 1597 L760 1776 Q750 1796 750 1802 ZM410 1337 Q390 1336 376 1350 Q362 1364 360 1384 Q360 1404 374 1418 Q388 1432 410 1434 L1411 1434 Q1452 1434 1452 1399 L1452 1397 Q1452 1370 1423 1341 L154 96 L1065 96 Q1086 96 1100 83 Q1114 70 1114 50 Q1114 30 1100 14 Q1086 0 1065 0 L23 0 Q-18 0 -18 35 L-18 37 Q-19 63 10 92 L1280 1337 L410 1337 Z" /><glyph glyph-name="zcaron" unicode="&#x17e;" d="M545 1454 Q544 1474 580 1474 Q616 1474 639 1446 L729 1329 L897 1448 Q936 1475 965 1475 Q994 1475 993 1454 Q993 1442 977 1425 L784 1249 Q747 1212 717 1212 L705 1212 Q673 1212 653 1249 L555 1427 Q545 1447 545 1454 ZM301 1044 L1079 1044 Q1122 1044 1122 1008 L1122 1006 Q1122 986 1102 965 L154 90 L842 90 Q860 90 873 77 Q886 64 886 46 Q886 28 874 14 Q860 0 842 0 L29 0 Q-14 0 -14 37 L-14 39 Q-14 59 6 80 L954 954 L301 954 Q284 954 270 968 Q256 982 256 999 Q256 1017 269 1031 Q283 1044 301 1044 Z" /><glyph glyph-name="florin" unicode="&#x192;" d="M1051 1454 Q1216 1454 1214 1393 Q1214 1374 1202 1360 Q1190 1346 1180 1346 Q1170 1346 1128 1355 Q1086 1364 1047 1364 Q883 1364 778 1128 L668 879 L948 879 Q966 878 980 864 Q994 850 995 832 Q995 814 981 800 Q967 787 948 786 L629 786 L399 264 Q330 108 252 44 Q174 -20 85 -20 Q-4 -20 -4 25 Q-4 70 70 70 Q144 70 199 119 Q254 168 307 289 L526 786 L358 786 Q340 786 326 800 Q312 814 312 832 Q312 850 326 864 Q340 878 358 879 L565 879 L686 1153 Q817 1454 1051 1454 Z" /><glyph glyph-name="Aringacute" unicode="&#x1fa;" d="M1196 1837 Q1161 1810 1125 1810 Q1089 1810 1090 1831 Q1090 1843 1100 1853 L1280 2048 Q1316 2083 1342 2083 Q1368 2084 1399 2066 Q1430 2048 1430 2030 Q1430 2012 1407 1997 L1196 1837 ZM962 1466 Q994 1438 1053 1438 Q1112 1438 1154 1480 Q1196 1522 1196 1574 Q1196 1626 1164 1655 Q1132 1684 1073 1684 Q1014 1684 972 1641 Q930 1599 930 1547 Q930 1494 962 1466 ZM410 498 L1165 498 L1012 1327 L410 498 ZM18 -8 Q-29 -8 -31 39 Q-31 57 -18 70 L950 1395 Q856 1440 856 1533 Q856 1626 921 1688 Q986 1750 1072 1749 Q1158 1749 1214 1702 Q1270 1655 1270 1581 Q1270 1507 1222 1450 Q1174 1393 1100 1376 L1354 74 Q1358 58 1358 40 Q1358 22 1344 8 Q1330 -8 1307 -8 Q1262 -8 1251 43 L1186 401 L340 401 L72 31 Q40 -8 18 -8 Z" /><glyph glyph-name="aringacute" unicode="&#x1fb;" d="M897 1700 Q862 1673 826 1673 Q790 1673 791 1694 Q791 1706 801 1716 L981 1911 Q1016 1946 1042 1946 Q1068 1946 1100 1928 Q1131 1910 1131 1894 Q1131 1876 1108 1860 L897 1700 ZM913 1419 Q913 1530 793 1530 Q734 1530 690 1489 Q646 1448 647 1395 Q647 1342 678 1313 Q709 1284 768 1284 Q827 1284 870 1325 Q913 1366 913 1419 ZM987 1421 Q988 1341 920 1280 Q852 1219 765 1219 Q678 1219 626 1266 Q574 1312 574 1392 Q574 1472 641 1534 Q709 1596 796 1595 Q883 1595 935 1548 Q987 1501 987 1421 ZM815 -8 Q792 -8 780 8 Q768 24 774 49 L809 180 Q637 -25 389 -25 Q248 -25 147 52 Q47 129 47 268 Q47 440 178 544 Q310 648 506 647 Q702 647 920 588 L928 616 Q942 669 942 721 Q942 840 861 903 Q780 966 636 966 Q492 966 362 924 Q346 920 336 920 Q295 920 295 965 Q295 1000 334 1012 Q481 1061 653 1061 Q825 1061 933 974 Q1041 887 1040 735 Q1040 676 1020 598 L870 39 Q858 -8 815 -8 ZM222 126 Q290 68 426 68 Q562 68 698 165 Q834 262 874 416 L899 508 Q702 557 525 557 Q348 557 251 480 Q154 403 154 294 Q154 185 222 126 Z" /><glyph glyph-name="AEacute" unicode="&#x1fc;" d="M1511 1581 Q1511 1593 1522 1604 L1702 1798 Q1738 1833 1764 1833 Q1790 1833 1821 1816 Q1852 1799 1852 1781 Q1852 1763 1829 1747 L1618 1587 Q1583 1560 1547 1560 Q1511 1560 1511 1581 ZM1223 1434 L2238 1434 Q2258 1434 2272 1420 Q2286 1406 2288 1384 Q2288 1364 2274 1350 Q2260 1336 2238 1335 L1384 1335 L1233 772 L1968 772 Q1988 772 2002 758 Q2016 744 2017 724 Q2017 704 2003 688 Q1989 674 1968 674 L1206 674 L1053 98 L1890 98 Q1910 98 1924 84 Q1938 70 1939 50 Q1939 30 1925 14 Q1911 0 1890 0 L979 0 Q956 0 942 16 Q928 32 934 53 L1028 401 L412 401 L92 33 Q57 -8 27 -8 Q-16 -8 -16 35 Q-16 58 2 78 L1141 1382 Q1188 1434 1223 1434 ZM496 498 L1053 498 L1278 1337 L1223 1337 L496 498 Z" /><glyph glyph-name="aeacute" unicode="&#x1fd;" d="M1196 1239 Q1161 1212 1125 1212 Q1089 1212 1090 1233 Q1090 1245 1100 1255 L1280 1450 Q1316 1485 1342 1485 Q1368 1486 1399 1468 Q1430 1450 1430 1432 Q1430 1414 1407 1399 L1196 1239 ZM1786 664 Q1786 799 1711 888 Q1636 977 1480 977 Q1324 976 1195 862 Q1067 748 1020 578 L1778 578 Q1786 615 1786 664 ZM1888 670 Q1888 602 1874 535 Q1864 488 1812 487 L1001 487 Q997 442 997 418 Q998 260 1094 165 Q1190 70 1358 70 Q1526 70 1673 188 Q1713 220 1743 190 Q1755 178 1755 156 Q1755 134 1735 119 Q1569 -24 1346 -25 Q1194 -25 1087 44 Q981 113 932 231 Q686 -25 410 -25 Q252 -25 150 55 Q48 135 48 291 Q48 447 182 547 Q317 647 521 647 Q725 647 920 588 L928 616 Q942 669 942 721 Q942 840 861 903 Q780 966 636 966 Q492 966 362 924 Q346 920 336 920 Q295 920 295 965 Q295 1000 334 1012 Q481 1061 640 1061 Q799 1061 902 995 Q1005 929 1032 813 Q1118 930 1238 1000 Q1358 1070 1493 1069 Q1680 1068 1784 954 Q1888 840 1888 670 ZM512 557 Q356 557 255 481 Q154 405 154 297 Q154 189 223 128 Q293 68 418 68 Q670 68 905 324 Q897 365 897 416 Q897 467 903 510 Q737 557 512 557 Z" /><glyph glyph-name="Oslashacute" unicode="&#x1fe;" d="M1196 1608 Q1161 1581 1125 1581 Q1089 1581 1090 1602 Q1090 1614 1100 1624 L1280 1819 Q1316 1854 1342 1854 Q1368 1854 1399 1836 Q1430 1819 1430 1801 Q1430 1783 1407 1767 L1196 1608 ZM31 20 Q31 45 53 63 L287 258 Q197 410 197 610 Q197 810 306 1012 Q416 1214 607 1336 Q798 1458 1022 1458 Q1309 1458 1487 1260 L1681 1423 Q1714 1452 1741 1452 Q1782 1452 1782 1415 Q1782 1388 1759 1370 L1542 1188 Q1640 1030 1640 826 Q1640 622 1530 420 Q1420 219 1230 96 Q1039 -27 815 -27 Q520 -27 340 184 L131 10 Q98 -19 70 -18 Q31 -18 31 20 ZM815 70 Q1012 70 1178 180 Q1344 290 1437 468 Q1530 646 1530 822 Q1530 998 1460 1120 L418 250 Q559 70 815 70 ZM307 615 Q307 443 369 326 L1409 1194 Q1264 1362 1022 1362 Q825 1362 659 1251 Q493 1140 400 964 Q307 788 307 615 Z" /><glyph glyph-name="oslashacute" unicode="&#x1ff;" d="M907 1239 Q872 1212 836 1212 Q800 1212 801 1233 Q801 1245 811 1255 L991 1450 Q1026 1485 1053 1485 Q1080 1486 1110 1468 Q1140 1450 1141 1432 Q1141 1414 1118 1399 L907 1239 ZM33 -18 Q-6 -18 -6 18 Q-6 43 16 61 L170 186 Q104 295 104 438 Q104 688 290 878 Q476 1068 725 1069 Q940 1069 1071 928 L1219 1047 Q1246 1067 1266 1067 Q1305 1067 1305 1030 Q1305 1005 1282 987 L1124 858 Q1190 749 1190 606 Q1190 352 1002 164 Q814 -24 569 -25 Q356 -24 223 119 L80 2 Q53 -18 33 -18 ZM213 442 Q213 338 252 254 L995 864 Q896 975 706 975 Q516 975 364 813 Q212 651 213 442 ZM299 180 Q398 70 586 70 Q774 70 928 230 Q1082 390 1081 602 Q1081 706 1042 791 L299 180 Z" /><glyph glyph-name="Scommaaccent" unicode="&#x218;" d="M420 -301 Q371 -291 371 -250 Q371 -209 393 -176 Q416 -143 459 -143 Q525 -143 524 -209 Q524 -252 502 -305 Q480 -358 446 -391 Q378 -459 281 -459 Q256 -459 256 -437 Q256 -414 302 -404 Q397 -382 420 -301 ZM623 76 Q799 76 918 165 Q1037 254 1036 389 Q1036 483 967 547 Q896 610 696 688 Q496 766 404 848 Q313 930 313 1059 Q312 1226 456 1340 Q600 1454 827 1454 Q1097 1454 1286 1278 Q1309 1255 1309 1234 Q1310 1214 1294 1198 Q1278 1182 1255 1182 Q1232 1182 1212 1202 Q1056 1358 817 1358 Q639 1358 530 1272 Q422 1186 422 1078 Q422 970 500 908 Q578 846 774 771 Q970 696 1057 611 Q1145 526 1145 397 Q1145 221 993 100 Q841 -21 612 -20 Q274 -20 74 211 Q36 263 68 293 Q82 307 106 307 Q130 307 147 283 Q326 76 623 76 Z" /><glyph glyph-name="scommaaccent" unicode="&#x219;" d="M274 -301 Q225 -291 225 -250 Q225 -209 248 -176 Q271 -143 313 -143 Q379 -143 379 -209 Q379 -252 356 -305 Q289 -459 135 -459 Q110 -459 111 -438 Q110 -414 156 -404 Q251 -382 274 -301 ZM457 70 Q561 70 644 128 Q727 186 727 276 Q727 338 679 386 Q632 434 488 487 Q344 540 275 602 Q206 664 207 764 Q207 891 314 979 Q422 1067 594 1067 Q684 1067 780 1033 Q961 969 961 909 Q962 889 948 876 Q934 862 914 862 Q894 862 881 872 Q734 974 596 974 Q458 974 386 918 Q313 861 313 789 Q313 717 360 674 Q407 630 556 572 Q706 514 770 451 Q834 388 834 293 Q834 158 719 68 Q604 -22 444 -23 Q217 -23 37 125 Q12 144 12 168 Q12 192 26 206 Q40 220 58 221 Q77 221 104 201 Q262 70 457 70 Z" /><glyph glyph-name="schwa" unicode="&#x259;" d="M887 880 Q791 975 622 975 Q453 975 307 856 Q290 842 270 842 Q250 842 238 854 Q226 866 226 888 Q226 910 246 926 Q416 1069 627 1069 Q838 1069 965 946 Q1092 823 1092 631 Q1092 379 914 177 Q736 -25 487 -25 Q299 -25 196 90 Q93 205 92 375 Q92 443 106 510 Q116 557 168 557 L979 557 Q983 602 983 627 Q983 785 887 880 ZM195 381 Q196 246 270 157 Q344 68 500 68 Q656 68 786 182 Q914 296 961 467 L203 467 Q195 430 195 381 Z" /><glyph glyph-name="circumflex" unicode="&#x2c6;" d="M934 1233 Q934 1212 898 1212 Q862 1212 840 1241 L750 1358 L582 1239 Q543 1212 514 1212 Q485 1212 485 1233 Q485 1245 502 1262 L694 1438 Q731 1475 762 1475 L774 1475 Q802 1475 825 1438 L924 1260 Q934 1240 934 1233 Z" /><glyph glyph-name="caron" unicode="&#x2c7;" d="M885 1448 Q924 1475 952 1475 Q980 1475 981 1454 Q981 1442 965 1425 L772 1249 Q735 1212 705 1212 L692 1212 Q664 1212 641 1249 L543 1427 Q533 1447 532 1454 Q532 1474 568 1474 Q604 1474 627 1446 L717 1329 L885 1448 Z" /><glyph glyph-name="breve" unicode="&#x2d8;" d="M880 1266 Q794 1214 697 1214 Q600 1214 541 1262 Q482 1310 482 1393 Q482 1477 530 1477 Q565 1477 572 1428 Q579 1379 609 1349 Q639 1319 717 1319 Q844 1319 924 1440 Q949 1477 970 1477 Q992 1478 1004 1466 Q1016 1454 1016 1440 Q1016 1426 1010 1413 Q966 1318 880 1266 Z" /><glyph glyph-name="dotaccent" unicode="&#x2d9;" d="M778 1262 Q762 1207 702 1206 Q671 1206 654 1226 Q637 1246 643 1274 L662 1341 Q678 1396 737 1397 Q768 1396 786 1376 Q804 1356 797 1329 L778 1262 Z" /><glyph glyph-name="ring" unicode="&#x2da;" d="M643 1313 Q674 1284 733 1284 Q792 1284 836 1325 Q879 1366 879 1419 Q879 1472 848 1501 Q817 1530 758 1530 Q700 1530 656 1489 Q612 1448 612 1395 Q612 1342 643 1313 ZM900 1548 Q952 1501 952 1421 Q952 1341 884 1280 Q816 1219 730 1219 Q643 1219 591 1266 Q539 1312 539 1392 Q539 1472 606 1534 Q674 1595 761 1595 Q848 1595 900 1548 Z" /><glyph glyph-name="ogonek" unicode="&#x2db;" d="M410 -334 Q314 -334 261 -295 Q209 -256 209 -198 Q209 -140 263 -84 Q317 -28 420 37 L481 2 Q313 -109 313 -184 Q313 -213 337 -229 Q361 -245 420 -258 Q453 -264 453 -295 Q453 -334 410 -334 Z" /><glyph glyph-name="tilde" unicode="&#x2dc;" d="M451 1208 Q408 1208 408 1245 Q408 1266 436 1314 Q512 1442 612 1442 Q653 1442 681 1426 Q709 1410 761 1359 Q813 1309 854 1309 Q895 1309 954 1407 Q972 1438 995 1438 Q1038 1438 1038 1401 Q1038 1380 1010 1332 Q934 1204 834 1204 Q793 1204 765 1220 Q737 1236 685 1287 Q633 1337 592 1337 Q551 1337 492 1239 Q474 1208 451 1208 Z" /><glyph glyph-name="hungarumlaut" unicode="&#x2dd;" d="M981 1485 Q1006 1484 1021 1468 Q1036 1452 1036 1432 Q1036 1412 1012 1395 L817 1239 Q782 1212 754 1212 Q726 1212 727 1231 Q727 1243 739 1255 L922 1450 Q956 1485 981 1485 ZM670 1485 Q695 1484 710 1468 Q725 1452 725 1432 Q725 1412 700 1395 L506 1239 Q471 1212 443 1212 Q415 1212 416 1231 Q416 1243 428 1255 L610 1450 Q645 1485 670 1485 Z" /><glyph glyph-name="commaaccent" unicode="&#x326;" d="M285 -301 Q236 -291 236 -250 Q236 -209 258 -176 Q281 -143 324 -143 Q390 -143 389 -209 Q388 -252 366 -305 Q301 -459 145 -459 Q120 -459 121 -438 Q121 -414 167 -404 Q262 -382 285 -301 Z" /><glyph glyph-name="Wgrave" unicode="&#x1e80;" d="M1161 1749 Q1147 1766 1147 1782 Q1147 1798 1172 1814 Q1198 1829 1234 1829 Q1270 1829 1284 1792 L1358 1604 Q1364 1586 1364 1579 Q1364 1560 1334 1560 Q1304 1560 1286 1585 L1161 1749 ZM1325 1442 L1327 1442 Q1368 1442 1372 1399 L1448 158 L2220 1401 Q2245 1442 2284 1442 Q2302 1442 2314 1430 Q2326 1418 2326 1399 Q2326 1380 2314 1362 L1481 37 Q1449 -16 1413 -16 L1409 -16 Q1366 -16 1362 37 L1280 1235 L555 37 Q524 -16 487 -16 L483 -16 Q440 -16 436 37 L313 1360 L311 1389 Q312 1412 328 1426 Q344 1440 367 1442 Q418 1442 422 1386 L526 158 L1270 1407 Q1290 1442 1325 1442 Z" /><glyph glyph-name="wgrave" unicode="&#x1e81;" d="M831 1401 Q817 1418 817 1434 Q817 1450 843 1465 Q868 1480 904 1480 Q940 1480 954 1444 L1028 1255 Q1034 1237 1034 1231 Q1034 1212 1004 1212 Q974 1212 956 1237 L831 1401 ZM977 1053 L979 1053 Q1020 1053 1024 1008 L1092 135 L1636 1014 Q1659 1053 1690 1053 Q1733 1053 1733 1012 Q1733 994 1720 973 L1122 27 Q1097 -14 1063 -14 L1061 -14 Q1014 -14 1008 43 L940 887 L410 29 Q385 -14 350 -14 L348 -14 Q303 -14 299 43 L209 969 L207 997 Q207 1052 260 1053 Q305 1053 309 997 L381 135 L920 1016 Q945 1053 977 1053 Z" /><glyph glyph-name="Wacute" unicode="&#x1e82;" d="M1323 1581 Q1323 1593 1333 1604 L1513 1798 Q1548 1833 1575 1833 Q1602 1833 1632 1816 Q1662 1799 1663 1781 Q1663 1763 1640 1747 L1430 1587 Q1395 1560 1359 1560 Q1323 1560 1323 1581 ZM1325 1442 L1327 1442 Q1368 1442 1372 1399 L1448 158 L2220 1401 Q2245 1442 2284 1442 Q2302 1442 2314 1430 Q2326 1418 2326 1399 Q2326 1380 2314 1362 L1481 37 Q1449 -16 1413 -16 L1409 -16 Q1366 -16 1362 37 L1280 1235 L555 37 Q524 -16 487 -16 L483 -16 Q440 -16 436 37 L313 1360 L311 1389 Q312 1412 328 1426 Q344 1440 367 1442 Q418 1442 422 1386 L526 158 L1270 1407 Q1290 1442 1325 1442 Z" /><glyph glyph-name="wacute" unicode="&#x1e83;" d="M1100 1239 Q1065 1212 1029 1212 Q993 1212 993 1233 Q993 1245 1004 1255 L1184 1450 Q1220 1485 1246 1485 Q1272 1486 1303 1468 Q1334 1450 1334 1432 Q1334 1414 1311 1399 L1100 1239 ZM977 1053 L979 1053 Q1020 1053 1024 1008 L1092 135 L1636 1014 Q1659 1053 1690 1053 Q1733 1053 1733 1012 Q1733 994 1720 973 L1122 27 Q1097 -14 1063 -14 L1061 -14 Q1014 -14 1008 43 L940 887 L410 29 Q385 -14 350 -14 L348 -14 Q303 -14 299 43 L209 969 L207 997 Q207 1052 260 1053 Q305 1053 309 997 L381 135 L920 1016 Q945 1053 977 1053 Z" /><glyph glyph-name="Wdieresis" unicode="&#x1e84;" d="M1563 1745 Q1594 1744 1612 1724 Q1630 1704 1622 1677 L1604 1610 Q1588 1555 1528 1554 Q1497 1554 1480 1574 Q1463 1594 1468 1622 L1487 1690 Q1503 1745 1563 1745 ZM1229 1745 Q1260 1744 1278 1724 Q1296 1704 1288 1677 L1270 1610 Q1254 1555 1194 1554 Q1163 1554 1146 1574 Q1129 1594 1135 1622 L1153 1690 Q1169 1745 1229 1745 ZM1325 1442 L1327 1442 Q1368 1442 1372 1399 L1448 158 L2220 1401 Q2245 1442 2284 1442 Q2302 1442 2314 1430 Q2326 1418 2326 1399 Q2326 1380 2314 1362 L1481 37 Q1449 -16 1413 -16 L1409 -16 Q1366 -16 1362 37 L1280 1235 L555 37 Q524 -16 487 -16 L483 -16 Q440 -16 436 37 L313 1360 L311 1389 Q312 1412 328 1426 Q344 1440 367 1442 Q418 1442 422 1386 L526 158 L1270 1407 Q1290 1442 1325 1442 Z" /><glyph glyph-name="wdieresis" unicode="&#x1e85;" d="M1274 1262 Q1258 1207 1198 1206 Q1167 1206 1150 1226 Q1133 1246 1139 1274 L1157 1341 Q1173 1396 1233 1397 Q1264 1396 1282 1376 Q1300 1356 1292 1329 L1274 1262 ZM940 1262 Q924 1207 864 1206 Q833 1206 816 1226 Q799 1246 805 1274 L823 1341 Q839 1396 899 1397 Q930 1396 948 1376 Q966 1356 958 1329 L940 1262 ZM977 1053 L979 1053 Q1020 1053 1024 1008 L1092 135 L1636 1014 Q1659 1053 1690 1053 Q1733 1053 1733 1012 Q1733 994 1720 973 L1122 27 Q1097 -14 1063 -14 L1061 -14 Q1014 -14 1008 43 L940 887 L410 29 Q385 -14 350 -14 L348 -14 Q303 -14 299 43 L209 969 L207 997 Q207 1052 260 1053 Q305 1053 309 997 L381 135 L920 1016 Q945 1053 977 1053 Z" /><glyph glyph-name="Ygrave" unicode="&#x1ef2;" d="M737 1749 Q723 1766 723 1782 Q723 1798 749 1814 Q774 1830 810 1829 Q846 1829 860 1792 L934 1604 Q940 1586 940 1579 Q940 1560 910 1560 Q880 1560 862 1585 L737 1749 ZM539 -8 Q516 -8 501 9 Q486 26 494 53 L635 582 L295 1354 Q287 1372 287 1393 Q287 1414 301 1428 Q315 1442 344 1442 Q373 1442 393 1395 L707 664 L1432 1413 Q1461 1442 1484 1442 Q1508 1442 1522 1428 Q1536 1414 1536 1394 Q1536 1372 1511 1348 L733 555 L596 39 Q584 -8 539 -8 Z" /><glyph glyph-name="ygrave" unicode="&#x1ef3;" d="M512 1401 Q498 1418 498 1434 Q498 1450 523 1465 Q549 1480 585 1480 Q621 1480 635 1444 L709 1255 Q715 1237 715 1231 Q715 1212 685 1212 Q655 1212 637 1237 L512 1401 ZM62 -240 Q214 -240 387 6 L190 965 Q186 985 186 1001 Q186 1052 232 1052 Q278 1052 289 999 L463 111 L1069 1012 Q1096 1053 1128 1053 Q1173 1053 1174 1010 Q1174 990 1161 971 L469 -37 Q358 -198 257 -266 Q156 -334 52 -334 Q-52 -334 -145 -285 Q-174 -272 -174 -246 Q-174 -194 -127 -193 Q-110 -193 -94 -201 Q-12 -240 62 -240 Z" /><glyph glyph-name="enspace" unicode="&#x2002;" d="" /><glyph glyph-name="emspace" unicode="&#x2003;" d="" /><glyph glyph-name="threeperemspace" unicode="&#x2004;" d="" /><glyph glyph-name="fourperemspace" unicode="&#x2005;" d="" /><glyph glyph-name="thinspace" unicode="&#x2009;" d="" /><glyph glyph-name="hairspace" unicode="&#x200a;" d="" /><glyph glyph-name="endash" unicode="&#x2013;" d="M211 555 Q188 555 173 570 Q158 585 158 608 Q158 631 173 646 Q188 661 211 662 L915 662 Q938 662 953 646 Q968 630 968 608 Q968 585 954 570 Q938 555 915 555 L211 555 Z" /><glyph glyph-name="emdash" unicode="&#x2014;" d="M211 555 Q188 555 173 570 Q158 585 158 608 Q158 631 173 646 Q188 661 211 662 L1673 662 Q1696 662 1711 646 Q1726 630 1726 608 Q1726 585 1711 570 Q1696 555 1673 555 L211 555 Z" /><glyph glyph-name="quoteleft" unicode="&#x2018;" d="M573 1386 Q508 1356 474 1320 Q440 1284 428 1225 Q448 1222 460 1206 Q472 1190 467 1163 L449 1096 Q433 1043 375 1042 Q346 1042 328 1062 Q310 1082 317 1110 L342 1202 Q371 1306 421 1358 Q471 1410 555 1436 Q570 1442 582 1435 Q594 1428 594 1411 Q594 1394 573 1386 Z" /><glyph glyph-name="quoteright" unicode="&#x2019;" d="M465 1442 Q494 1442 512 1422 Q530 1402 522 1374 L498 1282 Q469 1178 419 1128 Q369 1078 285 1049 Q269 1043 257 1050 Q246 1058 246 1074 Q246 1090 266 1098 Q332 1128 366 1164 Q400 1200 412 1260 Q392 1262 379 1278 Q367 1294 373 1321 L391 1389 Q407 1442 465 1442 Z" /><glyph glyph-name="quotesinglbase" unicode="&#x201a;" d="M137 182 Q166 182 184 162 Q202 142 195 115 L170 23 Q141 -80 90 -132 Q39 -184 -43 -211 Q-59 -217 -71 -210 Q-82 -202 -82 -186 Q-82 -170 -61 -162 Q4 -133 38 -96 Q72 -59 84 0 Q64 2 51 18 Q39 34 45 61 L63 129 Q79 182 137 182 Z" /><glyph glyph-name="quotedblleft" unicode="&#x201c;" d="M373 1042 Q344 1042 326 1062 Q308 1082 315 1110 L340 1202 Q369 1306 419 1358 Q469 1410 553 1436 Q568 1442 580 1435 Q592 1428 592 1412 Q592 1396 571 1386 Q506 1356 472 1320 Q438 1284 426 1225 Q446 1222 458 1206 Q470 1190 465 1163 L446 1096 Q430 1042 373 1042 ZM741 1042 Q712 1042 694 1062 Q676 1082 684 1110 L709 1202 Q738 1306 788 1358 Q838 1410 922 1436 Q938 1442 949 1435 Q960 1428 960 1412 Q960 1396 940 1386 Q874 1356 840 1320 Q806 1284 795 1225 Q815 1222 827 1206 Q839 1190 834 1163 L815 1096 Q798 1042 741 1042 Z" /><glyph glyph-name="quotedblright" unicode="&#x201d;" d="M831 1442 Q860 1442 878 1422 Q896 1402 889 1374 L864 1282 Q835 1178 784 1128 Q733 1078 651 1049 Q635 1043 624 1050 Q613 1058 613 1074 Q613 1090 633 1098 Q698 1128 732 1164 Q766 1200 778 1260 Q758 1262 745 1278 Q733 1294 739 1321 L758 1389 Q774 1442 831 1442 ZM463 1442 Q492 1442 510 1422 Q528 1402 520 1374 L496 1282 Q467 1178 416 1128 Q365 1078 283 1049 Q267 1043 255 1050 Q244 1058 244 1074 Q244 1090 264 1098 Q330 1128 364 1164 Q398 1200 410 1260 Q390 1262 377 1278 Q365 1294 371 1321 L389 1389 Q405 1442 463 1442 Z" /><glyph glyph-name="quotedblbase" unicode="&#x201e;" d="M506 182 Q535 182 553 162 Q571 142 563 115 L539 23 Q510 -80 459 -132 Q408 -184 326 -211 Q310 -217 298 -210 Q287 -202 287 -186 Q287 -170 307 -162 Q373 -133 407 -96 Q441 -59 453 0 Q433 2 420 18 Q408 34 414 61 L432 129 Q448 182 506 182 ZM137 182 Q166 182 184 162 Q202 142 195 115 L170 23 Q141 -80 90 -132 Q39 -184 -43 -211 Q-59 -217 -71 -210 Q-82 -202 -82 -186 Q-82 -170 -61 -162 Q4 -133 38 -96 Q72 -59 84 0 Q64 2 51 18 Q39 34 45 61 L63 129 Q79 182 137 182 Z" /><glyph glyph-name="dagger" unicode="&#x2020;" d="M377 479 Q356 478 346 494 Q336 510 340 532 L494 1073 L287 1061 Q269 1059 254 1072 Q240 1086 240 1104 Q240 1122 254 1136 Q268 1150 287 1149 L510 1137 L567 1393 Q577 1442 621 1442 Q646 1442 658 1424 Q670 1406 662 1382 L584 1137 L791 1149 Q809 1151 823 1137 Q838 1122 838 1104 Q838 1086 824 1072 Q810 1058 791 1061 L563 1073 L426 522 Q416 479 377 479 Z" /><glyph glyph-name="daggerdbl" unicode="&#x2021;" d="M649 330 Q649 312 635 298 Q621 284 602 285 L379 297 L322 41 Q312 -8 268 -8 Q243 -8 231 10 Q219 28 227 51 L305 297 L98 285 Q80 283 66 297 Q52 312 52 330 Q52 348 66 361 Q80 374 98 373 L324 360 L410 717 L514 1073 L307 1061 Q289 1059 274 1072 Q260 1086 260 1104 Q260 1122 274 1136 Q288 1150 307 1149 L530 1137 L588 1393 Q598 1442 641 1442 Q666 1442 678 1424 Q690 1406 682 1382 L604 1137 L811 1149 Q830 1151 844 1137 Q858 1122 858 1104 Q858 1086 844 1072 Q830 1058 811 1061 L584 1073 L500 717 L393 360 L602 373 Q620 376 634 362 Q648 348 649 330 Z" /><glyph glyph-name="bullet" unicode="&#x2022;" d="M681 547 Q594 455 488 455 Q382 455 321 515 Q260 575 260 689 Q260 803 347 895 Q434 987 540 987 Q646 987 708 927 Q768 867 768 753 Q768 639 681 547 Z" /><glyph glyph-name="ellipsis" unicode="&#x2026;" d="M1026 -8 Q997 -8 980 9 Q963 26 969 53 L989 129 Q1005 182 1063 182 Q1092 182 1109 164 Q1126 146 1120 119 L1100 41 Q1088 -8 1026 -8 ZM563 -8 Q534 -8 517 9 Q500 26 506 53 L526 129 Q542 182 600 182 Q629 182 646 164 Q663 146 657 119 L637 41 Q625 -8 563 -8 ZM100 -8 Q71 -8 54 9 Q37 26 43 53 L63 129 Q79 182 137 182 Q166 182 183 164 Q200 146 195 119 L174 41 Q162 -8 100 -8 Z" /><glyph glyph-name="perthousand" unicode="&#x2030;" d="M228 -8 Q186 -8 184 33 Q184 53 207 76 L1507 1411 Q1540 1444 1560 1444 Q1602 1444 1604 1403 Q1604 1383 1581 1360 L281 25 Q248 -8 228 -8 ZM2277 408 Q2276 640 2076 639 Q1974 639 1890 529 Q1806 419 1806 305 Q1806 74 2008 74 Q2110 74 2194 184 Q2278 294 2277 408 ZM1987 -14 Q1864 -14 1785 71 Q1706 156 1706 279 Q1706 455 1821 591 Q1936 727 2097 727 Q2220 727 2299 642 Q2378 557 2378 434 Q2378 258 2264 122 Q2150 -14 1987 -14 ZM1495 408 Q1494 640 1294 639 Q1192 639 1108 529 Q1024 419 1024 305 Q1024 74 1224 74 Q1326 74 1411 184 Q1495 294 1495 408 ZM291 1028 Q292 797 492 797 Q594 796 678 906 Q762 1016 762 1130 Q762 1362 561 1362 Q458 1362 374 1252 Q290 1142 291 1028 ZM1204 -14 Q1081 -14 1002 71 Q923 156 924 279 Q924 455 1038 591 Q1153 727 1315 727 Q1438 727 1517 642 Q1596 557 1595 434 Q1594 258 1480 122 Q1366 -14 1204 -14 ZM471 709 Q348 709 269 794 Q190 879 190 1001 Q190 1178 305 1314 Q420 1450 582 1450 Q706 1450 784 1365 Q862 1280 862 1157 Q862 981 748 845 Q634 709 471 709 Z" /><glyph glyph-name="guilsinglleft" unicode="&#x2039;" d="M600 909 Q600 889 582 870 L219 508 L373 168 Q381 150 381 132 Q381 114 368 102 Q355 88 329 88 Q303 88 287 123 L106 485 Q88 522 111 545 L502 922 Q535 955 557 954 Q600 954 600 909 Z" /><glyph glyph-name="guilsinglright" unicode="&#x203a;" d="M78 88 Q35 88 35 133 Q35 153 53 172 L416 535 L262 874 Q254 892 254 910 Q254 928 267 940 Q280 954 306 954 Q332 954 348 920 L528 557 Q538 536 538 524 Q538 512 524 498 L133 121 Q100 88 78 88 Z" /><glyph glyph-name="fraction" unicode="&#x2044;" d="M-84 -209 Q-127 -209 -127 -170 Q-127 -147 -109 -125 L1235 1524 Q1264 1561 1292 1561 Q1335 1561 1335 1522 Q1335 1500 1317 1477 L-27 -172 Q-56 -209 -84 -209 Z" /><glyph glyph-name="Euro" unicode="&#x20ac;" d="M1018 950 Q1038 950 1052 936 Q1066 922 1067 902 Q1067 882 1053 866 Q1039 852 1018 852 L420 852 Q381 725 375 600 L926 600 Q946 600 960 586 Q974 572 975 552 Q975 532 961 516 Q947 502 926 502 L375 502 Q385 307 487 189 Q589 71 764 72 Q979 72 1155 250 Q1176 270 1196 270 Q1216 270 1230 258 Q1244 246 1243 225 Q1243 204 1219 180 Q1120 80 1014 28 Q908 -24 762 -25 Q551 -24 413 118 Q275 260 264 502 L131 502 Q111 502 96 516 Q82 530 82 550 Q82 570 96 586 Q110 600 131 600 L266 600 Q272 733 309 852 L223 852 Q203 852 188 866 Q174 880 174 900 Q174 920 188 936 Q202 950 223 950 L344 950 Q434 1178 611 1318 Q788 1458 1010 1458 Q1313 1458 1440 1180 Q1450 1156 1450 1136 Q1450 1116 1436 1103 Q1422 1090 1395 1090 Q1368 1090 1354 1122 Q1245 1362 991 1362 Q823 1362 681 1249 Q539 1136 457 950 L1018 950 Z" /><glyph glyph-name="published" unicode="&#x2117;" d="M748 705 L934 705 Q1032 705 1090 746 Q1147 788 1147 864 L1147 868 Q1147 1024 940 1024 L748 1024 L748 705 ZM657 395 L657 1063 Q656 1080 670 1094 Q684 1108 702 1108 L946 1108 Q1081 1108 1160 1047 Q1239 986 1239 872 L1239 868 Q1239 748 1151 684 Q1063 620 932 621 L748 621 L748 395 Q748 377 734 364 Q720 350 702 350 Q684 350 670 364 Q656 378 657 395 ZM899 33 Q1188 34 1384 234 Q1580 434 1581 719 Q1581 1004 1386 1202 Q1190 1400 902 1401 Q614 1401 418 1200 Q222 998 221 714 Q222 430 416 232 Q610 34 899 33 ZM899 -25 Q590 -26 375 192 Q160 410 160 715 Q160 1020 377 1239 Q594 1458 903 1458 Q1212 1458 1427 1241 Q1642 1024 1642 719 Q1642 414 1425 194 Q1208 -26 899 -25 Z" /><glyph glyph-name="servicemark" unicode="&#x2120;" d="M735 1335 Q735 1302 702 1300 Q684 1300 668 1317 Q600 1380 520 1380 Q440 1380 397 1346 Q354 1312 354 1272 Q354 1231 386 1206 Q418 1180 499 1150 Q580 1120 620 1081 Q660 1042 659 985 Q658 903 590 848 Q522 793 420 793 Q270 793 174 899 Q164 912 164 926 Q164 940 174 949 Q185 958 199 958 Q213 958 225 946 Q307 856 426 856 Q496 856 541 890 Q586 924 586 968 Q586 1012 558 1038 Q530 1064 446 1097 Q362 1130 322 1166 Q281 1202 281 1271 Q281 1340 347 1392 Q414 1444 528 1444 Q642 1444 723 1362 Q735 1350 735 1335 ZM1548 1434 L1550 1434 Q1593 1434 1581 1384 L1421 825 Q1410 794 1388 794 Q1341 795 1354 840 L1485 1292 L1188 971 Q1170 948 1147 948 Q1124 948 1114 973 L987 1292 L852 825 Q842 794 820 794 Q772 795 784 840 L944 1397 Q954 1434 983 1434 L985 1434 Q1012 1434 1024 1401 L1165 1044 L1499 1409 Q1523 1434 1548 1434 Z" /><glyph glyph-name="trademark" unicode="&#x2122;" d="M1511 1434 L1513 1434 Q1556 1434 1544 1384 L1384 825 Q1374 794 1352 794 Q1304 795 1317 840 L1448 1292 L1151 971 Q1133 948 1110 948 Q1087 948 1077 973 L950 1292 L815 825 Q804 794 782 794 Q735 795 748 840 L907 1397 Q917 1434 946 1434 L948 1434 Q975 1434 987 1401 L1128 1044 L1462 1409 Q1486 1434 1511 1434 ZM305 1364 Q291 1364 281 1374 Q270 1384 270 1398 Q270 1412 280 1423 Q290 1433 305 1434 L737 1434 Q752 1434 762 1424 Q772 1414 772 1401 Q772 1388 762 1376 Q752 1364 737 1364 L547 1364 L393 825 Q382 794 360 794 Q313 795 326 840 L475 1364 L305 1364 Z" /><glyph glyph-name="minus" unicode="&#x2212;" d="M1143 670 L238 670 Q218 670 202 685 Q186 700 186 720 Q186 740 202 756 Q218 772 238 772 L1143 772 Q1162 772 1178 757 Q1194 742 1194 722 Q1194 702 1179 685 Q1163 670 1143 670 Z" /><glyph glyph-name="f_f" unicode="&#xfb00;" d="M909 -8 Q886 -8 874 8 Q862 24 868 49 L1110 952 L1012 952 Q992 952 978 966 Q964 980 965 998 Q965 1016 979 1030 Q993 1044 1012 1044 L1135 1044 L1176 1196 Q1256 1495 1509 1495 Q1599 1495 1677 1464 Q1718 1448 1718 1419 Q1718 1390 1699 1376 Q1680 1362 1653 1374 Q1577 1405 1505 1405 Q1329 1405 1270 1174 L1235 1044 L1559 1044 Q1579 1044 1592 1031 Q1606 1018 1606 998 Q1606 978 1592 966 Q1578 953 1559 952 L1210 952 L965 39 Q953 -8 909 -8 ZM168 -8 Q145 -8 133 8 Q121 24 127 49 L369 952 L270 952 Q250 952 237 966 Q224 980 224 998 Q224 1016 238 1030 Q252 1044 270 1044 L393 1044 L434 1196 Q514 1495 768 1495 Q858 1495 936 1464 Q977 1448 977 1419 Q978 1390 958 1376 Q938 1362 911 1374 Q835 1405 764 1405 Q588 1405 528 1174 L494 1044 L817 1044 Q836 1044 850 1031 Q864 1018 864 998 Q864 978 850 966 Q836 953 817 952 L469 952 L223 39 Q211 -8 168 -8 Z" /><glyph glyph-name="fi" unicode="&#xfb01;" d="M862 -8 Q839 -8 827 8 Q815 24 821 49 L1077 1006 Q1089 1053 1133 1053 Q1156 1052 1168 1036 Q1180 1020 1174 995 L918 39 Q906 -8 862 -8 ZM1214 1307 Q1185 1307 1170 1323 Q1155 1339 1161 1364 L1176 1417 Q1188 1464 1245 1464 Q1274 1464 1289 1448 Q1304 1432 1298 1407 L1284 1354 Q1272 1307 1214 1307 ZM168 -8 Q145 -8 133 8 Q121 24 127 49 L369 952 L270 952 Q250 952 237 966 Q224 980 224 998 Q224 1016 238 1030 Q252 1044 270 1044 L393 1044 L434 1196 Q514 1495 768 1495 Q858 1495 936 1464 Q977 1448 977 1419 Q978 1390 958 1376 Q938 1362 911 1374 Q835 1405 764 1405 Q588 1405 528 1174 L494 1044 L817 1044 Q836 1044 850 1031 Q864 1018 864 998 Q864 978 850 966 Q836 953 817 952 L469 952 L223 39 Q211 -8 168 -8 Z" /><glyph glyph-name="fl" unicode="&#xfb02;" d="M862 -8 Q839 -8 827 8 Q815 24 821 49 L1198 1456 Q1210 1503 1253 1503 Q1276 1503 1288 1487 Q1300 1471 1294 1446 L918 39 Q906 -8 862 -8 ZM168 -8 Q145 -8 133 8 Q121 24 127 49 L369 952 L270 952 Q250 952 237 966 Q224 980 224 998 Q224 1016 238 1030 Q252 1044 270 1044 L393 1044 L434 1196 Q514 1495 768 1495 Q858 1495 936 1464 Q977 1448 977 1419 Q978 1390 958 1376 Q938 1362 911 1374 Q835 1405 764 1405 Q588 1405 528 1174 L494 1044 L817 1044 Q836 1044 850 1031 Q864 1018 864 998 Q864 978 850 966 Q836 953 817 952 L469 952 L223 39 Q211 -8 168 -8 Z" /><glyph glyph-name="f_f_i" unicode="&#xfb03;" d="M1604 -8 Q1581 -8 1569 8 Q1557 24 1563 49 L1819 1006 Q1831 1053 1874 1053 Q1897 1052 1909 1036 Q1921 1020 1915 995 L1659 39 Q1647 -8 1604 -8 ZM1956 1307 Q1927 1307 1912 1323 Q1897 1339 1903 1364 L1917 1417 Q1929 1464 1987 1464 Q2016 1464 2031 1448 Q2046 1432 2040 1407 L2025 1354 Q2013 1307 1956 1307 ZM909 -8 Q886 -8 874 8 Q862 24 868 49 L1110 952 L1012 952 Q992 952 978 966 Q964 980 965 998 Q965 1016 979 1030 Q993 1044 1012 1044 L1135 1044 L1176 1196 Q1256 1495 1509 1495 Q1599 1495 1677 1464 Q1718 1448 1718 1419 Q1718 1390 1699 1376 Q1680 1362 1653 1374 Q1577 1405 1505 1405 Q1329 1405 1270 1174 L1235 1044 L1559 1044 Q1579 1044 1592 1031 Q1606 1018 1606 998 Q1606 978 1592 966 Q1578 953 1559 952 L1210 952 L965 39 Q953 -8 909 -8 ZM168 -8 Q145 -8 133 8 Q121 24 127 49 L369 952 L270 952 Q250 952 237 966 Q224 980 224 998 Q224 1016 238 1030 Q252 1044 270 1044 L393 1044 L434 1196 Q514 1495 768 1495 Q858 1495 936 1464 Q977 1448 977 1419 Q978 1390 958 1376 Q938 1362 911 1374 Q835 1405 764 1405 Q588 1405 528 1174 L494 1044 L817 1044 Q836 1044 850 1031 Q864 1018 864 998 Q864 978 850 966 Q836 953 817 952 L469 952 L223 39 Q211 -8 168 -8 Z" /><glyph glyph-name="f_f_l" unicode="&#xfb04;" d="M1604 -8 Q1581 -8 1569 8 Q1557 24 1563 49 L1939 1456 Q1951 1503 1995 1503 Q2018 1503 2030 1487 Q2042 1471 2036 1446 L1659 39 Q1647 -8 1604 -8 ZM909 -8 Q886 -8 874 8 Q862 24 868 49 L1110 952 L1012 952 Q992 952 978 966 Q964 980 965 998 Q965 1016 979 1030 Q993 1044 1012 1044 L1135 1044 L1176 1196 Q1256 1495 1509 1495 Q1599 1495 1677 1464 Q1718 1448 1718 1419 Q1718 1390 1699 1376 Q1680 1362 1653 1374 Q1577 1405 1505 1405 Q1329 1405 1270 1174 L1235 1044 L1559 1044 Q1579 1044 1592 1031 Q1606 1018 1606 998 Q1606 978 1592 966 Q1578 953 1559 952 L1210 952 L965 39 Q953 -8 909 -8 ZM168 -8 Q145 -8 133 8 Q121 24 127 49 L369 952 L270 952 Q250 952 237 966 Q224 980 224 998 Q224 1016 238 1030 Q252 1044 270 1044 L393 1044 L434 1196 Q514 1495 768 1495 Q858 1495 936 1464 Q977 1448 977 1419 Q978 1390 958 1376 Q938 1362 911 1374 Q835 1405 764 1405 Q588 1405 528 1174 L494 1044 L817 1044 Q836 1044 850 1031 Q864 1018 864 998 Q864 978 850 966 Q836 953 817 952 L469 952 L223 39 Q211 -8 168 -8 Z" /></font>
</defs>
</svg>
