<?xml version="1.0" standalone="no"?><!DOCTYPE svg PUBLIC "-//W3C//DTD SVG 1.1//EN" "http://www.w3.org/Graphics/SVG/1.1/DTD/svg11.dtd" ><svg xmlns="http://www.w3.org/2000/svg"><metadata></metadata><defs><font id="H&FJ: Gotham Rounded Bold Italic: 1.200" horiz-adv-x="2637"><font-face font-family="GothamRounded-BoldItalic" font-weight="400" font-stretch="normal" units-per-em="2048" panose-1="0 0 0 0 0 0 0 0 0 0" ascent="1638" descent="-410" x-height="0" bbox="-322 -608 2554 2226" underline-thickness="102" underline-position="-153" unicode-range="U+0020-fb04" /><missing-glyph horiz-adv-x="1024" d="M512 492 L145 -307 L879 -307 L512 492 ZM922 1384 L569 614 L922 -156 L922 1384 ZM102 -156 L455 614 L102 1384 L102 -156 ZM145 1536 L512 737 L879 1536 L145 1536 ZM0 -410 L0 1638 L1024 1638 L1024 -410 L0 -410 Z" /><glyph glyph-name="space" unicode=" " d="" /><glyph glyph-name="exclam" unicode="!" d="M336 36 Q281 -12 202 -12 Q123 -12 80 36 Q37 84 51 165 Q66 246 120 293 Q174 340 253 340 Q332 340 378 289 Q424 238 403 158 Q391 84 336 36 ZM324 475 Q281 475 258 502 Q235 529 244 575 L367 1335 Q375 1380 403 1410 Q432 1440 473 1440 L659 1440 Q700 1440 718 1409 Q736 1378 719 1335 L426 553 Q395 475 324 475 Z" /><glyph glyph-name="quotedbl" unicode="&quot;" d="M784 768 Q745 768 728 795 Q711 822 721 862 L836 1300 Q852 1362 893 1402 Q934 1442 993 1442 L1085 1442 Q1151 1442 1163 1392 Q1175 1342 1143 1292 L895 846 Q852 768 784 768 ZM289 768 Q250 768 232 795 Q215 822 225 862 L340 1300 Q356 1362 397 1402 Q438 1442 498 1442 L590 1442 Q656 1442 668 1392 Q680 1342 647 1292 L399 846 Q356 768 289 768 Z" /><glyph glyph-name="numbersign" unicode="#" d="M1165 1415 Q1208 1446 1262 1446 Q1316 1446 1350 1403 Q1384 1360 1364 1305 L1305 1135 L1329 1135 Q1382 1135 1421 1096 Q1460 1057 1460 1004 Q1460 952 1421 912 Q1382 872 1329 872 L1212 872 L1108 569 L1155 569 Q1208 569 1247 530 Q1286 491 1286 438 Q1286 385 1247 346 Q1208 307 1155 307 L1016 307 L942 96 Q926 49 885 18 Q844 -12 789 -12 Q734 -12 698 31 Q663 74 684 129 L745 307 L469 307 L395 96 Q381 53 340 20 Q299 -12 243 -12 Q187 -12 152 29 Q117 70 137 129 L199 307 L176 307 Q123 307 84 346 Q45 385 45 438 Q45 491 84 530 Q123 569 176 569 L291 569 L395 872 L348 872 Q295 872 256 911 Q217 950 217 1004 Q217 1058 256 1096 Q295 1135 348 1135 L487 1135 L559 1337 Q575 1384 616 1415 Q656 1446 712 1446 Q768 1446 802 1403 Q836 1360 817 1305 L758 1135 L1034 1135 L1106 1337 Q1122 1384 1165 1415 ZM561 569 L838 569 L942 872 L666 872 L561 569 Z" /><glyph glyph-name="dollar" unicode="$" d="M858 418 Q858 490 758 537 L676 270 Q858 286 858 418 ZM565 1027 Q565 978 589 952 Q613 926 674 899 L754 1163 Q660 1157 612 1116 Q564 1075 565 1027 ZM71 391 Q115 434 173 434 Q231 434 283 393 Q375 317 485 287 L582 604 Q414 668 328 750 Q242 832 242 983 Q242 1176 404 1305 Q567 1434 807 1434 L823 1434 L831 1458 Q868 1564 950 1565 Q1005 1565 1030 1528 Q1055 1491 1036 1427 L1030 1407 Q1141 1380 1229 1319 Q1317 1258 1317 1190 Q1317 1122 1272 1078 Q1226 1036 1170 1036 Q1114 1036 1060 1074 Q1006 1112 944 1137 L852 831 Q1016 770 1099 684 Q1182 598 1182 451 Q1182 252 1017 126 Q852 0 606 0 L604 0 L571 -106 Q534 -212 453 -213 Q398 -212 374 -176 Q350 -140 369 -74 L397 20 Q213 61 92 158 Q26 208 26 278 Q26 348 71 391 Z" /><glyph glyph-name="percent" unicode="%" d="M416 27 Q377 -12 334 -12 Q291 -12 264 14 Q238 40 238 80 Q238 121 272 156 L1475 1407 Q1514 1446 1557 1446 Q1600 1446 1626 1420 Q1652 1394 1653 1354 Q1653 1314 1618 1278 L416 27 ZM1206 307 Q1206 162 1344 162 Q1414 162 1465 238 Q1518 314 1518 392 Q1518 470 1484 508 Q1450 547 1380 547 Q1310 547 1258 471 Q1206 395 1206 307 ZM684 1116 Q684 1272 546 1272 Q476 1272 425 1196 Q373 1120 373 1032 Q372 887 510 887 Q580 887 632 963 Q684 1038 684 1116 ZM1631 638 Q1718 552 1718 398 Q1718 244 1606 114 Q1494 -16 1336 -16 Q1180 -16 1093 71 Q1006 158 1006 312 Q1006 466 1118 595 Q1232 725 1388 725 Q1544 725 1631 638 ZM772 839 Q658 709 502 709 Q346 709 259 796 Q172 882 172 1036 Q172 1190 285 1320 Q398 1450 554 1450 Q710 1450 798 1363 Q886 1276 885 1122 Q885 968 772 839 Z" /><glyph glyph-name="ampersand" unicode="&amp;" d="M47 365 Q47 504 146 624 Q245 744 453 811 Q377 942 377 1059 Q377 1222 504 1340 Q630 1458 820 1458 Q1010 1458 1120 1361 Q1230 1264 1229 1114 Q1229 848 844 717 L1004 504 Q1047 551 1111 630 Q1176 709 1228 709 Q1280 709 1313 681 Q1346 653 1346 608 Q1346 563 1321 526 Q1237 407 1151 315 L1221 219 Q1268 156 1268 107 Q1268 58 1230 18 Q1192 -22 1128 -20 Q1064 -20 1024 33 L948 135 Q725 -20 512 -20 Q299 -20 173 83 Q47 186 47 365 ZM404 521 Q344 454 344 387 Q344 320 394 279 Q444 238 550 238 Q654 238 801 330 L580 633 Q464 588 404 521 ZM898 987 Q948 1032 948 1086 Q948 1140 914 1177 Q880 1212 812 1212 Q744 1212 699 1165 Q599 1063 713 893 Q848 942 898 987 Z" /><glyph glyph-name="quotesingle" unicode="&#39;" d="M289 768 Q250 768 232 795 Q215 822 225 862 L340 1300 Q356 1362 397 1402 Q438 1442 498 1442 L590 1442 Q656 1442 668 1392 Q680 1342 647 1292 L399 846 Q356 768 289 768 Z" /><glyph glyph-name="parenleft" unicode="(" d="M633 -33 Q672 -78 672 -137 Q672 -196 633 -234 Q594 -272 530 -272 Q466 -272 422 -231 Q119 58 119 428 Q119 748 305 1004 Q491 1260 848 1430 Q885 1448 932 1448 Q979 1448 1015 1411 Q1051 1374 1051 1317 Q1051 1237 965 1190 Q702 1045 568 851 Q434 657 434 434 Q434 211 633 -33 Z" /><glyph glyph-name="parenright" unicode=")" d="M299 1208 Q260 1252 260 1312 Q260 1372 299 1410 Q338 1448 402 1448 Q466 1448 510 1407 Q813 1118 813 748 Q813 428 627 172 Q441 -84 84 -254 Q47 -272 0 -272 Q-47 -272 -83 -236 Q-119 -200 -119 -141 Q-119 -61 -33 -14 Q231 131 365 325 Q498 520 498 742 Q498 964 299 1208 Z" /><glyph glyph-name="asterisk" unicode="*" d="M500 756 Q459 756 438 790 Q418 824 436 864 L502 1024 L350 963 Q314 948 290 948 Q266 948 244 968 Q222 988 221 1021 Q218 1054 238 1076 Q258 1098 293 1102 L473 1126 L334 1235 Q293 1266 293 1301 Q294 1336 316 1360 Q338 1384 376 1382 Q414 1382 440 1346 L549 1202 L571 1366 Q581 1444 649 1444 Q696 1444 714 1411 Q732 1378 713 1331 L649 1176 L801 1237 Q832 1249 862 1249 Q892 1249 909 1230 Q927 1211 930 1180 Q934 1106 858 1096 L678 1073 L817 965 Q858 934 858 899 Q858 864 836 840 Q814 816 775 817 Q737 817 711 854 L602 997 L580 834 Q570 756 500 756 Z" /><glyph glyph-name="plus" unicode="+" d="M574 199 Q510 199 477 250 Q444 301 469 395 L518 580 L315 580 Q258 580 216 622 Q174 664 174 721 Q174 778 216 820 Q258 862 315 862 L594 862 L653 1085 Q672 1159 718 1201 Q764 1243 828 1243 Q892 1243 926 1192 Q959 1141 934 1047 L885 862 L1087 862 Q1146 862 1188 820 Q1230 778 1229 721 Q1229 664 1188 622 Q1147 580 1087 580 L809 580 L750 356 Q730 282 684 240 Q638 198 574 199 Z" /><glyph glyph-name="comma" unicode="," d="M118 293 Q170 340 251 340 Q332 340 370 282 Q408 224 385 100 Q344 -103 190 -229 Q134 -274 64 -303 Q-6 -332 -63 -332 Q-137 -332 -137 -264 Q-138 -209 -66 -193 Q131 -152 147 0 Q24 33 49 164 Q66 247 118 293 Z" /><glyph glyph-name="hyphen" unicode="-" d="M625 485 L268 485 Q207 485 163 529 Q119 572 119 634 Q119 696 163 740 Q207 784 268 784 L625 784 Q686 784 730 740 Q774 696 774 635 Q774 574 730 530 Q686 486 625 485 Z" /><glyph glyph-name="period" unicode="." d="M332 36 Q277 -12 198 -12 Q119 -12 76 36 Q33 84 47 165 Q62 246 116 293 Q170 340 249 340 Q328 340 371 292 Q414 244 400 164 Q387 84 332 36 Z" /><glyph glyph-name="slash" unicode="/" d="M1204 1647 Q1253 1647 1281 1619 Q1309 1591 1309 1544 Q1309 1497 1264 1434 L68 -193 Q9 -275 -70 -274 Q-118 -274 -146 -246 Q-174 -218 -174 -172 Q-174 -124 -129 -61 L1067 1565 Q1126 1647 1204 1647 Z" /><glyph glyph-name="zero" unicode="0" d="M711 260 Q891 260 1011 454 Q1131 648 1130 864 Q1130 1014 1061 1094 Q991 1174 870 1174 Q690 1174 570 980 Q450 786 451 569 Q450 420 520 340 Q590 260 711 260 ZM686 -25 Q434 -25 280 138 Q126 301 127 571 Q127 731 180 887 Q297 1231 571 1378 Q721 1458 895 1458 Q1146 1458 1300 1295 Q1454 1132 1454 862 Q1454 702 1401 546 Q1284 201 1010 55 Q860 -25 686 -25 Z" /><glyph glyph-name="one" unicode="1" d="M250 1121 Q213 1154 213 1210 Q213 1266 244 1305 Q275 1344 324 1358 L573 1427 Q669 1454 727 1454 L729 1454 Q800 1454 834 1405 Q868 1356 850 1284 L545 145 Q504 -12 362 -12 Q292 -12 255 43 Q219 98 246 193 L496 1120 L375 1092 Q355 1088 321 1088 Q287 1088 250 1121 Z" /><glyph glyph-name="two" unicode="2" d="M139 0 Q-31 0 -31 150 Q-31 228 51 287 L733 758 Q942 901 942 1024 Q942 1094 894 1133 Q846 1172 762 1171 Q623 1171 494 1059 Q444 1014 386 1014 Q328 1014 288 1056 Q248 1098 248 1159 Q248 1220 299 1266 Q502 1454 776 1454 Q998 1454 1132 1343 Q1266 1232 1266 1059 Q1266 924 1191 815 Q1116 706 928 575 L485 272 L926 272 Q983 272 1023 232 Q1063 192 1063 135 Q1063 78 1023 39 Q983 0 926 0 L139 0 Z" /><glyph glyph-name="three" unicode="3" d="M49 137 Q-4 190 -4 250 Q-4 310 41 356 Q86 401 143 401 Q200 401 248 362 Q312 306 366 282 Q420 258 522 258 Q624 258 702 318 Q780 378 780 460 Q780 542 707 585 Q633 629 500 629 L494 629 Q439 628 409 660 Q379 692 379 750 Q379 808 449 864 L821 1163 L438 1163 Q383 1163 343 1203 Q303 1243 303 1298 Q303 1354 343 1394 Q383 1434 438 1434 L1130 1434 Q1202 1434 1246 1401 Q1290 1368 1290 1310 Q1290 1252 1264 1219 Q1238 1186 1182 1141 L793 844 Q1098 770 1098 487 Q1098 270 925 123 Q752 -24 480 -24 Q208 -24 49 137 Z" /><glyph glyph-name="four" unicode="4" d="M182 309 Q116 309 72 345 Q28 381 29 442 Q29 538 113 616 L918 1350 Q1035 1456 1151 1456 Q1225 1456 1266 1411 Q1307 1366 1288 1294 L1094 565 L1135 565 Q1188 565 1226 527 Q1264 489 1264 436 Q1264 383 1226 346 Q1188 309 1135 309 L1024 309 L981 145 Q938 -12 804 -12 Q736 -12 703 43 Q669 98 696 193 L727 309 L182 309 ZM432 565 L797 565 L920 1024 L432 565 Z" /><glyph glyph-name="five" unicode="5" d="M86 125 Q23 178 23 244 Q23 310 65 353 Q107 397 163 397 Q219 397 274 354 Q392 262 528 262 Q664 262 746 328 Q828 394 829 480 Q829 566 764 617 Q698 669 575 670 Q530 670 477 656 Q424 642 406 641 Q345 641 277 694 Q209 747 236 831 L395 1313 Q436 1434 545 1434 L1137 1434 Q1194 1434 1235 1393 Q1276 1352 1276 1294 Q1276 1236 1235 1197 Q1194 1157 1137 1157 L643 1157 L561 913 Q637 929 707 930 Q906 930 1030 818 Q1154 706 1153 520 Q1153 299 975 138 Q797 -23 512 -23 Q402 -23 286 17 Q170 57 86 125 Z" /><glyph glyph-name="six" unicode="6" d="M478 299 Q536 242 648 242 Q760 242 839 318 Q918 394 918 484 Q918 574 858 626 Q798 678 688 678 Q576 678 498 606 Q420 534 420 445 Q420 356 478 299 ZM1201 1094 Q1152 1094 1076 1134 Q1000 1174 895 1176 Q728 1176 622 1070 Q516 964 469 811 Q518 860 610 896 Q702 932 799 932 Q985 932 1110 826 Q1235 720 1235 532 Q1235 311 1061 143 Q887 -25 643 -25 Q399 -25 260 114 Q121 253 121 510 Q121 720 194 914 Q267 1108 401 1243 Q616 1458 922 1458 Q1110 1458 1264 1368 Q1336 1327 1335 1239 Q1335 1178 1292 1136 Q1249 1094 1201 1094 Z" /><glyph glyph-name="seven" unicode="7" d="M272 -12 Q209 -12 174 20 Q139 52 139 112 Q139 172 188 238 L909 1161 L412 1161 Q355 1161 314 1200 Q274 1239 274 1296 Q274 1354 314 1394 Q354 1434 412 1434 L1180 1434 Q1325 1434 1325 1317 Q1325 1237 1253 1149 L442 86 Q364 -12 272 -12 Z" /><glyph glyph-name="eight" unicode="8" d="M631 233 Q748 234 824 286 Q900 338 903 419 Q905 500 833 549 Q760 598 643 598 Q526 598 450 545 Q374 492 373 413 Q370 334 442 284 Q514 234 631 233 ZM610 900 Q672 852 773 852 Q874 852 941 903 Q1008 954 1010 1028 Q1012 1102 952 1149 Q892 1196 788 1196 Q686 1196 618 1146 Q550 1096 548 1022 Q546 948 610 900 ZM1047 106 Q882 -20 634 -20 Q386 -20 226 92 Q65 204 66 385 Q66 541 165 638 Q264 735 432 776 Q348 819 303 893 Q258 967 258 1053 Q258 1210 401 1332 Q544 1454 782 1454 Q1020 1454 1162 1346 Q1304 1238 1305 1069 Q1305 934 1222 840 Q1139 746 991 711 Q1090 672 1150 594 Q1210 516 1210 406 Q1210 234 1047 106 Z" /><glyph glyph-name="nine" unicode="9" d="M567 1116 Q489 1040 489 941 Q489 842 550 792 Q612 742 722 741 Q832 741 910 815 Q988 889 987 984 Q987 1079 931 1135 Q875 1192 760 1192 Q645 1192 567 1116 ZM498 -25 Q299 -25 143 74 Q59 126 59 198 Q59 270 102 312 Q146 354 194 354 Q242 354 333 306 Q424 258 514 258 Q678 258 795 375 Q889 469 934 606 Q885 557 795 522 Q705 487 608 487 Q420 488 296 594 Q172 700 172 893 Q172 1130 345 1294 Q518 1458 766 1458 Q875 1458 977 1424 Q1288 1320 1288 895 Q1288 698 1213 512 Q1138 326 1001 188 Q789 -25 498 -25 Z" /><glyph glyph-name="colon" unicode=":" d="M539 806 Q484 758 405 758 Q326 758 283 806 Q240 854 254 935 Q268 1016 322 1063 Q376 1110 456 1110 Q535 1110 578 1062 Q621 1014 607 934 Q594 854 539 806 ZM332 36 Q277 -12 198 -12 Q119 -12 76 36 Q33 84 47 165 Q62 246 116 293 Q170 340 249 340 Q328 340 371 292 Q414 244 400 164 Q387 84 332 36 Z" /><glyph glyph-name="semicolon" unicode=";" d="M539 806 Q484 758 405 758 Q326 758 283 806 Q240 854 254 935 Q268 1016 322 1063 Q376 1110 456 1110 Q535 1110 578 1062 Q621 1014 607 934 Q594 854 539 806 ZM118 293 Q170 340 251 340 Q332 340 370 282 Q408 224 385 100 Q344 -103 190 -229 Q134 -274 64 -303 Q-6 -332 -63 -332 Q-137 -332 -137 -264 Q-138 -209 -66 -193 Q131 -152 147 0 Q24 33 49 164 Q66 247 118 293 Z" /><glyph glyph-name="less" unicode="&lt;" d="M1182 1235 Q1226 1235 1258 1205 Q1290 1175 1290 1124 Q1290 1030 1206 997 L479 709 L999 451 Q1083 410 1083 326 Q1083 269 1046 227 Q1008 186 958 186 Q908 186 872 205 L309 500 Q172 574 172 688 L172 700 Q172 836 311 895 L1094 1217 Q1139 1235 1182 1235 Z" /><glyph glyph-name="equal" unicode="=" d="M279 313 Q222 313 179 355 Q137 396 137 454 Q137 512 179 554 Q221 596 279 596 L989 596 Q1048 596 1090 554 Q1132 512 1130 455 Q1130 398 1090 355 Q1049 313 989 313 L279 313 ZM422 846 Q365 846 323 888 Q281 930 281 987 Q281 1044 323 1086 Q365 1128 422 1128 L1133 1128 Q1192 1128 1233 1086 Q1274 1044 1274 987 Q1274 930 1233 888 Q1192 846 1133 846 L422 846 Z" /><glyph glyph-name="greater" unicode="&gt;" d="M303 225 Q258 207 215 207 Q172 207 139 237 Q106 267 106 317 Q106 411 190 444 L918 733 L397 991 Q313 1032 313 1116 Q313 1173 351 1214 Q388 1255 438 1255 Q488 1255 524 1237 L1087 942 Q1224 868 1225 754 L1225 741 Q1224 606 1085 547 L303 225 Z" /><glyph glyph-name="question" unicode="?" d="M494 36 Q440 -12 360 -12 Q280 -12 237 36 Q194 84 209 165 Q224 246 278 293 Q332 340 411 340 Q490 340 533 292 Q576 244 562 164 Q549 84 494 36 ZM655 1165 Q558 1165 468 1117 Q378 1069 332 1069 Q286 1069 249 1107 Q213 1145 213 1192 Q213 1272 283 1323 Q461 1452 684 1452 Q907 1452 1031 1342 Q1155 1232 1155 1066 Q1155 900 1022 784 Q889 669 631 631 L608 575 Q590 530 555 502 Q520 474 477 475 L461 475 Q416 475 392 504 Q368 533 375 582 L393 737 Q399 786 430 809 Q461 832 561 847 Q661 862 743 911 Q825 960 825 1038 Q825 1165 655 1165 Z" /><glyph glyph-name="at" unicode="@" d="M1436 1028 Q1491 1028 1523 985 Q1555 942 1534 879 L1399 453 Q1364 346 1399 288 Q1434 230 1518 229 Q1641 230 1747 374 Q1853 518 1853 768 Q1853 1018 1649 1200 Q1444 1382 1110 1382 Q858 1382 647 1256 Q436 1130 316 922 Q196 714 197 477 Q197 162 411 -38 Q625 -238 965 -238 Q1170 -238 1356 -158 Q1374 -152 1385 -152 Q1396 -152 1408 -163 Q1420 -174 1419 -194 Q1419 -214 1399 -225 Q1196 -317 965 -317 Q590 -317 351 -95 Q112 127 113 477 Q113 736 244 964 Q375 1192 606 1328 Q837 1464 1110 1464 Q1483 1464 1711 1257 Q1939 1050 1939 752 Q1939 454 1797 294 Q1655 133 1454 133 Q1352 133 1277 175 Q1202 217 1169 291 Q1013 131 842 131 Q701 131 606 223 Q512 315 512 477 Q512 717 670 880 Q828 1042 1017 1042 Q1206 1042 1294 899 Q1337 1028 1436 1028 ZM818 385 Q864 338 957 338 Q1050 338 1139 435 Q1227 532 1227 664 Q1227 740 1178 786 Q1129 832 1036 834 Q944 834 858 740 Q772 646 772 514 Q772 432 818 385 Z" /><glyph glyph-name="A" unicode="a" d="M1411 139 Q1411 76 1365 32 Q1318 -12 1252 -12 Q1186 -12 1145 23 Q1104 58 1096 113 L1063 322 L428 322 L264 86 Q194 -12 104 -12 Q43 -12 9 22 Q-25 56 -25 111 Q-25 166 12 215 L809 1333 Q895 1456 1030 1456 L1036 1456 Q1181 1457 1208 1307 L1401 221 Q1411 149 1411 139 ZM621 600 L1018 600 L944 1073 L621 600 Z" /><glyph glyph-name="B" unicode="b" d="M729 0 L207 0 Q127 0 91 55 Q55 110 80 205 L367 1276 Q387 1350 434 1392 Q481 1434 543 1434 L967 1434 Q1208 1434 1330 1334 Q1452 1234 1452 1088 Q1452 942 1369 850 Q1286 758 1145 727 Q1346 633 1346 436 Q1346 240 1183 120 Q1020 0 729 0 ZM776 276 Q895 276 964 324 Q1032 372 1032 446 Q1031 591 836 592 L489 592 L406 276 L776 276 ZM879 854 Q1137 854 1137 1028 Q1138 1087 1088 1122 Q1038 1157 938 1157 L641 1157 L561 854 L879 854 Z" /><glyph glyph-name="C" unicode="c" d="M813 -25 Q516 -25 327 146 Q138 317 137 600 Q137 946 394 1202 Q651 1458 1010 1458 Q1293 1458 1483 1282 Q1548 1221 1548 1151 Q1548 1081 1501 1033 Q1454 985 1384 985 Q1314 984 1264 1042 Q1214 1100 1145 1134 Q1077 1168 971 1167 Q772 1167 618 1002 Q464 837 465 612 Q465 458 563 362 Q661 266 815 266 Q897 266 950 286 Q1002 306 1072 351 Q1142 395 1198 395 Q1254 395 1294 351 Q1335 308 1335 242 Q1335 176 1280 129 Q1198 59 1073 17 Q948 -25 813 -25 Z" /><glyph glyph-name="D" unicode="d" d="M543 1434 L827 1434 Q1204 1434 1389 1249 Q1545 1093 1544 829 Q1544 499 1309 264 Q1045 0 557 0 L207 0 Q127 0 91 55 Q55 110 80 205 L367 1276 Q387 1350 434 1392 Q482 1434 543 1434 ZM594 285 Q899 285 1073 459 Q1216 602 1217 817 Q1217 960 1133 1044 Q1029 1148 803 1149 L649 1149 L416 285 L594 285 Z" /><glyph glyph-name="E" unicode="e" d="M1014 0 L207 0 Q127 0 91 55 Q55 110 80 205 L367 1276 Q387 1350 434 1392 Q481 1434 543 1434 L1313 1434 Q1372 1434 1413 1393 Q1454 1352 1454 1294 Q1454 1236 1413 1194 Q1372 1153 1313 1153 L647 1153 L569 860 L1067 860 Q1126 860 1167 819 Q1208 778 1208 721 Q1208 664 1167 624 Q1126 584 1067 584 L494 584 L412 281 L1014 281 Q1073 281 1114 239 Q1155 198 1155 140 Q1155 82 1114 41 Q1073 0 1014 0 Z" /><glyph glyph-name="F" unicode="f" d="M543 1434 L1331 1434 Q1390 1434 1432 1392 Q1474 1350 1475 1290 Q1475 1230 1433 1189 Q1391 1147 1331 1147 L647 1147 L565 842 L1079 842 Q1138 842 1180 800 Q1222 758 1223 698 Q1223 638 1181 597 Q1139 555 1079 555 L489 555 L379 145 Q360 72 312 30 Q264 -12 194 -12 Q124 -12 87 43 Q51 98 76 193 L367 1276 Q387 1350 434 1392 Q482 1434 543 1434 Z" /><glyph glyph-name="G" unicode="g" d="M1030 1458 Q1198 1458 1328 1412 Q1458 1366 1530 1298 Q1593 1243 1593 1174 Q1593 1104 1548 1060 Q1503 1016 1444 1016 Q1385 1016 1339 1049 Q1260 1110 1186 1140 Q1112 1170 1006 1169 Q779 1169 621 1002 Q463 835 463 608 Q463 446 567 355 Q670 264 816 264 Q962 264 1085 319 L1153 553 L977 553 Q920 553 880 592 Q840 631 840 688 Q840 745 880 785 Q920 825 977 825 L1348 825 Q1428 825 1465 770 Q1502 715 1475 623 L1362 227 Q1331 114 1235 63 Q1067 -25 806 -25 Q545 -25 349 125 Q252 199 194 322 Q136 445 135 598 Q135 821 250 1018 Q364 1214 572 1336 Q780 1458 1030 1458 Z" /><glyph glyph-name="H" unicode="h" d="M1200 30 Q1152 -12 1082 -12 Q1012 -12 976 43 Q940 98 965 193 L1069 575 L496 575 L379 145 Q360 72 312 30 Q264 -12 194 -12 Q124 -12 87 43 Q51 98 76 193 L371 1288 Q391 1362 438 1404 Q485 1446 556 1446 Q627 1446 663 1391 Q699 1336 674 1241 L573 866 L1147 866 L1260 1288 Q1280 1362 1327 1404 Q1374 1446 1445 1446 Q1516 1446 1552 1390 Q1588 1334 1563 1241 L1268 145 Q1248 72 1200 30 Z" /><glyph glyph-name="I" unicode="i" d="M326 30 Q279 -12 208 -12 Q137 -12 101 43 Q65 98 90 193 L385 1288 Q404 1362 452 1404 Q500 1446 570 1446 Q640 1446 677 1390 Q713 1334 688 1241 L393 145 Q373 72 326 30 Z" /><glyph glyph-name="J" unicode="j" d="M18 109 Q-39 162 -39 227 Q-39 292 4 336 Q46 380 104 381 Q162 381 217 338 Q298 272 410 272 Q585 272 664 446 Q691 505 727 645 L899 1288 Q918 1362 966 1404 Q1014 1446 1084 1446 Q1154 1446 1191 1390 Q1227 1334 1202 1241 L1022 569 Q977 395 933 302 Q889 209 813 133 Q659 -21 385 -20 Q166 -20 18 109 Z" /><glyph glyph-name="K" unicode="k" d="M312 30 Q264 -12 194 -12 Q124 -12 87 43 Q51 98 76 193 L371 1288 Q391 1362 438 1404 Q485 1446 556 1446 Q627 1446 663 1391 Q699 1336 674 1241 L555 799 L1253 1384 Q1327 1446 1387 1446 Q1448 1446 1488 1405 Q1528 1364 1528 1298 Q1528 1232 1473 1188 L1012 811 L1266 231 Q1324 94 1242 27 Q1194 -12 1133 -12 Q1018 -12 973 98 L754 635 L444 391 L379 145 Q360 72 312 30 Z" /><glyph glyph-name="L" unicode="l" d="M965 0 L207 0 Q127 0 91 55 Q55 110 80 205 L371 1288 Q391 1362 438 1404 Q485 1446 556 1446 Q627 1446 663 1391 Q699 1336 674 1241 L418 287 L965 287 Q1024 287 1065 245 Q1106 202 1106 142 Q1106 82 1065 41 Q1024 0 965 0 Z" /><glyph glyph-name="M" unicode="m" d="M1636 1442 L1665 1442 Q1745 1442 1781 1386 Q1817 1330 1790 1237 L1497 145 Q1476 72 1428 30 Q1380 -12 1310 -12 Q1240 -12 1202 43 Q1165 98 1190 193 L1366 854 L1014 471 Q930 377 842 377 Q791 378 760 404 Q729 430 707 492 L569 852 L379 145 Q360 72 312 30 Q264 -12 194 -12 Q124 -12 87 43 Q51 98 76 193 L369 1282 Q412 1442 549 1442 L567 1442 Q678 1442 727 1313 L944 739 L1450 1343 Q1536 1442 1636 1442 Z" /><glyph glyph-name="N" unicode="n" d="M1508 1446 Q1578 1446 1615 1391 Q1651 1336 1624 1241 L1327 139 Q1288 -8 1157 -8 L1151 -8 Q1079 -8 1039 20 Q999 48 971 111 L588 940 L375 145 Q334 -12 192 -12 Q122 -12 85 43 Q49 98 76 193 L369 1284 Q410 1442 555 1442 L569 1442 Q698 1442 754 1317 L1118 522 L1325 1288 Q1366 1446 1508 1446 Z" /><glyph glyph-name="O" unicode="o" d="M829 266 Q1044 266 1186 435 Q1327 604 1327 786 Q1327 968 1231 1067 Q1135 1167 963 1167 Q748 1167 606 998 Q464 829 465 648 Q465 466 561 366 Q657 266 829 266 ZM793 -25 Q500 -24 318 156 Q136 336 137 610 Q137 825 244 1019 Q350 1214 551 1336 Q752 1458 999 1458 Q1292 1458 1474 1278 Q1656 1098 1655 823 Q1654 608 1548 414 Q1442 220 1242 98 Q1042 -25 793 -25 Z" /><glyph glyph-name="P" unicode="p" d="M745 711 Q905 712 1000 780 Q1095 848 1096 967 Q1096 1039 1049 1085 Q986 1148 852 1149 L647 1149 L530 711 L745 711 ZM312 30 Q264 -12 194 -12 Q124 -12 87 43 Q51 98 76 193 L367 1276 Q387 1350 434 1392 Q481 1434 543 1434 L864 1434 Q1169 1434 1315 1288 Q1426 1177 1425 993 Q1424 734 1228 584 Q1032 434 729 434 L457 434 L379 145 Q360 72 312 30 Z" /><glyph glyph-name="Q" unicode="q" d="M793 -25 Q500 -24 318 156 Q136 336 137 610 Q137 825 244 1019 Q350 1214 551 1336 Q752 1458 999 1458 Q1292 1458 1474 1278 Q1656 1098 1655 823 Q1655 483 1411 233 L1438 201 Q1487 144 1487 80 Q1487 16 1444 -26 Q1401 -68 1327 -68 Q1253 -68 1212 0 L1171 61 Q999 -25 793 -25 ZM1231 494 Q1327 641 1327 804 Q1327 967 1231 1067 Q1135 1167 963 1167 Q748 1167 606 998 Q464 829 465 648 Q465 467 561 367 Q657 267 829 266 Q921 266 1010 303 L922 422 Q822 565 913 658 Q958 704 1029 704 Q1100 704 1139 641 L1231 494 Z" /><glyph glyph-name="R" unicode="r" d="M1167 975 Q1167 1149 913 1149 L649 1149 L539 737 L819 737 Q1016 737 1108 829 Q1167 888 1167 975 ZM1497 1001 Q1497 616 1053 494 L1229 231 Q1264 180 1264 122 Q1264 64 1217 26 Q1170 -12 1110 -12 Q989 -12 926 92 L698 459 L463 459 L379 145 Q360 72 312 30 Q264 -12 194 -12 Q124 -12 87 43 Q51 98 76 193 L367 1276 Q387 1350 434 1392 Q481 1434 543 1434 L932 1434 Q1243 1434 1386 1290 Q1497 1179 1497 1001 Z" /><glyph glyph-name="S" unicode="s" d="M436 288 Q514 256 614 256 Q714 256 776 297 Q838 338 838 398 Q838 458 788 498 Q738 538 582 600 Q428 662 335 750 Q242 838 242 981 Q242 1194 408 1324 Q574 1454 818 1454 Q1062 1454 1247 1327 Q1321 1274 1321 1202 Q1321 1130 1276 1086 Q1232 1042 1172 1042 Q1112 1042 1079 1069 Q940 1178 786 1178 Q692 1178 635 1134 Q578 1090 578 1034 Q578 978 627 942 Q676 908 836 842 Q996 776 1085 689 Q1173 602 1174 457 Q1174 240 1007 110 Q840 -20 604 -20 Q264 -20 74 143 Q12 194 12 268 Q12 342 56 388 Q100 434 158 434 Q216 434 266 395 Q358 320 436 288 Z" /><glyph glyph-name="T" unicode="t" d="M612 30 Q564 -12 494 -12 Q424 -12 388 43 Q352 98 377 193 L633 1143 L371 1143 Q312 1143 268 1186 Q225 1229 225 1288 Q225 1346 268 1390 Q311 1434 371 1434 L1290 1434 Q1348 1434 1392 1391 Q1436 1348 1436 1288 Q1436 1228 1393 1186 Q1350 1143 1290 1143 L948 1143 L680 145 Q660 72 612 30 Z" /><glyph glyph-name="U" unicode="u" d="M166 461 Q166 555 201 690 L360 1288 Q380 1362 428 1404 Q476 1446 546 1446 Q616 1446 652 1391 Q688 1336 664 1241 L508 662 Q485 572 485 506 Q485 396 551 332 Q618 268 746 268 Q874 268 969 358 Q1063 452 1108 625 L1286 1288 Q1306 1362 1354 1404 Q1402 1446 1472 1446 Q1542 1446 1578 1390 Q1614 1334 1589 1241 L1411 580 Q1337 301 1190 154 Q1014 -22 702 -23 Q452 -23 309 105 Q166 233 166 461 Z" /><glyph glyph-name="V" unicode="v" d="M588 -23 L573 -23 Q446 -23 426 117 L262 1229 Q256 1262 256 1313 Q256 1364 302 1405 Q348 1446 422 1446 Q572 1446 588 1300 L692 434 L1292 1346 Q1358 1446 1456 1446 Q1520 1446 1560 1416 Q1600 1386 1600 1333 Q1600 1280 1571 1239 L797 104 Q711 -23 588 -23 Z" /><glyph glyph-name="W" unicode="w" d="M1440 -23 L1425 -23 Q1286 -23 1280 117 L1219 909 L727 104 Q649 -23 522 -23 L508 -23 Q373 -23 360 117 L262 1227 Q258 1272 258 1300 Q258 1362 304 1404 Q350 1446 421 1446 Q492 1446 534 1411 Q576 1376 578 1315 L631 463 L1143 1325 Q1217 1450 1325 1450 L1343 1450 Q1476 1450 1487 1325 L1544 463 L2068 1341 Q2131 1445 2236 1446 Q2302 1446 2343 1411 Q2384 1376 2384 1327 Q2384 1278 2357 1233 L1651 104 Q1573 -23 1440 -23 Z" /><glyph glyph-name="X" unicode="x" d="M1202 260 Q1241 190 1241 134 Q1241 78 1195 32 Q1149 -12 1081 -12 Q970 -12 915 102 L731 485 L315 74 Q284 43 266 28 Q218 -12 158 -12 Q98 -12 58 26 Q18 64 18 130 Q18 196 80 254 L575 743 L344 1174 Q305 1244 305 1300 Q305 1356 351 1401 Q397 1446 465 1446 Q576 1446 631 1331 L813 956 L1202 1360 Q1284 1446 1364 1446 Q1419 1446 1459 1408 Q1499 1370 1499 1306 Q1499 1242 1444 1186 L961 709 L1202 260 Z" /><glyph glyph-name="Y" unicode="y" d="M1348 1448 Q1492 1448 1491 1314 Q1491 1250 1438 1194 L803 524 L700 145 Q680 72 633 30 Q586 -12 515 -12 Q444 -12 408 43 Q372 98 397 193 L494 553 L236 1178 Q205 1252 205 1306 Q205 1360 253 1402 Q301 1446 375 1446 Q484 1446 528 1323 L711 831 L1190 1358 Q1274 1448 1348 1448 Z" /><glyph glyph-name="Z" unicode="z" d="M459 1157 Q402 1157 360 1197 Q319 1237 319 1294 Q319 1350 360 1392 Q401 1434 459 1434 L1370 1434 Q1433 1434 1470 1401 Q1507 1368 1507 1311 L1507 1307 Q1507 1233 1421 1151 L461 276 L1067 276 Q1124 276 1165 236 Q1206 196 1206 138 Q1206 80 1165 40 Q1124 0 1067 0 L123 0 Q60 0 23 33 Q-14 66 -14 123 L-14 127 Q-14 201 72 283 L1032 1157 L459 1157 Z" /><glyph glyph-name="bracketleft" unicode="[" d="M954 1190 L670 1190 L344 -23 L563 -23 Q614 -24 650 -58 Q686 -92 686 -143 Q686 -194 650 -230 Q614 -266 563 -266 L150 -266 Q82 -266 44 -219 Q6 -172 23 -109 L393 1276 Q412 1344 462 1389 Q512 1434 582 1434 L954 1434 Q1005 1434 1041 1398 Q1077 1362 1077 1311 Q1077 1260 1041 1225 Q1005 1190 954 1190 Z" /><glyph glyph-name="backslash" unicode="\" d="M881 -63 Q895 -131 895 -170 Q895 -209 861 -242 Q827 -275 776 -274 Q667 -274 643 -152 L287 1436 Q272 1504 272 1542 Q272 1580 306 1614 Q340 1647 391 1647 Q499 1647 524 1524 L881 -63 Z" /><glyph glyph-name="bracketright" unicode="]" d="M389 -266 L16 -266 Q-35 -266 -71 -230 Q-107 -194 -106 -143 Q-106 -92 -71 -57 Q-35 -22 16 -23 L301 -23 L627 1190 L408 1190 Q357 1190 321 1225 Q285 1260 285 1311 Q285 1362 321 1398 Q357 1434 408 1434 L821 1434 Q889 1434 927 1386 Q965 1338 948 1276 L578 -109 Q560 -178 510 -222 Q460 -266 389 -266 Z" /><glyph glyph-name="asciicircum" unicode="^" d="M335 999 Q256 998 256 1064 Q256 1094 291 1130 L508 1350 Q596 1438 680 1438 L698 1438 Q798 1438 842 1343 L940 1124 Q963 1075 963 1049 Q962 1000 898 1000 Q834 1000 804 1018 Q774 1036 737 1110 L666 1249 L516 1106 Q450 1045 412 1022 Q374 999 335 999 Z" /><glyph glyph-name="underscore" unicode="_" d="M-203 -328 Q-252 -328 -287 -293 Q-322 -258 -322 -209 Q-322 -160 -287 -125 Q-252 -90 -203 -90 L1034 -90 Q1083 -90 1118 -125 Q1153 -160 1153 -209 Q1153 -258 1118 -293 Q1083 -328 1034 -328 L-203 -328 Z" /><glyph glyph-name="grave" unicode="`" d="M715 1561 Q797 1561 823 1485 L885 1317 Q893 1292 893 1274 Q893 1206 795 1206 Q750 1206 724 1220 Q698 1234 666 1274 L571 1393 Q542 1432 542 1464 Q542 1496 599 1528 Q655 1561 715 1561 Z" /><glyph glyph-name="a" unicode="a" d="M481 193 Q561 194 639 258 Q717 322 743 414 L752 442 Q652 481 550 481 Q448 481 386 434 Q324 386 324 322 Q324 192 481 193 ZM813 717 Q813 846 606 846 Q508 846 444 830 Q380 814 365 813 Q312 813 276 849 Q241 885 242 938 Q242 1030 336 1059 Q496 1110 694 1110 Q892 1110 1004 1023 Q1117 936 1116 772 Q1116 700 1092 606 L969 145 Q948 68 902 28 Q856 -12 795 -12 Q652 -12 662 127 Q525 -20 334 -20 Q193 -20 103 62 Q14 145 14 274 Q14 458 147 564 Q280 670 487 670 Q639 670 797 621 Q813 677 813 717 Z" /><glyph glyph-name="b" unicode="b" d="M479 306 Q546 242 662 242 Q778 242 877 353 Q975 465 975 627 Q974 732 912 794 Q850 856 732 856 Q614 856 514 743 Q414 630 414 475 Q414 371 479 306 ZM1113 171 Q930 -20 698 -20 Q466 -20 346 160 Q300 -12 170 -12 Q90 -12 54 43 Q18 98 45 193 L352 1350 Q394 1507 536 1507 Q606 1507 642 1452 Q678 1397 651 1303 L565 979 Q714 1118 886 1118 Q1058 1118 1178 991 Q1298 864 1296 647 Q1296 362 1113 171 Z" /><glyph glyph-name="c" unicode="c" d="M590 -25 Q374 -24 230 112 Q86 248 86 471 Q86 738 278 928 Q470 1118 733 1118 Q962 1118 1104 981 Q1161 928 1161 864 Q1161 800 1118 758 Q1075 715 1012 715 Q949 715 909 760 Q834 852 710 852 Q586 852 490 737 Q394 622 393 471 Q392 368 454 304 Q516 240 611 240 Q706 240 777 288 Q848 336 895 336 Q942 336 978 298 Q1014 260 1014 202 Q1014 144 967 104 Q807 -25 590 -25 Z" /><glyph glyph-name="d" unicode="d" d="M466 304 Q528 242 646 242 Q764 242 864 354 Q964 466 965 623 Q965 727 899 792 Q832 856 716 856 Q600 856 502 744 Q404 632 403 471 Q403 366 466 304 ZM1063 28 Q1016 -12 950 -12 Q884 -12 848 24 Q812 60 813 119 Q664 -20 492 -20 Q320 -20 201 106 Q82 232 82 451 Q82 736 265 927 Q448 1118 680 1118 Q912 1118 1032 938 L1141 1350 Q1182 1507 1324 1507 Q1395 1507 1431 1452 Q1467 1397 1440 1303 L1130 145 Q1110 68 1063 28 Z" /><glyph glyph-name="e" unicode="e" d="M891 707 Q891 780 846 824 Q801 868 704 868 Q607 868 524 805 Q442 741 403 635 L881 635 Q891 670 891 707 ZM627 225 Q718 225 784 261 Q850 297 895 297 Q940 297 974 263 Q1008 228 1008 170 Q1008 112 948 74 Q798 -24 576 -24 Q354 -24 219 105 Q84 235 84 463 Q84 625 163 773 Q242 921 394 1020 Q548 1118 746 1118 Q944 1118 1064 998 Q1184 878 1184 690 Q1184 633 1171 578 Q1140 441 1022 440 L377 440 Q394 225 627 225 Z" /><glyph glyph-name="f" unicode="f" d="M192 872 Q158 906 158 964 Q158 1022 196 1060 Q234 1098 287 1098 L342 1098 L356 1157 Q448 1509 801 1509 Q858 1509 895 1503 Q997 1485 997 1384 Q997 1312 955 1272 Q913 1232 860 1243 Q827 1247 811 1247 Q690 1247 657 1128 L649 1098 L760 1098 Q813 1098 851 1060 Q889 1022 889 965 Q889 908 851 870 Q813 832 760 831 L584 831 L397 145 Q356 -12 214 -12 Q144 -12 108 43 Q72 98 98 193 L272 831 Q226 837 192 872 Z" /><glyph glyph-name="g" unicode="g" d="M1092 1066 Q1134 1110 1208 1110 Q1282 1110 1318 1055 Q1354 1000 1327 905 L1143 215 Q1100 51 1059 -31 Q909 -332 512 -332 Q252 -332 39 -238 Q-49 -197 -49 -119 Q-49 -64 -12 -24 Q25 16 73 16 Q121 16 170 -8 Q326 -86 484 -86 Q642 -86 729 2 Q790 63 829 199 L840 236 Q752 158 674 124 Q596 90 496 90 Q328 90 208 192 Q88 294 88 473 Q88 742 271 930 Q454 1118 684 1118 Q914 1118 1022 928 L1030 952 Q1048 1022 1092 1066 ZM618 338 Q747 338 845 433 Q942 528 942 657 Q942 750 883 804 Q824 858 710 858 Q596 858 503 760 Q410 662 410 532 Q410 438 467 388 Q524 338 618 338 Z" /><glyph glyph-name="h" unicode="h" d="M860 700 Q860 835 709 836 Q618 836 558 778 Q498 720 471 616 L344 145 Q303 -12 161 -12 Q90 -12 54 43 Q18 98 45 193 L352 1350 Q394 1507 536 1507 Q606 1507 642 1452 Q678 1397 651 1303 L567 983 Q719 1118 866 1118 Q1014 1118 1102 1032 Q1190 946 1190 799 Q1190 729 1153 590 L1034 145 Q993 -12 851 -12 Q780 -12 744 43 Q708 98 735 193 L846 602 Q860 655 860 700 Z" /><glyph glyph-name="i" unicode="i" d="M446 1110 Q516 1110 552 1054 Q588 998 561 905 L356 145 Q315 -12 173 -12 Q102 -12 66 43 Q30 98 57 193 L262 952 Q304 1110 446 1110 ZM631 1247 Q576 1208 501 1208 Q426 1208 382 1249 Q338 1290 352 1359 Q366 1428 422 1466 Q478 1504 552 1505 Q627 1505 671 1464 Q715 1423 700 1355 Q686 1286 631 1247 Z" /><glyph glyph-name="j" unicode="j" d="M631 1247 Q576 1208 501 1208 Q426 1208 382 1249 Q338 1290 352 1359 Q366 1428 422 1466 Q478 1504 552 1505 Q627 1505 671 1464 Q715 1423 700 1355 Q686 1286 631 1247 ZM446 1110 Q516 1110 552 1054 Q588 998 561 905 L326 27 Q228 -333 -94 -334 Q-258 -334 -258 -209 Q-258 -154 -223 -116 Q-188 -78 -139 -82 L-88 -86 Q-46 -86 -22 -54 Q2 -22 20 51 L262 952 Q304 1110 446 1110 Z" /><glyph glyph-name="k" unicode="k" d="M963 1055 Q1034 1110 1086 1110 Q1138 1110 1174 1074 Q1210 1038 1210 978 Q1210 918 1153 879 L829 643 L999 231 Q1026 168 1026 115 Q1026 62 978 25 Q930 -12 866 -12 Q749 -12 705 100 L559 449 L391 326 L344 145 Q303 -12 161 -12 Q90 -12 54 43 Q18 98 45 193 L356 1350 Q398 1507 540 1507 Q610 1507 646 1452 Q682 1397 655 1303 L492 696 L963 1055 Z" /><glyph glyph-name="l" unicode="l" d="M552 1507 Q623 1507 659 1452 Q695 1397 668 1303 L356 145 Q315 -12 173 -12 Q102 -12 66 43 Q30 98 57 193 L369 1350 Q410 1507 552 1507 Z" /><glyph glyph-name="m" unicode="m" d="M850 700 Q850 835 705 836 Q529 836 471 616 L344 145 Q303 -12 161 -12 Q90 -12 54 43 Q18 98 45 193 L248 952 Q268 1028 315 1069 Q362 1110 428 1110 Q494 1110 530 1074 Q566 1038 567 983 Q719 1118 858 1118 Q1077 1118 1149 920 Q1313 1119 1542 1118 Q1688 1118 1774 1033 Q1860 948 1860 799 Q1860 729 1823 590 L1704 145 Q1662 -12 1520 -12 Q1450 -12 1414 43 Q1378 98 1405 193 L1516 602 Q1530 655 1530 700 Q1530 835 1384 836 Q1208 836 1151 616 L1024 145 Q982 -12 840 -12 Q770 -12 734 44 Q698 100 725 193 L836 602 Q850 655 850 700 Z" /><glyph glyph-name="n" unicode="n" d="M315 1069 Q362 1110 428 1110 Q494 1110 530 1074 Q566 1038 567 983 Q719 1118 866 1118 Q1014 1118 1102 1032 Q1190 946 1190 799 Q1190 729 1153 590 L1034 145 Q993 -12 851 -12 Q780 -12 744 43 Q708 98 735 193 L846 602 Q860 655 860 700 Q860 835 709 836 Q618 836 558 778 Q498 720 471 616 L344 145 Q303 -12 161 -12 Q90 -12 54 43 Q18 98 45 193 L248 952 Q268 1028 315 1069 Z" /><glyph glyph-name="o" unicode="o" d="M456 308 Q520 242 642 242 Q764 242 854 358 Q944 474 944 598 Q944 720 880 786 Q816 852 694 852 Q572 852 482 735 Q392 618 391 496 Q392 374 456 308 ZM1249 597 Q1250 360 1062 168 Q874 -24 624 -25 Q374 -24 230 118 Q86 260 86 496 Q86 732 273 926 Q460 1118 710 1118 Q960 1118 1105 976 Q1249 834 1249 597 Z" /><glyph glyph-name="p" unicode="p" d="M975 627 Q975 732 912 794 Q850 856 732 856 Q614 856 514 743 Q414 630 414 475 Q414 371 480 306 Q546 242 662 242 Q778 242 877 353 Q975 465 975 627 ZM315 1069 Q362 1110 428 1110 Q494 1110 530 1074 Q566 1038 565 979 Q714 1118 886 1118 Q1058 1118 1178 991 Q1298 864 1296 647 Q1296 362 1113 171 Q930 -20 698 -20 Q466 -20 346 160 L256 -182 Q214 -340 72 -340 Q2 -340 -34 -285 Q-70 -230 -43 -135 L248 952 Q268 1028 315 1069 Z" /><glyph glyph-name="q" unicode="q" d="M899 792 Q832 856 716 856 Q600 856 502 744 Q404 632 403 471 Q404 366 466 304 Q528 242 646 242 Q764 242 864 354 Q964 466 965 623 Q965 728 899 792 ZM265 927 Q448 1118 680 1118 Q912 1118 1032 938 Q1057 1025 1099 1067 Q1140 1110 1214 1110 Q1288 1110 1324 1055 Q1360 1000 1333 905 L1044 -182 Q1002 -340 861 -340 Q790 -340 754 -285 Q718 -230 745 -135 L813 119 Q664 -20 492 -20 Q320 -20 201 106 Q82 232 82 451 Q82 736 265 927 Z" /><glyph glyph-name="r" unicode="r" d="M795 1110 Q856 1110 892 1073 Q928 1036 928 971 Q928 850 793 811 Q643 768 551 669 Q459 570 410 389 L342 145 Q300 -12 158 -12 Q88 -12 52 43 Q16 98 43 193 L248 952 Q290 1110 429 1110 Q498 1110 534 1059 Q570 1008 549 924 L543 899 Q654 1110 795 1110 Z" /><glyph glyph-name="s" unicode="s" d="M174 322 Q314 213 456 213 Q598 213 598 309 Q598 356 471 412 Q225 516 175 621 Q151 670 152 733 Q152 901 271 1010 Q392 1118 584 1118 Q776 1118 942 1020 Q1014 978 1014 914 Q1014 850 976 811 Q938 772 894 772 Q850 772 803 803 Q684 881 569 881 Q512 881 480 856 Q448 831 448 794 Q448 756 484 732 Q518 708 590 676 Q822 571 870 473 Q895 424 895 362 Q895 184 769 80 Q643 -24 428 -24 Q213 -24 23 113 Q-32 152 -32 212 Q-32 272 4 311 Q41 350 89 350 Q137 350 174 322 Z" /><glyph glyph-name="t" unicode="t" d="M754 1098 Q807 1098 845 1060 Q883 1022 883 965 Q883 908 845 870 Q807 832 754 831 L578 831 L455 371 Q447 338 446 322 Q446 256 524 256 L549 256 Q598 256 629 225 Q660 194 659 139 Q660 47 584 14 Q508 -18 383 -18 Q258 -18 185 41 Q112 100 113 197 Q113 252 133 334 L266 831 Q221 837 186 872 Q152 906 152 964 Q152 1022 189 1060 Q227 1098 281 1098 L338 1098 L375 1233 Q417 1391 558 1391 Q629 1392 665 1336 Q701 1280 674 1186 L649 1098 L754 1098 Z" /><glyph glyph-name="u" unicode="u" d="M959 28 Q912 -12 846 -12 Q780 -12 743 24 Q706 60 707 115 Q555 -20 408 -20 Q261 -20 172 66 Q84 152 84 299 Q84 369 121 508 L240 952 Q282 1110 423 1110 Q494 1110 530 1055 Q566 1000 539 905 L428 496 Q414 443 414 397 Q414 262 565 262 Q656 262 716 320 Q776 378 803 481 L930 952 Q972 1110 1113 1110 Q1184 1110 1220 1055 Q1256 1000 1229 905 L1026 145 Q1006 68 959 28 Z" /><glyph glyph-name="v" unicode="v" d="M449 -20 Q314 -20 293 119 L172 893 Q166 928 166 978 Q166 1028 214 1069 Q262 1110 327 1110 Q392 1110 434 1075 Q476 1040 481 979 L543 367 L950 1012 Q1011 1110 1112 1110 Q1173 1110 1208 1078 Q1244 1046 1244 995 Q1244 944 1219 909 L664 106 Q616 38 570 8 Q524 -22 457 -20 L449 -20 Z" /><glyph glyph-name="w" unicode="w" d="M166 965 Q166 1024 215 1067 Q264 1110 329 1110 Q394 1110 436 1075 Q478 1040 481 979 L496 432 L815 987 Q887 1112 997 1112 L1014 1112 Q1075 1112 1113 1079 Q1151 1046 1153 987 L1178 430 L1513 1018 Q1566 1110 1659 1110 Q1718 1110 1751 1079 Q1784 1048 1784 999 Q1784 950 1759 909 L1278 106 Q1202 -21 1075 -20 L1065 -20 Q930 -20 924 119 L897 666 L569 106 Q495 -21 367 -20 L356 -20 Q221 -20 215 119 L170 891 Q166 936 166 965 Z" /><glyph glyph-name="x" unicode="x" d="M995 1099 Q1026 1114 1069 1114 Q1112 1114 1148 1080 Q1184 1046 1184 980 Q1184 914 1112 852 L770 545 L954 248 Q993 185 993 124 Q993 62 951 22 Q909 -18 842 -18 Q746 -18 686 98 L555 344 L266 63 Q242 39 234 33 Q226 27 204 11 Q169 -16 117 -16 Q64 -16 29 18 Q-6 52 -6 118 Q-6 182 63 246 L424 567 L246 848 Q207 906 207 968 Q207 1030 247 1072 Q287 1114 348 1114 Q409 1114 445 1086 Q481 1058 514 997 L639 768 L909 1034 Q963 1085 995 1099 Z" /><glyph glyph-name="y" unicode="y" d="M233 1068 Q278 1110 342 1110 Q406 1110 450 1074 Q494 1038 496 977 L559 344 L944 1012 Q997 1110 1102 1110 Q1163 1110 1200 1077 Q1237 1044 1237 996 Q1237 948 1196 883 L627 -27 Q522 -194 420 -264 Q318 -334 201 -334 Q84 -334 35 -311 Q-59 -270 -59 -176 Q-59 -121 -23 -81 Q14 -41 63 -41 Q74 -41 131 -56 Q188 -71 219 -72 Q276 -72 326 -6 L195 891 Q188 926 188 976 Q188 1026 233 1068 Z" /><glyph glyph-name="z" unicode="z" d="M338 1098 L1022 1098 Q1088 1098 1124 1067 Q1160 1036 1161 983 L1161 981 Q1161 907 1085 842 L408 252 L817 252 Q868 252 906 214 Q944 176 944 125 Q944 74 907 37 Q870 0 817 0 L111 0 Q45 0 8 31 Q-29 62 -29 115 L-29 117 Q-29 191 47 256 L723 846 L338 846 Q285 846 248 883 Q211 920 211 972 Q211 1024 249 1061 Q287 1098 338 1098 Z" /><glyph glyph-name="braceleft" unicode="{" d="M227 707 L233 707 Q372 707 430 772 Q487 838 512 1038 Q537 1238 656 1341 Q776 1443 991 1460 Q1128 1468 1128 1354 Q1128 1262 1032 1245 Q897 1220 846 1156 Q795 1092 778 946 Q756 741 680 660 Q604 579 444 563 Q528 551 573 502 Q618 454 618 386 Q618 318 582 224 Q546 130 547 86 Q547 3 592 -29 Q608 -41 637 -57 Q709 -94 709 -158 Q709 -222 667 -256 Q625 -289 565 -274 Q402 -234 326 -164 Q250 -94 250 25 Q250 93 287 190 Q324 287 324 343 Q324 399 306 425 Q288 451 233 465 Q100 494 100 588 Q100 639 136 673 Q172 707 227 707 Z" /><glyph glyph-name="bar" unicode="|" d="M270 -152 L270 1524 Q270 1575 306 1611 Q342 1647 393 1647 Q444 1647 480 1611 Q516 1575 516 1524 L516 -152 Q516 -203 480 -239 Q444 -274 393 -274 Q342 -274 306 -238 Q270 -202 270 -152 Z" /><glyph glyph-name="braceright" unicode="}" d="M797 469 L791 469 Q652 469 594 403 Q536 337 512 137 Q487 -63 368 -166 Q248 -268 33 -285 Q-104 -293 -104 -178 Q-104 -86 -8 -70 Q127 -44 178 20 Q229 84 246 229 Q269 434 344 515 Q420 596 580 612 Q496 624 451 674 Q406 724 406 790 Q406 858 442 951 Q478 1044 477 1090 Q477 1173 432 1204 Q416 1216 387 1233 Q315 1270 315 1334 Q315 1398 357 1432 Q399 1466 459 1450 Q622 1411 698 1340 Q774 1269 774 1151 Q774 1083 737 986 Q700 888 700 832 Q700 776 718 750 Q736 724 791 711 Q924 682 924 588 Q924 537 888 503 Q852 469 797 469 Z" /><glyph glyph-name="asciitilde" unicode="~" d="M690 459 Q612 459 533 515 Q454 571 408 571 Q362 571 316 515 Q268 459 224 459 Q180 458 156 482 Q132 506 131 539 Q131 572 147 600 Q262 805 426 805 Q508 804 585 748 Q662 692 696 692 Q753 692 807 758 Q848 805 892 805 Q936 805 961 781 Q1009 735 969 664 Q854 459 690 459 Z" /><glyph glyph-name="nonbreakingspace" unicode=" " d="" /><glyph glyph-name="exclamdown" unicode="¡" d="M634 1141 Q580 1094 501 1094 Q422 1094 379 1142 Q336 1190 349 1270 Q362 1350 418 1398 Q474 1446 552 1446 Q631 1446 677 1395 Q723 1344 702 1264 Q688 1188 634 1141 ZM281 -6 L94 -6 Q53 -6 36 24 Q19 54 35 98 L328 881 Q359 959 430 958 Q473 958 496 932 Q519 906 510 858 L387 98 Q379 54 350 24 Q321 -6 281 -6 Z" /><glyph glyph-name="cent" unicode="¢" d="M440 676 Q440 549 526 477 L743 1030 Q612 1016 526 910 Q440 804 440 676 ZM700 156 Q651 156 606 162 L573 78 Q534 -24 457 -25 Q404 -25 377 14 Q350 53 375 113 L414 213 Q281 274 208 392 Q135 510 135 668 Q134 936 322 1117 Q510 1298 784 1298 Q819 1298 838 1296 L860 1356 Q903 1458 979 1458 Q1032 1458 1058 1420 Q1084 1382 1059 1321 L1032 1253 Q1128 1210 1186 1152 Q1244 1094 1245 1032 Q1245 970 1202 929 Q1159 887 1098 887 Q1038 887 1000 927 Q962 967 922 993 L698 422 Q790 424 865 462 Q940 500 988 500 Q1036 500 1070 463 Q1104 426 1104 358 Q1104 290 1038 250 Q886 156 700 156 Z" /><glyph glyph-name="sterling" unicode="£" d="M930 1163 Q758 1163 698 946 L659 807 L979 807 Q1032 807 1071 768 Q1110 729 1110 676 Q1110 623 1071 585 Q1032 547 979 547 L592 547 L518 272 L979 272 Q1036 272 1076 232 Q1116 192 1116 135 Q1116 78 1076 39 Q1036 0 979 0 L121 0 Q66 0 30 33 Q-6 66 -6 115 Q-6 205 98 238 L203 270 L276 547 L274 547 Q221 547 182 585 Q143 623 143 676 Q143 729 182 768 Q221 807 274 807 L346 807 L397 999 Q518 1454 944 1454 Q1159 1454 1282 1337 Q1348 1276 1348 1209 Q1348 1142 1304 1096 Q1260 1050 1196 1051 Q1132 1051 1087 1096 Q1020 1163 930 1163 Z" /><glyph glyph-name="yen" unicode="¥" d="M1225 1358 Q1307 1448 1372 1448 Q1437 1448 1471 1413 Q1505 1378 1505 1317 Q1505 1256 1448 1194 L1014 758 L1184 758 Q1229 758 1262 725 Q1294 692 1294 647 Q1294 602 1262 569 Q1230 536 1184 537 L874 537 L842 410 L1092 410 Q1138 410 1170 377 Q1202 344 1202 299 Q1202 254 1170 221 Q1138 188 1092 188 L782 188 L770 145 Q750 72 704 30 Q658 -12 590 -12 Q522 -12 488 37 Q454 86 479 188 L229 188 Q184 188 152 221 Q120 254 119 299 Q119 344 152 377 Q185 410 229 410 L539 410 L571 537 L322 537 Q275 538 243 570 Q211 602 211 647 Q211 692 243 725 Q275 758 322 758 L547 758 L358 1178 Q325 1258 326 1294 Q326 1360 371 1403 Q416 1446 483 1446 Q594 1446 633 1346 L803 903 L1225 1358 Z" /><glyph glyph-name="section" unicode="§" d="M596 215 Q662 215 700 237 Q738 258 739 292 Q739 326 696 348 Q653 370 511 409 Q369 447 257 509 Q145 572 145 685 Q145 908 424 967 Q350 1037 350 1137 Q350 1276 481 1367 Q612 1458 821 1458 Q1030 1458 1186 1356 Q1249 1314 1249 1252 Q1249 1190 1211 1153 Q1173 1116 1125 1116 Q1077 1116 1044 1139 Q909 1225 797 1225 Q727 1225 687 1203 Q647 1182 647 1148 Q647 1114 690 1092 Q733 1070 879 1030 Q1025 991 1104 946 Q1183 901 1212 854 Q1241 807 1241 743 Q1241 641 1170 571 Q1099 501 963 473 Q1037 403 1036 303 Q1036 164 906 73 Q776 -18 580 -18 Q320 -18 154 117 Q104 158 104 216 Q104 274 141 312 Q178 350 228 350 Q278 350 315 322 Q451 215 596 215 ZM636 626 Q754 590 812 590 Q870 590 910 618 Q950 646 950 688 Q950 729 909 754 Q868 778 750 814 Q632 850 574 850 Q516 850 476 821 Q436 792 436 752 Q436 712 477 686 Q518 662 636 626 Z" /><glyph glyph-name="dieresis" unicode="¨" d="M918 1206 Q848 1206 808 1249 Q768 1292 784 1360 Q800 1428 852 1468 Q904 1508 972 1507 Q1040 1507 1080 1464 Q1120 1421 1108 1362 Q1068 1206 918 1206 ZM480 1206 Q409 1206 370 1249 Q331 1292 346 1360 Q362 1428 414 1468 Q466 1508 534 1507 Q602 1507 642 1464 Q682 1421 670 1362 Q631 1206 480 1206 Z" /><glyph glyph-name="copyright" unicode="©" d="M1192 428 Q1071 319 900 319 Q729 319 613 436 Q497 553 498 723 L498 727 Q498 897 613 1016 Q729 1135 897 1135 Q1065 1135 1174 1053 Q1212 1024 1212 983 Q1212 942 1186 916 Q1160 890 1129 890 Q1097 890 1069 913 Q993 970 902 970 Q811 970 746 900 Q681 829 682 729 L682 725 Q682 625 745 554 Q808 483 904 483 Q1000 483 1081 551 Q1106 571 1137 571 Q1168 572 1194 546 Q1220 520 1219 485 Q1219 450 1192 428 ZM425 248 Q612 57 891 57 Q1170 57 1359 250 Q1548 443 1548 717 L1548 721 Q1548 996 1361 1186 Q1174 1376 895 1376 Q616 1376 427 1184 Q238 992 238 717 L238 713 Q238 439 425 248 ZM891 -25 Q582 -25 367 191 Q152 407 152 713 L152 717 Q152 1022 369 1240 Q586 1458 895 1458 Q1204 1458 1419 1242 Q1634 1026 1634 721 L1634 717 Q1634 412 1417 194 Q1200 -24 891 -25 Z" /><glyph glyph-name="ordfeminine" unicode="ª" d="M379 1008 Q379 936 466 936 Q510 936 554 972 Q598 1008 614 1075 Q481 1122 413 1070 Q379 1044 379 1008 ZM166 567 Q139 566 119 586 Q99 606 98 635 Q98 664 118 683 Q138 702 166 702 L625 702 Q652 702 672 683 Q692 664 692 635 Q692 606 672 587 Q652 568 625 567 L166 567 ZM535 1296 Q490 1296 446 1286 Q402 1276 395 1276 Q334 1276 334 1341 Q334 1394 389 1415 Q469 1442 571 1442 Q815 1442 815 1255 Q815 1208 803 1165 L733 909 Q710 823 637 823 Q598 823 580 846 Q562 869 565 901 Q487 819 397 819 Q307 819 258 864 Q209 909 209 996 Q209 1084 283 1142 Q357 1200 456 1200 Q555 1200 641 1171 Q651 1209 651 1221 Q652 1296 535 1296 Z" /><glyph glyph-name="guillemotleft" unicode="«" d="M1168 993 Q1220 992 1252 962 Q1284 932 1284 878 Q1284 824 1241 784 L942 502 L1065 268 Q1085 227 1085 181 Q1086 135 1048 99 Q1010 63 954 63 Q872 63 834 139 L694 416 Q661 482 662 506 Q661 553 702 590 L1049 932 Q1116 993 1168 993 ZM614 993 Q666 992 699 962 Q731 932 731 878 Q731 824 688 784 L389 502 L512 268 Q532 227 532 181 Q532 135 494 99 Q456 63 401 63 Q319 63 281 139 L141 416 Q108 482 108 518 Q108 554 150 590 L496 932 Q562 993 614 993 Z" /><glyph glyph-name="registered" unicode="®" d="M481 1110 L549 1110 Q606 1110 606 1155 Q606 1200 549 1200 L481 1200 L481 1110 ZM375 958 L375 1237 Q375 1258 390 1274 Q405 1290 428 1290 L555 1290 Q713 1290 713 1161 Q713 1081 643 1049 L690 993 Q704 976 704 956 Q704 936 690 921 Q674 906 650 906 Q626 906 610 926 L530 1026 L481 1026 L481 958 Q481 938 466 922 Q451 906 428 906 Q405 906 390 922 Q375 938 375 958 ZM306 870 Q397 776 530 776 Q663 776 755 870 Q846 964 846 1096 L846 1098 Q846 1229 755 1322 Q664 1415 530 1415 Q396 1415 306 1321 Q215 1227 215 1096 L215 1094 Q215 964 306 870 ZM528 737 Q380 738 278 842 Q176 946 174 1094 L174 1096 Q174 1242 278 1348 Q382 1454 532 1454 Q680 1454 783 1350 Q886 1246 887 1098 L887 1096 Q887 949 782 843 Q676 737 528 737 Z" /><glyph glyph-name="macron" unicode="¯" d="M995 1229 L451 1229 Q406 1229 374 1260 Q342 1292 342 1336 Q342 1380 374 1412 Q406 1444 451 1444 L995 1444 Q1040 1444 1072 1412 Q1104 1380 1104 1335 Q1104 1290 1072 1260 Q1040 1230 995 1229 Z" /><glyph glyph-name="degree" unicode="°" d="M404 948 Q446 903 524 903 Q602 903 660 974 Q718 1046 718 1124 Q718 1202 677 1247 Q635 1292 557 1292 Q479 1292 421 1222 Q362 1152 362 1072 Q362 993 404 948 ZM901 1128 Q900 980 786 862 Q672 743 516 743 Q360 743 270 831 Q180 919 180 1067 Q180 1216 295 1334 Q410 1452 566 1452 Q722 1452 811 1364 Q901 1276 901 1128 Z" /><glyph glyph-name="plusminus" unicode="±" d="M164 0 Q111 0 73 38 Q35 76 35 129 Q35 182 73 220 Q111 258 164 258 L922 258 Q975 258 1013 220 Q1051 182 1051 129 Q1051 76 1013 38 Q975 0 922 0 L164 0 ZM736 454 Q692 414 632 414 Q572 414 540 462 Q508 510 532 600 L578 778 L377 778 Q322 778 283 817 Q244 856 244 911 Q244 966 283 1006 Q322 1046 377 1044 L651 1044 L707 1255 Q727 1325 770 1365 Q814 1405 874 1405 Q934 1405 966 1357 Q998 1309 973 1219 L928 1044 L1128 1044 Q1183 1044 1223 1006 Q1262 968 1262 912 Q1262 856 1223 817 Q1184 778 1128 778 L854 778 L799 563 Q780 494 736 454 Z" /><glyph glyph-name="acute" unicode="´" d="M762 1274 Q672 1206 583 1206 Q494 1206 494 1264 Q494 1293 520 1321 L676 1493 Q740 1561 796 1561 Q852 1561 909 1530 Q966 1498 966 1462 Q966 1426 922 1393 L762 1274 Z" /><glyph glyph-name="paragraph" unicode="¶" d="M881 30 Q834 -12 763 -12 Q692 -12 656 43 Q620 98 645 193 L709 434 Q455 438 316 547 Q178 656 178 868 Q178 1118 362 1276 Q546 1434 901 1434 L1122 1434 Q1194 1434 1230 1386 Q1266 1338 1249 1276 L948 145 Q928 72 881 30 Z" /><glyph glyph-name="periodcentered" unicode="·" d="M449 507 Q394 459 314 459 Q234 459 192 507 Q149 555 164 636 Q178 717 232 764 Q286 811 366 811 Q446 811 488 763 Q531 715 517 635 Q504 555 449 507 Z" /><glyph glyph-name="cedilla" unicode="¸" d="M375 -276 Q332 -342 278 -342 Q224 -342 176 -309 Q129 -276 129 -240 Q129 -204 160 -172 L344 20 L573 20 L375 -276 Z" /><glyph glyph-name="ordmasculine" unicode="º" d="M168 567 Q139 566 120 586 Q101 606 100 635 Q100 664 120 683 Q140 702 168 702 L647 702 Q676 702 695 683 Q714 664 714 635 Q714 606 696 587 Q676 568 647 567 L168 567 ZM430 1237 Q381 1176 381 1108 Q381 1040 417 1002 Q454 963 520 963 Q586 963 635 1024 Q684 1084 684 1152 Q684 1220 648 1260 Q612 1300 546 1298 Q480 1298 430 1237 ZM772 1366 Q852 1288 852 1157 Q852 1026 750 922 Q648 818 511 817 Q373 817 293 895 Q213 973 213 1104 Q213 1235 314 1339 Q416 1444 554 1444 Q692 1444 772 1366 Z" /><glyph glyph-name="guillemotright" unicode="»" d="M262 145 Q196 84 143 84 Q90 84 58 115 Q26 146 26 200 Q26 254 70 293 L369 575 L246 809 Q195 914 263 978 Q301 1014 356 1014 Q438 1014 477 938 L616 662 Q649 596 649 560 Q649 524 608 487 L262 145 ZM815 145 Q749 84 696 84 Q643 84 611 115 Q580 146 580 200 Q580 254 623 293 L922 575 L799 809 Q748 914 816 978 Q854 1014 909 1014 Q991 1014 1030 938 L1169 662 Q1202 596 1202 560 Q1202 524 1161 487 L815 145 Z" /><glyph glyph-name="questiondown" unicode="¿" d="M927 1141 Q873 1094 794 1094 Q715 1094 672 1142 Q629 1190 642 1270 Q654 1350 710 1398 Q766 1446 845 1446 Q924 1446 967 1398 Q1010 1350 995 1269 Q981 1188 927 1141 ZM736 317 Q826 365 872 365 Q918 365 955 327 Q991 289 991 242 Q991 162 922 111 Q744 -18 520 -18 Q296 -18 173 92 Q49 202 49 368 Q49 534 182 649 Q315 764 573 803 L596 858 Q614 903 649 931 Q684 959 727 958 L743 958 Q788 958 812 930 Q836 902 829 852 L811 696 Q805 646 774 624 Q743 602 643 587 Q543 572 461 522 Q379 472 379 395 Q379 268 549 268 Q646 269 736 317 Z" /><glyph glyph-name="Agrave" unicode="à" d="M811 1741 Q782 1780 782 1812 Q782 1844 838 1876 Q894 1909 954 1909 Q1036 1909 1063 1833 L1124 1665 Q1132 1640 1133 1622 Q1133 1554 1034 1554 Q990 1554 964 1568 Q938 1582 905 1622 L811 1741 ZM1411 139 Q1411 76 1365 32 Q1318 -12 1252 -12 Q1186 -12 1145 23 Q1104 58 1096 113 L1063 322 L428 322 L264 86 Q194 -12 104 -12 Q43 -12 9 22 Q-25 56 -25 111 Q-25 166 12 215 L809 1333 Q895 1456 1030 1456 L1036 1456 Q1181 1457 1208 1307 L1401 221 Q1411 149 1411 139 ZM621 600 L1018 600 L944 1073 L621 600 Z" /><glyph glyph-name="Aacute" unicode="á" d="M1278 1622 Q1188 1554 1099 1554 Q1010 1554 1010 1612 Q1010 1641 1036 1669 L1192 1841 Q1256 1909 1312 1909 Q1368 1909 1425 1878 Q1482 1846 1482 1810 Q1482 1774 1438 1741 L1278 1622 ZM1411 139 Q1411 76 1365 32 Q1318 -12 1252 -12 Q1186 -12 1145 23 Q1104 58 1096 113 L1063 322 L428 322 L264 86 Q194 -12 104 -12 Q43 -12 9 22 Q-25 56 -25 111 Q-25 166 12 215 L809 1333 Q895 1456 1030 1456 L1036 1456 Q1181 1457 1208 1307 L1401 221 Q1411 149 1411 139 ZM621 600 L1018 600 L944 1073 L621 600 Z" /><glyph glyph-name="Acircumflex" unicode="â" d="M1432 1604 Q1432 1554 1366 1554 Q1300 1554 1261 1566 Q1223 1578 1182 1622 L1108 1702 L991 1622 Q893 1554 797 1554 Q731 1554 731 1602 Q731 1633 766 1667 L934 1829 Q1004 1899 1094 1898 L1184 1898 Q1288 1899 1327 1821 L1405 1669 Q1432 1622 1432 1604 ZM1411 139 Q1411 76 1365 32 Q1318 -12 1252 -12 Q1186 -12 1145 23 Q1104 58 1096 113 L1063 322 L428 322 L264 86 Q194 -12 104 -12 Q43 -12 9 22 Q-25 56 -25 111 Q-25 166 12 215 L809 1333 Q895 1456 1030 1456 L1036 1456 Q1181 1457 1208 1307 L1401 221 Q1411 149 1411 139 ZM621 600 L1018 600 L944 1073 L621 600 Z" /><glyph glyph-name="Atilde" unicode="ã" d="M1082 1617 Q1004 1673 958 1673 Q912 1673 864 1617 Q816 1561 773 1561 Q728 1560 704 1584 Q680 1608 680 1640 Q680 1672 696 1702 Q811 1907 975 1907 Q1057 1906 1134 1850 Q1211 1794 1245 1794 Q1302 1794 1356 1860 Q1397 1907 1441 1907 Q1486 1907 1510 1883 Q1534 1858 1534 1826 Q1534 1794 1518 1765 Q1403 1560 1239 1561 Q1161 1561 1082 1617 ZM1411 139 Q1411 76 1365 32 Q1318 -12 1252 -12 Q1186 -12 1145 23 Q1104 58 1096 113 L1063 322 L428 322 L264 86 Q194 -12 104 -12 Q43 -12 9 22 Q-25 56 -25 111 Q-25 166 12 215 L809 1333 Q895 1456 1030 1456 L1036 1456 Q1181 1457 1208 1307 L1401 221 Q1411 149 1411 139 ZM621 600 L1018 600 L944 1073 L621 600 Z" /><glyph glyph-name="Adieresis" unicode="ä" d="M1299 1554 Q1228 1554 1189 1597 Q1150 1640 1165 1708 Q1180 1776 1232 1816 Q1284 1856 1353 1856 Q1422 1856 1462 1812 Q1502 1769 1489 1710 Q1450 1554 1299 1554 ZM861 1554 Q790 1554 751 1597 Q712 1640 727 1708 Q742 1776 794 1816 Q846 1856 914 1856 Q982 1856 1023 1812 Q1063 1769 1051 1710 Q1012 1554 861 1554 ZM1411 139 Q1411 76 1365 32 Q1318 -12 1252 -12 Q1186 -12 1145 23 Q1104 58 1096 113 L1063 322 L428 322 L264 86 Q194 -12 104 -12 Q43 -12 9 22 Q-25 56 -25 111 Q-25 166 12 215 L809 1333 Q895 1456 1030 1456 L1036 1456 Q1181 1457 1208 1307 L1401 221 Q1411 149 1411 139 ZM621 600 L1018 600 L944 1073 L621 600 Z" /><glyph glyph-name="Aring" unicode="å" d="M1182 1612 Q1182 1724 1075 1724 Q1022 1724 983 1676 Q944 1628 944 1574 Q944 1462 1050 1462 Q1103 1462 1143 1510 Q1182 1558 1182 1612 ZM621 600 L1018 600 L944 1073 L621 600 ZM104 -12 Q43 -12 9 22 Q-25 56 -25 111 Q-25 166 12 215 L868 1415 Q813 1470 813 1573 Q813 1676 893 1756 Q973 1836 1081 1837 Q1188 1837 1250 1777 Q1312 1717 1313 1624 Q1313 1477 1192 1397 L1401 221 Q1411 149 1411 139 Q1411 76 1365 32 Q1318 -12 1252 -12 Q1186 -12 1145 23 Q1104 58 1096 113 L1063 322 L428 322 L264 86 Q194 -12 104 -12 Z" /><glyph glyph-name="AE" unicode="æ" d="M138 -12 Q6 -12 6 105 Q6 161 53 221 L940 1319 Q1032 1434 1149 1434 L2118 1434 Q2175 1434 2217 1393 Q2259 1352 2259 1294 Q2259 1236 2218 1194 Q2177 1153 2118 1153 L1493 1153 L1415 860 L1872 860 Q1931 860 1972 819 Q2013 778 2013 721 Q2013 664 1972 624 Q1931 584 1872 584 L1339 584 L1257 281 L1819 281 Q1876 281 1918 239 Q1960 198 1960 140 Q1960 82 1919 41 Q1878 0 1819 0 L1051 0 Q971 0 934 55 Q897 110 924 205 L956 322 L473 322 L279 78 Q206 -12 138 -12 ZM696 600 L1032 600 L1182 1161 L1143 1161 L696 600 Z" /><glyph glyph-name="Ccedilla" unicode="ç" d="M813 -25 L795 -25 L627 -276 Q584 -342 530 -342 Q476 -342 428 -309 Q381 -276 381 -240 Q381 -204 412 -172 L582 6 Q377 65 257 221 Q137 377 137 600 Q137 946 394 1202 Q651 1458 1010 1458 Q1293 1458 1483 1282 Q1548 1221 1548 1151 Q1548 1081 1501 1033 Q1454 985 1384 985 Q1314 984 1264 1042 Q1214 1100 1145 1134 Q1077 1168 971 1167 Q772 1167 618 1002 Q464 837 465 612 Q465 458 563 362 Q661 266 815 266 Q897 266 950 286 Q1002 306 1072 351 Q1142 395 1198 395 Q1254 395 1294 351 Q1335 308 1335 242 Q1335 176 1280 129 Q1198 59 1073 17 Q948 -25 813 -25 Z" /><glyph glyph-name="Egrave" unicode="è" d="M686 1791 Q686 1824 742 1856 Q798 1888 858 1888 Q940 1888 967 1812 L1028 1645 Q1036 1620 1036 1602 Q1036 1534 938 1534 Q894 1534 868 1548 Q842 1562 809 1602 L715 1720 Q686 1759 686 1791 ZM1014 0 L207 0 Q127 0 91 55 Q55 110 80 205 L367 1276 Q387 1350 434 1392 Q481 1434 543 1434 L1313 1434 Q1372 1434 1413 1393 Q1454 1352 1454 1294 Q1454 1236 1413 1194 Q1372 1153 1313 1153 L647 1153 L569 860 L1067 860 Q1126 860 1167 819 Q1208 778 1208 721 Q1208 664 1167 624 Q1126 584 1067 584 L494 584 L412 281 L1014 281 Q1073 281 1114 239 Q1155 198 1155 140 Q1155 82 1114 41 Q1073 0 1014 0 Z" /><glyph glyph-name="Eacute" unicode="é" d="M1182 1602 Q1092 1534 1002 1534 Q912 1534 913 1591 Q913 1620 940 1649 L1096 1821 Q1159 1888 1215 1888 Q1271 1888 1329 1858 Q1386 1827 1386 1790 Q1386 1753 1341 1720 L1182 1602 ZM1014 0 L207 0 Q127 0 91 55 Q55 110 80 205 L367 1276 Q387 1350 434 1392 Q481 1434 543 1434 L1313 1434 Q1372 1434 1413 1393 Q1454 1352 1454 1294 Q1454 1236 1413 1194 Q1372 1153 1313 1153 L647 1153 L569 860 L1067 860 Q1126 860 1167 819 Q1208 778 1208 721 Q1208 664 1167 624 Q1126 584 1067 584 L494 584 L412 281 L1014 281 Q1073 281 1114 239 Q1155 198 1155 140 Q1155 82 1114 41 Q1073 0 1014 0 Z" /><glyph glyph-name="Ecircumflex" unicode="ê" d="M1267 1534 Q1200 1534 1162 1545 Q1124 1556 1083 1602 L1010 1681 L893 1602 Q795 1534 698 1534 Q632 1534 633 1581 Q633 1612 668 1647 L836 1808 Q906 1878 995 1878 L1085 1878 Q1190 1878 1229 1800 L1307 1649 Q1334 1602 1333 1583 Q1333 1534 1267 1534 ZM1014 0 L207 0 Q127 0 91 55 Q55 110 80 205 L367 1276 Q387 1350 434 1392 Q481 1434 543 1434 L1313 1434 Q1372 1434 1413 1393 Q1454 1352 1454 1294 Q1454 1236 1413 1194 Q1372 1153 1313 1153 L647 1153 L569 860 L1067 860 Q1126 860 1167 819 Q1208 778 1208 721 Q1208 664 1167 624 Q1126 584 1067 584 L494 584 L412 281 L1014 281 Q1073 281 1114 239 Q1155 198 1155 140 Q1155 82 1114 41 Q1073 0 1014 0 Z" /><glyph glyph-name="Edieresis" unicode="ë" d="M1323 1573 Q1272 1534 1201 1534 Q1130 1534 1092 1576 Q1054 1618 1068 1687 Q1082 1756 1134 1796 Q1186 1836 1254 1835 Q1322 1835 1363 1792 Q1403 1749 1388 1680 Q1373 1611 1323 1573 ZM884 1573 Q834 1534 763 1534 Q692 1534 653 1576 Q614 1618 630 1687 Q645 1756 696 1796 Q747 1836 816 1835 Q885 1835 925 1792 Q965 1749 950 1680 Q935 1611 884 1573 ZM1014 0 L207 0 Q127 0 91 55 Q55 110 80 205 L367 1276 Q387 1350 434 1392 Q481 1434 543 1434 L1313 1434 Q1372 1434 1413 1393 Q1454 1352 1454 1294 Q1454 1236 1413 1194 Q1372 1153 1313 1153 L647 1153 L569 860 L1067 860 Q1126 860 1167 819 Q1208 778 1208 721 Q1208 664 1167 624 Q1126 584 1067 584 L494 584 L412 281 L1014 281 Q1073 281 1114 239 Q1155 198 1155 140 Q1155 82 1114 41 Q1073 0 1014 0 Z" /><glyph glyph-name="Igrave" unicode="ì" d="M496 1888 Q578 1888 604 1812 L666 1645 Q674 1620 674 1602 Q674 1534 575 1534 Q530 1534 504 1548 Q478 1562 446 1602 L352 1720 Q324 1759 324 1791 Q324 1824 380 1856 Q436 1888 496 1888 ZM326 30 Q279 -12 208 -12 Q137 -12 101 43 Q65 98 90 193 L385 1288 Q404 1362 452 1404 Q500 1446 570 1446 Q640 1446 677 1390 Q713 1334 688 1241 L393 145 Q373 72 326 30 Z" /><glyph glyph-name="Iacute" unicode="í" d="M819 1602 Q729 1534 640 1534 Q551 1534 551 1591 Q551 1620 578 1649 L733 1821 Q796 1888 852 1888 Q908 1888 967 1858 Q1024 1827 1024 1790 Q1024 1753 979 1720 L819 1602 ZM326 30 Q279 -12 208 -12 Q137 -12 101 43 Q65 98 90 193 L385 1288 Q404 1362 452 1404 Q500 1446 570 1446 Q640 1446 677 1390 Q713 1334 688 1241 L393 145 Q373 72 326 30 Z" /><glyph glyph-name="Icircumflex" unicode="î" d="M971 1583 Q970 1534 904 1534 Q838 1534 800 1545 Q762 1556 721 1602 L647 1681 L530 1602 Q432 1534 336 1534 Q270 1534 270 1581 Q270 1612 305 1647 L473 1808 Q543 1878 633 1878 L723 1878 Q827 1878 866 1800 L944 1649 Q971 1602 971 1583 ZM326 30 Q279 -12 208 -12 Q137 -12 101 43 Q65 98 90 193 L385 1288 Q404 1362 452 1404 Q500 1446 570 1446 Q640 1446 677 1390 Q713 1334 688 1241 L393 145 Q373 72 326 30 Z" /><glyph glyph-name="Idieresis" unicode="ï" d="M894 1835 Q962 1835 1002 1792 Q1042 1749 1027 1680 Q1012 1611 962 1573 Q912 1534 841 1534 Q770 1534 731 1576 Q692 1618 708 1687 Q724 1756 774 1796 Q825 1835 894 1835 ZM402 1534 Q330 1534 292 1576 Q254 1618 269 1687 Q284 1756 336 1796 Q387 1835 456 1835 Q524 1835 564 1792 Q604 1749 589 1680 Q574 1611 524 1573 Q473 1534 402 1534 ZM326 30 Q279 -12 208 -12 Q137 -12 101 43 Q65 98 90 193 L385 1288 Q404 1362 452 1404 Q500 1446 570 1446 Q640 1446 677 1390 Q713 1334 688 1241 L393 145 Q373 72 326 30 Z" /><glyph glyph-name="Eth" unicode="ð" d="M635 285 Q940 285 1114 459 Q1257 602 1257 817 Q1257 960 1174 1044 Q1070 1148 844 1149 L690 1149 L612 860 L737 860 Q794 860 836 819 Q878 778 877 721 Q877 664 836 623 Q795 582 737 582 L537 582 L457 285 L635 285 ZM584 1434 L868 1434 Q1245 1434 1430 1249 Q1586 1093 1585 829 Q1585 499 1350 264 Q1086 0 598 0 L248 0 Q168 0 132 55 Q96 110 121 205 L221 582 L215 582 Q156 582 116 623 Q76 664 76 721 Q76 778 116 819 Q156 860 215 860 L297 860 L408 1276 Q428 1350 475 1392 Q523 1434 584 1434 Z" /><glyph glyph-name="Ntilde" unicode="ñ" d="M775 1540 Q730 1540 706 1564 Q682 1588 682 1620 Q682 1652 698 1681 Q813 1886 977 1886 Q1059 1886 1136 1830 Q1212 1774 1258 1774 Q1304 1774 1352 1830 Q1400 1886 1443 1886 Q1488 1886 1512 1862 Q1536 1838 1536 1806 Q1536 1773 1520 1745 Q1405 1540 1241 1540 Q1163 1540 1084 1596 Q1005 1652 971 1653 Q914 1653 860 1587 Q819 1540 775 1540 ZM1508 1446 Q1578 1446 1615 1391 Q1651 1336 1624 1241 L1327 139 Q1288 -8 1157 -8 L1151 -8 Q1079 -8 1039 20 Q999 48 971 111 L588 940 L375 145 Q334 -12 192 -12 Q122 -12 85 43 Q49 98 76 193 L369 1284 Q410 1442 555 1442 L569 1442 Q698 1442 754 1317 L1118 522 L1325 1288 Q1366 1446 1508 1446 Z" /><glyph glyph-name="Ograve" unicode="ò" d="M821 1812 Q822 1844 878 1876 Q934 1909 993 1909 Q1075 1909 1102 1833 L1163 1665 Q1171 1640 1171 1622 Q1171 1554 1073 1554 Q1028 1554 1002 1568 Q976 1582 944 1622 L850 1741 Q821 1780 821 1812 ZM829 266 Q1044 266 1186 435 Q1327 604 1327 786 Q1327 968 1231 1067 Q1135 1167 963 1167 Q748 1167 606 998 Q464 829 465 648 Q465 466 561 366 Q657 266 829 266 ZM793 -25 Q500 -24 318 156 Q136 336 137 610 Q137 825 244 1019 Q350 1214 551 1336 Q752 1458 999 1458 Q1292 1458 1474 1278 Q1656 1098 1655 823 Q1654 608 1548 414 Q1442 220 1242 98 Q1042 -25 793 -25 Z" /><glyph glyph-name="Oacute" unicode="ó" d="M1317 1622 Q1227 1554 1138 1554 Q1049 1554 1049 1612 Q1049 1641 1075 1669 L1231 1841 Q1294 1909 1350 1909 Q1406 1909 1464 1878 Q1522 1846 1522 1810 Q1522 1774 1477 1741 L1317 1622 ZM829 266 Q1044 266 1186 435 Q1327 604 1327 786 Q1327 968 1231 1067 Q1135 1167 963 1167 Q748 1167 606 998 Q464 829 465 648 Q465 466 561 366 Q657 266 829 266 ZM793 -25 Q500 -24 318 156 Q136 336 137 610 Q137 825 244 1019 Q350 1214 551 1336 Q752 1458 999 1458 Q1292 1458 1474 1278 Q1656 1098 1655 823 Q1654 608 1548 414 Q1442 220 1242 98 Q1042 -25 793 -25 Z" /><glyph glyph-name="Ocircumflex" unicode="ô" d="M834 1554 Q768 1554 768 1602 Q768 1633 803 1667 L971 1829 Q1041 1899 1130 1898 L1221 1898 Q1325 1899 1364 1821 L1442 1669 Q1469 1622 1468 1604 Q1468 1554 1402 1554 Q1336 1554 1298 1566 Q1260 1578 1219 1622 L1145 1702 L1028 1622 Q930 1554 834 1554 ZM829 266 Q1044 266 1186 435 Q1327 604 1327 786 Q1327 968 1231 1067 Q1135 1167 963 1167 Q748 1167 606 998 Q464 829 465 648 Q465 466 561 366 Q657 266 829 266 ZM793 -25 Q500 -24 318 156 Q136 336 137 610 Q137 825 244 1019 Q350 1214 551 1336 Q752 1458 999 1458 Q1292 1458 1474 1278 Q1656 1098 1655 823 Q1654 608 1548 414 Q1442 220 1242 98 Q1042 -25 793 -25 Z" /><glyph glyph-name="Otilde" unicode="õ" d="M1121 1617 Q1042 1673 996 1673 Q950 1673 904 1617 Q856 1561 812 1561 Q768 1560 743 1584 Q695 1629 735 1702 Q850 1907 1014 1907 Q1096 1906 1173 1850 Q1250 1794 1284 1794 Q1341 1794 1395 1860 Q1436 1907 1480 1907 Q1524 1907 1548 1883 Q1572 1858 1573 1826 Q1573 1794 1556 1765 Q1441 1560 1278 1561 Q1200 1561 1121 1617 ZM829 266 Q1044 266 1186 435 Q1327 604 1327 786 Q1327 968 1231 1067 Q1135 1167 963 1167 Q748 1167 606 998 Q464 829 465 648 Q465 466 561 366 Q657 266 829 266 ZM793 -25 Q500 -24 318 156 Q136 336 137 610 Q137 825 244 1019 Q350 1214 551 1336 Q752 1458 999 1458 Q1292 1458 1474 1278 Q1656 1098 1655 823 Q1654 608 1548 414 Q1442 220 1242 98 Q1042 -25 793 -25 Z" /><glyph glyph-name="Odieresis" unicode="ö" d="M1336 1554 Q1265 1554 1226 1597 Q1187 1640 1202 1708 Q1218 1776 1270 1816 Q1322 1856 1390 1856 Q1458 1856 1498 1812 Q1538 1769 1526 1710 Q1487 1554 1336 1554 ZM1020 1594 Q969 1554 898 1554 Q827 1554 788 1596 Q749 1638 764 1707 Q780 1776 831 1816 Q882 1856 951 1856 Q1020 1856 1061 1811 Q1102 1767 1086 1701 Q1071 1634 1020 1594 ZM829 266 Q1044 266 1186 435 Q1327 604 1327 786 Q1327 968 1231 1067 Q1135 1167 963 1167 Q748 1167 606 998 Q464 829 465 648 Q465 466 561 366 Q657 266 829 266 ZM793 -25 Q500 -24 318 156 Q136 336 137 610 Q137 825 244 1019 Q350 1214 551 1336 Q752 1458 999 1458 Q1292 1458 1474 1278 Q1656 1098 1655 823 Q1654 608 1548 414 Q1442 220 1242 98 Q1042 -25 793 -25 Z" /><glyph glyph-name="multiply" unicode="×" d="M1046 298 Q1004 256 936 256 Q868 256 825 319 L678 532 L375 289 Q338 258 286 258 Q234 258 195 297 Q156 336 156 395 Q156 454 211 500 L520 739 L362 950 Q330 993 330 1047 Q330 1102 372 1144 Q414 1186 482 1186 Q550 1186 592 1122 L739 909 L1042 1153 Q1079 1184 1131 1184 Q1182 1184 1222 1145 Q1262 1106 1262 1047 Q1262 988 1206 942 L897 702 L1055 492 Q1088 448 1088 394 Q1088 340 1046 298 Z" /><glyph glyph-name="Oslash" unicode="ø" d="M233 20 Q182 -23 138 -23 Q94 -23 70 2 Q46 27 45 70 Q45 113 109 168 L227 270 Q137 415 137 620 Q137 825 244 1019 Q350 1214 551 1336 Q752 1458 1010 1458 Q1268 1458 1452 1296 L1591 1413 Q1642 1456 1686 1456 Q1730 1456 1756 1432 Q1780 1408 1780 1364 Q1780 1321 1716 1266 L1575 1143 Q1655 1000 1655 804 Q1654 608 1548 414 Q1442 220 1241 98 Q1040 -24 787 -24 Q534 -24 354 123 L233 20 ZM829 252 Q1044 252 1192 428 Q1339 604 1339 803 Q1339 877 1319 936 L590 322 Q682 252 829 252 ZM453 631 Q453 541 479 473 L1217 1096 Q1119 1182 963 1182 Q748 1182 600 1006 Q452 830 453 631 Z" /><glyph glyph-name="Ugrave" unicode="ù" d="M922 1888 Q1004 1888 1030 1812 L1092 1645 Q1100 1620 1100 1602 Q1100 1534 1001 1534 Q956 1534 930 1548 Q904 1562 872 1602 L778 1720 Q750 1759 750 1791 Q750 1824 806 1856 Q862 1888 922 1888 ZM166 461 Q166 555 201 690 L360 1288 Q380 1362 428 1404 Q476 1446 546 1446 Q616 1446 652 1391 Q688 1336 664 1241 L508 662 Q485 572 485 506 Q485 396 551 332 Q618 268 746 268 Q874 268 969 358 Q1063 452 1108 625 L1286 1288 Q1306 1362 1354 1404 Q1402 1446 1472 1446 Q1542 1446 1578 1390 Q1614 1334 1589 1241 L1411 580 Q1337 301 1190 154 Q1014 -22 702 -23 Q452 -23 309 105 Q166 233 166 461 Z" /><glyph glyph-name="Uacute" unicode="ú" d="M1245 1602 Q1155 1534 1066 1534 Q977 1534 977 1591 Q977 1620 1004 1649 L1159 1821 Q1222 1888 1278 1888 Q1334 1888 1393 1858 Q1450 1827 1450 1790 Q1450 1753 1405 1720 L1245 1602 ZM166 461 Q166 555 201 690 L360 1288 Q380 1362 428 1404 Q476 1446 546 1446 Q616 1446 652 1391 Q688 1336 664 1241 L508 662 Q485 572 485 506 Q485 396 551 332 Q618 268 746 268 Q874 268 969 358 Q1063 452 1108 625 L1286 1288 Q1306 1362 1354 1404 Q1402 1446 1472 1446 Q1542 1446 1578 1390 Q1614 1334 1589 1241 L1411 580 Q1337 301 1190 154 Q1014 -22 702 -23 Q452 -23 309 105 Q166 233 166 461 Z" /><glyph glyph-name="Ucircumflex" unicode="û" d="M1397 1583 Q1396 1534 1330 1534 Q1264 1534 1226 1545 Q1188 1556 1147 1602 L1073 1681 L956 1602 Q858 1534 762 1534 Q696 1534 696 1581 Q696 1612 731 1647 L899 1808 Q969 1878 1059 1878 L1149 1878 Q1253 1878 1292 1800 L1370 1649 Q1397 1602 1397 1583 ZM166 461 Q166 555 201 690 L360 1288 Q380 1362 428 1404 Q476 1446 546 1446 Q616 1446 652 1391 Q688 1336 664 1241 L508 662 Q485 572 485 506 Q485 396 551 332 Q618 268 746 268 Q874 268 969 358 Q1063 452 1108 625 L1286 1288 Q1306 1362 1354 1404 Q1402 1446 1472 1446 Q1542 1446 1578 1390 Q1614 1334 1589 1241 L1411 580 Q1337 301 1190 154 Q1014 -22 702 -23 Q452 -23 309 105 Q166 233 166 461 Z" /><glyph glyph-name="Udieresis" unicode="ü" d="M1318 1835 Q1386 1835 1426 1792 Q1466 1749 1451 1680 Q1436 1611 1386 1573 Q1334 1534 1264 1534 Q1194 1534 1152 1579 Q1110 1624 1133 1690 Q1147 1756 1198 1796 Q1249 1836 1318 1835 ZM826 1534 Q754 1534 716 1576 Q678 1618 693 1687 Q708 1756 760 1796 Q811 1835 880 1835 Q948 1835 988 1792 Q1028 1749 1013 1680 Q998 1611 948 1573 Q897 1534 826 1534 ZM166 461 Q166 555 201 690 L360 1288 Q380 1362 428 1404 Q476 1446 546 1446 Q616 1446 652 1391 Q688 1336 664 1241 L508 662 Q485 572 485 506 Q485 396 551 332 Q618 268 746 268 Q874 268 969 358 Q1063 452 1108 625 L1286 1288 Q1306 1362 1354 1404 Q1402 1446 1472 1446 Q1542 1446 1578 1390 Q1614 1334 1589 1241 L1411 580 Q1337 301 1190 154 Q1014 -22 702 -23 Q452 -23 309 105 Q166 233 166 461 Z" /><glyph glyph-name="Yacute" unicode="ý" d="M1112 1602 Q1022 1534 933 1534 Q844 1534 844 1591 Q844 1620 870 1649 L1026 1821 Q1090 1888 1146 1888 Q1202 1888 1260 1858 Q1317 1827 1317 1790 Q1317 1753 1272 1720 L1112 1602 ZM1348 1448 Q1492 1448 1491 1314 Q1491 1250 1438 1194 L803 524 L700 145 Q680 72 633 30 Q586 -12 515 -12 Q444 -12 408 43 Q372 98 397 193 L494 553 L236 1178 Q205 1252 205 1306 Q205 1360 253 1402 Q301 1446 375 1446 Q484 1446 528 1323 L711 831 L1190 1358 Q1274 1448 1348 1448 Z" /><glyph glyph-name="Thorn" unicode="þ" d="M809 1225 Q1114 1225 1260 1079 Q1371 968 1370 784 Q1370 524 1174 374 Q978 224 674 225 L401 225 L379 145 Q360 72 312 30 Q264 -12 194 -12 Q124 -12 87 43 Q51 98 76 193 L371 1288 Q391 1362 438 1404 Q485 1446 556 1446 Q627 1446 663 1392 Q699 1338 670 1225 L809 1225 ZM690 502 Q850 502 945 570 Q1040 638 1040 758 Q1040 830 985 885 Q930 940 797 940 L592 940 L475 502 L690 502 Z" /><glyph glyph-name="germandbls" unicode="ß" d="M971 1092 Q971 1166 925 1206 Q879 1246 809 1247 Q635 1247 573 1014 L344 145 Q303 -12 161 -12 Q90 -12 54 43 Q18 98 45 193 L270 1030 Q399 1509 819 1509 Q1026 1508 1145 1400 Q1264 1292 1264 1134 Q1264 832 948 731 Q1161 639 1161 446 Q1162 254 1012 124 Q862 -6 623 -6 Q486 -6 485 119 Q485 166 515 199 Q545 232 594 236 Q868 261 868 455 Q868 553 752 602 Q701 622 676 648 Q651 674 651 721 Q652 815 756 850 Q971 922 971 1092 Z" /><glyph glyph-name="agrave" unicode="à" d="M479 1464 Q480 1496 536 1528 Q592 1561 651 1561 Q733 1561 760 1485 L821 1317 Q829 1292 829 1274 Q829 1206 731 1206 Q686 1206 660 1220 Q634 1234 602 1274 L508 1393 Q479 1432 479 1464 ZM481 193 Q561 194 639 258 Q717 322 743 414 L752 442 Q652 481 550 481 Q448 481 386 434 Q324 386 324 322 Q324 192 481 193 ZM813 717 Q813 846 606 846 Q508 846 444 830 Q380 814 365 813 Q312 813 276 849 Q241 885 242 938 Q242 1030 336 1059 Q496 1110 694 1110 Q892 1110 1004 1023 Q1117 936 1116 772 Q1116 700 1092 606 L969 145 Q948 68 902 28 Q856 -12 795 -12 Q652 -12 662 127 Q525 -20 334 -20 Q193 -20 103 62 Q14 145 14 274 Q14 458 147 564 Q280 670 487 670 Q639 670 797 621 Q813 677 813 717 Z" /><glyph glyph-name="aacute" unicode="á" d="M481 193 Q561 194 639 258 Q717 322 743 414 L752 442 Q652 481 550 481 Q448 481 386 434 Q324 386 324 322 Q324 192 481 193 ZM975 1274 Q885 1206 796 1206 Q707 1206 707 1264 Q707 1293 733 1321 L889 1493 Q952 1561 1008 1561 Q1064 1561 1122 1530 Q1180 1498 1180 1462 Q1180 1426 1135 1393 L975 1274 ZM813 717 Q813 846 606 846 Q508 846 444 830 Q380 814 365 813 Q312 813 276 849 Q241 885 242 938 Q242 1030 336 1059 Q496 1110 694 1110 Q892 1110 1004 1023 Q1117 936 1116 772 Q1116 700 1092 606 L969 145 Q948 68 902 28 Q856 -12 795 -12 Q652 -12 662 127 Q525 -20 334 -20 Q193 -20 103 62 Q14 145 14 274 Q14 458 147 564 Q280 670 487 670 Q639 670 797 621 Q813 677 813 717 Z" /><glyph glyph-name="acircumflex" unicode="â" d="M481 193 Q561 194 639 258 Q717 322 743 414 L752 442 Q652 481 550 481 Q448 481 386 434 Q324 386 324 322 Q324 192 481 193 ZM1126 1255 Q1126 1206 1060 1206 Q994 1206 956 1218 Q918 1230 877 1274 L803 1354 L686 1274 Q588 1206 492 1206 Q426 1206 426 1253 Q426 1284 461 1319 L629 1481 Q699 1551 788 1550 L879 1550 Q983 1551 1022 1473 L1100 1321 Q1127 1274 1126 1255 ZM813 717 Q813 846 606 846 Q508 846 444 830 Q380 814 365 813 Q312 813 276 849 Q241 885 242 938 Q242 1030 336 1059 Q496 1110 694 1110 Q892 1110 1004 1023 Q1117 936 1116 772 Q1116 700 1092 606 L969 145 Q948 68 902 28 Q856 -12 795 -12 Q652 -12 662 127 Q525 -20 334 -20 Q193 -20 103 62 Q14 145 14 274 Q14 458 147 564 Q280 670 487 670 Q639 670 797 621 Q813 677 813 717 Z" /><glyph glyph-name="atilde" unicode="ã" d="M481 193 Q561 194 639 258 Q717 322 743 414 L752 442 Q652 481 550 481 Q448 481 386 434 Q324 386 324 322 Q324 192 481 193 ZM936 1212 Q858 1212 779 1268 Q700 1324 654 1325 Q608 1324 562 1268 Q514 1212 470 1212 Q426 1212 401 1236 Q353 1282 393 1354 Q508 1559 672 1559 Q754 1558 831 1502 Q908 1446 954 1446 Q1000 1446 1046 1502 Q1094 1558 1138 1558 Q1182 1558 1206 1535 Q1230 1510 1231 1478 Q1231 1446 1214 1417 Q1099 1212 936 1212 ZM813 717 Q813 846 606 846 Q508 846 444 830 Q380 814 365 813 Q312 813 276 849 Q241 885 242 938 Q242 1030 336 1059 Q496 1110 694 1110 Q892 1110 1004 1023 Q1117 936 1116 772 Q1116 700 1092 606 L969 145 Q948 68 902 28 Q856 -12 795 -12 Q652 -12 662 127 Q525 -20 334 -20 Q193 -20 103 62 Q14 145 14 274 Q14 458 147 564 Q280 670 487 670 Q639 670 797 621 Q813 677 813 717 Z" /><glyph glyph-name="adieresis" unicode="ä" d="M994 1206 Q923 1206 884 1249 Q845 1292 860 1360 Q876 1428 928 1468 Q980 1508 1048 1507 Q1116 1507 1156 1464 Q1196 1421 1184 1362 Q1145 1206 994 1206 ZM678 1246 Q627 1206 556 1206 Q485 1206 446 1248 Q407 1290 422 1359 Q438 1428 489 1468 Q540 1508 609 1507 Q678 1507 719 1463 Q760 1419 744 1353 Q729 1286 678 1246 ZM481 193 Q561 194 639 258 Q717 322 743 414 L752 442 Q652 481 550 481 Q448 481 386 434 Q324 386 324 322 Q324 192 481 193 ZM813 717 Q813 846 606 846 Q508 846 444 830 Q380 814 365 813 Q312 813 276 849 Q241 885 242 938 Q242 1030 336 1059 Q496 1110 694 1110 Q892 1110 1004 1023 Q1117 936 1116 772 Q1116 700 1092 606 L969 145 Q948 68 902 28 Q856 -12 795 -12 Q652 -12 662 127 Q525 -20 334 -20 Q193 -20 103 62 Q14 145 14 274 Q14 458 147 564 Q280 670 487 670 Q639 670 797 621 Q813 677 813 717 Z" /><glyph glyph-name="aring" unicode="å" d="M950 1478 Q950 1592 844 1590 Q791 1590 752 1541 Q713 1493 713 1439 Q713 1327 819 1327 Q872 1327 911 1375 Q950 1424 950 1478 ZM481 193 Q561 194 639 258 Q717 322 743 414 L752 442 Q652 481 550 481 Q448 481 386 434 Q324 386 324 322 Q324 192 481 193 ZM662 1621 Q742 1702 850 1702 Q958 1702 1020 1642 Q1082 1582 1081 1478 Q1082 1376 1002 1295 Q922 1214 814 1214 Q706 1214 644 1274 Q582 1334 582 1438 Q582 1540 662 1621 ZM813 717 Q813 846 606 846 Q508 846 444 830 Q380 814 365 813 Q312 813 276 849 Q241 885 242 938 Q242 1030 336 1059 Q496 1110 694 1110 Q892 1110 1004 1023 Q1117 936 1116 772 Q1116 700 1092 606 L969 145 Q948 68 902 28 Q856 -12 795 -12 Q652 -12 662 127 Q525 -20 334 -20 Q193 -20 103 62 Q14 145 14 274 Q14 458 147 564 Q280 670 487 670 Q639 670 797 621 Q813 677 813 717 Z" /><glyph glyph-name="ae" unicode="æ" d="M1573 707 Q1573 780 1528 824 Q1483 868 1386 868 Q1289 868 1206 805 Q1124 741 1085 635 L1563 635 Q1573 670 1573 707 ZM791 426 Q666 481 558 481 Q450 481 386 434 Q324 388 324 322 Q324 191 487 193 Q563 194 650 230 Q737 266 803 332 Q795 375 791 426 ZM813 717 Q813 846 606 846 Q508 846 444 830 Q380 814 365 813 Q312 813 276 849 Q241 885 242 938 Q242 1030 336 1059 Q496 1110 672 1110 Q940 1110 1032 948 Q1202 1118 1415 1118 Q1628 1118 1747 997 Q1866 876 1866 690 Q1866 633 1853 578 Q1822 441 1704 440 L1059 440 Q1075 225 1309 225 Q1400 225 1466 261 Q1532 297 1577 297 Q1622 297 1656 263 Q1690 228 1690 170 Q1690 112 1630 74 Q1480 -24 1274 -25 Q979 -25 856 186 Q655 -21 365 -20 Q199 -20 106 59 Q14 139 14 274 Q14 458 147 564 Q280 670 487 670 Q639 670 797 621 Q813 677 813 717 Z" /><glyph glyph-name="ccedilla" unicode="ç" d="M438 -276 Q395 -342 341 -342 Q287 -342 240 -309 Q193 -276 193 -240 Q193 -204 223 -172 L397 8 Q252 61 169 182 Q86 303 86 471 Q86 738 278 928 Q470 1118 733 1118 Q962 1118 1104 981 Q1161 928 1161 864 Q1161 800 1118 758 Q1075 715 1012 715 Q949 715 909 760 Q834 852 710 852 Q586 852 490 737 Q394 622 393 471 Q392 368 454 304 Q516 240 611 240 Q706 240 777 288 Q848 336 895 336 Q942 336 978 298 Q1014 260 1014 202 Q1014 144 967 104 Q811 -23 606 -25 L438 -276 Z" /><glyph glyph-name="egrave" unicode="è" d="M535 1393 Q506 1432 506 1464 Q506 1496 562 1528 Q618 1561 678 1561 Q760 1561 786 1485 L848 1317 Q856 1292 856 1274 Q856 1206 758 1206 Q714 1206 688 1220 Q662 1234 629 1274 L535 1393 ZM891 707 Q891 780 846 824 Q801 868 704 868 Q607 868 524 805 Q442 741 403 635 L881 635 Q891 670 891 707 ZM627 225 Q718 225 784 261 Q850 297 895 297 Q940 297 974 263 Q1008 228 1008 170 Q1008 112 948 74 Q798 -24 576 -24 Q354 -24 219 105 Q84 235 84 463 Q84 625 163 773 Q242 921 394 1020 Q548 1118 746 1118 Q944 1118 1064 998 Q1184 878 1184 690 Q1184 633 1171 578 Q1140 441 1022 440 L377 440 Q394 225 627 225 Z" /><glyph glyph-name="eacute" unicode="é" d="M891 707 Q891 780 846 824 Q801 868 704 868 Q607 868 524 805 Q442 741 403 635 L881 635 Q891 670 891 707 ZM1001 1274 Q911 1206 822 1206 Q733 1206 733 1264 Q733 1293 760 1321 L915 1493 Q978 1561 1034 1561 Q1090 1561 1148 1530 Q1206 1498 1206 1462 Q1206 1426 1161 1393 L1001 1274 ZM627 225 Q718 225 784 261 Q850 297 895 297 Q940 297 974 263 Q1008 228 1008 170 Q1008 112 948 74 Q798 -24 576 -24 Q354 -24 219 105 Q84 235 84 463 Q84 625 163 773 Q242 921 394 1020 Q548 1118 746 1118 Q944 1118 1064 998 Q1184 878 1184 690 Q1184 633 1171 578 Q1140 441 1022 440 L377 440 Q394 225 627 225 Z" /><glyph glyph-name="ecircumflex" unicode="ê" d="M891 707 Q891 780 846 824 Q801 868 704 868 Q607 868 524 805 Q442 741 403 635 L881 635 Q891 670 891 707 ZM1155 1255 Q1154 1206 1088 1206 Q1022 1206 984 1218 Q946 1230 905 1274 L831 1354 L715 1274 Q617 1206 520 1206 Q454 1206 455 1253 Q455 1284 489 1319 L657 1481 Q727 1551 817 1550 L907 1550 Q1012 1551 1051 1473 L1128 1321 Q1155 1274 1155 1255 ZM627 225 Q718 225 784 261 Q850 297 895 297 Q940 297 974 263 Q1008 228 1008 170 Q1008 112 948 74 Q798 -24 576 -24 Q354 -24 219 105 Q84 235 84 463 Q84 625 163 773 Q242 921 394 1020 Q548 1118 746 1118 Q944 1118 1064 998 Q1184 878 1184 690 Q1184 633 1171 578 Q1140 441 1022 440 L377 440 Q394 225 627 225 Z" /><glyph glyph-name="edieresis" unicode="ë" d="M1145 1246 Q1094 1206 1023 1206 Q952 1206 913 1248 Q874 1290 889 1359 Q905 1428 956 1468 Q1007 1508 1076 1507 Q1145 1507 1186 1463 Q1227 1419 1211 1353 Q1196 1286 1145 1246 ZM707 1246 Q656 1206 585 1206 Q514 1206 475 1248 Q436 1290 451 1359 Q467 1428 518 1468 Q569 1508 638 1507 Q707 1507 748 1463 Q789 1419 773 1352 Q758 1286 707 1246 ZM891 707 Q891 780 846 824 Q801 868 704 868 Q607 868 524 805 Q442 741 403 635 L881 635 Q891 670 891 707 ZM627 225 Q718 225 784 261 Q850 297 895 297 Q940 297 974 263 Q1008 228 1008 170 Q1008 112 948 74 Q798 -24 576 -24 Q354 -24 219 105 Q84 235 84 463 Q84 625 163 773 Q242 921 394 1020 Q548 1118 746 1118 Q944 1118 1064 998 Q1184 878 1184 690 Q1184 633 1171 578 Q1140 441 1022 440 L377 440 Q394 225 627 225 Z" /><glyph glyph-name="igrave" unicode="ì" d="M373 1561 Q455 1561 481 1485 L543 1317 Q551 1292 551 1274 Q551 1206 453 1206 Q408 1206 382 1220 Q356 1234 324 1274 L229 1393 Q200 1432 200 1464 Q200 1496 257 1528 Q313 1561 373 1561 ZM446 1110 Q516 1110 552 1054 Q588 998 561 905 L356 145 Q315 -12 173 -12 Q102 -12 66 43 Q30 98 57 193 L262 952 Q304 1110 446 1110 Z" /><glyph glyph-name="iacute" unicode="í" d="M696 1274 Q606 1206 517 1206 Q428 1206 428 1264 Q428 1293 455 1321 L610 1493 Q674 1561 730 1561 Q786 1561 844 1530 Q902 1498 901 1462 Q901 1426 856 1393 L696 1274 ZM446 1110 Q516 1110 552 1054 Q588 998 561 905 L356 145 Q315 -12 173 -12 Q102 -12 66 43 Q30 98 57 193 L262 952 Q304 1110 446 1110 Z" /><glyph glyph-name="icircumflex" unicode="î" d="M850 1255 Q850 1206 784 1206 Q718 1206 679 1218 Q641 1230 600 1274 L526 1354 L410 1274 Q312 1206 215 1206 Q149 1206 150 1253 Q150 1284 184 1319 L352 1481 Q422 1551 512 1550 L602 1550 Q706 1551 745 1473 L823 1321 Q850 1274 850 1255 ZM446 1110 Q516 1110 552 1054 Q588 998 561 905 L356 145 Q315 -12 173 -12 Q102 -12 66 43 Q30 98 57 193 L262 952 Q304 1110 446 1110 Z" /><glyph glyph-name="idieresis" unicode="ï" d="M842 1246 Q791 1206 720 1206 Q649 1206 610 1248 Q571 1290 586 1359 Q602 1428 653 1468 Q704 1508 773 1507 Q842 1507 883 1463 Q924 1419 908 1353 Q893 1286 842 1246 ZM282 1206 Q212 1206 168 1252 Q125 1298 150 1362 Q164 1428 215 1468 Q266 1508 335 1507 Q404 1507 444 1464 Q484 1421 471 1362 Q432 1206 282 1206 ZM446 1110 Q516 1110 552 1054 Q588 998 561 905 L356 145 Q315 -12 173 -12 Q102 -12 66 43 Q30 98 57 193 L262 952 Q304 1110 446 1110 Z" /><glyph glyph-name="eth" unicode="ð" d="M375 481 Q376 364 440 301 Q504 238 618 238 Q732 238 815 330 Q899 422 899 534 Q899 646 836 710 Q773 774 658 774 Q543 774 459 686 Q375 598 375 481 ZM715 1327 Q709 1347 709 1392 Q709 1437 746 1476 Q784 1514 844 1513 Q938 1513 971 1442 L979 1423 L1182 1497 Q1202 1505 1233 1505 Q1264 1506 1286 1484 Q1308 1462 1309 1425 Q1309 1364 1237 1337 L1047 1268 L1124 1092 Q1214 887 1214 672 Q1214 373 1044 174 Q874 -25 586 -25 Q358 -26 218 108 Q78 242 78 461 Q78 680 236 838 Q394 996 614 995 Q792 995 924 874 L786 1171 L575 1096 Q510 1070 471 1109 Q448 1131 449 1167 Q448 1228 520 1255 L715 1327 Z" /><glyph glyph-name="ntilde" unicode="ñ" d="M967 1212 Q889 1212 810 1268 Q731 1324 685 1325 Q639 1324 592 1268 Q545 1212 501 1212 Q457 1212 432 1236 Q384 1282 424 1354 Q539 1559 702 1559 Q784 1558 861 1502 Q938 1446 984 1446 Q1030 1446 1083 1511 Q1124 1558 1168 1558 Q1212 1558 1238 1535 Q1262 1510 1262 1478 Q1262 1446 1245 1417 Q1130 1212 967 1212 ZM315 1069 Q362 1110 428 1110 Q494 1110 530 1074 Q566 1038 567 983 Q719 1118 866 1118 Q1014 1118 1102 1032 Q1190 946 1190 799 Q1190 729 1153 590 L1034 145 Q993 -12 851 -12 Q780 -12 744 43 Q708 98 735 193 L846 602 Q860 655 860 700 Q860 835 709 836 Q618 836 558 778 Q498 720 471 616 L344 145 Q303 -12 161 -12 Q90 -12 54 43 Q18 98 45 193 L248 952 Q268 1028 315 1069 Z" /><glyph glyph-name="ograve" unicode="ò" d="M580 1393 Q551 1432 551 1464 Q551 1496 607 1528 Q663 1561 723 1561 Q805 1561 831 1485 L893 1317 Q901 1292 901 1274 Q901 1206 803 1206 Q758 1206 732 1220 Q706 1234 674 1274 L580 1393 ZM456 308 Q520 242 642 242 Q764 242 854 358 Q944 474 944 598 Q944 720 880 786 Q816 852 694 852 Q572 852 482 735 Q392 618 391 496 Q392 374 456 308 ZM1249 597 Q1250 360 1062 168 Q874 -24 624 -25 Q374 -24 230 118 Q86 260 86 496 Q86 732 273 926 Q460 1118 710 1118 Q960 1118 1105 976 Q1249 834 1249 597 Z" /><glyph glyph-name="oacute" unicode="ó" d="M1047 1274 Q958 1206 868 1206 Q778 1206 778 1264 Q778 1293 805 1321 L961 1493 Q1024 1561 1080 1561 Q1136 1561 1194 1530 Q1252 1498 1251 1462 Q1251 1426 1206 1393 L1047 1274 ZM456 308 Q520 242 642 242 Q764 242 854 358 Q944 474 944 598 Q944 720 880 786 Q816 852 694 852 Q572 852 482 735 Q392 618 391 496 Q392 374 456 308 ZM1249 597 Q1250 360 1062 168 Q874 -24 624 -25 Q374 -24 230 118 Q86 260 86 496 Q86 732 273 926 Q460 1118 710 1118 Q960 1118 1105 976 Q1249 834 1249 597 Z" /><glyph glyph-name="ocircumflex" unicode="ô" d="M1200 1255 Q1200 1206 1134 1206 Q1068 1206 1029 1218 Q991 1230 950 1274 L877 1354 L760 1274 Q662 1206 565 1206 Q499 1206 500 1253 Q500 1284 535 1319 L702 1481 Q772 1551 862 1550 L952 1550 Q1057 1551 1096 1473 L1174 1321 Q1201 1274 1200 1255 ZM456 308 Q520 242 642 242 Q764 242 854 358 Q944 474 944 598 Q944 720 880 786 Q816 852 694 852 Q572 852 482 735 Q392 618 391 496 Q392 374 456 308 ZM1249 597 Q1250 360 1062 168 Q874 -24 624 -25 Q374 -24 230 118 Q86 260 86 496 Q86 732 273 926 Q460 1118 710 1118 Q960 1118 1105 976 Q1249 834 1249 597 Z" /><glyph glyph-name="otilde" unicode="õ" d="M1010 1212 Q932 1212 853 1268 Q774 1324 728 1325 Q682 1324 635 1268 Q588 1212 544 1212 Q500 1212 475 1236 Q427 1282 467 1354 Q582 1559 745 1559 Q827 1558 904 1502 Q981 1446 1027 1446 Q1073 1446 1126 1511 Q1168 1558 1212 1558 Q1256 1558 1280 1535 Q1304 1510 1305 1478 Q1305 1446 1288 1417 Q1173 1212 1010 1212 ZM456 308 Q520 242 642 242 Q764 242 854 358 Q944 474 944 598 Q944 720 880 786 Q816 852 694 852 Q572 852 482 735 Q392 618 391 496 Q392 374 456 308 ZM1249 597 Q1250 360 1062 168 Q874 -24 624 -25 Q374 -24 230 118 Q86 260 86 496 Q86 732 273 926 Q460 1118 710 1118 Q960 1118 1105 976 Q1249 834 1249 597 Z" /><glyph glyph-name="odieresis" unicode="ö" d="M1190 1246 Q1139 1206 1068 1206 Q997 1206 958 1248 Q919 1290 934 1359 Q950 1428 1001 1468 Q1052 1508 1121 1507 Q1190 1507 1231 1463 Q1272 1419 1256 1353 Q1241 1286 1190 1246 ZM752 1246 Q701 1206 630 1206 Q559 1206 520 1248 Q481 1290 496 1359 Q512 1428 563 1468 Q614 1508 683 1507 Q752 1507 793 1463 Q834 1419 818 1353 Q803 1286 752 1246 ZM456 308 Q520 242 642 242 Q764 242 854 358 Q944 474 944 598 Q944 720 880 786 Q816 852 694 852 Q572 852 482 735 Q392 618 391 496 Q392 374 456 308 ZM1249 597 Q1250 360 1062 168 Q874 -24 624 -25 Q374 -24 230 118 Q86 260 86 496 Q86 732 273 926 Q460 1118 710 1118 Q960 1118 1105 976 Q1249 834 1249 597 Z" /><glyph glyph-name="divide" unicode="÷" d="M945 1282 Q987 1242 987 1176 Q987 1110 930 1056 Q872 1002 802 1002 Q732 1002 689 1040 Q647 1079 647 1146 Q646 1213 704 1267 Q762 1321 832 1321 Q902 1321 945 1282 ZM471 386 Q528 440 598 440 Q668 440 712 401 Q754 362 754 296 Q754 230 696 175 Q638 121 568 121 Q498 121 456 160 Q414 200 414 266 Q414 332 471 386 ZM301 590 Q248 590 209 629 Q170 668 170 721 Q170 774 209 813 Q248 852 301 852 L1096 852 Q1149 852 1188 813 Q1227 774 1227 721 Q1227 668 1188 629 Q1149 590 1096 590 L301 590 Z" /><glyph glyph-name="oslash" unicode="ø" d="M244 20 Q198 -23 152 -23 Q106 -23 80 1 Q54 24 55 66 Q55 108 104 154 L160 205 Q86 322 86 483 Q86 733 273 926 Q460 1119 721 1118 Q901 1118 1030 1034 L1075 1077 Q1122 1120 1167 1120 Q1212 1120 1238 1096 Q1264 1072 1264 1031 Q1264 989 1214 944 L1167 901 Q1249 774 1249 610 Q1249 360 1062 168 Q875 -24 614 -25 Q426 -24 291 66 L244 20 ZM381 492 Q381 451 387 414 L829 838 Q780 863 707 862 Q572 862 476 744 Q380 626 381 492 ZM629 231 Q764 231 859 349 Q954 467 954 602 Q954 645 944 692 L494 260 Q551 231 629 231 Z" /><glyph glyph-name="ugrave" unicode="ù" d="M551 1393 Q522 1432 522 1464 Q522 1496 578 1528 Q634 1561 694 1561 Q776 1561 803 1485 L864 1317 Q872 1292 872 1274 Q872 1206 774 1206 Q730 1206 704 1220 Q678 1234 645 1274 L551 1393 ZM959 28 Q912 -12 846 -12 Q780 -12 743 24 Q706 60 707 115 Q555 -20 408 -20 Q261 -20 172 66 Q84 152 84 299 Q84 369 121 508 L240 952 Q282 1110 423 1110 Q494 1110 530 1055 Q566 1000 539 905 L428 496 Q414 443 414 397 Q414 262 565 262 Q656 262 716 320 Q776 378 803 481 L930 952 Q972 1110 1113 1110 Q1184 1110 1220 1055 Q1256 1000 1229 905 L1026 145 Q1006 68 959 28 Z" /><glyph glyph-name="uacute" unicode="ú" d="M1018 1274 Q928 1206 839 1206 Q750 1206 750 1264 Q750 1293 776 1321 L932 1493 Q996 1561 1052 1561 Q1108 1561 1165 1530 Q1222 1498 1222 1462 Q1222 1426 1178 1393 L1018 1274 ZM959 28 Q912 -12 846 -12 Q780 -12 743 24 Q706 60 707 115 Q555 -20 408 -20 Q261 -20 172 66 Q84 152 84 299 Q84 369 121 508 L240 952 Q282 1110 423 1110 Q494 1110 530 1055 Q566 1000 539 905 L428 496 Q414 443 414 397 Q414 262 565 262 Q656 262 716 320 Q776 378 803 481 L930 952 Q972 1110 1113 1110 Q1184 1110 1220 1055 Q1256 1000 1229 905 L1026 145 Q1006 68 959 28 Z" /><glyph glyph-name="ucircumflex" unicode="û" d="M1103 1206 Q1036 1206 998 1218 Q960 1230 920 1274 L846 1354 L729 1274 Q631 1206 535 1206 Q469 1206 469 1253 Q469 1284 504 1319 L672 1481 Q742 1551 831 1550 L922 1550 Q1026 1551 1065 1473 L1143 1321 Q1170 1274 1169 1255 Q1169 1206 1103 1206 ZM959 28 Q912 -12 846 -12 Q780 -12 743 24 Q706 60 707 115 Q555 -20 408 -20 Q261 -20 172 66 Q84 152 84 299 Q84 369 121 508 L240 952 Q282 1110 423 1110 Q494 1110 530 1055 Q566 1000 539 905 L428 496 Q414 443 414 397 Q414 262 565 262 Q656 262 716 320 Q776 378 803 481 L930 952 Q972 1110 1113 1110 Q1184 1110 1220 1055 Q1256 1000 1229 905 L1026 145 Q1006 68 959 28 Z" /><glyph glyph-name="udieresis" unicode="ü" d="M721 1246 Q670 1206 599 1206 Q528 1206 489 1248 Q450 1290 465 1359 Q481 1428 532 1468 Q583 1508 652 1507 Q721 1507 762 1463 Q803 1419 787 1353 Q772 1286 721 1246 ZM1037 1206 Q966 1206 927 1249 Q888 1292 903 1360 Q918 1428 970 1468 Q1022 1508 1091 1507 Q1160 1507 1200 1464 Q1240 1421 1227 1362 Q1188 1206 1037 1206 ZM959 28 Q912 -12 846 -12 Q780 -12 743 24 Q706 60 707 115 Q555 -20 408 -20 Q261 -20 172 66 Q84 152 84 299 Q84 369 121 508 L240 952 Q282 1110 423 1110 Q494 1110 530 1055 Q566 1000 539 905 L428 496 Q414 443 414 397 Q414 262 565 262 Q656 262 716 320 Q776 378 803 481 L930 952 Q972 1110 1113 1110 Q1184 1110 1220 1055 Q1256 1000 1229 905 L1026 145 Q1006 68 959 28 Z" /><glyph glyph-name="yacute" unicode="ý" d="M969 1274 Q880 1206 790 1206 Q700 1206 700 1264 Q700 1293 727 1321 L883 1493 Q946 1561 1002 1561 Q1058 1561 1116 1530 Q1174 1498 1173 1462 Q1173 1426 1128 1393 L969 1274 ZM233 1068 Q278 1110 342 1110 Q406 1110 450 1074 Q494 1038 496 977 L559 344 L944 1012 Q997 1110 1102 1110 Q1163 1110 1200 1077 Q1237 1044 1237 996 Q1237 948 1196 883 L627 -27 Q522 -194 420 -264 Q318 -334 201 -334 Q84 -334 35 -311 Q-59 -270 -59 -176 Q-59 -121 -23 -81 Q14 -41 63 -41 Q74 -41 131 -56 Q188 -71 219 -72 Q276 -72 326 -6 L195 891 Q188 926 188 976 Q188 1026 233 1068 Z" /><glyph glyph-name="thorn" unicode="þ" d="M538 1507 Q608 1507 644 1452 Q680 1397 653 1303 L565 979 Q714 1118 886 1118 Q1058 1118 1178 991 Q1298 864 1296 647 Q1296 362 1113 171 Q930 -20 698 -20 Q466 -20 346 160 L256 -182 Q214 -340 72 -340 Q2 -340 -34 -284 Q-70 -228 -43 -135 L354 1350 Q396 1507 538 1507 ZM479 306 Q546 242 662 242 Q778 242 877 353 Q975 465 975 627 Q974 732 912 794 Q850 856 732 856 Q614 856 514 743 Q414 630 414 475 Q414 371 479 306 Z" /><glyph glyph-name="ydieresis" unicode="ÿ" d="M990 1206 Q919 1206 880 1249 Q841 1292 856 1360 Q872 1428 924 1468 Q976 1508 1044 1507 Q1112 1507 1152 1464 Q1192 1421 1180 1362 Q1141 1206 990 1206 ZM674 1246 Q623 1206 552 1206 Q481 1206 442 1248 Q403 1290 418 1359 Q434 1428 485 1468 Q536 1508 605 1507 Q674 1507 715 1463 Q756 1419 740 1353 Q725 1286 674 1246 ZM233 1068 Q278 1110 342 1110 Q406 1110 450 1074 Q494 1038 496 977 L559 344 L944 1012 Q997 1110 1102 1110 Q1163 1110 1200 1077 Q1237 1044 1237 996 Q1237 948 1196 883 L627 -27 Q522 -194 420 -264 Q318 -334 201 -334 Q84 -334 35 -311 Q-59 -270 -59 -176 Q-59 -121 -23 -81 Q14 -41 63 -41 Q74 -41 131 -56 Q188 -71 219 -72 Q276 -72 326 -6 L195 891 Q188 926 188 976 Q188 1026 233 1068 Z" /><glyph glyph-name="Amacron" unicode="&#x100;" d="M1374 1577 L829 1577 Q784 1577 752 1608 Q720 1640 721 1684 Q721 1728 753 1760 Q785 1792 829 1792 L1374 1792 Q1419 1792 1451 1760 Q1483 1728 1483 1683 Q1483 1638 1451 1608 Q1419 1578 1374 1577 ZM1411 139 Q1411 76 1365 32 Q1318 -12 1252 -12 Q1186 -12 1145 23 Q1104 58 1096 113 L1063 322 L428 322 L264 86 Q194 -12 104 -12 Q43 -12 9 22 Q-25 56 -25 111 Q-25 166 12 215 L809 1333 Q895 1456 1030 1456 L1036 1456 Q1181 1457 1208 1307 L1401 221 Q1411 149 1411 139 ZM621 600 L1018 600 L944 1073 L621 600 Z" /><glyph glyph-name="amacron" unicode="&#x101;" d="M481 193 Q561 194 639 258 Q717 322 743 414 L752 442 Q652 481 550 481 Q448 481 386 434 Q324 386 324 322 Q324 192 481 193 ZM1069 1229 L524 1229 Q479 1229 447 1260 Q416 1292 416 1336 Q416 1380 447 1412 Q479 1444 524 1444 L1069 1444 Q1114 1444 1146 1412 Q1178 1380 1178 1335 Q1178 1290 1146 1260 Q1114 1230 1069 1229 ZM813 717 Q813 846 606 846 Q508 846 444 830 Q380 814 365 813 Q312 813 276 849 Q241 885 242 938 Q242 1030 336 1059 Q496 1110 694 1110 Q892 1110 1004 1023 Q1117 936 1116 772 Q1116 700 1092 606 L969 145 Q948 68 902 28 Q856 -12 795 -12 Q652 -12 662 127 Q525 -20 334 -20 Q193 -20 103 62 Q14 145 14 274 Q14 458 147 564 Q280 670 487 670 Q639 670 797 621 Q813 677 813 717 Z" /><glyph glyph-name="Abreve" unicode="&#x102;" d="M1106 1563 Q961 1563 867 1639 Q774 1716 774 1806 Q774 1847 805 1874 Q836 1901 894 1901 Q952 1901 979 1847 Q1024 1765 1118 1765 Q1212 1765 1286 1847 Q1336 1900 1386 1900 Q1436 1900 1460 1877 Q1484 1853 1485 1813 Q1485 1773 1456 1739 Q1313 1563 1106 1563 ZM1411 139 Q1411 76 1365 32 Q1318 -12 1252 -12 Q1186 -12 1145 23 Q1104 58 1096 113 L1063 322 L428 322 L264 86 Q194 -12 104 -12 Q43 -12 9 22 Q-25 56 -25 111 Q-25 166 12 215 L809 1333 Q895 1456 1030 1456 L1036 1456 Q1181 1457 1208 1307 L1401 221 Q1411 149 1411 139 ZM621 600 L1018 600 L944 1073 L621 600 Z" /><glyph glyph-name="abreve" unicode="&#x103;" d="M481 193 Q561 194 639 258 Q717 322 743 414 L752 442 Q652 481 550 481 Q448 481 386 434 Q324 386 324 322 Q324 192 481 193 ZM803 1214 Q658 1214 564 1291 Q471 1368 471 1458 Q471 1499 502 1526 Q533 1553 578 1552 Q648 1552 676 1499 Q721 1417 815 1417 Q909 1417 983 1499 Q1032 1552 1082 1552 Q1182 1552 1182 1464 Q1182 1425 1153 1391 Q1010 1214 803 1214 ZM813 717 Q813 846 606 846 Q508 846 444 830 Q380 814 365 813 Q312 813 276 849 Q241 885 242 938 Q242 1030 336 1059 Q496 1110 694 1110 Q892 1110 1004 1023 Q1117 936 1116 772 Q1116 700 1092 606 L969 145 Q948 68 902 28 Q856 -12 795 -12 Q652 -12 662 127 Q525 -20 334 -20 Q193 -20 103 62 Q14 145 14 274 Q14 458 147 564 Q280 670 487 670 Q639 670 797 621 Q813 677 813 717 Z" /><glyph glyph-name="Aogonek" unicode="&#x104;" d="M621 600 L1018 600 L944 1073 L621 600 ZM1219 -344 Q1119 -344 1060 -308 Q1002 -272 1001 -207 Q1001 -109 1151 16 Q1102 53 1096 113 L1063 322 L428 322 L264 86 Q194 -12 104 -12 Q43 -12 9 22 Q-25 56 -25 111 Q-25 166 12 215 L809 1333 Q895 1456 1030 1456 L1036 1456 Q1181 1456 1208 1307 L1401 221 Q1411 149 1411 139 Q1411 78 1352 18 Q1293 -42 1268 -77 Q1243 -112 1243 -138 Q1243 -164 1257 -174 Q1270 -184 1306 -196 Q1342 -208 1357 -222 Q1372 -237 1370 -266 Q1366 -344 1219 -344 Z" /><glyph glyph-name="aogonek" unicode="&#x105;" d="M481 193 Q561 194 639 258 Q717 322 743 414 L752 442 Q652 481 550 481 Q448 481 386 434 Q324 386 324 322 Q324 192 481 193 ZM813 717 Q813 846 606 846 Q508 846 444 830 Q380 814 365 813 Q312 813 276 849 Q241 885 242 938 Q242 1030 336 1059 Q496 1110 694 1110 Q892 1110 1004 1023 Q1117 936 1116 772 Q1116 700 1092 606 L969 145 Q950 75 895 20 Q784 -91 784 -141 Q784 -164 798 -174 Q812 -184 848 -196 Q883 -208 898 -222 Q913 -237 911 -266 Q907 -344 760 -344 Q660 -344 601 -308 Q543 -272 543 -207 Q543 -105 694 18 Q657 53 662 127 Q525 -20 334 -20 Q193 -20 103 62 Q14 145 14 274 Q14 458 147 564 Q280 670 487 670 Q639 670 797 621 Q813 677 813 717 Z" /><glyph glyph-name="Cacute" unicode="&#x106;" d="M1286 1622 Q1196 1554 1107 1554 Q1018 1554 1018 1612 Q1018 1641 1044 1669 L1200 1841 Q1264 1909 1320 1909 Q1376 1909 1434 1878 Q1492 1846 1491 1810 Q1491 1774 1446 1741 L1286 1622 ZM813 -25 Q516 -25 327 146 Q138 317 137 600 Q137 946 394 1202 Q651 1458 1010 1458 Q1293 1458 1483 1282 Q1548 1221 1548 1151 Q1548 1081 1501 1033 Q1454 985 1384 985 Q1314 984 1264 1042 Q1214 1100 1145 1134 Q1077 1168 971 1167 Q772 1167 618 1002 Q464 837 465 612 Q465 458 563 362 Q661 266 815 266 Q897 266 950 286 Q1002 306 1072 351 Q1142 395 1198 395 Q1254 395 1294 351 Q1335 308 1335 242 Q1335 176 1280 129 Q1198 59 1073 17 Q948 -25 813 -25 Z" /><glyph glyph-name="cacute" unicode="&#x107;" d="M989 1274 Q899 1206 810 1206 Q721 1206 721 1264 Q721 1293 748 1321 L903 1493 Q966 1561 1022 1561 Q1078 1561 1136 1530 Q1194 1498 1194 1462 Q1194 1426 1149 1393 L989 1274 ZM590 -25 Q374 -24 230 112 Q86 248 86 471 Q86 738 278 928 Q470 1118 733 1118 Q962 1118 1104 981 Q1161 928 1161 864 Q1161 800 1118 758 Q1075 715 1012 715 Q949 715 909 760 Q834 852 710 852 Q586 852 490 737 Q394 622 393 471 Q392 368 454 304 Q516 240 611 240 Q706 240 777 288 Q848 336 895 336 Q942 336 978 298 Q1014 260 1014 202 Q1014 144 967 104 Q807 -25 590 -25 Z" /><glyph glyph-name="Cdotaccent" unicode="&#x10a;" d="M1087 1554 Q1015 1554 974 1597 Q933 1640 948 1708 Q964 1776 1018 1816 Q1072 1856 1140 1856 Q1209 1856 1252 1811 Q1295 1767 1279 1700 Q1264 1634 1212 1594 Q1160 1554 1087 1554 ZM813 -25 Q516 -25 327 146 Q138 317 137 600 Q137 946 394 1202 Q651 1458 1010 1458 Q1293 1458 1483 1282 Q1548 1221 1548 1151 Q1548 1081 1501 1033 Q1454 985 1384 985 Q1314 984 1264 1042 Q1214 1100 1145 1134 Q1077 1168 971 1167 Q772 1167 618 1002 Q464 837 465 612 Q465 458 563 362 Q661 266 815 266 Q897 266 950 286 Q1002 306 1072 351 Q1142 395 1198 395 Q1254 395 1294 351 Q1335 308 1335 242 Q1335 176 1280 129 Q1198 59 1073 17 Q948 -25 813 -25 Z" /><glyph glyph-name="cdotaccent" unicode="&#x10b;" d="M792 1206 Q720 1206 679 1249 Q637 1292 653 1360 Q668 1428 722 1468 Q776 1508 845 1507 Q914 1507 956 1464 Q998 1421 985 1362 Q946 1206 792 1206 ZM590 -25 Q374 -24 230 112 Q86 248 86 471 Q86 738 278 928 Q470 1118 733 1118 Q962 1118 1104 981 Q1161 928 1161 864 Q1161 800 1118 758 Q1075 715 1012 715 Q949 715 909 760 Q834 852 710 852 Q586 852 490 737 Q394 622 393 471 Q392 368 454 304 Q516 240 611 240 Q706 240 777 288 Q848 336 895 336 Q942 336 978 298 Q1014 260 1014 202 Q1014 144 967 104 Q807 -25 590 -25 Z" /><glyph glyph-name="Ccaron" unicode="&#x10c;" d="M1436 1901 Q1502 1901 1501 1853 Q1501 1822 1466 1788 L1298 1626 Q1228 1556 1139 1556 L1049 1556 Q944 1556 905 1634 L827 1786 Q800 1833 801 1851 Q801 1900 867 1900 Q934 1900 972 1890 Q1010 1878 1051 1833 L1124 1753 L1241 1833 Q1339 1901 1436 1901 ZM813 -25 Q516 -25 327 146 Q138 317 137 600 Q137 946 394 1202 Q651 1458 1010 1458 Q1293 1458 1483 1282 Q1548 1221 1548 1151 Q1548 1081 1501 1033 Q1454 985 1384 985 Q1314 984 1264 1042 Q1214 1100 1145 1134 Q1077 1168 971 1167 Q772 1167 618 1002 Q464 837 465 612 Q465 458 563 362 Q661 266 815 266 Q897 266 950 286 Q1002 306 1072 351 Q1142 395 1198 395 Q1254 395 1294 351 Q1335 308 1335 242 Q1335 176 1280 129 Q1198 59 1073 17 Q948 -25 813 -25 Z" /><glyph glyph-name="ccaron" unicode="&#x10d;" d="M506 1503 Q506 1552 572 1552 Q638 1552 676 1541 Q714 1530 756 1485 L829 1405 L946 1485 Q1044 1553 1141 1552 Q1207 1552 1206 1505 Q1206 1474 1171 1440 L1004 1278 Q934 1208 844 1208 L754 1208 Q649 1208 610 1286 L532 1438 Q505 1485 506 1503 ZM590 -25 Q374 -24 230 112 Q86 248 86 471 Q86 738 278 928 Q470 1118 733 1118 Q962 1118 1104 981 Q1161 928 1161 864 Q1161 800 1118 758 Q1075 715 1012 715 Q949 715 909 760 Q834 852 710 852 Q586 852 490 737 Q394 622 393 471 Q392 368 454 304 Q516 240 611 240 Q706 240 777 288 Q848 336 895 336 Q942 336 978 298 Q1014 260 1014 202 Q1014 144 967 104 Q807 -25 590 -25 Z" /><glyph glyph-name="Dcaron" unicode="&#x10e;" d="M779 1880 Q846 1880 884 1869 Q922 1858 963 1812 L1036 1733 L1153 1812 Q1251 1880 1348 1880 Q1414 1880 1413 1833 Q1413 1802 1378 1767 L1210 1606 Q1140 1536 1051 1536 L961 1536 Q856 1536 817 1614 L739 1765 Q712 1812 713 1831 Q713 1880 779 1880 ZM543 1434 L827 1434 Q1204 1434 1389 1249 Q1545 1093 1544 829 Q1544 499 1309 264 Q1045 0 557 0 L207 0 Q127 0 91 55 Q55 110 80 205 L367 1276 Q387 1350 434 1392 Q482 1434 543 1434 ZM594 285 Q899 285 1073 459 Q1216 602 1217 817 Q1217 960 1133 1044 Q1029 1148 803 1149 L649 1149 L416 285 L594 285 Z" /><glyph glyph-name="dcaron" unicode="&#x10f;" d="M1704 1497 L1751 1497 Q1810 1497 1810 1450 Q1810 1423 1786 1378 L1638 1112 Q1607 1057 1555 1057 Q1503 1057 1503 1104 Q1503 1117 1507 1133 L1579 1401 Q1604 1497 1704 1497 ZM466 304 Q528 242 646 242 Q764 242 864 354 Q964 466 965 623 Q965 727 899 792 Q832 856 716 856 Q600 856 502 744 Q404 632 403 471 Q403 366 466 304 ZM1063 28 Q1016 -12 950 -12 Q884 -12 848 24 Q812 60 813 119 Q664 -20 492 -20 Q320 -20 201 106 Q82 232 82 451 Q82 736 265 927 Q448 1118 680 1118 Q912 1118 1032 938 L1141 1350 Q1182 1507 1324 1507 Q1395 1507 1431 1452 Q1467 1397 1440 1303 L1130 145 Q1110 68 1063 28 Z" /><glyph glyph-name="Dcroat" unicode="&#x110;" d="M635 285 Q940 285 1114 459 Q1257 602 1257 817 Q1257 960 1174 1044 Q1070 1148 844 1149 L690 1149 L612 860 L737 860 Q794 860 836 819 Q878 778 877 721 Q877 664 836 623 Q795 582 737 582 L537 582 L457 285 L635 285 ZM584 1434 L868 1434 Q1245 1434 1430 1249 Q1586 1093 1585 829 Q1585 499 1350 264 Q1086 0 598 0 L248 0 Q168 0 132 55 Q96 110 121 205 L221 582 L215 582 Q156 582 116 623 Q76 664 76 721 Q76 778 116 819 Q156 860 215 860 L297 860 L408 1276 Q428 1350 475 1392 Q523 1434 584 1434 Z" /><glyph glyph-name="dcroat" unicode="&#x111;" d="M466 304 Q528 242 646 242 Q764 242 864 354 Q964 466 965 623 Q965 727 899 792 Q832 856 716 856 Q600 856 502 744 Q404 632 403 471 Q403 366 466 304 ZM1063 28 Q1016 -12 950 -12 Q884 -12 848 24 Q812 60 813 119 Q664 -20 492 -20 Q320 -20 201 106 Q82 232 82 451 Q82 736 265 927 Q448 1118 680 1118 Q912 1118 1032 938 L1106 1217 L885 1217 Q850 1216 824 1242 Q798 1268 799 1303 Q798 1338 824 1364 Q850 1390 885 1389 L1153 1389 Q1202 1508 1321 1508 Q1440 1508 1450 1389 L1505 1389 Q1540 1389 1566 1363 Q1592 1336 1592 1302 Q1592 1268 1566 1242 Q1540 1216 1505 1217 L1417 1217 L1130 145 Q1110 68 1063 28 Z" /><glyph glyph-name="Emacron" unicode="&#x112;" d="M1278 1556 L733 1556 Q688 1556 656 1587 Q624 1618 625 1663 Q625 1708 656 1740 Q688 1772 733 1772 L1278 1772 Q1323 1772 1355 1740 Q1386 1708 1386 1663 Q1386 1618 1354 1587 Q1322 1556 1278 1556 ZM1014 0 L207 0 Q127 0 91 55 Q55 110 80 205 L367 1276 Q387 1350 434 1392 Q481 1434 543 1434 L1313 1434 Q1372 1434 1413 1393 Q1454 1352 1454 1294 Q1454 1236 1413 1194 Q1372 1153 1313 1153 L647 1153 L569 860 L1067 860 Q1126 860 1167 819 Q1208 778 1208 721 Q1208 664 1167 624 Q1126 584 1067 584 L494 584 L412 281 L1014 281 Q1073 281 1114 239 Q1155 198 1155 140 Q1155 82 1114 41 Q1073 0 1014 0 Z" /><glyph glyph-name="emacron" unicode="&#x113;" d="M891 707 Q891 780 846 824 Q801 868 704 868 Q607 868 524 805 Q442 741 403 635 L881 635 Q891 670 891 707 ZM1098 1229 L553 1229 Q508 1229 476 1260 Q444 1292 444 1336 Q444 1380 476 1412 Q508 1444 553 1444 L1098 1444 Q1143 1444 1175 1412 Q1206 1380 1206 1335 Q1206 1290 1174 1260 Q1142 1230 1098 1229 ZM627 225 Q718 225 784 261 Q850 297 895 297 Q940 297 974 263 Q1008 228 1008 170 Q1008 112 948 74 Q798 -24 576 -24 Q354 -24 219 105 Q84 235 84 463 Q84 625 163 773 Q242 921 394 1020 Q548 1118 746 1118 Q944 1118 1064 998 Q1184 878 1184 690 Q1184 633 1171 578 Q1140 441 1022 440 L377 440 Q394 225 627 225 Z" /><glyph glyph-name="Ebreve" unicode="&#x114;" d="M1010 1542 Q865 1542 771 1619 Q678 1696 678 1786 Q678 1828 709 1854 Q740 1880 797 1880 Q854 1880 883 1827 Q928 1745 1022 1745 Q1116 1745 1190 1827 Q1239 1880 1289 1880 Q1389 1880 1389 1792 Q1389 1753 1360 1718 Q1217 1542 1010 1542 ZM1014 0 L207 0 Q127 0 91 55 Q55 110 80 205 L367 1276 Q387 1350 434 1392 Q481 1434 543 1434 L1313 1434 Q1372 1434 1413 1393 Q1454 1352 1454 1294 Q1454 1236 1413 1194 Q1372 1153 1313 1153 L647 1153 L569 860 L1067 860 Q1126 860 1167 819 Q1208 778 1208 721 Q1208 664 1167 624 Q1126 584 1067 584 L494 584 L412 281 L1014 281 Q1073 281 1114 239 Q1155 198 1155 140 Q1155 82 1114 41 Q1073 0 1014 0 Z" /><glyph glyph-name="ebreve" unicode="&#x115;" d="M891 707 Q891 780 846 824 Q801 868 704 868 Q607 868 524 805 Q442 741 403 635 L881 635 Q891 670 891 707 ZM831 1214 Q686 1214 593 1291 Q500 1368 500 1458 Q500 1499 530 1526 Q561 1553 606 1552 Q676 1552 705 1499 Q750 1417 844 1417 Q938 1417 1012 1499 Q1061 1552 1111 1552 Q1161 1552 1186 1528 Q1210 1504 1210 1465 Q1210 1425 1182 1391 Q1038 1214 831 1214 ZM627 225 Q718 225 784 261 Q850 297 895 297 Q940 297 974 263 Q1008 228 1008 170 Q1008 112 948 74 Q798 -24 576 -24 Q354 -24 219 105 Q84 235 84 463 Q84 625 163 773 Q242 921 394 1020 Q548 1118 746 1118 Q944 1118 1064 998 Q1184 878 1184 690 Q1184 633 1171 578 Q1140 441 1022 440 L377 440 Q394 225 627 225 Z" /><glyph glyph-name="Edotaccent" unicode="&#x116;" d="M1106 1573 Q1053 1534 982 1534 Q911 1534 870 1576 Q829 1618 845 1687 Q860 1756 913 1796 Q966 1836 1035 1835 Q1104 1835 1146 1792 Q1188 1749 1173 1681 Q1158 1613 1106 1573 ZM1014 0 L207 0 Q127 0 91 55 Q55 110 80 205 L367 1276 Q387 1350 434 1392 Q481 1434 543 1434 L1313 1434 Q1372 1434 1413 1393 Q1454 1352 1454 1294 Q1454 1236 1413 1194 Q1372 1153 1313 1153 L647 1153 L569 860 L1067 860 Q1126 860 1167 819 Q1208 778 1208 721 Q1208 664 1167 624 Q1126 584 1067 584 L494 584 L412 281 L1014 281 Q1073 281 1114 239 Q1155 198 1155 140 Q1155 82 1114 41 Q1073 0 1014 0 Z" /><glyph glyph-name="edotaccent" unicode="&#x117;" d="M929 1246 Q877 1206 805 1206 Q733 1206 692 1248 Q651 1290 666 1359 Q682 1428 735 1468 Q788 1508 857 1507 Q926 1507 969 1463 Q1012 1419 996 1353 Q981 1286 929 1246 ZM891 707 Q891 780 846 824 Q801 868 704 868 Q607 868 524 805 Q442 741 403 635 L881 635 Q891 670 891 707 ZM627 225 Q718 225 784 261 Q850 297 895 297 Q940 297 974 263 Q1008 228 1008 170 Q1008 112 948 74 Q798 -24 576 -24 Q354 -24 219 105 Q84 235 84 463 Q84 625 163 773 Q242 921 394 1020 Q548 1118 746 1118 Q944 1118 1064 998 Q1184 878 1184 690 Q1184 633 1171 578 Q1140 441 1022 440 L377 440 Q394 225 627 225 Z" /><glyph glyph-name="Eogonek" unicode="&#x118;" d="M944 -344 Q844 -344 785 -308 Q727 -272 727 -207 Q727 -117 864 0 L207 0 Q127 0 91 55 Q55 110 80 205 L367 1276 Q387 1350 434 1392 Q481 1434 543 1434 L1313 1434 Q1372 1434 1413 1393 Q1454 1352 1454 1294 Q1454 1236 1413 1194 Q1372 1153 1313 1153 L647 1153 L569 860 L1067 860 Q1126 860 1167 819 Q1208 778 1208 721 Q1208 664 1167 624 Q1126 584 1067 584 L494 584 L412 281 L1014 281 Q1073 281 1114 239 Q1155 196 1155 136 Q1155 76 1083 12 Q1012 -52 990 -83 Q968 -112 968 -138 Q968 -164 983 -174 Q997 -184 1032 -196 Q1067 -208 1082 -222 Q1097 -237 1096 -266 Q1092 -344 944 -344 Z" /><glyph glyph-name="eogonek" unicode="&#x119;" d="M891 707 Q891 780 846 824 Q801 868 704 868 Q607 868 524 805 Q442 741 403 635 L881 635 Q891 670 891 707 ZM770 -141 Q770 -164 784 -174 Q798 -184 833 -196 Q868 -208 884 -222 Q900 -237 897 -266 Q893 -344 745 -344 Q528 -344 528 -196 Q528 -120 631 -23 Q619 -25 592 -25 Q354 -25 219 105 Q84 235 84 463 Q84 625 163 773 Q242 921 394 1020 Q548 1118 746 1118 Q944 1118 1064 998 Q1184 878 1184 690 Q1184 633 1171 578 Q1140 441 1022 440 L377 440 Q393 225 627 225 Q718 225 784 261 Q850 297 895 297 Q940 297 974 263 Q1008 229 1008 174 Q1008 119 950 76 Q770 -59 770 -141 Z" /><glyph glyph-name="Ecaron" unicode="&#x11a;" d="M696 1831 Q696 1880 762 1880 Q828 1880 867 1869 Q905 1858 946 1812 L1020 1733 L1137 1812 Q1235 1880 1331 1880 Q1397 1880 1397 1833 Q1397 1802 1362 1767 L1194 1606 Q1124 1536 1034 1536 L944 1536 Q840 1536 801 1614 L723 1765 Q696 1812 696 1831 ZM1014 0 L207 0 Q127 0 91 55 Q55 110 80 205 L367 1276 Q387 1350 434 1392 Q481 1434 543 1434 L1313 1434 Q1372 1434 1413 1393 Q1454 1352 1454 1294 Q1454 1236 1413 1194 Q1372 1153 1313 1153 L647 1153 L569 860 L1067 860 Q1126 860 1167 819 Q1208 778 1208 721 Q1208 664 1167 624 Q1126 584 1067 584 L494 584 L412 281 L1014 281 Q1073 281 1114 239 Q1155 198 1155 140 Q1155 82 1114 41 Q1073 0 1014 0 Z" /><glyph glyph-name="ecaron" unicode="&#x11b;" d="M891 707 Q891 780 846 824 Q801 868 704 868 Q607 868 524 805 Q442 741 403 635 L881 635 Q891 670 891 707 ZM518 1503 Q518 1552 584 1552 Q650 1552 689 1541 Q727 1530 768 1485 L842 1405 L958 1485 Q1056 1553 1153 1552 Q1219 1552 1219 1505 Q1219 1474 1184 1440 L1016 1278 Q946 1208 856 1208 L766 1208 Q662 1208 623 1286 L545 1438 Q518 1485 518 1503 ZM627 225 Q718 225 784 261 Q850 297 895 297 Q940 297 974 263 Q1008 228 1008 170 Q1008 112 948 74 Q798 -24 576 -24 Q354 -24 219 105 Q84 235 84 463 Q84 625 163 773 Q242 921 394 1020 Q548 1118 746 1118 Q944 1118 1064 998 Q1184 878 1184 690 Q1184 633 1171 578 Q1140 441 1022 440 L377 440 Q394 225 627 225 Z" /><glyph glyph-name="Gbreve" unicode="&#x11e;" d="M1133 1563 Q988 1563 894 1639 Q801 1716 801 1806 Q801 1847 831 1874 Q862 1901 920 1901 Q978 1901 1006 1847 Q1051 1765 1145 1765 Q1239 1765 1313 1847 Q1362 1900 1412 1900 Q1462 1900 1487 1877 Q1512 1853 1512 1813 Q1512 1773 1483 1739 Q1340 1563 1133 1563 ZM1030 1458 Q1198 1458 1328 1412 Q1458 1366 1530 1298 Q1593 1243 1593 1174 Q1593 1104 1548 1060 Q1503 1016 1444 1016 Q1385 1016 1339 1049 Q1260 1110 1186 1140 Q1112 1170 1006 1169 Q779 1169 621 1002 Q463 835 463 608 Q463 446 567 355 Q670 264 816 264 Q962 264 1085 319 L1153 553 L977 553 Q920 553 880 592 Q840 631 840 688 Q840 745 880 785 Q920 825 977 825 L1348 825 Q1428 825 1465 770 Q1502 715 1475 623 L1362 227 Q1331 114 1235 63 Q1067 -25 806 -25 Q545 -25 349 125 Q252 199 194 322 Q136 445 135 598 Q135 821 250 1018 Q364 1214 572 1336 Q780 1458 1030 1458 Z" /><glyph glyph-name="gbreve" unicode="&#x11f;" d="M901 1214 Q756 1214 663 1291 Q570 1368 569 1458 Q569 1499 600 1526 Q631 1553 676 1552 Q746 1552 774 1499 Q820 1417 914 1417 Q1008 1417 1081 1499 Q1130 1552 1180 1552 Q1280 1552 1280 1464 Q1280 1425 1251 1391 Q1108 1214 901 1214 ZM1092 1066 Q1134 1110 1208 1110 Q1282 1110 1318 1055 Q1354 1000 1327 905 L1143 215 Q1100 51 1059 -31 Q909 -332 512 -332 Q252 -332 39 -238 Q-49 -197 -49 -119 Q-49 -64 -12 -24 Q25 16 73 16 Q121 16 170 -8 Q326 -86 484 -86 Q642 -86 729 2 Q790 63 829 199 L840 236 Q752 158 674 124 Q596 90 496 90 Q328 90 208 192 Q88 294 88 473 Q88 742 271 930 Q454 1118 684 1118 Q914 1118 1022 928 L1030 952 Q1048 1022 1092 1066 ZM618 338 Q747 338 845 433 Q942 528 942 657 Q942 750 883 804 Q824 858 710 858 Q596 858 503 760 Q410 662 410 532 Q410 438 467 388 Q524 338 618 338 Z" /><glyph glyph-name="Gdotaccent" unicode="&#x120;" d="M1229 1594 Q1176 1554 1105 1554 Q1034 1554 993 1596 Q952 1638 967 1707 Q983 1776 1036 1816 Q1089 1856 1158 1856 Q1227 1856 1270 1811 Q1313 1767 1297 1701 Q1282 1634 1229 1594 ZM1030 1458 Q1198 1458 1328 1412 Q1458 1366 1530 1298 Q1593 1243 1593 1174 Q1593 1104 1548 1060 Q1503 1016 1444 1016 Q1385 1016 1339 1049 Q1260 1110 1186 1140 Q1112 1170 1006 1169 Q779 1169 621 1002 Q463 835 463 608 Q463 446 567 355 Q670 264 816 264 Q962 264 1085 319 L1153 553 L977 553 Q920 553 880 592 Q840 631 840 688 Q840 745 880 785 Q920 825 977 825 L1348 825 Q1428 825 1465 770 Q1502 715 1475 623 L1362 227 Q1331 114 1235 63 Q1067 -25 806 -25 Q545 -25 349 125 Q252 199 194 322 Q136 445 135 598 Q135 821 250 1018 Q364 1214 572 1336 Q780 1458 1030 1458 Z" /><glyph glyph-name="gdotaccent" unicode="&#x121;" d="M998 1246 Q946 1206 874 1206 Q802 1206 761 1249 Q720 1292 735 1360 Q750 1428 804 1468 Q858 1508 927 1507 Q996 1507 1039 1463 Q1082 1419 1066 1352 Q1050 1286 998 1246 ZM1092 1066 Q1134 1110 1208 1110 Q1282 1110 1318 1055 Q1354 1000 1327 905 L1143 215 Q1100 51 1059 -31 Q909 -332 512 -332 Q252 -332 39 -238 Q-49 -197 -49 -119 Q-49 -64 -12 -24 Q25 16 73 16 Q121 16 170 -8 Q326 -86 484 -86 Q642 -86 729 2 Q790 63 829 199 L840 236 Q752 158 674 124 Q596 90 496 90 Q328 90 208 192 Q88 294 88 473 Q88 742 271 930 Q454 1118 684 1118 Q914 1118 1022 928 L1030 952 Q1048 1022 1092 1066 ZM618 338 Q747 338 845 433 Q942 528 942 657 Q942 750 883 804 Q824 858 710 858 Q596 858 503 760 Q410 662 410 532 Q410 438 467 388 Q524 338 618 338 Z" /><glyph glyph-name="Gcommaaccent" unicode="&#x122;" d="M518 -260 Q518 -201 564 -160 Q610 -119 677 -119 Q744 -119 782 -157 Q820 -195 819 -262 Q818 -388 708 -498 Q598 -608 453 -608 Q396 -608 395 -563 Q395 -520 459 -508 Q615 -480 633 -367 Q518 -342 518 -260 ZM1030 1458 Q1198 1458 1328 1412 Q1458 1366 1530 1298 Q1593 1243 1593 1174 Q1593 1104 1548 1060 Q1503 1016 1444 1016 Q1385 1016 1339 1049 Q1260 1110 1186 1140 Q1112 1170 1006 1169 Q779 1169 621 1002 Q463 835 463 608 Q463 446 567 355 Q670 264 816 264 Q962 264 1085 319 L1153 553 L977 553 Q920 553 880 592 Q840 631 840 688 Q840 745 880 785 Q920 825 977 825 L1348 825 Q1428 825 1465 770 Q1502 715 1475 623 L1362 227 Q1331 114 1235 63 Q1067 -25 806 -25 Q545 -25 349 125 Q252 199 194 322 Q136 445 135 598 Q135 821 250 1018 Q364 1214 572 1336 Q780 1458 1030 1458 Z" /><glyph glyph-name="gcommaaccent" unicode="&#x123;" d="M994 1248 Q948 1206 882 1206 Q816 1206 777 1244 Q739 1282 739 1350 Q739 1476 850 1586 Q961 1696 1106 1696 Q1163 1696 1163 1652 Q1163 1608 1100 1595 Q944 1567 926 1454 Q1041 1429 1040 1348 Q1040 1290 994 1248 ZM1092 1066 Q1134 1110 1208 1110 Q1282 1110 1318 1055 Q1354 1000 1327 905 L1143 215 Q1100 51 1059 -31 Q909 -332 512 -332 Q252 -332 39 -238 Q-49 -197 -49 -119 Q-49 -64 -12 -24 Q25 16 73 16 Q121 16 170 -8 Q326 -86 484 -86 Q642 -86 729 2 Q790 63 829 199 L840 236 Q752 158 674 124 Q596 90 496 90 Q328 90 208 192 Q88 294 88 473 Q88 742 271 930 Q454 1118 684 1118 Q914 1118 1022 928 L1030 952 Q1048 1022 1092 1066 ZM618 338 Q747 338 845 433 Q942 528 942 657 Q942 750 883 804 Q824 858 710 858 Q596 858 503 760 Q410 662 410 532 Q410 438 467 388 Q524 338 618 338 Z" /><glyph glyph-name="Hbar" unicode="&#x126;" d="M573 866 L1147 866 L1196 1049 L623 1049 L573 866 ZM1589 1049 L1509 1049 L1268 145 Q1248 72 1200 30 Q1152 -12 1082 -12 Q1012 -12 976 43 Q940 98 965 193 L1069 575 L496 575 L379 145 Q360 72 312 30 Q264 -12 194 -12 Q124 -12 87 43 Q51 98 76 193 L305 1049 L287 1049 Q242 1050 210 1080 Q178 1110 178 1155 Q178 1200 210 1232 Q242 1264 287 1264 L365 1264 L371 1288 Q391 1362 438 1404 Q485 1446 554 1446 Q622 1446 658 1397 Q694 1348 678 1264 L1253 1264 L1260 1288 Q1280 1362 1327 1404 Q1374 1446 1443 1446 Q1512 1446 1548 1397 Q1584 1348 1567 1264 L1589 1264 Q1634 1264 1666 1232 Q1698 1200 1698 1155 Q1698 1110 1666 1080 Q1634 1050 1589 1049 Z" /><glyph glyph-name="hbar" unicode="&#x127;" d="M860 700 Q860 835 709 836 Q618 836 558 778 Q498 720 471 616 L344 145 Q303 -12 161 -12 Q90 -12 54 43 Q18 98 45 193 L315 1217 L274 1217 Q240 1216 214 1242 Q188 1268 188 1303 Q188 1338 214 1364 Q240 1390 274 1389 L365 1389 Q414 1508 532 1508 Q650 1508 662 1389 L895 1389 Q930 1389 956 1363 Q982 1336 981 1302 Q981 1268 955 1242 Q929 1216 895 1217 L629 1217 L567 983 Q719 1118 866 1118 Q1014 1118 1102 1032 Q1190 946 1190 799 Q1190 729 1153 590 L1034 145 Q993 -12 851 -12 Q780 -12 744 43 Q708 98 735 193 L846 602 Q860 655 860 700 Z" /><glyph glyph-name="Imacron" unicode="&#x12a;" d="M915 1556 L371 1556 Q326 1556 294 1587 Q262 1618 262 1663 Q262 1708 294 1740 Q326 1772 371 1772 L915 1772 Q960 1772 992 1740 Q1024 1708 1024 1663 Q1024 1618 992 1587 Q960 1556 915 1556 ZM326 30 Q279 -12 208 -12 Q137 -12 101 43 Q65 98 90 193 L385 1288 Q404 1362 452 1404 Q500 1446 570 1446 Q640 1446 677 1390 Q713 1334 688 1241 L393 145 Q373 72 326 30 Z" /><glyph glyph-name="imacron" unicode="&#x12b;" d="M793 1229 L248 1229 Q203 1229 171 1260 Q139 1292 139 1336 Q139 1380 171 1412 Q203 1444 248 1444 L793 1444 Q838 1444 870 1412 Q902 1380 901 1335 Q902 1290 870 1260 Q838 1230 793 1229 ZM446 1110 Q516 1110 552 1054 Q588 998 561 905 L356 145 Q315 -12 173 -12 Q102 -12 66 43 Q30 98 57 193 L262 952 Q304 1110 446 1110 Z" /><glyph glyph-name="Ibreve" unicode="&#x12c;" d="M647 1542 Q502 1542 409 1619 Q316 1696 315 1786 Q315 1828 346 1854 Q376 1880 434 1880 Q492 1880 520 1827 Q566 1745 660 1745 Q754 1745 827 1827 Q876 1880 926 1880 Q1026 1880 1026 1792 Q1026 1753 997 1718 Q854 1542 647 1542 ZM326 30 Q279 -12 208 -12 Q137 -12 101 43 Q65 98 90 193 L385 1288 Q404 1362 452 1404 Q500 1446 570 1446 Q640 1446 677 1390 Q713 1334 688 1241 L393 145 Q373 72 326 30 Z" /><glyph glyph-name="ibreve" unicode="&#x12d;" d="M524 1214 Q379 1214 286 1291 Q193 1368 193 1458 Q193 1499 223 1526 Q254 1553 299 1552 Q369 1552 397 1499 Q442 1417 536 1417 Q630 1417 705 1499 Q754 1552 804 1552 Q854 1552 879 1528 Q904 1504 904 1465 Q904 1425 874 1391 Q731 1214 524 1214 ZM446 1110 Q516 1110 552 1054 Q588 998 561 905 L356 145 Q315 -12 173 -12 Q102 -12 66 43 Q30 98 57 193 L262 952 Q304 1110 446 1110 Z" /><glyph glyph-name="Iogonek" unicode="&#x12e;" d="M182 -344 Q82 -344 24 -308 Q-34 -272 -35 -207 Q-35 -109 119 20 Q58 75 90 193 L385 1288 Q404 1362 452 1404 Q500 1446 570 1446 Q640 1446 677 1391 Q713 1336 688 1241 L393 145 Q373 73 319 20 Q206 -91 207 -141 Q207 -164 221 -174 Q235 -184 270 -196 Q304 -208 320 -222 Q336 -237 334 -266 Q329 -344 182 -344 Z" /><glyph glyph-name="iogonek" unicode="&#x12f;" d="M172 -141 Q172 -164 186 -174 Q200 -184 235 -196 Q270 -208 286 -222 Q302 -237 299 -266 Q295 -344 147 -344 Q47 -344 -11 -308 Q-69 -272 -70 -207 Q-70 -109 84 20 Q47 60 47 106 Q47 152 57 193 L262 952 Q304 1110 446 1110 Q516 1110 552 1054 Q588 998 561 905 L356 145 Q338 75 283 20 Q172 -91 172 -141 ZM631 1247 Q576 1208 501 1208 Q426 1208 382 1249 Q338 1290 352 1359 Q366 1428 422 1466 Q478 1504 552 1505 Q627 1505 671 1464 Q715 1423 700 1355 Q686 1286 631 1247 Z" /><glyph glyph-name="Idotaccent" unicode="&#x130;" d="M553 1796 Q606 1835 675 1835 Q744 1835 786 1792 Q828 1749 812 1681 Q797 1613 745 1573 Q692 1534 622 1534 Q552 1534 510 1576 Q469 1618 484 1687 Q499 1756 553 1796 ZM326 30 Q279 -12 208 -12 Q137 -12 101 43 Q65 98 90 193 L385 1288 Q404 1362 452 1404 Q500 1446 570 1446 Q640 1446 677 1390 Q713 1334 688 1241 L393 145 Q373 72 326 30 Z" /><glyph glyph-name="dotlessi" unicode="&#x131;" d="M446 1110 Q516 1110 552 1054 Q588 998 561 905 L356 145 Q315 -12 173 -12 Q102 -12 66 43 Q30 98 57 193 L262 952 Q304 1110 446 1110 Z" /><glyph glyph-name="Kcommaaccent" unicode="&#x136;" d="M465 -240 Q465 -182 511 -140 Q557 -98 624 -98 Q690 -98 728 -136 Q766 -174 766 -242 Q766 -368 656 -478 Q546 -588 399 -588 Q342 -588 342 -544 Q342 -500 406 -487 Q562 -459 580 -346 Q465 -321 465 -240 ZM312 30 Q264 -12 194 -12 Q124 -12 87 43 Q51 98 76 193 L371 1288 Q391 1362 438 1404 Q485 1446 556 1446 Q627 1446 663 1391 Q699 1336 674 1241 L555 799 L1253 1384 Q1327 1446 1387 1446 Q1448 1446 1488 1405 Q1528 1364 1528 1298 Q1528 1232 1473 1188 L1012 811 L1266 231 Q1324 94 1242 27 Q1194 -12 1133 -12 Q1018 -12 973 98 L754 635 L444 391 L379 145 Q360 72 312 30 Z" /><glyph glyph-name="kcommaaccent" unicode="&#x137;" d="M446 -109 Q512 -108 550 -146 Q588 -184 588 -252 Q588 -378 477 -488 Q366 -598 221 -598 Q164 -598 164 -554 Q164 -510 227 -498 Q383 -469 401 -356 Q286 -331 287 -250 Q287 -191 333 -150 Q380 -109 446 -109 ZM963 1055 Q1034 1110 1086 1110 Q1138 1110 1174 1074 Q1210 1038 1210 978 Q1210 918 1153 879 L829 643 L999 231 Q1026 168 1026 115 Q1026 62 978 25 Q930 -12 866 -12 Q749 -12 705 100 L559 449 L391 326 L344 145 Q303 -12 161 -12 Q90 -12 54 43 Q18 98 45 193 L356 1350 Q398 1507 540 1507 Q610 1507 646 1452 Q682 1397 655 1303 L492 696 L963 1055 Z" /><glyph glyph-name="Lacute" unicode="&#x139;" d="M844 1602 Q754 1534 665 1534 Q576 1534 575 1591 Q575 1620 602 1649 L758 1821 Q821 1888 877 1888 Q933 1888 991 1858 Q1048 1827 1048 1790 Q1048 1753 1004 1720 L844 1602 ZM965 0 L207 0 Q127 0 91 55 Q55 110 80 205 L371 1288 Q391 1362 438 1404 Q485 1446 556 1446 Q627 1446 663 1391 Q699 1336 674 1241 L418 287 L965 287 Q1024 287 1065 245 Q1106 202 1106 142 Q1106 82 1065 41 Q1024 0 965 0 Z" /><glyph glyph-name="lacute" unicode="&#x13a;" d="M530 1622 Q530 1651 557 1679 L713 1851 Q776 1919 832 1919 Q888 1919 946 1888 Q1004 1858 1003 1822 Q1003 1786 958 1751 L799 1632 Q710 1564 620 1564 Q530 1564 530 1622 ZM552 1507 Q623 1507 659 1452 Q695 1397 668 1303 L356 145 Q315 -12 173 -12 Q102 -12 66 43 Q30 98 57 193 L369 1350 Q410 1507 552 1507 Z" /><glyph glyph-name="Lcommaaccent" unicode="&#x13b;" d="M340 -250 Q340 -191 386 -150 Q432 -109 499 -109 Q566 -108 604 -146 Q642 -184 641 -252 Q640 -378 530 -488 Q420 -598 274 -598 Q217 -598 217 -554 Q217 -510 281 -498 Q437 -469 455 -356 Q340 -331 340 -250 ZM965 0 L207 0 Q127 0 91 55 Q55 110 80 205 L371 1288 Q391 1362 438 1404 Q485 1446 556 1446 Q627 1446 663 1391 Q699 1336 674 1241 L418 287 L965 287 Q1024 287 1065 245 Q1106 202 1106 142 Q1106 82 1065 41 Q1024 0 965 0 Z" /><glyph glyph-name="lcommaaccent" unicode="&#x13c;" d="M138 -109 Q204 -108 243 -146 Q281 -184 281 -252 Q281 -378 170 -488 Q59 -598 -86 -598 Q-143 -598 -143 -554 Q-143 -510 -80 -498 Q76 -469 94 -356 Q-21 -331 -20 -250 Q-20 -191 26 -150 Q72 -109 138 -109 ZM552 1507 Q623 1507 659 1452 Q695 1397 668 1303 L356 145 Q315 -12 173 -12 Q102 -12 66 43 Q30 98 57 193 L369 1350 Q410 1507 552 1507 Z" /><glyph glyph-name="Lcaron" unicode="&#x13d;" d="M985 1436 Q1044 1436 1044 1389 Q1044 1362 1020 1317 L872 1051 Q842 996 790 996 Q738 996 737 1042 Q737 1055 741 1071 L813 1339 Q838 1435 938 1436 L985 1436 ZM965 0 L207 0 Q127 0 91 55 Q55 110 80 205 L371 1288 Q391 1362 438 1404 Q485 1446 556 1446 Q627 1446 663 1391 Q699 1336 674 1241 L418 287 L965 287 Q1024 287 1065 245 Q1106 202 1106 142 Q1106 82 1065 41 Q1024 0 965 0 Z" /><glyph glyph-name="lcaron" unicode="&#x13e;" d="M932 1497 L979 1497 Q1038 1497 1038 1450 Q1038 1423 1014 1378 L866 1112 Q835 1057 783 1057 Q731 1057 731 1104 Q731 1117 735 1133 L807 1401 Q832 1497 932 1497 ZM552 1507 Q623 1507 659 1452 Q695 1397 668 1303 L356 145 Q315 -12 173 -12 Q102 -12 66 43 Q30 98 57 193 L369 1350 Q410 1507 552 1507 Z" /><glyph glyph-name="Ldot" unicode="&#x13f;" d="M965 0 L207 0 Q127 0 91 55 Q55 110 80 205 L371 1288 Q391 1362 438 1404 Q485 1446 556 1446 Q627 1446 663 1391 Q699 1336 674 1241 L418 287 L965 287 Q1024 287 1065 245 Q1106 202 1106 142 Q1106 82 1065 41 Q1024 0 965 0 ZM1026 633 Q954 633 913 675 Q872 717 887 786 Q903 854 956 894 Q1009 934 1078 934 Q1147 934 1190 890 Q1233 846 1218 779 Q1202 712 1150 672 Q1098 632 1026 633 Z" /><glyph glyph-name="ldot" unicode="&#x140;" d="M552 1507 Q623 1507 659 1452 Q695 1397 668 1303 L356 145 Q315 -12 173 -12 Q102 -12 66 43 Q30 98 57 193 L369 1350 Q410 1507 552 1507 ZM754 637 Q695 637 663 679 Q631 721 643 784 Q655 848 693 882 Q731 916 789 916 Q847 916 881 876 Q914 835 901 768 Q876 637 754 637 Z" /><glyph glyph-name="Lslash" unicode="&#x141;" d="M614 1446 Q684 1446 718 1391 Q752 1336 727 1241 L641 922 L848 979 Q881 987 899 987 Q958 987 995 952 Q1032 917 1032 860 Q1032 760 932 731 L561 627 L471 287 L1028 287 Q1087 287 1128 245 Q1169 202 1169 142 Q1169 82 1128 41 Q1087 0 1028 0 L270 0 Q190 0 154 55 Q118 110 143 205 L233 539 L219 539 Q160 540 123 574 Q86 608 86 666 Q86 766 186 795 L311 829 L434 1288 Q476 1446 614 1446 Z" /><glyph glyph-name="lslash" unicode="&#x142;" d="M614 1507 Q684 1507 720 1452 Q756 1397 729 1303 L635 956 Q645 958 682 958 Q719 958 751 924 Q783 890 782 834 Q782 723 666 694 L557 664 L418 145 Q376 -12 234 -12 Q164 -12 128 43 Q92 98 119 193 L221 573 Q211 571 175 571 Q140 571 108 606 Q76 641 76 696 Q76 807 193 836 L299 864 L430 1350 Q472 1507 614 1507 Z" /><glyph glyph-name="Nacute" unicode="&#x143;" d="M1280 1602 Q1190 1534 1101 1534 Q1012 1534 1012 1591 Q1012 1620 1038 1649 L1194 1821 Q1258 1888 1314 1888 Q1370 1888 1427 1858 Q1484 1828 1484 1790 Q1484 1753 1440 1720 L1280 1602 ZM1508 1446 Q1578 1446 1615 1391 Q1651 1336 1624 1241 L1327 139 Q1288 -8 1157 -8 L1151 -8 Q1079 -8 1039 20 Q999 48 971 111 L588 940 L375 145 Q334 -12 192 -12 Q122 -12 85 43 Q49 98 76 193 L369 1284 Q410 1442 555 1442 L569 1442 Q698 1442 754 1317 L1118 522 L1325 1288 Q1366 1446 1508 1446 Z" /><glyph glyph-name="nacute" unicode="&#x144;" d="M1006 1274 Q916 1206 826 1206 Q736 1206 737 1264 Q737 1293 764 1321 L920 1493 Q983 1561 1039 1561 Q1094 1561 1152 1530 Q1210 1498 1210 1462 Q1210 1426 1165 1393 L1006 1274 ZM315 1069 Q362 1110 428 1110 Q494 1110 530 1074 Q566 1038 567 983 Q719 1118 866 1118 Q1014 1118 1102 1032 Q1190 946 1190 799 Q1190 729 1153 590 L1034 145 Q993 -12 851 -12 Q780 -12 744 43 Q708 98 735 193 L846 602 Q860 655 860 700 Q860 835 709 836 Q618 836 558 778 Q498 720 471 616 L344 145 Q303 -12 161 -12 Q90 -12 54 43 Q18 98 45 193 L248 952 Q268 1028 315 1069 Z" /><glyph glyph-name="Ncommaaccent" unicode="&#x145;" d="M477 -240 Q477 -182 523 -140 Q569 -98 636 -98 Q702 -98 740 -136 Q778 -174 778 -242 Q778 -368 668 -478 Q558 -588 412 -588 Q355 -588 354 -543 Q354 -500 418 -487 Q574 -459 592 -346 Q477 -321 477 -240 ZM1508 1446 Q1578 1446 1615 1391 Q1651 1336 1624 1241 L1327 139 Q1288 -8 1157 -8 L1151 -8 Q1079 -8 1039 20 Q999 48 971 111 L588 940 L375 145 Q334 -12 192 -12 Q122 -12 85 43 Q49 98 76 193 L369 1284 Q410 1442 555 1442 L569 1442 Q698 1442 754 1317 L1118 522 L1325 1288 Q1366 1446 1508 1446 Z" /><glyph glyph-name="ncommaaccent" unicode="&#x146;" d="M446 -109 Q512 -108 550 -146 Q588 -184 588 -252 Q588 -378 477 -488 Q366 -598 221 -598 Q164 -598 164 -554 Q164 -510 227 -498 Q383 -469 401 -356 Q286 -331 287 -250 Q287 -191 333 -150 Q380 -109 446 -109 ZM315 1069 Q362 1110 428 1110 Q494 1110 530 1074 Q566 1038 567 983 Q719 1118 866 1118 Q1014 1118 1102 1032 Q1190 946 1190 799 Q1190 729 1153 590 L1034 145 Q993 -12 851 -12 Q780 -12 744 43 Q708 98 735 193 L846 602 Q860 655 860 700 Q860 835 709 836 Q618 836 558 778 Q498 720 471 616 L344 145 Q303 -12 161 -12 Q90 -12 54 43 Q18 98 45 193 L248 952 Q268 1028 315 1069 Z" /><glyph glyph-name="Ncaron" unicode="&#x147;" d="M861 1880 Q928 1880 966 1869 Q1004 1858 1044 1812 L1118 1733 L1235 1812 Q1333 1880 1430 1880 Q1496 1880 1495 1833 Q1495 1802 1460 1767 L1292 1606 Q1222 1536 1133 1536 L1042 1536 Q938 1536 899 1614 L821 1765 Q794 1812 795 1831 Q795 1880 861 1880 ZM1508 1446 Q1578 1446 1615 1391 Q1651 1336 1624 1241 L1327 139 Q1288 -8 1157 -8 L1151 -8 Q1079 -8 1039 20 Q999 48 971 111 L588 940 L375 145 Q334 -12 192 -12 Q122 -12 85 43 Q49 98 76 193 L369 1284 Q410 1442 555 1442 L569 1442 Q698 1442 754 1317 L1118 522 L1325 1288 Q1366 1446 1508 1446 Z" /><glyph glyph-name="ncaron" unicode="&#x148;" d="M520 1503 Q520 1552 586 1552 Q652 1552 691 1541 Q729 1530 770 1485 L844 1405 L961 1485 Q1059 1553 1155 1552 Q1221 1552 1221 1505 Q1221 1474 1186 1440 L1018 1278 Q948 1208 858 1208 L768 1208 Q664 1208 625 1286 L547 1438 Q520 1485 520 1503 ZM315 1069 Q362 1110 428 1110 Q494 1110 530 1074 Q566 1038 567 983 Q719 1118 866 1118 Q1014 1118 1102 1032 Q1190 946 1190 799 Q1190 729 1153 590 L1034 145 Q993 -12 851 -12 Q780 -12 744 43 Q708 98 735 193 L846 602 Q860 655 860 700 Q860 835 709 836 Q618 836 558 778 Q498 720 471 616 L344 145 Q303 -12 161 -12 Q90 -12 54 43 Q18 98 45 193 L248 952 Q268 1028 315 1069 Z" /><glyph glyph-name="Omacron" unicode="&#x14c;" d="M1411 1577 L866 1577 Q822 1577 790 1608 Q758 1640 758 1684 Q758 1728 790 1760 Q822 1792 866 1792 L1411 1792 Q1456 1792 1488 1760 Q1520 1728 1520 1683 Q1520 1638 1488 1608 Q1456 1578 1411 1577 ZM829 266 Q1044 266 1186 435 Q1327 604 1327 786 Q1327 968 1231 1067 Q1135 1167 963 1167 Q748 1167 606 998 Q464 829 465 648 Q465 466 561 366 Q657 266 829 266 ZM793 -25 Q500 -24 318 156 Q136 336 137 610 Q137 825 244 1019 Q350 1214 551 1336 Q752 1458 999 1458 Q1292 1458 1474 1278 Q1656 1098 1655 823 Q1654 608 1548 414 Q1442 220 1242 98 Q1042 -25 793 -25 Z" /><glyph glyph-name="omacron" unicode="&#x14d;" d="M1143 1229 L598 1229 Q553 1229 521 1260 Q489 1292 489 1336 Q489 1380 521 1412 Q553 1444 598 1444 L1143 1444 Q1188 1444 1220 1412 Q1252 1380 1252 1335 Q1252 1290 1220 1260 Q1188 1230 1143 1229 ZM456 308 Q520 242 642 242 Q764 242 854 358 Q944 474 944 598 Q944 720 880 786 Q816 852 694 852 Q572 852 482 735 Q392 618 391 496 Q392 374 456 308 ZM1249 597 Q1250 360 1062 168 Q874 -24 624 -25 Q374 -24 230 118 Q86 260 86 496 Q86 732 273 926 Q460 1118 710 1118 Q960 1118 1105 976 Q1249 834 1249 597 Z" /><glyph glyph-name="Obreve" unicode="&#x14e;" d="M1145 1563 Q1000 1563 906 1639 Q813 1716 813 1806 Q813 1847 844 1874 Q874 1901 932 1901 Q990 1901 1018 1847 Q1063 1765 1157 1765 Q1251 1765 1325 1847 Q1374 1900 1424 1900 Q1474 1900 1500 1877 Q1524 1853 1524 1813 Q1524 1773 1495 1739 Q1352 1563 1145 1563 ZM829 266 Q1044 266 1186 435 Q1327 604 1327 786 Q1327 968 1231 1067 Q1135 1167 963 1167 Q748 1167 606 998 Q464 829 465 648 Q465 466 561 366 Q657 266 829 266 ZM793 -25 Q500 -24 318 156 Q136 336 137 610 Q137 825 244 1019 Q350 1214 551 1336 Q752 1458 999 1458 Q1292 1458 1474 1278 Q1656 1098 1655 823 Q1654 608 1548 414 Q1442 220 1242 98 Q1042 -25 793 -25 Z" /><glyph glyph-name="obreve" unicode="&#x14f;" d="M877 1214 Q732 1214 638 1291 Q545 1368 545 1458 Q545 1499 575 1526 Q606 1553 651 1552 Q721 1552 750 1499 Q795 1417 889 1417 Q983 1417 1057 1499 Q1106 1552 1156 1552 Q1206 1552 1231 1528 Q1256 1504 1256 1465 Q1256 1425 1227 1391 Q1084 1214 877 1214 ZM456 308 Q520 242 642 242 Q764 242 854 358 Q944 474 944 598 Q944 720 880 786 Q816 852 694 852 Q572 852 482 735 Q392 618 391 496 Q392 374 456 308 ZM1249 597 Q1250 360 1062 168 Q874 -24 624 -25 Q374 -24 230 118 Q86 260 86 496 Q86 732 273 926 Q460 1118 710 1118 Q960 1118 1105 976 Q1249 834 1249 597 Z" /><glyph glyph-name="Ohungarumlaut" unicode="&#x150;" d="M1397 1841 Q1460 1909 1515 1909 Q1570 1909 1614 1878 Q1658 1847 1659 1810 Q1659 1773 1614 1741 L1454 1622 Q1364 1554 1289 1554 Q1214 1554 1214 1612 Q1214 1641 1241 1669 L1397 1841 ZM995 1841 Q1059 1909 1114 1909 Q1169 1909 1213 1878 Q1257 1847 1257 1810 Q1257 1773 1212 1741 L1053 1622 Q963 1554 888 1554 Q813 1554 813 1612 Q813 1641 840 1669 L995 1841 ZM829 266 Q1044 266 1186 435 Q1327 604 1327 786 Q1327 968 1231 1067 Q1135 1167 963 1167 Q748 1167 606 998 Q464 829 465 648 Q465 466 561 366 Q657 266 829 266 ZM793 -25 Q500 -24 318 156 Q136 336 137 610 Q137 825 244 1019 Q350 1214 551 1336 Q752 1458 999 1458 Q1292 1458 1474 1278 Q1656 1098 1655 823 Q1654 608 1548 414 Q1442 220 1242 98 Q1042 -25 793 -25 Z" /><glyph glyph-name="ohungarumlaut" unicode="&#x151;" d="M1126 1493 Q1190 1561 1245 1561 Q1300 1561 1344 1530 Q1388 1499 1389 1462 Q1389 1425 1343 1393 L1184 1274 Q1094 1206 1019 1206 Q944 1206 944 1264 Q944 1293 971 1321 L1126 1493 ZM725 1493 Q789 1561 844 1561 Q899 1561 943 1530 Q987 1499 987 1462 Q987 1425 942 1393 L782 1274 Q692 1206 617 1206 Q542 1206 543 1264 Q543 1293 569 1321 L725 1493 ZM456 308 Q520 242 642 242 Q764 242 854 358 Q944 474 944 598 Q944 720 880 786 Q816 852 694 852 Q572 852 482 735 Q392 618 391 496 Q392 374 456 308 ZM1249 597 Q1250 360 1062 168 Q874 -24 624 -25 Q374 -24 230 118 Q86 260 86 496 Q86 732 273 926 Q460 1118 710 1118 Q960 1118 1105 976 Q1249 834 1249 597 Z" /><glyph glyph-name="OE" unicode="&#x152;" d="M1845 0 L854 0 Q477 0 283 195 Q138 340 137 604 Q137 934 373 1169 Q637 1433 1124 1434 L2144 1434 Q2202 1434 2244 1393 Q2286 1352 2286 1294 Q2286 1236 2245 1194 Q2204 1153 2144 1153 L1520 1153 L1442 860 L1898 860 Q1956 860 1998 819 Q2040 778 2040 721 Q2040 664 1999 624 Q1958 584 1898 584 L1366 584 L1284 281 L1845 281 Q1904 281 1946 239 Q1988 198 1987 140 Q1988 82 1946 41 Q1904 0 1845 0 ZM879 285 L971 285 L1204 1149 L1087 1149 Q782 1149 608 975 Q465 832 465 616 Q465 473 549 389 Q654 285 879 285 Z" /><glyph glyph-name="oe" unicode="&#x153;" d="M1753 707 Q1753 780 1708 824 Q1663 868 1566 868 Q1469 868 1386 805 Q1305 741 1266 635 L1743 635 Q1753 670 1753 707 ZM627 242 Q766 242 855 352 Q944 462 944 588 Q944 712 880 782 Q816 852 709 852 Q570 852 480 741 Q390 630 391 506 Q391 382 456 312 Q521 242 627 242 ZM2046 690 Q2046 441 1884 440 L1239 440 Q1256 225 1489 225 Q1580 225 1646 261 Q1712 297 1757 297 Q1802 297 1836 263 Q1870 228 1870 170 Q1870 112 1810 74 Q1660 -24 1454 -25 Q1161 -25 1047 176 Q878 -25 626 -25 Q374 -24 230 118 Q86 260 86 498 Q86 736 271 928 Q456 1118 719 1118 Q1022 1118 1143 901 Q1319 1118 1597 1118 Q1806 1118 1926 998 Q2046 878 2046 690 Z" /><glyph glyph-name="Racute" unicode="&#x154;" d="M1159 1602 Q1069 1534 980 1534 Q891 1534 891 1591 Q891 1620 918 1649 L1073 1821 Q1136 1888 1192 1888 Q1248 1888 1307 1858 Q1364 1827 1364 1790 Q1364 1753 1319 1720 L1159 1602 ZM1167 975 Q1167 1149 913 1149 L649 1149 L539 737 L819 737 Q1016 737 1108 829 Q1167 888 1167 975 ZM1497 1001 Q1497 616 1053 494 L1229 231 Q1264 180 1264 122 Q1264 64 1217 26 Q1170 -12 1110 -12 Q989 -12 926 92 L698 459 L463 459 L379 145 Q360 72 312 30 Q264 -12 194 -12 Q124 -12 87 43 Q51 98 76 193 L367 1276 Q387 1350 434 1392 Q481 1434 543 1434 L932 1434 Q1243 1434 1386 1290 Q1497 1179 1497 1001 Z" /><glyph glyph-name="racute" unicode="&#x155;" d="M821 1274 Q731 1206 642 1206 Q553 1206 553 1264 Q553 1293 580 1321 L735 1493 Q798 1561 854 1561 Q910 1561 968 1530 Q1026 1498 1026 1462 Q1026 1426 981 1393 L821 1274 ZM795 1110 Q856 1110 892 1073 Q928 1036 928 971 Q928 850 793 811 Q643 768 551 669 Q459 570 410 389 L342 145 Q300 -12 158 -12 Q88 -12 52 43 Q16 98 43 193 L248 952 Q290 1110 429 1110 Q498 1110 534 1059 Q570 1008 549 924 L543 899 Q654 1110 795 1110 Z" /><glyph glyph-name="Rcommaaccent" unicode="&#x156;" d="M389 -240 Q389 -182 435 -140 Q481 -98 548 -98 Q614 -98 652 -136 Q690 -174 690 -242 Q690 -368 580 -478 Q470 -588 324 -588 Q267 -588 266 -543 Q266 -500 330 -487 Q486 -459 504 -346 Q389 -321 389 -240 ZM1167 975 Q1167 1149 913 1149 L649 1149 L539 737 L819 737 Q1016 737 1108 829 Q1167 888 1167 975 ZM1497 1001 Q1497 616 1053 494 L1229 231 Q1264 180 1264 122 Q1264 64 1217 26 Q1170 -12 1110 -12 Q989 -12 926 92 L698 459 L463 459 L379 145 Q360 72 312 30 Q264 -12 194 -12 Q124 -12 87 43 Q51 98 76 193 L367 1276 Q387 1350 434 1392 Q481 1434 543 1434 L932 1434 Q1243 1434 1386 1290 Q1497 1179 1497 1001 Z" /><glyph glyph-name="rcommaaccent" unicode="&#x157;" d="M-49 -250 Q-49 -191 -3 -150 Q43 -109 110 -109 Q176 -108 214 -146 Q252 -184 252 -252 Q252 -378 142 -488 Q32 -598 -115 -598 Q-172 -598 -172 -554 Q-172 -510 -109 -498 Q48 -469 66 -356 Q-49 -331 -49 -250 ZM795 1110 Q856 1110 892 1073 Q928 1036 928 971 Q928 850 793 811 Q643 768 551 669 Q459 570 410 389 L342 145 Q300 -12 158 -12 Q88 -12 52 43 Q16 98 43 193 L248 952 Q290 1110 429 1110 Q498 1110 534 1059 Q570 1008 549 924 L543 899 Q654 1110 795 1110 Z" /><glyph glyph-name="Rcaron" unicode="&#x158;" d="M674 1831 Q674 1880 740 1880 Q806 1880 844 1869 Q882 1858 924 1812 L997 1733 L1114 1812 Q1212 1880 1309 1880 Q1375 1880 1374 1833 Q1374 1802 1339 1767 L1171 1606 Q1101 1536 1012 1536 L922 1536 Q817 1536 778 1614 L700 1765 Q673 1812 674 1831 ZM1167 975 Q1167 1149 913 1149 L649 1149 L539 737 L819 737 Q1016 737 1108 829 Q1167 888 1167 975 ZM1497 1001 Q1497 616 1053 494 L1229 231 Q1264 180 1264 122 Q1264 64 1217 26 Q1170 -12 1110 -12 Q989 -12 926 92 L698 459 L463 459 L379 145 Q360 72 312 30 Q264 -12 194 -12 Q124 -12 87 43 Q51 98 76 193 L367 1276 Q387 1350 434 1392 Q481 1434 543 1434 L932 1434 Q1243 1434 1386 1290 Q1497 1179 1497 1001 Z" /><glyph glyph-name="rcaron" unicode="&#x159;" d="M336 1503 Q336 1552 402 1552 Q468 1552 507 1541 Q545 1530 586 1485 L659 1405 L776 1485 Q874 1553 971 1552 Q1037 1552 1036 1505 Q1036 1474 1001 1440 L834 1278 Q764 1208 674 1208 L584 1208 Q479 1208 440 1286 L362 1438 Q335 1485 336 1503 ZM795 1110 Q856 1110 892 1073 Q928 1036 928 971 Q928 850 793 811 Q643 768 551 669 Q459 570 410 389 L342 145 Q300 -12 158 -12 Q88 -12 52 43 Q16 98 43 193 L248 952 Q290 1110 429 1110 Q498 1110 534 1059 Q570 1008 549 924 L543 899 Q654 1110 795 1110 Z" /><glyph glyph-name="Sacute" unicode="&#x15a;" d="M1096 1622 Q1006 1554 916 1554 Q826 1554 827 1612 Q827 1641 854 1669 L1010 1841 Q1073 1909 1129 1909 Q1184 1909 1242 1878 Q1300 1846 1300 1810 Q1300 1774 1255 1741 L1096 1622 ZM436 288 Q514 256 614 256 Q714 256 776 297 Q838 338 838 398 Q838 458 788 498 Q738 538 582 600 Q428 662 335 750 Q242 838 242 981 Q242 1194 408 1324 Q574 1454 818 1454 Q1062 1454 1247 1327 Q1321 1274 1321 1202 Q1321 1130 1276 1086 Q1232 1042 1172 1042 Q1112 1042 1079 1069 Q940 1178 786 1178 Q692 1178 635 1134 Q578 1090 578 1034 Q578 978 627 942 Q676 908 836 842 Q996 776 1085 689 Q1173 602 1174 457 Q1174 240 1007 110 Q840 -20 604 -20 Q264 -20 74 143 Q12 194 12 268 Q12 342 56 388 Q100 434 158 434 Q216 434 266 395 Q358 320 436 288 Z" /><glyph glyph-name="sacute" unicode="&#x15b;" d="M872 1274 Q782 1206 693 1206 Q604 1206 604 1264 Q604 1293 631 1321 L786 1493 Q850 1561 906 1561 Q962 1561 1020 1530 Q1078 1498 1077 1462 Q1077 1426 1032 1393 L872 1274 ZM174 322 Q314 213 456 213 Q598 213 598 309 Q598 356 471 412 Q225 516 175 621 Q151 670 152 733 Q152 901 271 1010 Q392 1118 584 1118 Q776 1118 942 1020 Q1014 978 1014 914 Q1014 850 976 811 Q938 772 894 772 Q850 772 803 803 Q684 881 569 881 Q512 881 480 856 Q448 831 448 794 Q448 756 484 732 Q518 708 590 676 Q822 571 870 473 Q895 424 895 362 Q895 184 769 80 Q643 -24 428 -24 Q213 -24 23 113 Q-32 152 -32 212 Q-32 272 4 311 Q41 350 89 350 Q137 350 174 322 Z" /><glyph glyph-name="Scedilla" unicode="&#x15e;" d="M436 288 Q514 256 614 256 Q714 256 776 297 Q838 338 838 398 Q838 458 788 498 Q738 538 582 600 Q428 662 335 750 Q242 838 242 981 Q242 1194 408 1324 Q574 1454 818 1454 Q1062 1454 1247 1327 Q1321 1274 1321 1202 Q1321 1130 1276 1086 Q1232 1042 1172 1042 Q1112 1042 1079 1069 Q940 1178 786 1178 Q692 1178 635 1134 Q578 1090 578 1034 Q578 978 627 942 Q676 908 836 842 Q996 776 1085 689 Q1173 602 1174 457 Q1174 242 1010 113 Q846 -16 610 -20 L440 -276 Q397 -342 343 -342 Q289 -342 242 -309 Q195 -276 195 -240 Q195 -204 225 -172 L389 0 Q190 39 74 143 Q12 194 12 268 Q12 342 56 388 Q100 434 158 434 Q216 434 266 395 Q358 320 436 288 Z" /><glyph glyph-name="scedilla" unicode="&#x15f;" d="M174 322 Q314 213 456 213 Q598 213 598 309 Q598 356 471 412 Q225 516 175 621 Q151 670 152 733 Q152 901 271 1010 Q392 1118 584 1118 Q776 1118 942 1020 Q1014 978 1014 914 Q1014 850 976 811 Q938 772 894 772 Q850 772 803 803 Q684 881 569 881 Q512 881 480 856 Q448 831 448 794 Q448 756 484 732 Q518 708 590 676 Q822 571 870 473 Q895 424 895 362 Q895 192 778 89 Q661 -14 473 -23 L305 -276 Q262 -342 208 -342 Q154 -342 106 -309 Q59 -276 59 -240 Q59 -204 90 -172 L256 2 Q125 39 23 113 Q-32 152 -32 212 Q-32 272 4 311 Q41 350 89 350 Q137 350 174 322 Z" /><glyph glyph-name="Scaron" unicode="&#x160;" d="M610 1851 Q610 1900 676 1900 Q742 1900 781 1890 Q819 1878 860 1833 L934 1753 L1051 1833 Q1149 1901 1245 1901 Q1311 1901 1311 1853 Q1311 1822 1276 1788 L1108 1626 Q1038 1556 948 1556 L858 1556 Q754 1556 715 1634 L637 1786 Q610 1833 610 1851 ZM436 288 Q514 256 614 256 Q714 256 776 297 Q838 338 838 398 Q838 458 788 498 Q738 538 582 600 Q428 662 335 750 Q242 838 242 981 Q242 1194 408 1324 Q574 1454 818 1454 Q1062 1454 1247 1327 Q1321 1274 1321 1202 Q1321 1130 1276 1086 Q1232 1042 1172 1042 Q1112 1042 1079 1069 Q940 1178 786 1178 Q692 1178 635 1134 Q578 1090 578 1034 Q578 978 627 942 Q676 908 836 842 Q996 776 1085 689 Q1173 602 1174 457 Q1174 240 1007 110 Q840 -20 604 -20 Q264 -20 74 143 Q12 194 12 268 Q12 342 56 388 Q100 434 158 434 Q216 434 266 395 Q358 320 436 288 Z" /><glyph glyph-name="scaron" unicode="&#x161;" d="M389 1503 Q390 1552 456 1552 Q522 1552 560 1541 Q598 1530 639 1485 L713 1405 L829 1485 Q927 1553 1024 1552 Q1090 1552 1090 1505 Q1090 1474 1055 1440 L887 1278 Q817 1208 727 1208 L637 1208 Q533 1208 494 1286 L416 1438 Q389 1485 389 1503 ZM174 322 Q314 213 456 213 Q598 213 598 309 Q598 356 471 412 Q225 516 175 621 Q151 670 152 733 Q152 901 271 1010 Q392 1118 584 1118 Q776 1118 942 1020 Q1014 978 1014 914 Q1014 850 976 811 Q938 772 894 772 Q850 772 803 803 Q684 881 569 881 Q512 881 480 856 Q448 831 448 794 Q448 756 484 732 Q518 708 590 676 Q822 571 870 473 Q895 424 895 362 Q895 184 769 80 Q643 -24 428 -24 Q213 -24 23 113 Q-32 152 -32 212 Q-32 272 4 311 Q41 350 89 350 Q137 350 174 322 Z" /><glyph glyph-name="Tcommaaccent" unicode="&#x162;" d="M301 -250 Q301 -191 347 -150 Q393 -109 460 -109 Q526 -108 564 -146 Q602 -184 602 -252 Q602 -378 492 -488 Q382 -598 236 -598 Q179 -598 178 -553 Q178 -510 242 -498 Q398 -469 416 -356 Q301 -331 301 -250 ZM612 30 Q564 -12 494 -12 Q424 -12 388 43 Q352 98 377 193 L633 1143 L371 1143 Q312 1143 268 1186 Q225 1229 225 1288 Q225 1346 268 1390 Q311 1434 371 1434 L1290 1434 Q1348 1434 1392 1391 Q1436 1348 1436 1288 Q1436 1228 1393 1186 Q1350 1143 1290 1143 L948 1143 L680 145 Q660 72 612 30 Z" /><glyph glyph-name="tcommaaccent" unicode="&#x163;" d="M145 -250 Q145 -191 191 -150 Q237 -109 304 -109 Q371 -108 409 -146 Q447 -184 446 -252 Q446 -378 336 -488 Q226 -598 80 -598 Q23 -598 23 -554 Q23 -510 86 -498 Q242 -469 260 -356 Q145 -331 145 -250 ZM754 1098 Q807 1098 845 1060 Q883 1022 883 965 Q883 908 845 870 Q807 832 754 831 L578 831 L455 371 Q447 338 446 322 Q446 256 524 256 L549 256 Q598 256 629 225 Q660 194 659 139 Q660 47 584 14 Q508 -18 383 -18 Q258 -18 185 41 Q112 100 113 197 Q113 252 133 334 L266 831 Q221 837 186 872 Q152 906 152 964 Q152 1022 189 1060 Q227 1098 281 1098 L338 1098 L375 1233 Q417 1391 558 1391 Q629 1392 665 1336 Q701 1280 674 1186 L649 1098 L754 1098 Z" /><glyph glyph-name="Tcaron" unicode="&#x164;" d="M687 1880 Q754 1880 792 1869 Q830 1858 870 1812 L944 1733 L1061 1812 Q1159 1880 1255 1880 Q1321 1880 1321 1833 Q1321 1802 1286 1767 L1118 1606 Q1048 1536 958 1536 L868 1536 Q764 1536 725 1614 L647 1765 Q620 1812 621 1831 Q621 1880 687 1880 ZM612 30 Q564 -12 494 -12 Q424 -12 388 43 Q352 98 377 193 L633 1143 L371 1143 Q312 1143 268 1186 Q225 1229 225 1288 Q225 1346 268 1390 Q311 1434 371 1434 L1290 1434 Q1348 1434 1392 1391 Q1436 1348 1436 1288 Q1436 1228 1393 1186 Q1350 1143 1290 1143 L948 1143 L680 145 Q660 72 612 30 Z" /><glyph glyph-name="tcaron" unicode="&#x165;" d="M1006 1640 L1053 1640 Q1112 1640 1112 1593 Q1112 1566 1087 1522 L940 1255 Q909 1200 857 1200 Q805 1200 805 1247 Q805 1260 809 1276 L881 1544 Q906 1640 1006 1640 ZM754 1098 Q807 1098 845 1060 Q883 1022 883 965 Q883 908 845 870 Q807 832 754 831 L578 831 L455 371 Q447 338 446 322 Q446 256 524 256 L549 256 Q598 256 629 225 Q660 194 659 139 Q660 47 584 14 Q508 -18 383 -18 Q258 -18 185 41 Q112 100 113 197 Q113 252 133 334 L266 831 Q221 837 186 872 Q152 906 152 964 Q152 1022 189 1060 Q227 1098 281 1098 L338 1098 L375 1233 Q417 1391 558 1391 Q629 1392 665 1336 Q701 1280 674 1186 L649 1098 L754 1098 Z" /><glyph glyph-name="Umacron" unicode="&#x16a;" d="M1339 1556 L795 1556 Q750 1556 718 1587 Q686 1618 686 1663 Q686 1708 718 1740 Q750 1772 795 1772 L1339 1772 Q1384 1772 1416 1740 Q1448 1708 1448 1663 Q1448 1618 1416 1587 Q1384 1556 1339 1556 ZM166 461 Q166 555 201 690 L360 1288 Q380 1362 428 1404 Q476 1446 546 1446 Q616 1446 652 1391 Q688 1336 664 1241 L508 662 Q485 572 485 506 Q485 396 551 332 Q618 268 746 268 Q874 268 969 358 Q1063 452 1108 625 L1286 1288 Q1306 1362 1354 1404 Q1402 1446 1472 1446 Q1542 1446 1578 1390 Q1614 1334 1589 1241 L1411 580 Q1337 301 1190 154 Q1014 -22 702 -23 Q452 -23 309 105 Q166 233 166 461 Z" /><glyph glyph-name="umacron" unicode="&#x16b;" d="M1112 1229 L567 1229 Q522 1229 490 1260 Q458 1292 458 1336 Q458 1380 490 1412 Q522 1444 567 1444 L1112 1444 Q1157 1444 1189 1412 Q1221 1380 1221 1335 Q1221 1290 1189 1260 Q1157 1230 1112 1229 ZM959 28 Q912 -12 846 -12 Q780 -12 743 24 Q706 60 707 115 Q555 -20 408 -20 Q261 -20 172 66 Q84 152 84 299 Q84 369 121 508 L240 952 Q282 1110 423 1110 Q494 1110 530 1055 Q566 1000 539 905 L428 496 Q414 443 414 397 Q414 262 565 262 Q656 262 716 320 Q776 378 803 481 L930 952 Q972 1110 1113 1110 Q1184 1110 1220 1055 Q1256 1000 1229 905 L1026 145 Q1006 68 959 28 Z" /><glyph glyph-name="Ubreve" unicode="&#x16c;" d="M1073 1542 Q928 1542 835 1619 Q742 1696 741 1786 Q741 1828 772 1854 Q802 1880 860 1880 Q918 1880 946 1827 Q992 1745 1086 1745 Q1180 1745 1253 1827 Q1302 1880 1352 1880 Q1452 1880 1452 1792 Q1452 1753 1423 1718 Q1280 1542 1073 1542 ZM166 461 Q166 555 201 690 L360 1288 Q380 1362 428 1404 Q476 1446 546 1446 Q616 1446 652 1391 Q688 1336 664 1241 L508 662 Q485 572 485 506 Q485 396 551 332 Q618 268 746 268 Q874 268 969 358 Q1063 452 1108 625 L1286 1288 Q1306 1362 1354 1404 Q1402 1446 1472 1446 Q1542 1446 1578 1390 Q1614 1334 1589 1241 L1411 580 Q1337 301 1190 154 Q1014 -22 702 -23 Q452 -23 309 105 Q166 233 166 461 Z" /><glyph glyph-name="ubreve" unicode="&#x16d;" d="M846 1214 Q701 1214 607 1291 Q514 1368 514 1458 Q514 1499 545 1526 Q576 1553 621 1552 Q691 1552 719 1499 Q764 1417 858 1417 Q952 1417 1026 1499 Q1076 1552 1126 1552 Q1226 1552 1225 1464 Q1225 1425 1196 1391 Q1053 1214 846 1214 ZM959 28 Q912 -12 846 -12 Q780 -12 743 24 Q706 60 707 115 Q555 -20 408 -20 Q261 -20 172 66 Q84 152 84 299 Q84 369 121 508 L240 952 Q282 1110 423 1110 Q494 1110 530 1055 Q566 1000 539 905 L428 496 Q414 443 414 397 Q414 262 565 262 Q656 262 716 320 Q776 378 803 481 L930 952 Q972 1110 1113 1110 Q1184 1110 1220 1055 Q1256 1000 1229 905 L1026 145 Q1006 68 959 28 Z" /><glyph glyph-name="Uring" unicode="&#x16e;" d="M977 1756 Q977 1644 1083 1645 Q1136 1645 1176 1693 Q1214 1741 1214 1795 Q1213 1907 1108 1907 Q1055 1907 1016 1859 Q977 1810 977 1756 ZM907 1592 Q846 1652 846 1755 Q846 1858 926 1938 Q1006 2018 1114 2019 Q1222 2019 1284 1959 Q1346 1899 1346 1796 Q1346 1692 1266 1612 Q1186 1532 1078 1532 Q970 1532 907 1592 ZM166 461 Q166 555 201 690 L360 1288 Q380 1362 428 1404 Q476 1446 546 1446 Q616 1446 652 1391 Q688 1336 664 1241 L508 662 Q485 572 485 506 Q485 396 551 332 Q618 268 746 268 Q874 268 969 358 Q1063 452 1108 625 L1286 1288 Q1306 1362 1354 1404 Q1402 1446 1472 1446 Q1542 1446 1578 1390 Q1614 1334 1589 1241 L1411 580 Q1337 301 1190 154 Q1014 -22 702 -23 Q452 -23 309 105 Q166 233 166 461 Z" /><glyph glyph-name="uring" unicode="&#x16f;" d="M991 1478 Q991 1592 885 1590 Q832 1590 793 1541 Q754 1493 754 1439 Q754 1327 860 1327 Q913 1327 952 1375 Q991 1424 991 1478 ZM702 1621 Q782 1702 890 1702 Q998 1702 1060 1642 Q1122 1582 1122 1478 Q1122 1376 1042 1295 Q962 1214 854 1214 Q746 1214 684 1274 Q622 1334 623 1438 Q623 1540 702 1621 ZM959 28 Q912 -12 846 -12 Q780 -12 743 24 Q706 60 707 115 Q555 -20 408 -20 Q261 -20 172 66 Q84 152 84 299 Q84 369 121 508 L240 952 Q282 1110 423 1110 Q494 1110 530 1055 Q566 1000 539 905 L428 496 Q414 443 414 397 Q414 262 565 262 Q656 262 716 320 Q776 378 803 481 L930 952 Q972 1110 1113 1110 Q1184 1110 1220 1055 Q1256 1000 1229 905 L1026 145 Q1006 68 959 28 Z" /><glyph glyph-name="Uhungarumlaut" unicode="&#x170;" d="M1325 1821 Q1389 1888 1444 1888 Q1499 1888 1543 1858 Q1587 1828 1587 1790 Q1587 1753 1542 1720 L1382 1602 Q1292 1534 1218 1534 Q1144 1534 1143 1591 Q1143 1620 1169 1649 L1325 1821 ZM924 1821 Q987 1888 1042 1888 Q1097 1888 1142 1858 Q1186 1827 1186 1790 Q1186 1753 1141 1720 L981 1602 Q891 1534 816 1534 Q741 1534 741 1591 Q741 1620 768 1649 L924 1821 ZM166 461 Q166 555 201 690 L360 1288 Q380 1362 428 1404 Q476 1446 546 1446 Q616 1446 652 1391 Q688 1336 664 1241 L508 662 Q485 572 485 506 Q485 396 551 332 Q618 268 746 268 Q874 268 969 358 Q1063 452 1108 625 L1286 1288 Q1306 1362 1354 1404 Q1402 1446 1472 1446 Q1542 1446 1578 1390 Q1614 1334 1589 1241 L1411 580 Q1337 301 1190 154 Q1014 -22 702 -23 Q452 -23 309 105 Q166 233 166 461 Z" /><glyph glyph-name="uhungarumlaut" unicode="&#x171;" d="M696 1493 Q760 1561 815 1561 Q870 1561 914 1530 Q958 1499 958 1462 Q958 1425 913 1393 L754 1274 Q664 1206 589 1206 Q514 1206 514 1264 Q514 1293 541 1321 L696 1493 ZM1216 1561 Q1272 1561 1316 1530 Q1360 1499 1360 1462 Q1360 1425 1315 1393 L1155 1274 Q1065 1206 990 1206 Q915 1206 915 1264 Q915 1293 942 1321 L1098 1493 Q1161 1561 1216 1561 ZM959 28 Q912 -12 846 -12 Q780 -12 743 24 Q706 60 707 115 Q555 -20 408 -20 Q261 -20 172 66 Q84 152 84 299 Q84 369 121 508 L240 952 Q282 1110 423 1110 Q494 1110 530 1055 Q566 1000 539 905 L428 496 Q414 443 414 397 Q414 262 565 262 Q656 262 716 320 Q776 378 803 481 L930 952 Q972 1110 1113 1110 Q1184 1110 1220 1055 Q1256 1000 1229 905 L1026 145 Q1006 68 959 28 Z" /><glyph glyph-name="Uogonek" unicode="&#x172;" d="M643 -344 Q543 -344 484 -308 Q426 -272 426 -207 Q426 -117 547 -6 Q367 29 266 151 Q166 273 166 461 Q166 555 201 690 L360 1288 Q380 1362 428 1404 Q476 1446 546 1446 Q616 1446 652 1391 Q688 1336 664 1241 L508 662 Q485 572 485 506 Q485 396 551 332 Q618 268 746 268 Q874 268 969 358 Q1063 452 1108 625 L1286 1288 Q1306 1362 1354 1404 Q1402 1446 1472 1446 Q1542 1446 1578 1391 Q1614 1336 1589 1241 L1411 580 Q1337 301 1190 154 Q1022 -14 735 -23 Q667 -97 668 -141 Q668 -164 682 -174 Q696 -184 731 -196 Q766 -208 781 -222 Q796 -237 795 -266 Q790 -344 643 -344 Z" /><glyph glyph-name="uogonek" unicode="&#x173;" d="M817 -344 Q717 -344 658 -308 Q600 -272 600 -207 Q600 -105 752 18 Q707 53 707 115 Q555 -20 408 -20 Q261 -20 172 66 Q84 152 84 299 Q84 369 121 508 L240 952 Q282 1110 423 1110 Q494 1110 530 1055 Q566 1000 539 905 L428 496 Q414 443 414 397 Q414 262 565 262 Q656 262 716 320 Q776 378 803 481 L930 952 Q972 1110 1113 1110 Q1184 1110 1220 1054 Q1256 998 1229 905 L1026 145 Q1008 75 952 20 Q841 -91 842 -141 Q842 -164 856 -174 Q870 -184 905 -196 Q940 -208 955 -222 Q970 -237 969 -266 Q965 -344 817 -344 Z" /><glyph glyph-name="Wcircumflex" unicode="&#x174;" d="M1737 1583 Q1736 1534 1670 1534 Q1604 1534 1566 1545 Q1528 1556 1487 1602 L1413 1681 L1296 1602 Q1198 1534 1102 1534 Q1036 1534 1036 1581 Q1036 1612 1071 1647 L1239 1808 Q1309 1878 1399 1878 L1489 1878 Q1593 1878 1632 1800 L1710 1649 Q1737 1602 1737 1583 ZM1440 -23 L1425 -23 Q1286 -23 1280 117 L1219 909 L727 104 Q649 -23 522 -23 L508 -23 Q373 -23 360 117 L262 1227 Q258 1272 258 1300 Q258 1362 304 1404 Q350 1446 421 1446 Q492 1446 534 1411 Q576 1376 578 1315 L631 463 L1143 1325 Q1217 1450 1325 1450 L1343 1450 Q1476 1450 1487 1325 L1544 463 L2068 1341 Q2131 1445 2236 1446 Q2302 1446 2343 1411 Q2384 1376 2384 1327 Q2384 1278 2357 1233 L1651 104 Q1573 -23 1440 -23 Z" /><glyph glyph-name="wcircumflex" unicode="&#x175;" d="M1405 1255 Q1404 1206 1338 1206 Q1272 1206 1234 1218 Q1196 1230 1155 1274 L1081 1354 L965 1274 Q867 1206 770 1206 Q704 1206 705 1253 Q705 1284 739 1319 L907 1481 Q977 1551 1067 1550 L1157 1550 Q1261 1551 1300 1473 L1378 1321 Q1405 1274 1405 1255 ZM166 965 Q166 1024 215 1067 Q264 1110 329 1110 Q394 1110 436 1075 Q478 1040 481 979 L496 432 L815 987 Q887 1112 997 1112 L1014 1112 Q1075 1112 1113 1079 Q1151 1046 1153 987 L1178 430 L1513 1018 Q1566 1110 1659 1110 Q1718 1110 1751 1079 Q1784 1048 1784 999 Q1784 950 1759 909 L1278 106 Q1202 -21 1075 -20 L1065 -20 Q930 -20 924 119 L897 666 L569 106 Q495 -21 367 -20 L356 -20 Q221 -20 215 119 L170 891 Q166 936 166 965 Z" /><glyph glyph-name="Ycircumflex" unicode="&#x176;" d="M1264 1583 Q1264 1534 1198 1534 Q1132 1534 1093 1545 Q1055 1556 1014 1602 L940 1681 L823 1602 Q725 1534 629 1534 Q563 1534 563 1581 Q563 1612 598 1647 L766 1808 Q836 1878 926 1878 L1016 1878 Q1120 1878 1159 1800 L1237 1649 Q1264 1602 1264 1583 ZM1348 1448 Q1492 1448 1491 1314 Q1491 1250 1438 1194 L803 524 L700 145 Q680 72 633 30 Q586 -12 515 -12 Q444 -12 408 43 Q372 98 397 193 L494 553 L236 1178 Q205 1252 205 1306 Q205 1360 253 1402 Q301 1446 375 1446 Q484 1446 528 1323 L711 831 L1190 1358 Q1274 1448 1348 1448 Z" /><glyph glyph-name="ycircumflex" unicode="&#x177;" d="M1120 1255 Q1120 1206 1054 1206 Q988 1206 950 1218 Q912 1230 870 1274 L797 1354 L680 1274 Q582 1206 485 1206 Q419 1206 420 1253 Q420 1284 455 1319 L623 1481 Q693 1551 782 1550 L872 1550 Q977 1551 1016 1473 L1094 1321 Q1121 1274 1120 1255 ZM233 1068 Q278 1110 342 1110 Q406 1110 450 1074 Q494 1038 496 977 L559 344 L944 1012 Q997 1110 1102 1110 Q1163 1110 1200 1077 Q1237 1044 1237 996 Q1237 948 1196 883 L627 -27 Q522 -194 420 -264 Q318 -334 201 -334 Q84 -334 35 -311 Q-59 -270 -59 -176 Q-59 -121 -23 -81 Q14 -41 63 -41 Q74 -41 131 -56 Q188 -71 219 -72 Q276 -72 326 -6 L195 891 Q188 926 188 976 Q188 1026 233 1068 Z" /><glyph glyph-name="Ydieresis" unicode="&#x178;" d="M1065 1796 Q1116 1835 1185 1835 Q1254 1835 1294 1792 Q1334 1749 1318 1680 Q1303 1611 1253 1573 Q1202 1534 1132 1534 Q1062 1534 1022 1576 Q983 1618 998 1687 Q1013 1756 1065 1796 ZM815 1573 Q764 1534 693 1534 Q622 1534 584 1576 Q546 1618 560 1687 Q575 1756 627 1796 Q678 1835 747 1835 Q816 1835 856 1792 Q896 1749 880 1680 Q865 1611 815 1573 ZM1348 1448 Q1492 1448 1491 1314 Q1491 1250 1438 1194 L803 524 L700 145 Q680 72 633 30 Q586 -12 515 -12 Q444 -12 408 43 Q372 98 397 193 L494 553 L236 1178 Q205 1252 205 1306 Q205 1360 253 1402 Q301 1446 375 1446 Q484 1446 528 1323 L711 831 L1190 1358 Q1274 1448 1348 1448 Z" /><glyph glyph-name="Zacute" unicode="&#x179;" d="M1157 1602 Q1067 1534 978 1534 Q889 1534 889 1591 Q889 1620 915 1649 L1071 1821 Q1134 1888 1190 1888 Q1246 1888 1305 1858 Q1362 1827 1362 1790 Q1362 1753 1317 1720 L1157 1602 ZM459 1157 Q402 1157 360 1197 Q319 1237 319 1294 Q319 1350 360 1392 Q401 1434 459 1434 L1370 1434 Q1433 1434 1470 1401 Q1507 1368 1507 1311 L1507 1307 Q1507 1233 1421 1151 L461 276 L1067 276 Q1124 276 1165 236 Q1206 196 1206 138 Q1206 80 1165 40 Q1124 0 1067 0 L123 0 Q60 0 23 33 Q-14 66 -14 123 L-14 127 Q-14 201 72 283 L1032 1157 L459 1157 Z" /><glyph glyph-name="zacute" unicode="&#x17a;" d="M926 1274 Q836 1206 746 1206 Q656 1206 657 1264 Q657 1293 684 1321 L840 1493 Q903 1561 959 1561 Q1014 1561 1072 1530 Q1130 1498 1130 1462 Q1130 1426 1085 1393 L926 1274 ZM338 1098 L1022 1098 Q1088 1098 1124 1067 Q1160 1036 1161 983 L1161 981 Q1161 907 1085 842 L408 252 L817 252 Q868 252 906 214 Q944 176 944 125 Q944 74 907 37 Q870 0 817 0 L111 0 Q45 0 8 31 Q-29 62 -29 115 L-29 117 Q-29 191 47 256 L723 846 L338 846 Q285 846 248 883 Q211 920 211 972 Q211 1024 249 1061 Q287 1098 338 1098 Z" /><glyph glyph-name="Zdotaccent" unicode="&#x17b;" d="M1081 1573 Q1028 1534 957 1534 Q886 1534 846 1576 Q806 1618 820 1687 Q835 1756 889 1796 Q942 1835 1011 1835 Q1080 1835 1122 1792 Q1164 1749 1148 1681 Q1133 1613 1081 1573 ZM459 1157 Q402 1157 360 1197 Q319 1237 319 1294 Q319 1350 360 1392 Q401 1434 459 1434 L1370 1434 Q1433 1434 1470 1401 Q1507 1368 1507 1311 L1507 1307 Q1507 1233 1421 1151 L461 276 L1067 276 Q1124 276 1165 236 Q1206 196 1206 138 Q1206 80 1165 40 Q1124 0 1067 0 L123 0 Q60 0 23 33 Q-14 66 -14 123 L-14 127 Q-14 201 72 283 L1032 1157 L459 1157 Z" /><glyph glyph-name="zdotaccent" unicode="&#x17c;" d="M851 1245 Q799 1206 728 1206 Q657 1206 616 1248 Q575 1290 590 1359 Q606 1428 659 1468 Q712 1508 781 1507 Q850 1507 892 1464 Q934 1421 922 1362 Q902 1283 851 1245 ZM338 1098 L1022 1098 Q1088 1098 1124 1067 Q1160 1036 1161 983 L1161 981 Q1161 907 1085 842 L408 252 L817 252 Q868 252 906 214 Q944 176 944 125 Q944 74 907 37 Q870 0 817 0 L111 0 Q45 0 8 31 Q-29 62 -29 115 L-29 117 Q-29 191 47 256 L723 846 L338 846 Q285 846 248 883 Q211 920 211 972 Q211 1024 249 1061 Q287 1098 338 1098 Z" /><glyph glyph-name="Zcaron" unicode="&#x17d;" d="M672 1831 Q672 1880 738 1880 Q804 1880 842 1869 Q880 1858 922 1812 L995 1733 L1112 1812 Q1210 1880 1307 1880 Q1373 1880 1372 1833 Q1372 1802 1337 1767 L1169 1606 Q1099 1536 1010 1536 L920 1536 Q815 1536 776 1614 L698 1765 Q671 1812 672 1831 ZM459 1157 Q402 1157 360 1197 Q319 1237 319 1294 Q319 1350 360 1392 Q401 1434 459 1434 L1370 1434 Q1433 1434 1470 1401 Q1507 1368 1507 1311 L1507 1307 Q1507 1233 1421 1151 L461 276 L1067 276 Q1124 276 1165 236 Q1206 196 1206 138 Q1206 80 1165 40 Q1124 0 1067 0 L123 0 Q60 0 23 33 Q-14 66 -14 123 L-14 127 Q-14 201 72 283 L1032 1157 L459 1157 Z" /><glyph glyph-name="zcaron" unicode="&#x17e;" d="M442 1503 Q442 1552 508 1552 Q574 1552 613 1541 Q651 1530 692 1485 L766 1405 L883 1485 Q981 1553 1077 1552 Q1143 1552 1143 1505 Q1143 1474 1108 1440 L940 1278 Q870 1208 780 1208 L690 1208 Q586 1208 547 1286 L469 1438 Q442 1485 442 1503 ZM338 1098 L1022 1098 Q1088 1098 1124 1067 Q1160 1036 1161 983 L1161 981 Q1161 907 1085 842 L408 252 L817 252 Q868 252 906 214 Q944 176 944 125 Q944 74 907 37 Q870 0 817 0 L111 0 Q45 0 8 31 Q-29 62 -29 115 L-29 117 Q-29 191 47 256 L723 846 L338 846 Q285 846 248 883 Q211 920 211 972 Q211 1024 249 1061 Q287 1098 338 1098 Z" /><glyph glyph-name="florin" unicode="&#x192;" d="M125 -25 Q55 -25 7 9 Q-41 42 -41 106 Q-41 170 1 201 Q43 232 98 233 Q198 235 256 365 L408 705 L403 705 Q356 706 320 742 Q284 778 285 831 Q285 884 323 922 Q361 960 414 961 L522 961 L600 1137 Q668 1292 786 1374 Q904 1456 1047 1456 Q1110 1456 1151 1446 Q1255 1421 1255 1323 Q1255 1260 1212 1224 Q1169 1188 1118 1192 Q1102 1194 1057 1194 Q930 1194 864 1047 L825 961 L915 961 Q968 961 1006 923 Q1044 886 1044 832 Q1044 778 1006 741 Q968 704 915 705 L711 705 L518 270 Q387 -25 125 -25 Z" /><glyph glyph-name="Aringacute" unicode="&#x1fa;" d="M1075 1929 Q1075 1958 1102 1987 L1257 2159 Q1320 2226 1376 2226 Q1432 2226 1490 2195 Q1548 2164 1548 2128 Q1548 2092 1503 2058 L1343 1939 Q1253 1872 1164 1872 Q1075 1872 1075 1929 ZM1182 1612 Q1182 1724 1075 1724 Q1022 1724 983 1676 Q944 1628 944 1574 Q944 1462 1050 1462 Q1103 1462 1143 1510 Q1182 1558 1182 1612 ZM621 600 L1018 600 L944 1073 L621 600 ZM104 -12 Q43 -12 9 22 Q-25 56 -25 111 Q-25 166 12 215 L868 1415 Q813 1470 813 1573 Q813 1676 893 1756 Q973 1836 1081 1837 Q1188 1837 1250 1777 Q1312 1717 1313 1624 Q1313 1477 1192 1397 L1401 221 Q1411 149 1411 139 Q1411 76 1365 32 Q1318 -12 1252 -12 Q1186 -12 1145 23 Q1104 58 1096 113 L1063 322 L428 322 L264 86 Q194 -12 104 -12 Z" /><glyph glyph-name="aringacute" unicode="&#x1fb;" d="M950 1478 Q950 1592 844 1590 Q791 1590 752 1541 Q713 1493 713 1439 Q713 1327 819 1327 Q872 1327 911 1375 Q950 1424 950 1478 ZM481 193 Q561 194 639 258 Q717 322 743 414 L752 442 Q652 481 550 481 Q448 481 386 434 Q324 386 324 322 Q324 192 481 193 ZM1085 1819 Q995 1751 906 1751 Q817 1751 817 1808 Q817 1837 844 1866 L999 2038 Q1062 2106 1118 2106 Q1174 2106 1233 2075 Q1290 2044 1290 2007 Q1290 1970 1245 1937 L1085 1819 ZM662 1621 Q742 1702 850 1702 Q958 1702 1020 1642 Q1082 1582 1081 1478 Q1082 1376 1002 1295 Q922 1214 814 1214 Q706 1214 644 1274 Q582 1334 582 1438 Q582 1540 662 1621 ZM813 717 Q813 846 606 846 Q508 846 444 830 Q380 814 365 813 Q312 813 276 849 Q241 885 242 938 Q242 1030 336 1059 Q496 1110 694 1110 Q892 1110 1004 1023 Q1117 936 1116 772 Q1116 700 1092 606 L969 145 Q948 68 902 28 Q856 -12 795 -12 Q652 -12 662 127 Q525 -20 334 -20 Q193 -20 103 62 Q14 145 14 274 Q14 458 147 564 Q280 670 487 670 Q639 670 797 621 Q813 677 813 717 Z" /><glyph glyph-name="AEacute" unicode="&#x1fc;" d="M1694 1602 Q1604 1534 1514 1534 Q1424 1534 1425 1591 Q1425 1620 1452 1649 L1608 1821 Q1671 1888 1727 1888 Q1783 1888 1841 1858 Q1898 1827 1898 1790 Q1898 1753 1853 1720 L1694 1602 ZM138 -12 Q6 -12 6 105 Q6 161 53 221 L940 1319 Q1032 1434 1149 1434 L2118 1434 Q2175 1434 2217 1393 Q2259 1352 2259 1294 Q2259 1236 2218 1194 Q2177 1153 2118 1153 L1493 1153 L1415 860 L1872 860 Q1931 860 1972 819 Q2013 778 2013 721 Q2013 664 1972 624 Q1931 584 1872 584 L1339 584 L1257 281 L1819 281 Q1876 281 1918 239 Q1960 198 1960 140 Q1960 82 1919 41 Q1878 0 1819 0 L1051 0 Q971 0 934 55 Q897 110 924 205 L956 322 L473 322 L279 78 Q206 -12 138 -12 ZM696 600 L1032 600 L1182 1161 L1143 1161 L696 600 Z" /><glyph glyph-name="aeacute" unicode="&#x1fd;" d="M1573 707 Q1573 780 1528 824 Q1483 868 1386 868 Q1289 868 1206 805 Q1124 741 1085 635 L1563 635 Q1573 670 1573 707 ZM1327 1274 Q1237 1206 1148 1206 Q1059 1206 1059 1264 Q1059 1293 1085 1321 L1241 1493 Q1304 1561 1360 1561 Q1416 1561 1474 1530 Q1532 1498 1532 1462 Q1532 1426 1487 1393 L1327 1274 ZM791 426 Q666 481 558 481 Q450 481 386 434 Q324 388 324 322 Q324 191 487 193 Q563 194 650 230 Q737 266 803 332 Q795 375 791 426 ZM813 717 Q813 846 606 846 Q508 846 444 830 Q380 814 365 813 Q312 813 276 849 Q241 885 242 938 Q242 1030 336 1059 Q496 1110 672 1110 Q940 1110 1032 948 Q1202 1118 1415 1118 Q1628 1118 1747 997 Q1866 876 1866 690 Q1866 633 1853 578 Q1822 441 1704 440 L1059 440 Q1075 225 1309 225 Q1400 225 1466 261 Q1532 297 1577 297 Q1622 297 1656 263 Q1690 228 1690 170 Q1690 112 1630 74 Q1480 -24 1274 -25 Q979 -25 856 186 Q655 -21 365 -20 Q199 -20 106 59 Q14 139 14 274 Q14 458 147 564 Q280 670 487 670 Q639 670 797 621 Q813 677 813 717 Z" /><glyph glyph-name="Oslashacute" unicode="&#x1fe;" d="M1348 1622 Q1258 1554 1168 1554 Q1078 1554 1079 1612 Q1079 1641 1106 1669 L1262 1841 Q1325 1909 1381 1909 Q1436 1909 1494 1878 Q1552 1846 1552 1810 Q1552 1774 1507 1741 L1348 1622 ZM233 20 Q182 -23 138 -23 Q94 -23 70 2 Q46 27 45 70 Q45 113 109 168 L227 270 Q137 415 137 620 Q137 825 244 1019 Q350 1214 551 1336 Q752 1458 1010 1458 Q1268 1458 1452 1296 L1591 1413 Q1642 1456 1686 1456 Q1730 1456 1756 1432 Q1780 1408 1780 1364 Q1780 1321 1716 1266 L1575 1143 Q1655 1000 1655 804 Q1654 608 1548 414 Q1442 220 1241 98 Q1040 -24 787 -24 Q534 -24 354 123 L233 20 ZM829 252 Q1044 252 1192 428 Q1339 604 1339 803 Q1339 877 1319 936 L590 322 Q682 252 829 252 ZM453 631 Q453 541 479 473 L1217 1096 Q1119 1182 963 1182 Q748 1182 600 1006 Q452 830 453 631 Z" /><glyph glyph-name="oslashacute" unicode="&#x1ff;" d="M1047 1274 Q958 1206 868 1206 Q778 1206 778 1264 Q778 1293 805 1321 L961 1493 Q1024 1561 1080 1561 Q1136 1561 1194 1530 Q1252 1498 1251 1462 Q1251 1426 1206 1393 L1047 1274 ZM244 20 Q198 -23 152 -23 Q106 -23 80 1 Q54 24 55 66 Q55 108 104 154 L160 205 Q86 322 86 483 Q86 733 273 926 Q460 1119 721 1118 Q901 1118 1030 1034 L1075 1077 Q1122 1120 1167 1120 Q1212 1120 1238 1096 Q1264 1072 1264 1031 Q1264 989 1214 944 L1167 901 Q1249 774 1249 610 Q1249 360 1062 168 Q875 -24 614 -25 Q426 -24 291 66 L244 20 ZM381 492 Q381 451 387 414 L829 838 Q780 863 707 862 Q572 862 476 744 Q380 626 381 492 ZM629 231 Q764 231 859 349 Q954 467 954 602 Q954 645 944 692 L494 260 Q551 231 629 231 Z" /><glyph glyph-name="Scommaaccent" unicode="&#x218;" d="M293 -260 Q293 -201 339 -160 Q385 -119 452 -119 Q518 -119 556 -157 Q594 -195 594 -262 Q594 -388 484 -498 Q374 -608 227 -608 Q170 -608 170 -564 Q170 -520 233 -508 Q390 -480 408 -367 Q293 -342 293 -260 ZM436 288 Q514 256 614 256 Q714 256 776 297 Q838 338 838 398 Q838 458 788 498 Q738 538 582 600 Q428 662 335 750 Q242 838 242 981 Q242 1194 408 1324 Q574 1454 818 1454 Q1062 1454 1247 1327 Q1321 1274 1321 1202 Q1321 1130 1276 1086 Q1232 1042 1172 1042 Q1112 1042 1079 1069 Q940 1178 786 1178 Q692 1178 635 1134 Q578 1090 578 1034 Q578 978 627 942 Q676 908 836 842 Q996 776 1085 689 Q1173 602 1174 457 Q1174 240 1007 110 Q840 -20 604 -20 Q264 -20 74 143 Q12 194 12 268 Q12 342 56 388 Q100 434 158 434 Q216 434 266 395 Q358 320 436 288 Z" /><glyph glyph-name="scommaaccent" unicode="&#x219;" d="M147 -250 Q148 -191 194 -150 Q240 -109 306 -109 Q372 -108 411 -146 Q449 -184 449 -252 Q449 -378 338 -488 Q227 -598 82 -598 Q25 -598 25 -554 Q25 -510 88 -498 Q244 -469 262 -356 Q147 -331 147 -250 ZM174 322 Q314 213 456 213 Q598 213 598 309 Q598 356 471 412 Q225 516 175 621 Q151 670 152 733 Q152 901 271 1010 Q392 1118 584 1118 Q776 1118 942 1020 Q1014 978 1014 914 Q1014 850 976 811 Q938 772 894 772 Q850 772 803 803 Q684 881 569 881 Q512 881 480 856 Q448 831 448 794 Q448 756 484 732 Q518 708 590 676 Q822 571 870 473 Q895 424 895 362 Q895 184 769 80 Q643 -24 428 -24 Q213 -24 23 113 Q-32 152 -32 212 Q-32 272 4 311 Q41 350 89 350 Q137 350 174 322 Z" /><glyph glyph-name="schwa" unicode="&#x259;" d="M352 391 Q352 319 397 274 Q442 229 539 229 Q636 229 719 293 Q801 357 840 463 L362 463 Q352 428 352 391 ZM616 872 Q524 872 458 836 Q392 800 348 800 Q303 800 269 835 Q236 870 236 928 Q236 986 295 1024 Q445 1122 667 1122 Q889 1122 1024 992 Q1159 862 1159 635 Q1159 473 1080 325 Q1001 177 849 78 Q696 -20 498 -20 Q300 -20 179 100 Q59 220 59 408 Q59 465 72 520 Q103 657 221 657 L866 657 Q849 872 616 872 Z" /><glyph glyph-name="circumflex" unicode="&#x2c6;" d="M1065 1255 Q1064 1206 998 1206 Q932 1206 894 1218 Q856 1230 815 1274 L741 1354 L625 1274 Q527 1206 430 1206 Q364 1206 365 1253 Q365 1284 399 1319 L567 1481 Q637 1551 727 1550 L817 1550 Q922 1551 961 1473 L1038 1321 Q1065 1274 1065 1255 Z" /><glyph glyph-name="caron" unicode="&#x2c7;" d="M397 1503 Q398 1552 464 1552 Q530 1552 568 1541 Q606 1530 647 1485 L721 1405 L838 1485 Q936 1553 1032 1552 Q1098 1552 1098 1505 Q1098 1474 1063 1440 L895 1278 Q825 1208 735 1208 L645 1208 Q541 1208 502 1286 L424 1438 Q397 1485 397 1503 Z" /><glyph glyph-name="breve" unicode="&#x2d8;" d="M735 1214 Q590 1214 497 1291 Q404 1368 403 1458 Q403 1499 434 1526 Q465 1553 510 1552 Q580 1552 608 1499 Q654 1417 748 1417 Q842 1417 915 1499 Q964 1552 1014 1552 Q1064 1552 1090 1528 Q1114 1504 1114 1465 Q1114 1425 1085 1391 Q942 1214 735 1214 Z" /><glyph glyph-name="dotaccent" unicode="&#x2d9;" d="M826 1245 Q774 1206 704 1206 Q634 1206 591 1249 Q549 1292 565 1360 Q580 1428 634 1468 Q688 1508 757 1507 Q826 1507 868 1464 Q910 1421 897 1362 Q877 1283 826 1245 Z" /><glyph glyph-name="ring" unicode="&#x2da;" d="M637 1439 Q637 1327 743 1327 Q796 1327 836 1375 Q874 1424 874 1478 Q873 1592 768 1590 Q715 1590 676 1541 Q637 1493 637 1439 ZM926 1295 Q846 1214 738 1214 Q630 1214 568 1274 Q506 1334 506 1438 Q506 1540 586 1621 Q666 1702 774 1702 Q882 1702 944 1642 Q1006 1582 1006 1478 Q1006 1376 926 1295 Z" /><glyph glyph-name="ogonek" unicode="&#x2db;" d="M389 -344 Q289 -344 230 -308 Q172 -272 172 -207 Q172 -109 326 20 L524 20 Q413 -91 414 -141 Q414 -164 428 -174 Q442 -184 477 -196 Q512 -208 527 -222 Q542 -237 541 -266 Q536 -344 389 -344 Z" /><glyph glyph-name="tilde" unicode="&#x2dc;" d="M864 1212 Q786 1212 707 1268 Q628 1324 582 1325 Q536 1324 490 1268 Q442 1212 398 1212 Q354 1212 330 1236 Q306 1260 305 1292 Q305 1324 322 1354 Q437 1559 600 1559 Q682 1558 759 1502 Q836 1446 882 1446 Q928 1446 974 1502 Q1022 1558 1066 1558 Q1110 1558 1135 1535 Q1183 1489 1143 1417 Q1028 1212 864 1212 Z" /><glyph glyph-name="hungarumlaut" unicode="&#x2dd;" d="M899 1493 Q963 1561 1018 1561 Q1073 1561 1117 1530 Q1161 1499 1161 1462 Q1161 1425 1116 1393 L956 1274 Q866 1206 792 1206 Q718 1206 717 1264 Q717 1293 743 1321 L899 1493 ZM616 1561 Q672 1561 716 1530 Q760 1499 760 1462 Q760 1425 715 1393 L555 1274 Q465 1206 390 1206 Q315 1206 315 1264 Q315 1293 342 1321 L498 1493 Q561 1561 616 1561 Z" /><glyph glyph-name="commaaccent" unicode="&#x326;" d="M310 -109 Q376 -108 415 -146 Q453 -184 453 -252 Q453 -378 342 -488 Q231 -598 86 -598 Q29 -598 29 -554 Q29 -510 92 -498 Q248 -469 266 -356 Q151 -331 152 -250 Q152 -191 198 -150 Q244 -109 310 -109 Z" /><glyph glyph-name="Wgrave" unicode="&#x1e80;" d="M1262 1888 Q1344 1888 1370 1812 L1432 1645 Q1440 1620 1440 1602 Q1440 1534 1341 1534 Q1296 1534 1270 1548 Q1244 1562 1212 1602 L1118 1720 Q1090 1759 1090 1791 Q1090 1824 1146 1856 Q1202 1888 1262 1888 ZM1440 -23 L1425 -23 Q1286 -23 1280 117 L1219 909 L727 104 Q649 -23 522 -23 L508 -23 Q373 -23 360 117 L262 1227 Q258 1272 258 1300 Q258 1362 304 1404 Q350 1446 421 1446 Q492 1446 534 1411 Q576 1376 578 1315 L631 463 L1143 1325 Q1217 1450 1325 1450 L1343 1450 Q1476 1450 1487 1325 L1544 463 L2068 1341 Q2131 1445 2236 1446 Q2302 1446 2343 1411 Q2384 1376 2384 1327 Q2384 1278 2357 1233 L1651 104 Q1573 -23 1440 -23 Z" /><glyph glyph-name="wgrave" unicode="&#x1e81;" d="M928 1561 Q1010 1561 1036 1485 L1098 1317 Q1106 1292 1106 1274 Q1106 1206 1008 1206 Q964 1206 938 1220 Q912 1234 879 1274 L784 1393 Q756 1432 756 1464 Q756 1496 812 1528 Q868 1561 928 1561 ZM166 965 Q166 1024 215 1067 Q264 1110 329 1110 Q394 1110 436 1075 Q478 1040 481 979 L496 432 L815 987 Q887 1112 997 1112 L1014 1112 Q1075 1112 1113 1079 Q1151 1046 1153 987 L1178 430 L1513 1018 Q1566 1110 1659 1110 Q1718 1110 1751 1079 Q1784 1048 1784 999 Q1784 950 1759 909 L1278 106 Q1202 -21 1075 -20 L1065 -20 Q930 -20 924 119 L897 666 L569 106 Q495 -21 367 -20 L356 -20 Q221 -20 215 119 L170 891 Q166 936 166 965 Z" /><glyph glyph-name="Wacute" unicode="&#x1e82;" d="M1585 1602 Q1495 1534 1406 1534 Q1317 1534 1317 1591 Q1317 1620 1343 1649 L1499 1821 Q1562 1888 1618 1888 Q1674 1888 1733 1858 Q1790 1827 1790 1790 Q1790 1753 1745 1720 L1585 1602 ZM1440 -23 L1425 -23 Q1286 -23 1280 117 L1219 909 L727 104 Q649 -23 522 -23 L508 -23 Q373 -23 360 117 L262 1227 Q258 1272 258 1300 Q258 1362 304 1404 Q350 1446 421 1446 Q492 1446 534 1411 Q576 1376 578 1315 L631 463 L1143 1325 Q1217 1450 1325 1450 L1343 1450 Q1476 1450 1487 1325 L1544 463 L2068 1341 Q2131 1445 2236 1446 Q2302 1446 2343 1411 Q2384 1376 2384 1327 Q2384 1278 2357 1233 L1651 104 Q1573 -23 1440 -23 Z" /><glyph glyph-name="wacute" unicode="&#x1e83;" d="M1251 1274 Q1161 1206 1072 1206 Q983 1206 983 1264 Q983 1293 1010 1321 L1165 1493 Q1228 1561 1284 1561 Q1340 1561 1398 1530 Q1456 1498 1456 1462 Q1456 1426 1411 1393 L1251 1274 ZM166 965 Q166 1024 215 1067 Q264 1110 329 1110 Q394 1110 436 1075 Q478 1040 481 979 L496 432 L815 987 Q887 1112 997 1112 L1014 1112 Q1075 1112 1113 1079 Q1151 1046 1153 987 L1178 430 L1513 1018 Q1566 1110 1659 1110 Q1718 1110 1751 1079 Q1784 1048 1784 999 Q1784 950 1759 909 L1278 106 Q1202 -21 1075 -20 L1065 -20 Q930 -20 924 119 L897 666 L569 106 Q495 -21 367 -20 L356 -20 Q221 -20 215 119 L170 891 Q166 936 166 965 Z" /><glyph glyph-name="Wdieresis" unicode="&#x1e84;" d="M1658 1835 Q1726 1835 1766 1792 Q1806 1749 1791 1680 Q1776 1611 1726 1573 Q1674 1534 1604 1534 Q1534 1534 1492 1579 Q1450 1624 1473 1690 Q1487 1756 1538 1796 Q1589 1836 1658 1835 ZM1166 1534 Q1094 1534 1056 1576 Q1018 1618 1033 1687 Q1048 1756 1100 1796 Q1151 1835 1220 1835 Q1288 1835 1328 1792 Q1368 1749 1353 1680 Q1338 1611 1288 1573 Q1237 1534 1166 1534 ZM1440 -23 L1425 -23 Q1286 -23 1280 117 L1219 909 L727 104 Q649 -23 522 -23 L508 -23 Q373 -23 360 117 L262 1227 Q258 1272 258 1300 Q258 1362 304 1404 Q350 1446 421 1446 Q492 1446 534 1411 Q576 1376 578 1315 L631 463 L1143 1325 Q1217 1450 1325 1450 L1343 1450 Q1476 1450 1487 1325 L1544 463 L2068 1341 Q2131 1445 2236 1446 Q2302 1446 2343 1411 Q2384 1376 2384 1327 Q2384 1278 2357 1233 L1651 104 Q1573 -23 1440 -23 Z" /><glyph glyph-name="wdieresis" unicode="&#x1e85;" d="M1395 1246 Q1344 1206 1273 1206 Q1202 1206 1163 1248 Q1124 1290 1139 1359 Q1155 1428 1206 1468 Q1257 1508 1326 1507 Q1395 1507 1436 1463 Q1477 1419 1461 1353 Q1446 1286 1395 1246 ZM834 1206 Q764 1206 724 1249 Q684 1292 700 1360 Q716 1428 768 1468 Q820 1508 888 1507 Q956 1507 996 1464 Q1036 1421 1024 1362 Q984 1206 834 1206 ZM166 965 Q166 1024 215 1067 Q264 1110 329 1110 Q394 1110 436 1075 Q478 1040 481 979 L496 432 L815 987 Q887 1112 997 1112 L1014 1112 Q1075 1112 1113 1079 Q1151 1046 1153 987 L1178 430 L1513 1018 Q1566 1110 1659 1110 Q1718 1110 1751 1079 Q1784 1048 1784 999 Q1784 950 1759 909 L1278 106 Q1202 -21 1075 -20 L1065 -20 Q930 -20 924 119 L897 666 L569 106 Q495 -21 367 -20 L356 -20 Q221 -20 215 119 L170 891 Q166 936 166 965 Z" /><glyph glyph-name="Ygrave" unicode="&#x1ef2;" d="M616 1791 Q616 1824 672 1856 Q728 1888 788 1888 Q870 1888 897 1812 L958 1645 Q966 1620 967 1602 Q967 1534 868 1534 Q824 1534 798 1548 Q772 1562 739 1602 L645 1720 Q616 1759 616 1791 ZM1348 1448 Q1492 1448 1491 1314 Q1491 1250 1438 1194 L803 524 L700 145 Q680 72 633 30 Q586 -12 515 -12 Q444 -12 408 43 Q372 98 397 193 L494 553 L236 1178 Q205 1252 205 1306 Q205 1360 253 1402 Q301 1446 375 1446 Q484 1446 528 1323 L711 831 L1190 1358 Q1274 1448 1348 1448 Z" /><glyph glyph-name="ygrave" unicode="&#x1ef3;" d="M502 1393 Q473 1432 473 1464 Q473 1496 529 1528 Q585 1561 645 1561 Q727 1561 754 1485 L815 1317 Q823 1292 823 1274 Q823 1206 725 1206 Q680 1206 654 1220 Q628 1234 596 1274 L502 1393 ZM233 1068 Q278 1110 342 1110 Q406 1110 450 1074 Q494 1038 496 977 L559 344 L944 1012 Q997 1110 1102 1110 Q1163 1110 1200 1077 Q1237 1044 1237 996 Q1237 948 1196 883 L627 -27 Q522 -194 420 -264 Q318 -334 201 -334 Q84 -334 35 -311 Q-59 -270 -59 -176 Q-59 -121 -23 -81 Q14 -41 63 -41 Q74 -41 131 -56 Q188 -71 219 -72 Q276 -72 326 -6 L195 891 Q188 926 188 976 Q188 1026 233 1068 Z" /><glyph glyph-name="enspace" unicode="&#x2002;" d="" /><glyph glyph-name="emspace" unicode="&#x2003;" d="" /><glyph glyph-name="threeperemspace" unicode="&#x2004;" d="" /><glyph glyph-name="fourperemspace" unicode="&#x2005;" d="" /><glyph glyph-name="thinspace" unicode="&#x2009;" d="" /><glyph glyph-name="hairspace" unicode="&#x200a;" d="" /><glyph glyph-name="endash" unicode="&#x2013;" d="M268 489 Q207 489 163 531 Q119 572 119 634 Q119 696 163 738 Q207 780 268 780 L868 780 Q930 780 974 738 Q1018 696 1018 635 Q1018 574 974 532 Q930 490 868 489 L268 489 Z" /><glyph glyph-name="emdash" unicode="&#x2014;" d="M268 489 Q207 489 163 531 Q119 572 119 634 Q119 696 163 738 Q207 780 268 780 L1626 780 Q1688 780 1732 738 Q1776 696 1776 635 Q1776 574 1732 532 Q1688 490 1626 489 L268 489 Z" /><glyph glyph-name="quoteleft" unicode="&#x2018;" d="M506 820 Q455 774 374 774 Q293 774 254 834 Q215 894 240 1014 Q281 1217 434 1343 Q489 1388 560 1417 Q631 1446 688 1446 Q762 1446 762 1378 Q762 1323 690 1307 Q493 1266 477 1114 Q601 1081 573 940 Q557 866 506 820 Z" /><glyph glyph-name="quoteright" unicode="&#x2019;" d="M401 1400 Q452 1446 533 1446 Q614 1446 652 1387 Q690 1328 668 1206 Q627 1003 473 877 Q418 832 347 803 Q276 774 219 774 Q145 774 145 842 Q145 897 217 913 Q414 954 430 1106 Q306 1139 334 1280 Q350 1354 401 1400 Z" /><glyph glyph-name="quotesinglbase" unicode="&#x201a;" d="M118 293 Q170 340 251 340 Q332 340 370 282 Q408 224 385 100 Q344 -103 190 -229 Q134 -274 64 -303 Q-6 -332 -63 -332 Q-137 -332 -137 -264 Q-138 -209 -66 -193 Q131 -152 147 0 Q24 33 49 164 Q66 247 118 293 Z" /><glyph glyph-name="quotedblleft" unicode="&#x201c;" d="M511 819 Q459 772 378 772 Q297 772 259 830 Q221 888 244 1012 Q285 1215 438 1341 Q493 1386 564 1415 Q635 1444 692 1444 Q766 1444 766 1376 Q766 1321 694 1305 Q497 1264 481 1112 Q604 1079 580 948 Q563 865 511 819 ZM1031 819 Q979 772 898 772 Q817 772 779 830 Q741 888 764 1012 Q805 1215 958 1341 Q1013 1386 1084 1415 Q1155 1444 1212 1444 Q1286 1444 1286 1376 Q1286 1321 1214 1305 Q1017 1264 1001 1112 Q1124 1079 1100 948 Q1083 865 1031 819 Z" /><glyph glyph-name="quotedblright" unicode="&#x201d;" d="M921 1399 Q974 1446 1054 1446 Q1134 1446 1172 1388 Q1210 1330 1188 1206 Q1147 1003 993 877 Q938 832 867 803 Q796 774 739 774 Q665 774 666 842 Q665 897 737 913 Q934 954 950 1106 Q827 1139 852 1270 Q869 1353 921 1399 ZM401 1400 Q452 1446 533 1446 Q614 1446 652 1387 Q690 1328 668 1206 Q627 1003 473 877 Q418 832 347 803 Q276 774 219 774 Q145 774 145 842 Q145 897 217 913 Q414 954 430 1106 Q306 1139 334 1280 Q350 1354 401 1400 Z" /><glyph glyph-name="quotedblbase" unicode="&#x201e;" d="M638 293 Q690 340 771 340 Q852 340 890 282 Q928 224 905 100 Q864 -103 711 -229 Q656 -274 585 -303 Q514 -332 457 -332 Q383 -332 383 -264 Q383 -209 455 -193 Q652 -152 668 0 Q545 33 569 164 Q586 247 638 293 ZM118 293 Q170 340 251 340 Q332 340 370 282 Q408 224 385 100 Q344 -103 190 -229 Q134 -274 64 -303 Q-6 -332 -63 -332 Q-137 -332 -137 -264 Q-138 -209 -66 -193 Q131 -152 147 0 Q24 33 49 164 Q66 247 118 293 Z" /><glyph glyph-name="dagger" unicode="&#x2020;" d="M895 1102 Q895 1066 869 1044 Q843 1021 807 1024 L618 1040 L508 559 Q488 475 416 475 Q373 475 353 504 Q334 533 348 582 L487 1040 L336 1028 Q297 1026 272 1049 Q248 1072 248 1108 Q248 1144 272 1166 Q296 1188 334 1186 L520 1169 L551 1354 Q565 1446 647 1446 Q696 1446 714 1414 Q732 1382 713 1325 L655 1169 L809 1182 Q846 1184 870 1161 Q894 1138 895 1102 Z" /><glyph glyph-name="daggerdbl" unicode="&#x2021;" d="M660 385 Q684 362 684 326 Q684 290 659 268 Q634 245 598 248 L414 264 L381 80 Q365 -12 285 -12 Q236 -12 217 19 Q199 51 219 109 L279 264 L123 252 Q86 250 61 272 Q36 294 36 331 Q36 368 62 390 Q88 412 125 410 L311 393 L381 717 L485 1040 L336 1028 Q297 1026 272 1049 Q248 1072 248 1108 Q248 1144 272 1166 Q296 1188 334 1186 L520 1169 L551 1354 Q565 1446 647 1446 Q696 1446 714 1414 Q732 1382 713 1325 L655 1169 L809 1182 Q846 1184 870 1161 Q894 1138 895 1102 Q895 1066 869 1044 Q843 1021 807 1024 L621 1040 L553 717 L446 393 L596 406 Q636 408 660 385 Z" /><glyph glyph-name="bullet" unicode="&#x2022;" d="M504 410 Q393 410 330 474 Q267 538 266 647 Q266 794 364 915 Q462 1036 610 1036 Q721 1036 784 972 Q847 908 848 799 Q848 652 750 530 Q651 410 504 410 Z" /><glyph glyph-name="ellipsis" unicode="&#x2026;" d="M1474 34 Q1418 -12 1338 -12 Q1258 -12 1216 35 Q1174 82 1188 162 Q1202 242 1257 287 Q1312 332 1392 332 Q1472 332 1514 285 Q1556 238 1543 159 Q1530 80 1474 34 ZM902 34 Q846 -12 767 -12 Q688 -12 645 35 Q602 82 616 162 Q630 242 686 287 Q742 332 820 332 Q899 332 942 285 Q985 238 972 159 Q959 80 902 34 ZM331 34 Q275 -12 196 -12 Q117 -12 74 35 Q31 82 45 162 Q58 242 114 287 Q170 332 249 332 Q328 332 371 285 Q414 238 400 159 Q387 80 331 34 Z" /><glyph glyph-name="perthousand" unicode="&#x2030;" d="M416 27 Q377 -12 334 -12 Q291 -12 264 14 Q238 40 238 80 Q238 121 272 156 L1475 1407 Q1514 1446 1557 1446 Q1600 1446 1626 1420 Q1652 1394 1653 1354 Q1653 1314 1618 1278 L416 27 ZM2353 392 Q2354 548 2216 547 Q2146 547 2094 471 Q2042 395 2042 307 Q2042 162 2180 162 Q2250 162 2301 238 Q2353 314 2353 392 ZM2223 725 Q2378 725 2466 638 Q2554 552 2554 398 Q2554 244 2442 114 Q2330 -16 2172 -16 Q2016 -16 1928 71 Q1841 158 1841 312 Q1841 466 1954 595 Q2067 725 2223 725 ZM1206 307 Q1206 162 1344 162 Q1414 162 1465 238 Q1518 314 1518 392 Q1518 470 1484 508 Q1450 547 1380 547 Q1310 547 1258 471 Q1206 395 1206 307 ZM684 1116 Q684 1272 546 1272 Q476 1272 425 1196 Q373 1120 373 1032 Q372 887 510 887 Q580 887 632 963 Q684 1038 684 1116 ZM1631 638 Q1718 552 1718 398 Q1718 244 1606 114 Q1494 -16 1336 -16 Q1180 -16 1093 71 Q1006 158 1006 312 Q1006 466 1118 595 Q1232 725 1388 725 Q1544 725 1631 638 ZM772 839 Q658 709 502 709 Q346 709 259 796 Q172 882 172 1036 Q172 1190 285 1320 Q398 1450 554 1450 Q710 1450 798 1363 Q886 1276 885 1122 Q885 968 772 839 Z" /><glyph glyph-name="guilsinglleft" unicode="&#x2039;" d="M614 993 Q666 992 699 962 Q731 932 731 878 Q731 824 688 784 L389 502 L512 268 Q532 227 532 181 Q532 135 494 99 Q456 63 401 63 Q319 63 281 139 L141 416 Q108 482 108 518 Q108 554 150 590 L496 932 Q562 993 614 993 Z" /><glyph glyph-name="guilsinglright" unicode="&#x203a;" d="M262 145 Q196 84 143 84 Q90 84 58 115 Q26 146 26 200 Q26 254 70 293 L369 575 L246 809 Q195 914 263 978 Q301 1014 356 1014 Q438 1014 477 938 L616 662 Q649 596 649 560 Q649 524 608 487 L262 145 Z" /><glyph glyph-name="fraction" unicode="&#x2044;" d="M-78 -213 Q-118 -213 -146 -187 Q-174 -160 -174 -112 Q-174 -64 -121 0 L1085 1485 Q1148 1565 1210 1565 Q1251 1565 1279 1539 Q1306 1513 1306 1464 Q1306 1415 1253 1352 L47 -133 Q-16 -213 -78 -213 Z" /><glyph glyph-name="Euro" unicode="&#x20ac;" d="M975 997 Q1018 996 1049 966 Q1080 936 1080 893 Q1080 850 1048 820 Q1018 790 975 791 L621 791 Q601 736 586 651 L883 651 Q926 650 956 620 Q986 590 987 547 Q987 504 956 474 Q925 444 883 444 L584 444 Q602 354 666 307 Q730 260 817 260 Q952 260 1057 356 Q1100 395 1159 395 Q1218 395 1262 356 Q1306 316 1305 254 Q1305 192 1245 141 Q1052 -25 816 -25 Q580 -25 431 101 Q283 227 254 444 L168 444 Q125 444 94 474 Q63 504 63 547 Q63 590 94 621 Q125 652 168 651 L258 651 Q268 729 285 791 L260 791 Q217 790 186 820 Q155 850 156 893 Q156 936 186 967 Q217 998 260 997 L346 997 Q438 1206 612 1332 Q786 1458 1016 1458 Q1327 1458 1473 1249 Q1516 1186 1516 1128 Q1516 1070 1470 1029 Q1424 987 1352 987 Q1278 987 1237 1047 Q1206 1090 1186 1112 Q1166 1134 1116 1154 Q1066 1173 999 1174 Q807 1173 698 997 L975 997 Z" /><glyph glyph-name="published" unicode="&#x2117;" d="M797 727 L932 727 Q995 727 1032 761 Q1069 795 1069 846 L1069 850 Q1069 905 1031 937 Q993 969 928 969 L797 969 L797 727 ZM621 412 L621 1036 Q621 1073 646 1099 Q672 1125 709 1124 L944 1124 Q1083 1124 1165 1050 Q1247 976 1247 852 L1247 848 Q1247 717 1157 645 Q1067 573 928 573 L797 573 L797 412 Q797 375 771 349 Q744 324 708 324 Q672 324 646 349 Q621 375 621 412 ZM425 248 Q612 57 891 57 Q1170 57 1359 250 Q1548 443 1548 717 L1548 721 Q1548 996 1361 1186 Q1174 1376 895 1376 Q616 1376 427 1184 Q238 992 238 717 L238 713 Q238 439 425 248 ZM891 -25 Q582 -25 367 191 Q152 407 152 713 L152 717 Q152 1022 369 1240 Q586 1458 895 1458 Q1204 1458 1419 1242 Q1634 1026 1634 721 L1634 717 Q1634 412 1417 194 Q1200 -24 891 -25 Z" /><glyph glyph-name="servicemark" unicode="&#x2120;" d="M168 967 Q186 985 212 985 Q238 985 262 965 Q336 904 424 903 Q471 904 501 924 Q530 944 530 975 Q530 1006 508 1024 Q484 1042 406 1073 Q328 1104 291 1142 Q254 1180 254 1239 Q254 1330 326 1388 Q398 1446 512 1446 Q626 1446 700 1389 Q733 1362 733 1333 Q733 1304 716 1287 Q699 1270 673 1270 Q647 1270 627 1286 Q566 1333 506 1333 Q446 1333 418 1313 Q389 1293 389 1264 Q389 1236 413 1216 Q436 1196 514 1165 Q592 1134 628 1098 Q664 1062 664 1001 Q664 905 591 848 Q518 791 396 791 Q274 791 176 868 Q150 891 150 920 Q150 949 168 967 ZM1466 1442 L1479 1442 Q1514 1442 1528 1417 Q1542 1392 1532 1350 L1401 864 Q1383 794 1325 795 Q1290 796 1275 820 Q1260 844 1272 885 L1350 1178 L1190 1008 Q1157 971 1115 971 Q1073 971 1055 1014 L991 1180 L905 864 Q887 794 829 795 Q792 794 778 818 Q764 842 776 885 L907 1370 Q923 1442 983 1442 L995 1442 Q1036 1442 1059 1389 L1159 1126 L1384 1397 Q1423 1442 1466 1442 Z" /><glyph glyph-name="trademark" unicode="&#x2122;" d="M1460 1442 L1473 1442 Q1508 1442 1522 1417 Q1536 1392 1526 1350 L1395 864 Q1377 794 1319 795 Q1284 796 1269 820 Q1254 844 1266 885 L1343 1178 L1184 1008 Q1151 971 1109 971 Q1067 971 1049 1014 L985 1180 L899 864 Q881 794 823 795 Q786 794 772 818 Q758 842 770 885 L901 1370 Q917 1442 977 1442 L989 1442 Q1030 1442 1053 1389 L1153 1126 L1378 1397 Q1417 1442 1460 1442 ZM301 1307 Q272 1307 254 1324 Q236 1341 236 1369 Q236 1397 255 1415 Q274 1433 301 1434 L713 1434 Q742 1434 760 1416 Q778 1398 778 1369 Q778 1341 760 1324 Q742 1307 713 1307 L561 1307 L442 860 Q424 790 360 791 Q325 792 309 816 Q293 840 303 881 L418 1307 L301 1307 Z" /><glyph glyph-name="minus" unicode="&#x2212;" d="M1081 575 L313 575 Q254 575 212 617 Q170 658 170 718 Q170 778 212 821 Q254 864 313 864 L1081 864 Q1140 864 1184 821 Q1228 778 1227 719 Q1227 660 1184 617 Q1140 575 1081 575 Z" /><glyph glyph-name="f_f" unicode="&#xfb00;" d="M1034 872 Q999 906 999 964 Q999 1022 1037 1060 Q1075 1098 1128 1098 L1184 1098 L1198 1157 Q1290 1509 1642 1509 Q1699 1509 1737 1503 Q1839 1485 1839 1384 Q1839 1312 1797 1272 Q1755 1232 1702 1243 Q1669 1247 1653 1247 Q1532 1247 1499 1128 L1491 1098 L1602 1098 Q1655 1098 1693 1060 Q1731 1022 1731 965 Q1731 908 1693 870 Q1655 832 1602 831 L1425 831 L1239 145 Q1198 -12 1056 -12 Q986 -12 949 43 Q913 98 940 193 L1114 831 Q1069 837 1034 872 ZM192 872 Q158 906 158 964 Q158 1022 196 1060 Q234 1098 287 1098 L342 1098 L356 1157 Q448 1509 801 1509 Q858 1509 895 1503 Q997 1485 997 1384 Q997 1312 955 1272 Q913 1232 860 1243 Q827 1247 811 1247 Q690 1247 657 1128 L649 1098 L760 1098 Q813 1098 851 1060 Q889 1022 889 965 Q889 908 851 870 Q813 832 760 831 L584 831 L397 145 Q356 -12 214 -12 Q144 -12 108 43 Q72 98 98 193 L272 831 Q226 837 192 872 Z" /><glyph glyph-name="fi" unicode="&#xfb01;" d="M1473 1247 Q1418 1208 1342 1208 Q1266 1208 1223 1249 Q1179 1290 1194 1359 Q1208 1428 1264 1466 Q1320 1504 1394 1505 Q1468 1505 1512 1464 Q1556 1423 1542 1354 Q1528 1286 1473 1247 ZM1287 1110 Q1358 1110 1394 1054 Q1430 998 1403 905 L1198 145 Q1157 -12 1015 -12 Q944 -12 908 43 Q872 98 899 193 L1104 952 Q1146 1110 1287 1110 ZM192 872 Q158 906 158 964 Q158 1022 196 1060 Q234 1098 287 1098 L342 1098 L356 1157 Q448 1509 801 1509 Q858 1509 895 1503 Q997 1485 997 1384 Q997 1312 955 1272 Q913 1232 860 1243 Q827 1247 811 1247 Q690 1247 657 1128 L649 1098 L760 1098 Q813 1098 851 1060 Q889 1022 889 965 Q889 908 851 870 Q813 832 760 831 L584 831 L397 145 Q356 -12 214 -12 Q144 -12 108 43 Q72 98 98 193 L272 831 Q226 837 192 872 Z" /><glyph glyph-name="fl" unicode="&#xfb02;" d="M1394 1507 Q1464 1507 1500 1452 Q1536 1397 1509 1303 L1198 145 Q1157 -12 1015 -12 Q944 -12 908 43 Q872 98 899 193 L1210 1350 Q1252 1507 1394 1507 ZM192 872 Q158 906 158 964 Q158 1022 196 1060 Q234 1098 287 1098 L342 1098 L356 1157 Q448 1509 801 1509 Q858 1509 895 1503 Q997 1485 997 1384 Q997 1312 955 1272 Q913 1232 860 1243 Q827 1247 811 1247 Q690 1247 657 1128 L649 1098 L760 1098 Q813 1098 851 1060 Q889 1022 889 965 Q889 908 851 870 Q813 832 760 831 L584 831 L397 145 Q356 -12 214 -12 Q144 -12 108 43 Q72 98 98 193 L272 831 Q226 837 192 872 Z" /><glyph glyph-name="f_f_i" unicode="&#xfb03;" d="M2315 1247 Q2259 1208 2184 1208 Q2109 1208 2065 1249 Q2021 1290 2036 1359 Q2050 1428 2105 1466 Q2160 1504 2235 1505 Q2310 1505 2354 1464 Q2398 1423 2384 1355 Q2370 1287 2315 1247 ZM2129 1110 Q2200 1110 2236 1054 Q2272 998 2245 905 L2040 145 Q1998 -12 1856 -12 Q1786 -12 1750 43 Q1714 98 1741 193 L1946 952 Q1988 1110 2129 1110 ZM1034 872 Q999 906 999 964 Q999 1022 1037 1060 Q1075 1098 1128 1098 L1184 1098 L1198 1157 Q1290 1509 1642 1509 Q1699 1509 1737 1503 Q1839 1485 1839 1384 Q1839 1312 1797 1272 Q1755 1232 1702 1243 Q1669 1247 1653 1247 Q1532 1247 1499 1128 L1491 1098 L1602 1098 Q1655 1098 1693 1060 Q1731 1022 1731 965 Q1731 908 1693 870 Q1655 832 1602 831 L1425 831 L1239 145 Q1198 -12 1056 -12 Q986 -12 949 43 Q913 98 940 193 L1114 831 Q1069 837 1034 872 ZM192 872 Q158 906 158 964 Q158 1022 196 1060 Q234 1098 287 1098 L342 1098 L356 1157 Q448 1509 801 1509 Q858 1509 895 1503 Q997 1485 997 1384 Q997 1312 955 1272 Q913 1232 860 1243 Q827 1247 811 1247 Q690 1247 657 1128 L649 1098 L760 1098 Q813 1098 851 1060 Q889 1022 889 965 Q889 908 851 870 Q813 832 760 831 L584 831 L397 145 Q356 -12 214 -12 Q144 -12 108 43 Q72 98 98 193 L272 831 Q226 837 192 872 Z" /><glyph glyph-name="f_f_l" unicode="&#xfb04;" d="M2236 1507 Q2306 1507 2342 1452 Q2378 1397 2351 1303 L2040 145 Q1998 -12 1856 -12 Q1786 -12 1750 43 Q1714 98 1741 193 L2052 1350 Q2094 1507 2236 1507 ZM1034 872 Q999 906 999 964 Q999 1022 1037 1060 Q1075 1098 1128 1098 L1184 1098 L1198 1157 Q1290 1509 1642 1509 Q1699 1509 1737 1503 Q1839 1485 1839 1384 Q1839 1312 1797 1272 Q1755 1232 1702 1243 Q1669 1247 1653 1247 Q1532 1247 1499 1128 L1491 1098 L1602 1098 Q1655 1098 1693 1060 Q1731 1022 1731 965 Q1731 908 1693 870 Q1655 832 1602 831 L1425 831 L1239 145 Q1198 -12 1056 -12 Q986 -12 949 43 Q913 98 940 193 L1114 831 Q1069 837 1034 872 ZM192 872 Q158 906 158 964 Q158 1022 196 1060 Q234 1098 287 1098 L342 1098 L356 1157 Q448 1509 801 1509 Q858 1509 895 1503 Q997 1485 997 1384 Q997 1312 955 1272 Q913 1232 860 1243 Q827 1247 811 1247 Q690 1247 657 1128 L649 1098 L760 1098 Q813 1098 851 1060 Q889 1022 889 965 Q889 908 851 870 Q813 832 760 831 L584 831 L397 145 Q356 -12 214 -12 Q144 -12 108 43 Q72 98 98 193 L272 831 Q226 837 192 872 Z" /></font>
</defs>
</svg>
