<?xml version="1.0" standalone="no"?><!DOCTYPE svg PUBLIC "-//W3C//DTD SVG 1.1//EN" "http://www.w3.org/Graphics/SVG/1.1/DTD/svg11.dtd" ><svg xmlns="http://www.w3.org/2000/svg"><metadata></metadata><defs><font id="H&FJ: Gotham Rounded Medium: 1.200" horiz-adv-x="2514"><font-face font-family="GothamRounded-Medium" font-weight="350" font-stretch="normal" units-per-em="2048" panose-1="2 0 0 0 0 0 0 0 0 0" ascent="1638" descent="-410" x-height="0" bbox="-100 -563 2417 2185" underline-thickness="102" underline-position="-153" unicode-range="U+0020-fb04" /><missing-glyph horiz-adv-x="1024" d="M512 492 L145 -307 L879 -307 L512 492 ZM922 1384 L569 614 L922 -156 L922 1384 ZM102 -156 L455 614 L102 1384 L102 -156 ZM145 1536 L512 737 L879 1536 L145 1536 ZM0 -410 L0 1638 L1024 1638 L1024 -410 L0 -410 Z" /><glyph glyph-name="space" unicode=" " d="" /><glyph glyph-name="exclam" unicode="!" d="M164 152 Q164 211 206 252 Q248 293 310 293 Q372 293 414 252 Q456 211 455 152 L455 131 Q455 72 414 31 Q372 -10 310 -10 Q248 -10 206 31 Q164 72 164 131 L164 152 ZM236 1440 L383 1440 Q418 1440 440 1414 Q462 1388 457 1352 L385 516 Q383 483 361 463 Q338 442 308 442 Q278 442 258 462 Q238 482 236 516 L164 1352 Q160 1388 180 1414 Q200 1440 236 1440 Z" /><glyph glyph-name="quotedbl" unicode="&quot;" d="M281 1440 L360 1440 Q392 1440 410 1422 Q428 1404 428 1382 Q428 1360 420 1327 L270 872 Q247 809 197 809 Q166 809 145 830 Q125 852 127 887 L164 1325 Q168 1374 200 1407 Q232 1440 281 1440 ZM729 1440 L811 1440 Q840 1440 858 1422 Q876 1404 876 1382 Q876 1360 868 1327 L719 872 Q696 809 645 809 Q614 808 595 830 Q576 852 578 887 L612 1325 Q616 1374 648 1407 Q680 1440 729 1440 Z" /><glyph glyph-name="numbersign" unicode="#" d="M526 543 L846 543 L907 899 L588 899 L526 543 ZM176 330 Q131 330 100 360 Q70 390 70 435 Q70 479 100 511 Q131 543 176 543 L307 543 L369 899 L250 899 Q207 899 175 931 Q143 963 143 1006 Q143 1048 175 1080 Q207 1112 250 1112 L406 1112 L446 1356 Q452 1396 482 1420 Q512 1444 557 1444 Q602 1444 634 1406 Q666 1368 659 1319 L623 1112 L944 1112 L985 1356 Q991 1396 1022 1420 Q1053 1444 1098 1444 Q1143 1444 1175 1405 Q1207 1366 1198 1319 L1163 1112 L1257 1112 Q1300 1112 1332 1081 Q1364 1050 1364 1006 Q1364 962 1332 931 Q1300 899 1257 899 L1126 899 L1065 543 L1182 543 Q1228 543 1258 512 Q1288 481 1288 437 Q1288 393 1257 361 Q1226 329 1182 330 L1028 330 L985 78 Q979 39 949 14 Q918 -10 874 -10 Q830 -10 797 28 Q764 66 772 115 L811 330 L489 330 L446 78 Q440 41 410 15 Q380 -10 335 -10 Q289 -10 257 27 Q225 64 233 115 L270 330 L176 330 Z" /><glyph glyph-name="dollar" unicode="$" d="M395 1056 Q395 987 436 944 Q477 901 592 864 L592 1227 Q496 1219 446 1172 Q396 1125 395 1056 ZM904 264 Q956 311 956 383 Q956 455 912 500 Q868 545 754 580 L754 207 Q852 217 904 264 ZM584 1475 Q584 1512 610 1538 Q636 1564 674 1563 Q710 1563 736 1537 Q762 1511 762 1475 L762 1430 Q932 1410 1079 1317 Q1140 1282 1140 1227 Q1140 1172 1107 1139 Q1073 1106 1034 1106 Q995 1106 965 1124 Q854 1192 754 1214 L754 821 Q986 762 1092 663 Q1198 564 1198 398 Q1198 232 1079 126 Q960 18 762 0 L762 -123 Q762 -160 736 -186 Q710 -212 674 -211 Q638 -211 610 -185 Q583 -159 584 -123 L584 4 Q357 29 164 164 Q109 199 109 254 Q109 309 141 342 Q174 375 217 375 Q260 375 289 352 Q441 241 592 215 L592 618 Q362 678 258 774 Q154 870 154 1037 Q154 1204 272 1310 Q391 1415 584 1432 L584 1475 Z" /><glyph glyph-name="percent" unicode="%" d="M1147 350 Q1147 262 1192 202 Q1237 142 1306 141 Q1374 140 1416 200 Q1458 260 1458 346 L1458 350 Q1458 438 1413 498 Q1368 558 1299 559 Q1230 559 1188 500 Q1146 441 1147 354 L1147 350 ZM281 1083 Q282 994 326 934 Q370 874 439 874 Q508 874 550 934 Q592 994 592 1079 L592 1083 Q592 1172 547 1232 Q502 1292 433 1292 Q364 1292 322 1233 Q280 1174 281 1087 L281 1083 ZM1545 91 Q1450 -16 1302 -16 Q1154 -16 1059 89 Q965 194 965 346 L965 350 Q965 504 1060 610 Q1156 716 1304 716 Q1452 716 1546 612 Q1640 506 1640 354 L1640 350 Q1640 198 1545 91 ZM467 27 Q442 -10 401 -10 Q360 -10 338 14 Q316 38 315 67 Q315 97 334 123 L1274 1407 Q1294 1444 1336 1444 Q1378 1444 1402 1420 Q1450 1372 1407 1311 L467 27 ZM679 823 Q584 717 436 717 Q288 717 193 822 Q99 927 98 1079 L98 1083 Q98 1237 194 1343 Q290 1450 438 1450 Q588 1450 681 1345 Q774 1240 774 1087 L774 1083 Q774 929 679 823 Z" /><glyph glyph-name="ampersand" unicode="&amp;" d="M573 188 Q712 188 846 315 L526 641 Q333 557 334 401 L334 397 Q334 308 402 248 Q470 188 573 188 ZM836 1098 Q836 1170 791 1214 Q746 1258 672 1260 Q598 1260 550 1212 Q502 1164 502 1087 L502 1083 Q501 989 610 870 Q725 910 780 964 Q835 1018 836 1094 L836 1098 ZM1308 12 Q1276 -20 1228 -20 Q1180 -20 1141 18 L991 170 Q794 -20 549 -20 Q344 -20 212 92 Q80 204 80 389 L80 393 Q80 663 385 795 Q266 947 266 1094 L266 1098 Q266 1248 379 1353 Q492 1458 669 1458 Q846 1458 952 1359 Q1058 1260 1059 1112 L1059 1108 Q1059 854 745 735 L989 487 Q1046 569 1108 692 Q1135 752 1191 752 Q1247 752 1279 720 Q1311 688 1311 653 Q1311 618 1296 590 Q1224 457 1141 338 L1300 178 Q1339 139 1339 92 Q1339 45 1308 12 Z" /><glyph glyph-name="quotesingle" unicode="&#39;" d="M281 1440 L360 1440 Q390 1440 410 1422 Q430 1404 430 1382 Q430 1360 422 1327 L272 872 Q249 809 197 809 Q166 809 145 830 Q125 852 127 887 L164 1325 Q168 1374 200 1407 Q232 1440 281 1440 Z" /><glyph glyph-name="parenleft" unicode="(" d="M803 -169 Q802 -216 774 -246 Q746 -276 707 -276 Q668 -276 649 -262 Q129 49 129 588 Q129 1127 649 1438 Q666 1452 706 1452 Q746 1452 774 1421 Q802 1390 803 1344 Q803 1298 762 1268 Q565 1129 471 966 Q377 803 377 588 Q377 373 471 210 Q565 47 762 -92 Q803 -123 803 -169 Z" /><glyph glyph-name="parenright" unicode=")" d="M252 -262 Q234 -276 195 -276 Q156 -276 127 -246 Q98 -216 98 -170 Q98 -125 141 -92 Q338 47 432 210 Q526 373 526 588 Q526 803 432 966 Q338 1129 141 1268 Q98 1301 98 1346 Q98 1392 127 1422 Q156 1452 195 1452 Q234 1452 252 1438 Q774 1127 774 588 Q774 49 252 -262 Z" /><glyph glyph-name="asterisk" unicode="*" d="M125 976 Q125 1012 172 1032 L352 1110 L172 1190 Q125 1210 125 1245 Q125 1280 145 1300 Q189 1344 244 1300 L397 1188 L377 1370 Q373 1404 391 1426 Q409 1448 440 1448 Q471 1448 489 1426 Q507 1404 504 1372 L483 1188 L637 1300 Q695 1343 736 1302 Q756 1282 756 1246 Q756 1210 709 1190 L528 1110 L709 1032 Q756 1012 756 976 Q756 940 736 920 Q696 881 637 920 L483 1032 L504 850 Q508 816 490 794 Q472 772 440 772 Q409 772 391 794 Q373 816 377 848 L397 1032 L244 920 Q184 882 146 920 Q126 940 125 976 Z" /><glyph glyph-name="plus" unicode="+" d="M532 324 L532 608 L242 608 Q195 608 162 641 Q129 674 129 720 Q129 766 163 800 Q197 834 242 834 L532 834 L532 1118 Q532 1167 566 1201 Q600 1235 648 1235 Q696 1235 731 1201 Q766 1167 766 1118 L766 834 L1057 834 Q1102 834 1136 800 Q1170 766 1170 720 Q1170 674 1136 641 Q1104 608 1057 608 L766 608 L766 324 Q766 275 731 241 Q696 207 648 207 Q600 207 566 241 Q532 275 532 324 Z" /><glyph glyph-name="comma" unicode="," d="M61 -240 Q61 -195 109 -184 Q254 -137 248 0 Q199 14 165 51 Q131 88 131 139 L131 156 Q131 215 170 254 Q208 293 274 293 Q340 293 379 245 Q418 197 418 113 L418 90 Q418 -105 317 -209 Q225 -297 125 -297 Q61 -297 61 -240 Z" /><glyph glyph-name="hyphen" unicode="-" d="M225 506 Q176 506 140 542 Q104 578 104 628 Q104 678 140 714 Q176 750 225 750 L610 750 Q659 750 695 714 Q731 678 731 628 Q731 578 695 542 Q659 506 610 506 L225 506 Z" /><glyph glyph-name="period" unicode="." d="M131 152 Q131 211 172 252 Q213 293 275 293 Q336 293 378 252 Q420 211 420 152 L420 131 Q420 72 379 31 Q338 -10 276 -10 Q214 -10 172 31 Q131 72 131 131 L131 152 Z" /><glyph glyph-name="slash" unicode="/" d="M107 -272 Q56 -272 28 -244 Q0 -216 0 -185 Q0 -153 12 -129 L850 1587 Q879 1644 929 1644 Q979 1644 1008 1617 Q1036 1588 1036 1560 Q1036 1532 1026 1501 L186 -215 Q157 -272 107 -272 Z" /><glyph glyph-name="zero" unicode="0" d="M743 203 Q907 203 1007 349 Q1106 495 1106 713 L1106 717 Q1106 934 1004 1082 Q902 1230 740 1230 Q578 1230 477 1086 Q377 940 377 721 L377 717 Q377 500 478 352 Q579 204 743 203 ZM1191 189 Q1015 -25 739 -25 Q463 -25 290 187 Q117 399 117 713 L117 717 Q117 1030 292 1244 Q467 1458 743 1458 Q1018 1458 1192 1246 Q1366 1034 1366 721 L1366 717 Q1366 404 1191 189 Z" /><glyph glyph-name="one" unicode="1" d="M365 115 L365 1196 L217 1151 Q197 1145 162 1145 Q127 1145 94 1177 Q61 1209 61 1251 Q61 1337 145 1360 L362 1430 Q440 1453 485 1452 L489 1452 Q542 1452 578 1416 Q614 1380 614 1327 L614 115 Q614 62 578 26 Q542 -10 490 -10 Q438 -10 401 27 Q365 64 365 115 Z" /><glyph glyph-name="two" unicode="2" d="M126 32 Q88 64 88 128 Q88 192 154 244 L594 618 Q746 745 804 828 Q862 912 862 1010 Q862 1108 797 1168 Q731 1228 631 1229 Q479 1229 348 1069 Q313 1030 263 1030 Q213 1030 179 1064 Q145 1098 145 1143 Q145 1188 174 1223 Q268 1340 378 1397 Q488 1454 649 1454 Q860 1454 991 1336 Q1122 1218 1122 1026 L1122 1022 Q1122 862 1040 750 Q958 638 750 467 L455 221 L1036 221 Q1081 221 1114 188 Q1147 154 1147 110 Q1147 66 1114 33 Q1081 0 1036 0 L223 0 Q164 0 126 32 Z" /><glyph glyph-name="three" unicode="3" d="M637 -25 Q344 -25 152 162 Q111 195 111 248 Q111 301 146 337 Q182 373 230 373 Q278 373 315 340 Q452 203 641 203 Q747 203 818 263 Q889 323 889 420 L889 424 Q889 528 800 586 Q711 644 559 645 L508 645 Q463 645 431 677 Q399 709 399 756 Q399 803 453 856 L788 1214 L268 1214 Q223 1214 190 1246 Q157 1278 158 1323 Q158 1368 189 1401 Q221 1434 268 1434 L1001 1434 Q1056 1434 1092 1403 Q1128 1372 1126 1314 Q1126 1256 1055 1186 L717 836 Q899 813 1019 716 Q1139 619 1139 434 L1139 430 Q1140 231 1000 103 Q860 -25 637 -25 Z" /><glyph glyph-name="four" unicode="4" d="M844 528 L844 1096 L373 528 L844 528 ZM844 109 L844 322 L203 322 Q152 322 116 356 Q80 390 80 448 Q80 508 135 573 L809 1372 Q846 1414 879 1434 Q912 1454 963 1454 Q1014 1454 1050 1419 Q1086 1384 1085 1333 L1085 528 L1196 528 Q1241 528 1271 498 Q1300 468 1300 424 Q1300 381 1270 351 Q1240 321 1196 322 L1085 322 L1085 109 Q1084 58 1050 24 Q1016 -10 965 -10 Q914 -10 879 24 Q844 58 844 109 Z" /><glyph glyph-name="five" unicode="5" d="M1155 461 Q1154 244 1008 110 Q862 -24 618 -25 Q374 -25 172 131 Q121 172 121 225 Q121 278 157 314 Q193 350 239 350 Q285 350 315 326 Q465 205 627 205 Q750 204 828 272 Q906 340 905 453 L905 457 Q905 566 823 630 Q741 694 608 694 Q526 694 447 670 Q368 646 362 645 Q313 645 252 688 Q191 731 195 805 L225 1321 Q227 1370 260 1402 Q293 1434 340 1434 L989 1434 Q1036 1434 1069 1401 Q1102 1368 1102 1322 Q1102 1276 1069 1243 Q1036 1210 989 1210 L451 1210 L428 874 Q541 915 655 915 Q876 915 1016 800 Q1155 684 1155 465 L1155 461 Z" /><glyph glyph-name="six" unicode="6" d="M684 195 Q815 196 893 268 Q971 340 971 453 L971 457 Q971 566 890 636 Q809 706 678 707 Q547 707 467 634 Q387 561 387 455 L387 451 Q387 340 470 268 Q553 196 684 195 ZM1223 463 Q1223 252 1070 114 Q918 -24 680 -25 Q442 -25 291 127 Q205 213 161 340 Q117 467 117 674 L117 678 Q117 1020 278 1239 Q439 1458 731 1458 Q938 1458 1090 1356 Q1153 1314 1153 1256 Q1153 1198 1117 1164 Q1081 1130 1041 1130 Q1001 1130 969 1149 Q848 1229 723 1229 Q567 1229 478 1103 Q389 977 379 774 Q526 918 732 918 Q938 918 1080 797 Q1222 676 1223 467 L1223 463 Z" /><glyph glyph-name="seven" unicode="7" d="M318 20 Q281 51 281 95 Q281 139 303 180 L860 1212 L240 1212 Q193 1212 161 1245 Q129 1278 129 1323 Q129 1368 161 1401 Q193 1434 240 1434 L1044 1434 Q1097 1434 1128 1404 Q1159 1374 1159 1320 Q1159 1266 1124 1200 L530 74 Q485 -10 410 -10 Q357 -10 318 20 Z" /><glyph glyph-name="eight" unicode="8" d="M427 253 Q508 190 645 190 Q782 190 864 252 Q946 314 946 406 L946 410 Q946 506 860 566 Q774 626 645 626 Q516 626 431 566 Q346 506 346 410 L346 406 Q346 316 427 253 ZM645 827 Q756 826 828 886 Q900 946 901 1038 L901 1042 Q901 1126 829 1184 Q756 1242 644 1243 Q532 1243 460 1186 Q388 1129 389 1044 L389 1040 Q390 946 462 886 Q534 826 645 827 ZM1192 395 Q1192 208 1038 94 Q884 -20 646 -20 Q406 -20 252 94 Q98 208 98 391 L98 395 Q98 635 356 743 Q147 854 147 1063 L147 1067 Q146 1234 288 1344 Q430 1454 645 1454 Q860 1454 1001 1343 Q1142 1232 1143 1067 L1143 1063 Q1143 854 934 743 Q1192 626 1192 399 L1192 395 Z" /><glyph glyph-name="nine" unicode="9" d="M666 715 Q799 715 878 790 Q957 865 956 973 L956 977 Q956 1092 874 1166 Q792 1240 659 1241 Q526 1241 450 1165 Q374 1089 373 975 L373 971 Q373 858 453 786 Q533 714 666 715 ZM612 -25 Q401 -25 225 94 Q168 132 168 190 Q168 248 203 281 Q238 314 280 314 Q322 314 356 293 Q482 205 628 205 Q774 205 866 329 Q958 453 965 655 Q838 504 619 504 Q400 504 260 628 Q121 752 121 958 L121 963 Q121 1176 270 1317 Q420 1458 660 1458 Q900 1458 1055 1307 Q1227 1131 1227 760 L1227 756 Q1227 406 1063 190 Q899 -26 612 -25 Z" /><glyph glyph-name="colon" unicode=":" d="M141 152 Q141 211 182 252 Q224 293 286 293 Q348 293 389 252 Q430 211 430 152 L430 131 Q430 72 389 31 Q348 -10 286 -10 Q224 -10 182 31 Q141 72 141 131 L141 152 ZM141 950 Q141 1010 182 1052 Q224 1094 286 1094 Q348 1094 389 1053 Q430 1012 430 950 L430 932 Q430 872 389 830 Q348 788 286 788 Q224 788 182 829 Q141 870 141 932 L141 950 Z" /><glyph glyph-name="semicolon" unicode=";" d="M72 -240 Q72 -195 119 -184 Q264 -137 258 0 Q209 14 175 51 Q141 88 141 139 L141 156 Q141 215 180 254 Q219 293 285 293 Q352 293 390 245 Q428 197 428 113 L428 90 Q428 -105 328 -209 Q236 -297 135 -297 Q72 -297 72 -240 ZM141 950 Q141 1010 182 1052 Q224 1094 286 1094 Q348 1094 389 1053 Q430 1012 430 950 L430 932 Q430 872 389 830 Q348 788 286 788 Q224 788 182 829 Q141 870 141 932 L141 950 Z" /><glyph glyph-name="less" unicode="&lt;" d="M1096 226 Q1065 197 1030 197 Q995 197 963 213 L223 575 Q125 620 125 713 L125 729 Q125 821 223 866 L963 1229 Q1045 1269 1097 1217 Q1127 1186 1126 1141 Q1126 1071 1057 1038 L383 723 L1057 406 Q1127 373 1126 301 Q1126 256 1096 226 Z" /><glyph glyph-name="equal" unicode="=" d="M260 350 Q213 350 179 384 Q145 418 145 465 Q145 512 179 546 Q213 580 260 580 L1038 580 Q1085 580 1119 546 Q1153 512 1153 465 Q1153 418 1119 384 Q1085 350 1038 350 L260 350 ZM260 862 Q213 862 179 896 Q145 930 145 977 Q145 1024 179 1058 Q213 1092 260 1092 L1038 1092 Q1085 1092 1119 1058 Q1153 1024 1153 977 Q1153 930 1119 896 Q1085 862 1038 862 L260 862 Z" /><glyph glyph-name="greater" unicode="&gt;" d="M172 1141 Q172 1186 203 1216 Q234 1246 269 1245 Q304 1245 336 1229 L1073 866 Q1173 821 1174 729 L1174 713 Q1174 621 1073 575 L336 213 Q253 173 202 225 Q172 256 172 301 Q172 371 242 401 L915 719 L242 1036 Q172 1069 172 1141 Z" /><glyph glyph-name="question" unicode="?" d="M356 152 Q356 211 397 252 Q438 293 502 293 Q566 293 606 252 Q647 211 647 152 L647 131 Q647 72 606 31 Q565 -10 502 -10 Q439 -10 397 31 Q356 72 356 131 L356 152 ZM514 442 L502 442 Q467 442 442 466 Q417 490 414 524 L393 700 Q387 741 410 770 Q433 799 473 803 Q772 832 772 1024 L772 1028 Q772 1116 709 1169 Q646 1222 537 1223 Q383 1223 258 1110 Q223 1081 179 1081 Q135 1081 101 1114 Q68 1147 68 1197 Q68 1247 109 1282 Q289 1452 543 1452 Q760 1452 892 1339 Q1024 1226 1024 1036 L1024 1032 Q1024 690 610 618 L602 524 Q596 490 572 466 Q548 442 514 442 Z" /><glyph glyph-name="at" unicode="@" d="M721 552 Q720 432 780 374 Q840 315 944 315 Q1048 316 1134 412 Q1219 508 1219 622 Q1220 736 1158 798 Q1096 860 992 860 Q888 860 805 766 Q721 672 721 552 ZM1022 -332 Q633 -332 371 -71 Q109 190 109 560 Q109 930 370 1194 Q631 1458 1006 1458 Q1190 1458 1357 1390 Q1524 1322 1642 1211 Q1760 1099 1829 952 Q1899 805 1898 647 Q1898 401 1784 269 Q1670 137 1501 137 Q1288 137 1198 281 Q1059 138 891 138 Q723 138 616 245 Q510 353 510 524 Q510 737 651 887 Q792 1036 978 1036 Q1164 1036 1264 885 L1270 922 Q1288 1024 1376 1024 Q1423 1024 1453 988 Q1483 952 1475 899 L1397 461 Q1387 400 1386 373 Q1386 305 1430 266 Q1474 227 1546 227 Q1661 227 1739 337 Q1817 447 1817 647 Q1817 938 1581 1159 Q1344 1380 1002 1380 Q660 1380 425 1141 Q190 901 190 559 Q190 218 426 -18 Q662 -254 1022 -254 Q1286 -254 1509 -127 Q1518 -121 1532 -121 Q1563 -121 1565 -158 Q1565 -181 1546 -188 Q1305 -332 1022 -332 Z" /><glyph glyph-name="A" unicode="a" d="M537 569 L1040 569 L788 1149 L537 569 ZM203 -10 Q154 -10 120 24 Q86 58 86 94 Q86 131 102 164 L635 1352 Q682 1454 786 1454 L799 1454 Q901 1454 948 1352 L1481 164 Q1495 136 1495 98 Q1495 60 1461 25 Q1427 -10 1376 -10 Q1290 -10 1253 78 L1137 346 L440 346 L319 70 Q286 -10 203 -10 Z" /><glyph glyph-name="B" unicode="b" d="M432 223 L850 223 Q981 223 1054 273 Q1127 323 1126 420 L1126 424 Q1126 617 831 616 L432 616 L432 223 ZM432 829 L776 829 Q901 828 974 878 Q1047 928 1047 1024 L1047 1028 Q1047 1114 981 1162 Q915 1210 795 1210 L432 1210 L432 829 ZM184 127 L184 1307 Q184 1360 221 1397 Q258 1434 311 1434 L827 1434 Q1075 1434 1202 1307 Q1298 1211 1298 1069 L1298 1065 Q1298 852 1094 745 Q1379 649 1378 397 L1378 393 Q1378 204 1235 102 Q1092 0 848 0 L311 0 Q258 0 221 37 Q184 74 184 127 Z" /><glyph glyph-name="C" unicode="c" d="M1370 168 Q1151 -25 845 -25 Q539 -25 330 188 Q121 401 121 713 L121 717 Q121 1028 330 1243 Q539 1458 860 1458 Q1141 1458 1352 1296 Q1401 1259 1401 1202 Q1401 1145 1365 1109 Q1329 1073 1281 1073 Q1233 1073 1200 1098 Q1040 1227 848 1227 Q656 1226 520 1080 Q385 934 385 721 L385 717 Q385 504 520 356 Q655 208 855 209 Q1055 209 1217 346 Q1250 375 1294 375 Q1338 375 1375 340 Q1411 305 1411 255 Q1411 205 1370 168 Z" /><glyph glyph-name="D" unicode="d" d="M436 229 L719 229 Q942 228 1079 364 Q1216 500 1217 713 L1217 717 Q1218 930 1080 1067 Q942 1204 719 1204 L436 1204 L436 229 ZM184 127 L184 1307 Q184 1360 221 1397 Q258 1434 311 1434 L719 1434 Q1053 1434 1267 1230 Q1481 1026 1481 721 L1481 717 Q1481 410 1267 205 Q1053 0 719 0 L311 0 Q258 0 221 37 Q184 74 184 127 Z" /><glyph glyph-name="E" unicode="e" d="M311 0 Q258 0 221 37 Q184 74 184 127 L184 1307 Q184 1360 221 1397 Q258 1434 311 1434 L1145 1434 Q1192 1434 1225 1401 Q1258 1368 1258 1321 Q1258 1274 1224 1241 Q1192 1208 1145 1208 L436 1208 L436 836 L1053 836 Q1100 836 1133 802 Q1166 768 1166 722 Q1166 676 1132 643 Q1100 610 1053 610 L436 610 L436 225 L1155 225 Q1200 224 1234 192 Q1268 160 1268 113 Q1268 66 1235 33 Q1202 0 1155 0 L311 0 Z" /><glyph glyph-name="F" unicode="f" d="M184 115 L184 1307 Q184 1360 221 1397 Q258 1434 311 1434 L1147 1434 Q1194 1434 1228 1400 Q1262 1366 1262 1319 Q1262 1272 1228 1238 Q1194 1204 1147 1204 L436 1204 L436 813 L1055 813 Q1102 813 1136 779 Q1170 745 1170 698 Q1170 651 1136 617 Q1102 583 1055 584 L436 584 L436 115 Q436 62 400 26 Q364 -10 311 -10 Q258 -10 221 26 Q184 62 184 115 Z" /><glyph glyph-name="G" unicode="g" d="M864 -25 Q532 -25 326 185 Q120 395 121 713 L121 717 Q121 1024 331 1241 Q541 1458 844 1458 Q1147 1458 1350 1313 Q1401 1274 1401 1216 Q1401 1158 1364 1122 Q1327 1085 1283 1085 Q1239 1085 1198 1114 Q1044 1227 848 1227 Q652 1226 519 1078 Q385 930 385 721 L385 717 Q385 494 520 350 Q655 206 864 205 Q1073 205 1219 313 L1219 582 L936 582 Q889 582 856 614 Q823 646 823 690 Q823 735 856 768 Q889 801 936 801 L1335 801 Q1388 801 1425 764 Q1462 727 1462 674 L1462 291 Q1462 187 1374 131 Q1140 -25 864 -25 Z" /><glyph glyph-name="H" unicode="h" d="M184 115 L184 1319 Q184 1372 221 1408 Q258 1444 311 1444 Q364 1444 400 1408 Q436 1372 436 1319 L436 838 L1120 838 L1120 1319 Q1120 1372 1156 1408 Q1192 1444 1245 1444 Q1298 1444 1335 1408 Q1372 1372 1372 1319 L1372 115 Q1372 62 1335 26 Q1298 -10 1245 -10 Q1192 -10 1156 26 Q1120 62 1120 115 L1120 604 L436 604 L436 115 Q436 62 400 26 Q364 -10 311 -10 Q258 -10 221 26 Q184 62 184 115 Z" /><glyph glyph-name="I" unicode="i" d="M199 115 L199 1319 Q199 1372 236 1408 Q273 1444 325 1444 Q377 1444 414 1408 Q451 1372 451 1319 L451 115 Q451 62 414 26 Q377 -10 325 -10 Q273 -10 236 26 Q199 62 199 115 Z" /><glyph glyph-name="J" unicode="j" d="M985 487 Q985 240 854 110 Q723 -20 496 -20 Q269 -20 111 137 Q68 176 68 229 Q68 282 102 317 Q137 352 184 352 Q231 352 266 324 Q372 213 490 213 Q730 213 731 496 L731 1319 Q731 1370 768 1407 Q805 1444 858 1444 Q911 1444 948 1407 Q985 1370 985 1319 L985 487 Z" /><glyph glyph-name="K" unicode="k" d="M184 115 L184 1319 Q184 1372 221 1408 Q258 1444 311 1444 Q364 1444 400 1408 Q436 1372 436 1319 L436 713 L1116 1397 Q1160 1444 1216 1444 Q1272 1444 1305 1409 Q1338 1374 1338 1324 Q1338 1274 1292 1233 L846 803 L1329 203 Q1364 158 1364 110 Q1364 62 1327 26 Q1290 -10 1233 -10 Q1176 -10 1130 49 L670 637 L436 412 L436 115 Q436 62 400 26 Q364 -10 311 -10 Q258 -10 221 26 Q184 62 184 115 Z" /><glyph glyph-name="L" unicode="l" d="M184 127 L184 1319 Q184 1372 221 1408 Q258 1444 311 1444 Q364 1444 400 1408 Q436 1372 436 1319 L436 229 L1085 229 Q1132 230 1166 196 Q1200 162 1200 115 Q1200 68 1166 34 Q1132 0 1085 0 L311 0 Q258 0 221 37 Q184 74 184 127 Z" /><glyph glyph-name="M" unicode="m" d="M184 113 L184 1315 Q184 1368 221 1405 Q258 1442 311 1442 L338 1442 Q412 1442 455 1374 L889 694 L1325 1376 Q1366 1442 1440 1442 L1466 1442 Q1519 1442 1556 1405 Q1593 1368 1593 1315 L1593 115 Q1593 62 1556 26 Q1519 -10 1467 -10 Q1415 -10 1378 27 Q1341 64 1341 115 L1341 975 L991 449 Q948 383 886 383 Q824 383 780 449 L432 971 L432 113 Q432 62 396 26 Q360 -10 307 -10 Q254 -10 219 26 Q184 62 184 113 Z" /><glyph glyph-name="N" unicode="n" d="M184 113 L184 1315 Q184 1368 221 1405 Q258 1442 311 1442 L338 1442 Q410 1442 469 1368 L1186 440 L1186 1321 Q1186 1372 1222 1408 Q1258 1444 1309 1444 Q1360 1444 1397 1408 Q1434 1372 1434 1321 L1434 117 Q1434 64 1398 28 Q1362 -8 1311 -8 L1300 -8 Q1228 -8 1169 68 L432 1022 L432 113 Q432 62 396 26 Q360 -10 309 -10 Q258 -10 221 26 Q184 62 184 113 Z" /><glyph glyph-name="O" unicode="o" d="M872 209 Q1083 209 1220 354 Q1356 499 1356 713 L1356 717 Q1356 930 1218 1078 Q1080 1226 868 1226 Q656 1226 521 1080 Q385 934 385 721 L385 717 Q385 504 523 356 Q661 208 872 209 ZM868 -25 Q542 -25 332 190 Q122 405 121 713 L121 717 Q121 1024 334 1241 Q546 1458 872 1458 Q1198 1458 1409 1243 Q1620 1028 1620 721 L1620 717 Q1620 410 1407 192 Q1194 -26 868 -25 Z" /><glyph glyph-name="P" unicode="p" d="M436 688 L729 688 Q870 688 954 760 Q1038 832 1038 944 L1038 948 Q1038 1071 955 1138 Q872 1205 729 1204 L436 1204 L436 688 ZM184 115 L184 1307 Q184 1360 221 1397 Q258 1434 311 1434 L750 1434 Q1000 1434 1147 1303 Q1294 1172 1294 954 L1294 950 Q1294 719 1132 590 Q970 461 721 461 L436 461 L436 115 Q436 62 400 26 Q364 -10 311 -10 Q258 -10 221 26 Q184 62 184 115 Z" /><glyph glyph-name="Q" unicode="q" d="M942 426 Q895 467 895 520 Q895 573 930 609 Q965 645 1012 645 Q1059 645 1102 608 L1286 440 Q1356 561 1356 713 L1356 717 Q1356 930 1218 1078 Q1080 1226 868 1226 Q656 1226 521 1080 Q385 934 385 721 L385 717 Q385 504 523 356 Q661 208 872 209 Q1009 209 1120 274 L942 426 ZM868 -25 Q542 -25 332 190 Q122 405 121 713 L121 717 Q121 1024 334 1241 Q546 1458 872 1458 Q1198 1458 1409 1243 Q1620 1028 1620 721 L1620 717 Q1620 473 1475 276 L1567 201 Q1614 160 1614 106 Q1614 52 1579 17 Q1544 -18 1494 -18 Q1444 -18 1407 18 L1305 111 Q1114 -25 868 -25 Z" /><glyph glyph-name="R" unicode="r" d="M436 723 L805 723 Q940 722 1020 788 Q1100 854 1100 963 L1100 967 Q1100 1082 1022 1143 Q944 1204 803 1204 L436 1204 L436 723 ZM184 115 L184 1307 Q184 1360 221 1397 Q258 1434 311 1434 L823 1434 Q1089 1434 1237 1290 Q1356 1167 1356 981 L1356 977 Q1356 811 1269 703 Q1182 595 1030 549 L1305 203 Q1346 152 1346 104 Q1346 56 1309 22 Q1272 -10 1225 -10 Q1151 -10 1102 55 L754 500 L436 500 L436 115 Q436 62 400 26 Q364 -10 311 -10 Q258 -10 221 26 Q184 62 184 115 Z" /><glyph glyph-name="S" unicode="s" d="M686 -20 Q389 -20 147 160 Q98 195 98 250 Q98 305 133 339 Q168 373 214 373 Q260 373 291 350 Q477 203 692 203 Q809 203 878 253 Q947 303 946 383 L946 387 Q946 467 881 514 Q816 561 658 599 Q500 637 418 668 Q228 740 175 867 Q145 938 145 1034 L145 1038 Q144 1222 282 1338 Q420 1454 654 1454 Q888 1454 1090 1321 Q1145 1290 1145 1231 Q1145 1172 1110 1138 Q1075 1104 1033 1104 Q991 1104 961 1122 Q793 1231 631 1231 Q526 1231 462 1183 Q398 1135 397 1061 L397 1057 Q397 973 466 927 Q535 882 756 828 Q978 774 1088 679 Q1198 584 1198 412 L1198 408 Q1198 209 1057 94 Q915 -20 686 -20 Z" /><glyph glyph-name="T" unicode="t" d="M537 115 L537 1200 L188 1200 Q139 1200 105 1235 Q71 1270 72 1317 Q72 1364 105 1399 Q139 1434 188 1434 L1141 1434 Q1188 1434 1222 1399 Q1256 1364 1256 1317 Q1256 1270 1222 1235 Q1188 1200 1141 1200 L791 1200 L791 115 Q791 64 754 27 Q717 -10 664 -10 Q611 -10 573 27 Q537 64 537 115 Z" /><glyph glyph-name="U" unicode="u" d="M1389 621 Q1389 308 1225 142 Q1061 -24 774 -23 Q486 -23 324 139 Q162 301 162 608 L162 1319 Q162 1372 199 1408 Q236 1444 288 1444 Q340 1444 377 1408 Q414 1372 414 1319 L414 618 Q414 421 509 316 Q604 211 775 211 Q946 211 1041 312 Q1136 413 1137 608 L1137 1319 Q1137 1372 1174 1408 Q1211 1444 1263 1444 Q1315 1444 1352 1408 Q1389 1372 1389 1319 L1389 621 Z" /><glyph glyph-name="V" unicode="v" d="M743 -20 Q643 -20 600 82 L98 1262 Q84 1296 84 1334 Q84 1372 121 1408 Q158 1444 211 1444 Q305 1444 340 1354 L754 319 L1174 1362 Q1186 1396 1219 1420 Q1252 1444 1300 1444 Q1348 1444 1383 1409 Q1419 1374 1419 1336 Q1419 1298 1407 1270 L903 82 Q860 -20 758 -20 L743 -20 Z" /><glyph glyph-name="W" unicode="w" d="M96 1272 Q86 1296 86 1334 Q86 1372 124 1408 Q162 1444 211 1444 Q260 1444 294 1418 Q328 1392 340 1352 L670 367 L993 1348 Q1028 1448 1120 1448 L1139 1448 Q1235 1448 1266 1348 L1589 367 L1919 1354 Q1952 1444 2042 1444 Q2093 1444 2130 1409 Q2167 1374 2167 1337 Q2167 1300 2154 1272 L1731 84 Q1694 -20 1599 -20 L1575 -20 Q1483 -20 1446 84 L1126 1020 L807 84 Q770 -20 676 -20 L651 -20 Q559 -20 520 84 L96 1272 Z" /><glyph glyph-name="X" unicode="x" d="M111 102 Q111 149 147 201 L573 729 L172 1227 Q133 1278 133 1326 Q133 1374 169 1409 Q204 1444 266 1444 Q328 1444 373 1382 L735 905 L1094 1374 Q1145 1444 1217 1444 Q1262 1444 1296 1411 Q1330 1378 1331 1330 Q1331 1282 1292 1233 L891 733 L1313 207 Q1352 156 1352 108 Q1352 60 1316 25 Q1280 -10 1220 -10 Q1160 -10 1112 51 L727 553 L348 59 Q295 -11 225 -10 Q180 -10 146 22 Q112 54 111 102 Z" /><glyph glyph-name="Y" unicode="y" d="M588 115 L588 557 L94 1235 Q66 1278 66 1326 Q66 1374 102 1409 Q139 1444 202 1444 Q265 1444 315 1368 L715 793 L1120 1370 Q1170 1446 1232 1446 Q1294 1446 1329 1410 Q1364 1374 1364 1327 Q1364 1280 1329 1233 L840 563 L840 115 Q840 62 803 26 Q766 -10 713 -10 Q660 -10 624 26 Q588 62 588 115 Z" /><glyph glyph-name="Z" unicode="z" d="M238 0 Q193 0 159 33 Q125 66 125 111 L125 117 Q125 180 172 233 L979 1210 L260 1210 Q215 1210 182 1243 Q149 1276 150 1321 Q150 1366 182 1400 Q215 1434 260 1434 L1202 1434 Q1247 1434 1281 1401 Q1315 1368 1315 1323 L1315 1317 Q1315 1258 1270 1200 L461 223 L1206 223 Q1253 223 1286 189 Q1319 154 1319 110 Q1319 66 1286 33 Q1253 0 1206 0 L238 0 Z" /><glyph glyph-name="bracketleft" unicode="[" d="M180 -143 L180 1311 Q180 1362 215 1398 Q250 1434 301 1434 L723 1434 Q762 1434 792 1405 Q822 1376 822 1336 Q822 1296 792 1268 Q764 1240 723 1239 L418 1239 L418 -72 L723 -72 Q764 -72 793 -100 Q822 -128 822 -169 Q822 -209 792 -238 Q762 -267 723 -266 L301 -266 Q250 -266 215 -230 Q180 -194 180 -143 Z" /><glyph glyph-name="backslash" unicode="\" d="M1055 -129 Q1067 -153 1067 -185 Q1067 -217 1038 -245 Q1010 -272 960 -272 Q910 -272 881 -215 L41 1501 Q31 1532 31 1560 Q31 1588 59 1617 Q88 1645 127 1645 Q188 1645 217 1587 L1055 -129 Z" /><glyph glyph-name="bracketright" unicode="]" d="M752 1311 L752 -143 Q752 -194 716 -230 Q680 -266 629 -266 L207 -266 Q168 -266 139 -238 Q110 -210 111 -168 Q111 -127 139 -99 Q168 -71 207 -72 L514 -72 L514 1239 L207 1239 Q168 1239 139 1267 Q110 1296 110 1336 Q110 1376 139 1405 Q168 1434 207 1434 L629 1434 Q680 1434 716 1398 Q752 1362 752 1311 Z" /><glyph glyph-name="asciicircum" unicode="^" d="M158 1040 Q158 1069 182 1102 L377 1368 Q428 1442 502 1442 L520 1442 Q592 1442 647 1368 L842 1102 Q865 1067 864 1040 Q864 999 812 999 Q760 1000 729 1018 Q698 1036 657 1090 L510 1280 L362 1090 Q321 1037 291 1018 Q260 1000 209 1000 Q158 1000 158 1040 Z" /><glyph glyph-name="underscore" unicode="_" d="M-4 -328 Q-45 -328 -73 -299 Q-101 -270 -100 -231 Q-100 -192 -72 -164 Q-44 -136 -4 -135 L1233 -135 Q1274 -135 1302 -164 Q1330 -194 1330 -232 Q1330 -270 1302 -299 Q1274 -328 1233 -328 L-4 -328 Z" /><glyph glyph-name="grave" unicode="`" d="M664 1251 Q662 1208 588 1208 Q514 1208 457 1264 L317 1395 Q240 1463 331 1510 Q379 1536 435 1536 Q491 1536 528 1477 L645 1296 Q663 1269 664 1251 Z" /><glyph glyph-name="a" unicode="a" d="M326 322 Q326 246 386 202 Q446 158 554 158 Q662 158 744 222 Q826 286 825 389 L825 463 Q714 506 588 506 Q462 506 393 458 Q325 410 326 326 L326 322 ZM467 -23 Q308 -24 196 66 Q84 156 84 311 L84 315 Q84 485 205 574 Q326 664 503 664 Q680 664 821 618 L821 645 Q821 760 753 820 Q684 880 553 880 Q422 880 313 838 Q245 817 207 854 Q170 891 170 934 Q170 1006 238 1032 Q406 1095 586 1096 Q828 1096 944 975 Q1061 860 1061 641 L1061 109 Q1061 58 1026 24 Q991 -10 939 -10 Q887 -10 853 20 Q819 50 819 94 L819 135 Q688 -23 467 -23 Z" /><glyph glyph-name="b" unicode="b" d="M397 539 Q396 387 490 290 Q584 193 714 193 Q844 193 933 288 Q1022 383 1022 539 L1022 543 Q1022 697 932 793 Q842 889 713 889 Q584 889 490 792 Q396 695 397 543 L397 539 ZM156 113 L156 1382 Q156 1433 190 1469 Q224 1505 278 1505 Q332 1505 368 1469 Q404 1433 403 1382 L403 901 Q546 1104 760 1104 Q974 1104 1124 952 Q1274 800 1274 543 L1274 539 Q1274 283 1126 130 Q978 -23 762 -23 Q547 -23 403 168 L403 113 Q402 62 366 26 Q330 -10 279 -10 Q228 -10 191 26 Q156 62 156 113 Z" /><glyph glyph-name="c" unicode="c" d="M1049 129 Q888 -25 652 -25 Q416 -25 256 138 Q96 301 96 535 L96 539 Q96 772 257 938 Q418 1104 650 1104 Q882 1104 1038 969 Q1077 934 1077 885 Q1077 836 1043 803 Q1010 770 966 770 Q922 770 889 795 Q778 887 651 887 Q524 886 434 786 Q344 686 344 543 L344 539 Q344 394 435 294 Q526 194 662 193 Q798 193 909 289 Q940 316 981 316 Q1022 316 1053 284 Q1084 252 1084 205 Q1084 158 1049 129 Z" /><glyph glyph-name="d" unicode="d" d="M661 889 Q530 889 440 795 Q350 701 350 543 L350 539 Q350 385 441 289 Q532 193 662 193 Q792 193 883 290 Q975 387 975 539 L975 543 Q975 695 883 792 Q791 889 661 889 ZM1219 1382 L1219 113 Q1219 62 1183 26 Q1147 -10 1095 -10 Q1043 -10 1007 26 Q971 62 971 113 L971 180 Q828 -23 614 -23 Q400 -23 250 130 Q100 283 100 539 L100 543 Q100 800 248 952 Q396 1104 611 1104 Q825 1104 971 913 L971 1382 Q971 1433 1007 1469 Q1043 1505 1095 1505 Q1147 1505 1183 1469 Q1219 1433 1219 1382 Z" /><glyph glyph-name="e" unicode="e" d="M96 537 L96 541 Q96 776 246 940 Q396 1104 625 1104 Q790 1104 910 1021 Q1137 864 1139 571 Q1139 520 1105 486 Q1071 452 1022 453 L344 453 Q364 324 448 251 Q532 178 664 178 Q796 178 911 272 Q940 295 978 295 Q1016 295 1044 266 Q1072 236 1073 194 Q1073 152 1040 119 Q880 -24 646 -24 Q412 -24 254 132 Q96 289 96 537 ZM813 821 Q742 901 626 901 Q510 901 434 822 Q358 743 342 616 L897 616 Q885 741 813 821 Z" /><glyph glyph-name="f" unicode="f" d="M211 113 L211 868 L168 868 Q125 868 94 898 Q63 928 63 971 Q63 1014 94 1044 Q125 1074 168 1075 L211 1075 L211 1155 Q211 1333 298 1420 Q385 1507 543 1507 Q611 1507 657 1500 Q702 1493 728 1464 Q754 1436 754 1394 Q754 1352 723 1321 Q692 1290 656 1293 Q620 1296 598 1296 Q455 1296 455 1133 L455 1073 L647 1073 Q692 1073 722 1043 Q752 1012 752 970 Q752 928 721 898 Q690 868 647 868 L459 868 L459 113 Q459 62 422 26 Q385 -10 334 -10 Q283 -10 247 26 Q211 62 211 113 Z" /><glyph glyph-name="g" unicode="g" d="M439 380 Q528 297 658 297 Q788 297 882 381 Q975 465 975 594 L975 598 Q975 727 882 811 Q790 895 658 895 Q526 895 438 812 Q350 729 350 598 L350 594 Q350 463 439 380 ZM1219 221 Q1219 -332 637 -332 Q418 -332 219 -236 Q149 -209 150 -137 Q150 -96 180 -66 Q210 -36 245 -35 Q279 -35 299 -45 Q453 -131 625 -131 Q797 -131 885 -46 Q973 39 973 201 L973 285 Q819 86 605 86 Q391 86 246 224 Q101 362 100 592 L100 596 Q100 824 246 964 Q392 1104 605 1104 Q817 1104 971 920 L971 971 Q971 1022 1007 1058 Q1043 1094 1095 1094 Q1147 1094 1183 1057 Q1219 1020 1219 969 L1219 221 Z" /><glyph glyph-name="h" unicode="h" d="M156 113 L156 1382 Q156 1433 191 1469 Q226 1505 278 1505 Q330 1505 367 1469 Q404 1433 403 1382 L403 915 Q534 1104 728 1104 Q922 1104 1024 992 Q1126 880 1126 690 L1126 113 Q1126 62 1092 26 Q1058 -10 1004 -10 Q951 -10 914 26 Q878 62 879 113 L879 614 Q878 741 818 810 Q758 879 648 879 Q538 879 470 807 Q402 735 403 610 L403 113 Q404 62 368 26 Q332 -10 280 -10 Q228 -10 191 26 Q156 62 156 113 Z" /><glyph glyph-name="i" unicode="i" d="M170 113 L170 969 Q170 1022 206 1058 Q242 1094 293 1094 Q344 1094 381 1057 Q418 1020 418 969 L418 113 Q418 62 382 26 Q346 -10 294 -10 Q242 -10 206 26 Q170 62 170 113 ZM152 1360 L152 1372 Q152 1427 191 1460 Q230 1493 292 1493 Q354 1493 394 1460 Q434 1427 434 1372 L434 1360 Q434 1305 394 1271 Q354 1237 293 1237 Q232 1237 191 1271 Q152 1305 152 1360 Z" /><glyph glyph-name="j" unicode="j" d="M152 1360 L152 1372 Q152 1427 191 1460 Q230 1493 292 1493 Q354 1493 394 1460 Q434 1427 434 1372 L434 1360 Q434 1305 394 1271 Q354 1237 293 1237 Q232 1237 191 1271 Q152 1305 152 1360 ZM119 -334 L100 -334 Q-35 -330 -35 -231 Q-35 -186 -6 -158 Q23 -130 63 -129 Q65 -129 72 -131 L78 -131 Q170 -131 170 -14 L170 969 Q170 1022 206 1058 Q242 1094 293 1094 Q344 1094 381 1057 Q418 1020 418 969 L418 -14 Q418 -174 339 -254 Q260 -334 119 -334 Z" /><glyph glyph-name="k" unicode="k" d="M156 113 L156 1382 Q156 1433 191 1469 Q226 1505 278 1505 Q330 1505 367 1469 Q404 1433 403 1382 L403 584 L868 1040 Q922 1094 972 1094 Q1022 1094 1053 1061 Q1084 1028 1084 978 Q1084 928 1028 877 L741 612 L1069 184 Q1102 139 1102 96 Q1102 54 1068 22 Q1034 -10 976 -10 Q918 -10 877 45 L567 457 L403 301 L403 113 Q404 62 368 26 Q332 -10 280 -10 Q228 -10 191 26 Q156 62 156 113 Z" /><glyph glyph-name="l" unicode="l" d="M170 113 L170 1382 Q170 1433 206 1469 Q242 1505 293 1505 Q344 1505 381 1469 Q418 1433 418 1382 L418 113 Q418 62 382 26 Q346 -10 294 -10 Q242 -10 206 26 Q170 62 170 113 Z" /><glyph glyph-name="m" unicode="m" d="M156 113 L156 969 Q156 1022 191 1058 Q228 1094 280 1094 Q332 1094 368 1057 Q404 1020 403 969 L403 918 Q538 1104 733 1104 Q962 1104 1057 913 Q1200 1103 1421 1104 Q1600 1104 1700 995 Q1800 886 1800 690 L1800 113 Q1800 62 1764 26 Q1728 -10 1676 -10 Q1624 -10 1588 26 Q1552 62 1552 113 L1552 614 Q1552 743 1495 811 Q1438 879 1334 879 Q1230 879 1166 808 Q1102 737 1102 610 L1102 113 Q1102 62 1066 26 Q1030 -10 978 -10 Q926 -10 890 26 Q854 62 854 113 L854 616 Q854 741 797 810 Q740 879 636 879 Q532 879 468 806 Q404 733 403 610 L403 113 Q404 62 368 26 Q332 -10 280 -10 Q228 -10 191 26 Q156 62 156 113 Z" /><glyph glyph-name="n" unicode="n" d="M156 113 L156 969 Q156 1022 191 1058 Q228 1094 280 1094 Q332 1094 368 1057 Q404 1020 403 969 L403 915 Q534 1104 728 1104 Q922 1104 1024 992 Q1126 880 1126 690 L1126 113 Q1126 62 1092 26 Q1058 -10 1004 -10 Q951 -10 914 26 Q878 62 879 113 L879 614 Q878 741 818 810 Q758 879 648 879 Q538 879 470 807 Q402 735 403 610 L403 113 Q404 62 368 26 Q332 -10 280 -10 Q228 -10 191 26 Q156 62 156 113 Z" /><glyph glyph-name="o" unicode="o" d="M438 294 Q533 193 677 193 Q821 193 911 292 Q1001 391 1001 535 L1001 539 Q1001 684 907 785 Q813 886 669 886 Q524 886 434 788 Q344 688 344 543 L344 539 Q344 396 438 294 ZM1249 539 Q1250 306 1084 140 Q918 -26 671 -25 Q424 -25 260 138 Q96 301 96 535 L96 539 Q96 776 262 940 Q428 1104 674 1104 Q920 1104 1084 940 Q1248 776 1249 543 L1249 539 Z" /><glyph glyph-name="p" unicode="p" d="M397 539 Q396 387 490 290 Q584 193 714 193 Q844 193 933 288 Q1022 383 1022 539 L1022 543 Q1022 697 932 793 Q842 889 713 889 Q584 889 490 792 Q396 695 397 543 L397 539 ZM156 -215 L156 969 Q156 1022 191 1058 Q228 1094 280 1094 Q332 1094 368 1057 Q404 1020 403 969 L403 901 Q546 1104 760 1104 Q974 1104 1124 952 Q1274 800 1274 543 L1274 539 Q1274 283 1126 130 Q978 -23 762 -23 Q547 -23 403 168 L403 -215 Q404 -266 368 -302 Q332 -338 280 -338 Q228 -338 191 -302 Q156 -266 156 -215 Z" /><glyph glyph-name="q" unicode="q" d="M661 889 Q530 889 440 795 Q350 701 350 543 L350 539 Q350 385 441 289 Q532 193 662 193 Q792 193 883 290 Q975 387 975 539 L975 543 Q975 695 883 792 Q791 889 661 889 ZM1219 969 L1219 -215 Q1219 -266 1183 -302 Q1147 -338 1095 -338 Q1043 -338 1007 -302 Q971 -266 971 -215 L971 180 Q828 -23 614 -23 Q400 -23 250 130 Q100 283 100 539 L100 543 Q100 800 248 952 Q396 1104 611 1104 Q825 1104 971 913 L971 971 Q971 1022 1007 1058 Q1043 1094 1095 1094 Q1147 1094 1183 1057 Q1219 1020 1219 969 Z" /><glyph glyph-name="r" unicode="r" d="M156 113 L156 969 Q156 1022 191 1058 Q228 1094 280 1094 Q332 1094 368 1057 Q404 1020 403 969 L403 858 Q448 962 522 1029 Q596 1096 664 1096 Q732 1096 766 1062 Q799 1028 799 977 Q799 926 771 894 Q743 862 700 854 Q563 829 483 724 Q403 619 403 432 L403 113 Q402 62 366 26 Q330 -10 279 -10 Q228 -10 191 26 Q156 62 156 113 Z" /><glyph glyph-name="s" unicode="s" d="M526 -20 Q303 -20 115 109 Q68 134 68 185 Q68 236 96 266 Q124 296 161 295 Q197 295 221 281 Q377 177 532 176 Q612 176 656 208 Q700 240 700 293 L700 297 Q700 375 483 440 L459 449 Q209 516 148 637 Q120 692 121 766 L121 770 Q121 920 230 1010 Q340 1100 510 1100 Q680 1100 846 1012 Q905 981 905 928 Q906 875 876 846 Q846 817 812 817 Q778 817 754 829 Q610 903 520 903 Q430 903 389 873 Q348 843 348 797 L348 793 Q348 742 412 707 Q476 672 570 644 Q664 616 713 594 Q852 533 899 446 Q928 393 928 324 L928 319 Q928 156 815 68 Q702 -20 526 -20 Z" /><glyph glyph-name="t" unicode="t" d="M754 106 Q754 36 688 10 Q606 -18 518 -18 Q207 -18 207 299 L207 868 L166 868 Q121 868 90 899 Q59 930 59 975 Q59 1020 90 1051 Q121 1082 166 1081 L207 1081 L207 1266 Q207 1317 244 1353 Q281 1389 332 1389 Q383 1389 419 1353 Q455 1317 455 1266 L455 1081 L649 1081 Q694 1080 726 1050 Q758 1020 758 975 Q758 930 726 899 Q694 868 649 868 L455 868 L455 338 Q455 203 588 203 L649 209 Q692 209 723 179 Q754 149 754 106 Z" /><glyph glyph-name="u" unicode="u" d="M1116 969 L1116 113 Q1116 62 1079 26 Q1042 -10 991 -10 Q940 -10 903 26 Q866 62 866 113 L866 168 Q737 -22 528 -23 Q348 -23 246 90 Q144 203 143 393 L143 969 Q143 1020 179 1057 Q215 1094 267 1094 Q319 1094 355 1057 Q391 1020 391 969 L391 467 Q392 342 452 273 Q512 204 622 204 Q732 204 800 276 Q868 346 866 471 L866 969 Q866 1020 902 1057 Q938 1094 990 1094 Q1042 1094 1079 1057 Q1116 1020 1116 969 Z" /><glyph glyph-name="v" unicode="v" d="M594 -20 Q500 -20 453 88 L92 913 Q78 956 78 989 Q78 1022 115 1058 Q152 1094 201 1094 Q287 1094 324 1004 L602 287 L885 1008 Q922 1094 1001 1094 Q1052 1094 1087 1060 Q1122 1026 1122 985 Q1122 944 1108 915 L748 88 Q699 -21 606 -20 L594 -20 Z" /><glyph glyph-name="w" unicode="w" d="M518 -18 Q418 -18 381 92 L90 915 Q78 948 78 987 Q78 1026 112 1060 Q146 1094 199 1094 Q289 1094 319 995 L528 340 L739 995 Q770 1093 866 1094 L881 1094 Q977 1094 1008 995 L1221 340 L1432 997 Q1461 1093 1552 1094 Q1601 1094 1635 1060 Q1669 1026 1669 990 Q1669 954 1659 924 L1364 92 Q1325 -19 1227 -18 L1219 -18 Q1117 -18 1083 88 L872 731 L659 88 Q626 -18 526 -18 L518 -18 Z" /><glyph glyph-name="x" unicode="x" d="M322 49 Q270 -14 218 -14 Q166 -14 132 18 Q98 50 98 95 Q98 141 133 180 L440 549 L156 887 Q115 938 115 985 Q115 1032 148 1064 Q182 1096 238 1096 Q294 1096 344 1034 L588 715 L836 1032 Q885 1096 938 1096 Q991 1096 1025 1064 Q1059 1032 1059 988 Q1059 944 1024 903 L731 553 L1034 195 Q1075 144 1075 96 Q1075 48 1041 17 Q1007 -14 950 -14 Q893 -14 846 49 L584 387 L322 49 Z" /><glyph glyph-name="y" unicode="y" d="M565 -266 Q482 -334 370 -334 Q258 -334 180 -303 Q102 -276 102 -201 Q102 -156 132 -127 Q162 -98 192 -98 Q222 -98 261 -109 Q299 -120 344 -120 Q389 -120 423 -95 Q457 -69 487 -6 L496 16 L94 913 Q80 946 80 985 Q80 1024 115 1059 Q150 1094 203 1094 Q287 1094 324 999 L614 281 L885 999 Q922 1093 1004 1094 Q1054 1094 1088 1060 Q1122 1026 1122 987 Q1122 948 1112 918 L717 -31 Q647 -198 565 -266 Z" /><glyph glyph-name="z" unicode="z" d="M221 0 Q170 0 135 29 Q100 58 100 100 L100 104 Q100 165 156 223 L731 879 L221 879 Q178 878 148 908 Q118 938 118 980 Q118 1022 148 1052 Q178 1082 221 1081 L934 1081 Q985 1082 1019 1054 Q1053 1026 1053 983 L1053 977 Q1053 918 999 858 L422 203 L954 203 Q997 203 1027 173 Q1057 143 1057 101 Q1057 60 1027 30 Q997 0 954 0 L221 0 Z" /><glyph glyph-name="braceleft" unicode="{" d="M844 -109 Q901 -126 901 -182 Q901 -238 868 -262 Q835 -286 788 -276 Q561 -227 474 -133 Q387 -39 387 121 L391 268 Q391 381 346 434 Q301 487 199 489 Q150 491 122 519 Q94 547 94 588 Q94 628 122 656 Q150 684 199 686 Q303 690 347 742 Q391 794 391 909 L387 1057 Q387 1215 474 1309 Q561 1403 788 1452 Q835 1462 868 1438 Q901 1414 901 1358 Q901 1302 844 1284 Q704 1241 660 1186 Q616 1131 616 1020 Q616 983 621 868 Q622 754 568 688 Q514 622 408 588 Q516 553 568 487 Q620 421 621 307 L616 156 Q616 45 659 -10 Q702 -65 844 -109 Z" /><glyph glyph-name="bar" unicode="|" d="M240 -174 L240 1546 Q240 1587 268 1616 Q297 1645 338 1645 Q379 1645 409 1616 Q439 1587 438 1546 L438 -174 Q438 -215 408 -244 Q378 -272 338 -272 Q297 -272 268 -244 Q240 -215 240 -174 Z" /><glyph glyph-name="braceright" unicode="}" d="M96 -193 Q96 -127 156 -109 Q297 -66 339 -10 Q381 46 381 156 L377 307 Q377 422 430 488 Q483 554 590 588 Q481 622 429 688 Q377 754 377 868 L381 1020 Q381 1131 339 1186 Q297 1241 156 1284 Q96 1302 96 1358 Q96 1414 129 1438 Q162 1462 209 1452 Q436 1403 523 1309 Q610 1215 610 1057 L606 909 Q606 794 651 742 Q696 690 801 686 Q848 684 876 656 Q904 628 904 588 Q904 548 876 519 Q848 491 801 489 Q698 487 652 434 Q606 381 606 268 L610 121 Q610 -39 523 -133 Q436 -227 209 -276 Q162 -286 129 -262 Q96 -238 96 -193 Z" /><glyph glyph-name="asciitilde" unicode="~" d="M274 506 Q250 465 214 465 Q178 465 156 485 Q134 504 133 534 Q133 564 141 580 Q176 674 223 720 Q270 766 340 766 Q410 766 512 726 Q612 686 643 686 Q704 686 739 750 Q762 793 799 793 Q836 793 858 771 Q880 750 881 722 Q881 694 872 676 Q836 582 790 536 Q702 449 502 530 Q402 571 371 571 Q309 572 274 506 Z" /><glyph glyph-name="nonbreakingspace" unicode=" " d="" /><glyph glyph-name="exclamdown" unicode="¡" d="M455 1284 Q455 1223 414 1182 Q372 1141 310 1141 Q248 1141 206 1182 Q164 1223 164 1284 L164 1303 Q164 1362 206 1403 Q248 1444 310 1444 Q372 1444 414 1403 Q456 1362 455 1303 L455 1284 ZM236 -6 Q201 -6 180 19 Q160 45 164 82 L236 918 Q238 951 258 971 Q278 991 309 991 Q340 991 362 971 Q384 951 385 918 L457 82 Q461 45 439 19 Q417 -7 383 -6 L236 -6 Z" /><glyph glyph-name="cent" unicode="¢" d="M348 727 Q348 623 394 540 Q440 457 522 414 L651 1075 Q522 1071 435 972 Q348 873 348 731 L348 727 ZM106 727 Q106 962 267 1126 Q428 1290 668 1290 L684 1290 L702 1384 Q716 1456 791 1456 Q832 1456 858 1424 Q884 1392 874 1350 L858 1264 Q958 1231 1053 1151 Q1090 1118 1090 1069 Q1090 1020 1057 988 Q1024 956 981 956 Q938 956 896 991 Q854 1026 807 1047 L676 379 Q809 381 918 477 Q952 502 990 502 Q1028 502 1058 471 Q1088 440 1088 395 Q1088 350 1055 322 Q891 164 657 164 L643 164 L621 49 Q607 -23 535 -23 Q492 -23 466 9 Q441 41 449 84 L471 197 Q309 254 208 398 Q107 542 106 723 L106 727 Z" /><glyph glyph-name="sterling" unicode="£" d="M119 88 Q119 156 186 178 L291 209 L291 569 L225 569 Q180 569 150 600 Q120 631 119 675 Q119 719 150 751 Q181 783 225 782 L291 782 L291 971 Q291 1200 416 1327 Q542 1454 774 1454 Q1006 1454 1161 1288 Q1200 1249 1200 1198 Q1200 1147 1164 1111 Q1128 1075 1074 1075 Q1020 1075 985 1114 Q884 1220 780 1220 Q676 1220 614 1163 Q546 1091 547 965 L547 782 L961 782 Q1004 782 1036 750 Q1068 718 1067 675 Q1067 631 1035 600 Q1003 569 961 569 L547 569 L547 219 L1112 219 Q1159 219 1191 187 Q1223 156 1223 110 Q1223 64 1191 32 Q1159 0 1112 0 L215 0 Q172 0 146 26 Q120 52 119 88 Z" /><glyph glyph-name="yen" unicode="¥" d="M823 541 L823 391 L1139 391 Q1176 390 1202 364 Q1228 338 1229 300 Q1229 262 1202 236 Q1175 210 1139 209 L823 209 L823 111 Q823 60 788 25 Q753 -10 702 -10 Q651 -10 616 25 Q581 60 582 111 L582 209 L266 209 Q228 209 202 236 Q176 262 176 300 Q176 338 203 365 Q230 392 266 391 L582 391 L582 541 L266 541 Q228 542 202 568 Q176 594 176 632 Q176 670 203 696 Q230 722 266 723 L510 723 L133 1239 Q102 1282 102 1328 Q102 1374 138 1409 Q174 1444 236 1444 Q298 1444 346 1374 L705 840 L1067 1372 Q1114 1444 1174 1444 Q1234 1444 1268 1412 Q1303 1380 1303 1330 Q1303 1280 1272 1239 L891 723 L1139 723 Q1176 723 1202 696 Q1228 670 1229 632 Q1229 594 1202 567 Q1175 540 1139 541 L823 541 Z" /><glyph glyph-name="section" unicode="§" d="M795 569 Q864 569 908 601 Q952 633 952 680 L952 684 Q952 729 897 762 Q842 796 705 830 Q568 864 499 864 Q430 864 386 832 Q342 800 342 754 L342 750 Q342 705 397 672 Q452 639 588 604 Q724 569 795 569 ZM668 -20 Q418 -20 242 127 Q205 160 205 204 Q205 248 234 278 Q264 308 303 308 Q342 308 371 283 Q508 168 666 168 Q746 168 788 196 Q830 224 831 268 L831 272 Q831 317 774 349 Q717 381 519 425 Q321 469 220 537 Q119 605 119 715 L119 719 Q119 899 338 956 Q225 1028 225 1151 L225 1155 Q225 1292 333 1373 Q441 1454 627 1454 Q877 1454 1053 1307 Q1090 1274 1090 1230 Q1090 1186 1060 1157 Q1030 1128 990 1128 Q950 1128 924 1151 Q787 1266 629 1266 Q549 1266 506 1238 Q463 1210 463 1165 L463 1161 Q463 1118 518 1086 Q573 1054 774 1008 Q975 962 1075 896 Q1175 829 1176 719 L1176 715 Q1176 535 956 477 Q1071 407 1071 283 L1071 279 Q1071 144 963 61 Q854 -20 668 -20 Z" /><glyph glyph-name="dieresis" unicode="¨" d="M213 1439 Q252 1475 308 1475 Q364 1475 403 1439 Q442 1403 442 1348 L442 1333 Q442 1278 403 1243 Q364 1208 308 1208 Q252 1208 213 1243 Q174 1278 174 1333 L174 1348 Q174 1403 213 1439 ZM621 1439 Q660 1475 716 1475 Q772 1475 811 1439 Q850 1403 850 1348 L850 1333 Q850 1278 811 1243 Q772 1208 716 1208 Q660 1208 621 1243 Q582 1278 582 1333 L582 1348 Q582 1403 621 1439 Z" /><glyph glyph-name="copyright" unicode="©" d="M1145 434 Q1020 326 855 326 Q690 326 578 440 Q466 554 465 723 L465 727 Q465 895 578 1012 Q692 1128 856 1128 Q1020 1128 1128 1040 Q1161 1018 1161 982 Q1162 946 1140 924 Q1118 902 1091 903 Q1064 903 1038 924 Q954 990 857 990 Q760 990 690 913 Q620 837 621 729 L621 725 Q620 619 690 542 Q760 465 862 465 Q964 465 1051 539 Q1074 557 1100 557 Q1126 558 1146 536 Q1168 514 1168 483 Q1168 452 1145 434 ZM186 713 Q186 437 376 243 Q566 49 849 49 Q1131 49 1322 245 Q1513 441 1513 717 L1513 721 Q1513 997 1323 1191 Q1133 1384 851 1384 Q569 1384 378 1188 Q187 992 186 717 L186 713 ZM848 -25 Q539 -25 324 191 Q109 407 109 713 L109 717 Q109 1022 326 1240 Q543 1458 852 1458 Q1161 1458 1376 1242 Q1591 1026 1591 721 L1591 717 Q1591 412 1374 194 Q1157 -24 848 -25 Z" /><glyph glyph-name="ordfeminine" unicode="ª" d="M256 1016 Q256 978 286 954 Q316 930 372 930 Q428 930 472 965 Q516 1000 516 1053 L516 1090 Q454 1112 390 1112 Q326 1112 291 1087 Q256 1062 256 1020 L256 1016 ZM158 578 Q133 578 116 595 Q99 612 98 637 Q98 662 116 679 Q134 696 158 696 L612 696 Q637 696 655 679 Q674 662 674 637 Q674 612 656 595 Q638 578 612 578 L158 578 ZM514 907 Q444 825 340 825 Q236 825 175 874 Q115 923 115 1010 L115 1014 Q115 1106 182 1155 Q250 1204 342 1204 Q434 1204 516 1182 L516 1192 Q516 1317 373 1317 Q314 1316 275 1302 Q236 1288 216 1288 Q196 1288 179 1306 Q162 1324 162 1357 Q162 1391 201 1405 Q288 1440 406 1440 Q524 1440 588 1376 Q652 1312 653 1190 L653 895 Q654 868 632 848 Q610 828 582 828 Q554 828 535 846 Q515 864 514 891 L514 907 Z" /><glyph glyph-name="guillemotleft" unicode="«" d="M588 185 Q588 146 558 116 Q528 86 480 86 Q432 86 399 129 L135 469 Q106 508 106 543 Q106 578 135 612 L393 946 Q432 995 480 995 Q528 994 557 964 Q586 934 586 896 Q586 858 559 823 L342 543 L563 256 Q588 225 588 185 ZM1073 116 Q1044 86 996 86 Q948 86 915 129 L651 469 Q620 510 620 543 Q620 576 651 612 L909 946 Q944 995 994 995 Q1044 996 1073 966 Q1102 936 1102 896 Q1102 856 1073 823 L858 543 L1077 256 Q1104 223 1103 184 Q1102 146 1073 116 Z" /><glyph glyph-name="registered" unicode="®" d="M334 1108 L412 1108 Q475 1108 475 1159 Q475 1210 412 1210 L334 1210 L334 1108 ZM244 954 L244 1241 Q244 1260 257 1274 Q270 1288 289 1288 L418 1288 Q486 1288 526 1256 Q566 1224 567 1165 Q567 1083 494 1053 L549 985 Q561 974 561 954 Q561 912 516 909 Q498 909 479 928 L393 1034 L334 1034 L334 954 Q334 936 321 923 Q308 910 290 910 Q272 910 258 922 Q244 936 244 954 ZM167 870 Q258 776 391 776 Q524 776 615 870 Q706 964 707 1096 L707 1098 Q708 1229 616 1322 Q524 1415 391 1415 Q258 1415 167 1321 Q76 1227 76 1096 L76 1094 Q76 964 167 870 ZM390 737 Q242 738 138 842 Q35 946 35 1094 L35 1096 Q35 1242 139 1348 Q243 1454 392 1454 Q541 1454 644 1350 Q747 1246 748 1098 L748 1096 Q748 949 643 843 Q538 737 390 737 Z" /><glyph glyph-name="macron" unicode="¯" d="M784 1241 L240 1241 Q203 1241 176 1268 Q150 1296 150 1332 Q150 1368 176 1395 Q203 1422 240 1421 L784 1421 Q821 1420 848 1394 Q874 1368 874 1331 Q874 1294 848 1268 Q822 1242 784 1241 Z" /><glyph glyph-name="degree" unicode="°" d="M483 915 Q564 916 620 974 Q676 1032 676 1112 L676 1116 Q676 1196 621 1253 Q566 1310 482 1310 Q398 1310 344 1254 Q289 1196 289 1116 L289 1112 Q289 1032 345 974 Q401 916 483 915 ZM720 880 Q618 780 483 780 Q348 780 245 880 Q142 980 141 1112 L141 1116 Q140 1250 244 1348 Q348 1446 483 1446 Q618 1446 720 1348 Q822 1250 823 1116 L823 1112 Q822 980 720 880 Z" /><glyph glyph-name="plusminus" unicode="±" d="M246 0 Q203 0 172 31 Q141 62 141 106 Q141 150 172 180 Q203 211 246 211 L1053 211 Q1096 211 1126 180 Q1156 149 1157 105 Q1157 60 1126 30 Q1095 0 1053 0 L246 0 ZM250 764 Q205 764 173 796 Q141 828 141 872 Q141 916 173 949 Q205 981 250 981 L539 981 L537 1257 Q537 1304 569 1337 Q602 1370 649 1370 Q696 1370 729 1337 Q762 1304 762 1257 L760 981 L1047 981 Q1092 981 1124 949 Q1156 917 1157 872 Q1157 828 1124 796 Q1091 764 1047 764 L760 764 L762 487 Q762 440 729 408 Q696 376 649 375 Q602 376 570 408 Q538 440 537 487 L539 764 L250 764 Z" /><glyph glyph-name="acute" unicode="´" d="M569 1264 Q510 1208 436 1208 Q362 1208 362 1251 Q362 1271 379 1296 L496 1477 Q533 1536 589 1536 Q645 1536 693 1510 Q741 1484 741 1454 Q741 1424 707 1395 L569 1264 Z" /><glyph glyph-name="paragraph" unicode="¶" d="M709 115 L709 500 L672 500 Q410 500 246 622 Q82 744 82 965 L82 969 Q82 1184 234 1309 Q387 1434 637 1434 L836 1434 Q889 1434 926 1397 Q963 1360 963 1307 L963 115 Q963 62 926 26 Q889 -10 836 -10 Q783 -10 745 27 Q709 64 709 115 Z" /><glyph glyph-name="periodcentered" unicode="·" d="M131 637 Q131 696 173 737 Q215 778 275 778 Q336 778 378 737 Q420 696 420 637 L420 618 Q420 557 378 516 Q336 475 276 475 Q216 475 173 516 Q131 557 131 618 L131 637 Z" /><glyph glyph-name="cedilla" unicode="¸" d="M342 -298 Q291 -268 291 -240 Q291 -212 307 -190 L453 20 L639 20 L514 -268 Q470 -373 342 -298 Z" /><glyph glyph-name="ordmasculine" unicode="º" d="M233 1133 Q233 1058 281 1004 Q329 950 402 950 Q475 950 520 1002 Q565 1054 565 1130 L565 1135 Q565 1211 517 1264 Q469 1317 397 1317 Q326 1317 280 1265 Q234 1213 233 1137 L233 1133 ZM154 578 Q129 578 112 595 Q95 612 94 637 Q94 662 112 679 Q130 696 154 696 L645 696 Q670 696 687 679 Q704 662 704 637 Q704 612 688 595 Q670 578 645 578 L154 578 ZM620 913 Q530 823 398 823 Q266 823 178 912 Q90 1001 90 1130 L90 1135 Q90 1264 179 1354 Q268 1444 401 1444 Q534 1444 622 1355 Q710 1266 709 1137 L709 1133 Q709 1004 620 913 Z" /><glyph glyph-name="guillemotright" unicode="»" d="M244 995 Q291 995 326 950 L590 612 Q621 572 621 540 Q621 508 590 467 L332 135 Q297 86 247 86 Q197 86 168 116 Q139 146 139 186 Q139 226 168 258 L383 537 L164 823 Q137 856 138 896 Q139 936 168 966 Q197 996 244 995 ZM678 823 Q653 856 653 896 Q653 936 683 966 Q713 996 760 995 Q807 995 842 950 L1106 612 Q1137 572 1137 540 Q1137 508 1106 467 L848 135 Q809 86 761 86 Q713 86 684 117 Q655 148 655 186 Q655 224 682 258 L899 537 L678 823 Z" /><glyph glyph-name="questiondown" unicode="¿" d="M752 1284 Q752 1223 711 1182 Q670 1141 606 1141 Q542 1141 502 1182 Q461 1223 461 1284 L461 1303 Q461 1362 502 1403 Q543 1444 606 1444 Q668 1444 710 1403 Q752 1362 752 1303 L752 1284 ZM594 991 L606 991 Q641 992 666 968 Q691 944 694 909 L715 733 Q721 692 698 664 Q675 636 635 631 Q338 602 338 410 L338 406 Q338 318 400 264 Q462 210 571 211 Q725 211 850 324 Q885 352 929 352 Q973 352 1007 319 Q1040 286 1040 236 Q1040 186 999 152 Q819 -18 565 -18 Q348 -18 217 94 Q86 206 86 397 L86 401 Q86 745 498 815 L508 909 Q512 944 536 968 Q560 992 594 991 Z" /><glyph glyph-name="Agrave" unicode="à" d="M860 1606 Q860 1563 786 1563 Q712 1563 653 1618 L514 1749 Q479 1780 479 1810 Q479 1840 527 1865 Q576 1890 632 1890 Q688 1890 725 1831 L842 1651 Q860 1622 860 1606 ZM537 569 L1040 569 L788 1149 L537 569 ZM203 -10 Q154 -10 120 24 Q86 58 86 94 Q86 131 102 164 L635 1352 Q682 1454 786 1454 L799 1454 Q901 1454 948 1352 L1481 164 Q1495 136 1495 98 Q1495 60 1461 25 Q1427 -10 1376 -10 Q1290 -10 1253 78 L1137 346 L440 346 L319 70 Q286 -10 203 -10 Z" /><glyph glyph-name="Aacute" unicode="á" d="M928 1618 Q868 1563 794 1563 Q720 1563 721 1606 Q721 1626 737 1651 L854 1831 Q891 1890 947 1890 Q1003 1890 1052 1865 Q1100 1839 1100 1809 Q1100 1779 1065 1749 L928 1618 ZM537 569 L1040 569 L788 1149 L537 569 ZM203 -10 Q154 -10 120 24 Q86 58 86 94 Q86 131 102 164 L635 1352 Q682 1454 786 1454 L799 1454 Q901 1454 948 1352 L1481 164 Q1495 136 1495 98 Q1495 60 1461 25 Q1427 -10 1376 -10 Q1290 -10 1253 78 L1137 346 L440 346 L319 70 Q286 -10 203 -10 Z" /><glyph glyph-name="Acircumflex" unicode="â" d="M528 1563 Q473 1563 473 1604 Q473 1620 498 1653 L633 1823 Q682 1882 752 1882 L825 1882 Q897 1882 944 1823 L1079 1653 Q1104 1620 1104 1604 Q1104 1563 1032 1563 Q960 1563 893 1618 L786 1710 L680 1618 Q614 1563 528 1563 ZM537 569 L1040 569 L788 1149 L537 569 ZM203 -10 Q154 -10 120 24 Q86 58 86 94 Q86 131 102 164 L635 1352 Q682 1454 786 1454 L799 1454 Q901 1454 948 1352 L1481 164 Q1495 136 1495 98 Q1495 60 1461 25 Q1427 -10 1376 -10 Q1290 -10 1253 78 L1137 346 L440 346 L319 70 Q286 -10 203 -10 Z" /><glyph glyph-name="Atilde" unicode="ã" d="M567 1589 Q540 1548 504 1548 Q468 1548 446 1568 Q424 1588 424 1612 Q424 1634 432 1663 Q467 1757 515 1803 Q562 1849 632 1849 Q702 1849 802 1808 Q902 1767 936 1767 Q995 1767 1030 1833 Q1057 1874 1093 1874 Q1130 1874 1152 1854 Q1174 1834 1174 1810 Q1174 1788 1165 1759 Q1130 1665 1082 1619 Q1034 1573 964 1573 Q894 1573 795 1614 Q695 1655 662 1655 Q602 1655 567 1589 ZM537 569 L1040 569 L788 1149 L537 569 ZM203 -10 Q154 -10 120 24 Q86 58 86 94 Q86 131 102 164 L635 1352 Q682 1454 786 1454 L799 1454 Q901 1454 948 1352 L1481 164 Q1495 136 1495 98 Q1495 60 1461 25 Q1427 -10 1376 -10 Q1290 -10 1253 78 L1137 346 L440 346 L319 70 Q286 -10 203 -10 Z" /><glyph glyph-name="Adieresis" unicode="ä" d="M489 1793 Q529 1829 585 1829 Q641 1829 680 1793 Q719 1757 719 1702 L719 1688 Q719 1634 680 1598 Q641 1562 585 1562 Q529 1562 489 1597 Q450 1632 451 1688 L451 1702 Q451 1757 489 1793 ZM897 1793 Q936 1829 992 1829 Q1048 1829 1087 1793 Q1126 1757 1126 1702 L1126 1688 Q1126 1634 1087 1598 Q1048 1562 992 1562 Q936 1562 897 1598 Q858 1632 858 1688 L858 1702 Q858 1757 897 1793 ZM537 569 L1040 569 L788 1149 L537 569 ZM203 -10 Q154 -10 120 24 Q86 58 86 94 Q86 131 102 164 L635 1352 Q682 1454 786 1454 L799 1454 Q901 1454 948 1352 L1481 164 Q1495 136 1495 98 Q1495 60 1461 25 Q1427 -10 1376 -10 Q1290 -10 1253 78 L1137 346 L440 346 L319 70 Q286 -10 203 -10 Z" /><glyph glyph-name="Aring" unicode="å" d="M553 569 L1057 569 L805 1149 L553 569 ZM720 1491 Q758 1454 809 1454 Q860 1454 898 1491 Q936 1528 936 1579 L936 1583 Q936 1634 898 1671 Q860 1708 809 1708 Q758 1708 720 1671 Q682 1634 682 1583 L682 1579 Q682 1528 720 1491 ZM1513 98 Q1512 62 1478 26 Q1444 -10 1393 -10 Q1311 -10 1270 78 L1153 346 L457 346 L338 70 Q301 -10 221 -10 Q172 -10 137 24 Q102 58 102 106 Q102 120 117 160 L674 1401 Q576 1469 575 1579 L575 1583 Q575 1673 646 1740 Q717 1806 809 1806 Q901 1806 972 1740 Q1043 1674 1042 1583 L1042 1579 Q1042 1464 944 1401 L1499 162 Q1513 134 1513 98 Z" /><glyph glyph-name="AE" unicode="æ" d="M997 569 L997 1214 L956 1214 L586 569 L997 569 ZM101 17 Q70 47 70 90 Q70 133 90 164 L780 1346 Q829 1434 928 1434 L1913 1434 Q1958 1434 1992 1401 Q2026 1368 2026 1321 Q2026 1274 1992 1241 Q1960 1208 1913 1208 L1249 1208 L1249 836 L1821 836 Q1868 836 1901 802 Q1934 768 1934 722 Q1934 676 1900 643 Q1868 610 1821 610 L1249 610 L1249 225 L1923 225 Q1970 224 2003 192 Q2036 160 2036 113 Q2036 66 2003 33 Q1970 0 1923 0 L1124 0 Q1071 0 1034 37 Q997 74 997 127 L997 346 L457 346 L291 57 Q250 -13 180 -12 Q133 -12 101 17 Z" /><glyph glyph-name="Ccedilla" unicode="ç" d="M616 -298 Q565 -268 565 -240 Q565 -212 582 -190 L705 -10 Q449 37 285 239 Q121 441 121 713 L121 717 Q121 1028 330 1243 Q539 1458 860 1458 Q1141 1458 1352 1296 Q1401 1259 1401 1202 Q1401 1145 1365 1109 Q1329 1073 1281 1073 Q1233 1073 1200 1098 Q1040 1227 848 1227 Q656 1226 520 1080 Q385 934 385 721 L385 717 Q385 504 520 356 Q655 208 855 209 Q1055 209 1217 346 Q1250 375 1294 375 Q1338 375 1375 340 Q1411 305 1411 255 Q1411 205 1370 168 Q1167 -12 893 -23 L788 -268 Q744 -372 616 -298 Z" /><glyph glyph-name="Egrave" unicode="è" d="M788 1585 Q788 1542 714 1542 Q640 1542 582 1597 L442 1729 Q365 1797 456 1844 Q504 1870 560 1870 Q616 1870 653 1810 L770 1630 Q788 1601 788 1585 ZM311 0 Q258 0 221 37 Q184 74 184 127 L184 1307 Q184 1360 221 1397 Q258 1434 311 1434 L1145 1434 Q1192 1434 1225 1401 Q1258 1368 1258 1321 Q1258 1274 1224 1241 Q1192 1208 1145 1208 L436 1208 L436 836 L1053 836 Q1100 836 1133 802 Q1166 768 1166 722 Q1166 676 1132 643 Q1100 610 1053 610 L436 610 L436 225 L1155 225 Q1200 224 1234 192 Q1268 160 1268 113 Q1268 66 1235 33 Q1202 0 1155 0 L311 0 Z" /><glyph glyph-name="Eacute" unicode="é" d="M311 0 Q258 0 221 37 Q184 74 184 127 L184 1307 Q184 1360 221 1397 Q258 1434 311 1434 L1145 1434 Q1192 1434 1225 1401 Q1258 1368 1258 1321 Q1258 1274 1224 1241 Q1192 1208 1145 1208 L436 1208 L436 836 L1053 836 Q1100 836 1133 802 Q1166 768 1166 722 Q1166 676 1132 643 Q1100 610 1053 610 L436 610 L436 225 L1155 225 Q1200 224 1234 192 Q1268 160 1268 113 Q1268 66 1235 33 Q1202 0 1155 0 L311 0 ZM858 1597 Q800 1542 726 1542 Q652 1542 651 1585 Q651 1605 668 1630 L784 1810 Q822 1870 878 1870 Q934 1870 982 1844 Q1030 1818 1030 1788 Q1030 1758 995 1729 L858 1597 Z" /><glyph glyph-name="Ecircumflex" unicode="ê" d="M311 0 Q258 0 221 37 Q184 74 184 127 L184 1307 Q184 1360 221 1397 Q258 1434 311 1434 L1145 1434 Q1192 1434 1225 1401 Q1258 1368 1258 1321 Q1258 1274 1224 1241 Q1192 1208 1145 1208 L436 1208 L436 836 L1053 836 Q1100 836 1133 802 Q1166 768 1166 722 Q1166 676 1132 643 Q1100 610 1053 610 L436 610 L436 225 L1155 225 Q1200 224 1234 192 Q1268 160 1268 113 Q1268 66 1235 33 Q1202 0 1155 0 L311 0 ZM459 1542 Q404 1542 403 1583 Q403 1599 428 1632 L563 1802 Q612 1861 682 1862 L756 1862 Q828 1862 874 1802 L1010 1632 Q1035 1599 1034 1583 Q1034 1542 962 1542 Q890 1542 823 1597 L717 1690 L610 1597 Q544 1542 459 1542 Z" /><glyph glyph-name="Edieresis" unicode="ë" d="M311 0 Q258 0 221 37 Q184 74 184 127 L184 1307 Q184 1360 221 1397 Q258 1434 311 1434 L1145 1434 Q1192 1434 1225 1401 Q1258 1368 1258 1321 Q1258 1274 1224 1241 Q1192 1208 1145 1208 L436 1208 L436 836 L1053 836 Q1100 836 1133 802 Q1166 768 1166 722 Q1166 676 1132 643 Q1100 610 1053 610 L436 610 L436 225 L1155 225 Q1200 224 1234 192 Q1268 160 1268 113 Q1268 66 1235 33 Q1202 0 1155 0 L311 0 ZM381 1681 Q381 1736 420 1772 Q459 1808 515 1808 Q571 1808 610 1772 Q649 1736 649 1681 L649 1667 Q649 1612 610 1577 Q571 1542 515 1542 Q459 1542 420 1577 Q381 1612 381 1667 L381 1681 ZM827 1773 Q867 1808 923 1808 Q979 1808 1018 1772 Q1057 1736 1057 1681 L1057 1667 Q1057 1612 1018 1577 Q979 1542 923 1542 Q867 1542 827 1577 Q788 1612 788 1667 L788 1681 Q788 1736 827 1773 Z" /><glyph glyph-name="Igrave" unicode="ì" d="M395 1585 Q394 1542 320 1542 Q246 1542 188 1597 L49 1729 Q14 1760 14 1790 Q14 1820 62 1844 Q110 1870 166 1870 Q222 1870 260 1810 L377 1630 Q395 1601 395 1585 ZM199 115 L199 1319 Q199 1372 236 1408 Q273 1444 325 1444 Q377 1444 414 1408 Q451 1372 451 1319 L451 115 Q451 62 414 26 Q377 -10 325 -10 Q273 -10 236 26 Q199 62 199 115 Z" /><glyph glyph-name="Iacute" unicode="í" d="M465 1597 Q406 1542 332 1542 Q258 1542 258 1585 Q258 1605 274 1630 L391 1810 Q428 1870 484 1870 Q540 1870 588 1844 Q636 1818 637 1788 Q637 1758 602 1729 L465 1597 ZM199 115 L199 1319 Q199 1372 236 1408 Q273 1444 325 1444 Q377 1444 414 1408 Q451 1372 451 1319 L451 115 Q451 62 414 26 Q377 -10 325 -10 Q273 -10 236 26 Q199 62 199 115 Z" /><glyph glyph-name="Icircumflex" unicode="î" d="M66 1542 Q11 1542 10 1583 Q10 1599 35 1632 L170 1802 Q219 1861 289 1862 L362 1862 Q434 1862 481 1802 L616 1632 Q641 1599 641 1583 Q642 1542 570 1542 Q498 1542 430 1597 L324 1690 L217 1597 Q151 1542 66 1542 ZM199 115 L199 1319 Q199 1372 236 1408 Q273 1444 325 1444 Q377 1444 414 1408 Q451 1372 451 1319 L451 115 Q451 62 414 26 Q377 -10 325 -10 Q273 -10 236 26 Q199 62 199 115 Z" /><glyph glyph-name="Idieresis" unicode="ï" d="M-12 1681 Q-12 1736 27 1772 Q66 1808 122 1808 Q178 1808 217 1772 Q256 1736 256 1681 L256 1667 Q256 1612 217 1577 Q178 1542 122 1542 Q66 1542 27 1577 Q-12 1612 -12 1667 L-12 1681 ZM395 1681 Q395 1736 434 1772 Q473 1808 529 1808 Q585 1808 625 1773 Q664 1737 664 1681 L664 1667 Q664 1612 625 1577 Q586 1542 530 1542 Q474 1542 434 1577 Q395 1612 395 1667 L395 1681 ZM199 115 L199 1319 Q199 1372 236 1408 Q273 1444 325 1444 Q377 1444 414 1408 Q451 1372 451 1319 L451 115 Q451 62 414 26 Q377 -10 325 -10 Q273 -10 236 26 Q199 62 199 115 Z" /><glyph glyph-name="Eth" unicode="ð" d="M496 1204 L496 834 L756 834 Q803 834 835 801 Q866 768 866 721 Q866 674 834 641 Q802 608 756 608 L496 608 L496 229 L780 229 Q1002 228 1140 364 Q1278 500 1278 713 L1278 717 Q1278 930 1141 1067 Q1004 1204 780 1204 L496 1204 ZM193 834 L246 834 L246 1307 Q246 1360 283 1397 Q320 1434 373 1434 L780 1434 Q1114 1434 1328 1230 Q1542 1026 1542 721 L1542 717 Q1542 410 1328 205 Q1114 0 780 0 L373 0 Q320 0 283 37 Q246 74 246 127 L246 608 L193 608 Q148 608 115 641 Q82 674 82 721 Q82 768 114 801 Q146 834 193 834 Z" /><glyph glyph-name="Ntilde" unicode="ñ" d="M523 1528 Q486 1528 464 1548 Q442 1568 442 1590 Q442 1612 451 1642 Q521 1829 651 1829 Q720 1829 820 1788 Q920 1747 954 1747 Q1013 1747 1049 1812 Q1076 1853 1112 1853 Q1148 1853 1170 1833 Q1192 1812 1192 1790 Q1192 1768 1184 1739 Q1149 1644 1101 1598 Q1054 1552 984 1552 Q914 1552 814 1593 Q714 1634 680 1634 Q621 1635 586 1569 Q559 1528 523 1528 ZM184 113 L184 1315 Q184 1368 221 1405 Q258 1442 311 1442 L338 1442 Q410 1442 469 1368 L1186 440 L1186 1321 Q1186 1372 1222 1408 Q1258 1444 1309 1444 Q1360 1444 1397 1408 Q1434 1372 1434 1321 L1434 117 Q1434 64 1398 28 Q1362 -8 1311 -8 L1300 -8 Q1228 -8 1169 68 L432 1022 L432 113 Q432 62 396 26 Q360 -10 309 -10 Q258 -10 221 26 Q184 62 184 113 Z" /><glyph glyph-name="Ograve" unicode="ò" d="M940 1606 Q940 1563 866 1563 Q792 1563 733 1618 L594 1749 Q559 1780 559 1810 Q559 1840 607 1865 Q656 1890 712 1890 Q768 1890 805 1831 L922 1651 Q940 1622 940 1606 ZM872 209 Q1083 209 1220 354 Q1356 499 1356 713 L1356 717 Q1356 930 1218 1078 Q1080 1226 868 1226 Q656 1226 521 1080 Q385 934 385 721 L385 717 Q385 504 523 356 Q661 208 872 209 ZM868 -25 Q542 -25 332 190 Q122 405 121 713 L121 717 Q121 1024 334 1241 Q546 1458 872 1458 Q1198 1458 1409 1243 Q1620 1028 1620 721 L1620 717 Q1620 410 1407 192 Q1194 -26 868 -25 Z" /><glyph glyph-name="Oacute" unicode="ó" d="M872 209 Q1083 209 1220 354 Q1356 499 1356 713 L1356 717 Q1356 930 1218 1078 Q1080 1226 868 1226 Q656 1226 521 1080 Q385 934 385 721 L385 717 Q385 504 523 356 Q661 208 872 209 ZM868 -25 Q542 -25 332 190 Q122 405 121 713 L121 717 Q121 1024 334 1241 Q546 1458 872 1458 Q1198 1458 1409 1243 Q1620 1028 1620 721 L1620 717 Q1620 410 1407 192 Q1194 -26 868 -25 ZM1008 1618 Q948 1563 874 1563 Q800 1563 801 1606 Q801 1626 817 1651 L934 1831 Q971 1890 1027 1890 Q1083 1890 1132 1865 Q1180 1839 1180 1809 Q1180 1779 1145 1749 L1008 1618 Z" /><glyph glyph-name="Ocircumflex" unicode="ô" d="M872 209 Q1083 209 1220 354 Q1356 499 1356 713 L1356 717 Q1356 930 1218 1078 Q1080 1226 868 1226 Q656 1226 521 1080 Q385 934 385 721 L385 717 Q385 504 523 356 Q661 208 872 209 ZM868 -25 Q542 -25 332 190 Q122 405 121 713 L121 717 Q121 1024 334 1241 Q546 1458 872 1458 Q1198 1458 1409 1243 Q1620 1028 1620 721 L1620 717 Q1620 410 1407 192 Q1194 -26 868 -25 ZM610 1563 Q555 1563 555 1604 Q555 1620 580 1653 L715 1823 Q764 1882 834 1882 L907 1882 Q979 1882 1026 1823 L1161 1653 Q1186 1620 1186 1604 Q1186 1563 1114 1563 Q1042 1563 975 1618 L868 1710 L762 1618 Q696 1563 610 1563 Z" /><glyph glyph-name="Otilde" unicode="õ" d="M647 1589 Q620 1548 584 1548 Q548 1548 526 1568 Q504 1588 504 1612 Q504 1634 512 1663 Q547 1757 595 1803 Q642 1849 712 1849 Q782 1849 882 1808 Q982 1767 1016 1767 Q1075 1767 1110 1833 Q1137 1874 1173 1874 Q1210 1874 1232 1854 Q1254 1834 1254 1810 Q1254 1788 1245 1759 Q1210 1665 1162 1619 Q1114 1573 1044 1573 Q974 1573 874 1614 Q774 1655 741 1655 Q682 1655 647 1589 ZM872 209 Q1083 209 1220 354 Q1356 499 1356 713 L1356 717 Q1356 930 1218 1078 Q1080 1226 868 1226 Q656 1226 521 1080 Q385 934 385 721 L385 717 Q385 504 523 356 Q661 208 872 209 ZM868 -25 Q542 -25 332 190 Q122 405 121 713 L121 717 Q121 1024 334 1241 Q546 1458 872 1458 Q1198 1458 1409 1243 Q1620 1028 1620 721 L1620 717 Q1620 410 1407 192 Q1194 -26 868 -25 Z" /><glyph glyph-name="Odieresis" unicode="ö" d="M872 209 Q1083 209 1220 354 Q1356 499 1356 713 L1356 717 Q1356 930 1218 1078 Q1080 1226 868 1226 Q656 1226 521 1080 Q385 934 385 721 L385 717 Q385 504 523 356 Q661 208 872 209 ZM868 -25 Q542 -25 332 190 Q122 405 121 713 L121 717 Q121 1024 334 1241 Q546 1458 872 1458 Q1198 1458 1409 1243 Q1620 1028 1620 721 L1620 717 Q1620 410 1407 192 Q1194 -26 868 -25 ZM571 1793 Q611 1829 667 1829 Q723 1829 762 1793 Q801 1757 801 1702 L801 1688 Q801 1634 762 1598 Q723 1562 667 1562 Q611 1562 571 1597 Q532 1632 532 1688 L532 1702 Q532 1757 571 1793 ZM979 1793 Q1018 1829 1074 1829 Q1130 1829 1169 1793 Q1208 1757 1208 1702 L1208 1688 Q1208 1634 1169 1598 Q1130 1562 1074 1562 Q1018 1562 979 1598 Q940 1632 940 1688 L940 1702 Q940 1757 979 1793 Z" /><glyph glyph-name="multiply" unicode="×" d="M1067 461 Q1102 426 1102 379 Q1102 332 1069 300 Q1036 268 991 268 Q946 268 909 301 L647 571 L383 303 Q352 268 305 268 Q258 268 227 299 Q196 330 196 377 Q196 424 233 457 L500 719 L229 981 Q196 1018 196 1064 Q196 1110 229 1142 Q262 1174 308 1174 Q354 1174 389 1139 L651 870 L915 1139 Q946 1174 993 1174 Q1040 1174 1071 1142 Q1102 1110 1102 1064 Q1102 1018 1065 985 L799 723 L1067 461 Z" /><glyph glyph-name="Oslash" unicode="ø" d="M872 203 Q1083 203 1222 351 Q1360 499 1360 713 L1360 717 Q1360 875 1274 1010 L588 293 Q712 203 872 203 ZM381 717 Q381 555 467 424 L1151 1139 Q1026 1231 868 1231 Q657 1230 519 1082 Q381 934 381 721 L381 717 ZM868 -25 Q614 -25 422 113 L324 14 Q293 -20 250 -20 Q207 -20 182 4 Q158 28 158 64 Q158 102 193 137 L289 238 Q121 441 121 713 L121 717 Q121 1024 334 1241 Q547 1458 872 1458 Q1128 1458 1319 1319 L1417 1419 Q1452 1454 1492 1454 Q1532 1454 1558 1430 Q1584 1406 1584 1369 Q1584 1331 1548 1296 L1452 1196 Q1620 993 1620 721 L1620 717 Q1620 410 1407 192 Q1194 -26 868 -25 Z" /><glyph glyph-name="Ugrave" unicode="ù" d="M844 1585 Q842 1542 768 1542 Q694 1542 637 1597 L498 1729 Q463 1760 463 1790 Q463 1820 511 1844 Q559 1870 615 1870 Q671 1870 709 1810 L825 1630 Q843 1601 844 1585 ZM1389 621 Q1389 308 1225 142 Q1061 -24 774 -23 Q486 -23 324 139 Q162 301 162 608 L162 1319 Q162 1372 199 1408 Q236 1444 288 1444 Q340 1444 377 1408 Q414 1372 414 1319 L414 618 Q414 421 509 316 Q604 211 775 211 Q946 211 1041 312 Q1136 413 1137 608 L1137 1319 Q1137 1372 1174 1408 Q1211 1444 1263 1444 Q1315 1444 1352 1408 Q1389 1372 1389 1319 L1389 621 Z" /><glyph glyph-name="Uacute" unicode="ú" d="M1389 621 Q1389 308 1225 142 Q1061 -24 774 -23 Q486 -23 324 139 Q162 301 162 608 L162 1319 Q162 1372 199 1408 Q236 1444 288 1444 Q340 1444 377 1408 Q414 1372 414 1319 L414 618 Q414 421 509 316 Q604 211 775 211 Q946 211 1041 312 Q1136 413 1137 608 L1137 1319 Q1137 1372 1174 1408 Q1211 1444 1263 1444 Q1315 1444 1352 1408 Q1389 1372 1389 1319 L1389 621 ZM913 1597 Q854 1542 780 1542 Q706 1542 707 1585 Q707 1605 723 1630 L840 1810 Q877 1870 933 1870 Q989 1870 1037 1844 Q1085 1818 1085 1788 Q1085 1758 1051 1729 L913 1597 Z" /><glyph glyph-name="Ucircumflex" unicode="û" d="M1389 621 Q1389 308 1225 142 Q1061 -24 774 -23 Q486 -23 324 139 Q162 301 162 608 L162 1319 Q162 1372 199 1408 Q236 1444 288 1444 Q340 1444 377 1408 Q414 1372 414 1319 L414 618 Q414 421 509 316 Q604 211 775 211 Q946 211 1041 312 Q1136 413 1137 608 L1137 1319 Q1137 1372 1174 1408 Q1211 1444 1263 1444 Q1315 1444 1352 1408 Q1389 1372 1389 1319 L1389 621 ZM514 1542 Q459 1542 459 1583 Q459 1599 483 1632 L618 1802 Q667 1861 737 1862 L811 1862 Q883 1862 930 1802 L1065 1632 Q1090 1599 1090 1583 Q1090 1542 1018 1542 Q946 1542 879 1597 L772 1690 L666 1597 Q600 1542 514 1542 Z" /><glyph glyph-name="Udieresis" unicode="ü" d="M1389 621 Q1389 308 1225 142 Q1061 -24 774 -23 Q486 -23 324 139 Q162 301 162 608 L162 1319 Q162 1372 199 1408 Q236 1444 288 1444 Q340 1444 377 1408 Q414 1372 414 1319 L414 618 Q414 421 509 316 Q604 211 775 211 Q946 211 1041 312 Q1136 413 1137 608 L1137 1319 Q1137 1372 1174 1408 Q1211 1444 1263 1444 Q1315 1444 1352 1408 Q1389 1372 1389 1319 L1389 621 ZM436 1681 Q436 1736 475 1772 Q514 1808 570 1808 Q626 1808 666 1773 Q705 1737 705 1681 L705 1667 Q705 1612 666 1577 Q626 1542 570 1542 Q514 1542 475 1577 Q436 1612 436 1667 L436 1681 ZM844 1681 Q844 1736 883 1772 Q922 1808 978 1808 Q1034 1808 1073 1772 Q1112 1736 1112 1681 L1112 1667 Q1112 1612 1073 1577 Q1034 1542 978 1542 Q922 1542 883 1577 Q844 1612 844 1667 L844 1681 Z" /><glyph glyph-name="Yacute" unicode="ý" d="M852 1597 Q794 1542 720 1542 Q646 1542 645 1585 Q645 1605 662 1630 L778 1810 Q816 1870 872 1870 Q928 1870 976 1844 Q1024 1818 1024 1788 Q1024 1758 989 1729 L852 1597 ZM588 115 L588 557 L94 1235 Q66 1278 66 1326 Q66 1374 102 1409 Q139 1444 202 1444 Q265 1444 315 1368 L715 793 L1120 1370 Q1170 1446 1232 1446 Q1294 1446 1329 1410 Q1364 1374 1364 1327 Q1364 1280 1329 1233 L840 563 L840 115 Q840 62 803 26 Q766 -10 713 -10 Q660 -10 624 26 Q588 62 588 115 Z" /><glyph glyph-name="Thorn" unicode="þ" d="M436 463 L729 463 Q870 463 954 535 Q1038 607 1038 721 L1038 725 Q1038 848 955 914 Q872 980 729 981 L436 981 L436 463 ZM184 115 L184 1319 Q184 1372 221 1408 Q258 1444 311 1444 Q364 1444 400 1408 Q436 1372 436 1319 L436 1210 L750 1210 Q1000 1210 1147 1079 Q1294 948 1294 731 L1294 727 Q1294 494 1132 366 Q970 238 721 238 L436 238 L436 115 Q436 62 400 26 Q364 -10 311 -10 Q258 -10 221 26 Q184 62 184 115 Z" /><glyph glyph-name="germandbls" unicode="ß" d="M596 96 Q596 174 684 195 Q922 232 922 408 L922 412 Q922 570 686 629 Q596 656 596 730 Q596 804 649 840 Q837 944 838 1098 L838 1102 Q838 1190 782 1244 Q726 1298 627 1298 Q529 1298 465 1227 Q402 1155 401 1036 L401 111 Q402 60 366 25 Q330 -10 278 -10 Q226 -10 190 25 Q155 60 156 111 L156 1028 Q156 1251 287 1380 Q418 1509 632 1509 Q846 1510 966 1400 Q1086 1290 1085 1124 L1085 1120 Q1085 895 858 770 Q1169 666 1169 406 L1169 401 Q1169 213 1033 105 Q897 -3 709 -6 Q658 -6 627 22 Q596 50 596 96 Z" /><glyph glyph-name="agrave" unicode="à" d="M672 1251 Q670 1208 596 1208 Q522 1208 465 1264 L326 1395 Q291 1426 291 1456 Q291 1486 339 1510 Q387 1536 443 1536 Q499 1536 537 1477 L653 1296 Q671 1269 672 1251 ZM326 322 Q326 246 386 202 Q446 158 554 158 Q662 158 744 222 Q826 286 825 389 L825 463 Q714 506 588 506 Q462 506 393 458 Q325 410 326 326 L326 322 ZM467 -23 Q308 -24 196 66 Q84 156 84 311 L84 315 Q84 485 205 574 Q326 664 503 664 Q680 664 821 618 L821 645 Q821 760 753 820 Q684 880 553 880 Q422 880 313 838 Q245 817 207 854 Q170 891 170 934 Q170 1006 238 1032 Q406 1095 586 1096 Q828 1096 944 975 Q1061 860 1061 641 L1061 109 Q1061 58 1026 24 Q991 -10 939 -10 Q887 -10 853 20 Q819 50 819 94 L819 135 Q688 -23 467 -23 Z" /><glyph glyph-name="aacute" unicode="á" d="M741 1264 Q682 1208 608 1208 Q534 1208 535 1251 Q535 1271 551 1296 L668 1477 Q705 1536 761 1536 Q817 1536 865 1510 Q913 1484 913 1454 Q913 1424 879 1395 L741 1264 ZM326 322 Q326 246 386 202 Q446 158 554 158 Q662 158 744 222 Q826 286 825 389 L825 463 Q714 506 588 506 Q462 506 393 458 Q325 410 326 326 L326 322 ZM467 -23 Q308 -24 196 66 Q84 156 84 311 L84 315 Q84 485 205 574 Q326 664 503 664 Q680 664 821 618 L821 645 Q821 760 753 820 Q684 880 553 880 Q422 880 313 838 Q245 817 207 854 Q170 891 170 934 Q170 1006 238 1032 Q406 1095 586 1096 Q828 1096 944 975 Q1061 860 1061 641 L1061 109 Q1061 58 1026 24 Q991 -10 939 -10 Q887 -10 853 20 Q819 50 819 94 L819 135 Q688 -23 467 -23 Z" /><glyph glyph-name="acircumflex" unicode="â" d="M287 1249 Q287 1265 311 1298 L446 1468 Q495 1527 565 1528 L639 1528 Q711 1528 758 1468 L893 1298 Q918 1265 918 1249 Q918 1208 846 1208 Q774 1208 707 1264 L600 1356 L494 1264 Q428 1209 342 1208 Q287 1208 287 1249 ZM326 322 Q326 246 386 202 Q446 158 554 158 Q662 158 744 222 Q826 286 825 389 L825 463 Q714 506 588 506 Q462 506 393 458 Q325 410 326 326 L326 322 ZM467 -23 Q308 -24 196 66 Q84 156 84 311 L84 315 Q84 485 205 574 Q326 664 503 664 Q680 664 821 618 L821 645 Q821 760 753 820 Q684 880 553 880 Q422 880 313 838 Q245 817 207 854 Q170 891 170 934 Q170 1006 238 1032 Q406 1095 586 1096 Q828 1096 944 975 Q1061 860 1061 641 L1061 109 Q1061 58 1026 24 Q991 -10 939 -10 Q887 -10 853 20 Q819 50 819 94 L819 135 Q688 -23 467 -23 Z" /><glyph glyph-name="atilde" unicode="ã" d="M326 322 Q326 246 386 202 Q446 158 554 158 Q662 158 744 222 Q826 286 825 389 L825 463 Q714 506 588 506 Q462 506 393 458 Q325 410 326 326 L326 322 ZM381 1235 Q354 1194 318 1194 Q282 1194 260 1214 Q238 1234 238 1257 Q238 1280 246 1309 Q281 1403 329 1449 Q376 1495 446 1495 Q516 1495 616 1454 Q716 1413 750 1413 Q809 1413 844 1479 Q870 1520 906 1520 Q942 1520 965 1500 Q988 1480 988 1456 Q988 1434 979 1405 Q944 1311 896 1265 Q848 1219 778 1219 Q708 1219 608 1260 Q508 1301 475 1300 Q416 1301 381 1235 ZM467 -23 Q308 -24 196 66 Q84 156 84 311 L84 315 Q84 485 205 574 Q326 664 503 664 Q680 664 821 618 L821 645 Q821 760 753 820 Q684 880 553 880 Q422 880 313 838 Q245 817 207 854 Q170 891 170 934 Q170 1006 238 1032 Q406 1095 586 1096 Q828 1096 944 975 Q1061 860 1061 641 L1061 109 Q1061 58 1026 24 Q991 -10 939 -10 Q887 -10 853 20 Q819 50 819 94 L819 135 Q688 -23 467 -23 Z" /><glyph glyph-name="adieresis" unicode="ä" d="M303 1439 Q342 1475 398 1475 Q454 1475 494 1439 Q534 1403 532 1348 L532 1333 Q532 1278 494 1243 Q456 1208 398 1208 Q342 1208 303 1243 Q264 1278 264 1333 L264 1348 Q264 1403 303 1439 ZM711 1439 Q750 1475 806 1475 Q862 1475 901 1439 Q940 1403 940 1348 L940 1333 Q940 1278 901 1243 Q862 1208 806 1208 Q750 1208 711 1243 Q672 1278 672 1333 L672 1348 Q672 1403 711 1439 ZM326 322 Q326 246 386 202 Q446 158 554 158 Q662 158 744 222 Q826 286 825 389 L825 463 Q714 506 588 506 Q462 506 393 458 Q325 410 326 326 L326 322 ZM467 -23 Q308 -24 196 66 Q84 156 84 311 L84 315 Q84 485 205 574 Q326 664 503 664 Q680 664 821 618 L821 645 Q821 760 753 820 Q684 880 553 880 Q422 880 313 838 Q245 817 207 854 Q170 891 170 934 Q170 1006 238 1032 Q406 1095 586 1096 Q828 1096 944 975 Q1061 860 1061 641 L1061 109 Q1061 58 1026 24 Q991 -10 939 -10 Q887 -10 853 20 Q819 50 819 94 L819 135 Q688 -23 467 -23 Z" /><glyph glyph-name="aring" unicode="å" d="M513 1350 Q551 1313 602 1313 Q653 1313 691 1350 Q729 1387 729 1438 L729 1442 Q729 1493 691 1530 Q653 1567 602 1567 Q551 1567 513 1530 Q475 1493 475 1442 L475 1438 Q475 1387 513 1350 ZM326 322 Q326 246 386 202 Q446 158 554 158 Q662 158 744 222 Q826 286 825 389 L825 463 Q714 506 588 506 Q462 506 393 458 Q325 410 326 326 L326 322 ZM765 1281 Q694 1214 602 1214 Q510 1214 439 1281 Q368 1348 369 1438 L369 1442 Q370 1534 440 1600 Q510 1666 602 1665 Q694 1665 765 1599 Q836 1533 836 1442 L836 1438 Q836 1348 765 1281 ZM467 -23 Q308 -24 196 66 Q84 156 84 311 L84 315 Q84 485 205 574 Q326 664 503 664 Q680 664 821 618 L821 645 Q821 760 753 820 Q684 880 553 880 Q422 880 313 838 Q245 817 207 854 Q170 891 170 934 Q170 1006 238 1032 Q406 1095 586 1096 Q828 1096 944 975 Q1061 860 1061 641 L1061 109 Q1061 58 1026 24 Q991 -10 939 -10 Q887 -10 853 20 Q819 50 819 94 L819 135 Q688 -23 467 -23 Z" /><glyph glyph-name="ae" unicode="æ" d="M84 311 L84 315 Q84 485 204 574 Q324 663 526 664 Q671 664 813 618 L813 645 Q813 760 745 820 Q678 880 552 880 Q426 880 313 838 Q245 817 207 854 Q170 891 170 934 Q170 1006 238 1032 Q396 1095 582 1096 Q863 1096 963 920 Q1104 1104 1341 1104 Q1501 1104 1621 1021 Q1741 938 1795 820 Q1849 702 1849 571 Q1850 520 1816 486 Q1782 452 1733 453 L1057 453 Q1077 324 1161 251 Q1245 178 1377 178 Q1509 178 1624 272 Q1651 295 1690 295 Q1730 295 1758 266 Q1786 238 1786 194 Q1786 150 1751 119 Q1590 -24 1346 -24 Q1102 -24 944 160 Q725 -22 492 -23 Q316 -24 200 66 Q84 156 84 311 ZM532 160 Q704 160 854 299 Q821 381 813 465 Q698 506 577 506 Q456 506 390 458 Q324 410 326 326 L326 322 Q326 248 385 204 Q444 160 532 160 ZM1526 821 Q1454 901 1338 901 Q1222 901 1146 822 Q1070 743 1053 616 L1610 616 Q1598 741 1526 821 Z" /><glyph glyph-name="ccedilla" unicode="ç" d="M422 -298 Q371 -268 371 -240 Q371 -212 387 -190 L512 -6 Q328 40 212 190 Q96 340 96 535 L96 539 Q96 772 257 938 Q418 1104 650 1104 Q882 1104 1038 969 Q1077 934 1077 885 Q1077 836 1043 803 Q1010 770 966 770 Q922 770 889 795 Q778 887 651 887 Q524 886 434 786 Q344 686 344 543 L344 539 Q344 394 435 294 Q526 194 662 193 Q798 193 909 289 Q940 316 981 316 Q1022 316 1053 284 Q1084 252 1084 205 Q1084 158 1049 129 Q902 -12 700 -23 L594 -268 Q550 -373 422 -298 Z" /><glyph glyph-name="egrave" unicode="è" d="M690 1251 Q690 1208 616 1208 Q542 1208 483 1264 L344 1395 Q309 1426 309 1456 Q309 1486 357 1510 Q406 1536 462 1536 Q518 1536 555 1477 L672 1296 Q690 1269 690 1251 ZM96 537 L96 541 Q96 776 246 940 Q396 1104 625 1104 Q790 1104 910 1021 Q1137 864 1139 571 Q1139 520 1105 486 Q1071 452 1022 453 L344 453 Q364 324 448 251 Q532 178 664 178 Q796 178 911 272 Q940 295 978 295 Q1016 295 1044 266 Q1072 236 1073 194 Q1073 152 1040 119 Q880 -24 646 -24 Q412 -24 254 132 Q96 289 96 537 ZM813 821 Q742 901 626 901 Q510 901 434 822 Q358 743 342 616 L897 616 Q885 741 813 821 Z" /><glyph glyph-name="eacute" unicode="é" d="M96 537 L96 541 Q96 776 246 940 Q396 1104 625 1104 Q790 1104 910 1021 Q1137 864 1139 571 Q1139 520 1105 486 Q1071 452 1022 453 L344 453 Q364 324 448 251 Q532 178 664 178 Q796 178 911 272 Q940 295 978 295 Q1016 295 1044 266 Q1072 236 1073 194 Q1073 152 1040 119 Q880 -24 646 -24 Q412 -24 254 132 Q96 289 96 537 ZM813 821 Q742 901 626 901 Q510 901 434 822 Q358 743 342 616 L897 616 Q885 741 813 821 ZM760 1264 Q700 1208 626 1208 Q552 1208 553 1251 Q553 1271 569 1296 L686 1477 Q723 1536 779 1536 Q836 1536 884 1510 Q932 1484 932 1454 Q932 1424 897 1395 L760 1264 Z" /><glyph glyph-name="ecircumflex" unicode="ê" d="M96 537 L96 541 Q96 776 246 940 Q396 1104 625 1104 Q790 1104 910 1021 Q1137 864 1139 571 Q1139 520 1105 486 Q1071 452 1022 453 L344 453 Q364 324 448 251 Q532 178 664 178 Q796 178 911 272 Q940 295 978 295 Q1016 295 1044 266 Q1072 236 1073 194 Q1073 152 1040 119 Q880 -24 646 -24 Q412 -24 254 132 Q96 289 96 537 ZM813 821 Q742 901 626 901 Q510 901 434 822 Q358 743 342 616 L897 616 Q885 741 813 821 ZM305 1249 Q305 1265 330 1298 L465 1468 Q514 1527 584 1528 L657 1528 Q729 1528 776 1468 L911 1298 Q936 1265 936 1249 Q936 1208 864 1208 Q792 1208 725 1264 L618 1356 L512 1264 Q446 1209 360 1208 Q305 1208 305 1249 Z" /><glyph glyph-name="edieresis" unicode="ë" d="M96 537 L96 541 Q96 776 246 940 Q396 1104 625 1104 Q790 1104 910 1021 Q1137 864 1139 571 Q1139 520 1105 486 Q1071 452 1022 453 L344 453 Q364 324 448 251 Q532 178 664 178 Q796 178 911 272 Q940 295 978 295 Q1016 295 1044 266 Q1072 236 1073 194 Q1073 152 1040 119 Q880 -24 646 -24 Q412 -24 254 132 Q96 289 96 537 ZM813 821 Q742 901 626 901 Q510 901 434 822 Q358 743 342 616 L897 616 Q885 741 813 821 ZM322 1439 Q361 1475 417 1475 Q473 1475 512 1439 Q551 1403 551 1348 L551 1333 Q551 1278 512 1243 Q473 1208 417 1208 Q361 1208 322 1243 Q283 1278 283 1333 L283 1348 Q283 1403 322 1439 ZM729 1439 Q768 1475 824 1475 Q880 1475 920 1439 Q960 1403 958 1348 L958 1333 Q958 1278 920 1243 Q882 1208 824 1208 Q768 1208 729 1243 Q690 1278 690 1333 L690 1348 Q690 1403 729 1439 Z" /><glyph glyph-name="igrave" unicode="ì" d="M362 1251 Q362 1208 288 1208 Q214 1208 156 1264 L16 1395 Q-61 1463 30 1510 Q78 1536 134 1536 Q190 1536 227 1477 L344 1296 Q362 1269 362 1251 ZM170 113 L170 969 Q170 1022 206 1058 Q242 1094 293 1094 Q344 1094 381 1057 Q418 1020 418 969 L418 113 Q418 62 382 26 Q346 -10 294 -10 Q242 -10 206 26 Q170 62 170 113 Z" /><glyph glyph-name="iacute" unicode="í" d="M170 113 L170 969 Q170 1022 206 1058 Q242 1094 293 1094 Q344 1094 381 1057 Q418 1020 418 969 L418 113 Q418 62 382 26 Q346 -10 294 -10 Q242 -10 206 26 Q170 62 170 113 ZM432 1264 Q374 1208 300 1208 Q226 1208 225 1251 Q225 1271 242 1296 L358 1477 Q396 1536 452 1536 Q508 1536 556 1510 Q604 1484 604 1454 Q604 1424 569 1395 L432 1264 Z" /><glyph glyph-name="icircumflex" unicode="î" d="M170 113 L170 969 Q170 1022 206 1058 Q242 1094 293 1094 Q344 1094 381 1057 Q418 1020 418 969 L418 113 Q418 62 382 26 Q346 -10 294 -10 Q242 -10 206 26 Q170 62 170 113 ZM330 1528 Q402 1528 449 1468 L584 1298 Q609 1265 608 1249 Q608 1208 536 1208 Q464 1208 397 1264 L291 1356 L184 1264 Q118 1209 33 1208 Q-22 1208 -23 1249 Q-23 1265 2 1298 L137 1468 Q186 1527 256 1528 L330 1528 Z" /><glyph glyph-name="idieresis" unicode="ï" d="M170 113 L170 969 Q170 1022 206 1058 Q242 1094 293 1094 Q344 1094 381 1057 Q418 1020 418 969 L418 113 Q418 62 382 26 Q346 -10 294 -10 Q242 -10 206 26 Q170 62 170 113 ZM-6 1439 Q33 1475 89 1475 Q145 1475 184 1439 Q223 1403 223 1348 L223 1333 Q223 1278 184 1243 Q145 1208 89 1208 Q33 1208 -6 1243 Q-45 1278 -45 1333 L-45 1348 Q-45 1403 -6 1439 ZM401 1439 Q441 1475 497 1475 Q553 1475 592 1439 Q631 1403 631 1348 L631 1333 Q631 1278 592 1243 Q553 1208 497 1208 Q441 1208 401 1243 Q362 1278 362 1333 L362 1348 Q362 1403 401 1439 Z" /><glyph glyph-name="eth" unicode="ð" d="M971 503 Q971 635 881 724 Q790 813 650 813 Q510 813 425 726 Q340 639 340 506 Q340 373 430 280 Q520 186 658 186 Q796 186 884 278 Q972 370 971 503 ZM420 1106 Q406 1100 379 1100 Q352 1100 330 1122 Q308 1144 307 1178 Q307 1231 362 1251 L549 1333 Q528 1362 528 1404 Q528 1446 561 1479 Q594 1512 647 1512 Q700 1512 739 1456 L762 1423 L940 1501 Q964 1509 986 1509 Q1008 1510 1030 1486 Q1052 1462 1053 1430 Q1053 1377 999 1356 L852 1292 L1036 1030 Q1130 893 1172 778 Q1214 663 1214 530 Q1214 297 1060 136 Q906 -25 658 -25 Q412 -25 254 131 Q96 287 96 506 Q96 725 232 860 Q368 995 571 995 Q717 995 856 911 L643 1204 L420 1106 Z" /><glyph glyph-name="ntilde" unicode="ñ" d="M353 1194 Q316 1194 294 1214 Q272 1234 272 1257 Q272 1280 281 1309 Q350 1495 481 1495 Q550 1495 650 1454 Q750 1413 784 1413 Q843 1413 879 1479 Q906 1520 942 1520 Q978 1520 1000 1500 Q1022 1480 1022 1456 Q1022 1434 1014 1405 Q979 1311 931 1265 Q884 1219 814 1219 Q744 1219 644 1260 Q544 1301 510 1300 Q451 1301 416 1235 Q389 1194 353 1194 ZM156 113 L156 969 Q156 1022 191 1058 Q228 1094 280 1094 Q332 1094 368 1057 Q404 1020 403 969 L403 915 Q534 1104 728 1104 Q922 1104 1024 992 Q1126 880 1126 690 L1126 113 Q1126 62 1092 26 Q1058 -10 1004 -10 Q951 -10 914 26 Q878 62 879 113 L879 614 Q878 741 818 810 Q758 879 648 879 Q538 879 470 807 Q402 735 403 610 L403 113 Q404 62 368 26 Q332 -10 280 -10 Q228 -10 191 26 Q156 62 156 113 Z" /><glyph glyph-name="ograve" unicode="ò" d="M741 1251 Q740 1208 666 1208 Q592 1208 535 1264 L395 1395 Q360 1426 360 1456 Q360 1486 408 1510 Q456 1536 513 1536 Q569 1536 606 1477 L723 1296 Q741 1269 741 1251 ZM438 294 Q533 193 677 193 Q821 193 911 292 Q1001 391 1001 535 L1001 539 Q1001 684 907 785 Q813 886 669 886 Q524 886 434 788 Q344 688 344 543 L344 539 Q344 396 438 294 ZM1249 539 Q1250 306 1084 140 Q918 -26 671 -25 Q424 -25 260 138 Q96 301 96 535 L96 539 Q96 776 262 940 Q428 1104 674 1104 Q920 1104 1084 940 Q1248 776 1249 543 L1249 539 Z" /><glyph glyph-name="oacute" unicode="ó" d="M438 294 Q533 193 677 193 Q821 193 911 292 Q1001 391 1001 535 L1001 539 Q1001 684 907 785 Q813 886 669 886 Q524 886 434 788 Q344 688 344 543 L344 539 Q344 396 438 294 ZM1249 539 Q1250 306 1084 140 Q918 -26 671 -25 Q424 -25 260 138 Q96 301 96 535 L96 539 Q96 776 262 940 Q428 1104 674 1104 Q920 1104 1084 940 Q1248 776 1249 543 L1249 539 ZM811 1264 Q752 1208 678 1208 Q604 1208 604 1251 Q604 1271 621 1296 L737 1477 Q774 1536 830 1536 Q886 1536 935 1510 Q983 1484 983 1454 Q983 1424 948 1395 L811 1264 Z" /><glyph glyph-name="ocircumflex" unicode="ô" d="M438 294 Q533 193 677 193 Q821 193 911 292 Q1001 391 1001 535 L1001 539 Q1001 684 907 785 Q813 886 669 886 Q524 886 434 788 Q344 688 344 543 L344 539 Q344 396 438 294 ZM1249 539 Q1250 306 1084 140 Q918 -26 671 -25 Q424 -25 260 138 Q96 301 96 535 L96 539 Q96 776 262 940 Q428 1104 674 1104 Q920 1104 1084 940 Q1248 776 1249 543 L1249 539 ZM709 1528 Q781 1528 827 1468 L963 1298 Q988 1265 987 1249 Q988 1208 916 1208 Q844 1208 776 1264 L670 1356 L563 1264 Q497 1209 412 1208 Q357 1208 356 1249 Q356 1265 381 1298 L516 1468 Q565 1527 635 1528 L709 1528 Z" /><glyph glyph-name="otilde" unicode="õ" d="M449 1235 Q422 1194 386 1194 Q350 1194 328 1214 Q306 1234 305 1257 Q305 1280 313 1309 Q348 1403 396 1449 Q444 1495 514 1495 Q584 1495 684 1454 Q784 1413 817 1413 Q876 1413 911 1479 Q938 1520 974 1520 Q1010 1520 1032 1500 Q1054 1480 1055 1456 Q1055 1434 1047 1405 Q1012 1311 964 1265 Q916 1219 846 1219 Q776 1219 676 1260 Q576 1301 543 1300 Q484 1301 449 1235 ZM438 294 Q533 193 677 193 Q821 193 911 292 Q1001 391 1001 535 L1001 539 Q1001 684 907 785 Q813 886 669 886 Q524 886 434 788 Q344 688 344 543 L344 539 Q344 396 438 294 ZM1249 539 Q1250 306 1084 140 Q918 -26 671 -25 Q424 -25 260 138 Q96 301 96 535 L96 539 Q96 776 262 940 Q428 1104 674 1104 Q920 1104 1084 940 Q1248 776 1249 543 L1249 539 Z" /><glyph glyph-name="odieresis" unicode="ö" d="M438 294 Q533 193 677 193 Q821 193 911 292 Q1001 391 1001 535 L1001 539 Q1001 684 907 785 Q813 886 669 886 Q524 886 434 788 Q344 688 344 543 L344 539 Q344 396 438 294 ZM1249 539 Q1250 306 1084 140 Q918 -26 671 -25 Q424 -25 260 138 Q96 301 96 535 L96 539 Q96 776 262 940 Q428 1104 674 1104 Q920 1104 1084 940 Q1248 776 1249 543 L1249 539 ZM373 1439 Q412 1475 468 1475 Q524 1475 563 1439 Q602 1403 602 1348 L602 1333 Q602 1278 563 1243 Q524 1208 468 1208 Q412 1208 373 1243 Q334 1278 334 1333 L334 1348 Q334 1403 373 1439 ZM780 1439 Q820 1475 876 1475 Q932 1475 971 1439 Q1010 1403 1010 1348 L1010 1333 Q1010 1278 971 1243 Q932 1208 876 1208 Q820 1208 780 1243 Q741 1278 741 1333 L741 1348 Q741 1403 780 1439 Z" /><glyph glyph-name="divide" unicode="÷" d="M549 396 Q590 436 649 436 Q708 436 750 396 Q792 356 791 299 L791 289 Q791 232 750 193 Q710 154 650 154 Q590 154 549 193 Q508 232 508 289 L508 299 Q508 356 549 396 ZM550 1248 Q592 1288 649 1288 Q706 1288 748 1248 Q790 1208 791 1153 L791 1143 Q791 1086 750 1046 Q710 1006 650 1006 Q590 1006 549 1046 Q508 1086 508 1143 L508 1153 Q508 1208 550 1248 ZM1063 614 L236 614 Q191 614 160 646 Q129 678 129 721 Q129 764 160 796 Q191 828 236 827 L1063 827 Q1108 828 1139 796 Q1170 764 1170 721 Q1170 678 1138 646 Q1108 614 1063 614 Z" /><glyph glyph-name="oslash" unicode="ø" d="M674 186 Q824 186 916 288 Q1008 390 1008 535 L1008 539 Q1008 637 961 719 L492 240 Q570 186 674 186 ZM338 539 Q338 443 383 358 L852 838 Q770 893 670 893 Q522 893 430 792 Q338 691 338 543 L338 539 ZM670 -25 Q486 -25 338 74 L279 12 Q242 -25 205 -25 Q168 -25 144 -2 Q120 20 120 56 Q120 92 156 127 L215 188 Q96 335 96 535 L96 539 Q96 776 262 940 Q428 1104 674 1104 Q860 1104 1006 1004 L1067 1067 Q1104 1104 1141 1104 Q1178 1104 1202 1082 Q1226 1060 1225 1026 Q1225 992 1190 952 L1128 891 Q1249 737 1249 543 L1249 539 Q1250 306 1084 140 Q918 -26 670 -25 Z" /><glyph glyph-name="ugrave" unicode="ù" d="M696 1251 Q696 1208 622 1208 Q548 1208 489 1264 L350 1395 Q315 1426 315 1456 Q316 1486 364 1510 Q412 1536 468 1536 Q524 1536 561 1477 L678 1296 Q696 1269 696 1251 ZM1116 969 L1116 113 Q1116 62 1079 26 Q1042 -10 991 -10 Q940 -10 903 26 Q866 62 866 113 L866 168 Q737 -22 528 -23 Q348 -23 246 90 Q144 203 143 393 L143 969 Q143 1020 179 1057 Q215 1094 267 1094 Q319 1094 355 1057 Q391 1020 391 969 L391 467 Q392 342 452 273 Q512 204 622 204 Q732 204 800 276 Q868 346 866 471 L866 969 Q866 1020 902 1057 Q938 1094 990 1094 Q1042 1094 1079 1057 Q1116 1020 1116 969 Z" /><glyph glyph-name="uacute" unicode="ú" d="M1116 969 L1116 113 Q1116 62 1079 26 Q1042 -10 991 -10 Q940 -10 903 26 Q866 62 866 113 L866 168 Q737 -22 528 -23 Q348 -23 246 90 Q144 203 143 393 L143 969 Q143 1020 179 1057 Q215 1094 267 1094 Q319 1094 355 1057 Q391 1020 391 969 L391 467 Q392 342 452 273 Q512 204 622 204 Q732 204 800 276 Q868 346 866 471 L866 969 Q866 1020 902 1057 Q938 1094 990 1094 Q1042 1094 1079 1057 Q1116 1020 1116 969 ZM766 1264 Q708 1208 634 1208 Q560 1208 559 1251 Q559 1271 575 1296 L692 1477 Q730 1536 786 1536 Q842 1536 890 1510 Q938 1484 938 1454 Q938 1424 903 1395 L766 1264 Z" /><glyph glyph-name="ucircumflex" unicode="û" d="M1116 969 L1116 113 Q1116 62 1079 26 Q1042 -10 991 -10 Q940 -10 903 26 Q866 62 866 113 L866 168 Q737 -22 528 -23 Q348 -23 246 90 Q144 203 143 393 L143 969 Q143 1020 179 1057 Q215 1094 267 1094 Q319 1094 355 1057 Q391 1020 391 969 L391 467 Q392 342 452 273 Q512 204 622 204 Q732 204 800 276 Q868 346 866 471 L866 969 Q866 1020 902 1057 Q938 1094 990 1094 Q1042 1094 1079 1057 Q1116 1020 1116 969 ZM664 1528 Q736 1528 782 1468 L918 1298 Q943 1265 942 1249 Q942 1208 870 1208 Q798 1208 731 1264 L625 1356 L518 1264 Q452 1209 367 1208 Q312 1208 311 1249 Q311 1265 336 1298 L471 1468 Q520 1527 590 1528 L664 1528 Z" /><glyph glyph-name="udieresis" unicode="ü" d="M1116 969 L1116 113 Q1116 62 1079 26 Q1042 -10 991 -10 Q940 -10 903 26 Q866 62 866 113 L866 168 Q737 -22 528 -23 Q348 -23 246 90 Q144 203 143 393 L143 969 Q143 1020 179 1057 Q215 1094 267 1094 Q319 1094 355 1057 Q391 1020 391 969 L391 467 Q392 342 452 273 Q512 204 622 204 Q732 204 800 276 Q868 346 866 471 L866 969 Q866 1020 902 1057 Q938 1094 990 1094 Q1042 1094 1079 1057 Q1116 1020 1116 969 ZM328 1439 Q367 1475 423 1475 Q479 1475 518 1439 Q557 1403 557 1348 L557 1333 Q557 1278 518 1243 Q479 1208 423 1208 Q367 1208 328 1243 Q289 1278 289 1333 L289 1348 Q289 1403 328 1439 ZM735 1439 Q774 1475 830 1475 Q886 1475 926 1439 Q966 1403 965 1348 L965 1333 Q965 1278 926 1243 Q886 1208 830 1208 Q774 1208 735 1243 Q696 1278 696 1333 L696 1348 Q696 1403 735 1439 Z" /><glyph glyph-name="yacute" unicode="ý" d="M741 1264 Q682 1208 608 1208 Q534 1208 535 1251 Q535 1271 551 1296 L668 1477 Q705 1536 761 1536 Q817 1536 865 1510 Q913 1484 913 1454 Q913 1424 879 1395 L741 1264 ZM565 -266 Q482 -334 370 -334 Q258 -334 180 -303 Q102 -276 102 -201 Q102 -156 132 -127 Q162 -98 192 -98 Q222 -98 261 -109 Q299 -120 344 -120 Q389 -120 423 -95 Q457 -69 487 -6 L496 16 L94 913 Q80 946 80 985 Q80 1024 115 1059 Q150 1094 203 1094 Q287 1094 324 999 L614 281 L885 999 Q922 1093 1004 1094 Q1054 1094 1088 1060 Q1122 1026 1122 987 Q1122 948 1112 918 L717 -31 Q647 -198 565 -266 Z" /><glyph glyph-name="thorn" unicode="þ" d="M397 539 Q396 387 490 290 Q584 193 714 193 Q844 193 933 288 Q1022 383 1022 539 L1022 543 Q1022 697 932 793 Q842 889 713 889 Q584 889 490 792 Q396 695 397 543 L397 539 ZM156 -215 L156 1382 Q156 1433 190 1469 Q224 1505 278 1505 Q332 1505 368 1469 Q404 1433 403 1382 L403 901 Q546 1104 760 1104 Q974 1104 1124 952 Q1274 800 1274 543 L1274 539 Q1274 283 1126 130 Q978 -23 762 -23 Q547 -23 403 168 L403 -215 Q404 -266 368 -302 Q332 -338 280 -338 Q228 -338 191 -302 Q156 -266 156 -215 Z" /><glyph glyph-name="ydieresis" unicode="ÿ" d="M303 1439 Q342 1475 398 1475 Q454 1475 494 1439 Q534 1403 532 1348 L532 1333 Q532 1278 494 1243 Q456 1208 398 1208 Q342 1208 303 1243 Q264 1278 264 1333 L264 1348 Q264 1403 303 1439 ZM711 1439 Q750 1475 806 1475 Q862 1475 901 1439 Q940 1403 940 1348 L940 1333 Q940 1278 901 1243 Q862 1208 806 1208 Q750 1208 711 1243 Q672 1278 672 1333 L672 1348 Q672 1403 711 1439 ZM565 -266 Q482 -334 370 -334 Q258 -334 180 -303 Q102 -276 102 -201 Q102 -156 132 -127 Q162 -98 192 -98 Q222 -98 261 -109 Q299 -120 344 -120 Q389 -120 423 -95 Q457 -69 487 -6 L496 16 L94 913 Q80 946 80 985 Q80 1024 115 1059 Q150 1094 203 1094 Q287 1094 324 999 L614 281 L885 999 Q922 1093 1004 1094 Q1054 1094 1088 1060 Q1122 1026 1122 987 Q1122 948 1112 918 L717 -31 Q647 -198 565 -266 Z" /><glyph glyph-name="Amacron" unicode="&#x100;" d="M1061 1595 L516 1595 Q478 1595 452 1622 Q426 1649 426 1686 Q426 1724 453 1750 Q480 1776 516 1776 L1061 1776 Q1098 1776 1124 1749 Q1150 1722 1151 1686 Q1150 1650 1124 1622 Q1098 1595 1061 1595 ZM537 569 L1040 569 L788 1149 L537 569 ZM203 -10 Q154 -10 120 24 Q86 58 86 94 Q86 131 102 164 L635 1352 Q682 1454 786 1454 L799 1454 Q901 1454 948 1352 L1481 164 Q1495 136 1495 98 Q1495 60 1461 25 Q1427 -10 1376 -10 Q1290 -10 1253 78 L1137 346 L440 346 L319 70 Q286 -10 203 -10 Z" /><glyph glyph-name="amacron" unicode="&#x101;" d="M874 1241 L330 1241 Q293 1241 266 1268 Q240 1296 240 1332 Q240 1368 266 1395 Q293 1422 330 1421 L874 1421 Q911 1420 938 1394 Q965 1368 965 1331 Q965 1294 938 1268 Q911 1242 874 1241 ZM326 322 Q326 246 386 202 Q446 158 554 158 Q662 158 744 222 Q826 286 825 389 L825 463 Q714 506 588 506 Q462 506 393 458 Q325 410 326 326 L326 322 ZM467 -23 Q308 -24 196 66 Q84 156 84 311 L84 315 Q84 485 205 574 Q326 664 503 664 Q680 664 821 618 L821 645 Q821 760 753 820 Q684 880 553 880 Q422 880 313 838 Q245 817 207 854 Q170 891 170 934 Q170 1006 238 1032 Q406 1095 586 1096 Q828 1096 944 975 Q1061 860 1061 641 L1061 109 Q1061 58 1026 24 Q991 -10 939 -10 Q887 -10 853 20 Q819 50 819 94 L819 135 Q688 -23 467 -23 Z" /><glyph glyph-name="Abreve" unicode="&#x102;" d="M1102 1733 Q1009 1569 788 1569 Q567 1569 475 1733 Q459 1766 459 1800 Q459 1834 483 1859 Q508 1884 552 1884 Q596 1884 623 1837 Q676 1743 790 1743 Q904 1743 954 1837 Q981 1884 1025 1884 Q1069 1884 1094 1858 Q1141 1810 1102 1733 ZM537 569 L1040 569 L788 1149 L537 569 ZM203 -10 Q154 -10 120 24 Q86 58 86 94 Q86 131 102 164 L635 1352 Q682 1454 786 1454 L799 1454 Q901 1454 948 1352 L1481 164 Q1495 136 1495 98 Q1495 60 1461 25 Q1427 -10 1376 -10 Q1290 -10 1253 78 L1137 346 L440 346 L319 70 Q286 -10 203 -10 Z" /><glyph glyph-name="abreve" unicode="&#x103;" d="M915 1378 Q823 1214 602 1214 Q381 1214 289 1378 Q250 1457 297 1504 Q322 1530 366 1530 Q410 1530 436 1483 Q489 1389 604 1389 Q719 1389 768 1483 Q795 1530 839 1530 Q884 1530 908 1504 Q932 1478 932 1444 Q932 1410 915 1378 ZM326 322 Q326 246 386 202 Q446 158 554 158 Q662 158 744 222 Q826 286 825 389 L825 463 Q714 506 588 506 Q462 506 393 458 Q325 410 326 326 L326 322 ZM467 -23 Q308 -24 196 66 Q84 156 84 311 L84 315 Q84 485 205 574 Q326 664 503 664 Q680 664 821 618 L821 645 Q821 760 753 820 Q684 880 553 880 Q422 880 313 838 Q245 817 207 854 Q170 891 170 934 Q170 1006 238 1032 Q406 1095 586 1096 Q828 1096 944 975 Q1061 860 1061 641 L1061 109 Q1061 58 1026 24 Q991 -10 939 -10 Q887 -10 853 20 Q819 50 819 94 L819 135 Q688 -23 467 -23 Z" /><glyph glyph-name="Aogonek" unicode="&#x104;" d="M553 569 L1057 569 L805 1149 L553 569 ZM102 106 Q102 122 119 164 L651 1352 Q698 1454 803 1454 L817 1454 Q919 1454 967 1352 L1501 160 Q1516 127 1516 92 Q1516 57 1468 8 Q1390 -68 1390 -129 Q1390 -190 1481 -213 Q1549 -229 1548 -276 Q1548 -339 1466 -340 Q1356 -340 1280 -297 Q1204 -254 1204 -168 Q1204 -82 1298 16 L1153 346 L457 346 L338 70 Q303 -10 219 -10 Q170 -10 136 24 Q102 58 102 106 Z" /><glyph glyph-name="aogonek" unicode="&#x105;" d="M326 322 Q326 246 386 202 Q446 158 554 158 Q662 158 744 222 Q826 286 825 389 L825 463 Q714 506 588 506 Q462 506 393 458 Q325 410 326 326 L326 322 ZM818 -298 Q741 -256 741 -168 Q741 -80 850 23 Q819 52 819 133 L819 135 Q688 -23 467 -23 Q308 -24 196 66 Q84 156 84 311 L84 315 Q84 485 205 574 Q326 664 503 664 Q680 664 821 618 L821 645 Q821 760 753 820 Q684 880 553 880 Q422 880 313 838 Q245 817 207 854 Q170 891 170 934 Q170 1006 238 1032 Q406 1095 586 1096 Q828 1096 944 975 Q1061 860 1061 641 L1061 106 Q1061 55 1012 8 Q930 -72 930 -131 Q930 -190 1008 -210 Q1086 -230 1085 -276 Q1085 -339 1004 -340 Q895 -340 818 -298 Z" /><glyph glyph-name="Cacute" unicode="&#x106;" d="M1370 168 Q1151 -25 845 -25 Q539 -25 330 188 Q121 401 121 713 L121 717 Q121 1028 330 1243 Q539 1458 860 1458 Q1141 1458 1352 1296 Q1401 1259 1401 1202 Q1401 1145 1365 1109 Q1329 1073 1281 1073 Q1233 1073 1200 1098 Q1040 1227 848 1227 Q656 1226 520 1080 Q385 934 385 721 L385 717 Q385 504 520 356 Q655 208 855 209 Q1055 209 1217 346 Q1250 375 1294 375 Q1338 375 1375 340 Q1411 305 1411 255 Q1411 205 1370 168 ZM975 1618 Q916 1563 842 1563 Q768 1563 768 1606 Q768 1626 784 1651 L901 1831 Q938 1890 994 1890 Q1050 1890 1099 1865 Q1147 1839 1147 1809 Q1147 1779 1112 1749 L975 1618 Z" /><glyph glyph-name="cacute" unicode="&#x107;" d="M1049 129 Q888 -25 652 -25 Q416 -25 256 138 Q96 301 96 535 L96 539 Q96 772 257 938 Q418 1104 650 1104 Q882 1104 1038 969 Q1077 934 1077 885 Q1077 836 1043 803 Q1010 770 966 770 Q922 770 889 795 Q778 887 651 887 Q524 886 434 786 Q344 686 344 543 L344 539 Q344 394 435 294 Q526 194 662 193 Q798 193 909 289 Q940 316 981 316 Q1022 316 1053 284 Q1084 252 1084 205 Q1084 158 1049 129 ZM784 1264 Q726 1208 652 1208 Q578 1208 578 1251 Q578 1271 594 1296 L711 1477 Q748 1536 804 1536 Q860 1536 908 1510 Q956 1484 956 1454 Q956 1424 922 1395 L784 1264 Z" /><glyph glyph-name="Cdotaccent" unicode="&#x10a;" d="M975 1702 L975 1688 Q975 1634 935 1598 Q895 1562 837 1562 Q779 1562 738 1597 Q698 1632 698 1688 L698 1702 Q698 1757 738 1793 Q778 1829 836 1829 Q894 1829 934 1793 Q975 1757 975 1702 ZM1370 168 Q1151 -25 845 -25 Q539 -25 330 188 Q121 401 121 713 L121 717 Q121 1028 330 1243 Q539 1458 860 1458 Q1141 1458 1352 1296 Q1401 1259 1401 1202 Q1401 1145 1365 1109 Q1329 1073 1281 1073 Q1233 1073 1200 1098 Q1040 1227 848 1227 Q656 1226 520 1080 Q385 934 385 721 L385 717 Q385 504 520 356 Q655 208 855 209 Q1055 209 1217 346 Q1250 375 1294 375 Q1338 375 1375 340 Q1411 305 1411 255 Q1411 205 1370 168 Z" /><glyph glyph-name="cdotaccent" unicode="&#x10b;" d="M784 1348 L784 1333 Q784 1278 744 1243 Q704 1208 646 1208 Q588 1208 548 1243 Q508 1278 508 1333 L508 1348 Q508 1403 548 1439 Q588 1475 645 1475 Q702 1475 743 1439 Q784 1403 784 1348 ZM1049 129 Q888 -25 652 -25 Q416 -25 256 138 Q96 301 96 535 L96 539 Q96 772 257 938 Q418 1104 650 1104 Q882 1104 1038 969 Q1077 934 1077 885 Q1077 836 1043 803 Q1010 770 966 770 Q922 770 889 795 Q778 887 651 887 Q524 886 434 786 Q344 686 344 543 L344 539 Q344 394 435 294 Q526 194 662 193 Q798 193 909 289 Q940 316 981 316 Q1022 316 1053 284 Q1084 252 1084 205 Q1084 158 1049 129 Z" /><glyph glyph-name="Ccaron" unicode="&#x10c;" d="M1370 168 Q1151 -25 845 -25 Q539 -25 330 188 Q121 401 121 713 L121 717 Q121 1028 330 1243 Q539 1458 860 1458 Q1141 1458 1352 1296 Q1401 1259 1401 1202 Q1401 1145 1365 1109 Q1329 1073 1281 1073 Q1233 1073 1200 1098 Q1040 1227 848 1227 Q656 1226 520 1080 Q385 934 385 721 L385 717 Q385 504 520 356 Q655 208 855 209 Q1055 209 1217 346 Q1250 375 1294 375 Q1338 375 1375 340 Q1411 305 1411 255 Q1411 205 1370 168 ZM1096 1884 Q1151 1884 1151 1843 Q1151 1827 1126 1794 L991 1624 Q944 1565 872 1565 L799 1565 Q729 1565 680 1624 L545 1794 Q520 1827 520 1843 Q520 1884 593 1884 Q666 1884 731 1829 L838 1737 L944 1829 Q1012 1884 1096 1884 Z" /><glyph glyph-name="ccaron" unicode="&#x10d;" d="M1049 129 Q888 -25 652 -25 Q416 -25 256 138 Q96 301 96 535 L96 539 Q96 772 257 938 Q418 1104 650 1104 Q882 1104 1038 969 Q1077 934 1077 885 Q1077 836 1043 803 Q1010 770 966 770 Q922 770 889 795 Q778 887 651 887 Q524 886 434 786 Q344 686 344 543 L344 539 Q344 394 435 294 Q526 194 662 193 Q798 193 909 289 Q940 316 981 316 Q1022 316 1053 284 Q1084 252 1084 205 Q1084 158 1049 129 ZM905 1530 Q960 1530 961 1489 Q961 1473 936 1440 L801 1270 Q754 1211 682 1210 L608 1210 Q538 1210 489 1270 L354 1440 Q329 1473 330 1489 Q330 1530 389 1530 Q475 1530 541 1475 L647 1382 L754 1475 Q822 1530 905 1530 Z" /><glyph glyph-name="Dcaron" unicode="&#x10e;" d="M436 229 L719 229 Q942 228 1079 364 Q1216 500 1217 713 L1217 717 Q1218 930 1080 1067 Q942 1204 719 1204 L436 1204 L436 229 ZM184 127 L184 1307 Q184 1360 221 1397 Q258 1434 311 1434 L719 1434 Q1053 1434 1267 1230 Q1481 1026 1481 721 L1481 717 Q1481 410 1267 205 Q1053 0 719 0 L311 0 Q258 0 221 37 Q184 74 184 127 ZM1087 1823 Q1087 1807 1063 1774 L928 1604 Q881 1545 809 1544 L735 1544 Q665 1544 616 1604 L481 1774 Q456 1807 457 1823 Q457 1864 516 1864 Q602 1864 668 1808 L774 1716 L881 1808 Q949 1863 1032 1864 Q1087 1864 1087 1823 Z" /><glyph glyph-name="dcaron" unicode="&#x10f;" d="M661 889 Q530 889 440 795 Q350 701 350 543 L350 539 Q350 385 441 289 Q532 193 662 193 Q792 193 883 290 Q975 387 975 539 L975 543 Q975 695 883 792 Q791 889 661 889 ZM1219 1382 L1219 113 Q1219 62 1183 26 Q1147 -10 1095 -10 Q1043 -10 1007 26 Q971 62 971 113 L971 180 Q828 -23 614 -23 Q400 -23 250 130 Q100 283 100 539 L100 543 Q100 800 248 952 Q396 1104 611 1104 Q825 1104 971 913 L971 1382 Q971 1433 1007 1469 Q1043 1505 1095 1505 Q1147 1505 1183 1469 Q1219 1433 1219 1382 ZM1466 1505 Q1529 1505 1530 1446 Q1530 1423 1522 1399 L1446 1151 Q1430 1100 1386 1100 Q1361 1100 1346 1116 Q1331 1132 1333 1161 L1339 1415 Q1341 1454 1366 1480 Q1391 1506 1430 1505 L1466 1505 Z" /><glyph glyph-name="Dcroat" unicode="&#x110;" d="M496 1204 L496 834 L756 834 Q803 834 835 801 Q866 768 866 721 Q866 674 834 641 Q802 608 756 608 L496 608 L496 229 L780 229 Q1002 228 1140 364 Q1278 500 1278 713 L1278 717 Q1278 930 1141 1067 Q1004 1204 780 1204 L496 1204 ZM193 834 L246 834 L246 1307 Q246 1360 283 1397 Q320 1434 373 1434 L780 1434 Q1114 1434 1328 1230 Q1542 1026 1542 721 L1542 717 Q1542 410 1328 205 Q1114 0 780 0 L373 0 Q320 0 283 37 Q246 74 246 127 L246 608 L193 608 Q148 608 115 641 Q82 674 82 721 Q82 768 114 801 Q146 834 193 834 Z" /><glyph glyph-name="dcroat" unicode="&#x111;" d="M661 889 Q530 889 440 795 Q350 701 350 543 L350 539 Q350 385 441 289 Q532 193 662 193 Q792 193 883 290 Q975 387 975 539 L975 543 Q975 695 883 792 Q791 889 661 889 ZM1219 1382 L1219 1380 L1296 1380 Q1327 1380 1349 1358 Q1370 1336 1370 1306 Q1370 1276 1348 1254 Q1326 1232 1296 1233 L1219 1233 L1219 113 Q1219 62 1183 26 Q1147 -10 1095 -10 Q1043 -10 1007 26 Q971 62 971 113 L971 180 Q828 -23 614 -23 Q400 -23 250 130 Q100 283 100 539 L100 543 Q100 800 248 952 Q396 1104 611 1104 Q825 1104 971 913 L971 1233 L698 1233 Q668 1232 646 1254 Q624 1276 624 1306 Q624 1336 646 1358 Q668 1380 698 1380 L971 1380 L971 1382 Q971 1433 1007 1469 Q1043 1505 1095 1505 Q1147 1505 1183 1469 Q1219 1433 1219 1382 Z" /><glyph glyph-name="Emacron" unicode="&#x112;" d="M991 1575 L446 1575 Q408 1575 382 1602 Q356 1630 356 1666 Q356 1702 383 1729 Q410 1756 446 1755 L991 1755 Q1028 1754 1055 1728 Q1082 1702 1082 1665 Q1082 1628 1054 1602 Q1028 1576 991 1575 ZM311 0 Q258 0 221 37 Q184 74 184 127 L184 1307 Q184 1360 221 1397 Q258 1434 311 1434 L1145 1434 Q1192 1434 1225 1401 Q1258 1368 1258 1321 Q1258 1274 1224 1241 Q1192 1208 1145 1208 L436 1208 L436 836 L1053 836 Q1100 836 1133 802 Q1166 768 1166 722 Q1166 676 1132 643 Q1100 610 1053 610 L436 610 L436 225 L1155 225 Q1200 224 1234 192 Q1268 160 1268 113 Q1268 66 1235 33 Q1202 0 1155 0 L311 0 Z" /><glyph glyph-name="emacron" unicode="&#x113;" d="M893 1241 L348 1241 Q310 1241 284 1268 Q258 1296 258 1332 Q258 1368 285 1395 Q312 1422 348 1421 L893 1421 Q930 1420 956 1394 Q982 1368 983 1331 Q982 1294 956 1268 Q930 1242 893 1241 ZM96 537 L96 541 Q96 776 246 940 Q396 1104 625 1104 Q790 1104 910 1021 Q1137 864 1139 571 Q1139 520 1105 486 Q1071 452 1022 453 L344 453 Q364 324 448 251 Q532 178 664 178 Q796 178 911 272 Q940 295 978 295 Q1016 295 1044 266 Q1072 236 1073 194 Q1073 152 1040 119 Q880 -24 646 -24 Q412 -24 254 132 Q96 289 96 537 ZM813 821 Q742 901 626 901 Q510 901 434 822 Q358 743 342 616 L897 616 Q885 741 813 821 Z" /><glyph glyph-name="Ebreve" unicode="&#x114;" d="M1032 1712 Q940 1548 719 1548 Q498 1548 406 1712 Q367 1791 414 1838 Q438 1864 482 1864 Q526 1864 553 1817 Q606 1722 721 1722 Q836 1722 885 1817 Q912 1864 956 1864 Q1000 1864 1024 1838 Q1048 1812 1049 1778 Q1049 1744 1032 1712 ZM311 0 Q258 0 221 37 Q184 74 184 127 L184 1307 Q184 1360 221 1397 Q258 1434 311 1434 L1145 1434 Q1192 1434 1225 1401 Q1258 1368 1258 1321 Q1258 1274 1224 1241 Q1192 1208 1145 1208 L436 1208 L436 836 L1053 836 Q1100 836 1133 802 Q1166 768 1166 722 Q1166 676 1132 643 Q1100 610 1053 610 L436 610 L436 225 L1155 225 Q1200 224 1234 192 Q1268 160 1268 113 Q1268 66 1235 33 Q1202 0 1155 0 L311 0 Z" /><glyph glyph-name="ebreve" unicode="&#x115;" d="M934 1378 Q842 1214 621 1214 Q400 1214 307 1378 Q291 1411 291 1445 Q292 1478 316 1504 Q340 1530 384 1530 Q428 1530 455 1483 Q508 1389 623 1389 Q738 1389 786 1483 Q813 1530 857 1530 Q901 1530 926 1504 Q972 1456 934 1378 ZM96 537 L96 541 Q96 776 246 940 Q396 1104 625 1104 Q790 1104 910 1021 Q1137 864 1139 571 Q1139 520 1105 486 Q1071 452 1022 453 L344 453 Q364 324 448 251 Q532 178 664 178 Q796 178 911 272 Q940 295 978 295 Q1016 295 1044 266 Q1072 236 1073 194 Q1073 152 1040 119 Q880 -24 646 -24 Q412 -24 254 132 Q96 289 96 537 ZM813 821 Q742 901 626 901 Q510 901 434 822 Q358 743 342 616 L897 616 Q885 741 813 821 Z" /><glyph glyph-name="Edotaccent" unicode="&#x116;" d="M858 1681 L858 1667 Q858 1612 818 1577 Q778 1542 720 1542 Q662 1542 622 1577 Q582 1612 582 1667 L582 1681 Q582 1736 622 1772 Q662 1808 719 1808 Q776 1808 817 1772 Q858 1736 858 1681 ZM311 0 Q258 0 221 37 Q184 74 184 127 L184 1307 Q184 1360 221 1397 Q258 1434 311 1434 L1145 1434 Q1192 1434 1225 1401 Q1258 1368 1258 1321 Q1258 1274 1224 1241 Q1192 1208 1145 1208 L436 1208 L436 836 L1053 836 Q1100 836 1133 802 Q1166 768 1166 722 Q1166 676 1132 643 Q1100 610 1053 610 L436 610 L436 225 L1155 225 Q1200 224 1234 192 Q1268 160 1268 113 Q1268 66 1235 33 Q1202 0 1155 0 L311 0 Z" /><glyph glyph-name="edotaccent" unicode="&#x117;" d="M760 1348 L760 1333 Q760 1278 720 1243 Q680 1208 622 1208 Q564 1208 523 1243 Q483 1278 483 1333 L483 1348 Q483 1403 523 1439 Q562 1475 620 1475 Q678 1475 719 1439 Q760 1403 760 1348 ZM96 537 L96 541 Q96 776 246 940 Q396 1104 625 1104 Q790 1104 910 1021 Q1137 864 1139 571 Q1139 520 1105 486 Q1071 452 1022 453 L344 453 Q364 324 448 251 Q532 178 664 178 Q796 178 911 272 Q940 295 978 295 Q1016 295 1044 266 Q1072 236 1073 194 Q1073 152 1040 119 Q880 -24 646 -24 Q412 -24 254 132 Q96 289 96 537 ZM813 821 Q742 901 626 901 Q510 901 434 822 Q358 743 342 616 L897 616 Q885 741 813 821 Z" /><glyph glyph-name="Eogonek" unicode="&#x118;" d="M311 0 Q258 0 221 37 Q184 74 184 127 L184 1307 Q184 1360 221 1397 Q258 1434 311 1434 L1145 1434 Q1192 1434 1225 1401 Q1258 1368 1258 1321 Q1258 1274 1224 1241 Q1192 1208 1145 1208 L436 1208 L436 836 L1053 836 Q1100 836 1133 802 Q1166 768 1166 722 Q1166 676 1132 643 Q1100 610 1053 610 L436 610 L436 225 L1153 225 Q1202 224 1235 194 Q1268 164 1268 124 Q1268 84 1254 62 Q1240 40 1204 6 Q1118 -68 1118 -129 Q1118 -190 1206 -213 Q1276 -227 1276 -276 Q1276 -339 1194 -340 Q1082 -340 1006 -298 Q930 -256 930 -173 Q930 -90 1014 0 L311 0 Z" /><glyph glyph-name="eogonek" unicode="&#x119;" d="M813 821 Q742 901 626 901 Q510 901 434 822 Q358 743 342 616 L897 616 Q885 741 813 821 ZM1139 571 Q1139 520 1105 486 Q1071 452 1022 453 L344 453 Q364 324 448 251 Q532 178 664 178 Q796 178 911 272 Q940 295 978 295 Q1016 295 1044 266 Q1072 236 1073 196 Q1072 156 1048 130 Q1024 104 997 79 Q970 55 952 37 Q862 -47 862 -119 Q862 -162 884 -181 Q906 -200 952 -213 Q1020 -229 1020 -276 Q1020 -339 940 -340 Q824 -340 750 -295 Q676 -250 676 -173 Q676 -96 745 -16 Q684 -24 651 -25 Q412 -25 254 132 Q96 289 96 537 L96 541 Q96 776 246 940 Q396 1104 625 1104 Q790 1104 910 1021 Q1030 938 1084 820 Q1138 702 1139 571 Z" /><glyph glyph-name="Ecaron" unicode="&#x11a;" d="M311 0 Q258 0 221 37 Q184 74 184 127 L184 1307 Q184 1360 221 1397 Q258 1434 311 1434 L1145 1434 Q1192 1434 1225 1401 Q1258 1368 1258 1321 Q1258 1274 1224 1241 Q1192 1208 1145 1208 L436 1208 L436 836 L1053 836 Q1100 836 1133 802 Q1166 768 1166 722 Q1166 676 1132 643 Q1100 610 1053 610 L436 610 L436 225 L1155 225 Q1200 224 1234 192 Q1268 160 1268 113 Q1268 66 1235 33 Q1202 0 1155 0 L311 0 ZM1034 1823 Q1034 1807 1010 1774 L874 1604 Q827 1545 756 1544 L682 1544 Q612 1544 563 1604 L428 1774 Q403 1807 403 1823 Q403 1864 476 1864 Q549 1864 614 1808 L721 1716 L827 1808 Q895 1863 979 1864 Q1034 1864 1034 1823 Z" /><glyph glyph-name="ecaron" unicode="&#x11b;" d="M96 537 L96 541 Q96 776 246 940 Q396 1104 625 1104 Q790 1104 910 1021 Q1137 864 1139 571 Q1139 520 1105 486 Q1071 452 1022 453 L344 453 Q364 324 448 251 Q532 178 664 178 Q796 178 911 272 Q940 295 978 295 Q1016 295 1044 266 Q1072 236 1073 194 Q1073 152 1040 119 Q880 -24 646 -24 Q412 -24 254 132 Q96 289 96 537 ZM813 821 Q742 901 626 901 Q510 901 434 822 Q358 743 342 616 L897 616 Q885 741 813 821 ZM881 1530 Q936 1530 936 1489 Q936 1473 911 1440 L776 1270 Q729 1211 657 1210 L584 1210 Q514 1210 465 1270 L330 1440 Q305 1473 305 1489 Q305 1530 378 1530 Q451 1530 516 1475 L623 1382 L729 1475 Q797 1530 881 1530 Z" /><glyph glyph-name="Gbreve" unicode="&#x11e;" d="M1157 1733 Q1065 1569 844 1569 Q623 1569 530 1733 Q514 1766 514 1800 Q514 1834 539 1859 Q564 1884 608 1884 Q652 1884 678 1837 Q731 1743 846 1743 Q961 1743 1010 1837 Q1036 1884 1080 1884 Q1124 1884 1149 1858 Q1174 1832 1174 1799 Q1174 1765 1157 1733 ZM864 -25 Q532 -25 326 185 Q120 395 121 713 L121 717 Q121 1024 331 1241 Q541 1458 844 1458 Q1147 1458 1350 1313 Q1401 1274 1401 1216 Q1401 1158 1364 1122 Q1327 1085 1283 1085 Q1239 1085 1198 1114 Q1044 1227 848 1227 Q652 1226 519 1078 Q385 930 385 721 L385 717 Q385 494 520 350 Q655 206 864 205 Q1073 205 1219 313 L1219 582 L936 582 Q889 582 856 614 Q823 646 823 690 Q823 735 856 768 Q889 801 936 801 L1335 801 Q1388 801 1425 764 Q1462 727 1462 674 L1462 291 Q1462 187 1374 131 Q1140 -25 864 -25 Z" /><glyph glyph-name="gbreve" unicode="&#x11f;" d="M981 1378 Q889 1214 668 1214 Q447 1214 354 1378 Q338 1411 338 1445 Q338 1478 362 1504 Q386 1530 431 1530 Q475 1530 502 1483 Q555 1389 670 1389 Q785 1389 834 1483 Q860 1530 904 1530 Q948 1530 973 1504 Q1019 1456 981 1378 ZM439 380 Q528 297 658 297 Q788 297 882 381 Q975 465 975 594 L975 598 Q975 727 882 811 Q790 895 658 895 Q526 895 438 812 Q350 729 350 598 L350 594 Q350 463 439 380 ZM1219 221 Q1219 -332 637 -332 Q418 -332 219 -236 Q149 -209 150 -137 Q150 -96 180 -66 Q210 -36 245 -35 Q279 -35 299 -45 Q453 -131 625 -131 Q797 -131 885 -46 Q973 39 973 201 L973 285 Q819 86 605 86 Q391 86 246 224 Q101 362 100 592 L100 596 Q100 824 246 964 Q392 1104 605 1104 Q817 1104 971 920 L971 971 Q971 1022 1007 1058 Q1043 1094 1095 1094 Q1147 1094 1183 1057 Q1219 1020 1219 969 L1219 221 Z" /><glyph glyph-name="Gdotaccent" unicode="&#x120;" d="M983 1702 L983 1688 Q983 1634 943 1598 Q903 1562 845 1562 Q787 1562 746 1597 Q706 1632 707 1688 L707 1702 Q707 1757 746 1793 Q786 1829 844 1829 Q902 1829 942 1793 Q983 1757 983 1702 ZM864 -25 Q532 -25 326 185 Q120 395 121 713 L121 717 Q121 1024 331 1241 Q541 1458 844 1458 Q1147 1458 1350 1313 Q1401 1274 1401 1216 Q1401 1158 1364 1122 Q1327 1085 1283 1085 Q1239 1085 1198 1114 Q1044 1227 848 1227 Q652 1226 519 1078 Q385 930 385 721 L385 717 Q385 494 520 350 Q655 206 864 205 Q1073 205 1219 313 L1219 582 L936 582 Q889 582 856 614 Q823 646 823 690 Q823 735 856 768 Q889 801 936 801 L1335 801 Q1388 801 1425 764 Q1462 727 1462 674 L1462 291 Q1462 187 1374 131 Q1140 -25 864 -25 Z" /><glyph glyph-name="gdotaccent" unicode="&#x121;" d="M807 1348 L807 1333 Q807 1278 767 1243 Q727 1208 669 1208 Q611 1208 570 1243 Q530 1278 530 1333 L530 1348 Q530 1403 570 1439 Q610 1475 668 1475 Q726 1475 766 1439 Q807 1403 807 1348 ZM439 380 Q528 297 658 297 Q788 297 882 381 Q975 465 975 594 L975 598 Q975 727 882 811 Q790 895 658 895 Q526 895 438 812 Q350 729 350 598 L350 594 Q350 463 439 380 ZM1219 221 Q1219 -332 637 -332 Q418 -332 219 -236 Q149 -209 150 -137 Q150 -96 180 -66 Q210 -36 245 -35 Q279 -35 299 -45 Q453 -131 625 -131 Q797 -131 885 -46 Q973 39 973 201 L973 285 Q819 86 605 86 Q391 86 246 224 Q101 362 100 592 L100 596 Q100 824 246 964 Q392 1104 605 1104 Q817 1104 971 920 L971 971 Q971 1022 1007 1058 Q1043 1094 1095 1094 Q1147 1094 1183 1057 Q1219 1020 1219 969 L1219 221 Z" /><glyph glyph-name="Gcommaaccent" unicode="&#x122;" d="M864 -25 Q532 -25 326 185 Q120 395 121 713 L121 717 Q121 1024 331 1241 Q541 1458 844 1458 Q1147 1458 1350 1313 Q1401 1274 1401 1216 Q1401 1158 1364 1122 Q1327 1085 1283 1085 Q1239 1085 1198 1114 Q1044 1227 848 1227 Q652 1226 519 1078 Q385 930 385 721 L385 717 Q385 494 520 350 Q655 206 864 205 Q1073 205 1219 313 L1219 582 L936 582 Q889 582 856 614 Q823 646 823 690 Q823 735 856 768 Q889 801 936 801 L1335 801 Q1388 801 1425 764 Q1462 727 1462 674 L1462 291 Q1462 187 1374 131 Q1140 -25 864 -25 ZM715 -233 Q715 -186 750 -156 Q785 -126 842 -125 Q899 -125 935 -164 Q971 -203 971 -268 L971 -274 Q971 -419 883 -496 Q809 -564 707 -563 Q654 -563 653 -520 Q653 -487 696 -477 Q829 -448 825 -346 Q714 -328 715 -238 L715 -233 Z" /><glyph glyph-name="gcommaaccent" unicode="&#x123;" d="M439 380 Q528 297 658 297 Q788 297 882 381 Q975 465 975 594 L975 598 Q975 727 882 811 Q790 895 658 895 Q526 895 438 812 Q350 729 350 598 L350 594 Q350 463 439 380 ZM1219 221 Q1219 -332 637 -332 Q418 -332 219 -236 Q149 -209 150 -137 Q150 -96 180 -66 Q210 -36 245 -35 Q279 -35 299 -45 Q453 -131 625 -131 Q797 -131 885 -46 Q973 39 973 201 L973 285 Q819 86 605 86 Q391 86 246 224 Q101 362 100 592 L100 596 Q100 824 246 964 Q392 1104 605 1104 Q817 1104 971 920 L971 971 Q971 1022 1007 1058 Q1043 1094 1095 1094 Q1147 1094 1183 1057 Q1219 1020 1219 969 L1219 221 ZM793 1319 L793 1315 Q793 1268 758 1237 Q723 1206 666 1206 Q609 1206 572 1245 Q536 1284 537 1350 L537 1356 Q537 1501 625 1577 Q699 1645 801 1645 Q854 1645 854 1602 Q854 1569 811 1559 Q678 1529 682 1427 Q793 1409 793 1319 Z" /><glyph glyph-name="Hbar" unicode="&#x126;" d="M455 838 L1139 838 L1139 1047 L455 1047 L455 838 ZM203 115 L203 1047 L135 1047 Q98 1048 72 1074 Q46 1100 45 1136 Q45 1172 72 1198 Q99 1224 135 1225 L203 1225 L203 1319 Q203 1372 240 1408 Q277 1444 329 1444 Q381 1444 418 1408 Q455 1372 455 1319 L455 1225 L1139 1225 L1139 1319 Q1139 1372 1176 1408 Q1213 1444 1265 1444 Q1317 1444 1354 1408 Q1391 1372 1391 1319 L1391 1225 L1456 1225 Q1493 1225 1520 1198 Q1546 1172 1546 1136 Q1546 1100 1520 1073 Q1494 1046 1456 1047 L1391 1047 L1391 115 Q1391 62 1354 26 Q1317 -10 1265 -10 Q1213 -10 1176 26 Q1139 62 1139 115 L1139 604 L455 604 L455 115 Q455 62 418 26 Q381 -10 329 -10 Q277 -10 240 26 Q203 62 203 115 Z" /><glyph glyph-name="hbar" unicode="&#x127;" d="M156 113 L156 1233 L78 1233 Q48 1232 26 1254 Q4 1276 4 1306 Q4 1336 26 1358 Q48 1380 78 1380 L156 1380 L156 1382 Q156 1433 191 1469 Q226 1505 278 1505 Q330 1505 367 1469 Q404 1433 403 1382 L403 1380 L676 1380 Q706 1380 728 1358 Q750 1336 750 1306 Q750 1276 728 1254 Q706 1232 676 1233 L403 1233 L403 915 Q534 1104 728 1104 Q922 1104 1024 992 Q1126 880 1126 690 L1126 113 Q1126 62 1092 26 Q1058 -10 1004 -10 Q951 -10 914 26 Q878 62 879 113 L879 614 Q878 741 818 810 Q758 879 648 879 Q538 879 470 807 Q402 735 403 610 L403 113 Q404 62 368 26 Q332 -10 280 -10 Q228 -10 191 26 Q156 62 156 113 Z" /><glyph glyph-name="Imacron" unicode="&#x12a;" d="M598 1575 L53 1575 Q16 1575 -10 1602 Q-36 1630 -37 1666 Q-37 1702 -10 1729 Q17 1756 53 1755 L598 1755 Q635 1754 662 1728 Q688 1702 688 1665 Q688 1628 662 1602 Q636 1576 598 1575 ZM199 115 L199 1319 Q199 1372 236 1408 Q273 1444 325 1444 Q377 1444 414 1408 Q451 1372 451 1319 L451 115 Q451 62 414 26 Q377 -10 325 -10 Q273 -10 236 26 Q199 62 199 115 Z" /><glyph glyph-name="imacron" unicode="&#x12b;" d="M565 1241 L20 1241 Q-18 1241 -44 1268 Q-70 1296 -70 1332 Q-70 1368 -43 1395 Q-16 1422 20 1421 L565 1421 Q602 1420 629 1394 Q656 1368 656 1331 Q656 1294 628 1268 Q602 1242 565 1241 ZM170 113 L170 969 Q170 1022 206 1058 Q242 1094 293 1094 Q344 1094 381 1057 Q418 1020 418 969 L418 113 Q418 62 382 26 Q346 -10 294 -10 Q242 -10 206 26 Q170 62 170 113 Z" /><glyph glyph-name="Ibreve" unicode="&#x12c;" d="M639 1712 Q547 1548 326 1548 Q105 1548 12 1712 Q-4 1745 -4 1779 Q-4 1812 20 1838 Q44 1864 89 1864 Q133 1864 160 1817 Q213 1722 328 1722 Q443 1722 492 1817 Q518 1864 562 1864 Q606 1864 631 1838 Q677 1790 639 1712 ZM199 115 L199 1319 Q199 1372 236 1408 Q273 1444 325 1444 Q377 1444 414 1408 Q451 1372 451 1319 L451 115 Q451 62 414 26 Q377 -10 325 -10 Q273 -10 236 26 Q199 62 199 115 Z" /><glyph glyph-name="ibreve" unicode="&#x12d;" d="M606 1378 Q514 1214 293 1214 Q72 1214 -20 1378 Q-59 1457 -12 1504 Q12 1530 56 1530 Q100 1530 127 1483 Q180 1389 295 1389 Q410 1389 459 1483 Q486 1530 530 1530 Q574 1530 598 1504 Q622 1478 623 1444 Q623 1410 606 1378 ZM170 113 L170 969 Q170 1022 206 1058 Q242 1094 293 1094 Q344 1094 381 1057 Q418 1020 418 969 L418 113 Q418 62 382 26 Q346 -10 294 -10 Q242 -10 206 26 Q170 62 170 113 Z" /><glyph glyph-name="Iogonek" unicode="&#x12e;" d="M137 -168 Q137 -82 236 23 Q199 56 199 106 L199 1319 Q199 1372 236 1408 Q273 1444 325 1444 Q377 1444 414 1408 Q451 1372 451 1319 L451 113 Q451 58 403 10 Q323 -72 324 -129 Q324 -190 404 -208 Q484 -226 483 -276 Q483 -339 401 -340 Q290 -340 214 -297 Q138 -254 137 -168 Z" /><glyph glyph-name="iogonek" unicode="&#x12f;" d="M152 1360 L152 1372 Q152 1427 191 1460 Q230 1493 292 1493 Q354 1493 394 1460 Q434 1427 434 1372 L434 1360 Q434 1305 394 1271 Q354 1237 293 1237 Q232 1237 191 1271 Q152 1305 152 1360 ZM418 969 L418 106 Q418 55 369 8 Q287 -72 287 -131 Q287 -190 365 -210 Q443 -230 442 -276 Q442 -339 360 -340 Q250 -340 174 -298 Q98 -256 98 -166 Q98 -76 207 23 Q170 56 170 104 L170 969 Q170 1022 206 1058 Q242 1094 293 1094 Q344 1094 381 1057 Q418 1020 418 969 Z" /><glyph glyph-name="Idotaccent" unicode="&#x130;" d="M465 1681 L465 1667 Q465 1612 425 1577 Q385 1542 327 1542 Q269 1542 228 1577 Q188 1612 188 1667 L188 1681 Q188 1736 228 1772 Q268 1808 326 1808 Q384 1808 424 1772 Q465 1736 465 1681 ZM199 115 L199 1319 Q199 1372 236 1408 Q273 1444 325 1444 Q377 1444 414 1408 Q451 1372 451 1319 L451 115 Q451 62 414 26 Q377 -10 325 -10 Q273 -10 236 26 Q199 62 199 115 Z" /><glyph glyph-name="dotlessi" unicode="&#x131;" d="M170 113 L170 969 Q170 1022 206 1058 Q242 1094 293 1094 Q344 1094 381 1057 Q418 1020 418 969 L418 113 Q418 62 382 26 Q346 -10 294 -10 Q242 -10 206 26 Q170 62 170 113 Z" /><glyph glyph-name="Kcommaaccent" unicode="&#x136;" d="M184 115 L184 1319 Q184 1372 221 1408 Q258 1444 311 1444 Q364 1444 400 1408 Q436 1372 436 1319 L436 713 L1116 1397 Q1160 1444 1216 1444 Q1272 1444 1305 1409 Q1338 1374 1338 1324 Q1338 1274 1292 1233 L846 803 L1329 203 Q1364 158 1364 110 Q1364 62 1327 26 Q1290 -10 1233 -10 Q1176 -10 1130 49 L670 637 L436 412 L436 115 Q436 62 400 26 Q364 -10 311 -10 Q258 -10 221 26 Q184 62 184 115 ZM618 -221 L618 -217 Q618 -170 653 -139 Q688 -108 745 -108 Q802 -108 839 -147 Q875 -186 874 -252 L874 -258 Q874 -403 786 -479 Q712 -547 610 -547 Q557 -547 557 -504 Q557 -471 600 -461 Q733 -432 729 -330 Q618 -312 618 -221 Z" /><glyph glyph-name="kcommaaccent" unicode="&#x137;" d="M156 113 L156 1382 Q156 1433 191 1469 Q226 1505 278 1505 Q330 1505 367 1469 Q404 1433 403 1382 L403 584 L868 1040 Q922 1094 972 1094 Q1022 1094 1053 1061 Q1084 1028 1084 978 Q1084 928 1028 877 L741 612 L1069 184 Q1102 139 1102 96 Q1102 54 1068 22 Q1034 -10 976 -10 Q918 -10 877 45 L567 457 L403 301 L403 113 Q404 62 368 26 Q332 -10 280 -10 Q228 -10 191 26 Q156 62 156 113 ZM494 -227 Q494 -180 528 -150 Q562 -120 620 -119 Q678 -119 714 -158 Q750 -197 750 -262 L750 -268 Q750 -413 662 -489 Q588 -557 485 -557 Q432 -557 432 -514 Q432 -479 475 -471 Q608 -442 604 -340 Q493 -322 494 -231 L494 -227 Z" /><glyph glyph-name="Lacute" unicode="&#x139;" d="M184 127 L184 1319 Q184 1372 221 1408 Q258 1444 311 1444 Q364 1444 400 1408 Q436 1372 436 1319 L436 229 L1085 229 Q1132 230 1166 196 Q1200 162 1200 115 Q1200 68 1166 34 Q1132 0 1085 0 L311 0 Q258 0 221 37 Q184 74 184 127 ZM492 1597 Q432 1542 358 1542 Q284 1542 285 1585 Q285 1605 301 1630 L418 1810 Q455 1870 511 1870 Q567 1870 615 1844 Q706 1795 629 1729 L492 1597 Z" /><glyph glyph-name="lacute" unicode="&#x13a;" d="M170 113 L170 1382 Q170 1433 206 1469 Q242 1505 293 1505 Q344 1505 381 1469 Q418 1433 418 1382 L418 113 Q418 62 382 26 Q346 -10 294 -10 Q242 -10 206 26 Q170 62 170 113 ZM434 1632 Q376 1577 302 1577 Q228 1577 227 1620 Q227 1640 244 1665 L360 1845 Q398 1904 454 1904 Q510 1904 558 1879 Q606 1854 606 1824 Q606 1794 571 1763 L434 1632 Z" /><glyph glyph-name="Lcommaaccent" unicode="&#x13b;" d="M184 127 L184 1319 Q184 1372 221 1408 Q258 1444 311 1444 Q364 1444 400 1408 Q436 1372 436 1319 L436 229 L1085 229 Q1132 230 1166 196 Q1200 162 1200 115 Q1200 68 1166 34 Q1132 0 1085 0 L311 0 Q258 0 221 37 Q184 74 184 127 ZM555 -231 L555 -227 Q555 -180 590 -150 Q625 -120 682 -119 Q739 -119 775 -158 Q811 -197 811 -262 L811 -268 Q811 -413 723 -489 Q649 -557 547 -557 Q494 -557 494 -514 Q494 -479 537 -471 Q670 -442 666 -340 Q555 -322 555 -231 Z" /><glyph glyph-name="lcommaaccent" unicode="&#x13c;" d="M170 113 L170 1382 Q170 1433 206 1469 Q242 1505 293 1505 Q344 1505 381 1469 Q418 1433 418 1382 L418 113 Q418 62 382 26 Q346 -10 294 -10 Q242 -10 206 26 Q170 62 170 113 ZM166 -227 Q166 -180 201 -150 Q236 -120 293 -119 Q350 -119 386 -158 Q422 -197 422 -262 L422 -268 Q422 -413 334 -489 Q260 -557 158 -557 Q104 -557 104 -518 Q104 -479 147 -471 Q280 -442 276 -340 Q165 -322 166 -231 L166 -227 Z" /><glyph glyph-name="Lcaron" unicode="&#x13d;" d="M184 127 L184 1319 Q184 1372 221 1408 Q258 1444 311 1444 Q364 1444 400 1408 Q436 1372 436 1319 L436 229 L1085 229 Q1132 230 1166 196 Q1200 162 1200 115 Q1200 68 1166 34 Q1132 0 1085 0 L311 0 Q258 0 221 37 Q184 74 184 127 ZM705 1438 L741 1438 Q804 1438 805 1378 Q805 1355 797 1331 L721 1083 Q705 1032 662 1032 Q638 1032 622 1048 Q606 1064 608 1094 L614 1348 Q616 1386 641 1412 Q666 1438 705 1438 Z" /><glyph glyph-name="lcaron" unicode="&#x13e;" d="M170 113 L170 1382 Q170 1433 206 1469 Q242 1505 293 1505 Q344 1505 381 1469 Q418 1433 418 1382 L418 113 Q418 62 382 26 Q346 -10 294 -10 Q242 -10 206 26 Q170 62 170 113 ZM666 1505 Q729 1505 729 1446 Q729 1423 721 1399 L645 1151 Q629 1100 586 1100 Q562 1100 546 1116 Q530 1132 532 1161 L539 1415 Q541 1454 565 1480 Q590 1506 629 1505 L666 1505 Z" /><glyph glyph-name="Ldot" unicode="&#x13f;" d="M1112 780 L1112 766 Q1112 711 1072 676 Q1032 641 974 641 Q916 641 876 676 Q836 711 836 766 L836 780 Q836 835 876 871 Q916 907 973 907 Q1030 907 1071 871 Q1112 835 1112 780 ZM184 127 L184 1319 Q184 1372 221 1408 Q258 1444 311 1444 Q364 1444 400 1408 Q436 1372 436 1319 L436 229 L1085 229 Q1132 230 1166 196 Q1200 162 1200 115 Q1200 68 1166 34 Q1132 0 1085 0 L311 0 Q258 0 221 37 Q184 74 184 127 Z" /><glyph glyph-name="ldot" unicode="&#x140;" d="M170 113 L170 1382 Q170 1433 206 1469 Q242 1505 293 1505 Q344 1505 381 1469 Q418 1433 418 1382 L418 113 Q418 62 382 26 Q346 -10 294 -10 Q242 -10 206 26 Q170 62 170 113 ZM782 778 L782 756 Q782 709 750 676 Q718 643 670 643 Q621 643 589 676 Q557 709 557 756 L557 778 Q557 825 589 858 Q621 891 670 891 Q718 891 750 858 Q782 825 782 778 Z" /><glyph glyph-name="Lslash" unicode="&#x141;" d="M82 674 Q82 756 162 780 L246 805 L246 1319 Q246 1372 283 1408 Q320 1444 371 1444 Q422 1444 459 1408 Q496 1372 496 1319 L496 881 L768 963 Q788 969 821 969 Q854 969 887 936 Q920 903 920 856 Q920 773 840 750 L496 645 L496 229 L1147 229 Q1194 230 1228 196 Q1262 162 1262 115 Q1262 68 1228 34 Q1194 0 1147 0 L373 0 Q320 0 283 37 Q246 74 246 127 L246 569 L233 565 L193 559 Q146 559 114 593 Q82 627 82 674 Z" /><glyph glyph-name="lslash" unicode="&#x142;" d="M477 915 Q512 928 548 928 Q584 928 616 895 Q648 862 647 815 Q647 729 567 709 L477 680 L477 113 Q477 62 441 26 Q405 -10 354 -10 Q303 -10 267 26 Q231 62 231 113 L231 606 Q186 596 172 596 Q125 596 93 629 Q61 662 61 709 Q61 791 141 815 Q180 827 231 842 L231 1382 Q231 1433 267 1469 Q303 1505 354 1505 Q405 1505 441 1469 Q477 1433 477 1382 L477 915 Z" /><glyph glyph-name="Nacute" unicode="&#x143;" d="M184 113 L184 1315 Q184 1368 221 1405 Q258 1442 311 1442 L338 1442 Q410 1442 469 1368 L1186 440 L1186 1321 Q1186 1372 1222 1408 Q1258 1444 1309 1444 Q1360 1444 1397 1408 Q1434 1372 1434 1321 L1434 117 Q1434 64 1398 28 Q1362 -8 1311 -8 L1300 -8 Q1228 -8 1169 68 L432 1022 L432 113 Q432 62 396 26 Q360 -10 309 -10 Q258 -10 221 26 Q184 62 184 113 ZM946 1597 Q888 1542 814 1542 Q740 1542 739 1585 Q739 1605 756 1630 L872 1810 Q910 1870 966 1870 Q1022 1870 1070 1844 Q1118 1818 1118 1788 Q1118 1758 1083 1729 L946 1597 Z" /><glyph glyph-name="nacute" unicode="&#x144;" d="M156 113 L156 969 Q156 1022 191 1058 Q228 1094 280 1094 Q332 1094 368 1057 Q404 1020 403 969 L403 915 Q534 1104 728 1104 Q922 1104 1024 992 Q1126 880 1126 690 L1126 113 Q1126 62 1092 26 Q1058 -10 1004 -10 Q951 -10 914 26 Q878 62 879 113 L879 614 Q878 741 818 810 Q758 879 648 879 Q538 879 470 807 Q402 735 403 610 L403 113 Q404 62 368 26 Q332 -10 280 -10 Q228 -10 191 26 Q156 62 156 113 ZM778 1264 Q720 1208 646 1208 Q572 1208 571 1251 Q571 1271 588 1296 L705 1477 Q742 1536 798 1536 Q854 1536 902 1510 Q950 1484 950 1454 Q950 1424 915 1395 L778 1264 Z" /><glyph glyph-name="Ncommaaccent" unicode="&#x145;" d="M184 113 L184 1315 Q184 1368 221 1405 Q258 1442 311 1442 L338 1442 Q410 1442 469 1368 L1186 440 L1186 1321 Q1186 1372 1222 1408 Q1258 1444 1309 1444 Q1360 1444 1397 1408 Q1434 1372 1434 1321 L1434 117 Q1434 64 1398 28 Q1362 -8 1311 -8 L1300 -8 Q1228 -8 1169 68 L432 1022 L432 113 Q432 62 396 26 Q360 -10 309 -10 Q258 -10 221 26 Q184 62 184 113 ZM680 -221 L680 -217 Q680 -170 715 -139 Q750 -108 807 -108 Q864 -108 900 -148 Q936 -186 936 -252 L936 -258 Q936 -403 848 -479 Q774 -547 672 -547 Q619 -547 618 -504 Q618 -471 662 -461 Q795 -432 791 -330 Q680 -312 680 -221 Z" /><glyph glyph-name="ncommaaccent" unicode="&#x146;" d="M156 113 L156 969 Q156 1022 191 1058 Q228 1094 280 1094 Q332 1094 368 1057 Q404 1020 403 969 L403 915 Q534 1104 728 1104 Q922 1104 1024 992 Q1126 880 1126 690 L1126 113 Q1126 62 1092 26 Q1058 -10 1004 -10 Q951 -10 914 26 Q878 62 879 113 L879 614 Q878 741 818 810 Q758 879 648 879 Q538 879 470 807 Q402 735 403 610 L403 113 Q404 62 368 26 Q332 -10 280 -10 Q228 -10 191 26 Q156 62 156 113 ZM512 -231 L512 -227 Q512 -180 547 -150 Q582 -120 639 -119 Q696 -119 732 -158 Q768 -197 768 -262 L768 -268 Q768 -413 680 -489 Q606 -557 504 -557 Q451 -557 451 -514 Q451 -479 494 -471 Q627 -442 623 -340 Q512 -322 512 -231 Z" /><glyph glyph-name="Ncaron" unicode="&#x147;" d="M184 113 L184 1315 Q184 1368 221 1405 Q258 1442 311 1442 L338 1442 Q410 1442 469 1368 L1186 440 L1186 1321 Q1186 1372 1222 1408 Q1258 1444 1309 1444 Q1360 1444 1397 1408 Q1434 1372 1434 1321 L1434 117 Q1434 64 1398 28 Q1362 -8 1311 -8 L1300 -8 Q1228 -8 1169 68 L432 1022 L432 113 Q432 62 396 26 Q360 -10 309 -10 Q258 -10 221 26 Q184 62 184 113 ZM1124 1823 Q1124 1807 1100 1774 L965 1604 Q918 1545 846 1544 L772 1544 Q702 1544 653 1604 L518 1774 Q493 1807 494 1823 Q494 1864 553 1864 Q639 1864 705 1808 L811 1716 L918 1808 Q986 1863 1069 1864 Q1124 1864 1124 1823 Z" /><glyph glyph-name="ncaron" unicode="&#x148;" d="M156 113 L156 969 Q156 1022 191 1058 Q228 1094 280 1094 Q332 1094 368 1057 Q404 1020 403 969 L403 915 Q534 1104 728 1104 Q922 1104 1024 992 Q1126 880 1126 690 L1126 113 Q1126 62 1092 26 Q1058 -10 1004 -10 Q951 -10 914 26 Q878 62 879 113 L879 614 Q878 741 818 810 Q758 879 648 879 Q538 879 470 807 Q402 735 403 610 L403 113 Q404 62 368 26 Q332 -10 280 -10 Q228 -10 191 26 Q156 62 156 113 ZM899 1530 Q954 1530 954 1489 Q954 1473 930 1440 L795 1270 Q748 1211 676 1210 L602 1210 Q532 1210 483 1270 L348 1440 Q323 1473 324 1489 Q324 1530 383 1530 Q469 1530 535 1475 L641 1382 L748 1475 Q816 1530 899 1530 Z" /><glyph glyph-name="Omacron" unicode="&#x14c;" d="M872 209 Q1083 209 1220 354 Q1356 499 1356 713 L1356 717 Q1356 930 1218 1078 Q1080 1226 868 1226 Q656 1226 521 1080 Q385 934 385 721 L385 717 Q385 504 523 356 Q661 208 872 209 ZM868 -25 Q542 -25 332 190 Q122 405 121 713 L121 717 Q121 1024 334 1241 Q546 1458 872 1458 Q1198 1458 1409 1243 Q1620 1028 1620 721 L1620 717 Q1620 410 1407 192 Q1194 -26 868 -25 ZM1143 1595 L598 1595 Q560 1595 534 1622 Q508 1649 508 1686 Q508 1724 535 1750 Q562 1776 598 1776 L1143 1776 Q1180 1776 1206 1749 Q1232 1722 1233 1686 Q1232 1650 1206 1622 Q1180 1595 1143 1595 Z" /><glyph glyph-name="omacron" unicode="&#x14d;" d="M438 294 Q533 193 677 193 Q821 193 911 292 Q1001 391 1001 535 L1001 539 Q1001 684 907 785 Q813 886 669 886 Q524 886 434 788 Q344 688 344 543 L344 539 Q344 396 438 294 ZM1249 539 Q1250 306 1084 140 Q918 -26 671 -25 Q424 -25 260 138 Q96 301 96 535 L96 539 Q96 776 262 940 Q428 1104 674 1104 Q920 1104 1084 940 Q1248 776 1249 543 L1249 539 ZM944 1241 L399 1241 Q362 1241 336 1268 Q310 1296 309 1332 Q309 1368 336 1395 Q363 1422 399 1421 L944 1421 Q981 1420 1008 1394 Q1034 1368 1034 1331 Q1034 1294 1008 1268 Q982 1242 944 1241 Z" /><glyph glyph-name="Obreve" unicode="&#x14e;" d="M1184 1733 Q1091 1569 870 1569 Q649 1569 557 1733 Q541 1766 541 1800 Q541 1834 565 1859 Q590 1884 634 1884 Q678 1884 705 1837 Q758 1743 872 1743 Q986 1743 1036 1837 Q1063 1884 1107 1884 Q1151 1884 1176 1858 Q1223 1810 1184 1733 ZM872 209 Q1083 209 1220 354 Q1356 499 1356 713 L1356 717 Q1356 930 1218 1078 Q1080 1226 868 1226 Q656 1226 521 1080 Q385 934 385 721 L385 717 Q385 504 523 356 Q661 208 872 209 ZM868 -25 Q542 -25 332 190 Q122 405 121 713 L121 717 Q121 1024 334 1241 Q546 1458 872 1458 Q1198 1458 1409 1243 Q1620 1028 1620 721 L1620 717 Q1620 410 1407 192 Q1194 -26 868 -25 Z" /><glyph glyph-name="obreve" unicode="&#x14f;" d="M985 1378 Q893 1214 672 1214 Q451 1214 358 1378 Q342 1411 342 1445 Q342 1478 367 1504 Q392 1530 436 1530 Q480 1530 506 1483 Q559 1389 674 1389 Q789 1389 838 1483 Q864 1530 908 1530 Q952 1530 977 1504 Q1023 1456 985 1378 ZM438 294 Q533 193 677 193 Q821 193 911 292 Q1001 391 1001 535 L1001 539 Q1001 684 907 785 Q813 886 669 886 Q524 886 434 788 Q344 688 344 543 L344 539 Q344 396 438 294 ZM1249 539 Q1250 306 1084 140 Q918 -26 671 -25 Q424 -25 260 138 Q96 301 96 535 L96 539 Q96 776 262 940 Q428 1104 674 1104 Q920 1104 1084 940 Q1248 776 1249 543 L1249 539 Z" /><glyph glyph-name="Ohungarumlaut" unicode="&#x150;" d="M872 209 Q1083 209 1220 354 Q1356 499 1356 713 L1356 717 Q1356 930 1218 1078 Q1080 1226 868 1226 Q656 1226 521 1080 Q385 934 385 721 L385 717 Q385 504 523 356 Q661 208 872 209 ZM868 -25 Q542 -25 332 190 Q122 405 121 713 L121 717 Q121 1024 334 1241 Q546 1458 872 1458 Q1198 1458 1409 1243 Q1620 1028 1620 721 L1620 717 Q1620 410 1407 192 Q1194 -26 868 -25 ZM797 1618 Q740 1563 668 1563 Q596 1563 596 1606 Q596 1626 612 1651 L731 1831 Q766 1890 820 1890 Q874 1890 922 1866 Q969 1841 969 1812 Q969 1783 934 1749 L797 1618 ZM1171 1618 Q1112 1563 1042 1563 Q972 1563 971 1606 Q971 1626 987 1651 L1106 1831 Q1141 1890 1195 1890 Q1249 1890 1296 1866 Q1343 1842 1343 1812 Q1343 1783 1309 1749 L1171 1618 Z" /><glyph glyph-name="ohungarumlaut" unicode="&#x151;" d="M438 294 Q533 193 677 193 Q821 193 911 292 Q1001 391 1001 535 L1001 539 Q1001 684 907 785 Q813 886 669 886 Q524 886 434 788 Q344 688 344 543 L344 539 Q344 396 438 294 ZM1249 539 Q1250 306 1084 140 Q918 -26 671 -25 Q424 -25 260 138 Q96 301 96 535 L96 539 Q96 776 262 940 Q428 1104 674 1104 Q920 1104 1084 940 Q1248 776 1249 543 L1249 539 ZM600 1264 Q544 1208 472 1208 Q400 1208 399 1251 Q399 1271 416 1296 L535 1477 Q570 1536 624 1536 Q678 1536 725 1511 Q772 1486 772 1458 Q772 1430 737 1395 L600 1264 ZM975 1264 Q916 1208 846 1208 Q776 1208 774 1251 Q774 1271 791 1296 L909 1477 Q944 1536 998 1536 Q1052 1536 1100 1511 Q1147 1486 1147 1458 Q1147 1430 1112 1395 L975 1264 Z" /><glyph glyph-name="OE" unicode="&#x152;" d="M883 229 L1106 229 L1106 1204 L883 1204 Q660 1204 522 1069 Q384 934 385 721 L385 717 Q384 504 522 366 Q660 228 883 229 ZM883 0 Q547 0 334 203 Q121 406 121 713 L121 717 Q121 1024 335 1229 Q549 1434 883 1434 L2021 1434 Q2068 1434 2102 1401 Q2136 1368 2136 1321 Q2136 1274 2102 1241 Q2068 1208 2021 1208 L1358 1208 L1358 836 L1929 836 Q1976 836 2010 802 Q2044 768 2044 722 Q2044 676 2010 643 Q1976 610 1929 610 L1358 610 L1358 225 L2032 225 Q2079 224 2113 192 Q2146 160 2146 113 Q2146 66 2112 33 Q2078 0 2032 0 L883 0 Z" /><glyph glyph-name="oe" unicode="&#x153;" d="M96 535 L96 539 Q96 772 262 938 Q428 1104 668 1104 Q802 1104 916 1044 Q1030 984 1100 881 Q1170 985 1278 1044 Q1386 1103 1518 1104 Q1758 1104 1894 941 Q2030 778 2030 571 Q2030 520 1996 486 Q1962 452 1913 453 L1235 453 Q1255 324 1340 251 Q1425 178 1556 178 Q1687 178 1802 272 Q1831 295 1870 295 Q1908 295 1936 266 Q1964 236 1964 192 Q1964 148 1931 119 Q1771 -24 1544 -25 Q1405 -24 1288 36 Q1171 96 1098 203 Q1026 100 910 38 Q794 -24 657 -25 Q424 -25 260 139 Q96 303 96 535 ZM436 294 Q529 193 670 193 Q811 193 899 292 Q987 391 987 535 L987 539 Q987 684 895 785 Q803 886 663 886 Q524 886 434 786 Q344 686 344 543 L344 539 Q344 396 436 294 ZM1705 822 Q1634 901 1518 901 Q1402 901 1326 822 Q1249 743 1233 616 L1790 616 Q1776 743 1705 822 Z" /><glyph glyph-name="Racute" unicode="&#x154;" d="M893 1597 Q834 1542 760 1542 Q686 1542 686 1585 Q686 1605 702 1630 L819 1810 Q856 1870 912 1870 Q968 1870 1017 1844 Q1065 1818 1065 1788 Q1065 1758 1030 1729 L893 1597 ZM436 723 L805 723 Q940 722 1020 788 Q1100 854 1100 963 L1100 967 Q1100 1082 1022 1143 Q944 1204 803 1204 L436 1204 L436 723 ZM184 115 L184 1307 Q184 1360 221 1397 Q258 1434 311 1434 L823 1434 Q1089 1434 1237 1290 Q1356 1167 1356 981 L1356 977 Q1356 811 1269 703 Q1182 595 1030 549 L1305 203 Q1346 152 1346 104 Q1346 56 1309 22 Q1272 -10 1225 -10 Q1151 -10 1102 55 L754 500 L436 500 L436 115 Q436 62 400 26 Q364 -10 311 -10 Q258 -10 221 26 Q184 62 184 115 Z" /><glyph glyph-name="racute" unicode="&#x155;" d="M156 113 L156 969 Q156 1022 191 1058 Q228 1094 280 1094 Q332 1094 368 1057 Q404 1020 403 969 L403 858 Q448 962 522 1029 Q596 1096 664 1096 Q732 1096 766 1062 Q799 1028 799 977 Q799 926 771 894 Q743 862 700 854 Q563 829 483 724 Q403 619 403 432 L403 113 Q402 62 366 26 Q330 -10 279 -10 Q228 -10 191 26 Q156 62 156 113 ZM596 1264 Q538 1208 464 1208 Q390 1208 389 1251 Q389 1271 406 1296 L522 1477 Q560 1536 616 1536 Q672 1536 720 1510 Q768 1484 768 1454 Q768 1424 733 1395 L596 1264 Z" /><glyph glyph-name="Rcommaaccent" unicode="&#x156;" d="M627 -217 Q627 -170 662 -139 Q697 -108 754 -108 Q811 -108 847 -148 Q883 -186 883 -252 L883 -258 Q883 -403 795 -479 Q721 -547 618 -547 Q565 -547 565 -504 Q565 -471 608 -461 Q741 -432 737 -330 Q626 -312 627 -221 L627 -217 ZM436 723 L805 723 Q940 722 1020 788 Q1100 854 1100 963 L1100 967 Q1100 1082 1022 1143 Q944 1204 803 1204 L436 1204 L436 723 ZM184 115 L184 1307 Q184 1360 221 1397 Q258 1434 311 1434 L823 1434 Q1089 1434 1237 1290 Q1356 1167 1356 981 L1356 977 Q1356 811 1269 703 Q1182 595 1030 549 L1305 203 Q1346 152 1346 104 Q1346 56 1309 22 Q1272 -10 1225 -10 Q1151 -10 1102 55 L754 500 L436 500 L436 115 Q436 62 400 26 Q364 -10 311 -10 Q258 -10 221 26 Q184 62 184 115 Z" /><glyph glyph-name="rcommaaccent" unicode="&#x157;" d="M156 113 L156 969 Q156 1022 191 1058 Q228 1094 280 1094 Q332 1094 368 1057 Q404 1020 403 969 L403 858 Q448 962 522 1029 Q596 1096 664 1096 Q732 1096 766 1062 Q799 1028 799 977 Q799 926 771 894 Q743 862 700 854 Q563 829 483 724 Q403 619 403 432 L403 113 Q402 62 366 26 Q330 -10 279 -10 Q228 -10 191 26 Q156 62 156 113 ZM166 -227 Q166 -180 201 -150 Q236 -120 293 -119 Q350 -119 386 -158 Q422 -197 422 -262 L422 -268 Q422 -413 334 -489 Q260 -557 158 -557 Q104 -557 104 -518 Q104 -479 147 -471 Q280 -442 276 -340 Q165 -322 166 -231 L166 -227 Z" /><glyph glyph-name="Rcaron" unicode="&#x158;" d="M1069 1823 Q1069 1807 1044 1774 L909 1604 Q862 1545 791 1544 L717 1544 Q647 1544 598 1604 L463 1774 Q438 1807 438 1823 Q438 1864 511 1864 Q584 1864 649 1808 L756 1716 L862 1808 Q930 1863 1014 1864 Q1069 1864 1069 1823 ZM436 723 L805 723 Q940 722 1020 788 Q1100 854 1100 963 L1100 967 Q1100 1082 1022 1143 Q944 1204 803 1204 L436 1204 L436 723 ZM184 115 L184 1307 Q184 1360 221 1397 Q258 1434 311 1434 L823 1434 Q1089 1434 1237 1290 Q1356 1167 1356 981 L1356 977 Q1356 811 1269 703 Q1182 595 1030 549 L1305 203 Q1346 152 1346 104 Q1346 56 1309 22 Q1272 -10 1225 -10 Q1151 -10 1102 55 L754 500 L436 500 L436 115 Q436 62 400 26 Q364 -10 311 -10 Q258 -10 221 26 Q184 62 184 115 Z" /><glyph glyph-name="rcaron" unicode="&#x159;" d="M156 113 L156 969 Q156 1022 191 1058 Q228 1094 280 1094 Q332 1094 368 1057 Q404 1020 403 969 L403 858 Q448 962 522 1029 Q596 1096 664 1096 Q732 1096 766 1062 Q799 1028 799 977 Q799 926 771 894 Q743 862 700 854 Q563 829 483 724 Q403 619 403 432 L403 113 Q402 62 366 26 Q330 -10 279 -10 Q228 -10 191 26 Q156 62 156 113 ZM719 1530 Q774 1530 774 1489 Q774 1473 750 1440 L614 1270 Q567 1211 496 1210 L422 1210 Q352 1210 303 1270 L168 1440 Q143 1473 143 1489 Q143 1530 216 1530 Q289 1530 354 1475 L461 1382 L567 1475 Q635 1530 719 1530 Z" /><glyph glyph-name="Sacute" unicode="&#x15a;" d="M686 -20 Q389 -20 147 160 Q98 195 98 250 Q98 305 133 339 Q168 373 214 373 Q260 373 291 350 Q477 203 692 203 Q809 203 878 253 Q947 303 946 383 L946 387 Q946 467 881 514 Q816 561 658 599 Q500 637 418 668 Q228 740 175 867 Q145 938 145 1034 L145 1038 Q144 1222 282 1338 Q420 1454 654 1454 Q888 1454 1090 1321 Q1145 1290 1145 1231 Q1145 1172 1110 1138 Q1075 1104 1033 1104 Q991 1104 961 1122 Q793 1231 631 1231 Q526 1231 462 1183 Q398 1135 397 1061 L397 1057 Q397 973 466 927 Q535 882 756 828 Q978 774 1088 679 Q1198 584 1198 412 L1198 408 Q1198 209 1057 94 Q915 -20 686 -20 ZM805 1618 Q746 1563 672 1563 Q598 1563 598 1606 Q598 1626 614 1651 L731 1831 Q768 1890 824 1890 Q880 1890 929 1865 Q977 1839 977 1809 Q977 1779 942 1749 L805 1618 Z" /><glyph glyph-name="sacute" unicode="&#x15b;" d="M526 -20 Q303 -20 115 109 Q68 134 68 185 Q68 236 96 266 Q124 296 161 295 Q197 295 221 281 Q377 177 532 176 Q612 176 656 208 Q700 240 700 293 L700 297 Q700 375 483 440 L459 449 Q209 516 148 637 Q120 692 121 766 L121 770 Q121 920 230 1010 Q340 1100 510 1100 Q680 1100 846 1012 Q905 981 905 928 Q906 875 876 846 Q846 817 812 817 Q778 817 754 829 Q610 903 520 903 Q430 903 389 873 Q348 843 348 797 L348 793 Q348 742 412 707 Q476 672 570 644 Q664 616 713 594 Q852 533 899 446 Q928 393 928 324 L928 319 Q928 156 815 68 Q702 -20 526 -20 ZM657 1264 Q598 1208 524 1208 Q450 1208 451 1251 Q451 1271 467 1296 L584 1477 Q621 1536 677 1536 Q733 1536 781 1510 Q829 1484 829 1454 Q829 1424 795 1395 L657 1264 Z" /><glyph glyph-name="Scedilla" unicode="&#x15e;" d="M1198 408 Q1198 228 1080 116 Q962 4 766 -16 L657 -268 Q613 -372 485 -298 Q434 -268 434 -240 Q434 -212 451 -190 L571 -12 Q335 17 147 160 Q98 195 98 250 Q98 305 133 339 Q168 373 214 373 Q260 373 291 350 Q477 203 692 203 Q809 203 878 253 Q947 303 946 383 L946 387 Q946 467 881 514 Q816 561 658 599 Q500 637 418 668 Q228 740 175 867 Q145 938 145 1034 L145 1038 Q144 1222 282 1338 Q420 1454 654 1454 Q888 1454 1090 1321 Q1145 1290 1145 1231 Q1145 1172 1110 1138 Q1075 1104 1033 1104 Q991 1104 961 1122 Q793 1231 631 1231 Q526 1231 462 1183 Q398 1135 397 1061 L397 1057 Q397 973 466 927 Q535 882 756 828 Q978 774 1088 679 Q1198 584 1198 412 L1198 408 Z" /><glyph glyph-name="scedilla" unicode="&#x15f;" d="M928 319 Q928 174 838 88 Q748 2 600 -16 L492 -268 Q448 -372 319 -298 Q268 -268 268 -240 Q268 -212 285 -190 L408 -10 Q252 15 115 109 Q68 134 68 185 Q68 236 96 266 Q124 296 161 295 Q197 295 221 281 Q377 177 532 176 Q612 176 656 208 Q700 240 700 293 L700 297 Q700 375 483 440 L459 449 Q209 516 148 637 Q120 692 121 766 L121 770 Q121 920 230 1010 Q340 1100 510 1100 Q680 1100 846 1012 Q905 981 905 928 Q906 875 876 846 Q846 817 812 817 Q778 817 754 829 Q610 903 520 903 Q430 903 389 873 Q348 843 348 797 L348 793 Q348 742 412 707 Q476 672 570 644 Q664 616 713 594 Q852 533 899 446 Q928 393 928 324 L928 319 Z" /><glyph glyph-name="Scaron" unicode="&#x160;" d="M686 -20 Q389 -20 147 160 Q98 195 98 250 Q98 305 133 339 Q168 373 214 373 Q260 373 291 350 Q477 203 692 203 Q809 203 878 253 Q947 303 946 383 L946 387 Q946 467 881 514 Q816 561 658 599 Q500 637 418 668 Q228 740 175 867 Q145 938 145 1034 L145 1038 Q144 1222 282 1338 Q420 1454 654 1454 Q888 1454 1090 1321 Q1145 1290 1145 1231 Q1145 1172 1110 1138 Q1075 1104 1033 1104 Q991 1104 961 1122 Q793 1231 631 1231 Q526 1231 462 1183 Q398 1135 397 1061 L397 1057 Q397 973 466 927 Q535 882 756 828 Q978 774 1088 679 Q1198 584 1198 412 L1198 408 Q1198 209 1057 94 Q915 -20 686 -20 ZM926 1884 Q981 1884 981 1843 Q981 1827 956 1794 L821 1624 Q774 1565 702 1565 L629 1565 Q559 1565 510 1624 L375 1794 Q350 1827 350 1843 Q350 1884 423 1884 Q496 1884 561 1829 L668 1737 L774 1829 Q842 1884 926 1884 Z" /><glyph glyph-name="scaron" unicode="&#x161;" d="M526 -20 Q303 -20 115 109 Q68 134 68 185 Q68 236 96 266 Q124 296 161 295 Q197 295 221 281 Q377 177 532 176 Q612 176 656 208 Q700 240 700 293 L700 297 Q700 375 483 440 L459 449 Q209 516 148 637 Q120 692 121 766 L121 770 Q121 920 230 1010 Q340 1100 510 1100 Q680 1100 846 1012 Q905 981 905 928 Q906 875 876 846 Q846 817 812 817 Q778 817 754 829 Q610 903 520 903 Q430 903 389 873 Q348 843 348 797 L348 793 Q348 742 412 707 Q476 672 570 644 Q664 616 713 594 Q852 533 899 446 Q928 393 928 324 L928 319 Q928 156 815 68 Q702 -20 526 -20 ZM778 1530 Q833 1530 834 1489 Q834 1473 809 1440 L674 1270 Q627 1211 555 1210 L481 1210 Q411 1210 362 1270 L227 1440 Q202 1473 203 1489 Q203 1530 262 1530 Q348 1530 414 1475 L520 1382 L627 1475 Q695 1530 778 1530 Z" /><glyph glyph-name="Tcommaaccent" unicode="&#x162;" d="M537 115 L537 1200 L188 1200 Q139 1200 105 1235 Q71 1270 72 1317 Q72 1364 105 1399 Q139 1434 188 1434 L1141 1434 Q1188 1434 1222 1399 Q1256 1364 1256 1317 Q1256 1270 1222 1235 Q1188 1200 1141 1200 L791 1200 L791 115 Q791 64 754 27 Q717 -10 664 -10 Q611 -10 573 27 Q537 64 537 115 ZM535 -227 Q536 -180 570 -150 Q604 -120 661 -119 Q718 -119 754 -158 Q790 -197 791 -262 L791 -268 Q791 -413 702 -489 Q628 -557 526 -557 Q473 -557 473 -514 Q473 -479 516 -471 Q649 -442 645 -340 Q534 -322 535 -231 L535 -227 Z" /><glyph glyph-name="tcommaaccent" unicode="&#x163;" d="M754 106 Q754 36 688 10 Q606 -18 518 -18 Q207 -18 207 299 L207 868 L166 868 Q121 868 90 899 Q59 930 59 975 Q59 1020 90 1051 Q121 1082 166 1081 L207 1081 L207 1266 Q207 1317 244 1353 Q281 1389 332 1389 Q383 1389 419 1353 Q455 1317 455 1266 L455 1081 L649 1081 Q694 1080 726 1050 Q758 1020 758 975 Q758 930 726 899 Q694 868 649 868 L455 868 L455 338 Q455 203 588 203 L649 209 Q692 209 723 179 Q754 149 754 106 ZM330 -227 Q330 -180 365 -150 Q400 -120 457 -119 Q514 -119 550 -158 Q586 -197 586 -262 L586 -268 Q586 -413 498 -489 Q424 -557 322 -557 Q268 -557 268 -518 Q268 -479 311 -471 Q444 -442 440 -340 Q329 -322 330 -231 L330 -227 Z" /><glyph glyph-name="Tcaron" unicode="&#x164;" d="M537 115 L537 1200 L188 1200 Q139 1200 105 1235 Q71 1270 72 1317 Q72 1364 105 1399 Q139 1434 188 1434 L1141 1434 Q1188 1434 1222 1399 Q1256 1364 1256 1317 Q1256 1270 1222 1235 Q1188 1200 1141 1200 L791 1200 L791 115 Q791 64 754 27 Q717 -10 664 -10 Q611 -10 573 27 Q537 64 537 115 ZM979 1823 Q979 1807 954 1774 L819 1604 Q772 1545 700 1544 L627 1544 Q557 1544 508 1604 L373 1774 Q348 1807 348 1823 Q348 1864 421 1864 Q494 1864 559 1808 L666 1716 L772 1808 Q840 1863 924 1864 Q979 1864 979 1823 Z" /><glyph glyph-name="tcaron" unicode="&#x165;" d="M754 106 Q754 36 688 10 Q606 -18 518 -18 Q207 -18 207 299 L207 868 L166 868 Q121 868 90 899 Q59 930 59 975 Q59 1020 90 1051 Q121 1082 166 1081 L207 1081 L207 1266 Q207 1317 244 1353 Q281 1389 332 1389 Q383 1389 419 1353 Q455 1317 455 1266 L455 1081 L649 1081 Q694 1080 726 1050 Q758 1020 758 975 Q758 930 726 899 Q694 868 649 868 L455 868 L455 338 Q455 203 588 203 L649 209 Q692 209 723 179 Q754 149 754 106 ZM758 1597 Q821 1597 821 1538 Q821 1515 813 1491 L737 1243 Q721 1192 678 1192 Q653 1192 638 1208 Q623 1224 625 1253 L631 1507 Q633 1546 657 1572 Q682 1598 721 1597 L758 1597 Z" /><glyph glyph-name="Umacron" unicode="&#x16a;" d="M1047 1575 L502 1575 Q465 1575 438 1602 Q412 1630 412 1666 Q412 1702 438 1729 Q465 1756 502 1755 L1047 1755 Q1084 1754 1110 1728 Q1136 1702 1137 1665 Q1136 1628 1110 1602 Q1084 1576 1047 1575 ZM1389 621 Q1389 308 1225 142 Q1061 -24 774 -23 Q486 -23 324 139 Q162 301 162 608 L162 1319 Q162 1372 199 1408 Q236 1444 288 1444 Q340 1444 377 1408 Q414 1372 414 1319 L414 618 Q414 421 509 316 Q604 211 775 211 Q946 211 1041 312 Q1136 413 1137 608 L1137 1319 Q1137 1372 1174 1408 Q1211 1444 1263 1444 Q1315 1444 1352 1408 Q1389 1372 1389 1319 L1389 621 Z" /><glyph glyph-name="umacron" unicode="&#x16b;" d="M899 1241 L354 1241 Q316 1241 290 1268 Q264 1296 264 1332 Q264 1368 291 1395 Q318 1422 354 1421 L899 1421 Q936 1420 963 1394 Q990 1368 990 1331 Q990 1294 962 1268 Q936 1242 899 1241 ZM1116 969 L1116 113 Q1116 62 1079 26 Q1042 -10 991 -10 Q940 -10 903 26 Q866 62 866 113 L866 168 Q737 -22 528 -23 Q348 -23 246 90 Q144 203 143 393 L143 969 Q143 1020 179 1057 Q215 1094 267 1094 Q319 1094 355 1057 Q391 1020 391 969 L391 467 Q392 342 452 273 Q512 204 622 204 Q732 204 800 276 Q868 346 866 471 L866 969 Q866 1020 902 1057 Q938 1094 990 1094 Q1042 1094 1079 1057 Q1116 1020 1116 969 Z" /><glyph glyph-name="Ubreve" unicode="&#x16c;" d="M1087 1704 Q995 1540 774 1540 Q553 1540 461 1704 Q423 1782 469 1830 Q494 1856 538 1856 Q582 1856 608 1808 Q661 1714 776 1714 Q891 1714 940 1808 Q967 1855 1011 1855 Q1056 1856 1080 1830 Q1104 1804 1104 1770 Q1104 1736 1087 1704 ZM1389 621 Q1389 308 1225 142 Q1061 -24 774 -23 Q486 -23 324 139 Q162 301 162 608 L162 1319 Q162 1372 199 1408 Q236 1444 288 1444 Q340 1444 377 1408 Q414 1372 414 1319 L414 618 Q414 421 509 316 Q604 211 775 211 Q946 211 1041 312 Q1136 413 1137 608 L1137 1319 Q1137 1372 1174 1408 Q1211 1444 1263 1444 Q1315 1444 1352 1408 Q1389 1372 1389 1319 L1389 621 Z" /><glyph glyph-name="ubreve" unicode="&#x16d;" d="M940 1378 Q848 1214 627 1214 Q406 1214 313 1378 Q297 1411 297 1445 Q297 1478 322 1504 Q346 1530 390 1530 Q434 1530 461 1483 Q514 1389 629 1389 Q744 1389 793 1483 Q820 1530 864 1530 Q908 1530 932 1504 Q978 1456 940 1378 ZM1116 969 L1116 113 Q1116 62 1079 26 Q1042 -10 991 -10 Q940 -10 903 26 Q866 62 866 113 L866 168 Q737 -22 528 -23 Q348 -23 246 90 Q144 203 143 393 L143 969 Q143 1020 179 1057 Q215 1094 267 1094 Q319 1094 355 1057 Q391 1020 391 969 L391 467 Q392 342 452 273 Q512 204 622 204 Q732 204 800 276 Q868 346 866 471 L866 969 Q866 1020 902 1057 Q938 1094 990 1094 Q1042 1094 1079 1057 Q1116 1020 1116 969 Z" /><glyph glyph-name="Uring" unicode="&#x16e;" d="M1389 621 Q1389 308 1225 142 Q1061 -24 774 -23 Q486 -23 324 139 Q162 301 162 608 L162 1319 Q162 1372 199 1408 Q236 1444 288 1444 Q340 1444 377 1408 Q414 1372 414 1319 L414 618 Q414 421 509 316 Q604 211 775 211 Q946 211 1041 312 Q1136 413 1137 608 L1137 1319 Q1137 1372 1174 1408 Q1211 1444 1263 1444 Q1315 1444 1352 1408 Q1389 1372 1389 1319 L1389 621 ZM685 1655 Q723 1618 774 1618 Q825 1618 863 1655 Q901 1692 901 1743 L901 1747 Q901 1798 863 1835 Q825 1872 774 1872 Q723 1872 685 1835 Q647 1798 647 1747 L647 1743 Q647 1692 685 1655 ZM937 1586 Q866 1520 774 1520 Q682 1520 611 1586 Q540 1652 541 1743 L541 1747 Q541 1839 611 1905 Q682 1970 774 1970 Q866 1970 937 1904 Q1008 1838 1008 1747 L1008 1743 Q1008 1652 937 1586 Z" /><glyph glyph-name="uring" unicode="&#x16f;" d="M1116 969 L1116 113 Q1116 62 1079 26 Q1042 -10 991 -10 Q940 -10 903 26 Q866 62 866 113 L866 168 Q737 -22 528 -23 Q348 -23 246 90 Q144 203 143 393 L143 969 Q143 1020 179 1057 Q215 1094 267 1094 Q319 1094 355 1057 Q391 1020 391 969 L391 467 Q392 342 452 273 Q512 204 622 204 Q732 204 800 276 Q868 346 866 471 L866 969 Q866 1020 902 1057 Q938 1094 990 1094 Q1042 1094 1079 1057 Q1116 1020 1116 969 ZM538 1348 Q576 1311 627 1311 Q678 1311 716 1348 Q754 1385 754 1436 L754 1440 Q754 1491 716 1528 Q678 1565 627 1565 Q576 1565 538 1528 Q500 1491 500 1440 L500 1436 Q500 1385 538 1348 ZM627 1212 Q535 1212 464 1279 Q393 1346 393 1436 L393 1440 Q393 1532 464 1598 Q535 1664 627 1663 Q719 1663 790 1597 Q861 1531 860 1440 L860 1436 Q860 1346 790 1279 Q720 1212 627 1212 Z" /><glyph glyph-name="Uhungarumlaut" unicode="&#x170;" d="M702 1597 Q646 1542 574 1542 Q502 1542 502 1585 Q502 1605 518 1630 L637 1810 Q672 1870 726 1870 Q780 1870 827 1845 Q874 1820 874 1792 Q874 1764 840 1729 L702 1597 ZM1077 1597 Q1018 1542 948 1542 Q878 1542 877 1585 Q877 1605 893 1630 L1012 1810 Q1047 1870 1101 1870 Q1155 1870 1202 1845 Q1249 1820 1249 1792 Q1249 1764 1214 1729 L1077 1597 ZM1389 621 Q1389 308 1225 142 Q1061 -24 774 -23 Q486 -23 324 139 Q162 301 162 608 L162 1319 Q162 1372 199 1408 Q236 1444 288 1444 Q340 1444 377 1408 Q414 1372 414 1319 L414 618 Q414 421 509 316 Q604 211 775 211 Q946 211 1041 312 Q1136 413 1137 608 L1137 1319 Q1137 1372 1174 1408 Q1211 1444 1263 1444 Q1315 1444 1352 1408 Q1389 1372 1389 1319 L1389 621 Z" /><glyph glyph-name="uhungarumlaut" unicode="&#x171;" d="M555 1264 Q498 1208 426 1208 Q354 1208 354 1251 Q354 1271 371 1296 L489 1477 Q524 1536 578 1536 Q632 1536 680 1511 Q727 1486 727 1458 Q727 1430 692 1395 L555 1264 ZM930 1264 Q870 1208 800 1208 Q730 1208 729 1251 Q729 1271 745 1296 L864 1477 Q899 1536 953 1536 Q1006 1536 1054 1511 Q1102 1486 1102 1458 Q1102 1430 1067 1395 L930 1264 ZM1116 969 L1116 113 Q1116 62 1079 26 Q1042 -10 991 -10 Q940 -10 903 26 Q866 62 866 113 L866 168 Q737 -22 528 -23 Q348 -23 246 90 Q144 203 143 393 L143 969 Q143 1020 179 1057 Q215 1094 267 1094 Q319 1094 355 1057 Q391 1020 391 969 L391 467 Q392 342 452 273 Q512 204 622 204 Q732 204 800 276 Q868 346 866 471 L866 969 Q866 1020 902 1057 Q938 1094 990 1094 Q1042 1094 1079 1057 Q1116 1020 1116 969 Z" /><glyph glyph-name="Uogonek" unicode="&#x172;" d="M680 -297 Q602 -254 602 -174 Q602 -94 670 -16 Q430 12 296 172 Q162 332 162 608 L162 1319 Q162 1372 199 1408 Q236 1444 288 1444 Q340 1444 377 1408 Q414 1372 414 1319 L414 618 Q414 421 509 316 Q604 211 775 211 Q946 211 1041 312 Q1136 413 1137 608 L1137 1319 Q1137 1372 1174 1408 Q1211 1444 1263 1444 Q1315 1444 1352 1408 Q1389 1372 1389 1319 L1389 621 Q1390 326 1244 163 Q1098 0 840 -18 Q791 -74 791 -132 Q791 -190 870 -210 Q949 -230 948 -276 Q948 -339 866 -340 Q758 -340 680 -297 Z" /><glyph glyph-name="uogonek" unicode="&#x173;" d="M1116 969 L1116 106 Q1116 55 1067 8 Q985 -72 985 -131 Q985 -190 1063 -210 Q1141 -230 1141 -276 Q1141 -339 1059 -340 Q950 -340 873 -298 Q796 -256 796 -166 Q796 -76 905 23 Q889 37 878 82 Q867 127 866 160 L866 168 Q737 -22 528 -23 Q348 -23 246 90 Q144 203 143 393 L143 969 Q143 1020 179 1057 Q215 1094 267 1094 Q319 1094 355 1057 Q391 1020 391 969 L391 467 Q392 342 452 273 Q512 204 622 204 Q732 204 800 276 Q868 346 866 471 L866 969 Q866 1020 902 1057 Q938 1094 990 1094 Q1042 1094 1079 1057 Q1116 1020 1116 969 Z" /><glyph glyph-name="Wcircumflex" unicode="&#x174;" d="M96 1272 Q86 1296 86 1334 Q86 1372 124 1408 Q162 1444 211 1444 Q260 1444 294 1418 Q328 1392 340 1352 L670 367 L993 1348 Q1028 1448 1120 1448 L1139 1448 Q1235 1448 1266 1348 L1589 367 L1919 1354 Q1952 1444 2042 1444 Q2093 1444 2130 1409 Q2167 1374 2167 1337 Q2167 1300 2154 1272 L1731 84 Q1694 -20 1599 -20 L1575 -20 Q1483 -20 1446 84 L1126 1020 L807 84 Q770 -20 676 -20 L651 -20 Q559 -20 520 84 L96 1272 ZM864 1542 Q809 1542 809 1583 Q809 1599 834 1632 L969 1802 Q1018 1861 1087 1862 L1161 1862 Q1233 1862 1280 1802 L1415 1632 Q1440 1599 1440 1583 Q1440 1542 1368 1542 Q1296 1542 1229 1597 L1122 1690 L1016 1597 Q950 1542 864 1542 Z" /><glyph glyph-name="wcircumflex" unicode="&#x175;" d="M518 -18 Q418 -18 381 92 L90 915 Q78 948 78 987 Q78 1026 112 1060 Q146 1094 199 1094 Q289 1094 319 995 L528 340 L739 995 Q770 1093 866 1094 L881 1094 Q977 1094 1008 995 L1221 340 L1432 997 Q1461 1093 1552 1094 Q1601 1094 1635 1060 Q1669 1026 1669 990 Q1669 954 1659 924 L1364 92 Q1325 -19 1227 -18 L1219 -18 Q1117 -18 1083 88 L872 731 L659 88 Q626 -18 526 -18 L518 -18 ZM555 1249 Q555 1265 580 1298 L715 1468 Q764 1527 834 1528 L907 1528 Q979 1528 1026 1468 L1161 1298 Q1186 1265 1186 1249 Q1186 1208 1114 1208 Q1042 1208 975 1264 L868 1356 L762 1264 Q696 1209 610 1208 Q555 1208 555 1249 Z" /><glyph glyph-name="Ycircumflex" unicode="&#x176;" d="M453 1542 Q398 1542 397 1583 Q397 1599 422 1632 L557 1802 Q606 1861 676 1862 L750 1862 Q822 1862 868 1802 L1004 1632 Q1029 1599 1028 1583 Q1028 1542 956 1542 Q884 1542 817 1597 L711 1690 L604 1597 Q538 1542 453 1542 ZM588 115 L588 557 L94 1235 Q66 1278 66 1326 Q66 1374 102 1409 Q139 1444 202 1444 Q265 1444 315 1368 L715 793 L1120 1370 Q1170 1446 1232 1446 Q1294 1446 1329 1410 Q1364 1374 1364 1327 Q1364 1280 1329 1233 L840 563 L840 115 Q840 62 803 26 Q766 -10 713 -10 Q660 -10 624 26 Q588 62 588 115 Z" /><glyph glyph-name="ycircumflex" unicode="&#x177;" d="M287 1249 Q287 1265 311 1298 L446 1468 Q495 1527 565 1528 L639 1528 Q711 1528 758 1468 L893 1298 Q918 1265 918 1249 Q918 1208 846 1208 Q774 1208 707 1264 L600 1356 L494 1264 Q428 1209 342 1208 Q287 1208 287 1249 ZM565 -266 Q482 -334 370 -334 Q258 -334 180 -303 Q102 -276 102 -201 Q102 -156 132 -127 Q162 -98 192 -98 Q222 -98 261 -109 Q299 -120 344 -120 Q389 -120 423 -95 Q457 -69 487 -6 L496 16 L94 913 Q80 946 80 985 Q80 1024 115 1059 Q150 1094 203 1094 Q287 1094 324 999 L614 281 L885 999 Q922 1093 1004 1094 Q1054 1094 1088 1060 Q1122 1026 1122 987 Q1122 948 1112 918 L717 -31 Q647 -198 565 -266 Z" /><glyph glyph-name="Ydieresis" unicode="&#x178;" d="M375 1681 Q375 1736 414 1772 Q453 1808 509 1808 Q565 1808 604 1772 Q643 1736 643 1681 L643 1667 Q643 1612 604 1577 Q565 1542 509 1542 Q453 1542 414 1577 Q375 1612 375 1667 L375 1681 ZM821 1773 Q861 1808 917 1808 Q973 1808 1012 1772 Q1051 1736 1051 1681 L1051 1667 Q1051 1612 1012 1577 Q973 1542 917 1542 Q861 1542 821 1577 Q782 1612 782 1667 L782 1681 Q782 1736 821 1773 ZM588 115 L588 557 L94 1235 Q66 1278 66 1326 Q66 1374 102 1409 Q139 1444 202 1444 Q265 1444 315 1368 L715 793 L1120 1370 Q1170 1446 1232 1446 Q1294 1446 1329 1410 Q1364 1374 1364 1327 Q1364 1280 1329 1233 L840 563 L840 115 Q840 62 803 26 Q766 -10 713 -10 Q660 -10 624 26 Q588 62 588 115 Z" /><glyph glyph-name="Zacute" unicode="&#x179;" d="M238 0 Q193 0 159 33 Q125 66 125 111 L125 117 Q125 180 172 233 L979 1210 L260 1210 Q215 1210 182 1243 Q149 1276 150 1321 Q150 1366 182 1400 Q215 1434 260 1434 L1202 1434 Q1247 1434 1281 1401 Q1315 1368 1315 1323 L1315 1317 Q1315 1258 1270 1200 L461 223 L1206 223 Q1253 223 1286 189 Q1319 154 1319 110 Q1319 66 1286 33 Q1253 0 1206 0 L238 0 ZM870 1597 Q812 1542 738 1542 Q664 1542 664 1585 Q664 1605 680 1630 L797 1810 Q834 1870 890 1870 Q946 1870 994 1844 Q1042 1818 1042 1788 Q1042 1758 1008 1729 L870 1597 Z" /><glyph glyph-name="zacute" unicode="&#x17a;" d="M221 0 Q170 0 135 29 Q100 58 100 100 L100 104 Q100 165 156 223 L731 879 L221 879 Q178 878 148 908 Q118 938 118 980 Q118 1022 148 1052 Q178 1082 221 1081 L934 1081 Q985 1082 1019 1054 Q1053 1026 1053 983 L1053 977 Q1053 918 999 858 L422 203 L954 203 Q997 203 1027 173 Q1057 143 1057 101 Q1057 60 1027 30 Q997 0 954 0 L221 0 ZM717 1264 Q658 1208 584 1208 Q510 1208 510 1251 Q510 1271 526 1296 L643 1477 Q680 1536 736 1536 Q792 1536 840 1510 Q888 1484 889 1454 Q889 1424 854 1395 L717 1264 Z" /><glyph glyph-name="Zdotaccent" unicode="&#x17b;" d="M870 1681 L870 1667 Q870 1612 830 1577 Q790 1542 732 1542 Q674 1542 634 1577 Q594 1612 594 1667 L594 1681 Q594 1736 634 1772 Q674 1808 731 1808 Q788 1808 829 1772 Q870 1736 870 1681 ZM238 0 Q193 0 159 33 Q125 66 125 111 L125 117 Q125 180 172 233 L979 1210 L260 1210 Q215 1210 182 1243 Q149 1276 150 1321 Q150 1366 182 1400 Q215 1434 260 1434 L1202 1434 Q1247 1434 1281 1401 Q1315 1368 1315 1323 L1315 1317 Q1315 1258 1270 1200 L461 223 L1206 223 Q1253 223 1286 189 Q1319 154 1319 110 Q1319 66 1286 33 Q1253 0 1206 0 L238 0 Z" /><glyph glyph-name="zdotaccent" unicode="&#x17c;" d="M717 1348 L717 1333 Q717 1278 677 1243 Q637 1208 579 1208 Q521 1208 480 1243 Q440 1278 440 1333 L440 1348 Q440 1403 480 1439 Q520 1475 578 1475 Q636 1475 676 1439 Q717 1403 717 1348 ZM221 0 Q170 0 135 29 Q100 58 100 100 L100 104 Q100 165 156 223 L731 879 L221 879 Q178 878 148 908 Q118 938 118 980 Q118 1022 148 1052 Q178 1082 221 1081 L934 1081 Q985 1082 1019 1054 Q1053 1026 1053 983 L1053 977 Q1053 918 999 858 L422 203 L954 203 Q997 203 1027 173 Q1057 143 1057 101 Q1057 60 1027 30 Q997 0 954 0 L221 0 Z" /><glyph glyph-name="Zcaron" unicode="&#x17d;" d="M238 0 Q193 0 159 33 Q125 66 125 111 L125 117 Q125 180 172 233 L979 1210 L260 1210 Q215 1210 182 1243 Q149 1276 150 1321 Q150 1366 182 1400 Q215 1434 260 1434 L1202 1434 Q1247 1434 1281 1401 Q1315 1368 1315 1323 L1315 1317 Q1315 1258 1270 1200 L461 223 L1206 223 Q1253 223 1286 189 Q1319 154 1319 110 Q1319 66 1286 33 Q1253 0 1206 0 L238 0 ZM694 1544 Q624 1544 575 1604 L440 1774 Q415 1807 416 1823 Q416 1864 475 1864 Q561 1864 627 1808 L733 1716 L840 1808 Q908 1863 991 1864 Q1046 1864 1047 1823 Q1047 1807 1022 1774 L887 1604 Q840 1545 768 1544 L694 1544 Z" /><glyph glyph-name="zcaron" unicode="&#x17e;" d="M221 0 Q170 0 135 29 Q100 58 100 100 L100 104 Q100 165 156 223 L731 879 L221 879 Q178 878 148 908 Q118 938 118 980 Q118 1022 148 1052 Q178 1082 221 1081 L934 1081 Q985 1082 1019 1054 Q1053 1026 1053 983 L1053 977 Q1053 918 999 858 L422 203 L954 203 Q997 203 1027 173 Q1057 143 1057 101 Q1057 60 1027 30 Q997 0 954 0 L221 0 ZM838 1530 Q893 1530 893 1489 Q893 1473 868 1440 L733 1270 Q686 1211 614 1210 L541 1210 Q471 1210 422 1270 L287 1440 Q262 1473 262 1489 Q262 1530 335 1530 Q408 1530 473 1475 L580 1382 L686 1475 Q754 1530 838 1530 Z" /><glyph glyph-name="florin" unicode="&#x192;" d="M840 936 Q884 936 914 905 Q944 874 944 831 Q944 788 914 758 Q884 728 840 729 L637 729 L559 293 Q530 130 446 58 Q362 -14 217 -14 Q156 -14 120 14 Q84 42 84 87 Q84 131 113 161 Q142 191 186 193 Q292 201 315 330 L387 729 L317 729 Q274 729 244 759 Q214 790 213 832 Q213 874 244 905 Q275 936 317 936 L422 936 L459 1128 Q490 1288 572 1367 Q655 1446 817 1446 Q872 1446 918 1441 Q964 1436 990 1406 Q1016 1376 1016 1334 Q1016 1292 986 1262 Q956 1232 913 1233 L864 1237 Q792 1237 752 1199 Q712 1161 698 1077 L674 936 L840 936 Z" /><glyph glyph-name="Aringacute" unicode="&#x1fa;" d="M553 569 L1057 569 L805 1149 L553 569 ZM720 1491 Q758 1454 809 1454 Q860 1454 898 1491 Q936 1528 936 1579 L936 1583 Q936 1634 898 1671 Q860 1708 809 1708 Q758 1708 720 1671 Q682 1634 682 1583 L682 1579 Q682 1528 720 1491 ZM1513 98 Q1512 62 1478 26 Q1444 -10 1393 -10 Q1311 -10 1270 78 L1153 346 L457 346 L338 70 Q301 -10 221 -10 Q172 -10 137 24 Q102 58 102 106 Q102 120 117 160 L674 1401 Q576 1469 575 1579 L575 1583 Q575 1673 646 1740 Q717 1806 809 1806 Q901 1806 972 1740 Q1043 1674 1042 1583 L1042 1579 Q1042 1464 944 1401 L1499 162 Q1513 134 1513 98 ZM948 1913 Q890 1858 816 1858 Q742 1858 741 1901 Q741 1921 758 1946 L874 2126 Q912 2185 968 2185 Q1024 2186 1072 2160 Q1120 2134 1120 2104 Q1120 2074 1085 2044 L948 1913 Z" /><glyph glyph-name="aringacute" unicode="&#x1fb;" d="M513 1350 Q551 1313 602 1313 Q653 1313 691 1350 Q729 1387 729 1438 L729 1442 Q729 1493 691 1530 Q653 1567 602 1567 Q551 1567 513 1530 Q475 1493 475 1442 L475 1438 Q475 1387 513 1350 ZM741 1782 Q682 1726 608 1726 Q534 1726 535 1769 Q535 1789 551 1815 L668 1995 Q705 2054 761 2054 Q817 2054 865 2028 Q913 2002 913 1973 Q913 1943 879 1913 L741 1782 ZM326 322 Q326 246 386 202 Q446 158 554 158 Q662 158 744 222 Q826 286 825 389 L825 463 Q714 506 588 506 Q462 506 393 458 Q325 410 326 326 L326 322 ZM765 1281 Q694 1214 602 1214 Q510 1214 439 1281 Q368 1348 369 1438 L369 1442 Q370 1534 440 1600 Q510 1666 602 1665 Q694 1665 765 1599 Q836 1533 836 1442 L836 1438 Q836 1348 765 1281 ZM467 -23 Q308 -24 196 66 Q84 156 84 311 L84 315 Q84 485 205 574 Q326 664 503 664 Q680 664 821 618 L821 645 Q821 760 753 820 Q684 880 553 880 Q422 880 313 838 Q245 817 207 854 Q170 891 170 934 Q170 1006 238 1032 Q406 1095 586 1096 Q828 1096 944 975 Q1061 860 1061 641 L1061 109 Q1061 58 1026 24 Q991 -10 939 -10 Q887 -10 853 20 Q819 50 819 94 L819 135 Q688 -23 467 -23 Z" /><glyph glyph-name="AEacute" unicode="&#x1fc;" d="M997 569 L997 1214 L956 1214 L586 569 L997 569 ZM101 17 Q70 47 70 90 Q70 133 90 164 L780 1346 Q829 1434 928 1434 L1913 1434 Q1958 1434 1992 1401 Q2026 1368 2026 1321 Q2026 1274 1992 1241 Q1960 1208 1913 1208 L1249 1208 L1249 836 L1821 836 Q1868 836 1901 802 Q1934 768 1934 722 Q1934 676 1900 643 Q1868 610 1821 610 L1249 610 L1249 225 L1923 225 Q1970 224 2003 192 Q2036 160 2036 113 Q2036 66 2003 33 Q1970 0 1923 0 L1124 0 Q1071 0 1034 37 Q997 74 997 127 L997 346 L457 346 L291 57 Q250 -13 180 -12 Q133 -12 101 17 ZM1411 1597 Q1352 1542 1278 1542 Q1204 1542 1204 1585 Q1204 1605 1221 1630 L1337 1810 Q1374 1870 1430 1870 Q1486 1870 1535 1844 Q1583 1818 1583 1788 Q1583 1758 1548 1729 L1411 1597 Z" /><glyph glyph-name="aeacute" unicode="&#x1fd;" d="M84 311 L84 315 Q84 485 204 574 Q324 663 526 664 Q671 664 813 618 L813 645 Q813 760 745 820 Q678 880 552 880 Q426 880 313 838 Q245 817 207 854 Q170 891 170 934 Q170 1006 238 1032 Q396 1095 582 1096 Q863 1096 963 920 Q1104 1104 1341 1104 Q1501 1104 1621 1021 Q1741 938 1795 820 Q1849 702 1849 571 Q1850 520 1816 486 Q1782 452 1733 453 L1057 453 Q1077 324 1161 251 Q1245 178 1377 178 Q1509 178 1624 272 Q1651 295 1690 295 Q1730 295 1758 266 Q1786 238 1786 194 Q1786 150 1751 119 Q1590 -24 1346 -24 Q1102 -24 944 160 Q725 -22 492 -23 Q316 -24 200 66 Q84 156 84 311 ZM532 160 Q704 160 854 299 Q821 381 813 465 Q698 506 577 506 Q456 506 390 458 Q324 410 326 326 L326 322 Q326 248 385 204 Q444 160 532 160 ZM1526 821 Q1454 901 1338 901 Q1222 901 1146 822 Q1070 743 1053 616 L1610 616 Q1598 741 1526 821 ZM1106 1264 Q1048 1208 974 1208 Q900 1208 899 1251 Q899 1271 915 1296 L1032 1477 Q1069 1536 1125 1536 Q1182 1536 1230 1510 Q1278 1484 1278 1454 Q1278 1424 1243 1395 L1106 1264 Z" /><glyph glyph-name="Oslashacute" unicode="&#x1fe;" d="M1008 1618 Q948 1563 874 1563 Q800 1563 801 1606 Q801 1626 817 1651 L934 1831 Q971 1890 1027 1890 Q1083 1890 1132 1865 Q1180 1839 1180 1809 Q1180 1779 1145 1749 L1008 1618 ZM381 717 Q381 555 467 424 L1151 1139 Q1026 1231 868 1231 Q657 1230 519 1082 Q381 934 381 721 L381 717 ZM872 203 Q1083 203 1222 351 Q1360 499 1360 713 L1360 717 Q1360 875 1274 1010 L588 293 Q712 203 872 203 ZM868 -25 Q614 -25 422 113 L324 14 Q293 -20 250 -20 Q207 -20 182 4 Q158 28 158 64 Q158 102 193 137 L289 238 Q121 441 121 713 L121 717 Q121 1024 334 1241 Q547 1458 872 1458 Q1128 1458 1319 1319 L1417 1419 Q1452 1454 1492 1454 Q1532 1454 1558 1430 Q1584 1406 1584 1369 Q1584 1331 1548 1296 L1452 1196 Q1620 993 1620 721 L1620 717 Q1620 410 1407 192 Q1194 -26 868 -25 Z" /><glyph glyph-name="oslashacute" unicode="&#x1ff;" d="M811 1264 Q752 1208 678 1208 Q604 1208 604 1251 Q604 1271 621 1296 L737 1477 Q774 1536 830 1536 Q886 1536 935 1510 Q983 1484 983 1454 Q983 1424 948 1395 L811 1264 ZM674 186 Q824 186 916 288 Q1008 390 1008 535 L1008 539 Q1008 637 961 719 L492 240 Q570 186 674 186 ZM338 539 Q338 443 383 358 L852 838 Q770 893 670 893 Q522 893 430 792 Q338 691 338 543 L338 539 ZM670 -25 Q486 -25 338 74 L279 12 Q242 -25 205 -25 Q168 -25 144 -2 Q120 20 120 56 Q120 92 156 127 L215 188 Q96 335 96 535 L96 539 Q96 776 262 940 Q428 1104 674 1104 Q860 1104 1006 1004 L1067 1067 Q1104 1104 1141 1104 Q1178 1104 1202 1082 Q1226 1060 1225 1026 Q1225 992 1190 952 L1128 891 Q1249 737 1249 543 L1249 539 Q1250 306 1084 140 Q918 -26 670 -25 Z" /><glyph glyph-name="Scommaaccent" unicode="&#x218;" d="M686 -20 Q389 -20 147 160 Q98 195 98 250 Q98 305 133 339 Q168 373 214 373 Q260 373 291 350 Q477 203 692 203 Q809 203 878 253 Q947 303 946 383 L946 387 Q946 467 881 514 Q816 561 658 599 Q500 637 418 668 Q228 740 175 867 Q145 938 145 1034 L145 1038 Q144 1222 282 1338 Q420 1454 654 1454 Q888 1454 1090 1321 Q1145 1290 1145 1231 Q1145 1172 1110 1138 Q1075 1104 1033 1104 Q991 1104 961 1122 Q793 1231 631 1231 Q526 1231 462 1183 Q398 1135 397 1061 L397 1057 Q397 973 466 927 Q535 882 756 828 Q978 774 1088 679 Q1198 584 1198 412 L1198 408 Q1198 209 1057 94 Q915 -20 686 -20 ZM537 -233 Q538 -186 572 -156 Q606 -126 664 -125 Q722 -125 757 -164 Q793 -203 793 -268 L793 -274 Q793 -419 705 -496 Q631 -564 528 -563 Q475 -563 475 -520 Q475 -487 518 -477 Q651 -448 647 -346 Q536 -328 537 -238 L537 -233 Z" /><glyph glyph-name="scommaaccent" unicode="&#x219;" d="M526 -20 Q303 -20 115 109 Q68 134 68 185 Q68 236 96 266 Q124 296 161 295 Q197 295 221 281 Q377 177 532 176 Q612 176 656 208 Q700 240 700 293 L700 297 Q700 375 483 440 L459 449 Q209 516 148 637 Q120 692 121 766 L121 770 Q121 920 230 1010 Q340 1100 510 1100 Q680 1100 846 1012 Q905 981 905 928 Q906 875 876 846 Q846 817 812 817 Q778 817 754 829 Q610 903 520 903 Q430 903 389 873 Q348 843 348 797 L348 793 Q348 742 412 707 Q476 672 570 644 Q664 616 713 594 Q852 533 899 446 Q928 393 928 324 L928 319 Q928 156 815 68 Q702 -20 526 -20 ZM391 -231 L391 -227 Q391 -180 426 -150 Q461 -120 518 -119 Q575 -119 611 -158 Q647 -197 647 -262 L647 -268 Q647 -413 559 -489 Q485 -557 383 -557 Q330 -557 330 -514 Q330 -479 373 -471 Q506 -442 502 -340 Q391 -322 391 -231 Z" /><glyph glyph-name="schwa" unicode="&#x259;" d="M197 963 Q356 1106 590 1106 Q824 1106 982 949 Q1140 792 1141 545 L1141 541 Q1141 305 991 141 Q841 -23 612 -23 Q448 -23 328 60 Q101 217 98 510 Q98 561 132 595 Q166 629 215 629 L893 629 Q872 758 788 830 Q704 902 572 903 Q440 903 326 809 Q297 786 259 786 Q220 786 192 815 Q164 844 164 887 Q164 930 197 963 ZM424 260 Q496 180 612 180 Q728 180 803 259 Q879 338 895 465 L340 465 Q352 340 424 260 Z" /><glyph glyph-name="circumflex" unicode="&#x2c6;" d="M197 1249 Q197 1265 221 1298 L356 1468 Q405 1527 475 1528 L549 1528 Q621 1528 668 1468 L803 1298 Q828 1265 827 1249 Q828 1208 756 1208 Q684 1208 616 1264 L510 1356 L403 1264 Q337 1209 252 1208 Q197 1208 197 1249 Z" /><glyph glyph-name="caron" unicode="&#x2c7;" d="M772 1530 Q827 1530 827 1489 Q827 1473 803 1440 L668 1270 Q621 1211 549 1210 L475 1210 Q405 1210 356 1270 L221 1440 Q196 1473 197 1489 Q197 1530 256 1530 Q342 1530 408 1475 L514 1382 L621 1475 Q689 1530 772 1530 Z" /><glyph glyph-name="breve" unicode="&#x2d8;" d="M825 1378 Q733 1214 512 1214 Q291 1214 199 1378 Q160 1457 207 1504 Q232 1530 276 1530 Q320 1530 346 1483 Q399 1389 514 1389 Q629 1389 678 1483 Q705 1530 749 1530 Q794 1530 818 1504 Q842 1478 842 1444 Q842 1410 825 1378 Z" /><glyph glyph-name="dotaccent" unicode="&#x2d9;" d="M651 1348 L651 1333 Q651 1278 611 1243 Q571 1208 513 1208 Q455 1208 415 1243 Q375 1278 375 1333 L375 1348 Q375 1403 415 1439 Q455 1475 512 1475 Q569 1475 610 1439 Q651 1403 651 1348 Z" /><glyph glyph-name="ring" unicode="&#x2da;" d="M423 1350 Q461 1313 512 1313 Q563 1313 601 1350 Q639 1387 639 1438 L639 1442 Q639 1493 601 1530 Q563 1567 512 1567 Q461 1567 423 1530 Q385 1493 385 1442 L385 1438 Q385 1387 423 1350 ZM674 1281 Q604 1214 512 1214 Q420 1214 349 1281 Q278 1348 279 1438 L279 1442 Q280 1534 350 1600 Q420 1666 512 1665 Q604 1665 675 1599 Q746 1533 745 1442 L745 1438 Q744 1348 674 1281 Z" /><glyph glyph-name="ogonek" unicode="&#x2db;" d="M373 -166 Q373 -78 479 25 L645 14 Q561 -64 561 -127 Q561 -190 651 -213 Q719 -229 719 -276 Q719 -339 637 -340 Q528 -340 450 -297 Q372 -254 373 -166 Z" /><glyph glyph-name="tilde" unicode="&#x2dc;" d="M281 1235 Q254 1194 218 1194 Q182 1194 160 1214 Q138 1234 137 1257 Q137 1280 145 1309 Q180 1403 228 1449 Q276 1495 346 1495 Q416 1495 516 1454 Q616 1413 649 1413 Q708 1413 743 1479 Q770 1520 806 1520 Q842 1520 864 1500 Q886 1480 887 1456 Q887 1434 879 1405 Q844 1311 796 1265 Q748 1219 678 1219 Q608 1219 508 1260 Q408 1301 375 1300 Q316 1301 281 1235 Z" /><glyph glyph-name="hungarumlaut" unicode="&#x2dd;" d="M346 1264 Q290 1208 218 1208 Q146 1208 145 1251 Q145 1271 162 1296 L281 1477 Q316 1536 370 1536 Q424 1536 471 1511 Q518 1486 518 1458 Q518 1430 483 1395 L346 1264 ZM721 1264 Q662 1208 592 1208 Q522 1208 520 1251 Q520 1271 537 1296 L655 1477 Q690 1536 744 1536 Q798 1536 846 1511 Q893 1486 893 1458 Q893 1430 858 1395 L721 1264 Z" /><glyph glyph-name="commaaccent" unicode="&#x326;" d="M385 -231 L385 -227 Q385 -180 420 -150 Q455 -120 512 -119 Q569 -119 605 -158 Q641 -197 641 -262 L641 -268 Q641 -413 553 -489 Q479 -557 377 -557 Q324 -557 324 -514 Q324 -479 367 -471 Q500 -442 496 -340 Q385 -322 385 -231 Z" /><glyph glyph-name="Wgrave" unicode="&#x1e80;" d="M1194 1585 Q1192 1542 1118 1542 Q1044 1542 987 1597 L848 1729 Q813 1760 813 1790 Q813 1820 861 1844 Q910 1870 966 1870 Q1022 1870 1059 1810 L1176 1630 Q1194 1601 1194 1585 ZM96 1272 Q86 1296 86 1334 Q86 1372 124 1408 Q162 1444 211 1444 Q260 1444 294 1418 Q328 1392 340 1352 L670 367 L993 1348 Q1028 1448 1120 1448 L1139 1448 Q1235 1448 1266 1348 L1589 367 L1919 1354 Q1952 1444 2042 1444 Q2093 1444 2130 1409 Q2167 1374 2167 1337 Q2167 1300 2154 1272 L1731 84 Q1694 -20 1599 -20 L1575 -20 Q1483 -20 1446 84 L1126 1020 L807 84 Q770 -20 676 -20 L651 -20 Q559 -20 520 84 L96 1272 Z" /><glyph glyph-name="wgrave" unicode="&#x1e81;" d="M940 1251 Q940 1208 866 1208 Q792 1208 733 1264 L594 1395 Q559 1426 559 1456 Q559 1486 607 1510 Q656 1536 712 1536 Q768 1536 805 1477 L922 1296 Q940 1269 940 1251 ZM518 -18 Q418 -18 381 92 L90 915 Q78 948 78 987 Q78 1026 112 1060 Q146 1094 199 1094 Q289 1094 319 995 L528 340 L739 995 Q770 1093 866 1094 L881 1094 Q977 1094 1008 995 L1221 340 L1432 997 Q1461 1093 1552 1094 Q1601 1094 1635 1060 Q1669 1026 1669 990 Q1669 954 1659 924 L1364 92 Q1325 -19 1227 -18 L1219 -18 Q1117 -18 1083 88 L872 731 L659 88 Q626 -18 526 -18 L518 -18 Z" /><glyph glyph-name="Wacute" unicode="&#x1e82;" d="M96 1272 Q86 1296 86 1334 Q86 1372 124 1408 Q162 1444 211 1444 Q260 1444 294 1418 Q328 1392 340 1352 L670 367 L993 1348 Q1028 1448 1120 1448 L1139 1448 Q1235 1448 1266 1348 L1589 367 L1919 1354 Q1952 1444 2042 1444 Q2093 1444 2130 1409 Q2167 1374 2167 1337 Q2167 1300 2154 1272 L1731 84 Q1694 -20 1599 -20 L1575 -20 Q1483 -20 1446 84 L1126 1020 L807 84 Q770 -20 676 -20 L651 -20 Q559 -20 520 84 L96 1272 ZM1264 1597 Q1204 1542 1130 1542 Q1056 1542 1057 1585 Q1057 1605 1073 1630 L1190 1810 Q1227 1870 1283 1870 Q1340 1870 1388 1844 Q1436 1818 1436 1788 Q1436 1758 1401 1729 L1264 1597 Z" /><glyph glyph-name="wacute" unicode="&#x1e83;" d="M518 -18 Q418 -18 381 92 L90 915 Q78 948 78 987 Q78 1026 112 1060 Q146 1094 199 1094 Q289 1094 319 995 L528 340 L739 995 Q770 1093 866 1094 L881 1094 Q977 1094 1008 995 L1221 340 L1432 997 Q1461 1093 1552 1094 Q1601 1094 1635 1060 Q1669 1026 1669 990 Q1669 954 1659 924 L1364 92 Q1325 -19 1227 -18 L1219 -18 Q1117 -18 1083 88 L872 731 L659 88 Q626 -18 526 -18 L518 -18 ZM1010 1264 Q950 1208 876 1208 Q802 1208 803 1251 Q803 1271 819 1296 L936 1477 Q973 1536 1029 1536 Q1086 1536 1134 1510 Q1182 1484 1182 1454 Q1182 1424 1147 1395 L1010 1264 Z" /><glyph glyph-name="Wdieresis" unicode="&#x1e84;" d="M96 1272 Q86 1296 86 1334 Q86 1372 124 1408 Q162 1444 211 1444 Q260 1444 294 1418 Q328 1392 340 1352 L670 367 L993 1348 Q1028 1448 1120 1448 L1139 1448 Q1235 1448 1266 1348 L1589 367 L1919 1354 Q1952 1444 2042 1444 Q2093 1444 2130 1409 Q2167 1374 2167 1337 Q2167 1300 2154 1272 L1731 84 Q1694 -20 1599 -20 L1575 -20 Q1483 -20 1446 84 L1126 1020 L807 84 Q770 -20 676 -20 L651 -20 Q559 -20 520 84 L96 1272 ZM825 1773 Q865 1808 921 1808 Q977 1808 1016 1772 Q1055 1736 1055 1681 L1055 1667 Q1055 1612 1016 1577 Q977 1542 921 1542 Q865 1542 825 1577 Q786 1612 786 1667 L786 1681 Q786 1736 825 1773 ZM1194 1681 Q1194 1736 1233 1772 Q1272 1808 1328 1808 Q1384 1808 1423 1772 Q1462 1736 1462 1681 L1462 1667 Q1462 1612 1423 1577 Q1384 1542 1328 1542 Q1272 1542 1233 1577 Q1194 1612 1194 1667 L1194 1681 Z" /><glyph glyph-name="wdieresis" unicode="&#x1e85;" d="M518 -18 Q418 -18 381 92 L90 915 Q78 948 78 987 Q78 1026 112 1060 Q146 1094 199 1094 Q289 1094 319 995 L528 340 L739 995 Q770 1093 866 1094 L881 1094 Q977 1094 1008 995 L1221 340 L1432 997 Q1461 1093 1552 1094 Q1601 1094 1635 1060 Q1669 1026 1669 990 Q1669 954 1659 924 L1364 92 Q1325 -19 1227 -18 L1219 -18 Q1117 -18 1083 88 L872 731 L659 88 Q626 -18 526 -18 L518 -18 ZM571 1439 Q611 1475 667 1475 Q723 1475 762 1439 Q801 1403 801 1348 L801 1333 Q801 1278 762 1243 Q723 1208 667 1208 Q611 1208 571 1243 Q532 1278 532 1333 L532 1348 Q532 1403 571 1439 ZM979 1439 Q1018 1475 1074 1475 Q1130 1475 1169 1439 Q1208 1403 1208 1348 L1208 1333 Q1208 1278 1169 1243 Q1130 1208 1074 1208 Q1018 1208 979 1243 Q940 1278 940 1333 L940 1348 Q940 1403 979 1439 Z" /><glyph glyph-name="Ygrave" unicode="&#x1ef2;" d="M782 1585 Q782 1542 708 1542 Q634 1542 575 1597 L436 1729 Q401 1760 401 1790 Q402 1820 450 1844 Q498 1870 554 1870 Q610 1870 647 1810 L764 1630 Q782 1601 782 1585 ZM588 115 L588 557 L94 1235 Q66 1278 66 1326 Q66 1374 102 1409 Q139 1444 202 1444 Q265 1444 315 1368 L715 793 L1120 1370 Q1170 1446 1232 1446 Q1294 1446 1329 1410 Q1364 1374 1364 1327 Q1364 1280 1329 1233 L840 563 L840 115 Q840 62 803 26 Q766 -10 713 -10 Q660 -10 624 26 Q588 62 588 115 Z" /><glyph glyph-name="ygrave" unicode="&#x1ef3;" d="M672 1251 Q670 1208 596 1208 Q522 1208 465 1264 L326 1395 Q291 1426 291 1456 Q291 1486 339 1510 Q387 1536 443 1536 Q499 1536 537 1477 L653 1296 Q671 1269 672 1251 ZM565 -266 Q482 -334 370 -334 Q258 -334 180 -303 Q102 -276 102 -201 Q102 -156 132 -127 Q162 -98 192 -98 Q222 -98 261 -109 Q299 -120 344 -120 Q389 -120 423 -95 Q457 -69 487 -6 L496 16 L94 913 Q80 946 80 985 Q80 1024 115 1059 Q150 1094 203 1094 Q287 1094 324 999 L614 281 L885 999 Q922 1093 1004 1094 Q1054 1094 1088 1060 Q1122 1026 1122 987 Q1122 948 1112 918 L717 -31 Q647 -198 565 -266 Z" /><glyph glyph-name="enspace" unicode="&#x2002;" d="" /><glyph glyph-name="emspace" unicode="&#x2003;" d="" /><glyph glyph-name="threeperemspace" unicode="&#x2004;" d="" /><glyph glyph-name="fourperemspace" unicode="&#x2005;" d="" /><glyph glyph-name="thinspace" unicode="&#x2009;" d="" /><glyph glyph-name="hairspace" unicode="&#x200a;" d="" /><glyph glyph-name="endash" unicode="&#x2013;" d="M221 510 Q174 510 139 545 Q104 580 104 628 Q104 676 139 711 Q174 746 221 745 L860 745 Q907 744 942 710 Q977 676 977 628 Q977 580 942 545 Q907 510 860 510 L221 510 Z" /><glyph glyph-name="emdash" unicode="&#x2014;" d="M221 510 Q174 510 139 545 Q104 580 104 628 Q104 676 139 711 Q174 746 221 745 L1618 745 Q1665 744 1700 710 Q1735 676 1735 628 Q1735 580 1700 545 Q1665 510 1618 510 L221 510 Z" /><glyph glyph-name="quoteleft" unicode="&#x2018;" d="M481 1384 Q481 1343 432 1329 Q287 1284 293 1147 Q342 1133 376 1096 Q410 1059 410 1008 L410 991 Q410 932 371 893 Q332 854 267 854 Q202 854 162 903 Q122 952 123 1034 L123 1055 Q123 1256 225 1354 Q309 1442 418 1442 Q481 1441 481 1384 Z" /><glyph glyph-name="quoteright" unicode="&#x2019;" d="M72 913 Q72 954 119 969 Q264 1014 258 1153 Q209 1165 175 1201 Q141 1237 141 1290 L141 1307 Q141 1366 180 1405 Q219 1444 284 1444 Q348 1444 388 1395 Q428 1346 428 1264 L428 1243 Q428 1044 334 950 Q240 856 135 856 Q72 856 72 913 Z" /><glyph glyph-name="quotesinglbase" unicode="&#x201a;" d="M61 -240 Q61 -195 109 -184 Q254 -137 248 0 Q199 14 165 51 Q131 88 131 139 L131 156 Q131 215 170 254 Q208 293 274 293 Q340 293 379 245 Q418 197 418 113 L418 90 Q418 -105 317 -209 Q225 -297 125 -297 Q61 -297 61 -240 Z" /><glyph glyph-name="quotedblleft" unicode="&#x201c;" d="M481 1384 Q481 1343 432 1329 Q287 1284 293 1147 Q342 1133 376 1096 Q410 1059 410 1008 L410 991 Q410 932 371 893 Q332 854 267 854 Q202 854 162 903 Q122 952 123 1034 L123 1055 Q123 1256 225 1354 Q309 1442 418 1442 Q481 1441 481 1384 ZM956 1384 Q956 1343 907 1329 Q762 1284 768 1147 Q817 1133 851 1096 Q885 1059 885 1008 L885 991 Q885 932 846 893 Q807 854 742 854 Q678 854 638 903 Q598 952 598 1034 L598 1055 Q598 1254 692 1348 Q786 1442 891 1442 Q956 1441 956 1384 Z" /><glyph glyph-name="quotedblright" unicode="&#x201d;" d="M545 913 Q545 954 594 969 Q739 1014 733 1153 Q684 1165 650 1201 Q616 1237 616 1290 L616 1307 Q616 1366 655 1405 Q694 1444 759 1444 Q824 1444 864 1395 Q904 1346 903 1264 L903 1243 Q903 1042 801 944 Q717 856 608 856 Q545 856 545 913 ZM72 913 Q72 954 119 969 Q264 1014 258 1153 Q209 1165 175 1201 Q141 1237 141 1290 L141 1307 Q141 1366 180 1405 Q219 1444 284 1444 Q348 1444 388 1395 Q428 1346 428 1264 L428 1243 Q428 1044 334 950 Q240 856 135 856 Q72 856 72 913 Z" /><glyph glyph-name="quotedblbase" unicode="&#x201e;" d="M535 -240 Q535 -195 584 -184 Q729 -137 723 0 Q674 14 640 51 Q606 88 606 139 L606 156 Q606 215 645 254 Q684 293 748 293 Q812 293 853 244 Q893 195 893 113 L893 90 Q893 -107 798 -202 Q703 -297 598 -297 Q535 -297 535 -240 ZM61 -240 Q61 -195 109 -184 Q254 -137 248 0 Q199 14 165 51 Q131 88 131 139 L131 156 Q131 215 170 254 Q208 293 274 293 Q340 293 379 245 Q418 197 418 113 L418 90 Q418 -105 317 -209 Q225 -297 125 -297 Q61 -297 61 -240 Z" /><glyph glyph-name="dagger" unicode="&#x2020;" d="M104 1105 Q104 1135 126 1155 Q148 1175 178 1174 L362 1159 L344 1360 Q342 1396 365 1420 Q388 1444 420 1444 Q452 1444 476 1420 Q498 1396 496 1360 L479 1159 L662 1174 Q692 1176 714 1156 Q736 1136 736 1106 Q736 1075 714 1055 Q692 1035 659 1036 L477 1051 L492 555 Q494 522 472 500 Q450 478 420 477 Q390 476 368 498 Q346 520 348 553 L365 1051 L180 1036 Q148 1034 126 1054 Q104 1074 104 1105 Z" /><glyph glyph-name="daggerdbl" unicode="&#x2021;" d="M386 1420 Q408 1444 440 1444 Q472 1444 496 1420 Q519 1396 516 1360 L500 1159 L682 1174 Q712 1176 734 1156 Q756 1136 756 1106 Q756 1075 734 1055 Q712 1035 680 1036 L498 1051 L514 717 L498 383 L680 397 Q712 399 734 379 Q756 359 756 328 Q756 297 734 278 Q712 259 682 260 L500 274 L516 74 Q518 37 496 13 Q474 -10 440 -10 Q407 -10 385 14 Q363 38 365 74 L383 274 L199 260 Q168 258 146 278 Q124 298 124 329 Q124 359 146 379 Q168 399 201 397 L383 383 L367 717 L383 1051 L201 1036 Q168 1034 146 1054 Q124 1074 124 1105 Q124 1135 146 1155 Q168 1175 199 1174 L383 1159 L365 1360 Q364 1396 386 1420 Z" /><glyph glyph-name="bullet" unicode="&#x2022;" d="M708 516 Q623 432 503 432 Q383 432 298 516 Q213 600 213 719 L213 723 Q213 842 299 927 Q385 1012 503 1012 Q621 1012 707 927 Q793 842 793 723 L793 719 Q793 600 708 516 Z" /><glyph glyph-name="ellipsis" unicode="&#x2026;" d="M131 152 Q131 213 171 253 Q211 293 272 293 Q334 293 374 253 Q414 213 414 152 L414 131 Q414 70 374 30 Q334 -10 272 -10 Q210 -10 171 30 Q131 70 131 131 L131 152 ZM670 152 Q670 213 710 253 Q750 293 811 293 Q872 293 912 253 Q952 213 952 152 L952 131 Q952 70 912 30 Q872 -10 811 -10 Q750 -10 710 30 Q670 70 670 131 L670 152 ZM1208 152 Q1208 213 1248 253 Q1288 293 1350 293 Q1412 293 1451 253 Q1491 213 1491 152 L1491 131 Q1491 70 1451 30 Q1411 -10 1350 -10 Q1289 -10 1248 30 Q1208 70 1208 131 L1208 152 Z" /><glyph glyph-name="perthousand" unicode="&#x2030;" d="M1147 350 Q1147 262 1192 202 Q1237 142 1306 141 Q1374 140 1416 200 Q1458 260 1458 346 L1458 350 Q1458 438 1413 498 Q1368 558 1299 559 Q1230 559 1188 500 Q1146 441 1147 354 L1147 350 ZM1923 350 Q1923 262 1968 202 Q2013 142 2082 141 Q2150 140 2192 200 Q2234 260 2234 346 L2234 350 Q2234 438 2189 498 Q2144 558 2076 559 Q2008 559 1965 500 Q1923 441 1923 354 L1923 350 ZM281 1083 Q282 994 326 934 Q370 874 439 874 Q508 874 550 934 Q592 994 592 1079 L592 1083 Q592 1172 547 1232 Q502 1292 433 1292 Q364 1292 322 1233 Q280 1174 281 1087 L281 1083 ZM1545 91 Q1450 -16 1302 -16 Q1154 -16 1059 89 Q965 194 965 346 L965 350 Q965 504 1060 610 Q1156 716 1304 716 Q1452 716 1546 612 Q1640 506 1640 354 L1640 350 Q1640 198 1545 91 ZM2417 350 Q2417 198 2322 91 Q2226 -16 2078 -16 Q1930 -16 1835 89 Q1741 194 1741 346 L1741 350 Q1741 504 1836 610 Q1932 716 2080 716 Q2228 716 2322 612 Q2416 506 2417 354 L2417 350 ZM467 27 Q442 -10 401 -10 Q360 -10 338 14 Q316 38 315 67 Q315 97 334 123 L1274 1407 Q1294 1444 1336 1444 Q1378 1444 1402 1420 Q1450 1372 1407 1311 L467 27 ZM679 823 Q584 717 436 717 Q288 717 193 822 Q99 927 98 1079 L98 1083 Q98 1237 194 1343 Q290 1450 438 1450 Q588 1450 681 1345 Q774 1240 774 1087 L774 1083 Q774 929 679 823 Z" /><glyph glyph-name="guilsinglleft" unicode="&#x2039;" d="M588 185 Q588 146 558 116 Q528 86 480 86 Q432 86 399 129 L135 469 Q106 508 106 543 Q106 578 135 612 L393 946 Q432 995 480 995 Q528 994 557 964 Q586 934 586 896 Q586 858 559 823 L342 543 L563 256 Q588 225 588 185 Z" /><glyph glyph-name="guilsinglright" unicode="&#x203a;" d="M244 995 Q291 995 326 950 L590 612 Q621 572 621 540 Q621 508 590 467 L332 135 Q297 86 247 86 Q197 86 168 116 Q139 146 139 186 Q139 226 168 258 L383 537 L164 823 Q137 856 138 896 Q139 936 168 966 Q197 996 244 995 Z" /><glyph glyph-name="fraction" unicode="&#x2044;" d="M26 -211 Q-26 -212 -54 -184 Q-82 -156 -82 -123 Q-82 -90 -68 -61 L791 1511 Q818 1562 869 1562 Q920 1562 948 1535 Q976 1507 977 1474 Q977 1441 963 1413 L104 -160 Q77 -211 26 -211 Z" /><glyph glyph-name="Euro" unicode="&#x20ac;" d="M1256 397 Q1306 396 1340 364 Q1372 332 1372 288 Q1372 244 1348 215 Q1164 -25 889 -25 Q666 -25 510 106 Q354 237 295 461 L184 461 Q148 460 122 486 Q96 512 96 548 Q96 584 122 610 Q148 636 184 637 L264 637 Q262 662 262 720 Q262 778 266 809 L184 809 Q148 809 122 835 Q96 860 96 896 Q96 932 122 958 Q148 984 184 983 L299 983 Q360 1196 514 1327 Q668 1458 881 1458 Q1155 1458 1335 1249 Q1368 1216 1368 1166 Q1368 1116 1332 1081 Q1296 1046 1244 1046 Q1192 1046 1159 1087 Q1038 1232 874 1233 Q766 1233 684 1166 Q602 1099 559 983 L924 983 Q958 983 984 957 Q1010 932 1010 896 Q1010 860 984 834 Q958 808 924 809 L520 809 Q516 780 516 722 Q516 664 518 637 L924 637 Q958 637 984 610 Q1010 584 1010 548 Q1010 512 984 486 Q958 460 924 461 L555 461 Q598 336 684 268 Q770 200 891 201 Q1047 201 1171 356 Q1206 397 1256 397 Z" /><glyph glyph-name="published" unicode="&#x2117;" d="M737 721 L887 721 Q961 721 1004 757 Q1047 793 1047 852 L1047 856 Q1047 917 1005 951 Q963 985 887 985 L737 985 L737 721 ZM586 408 L586 1044 Q586 1075 608 1098 Q631 1121 662 1120 L899 1120 Q1036 1120 1118 1050 Q1200 980 1200 858 L1200 854 Q1200 727 1109 657 Q1018 587 883 588 L737 588 L737 408 Q736 375 714 353 Q692 332 662 332 Q632 332 608 353 Q586 375 586 408 ZM186 713 Q186 437 376 243 Q566 49 849 49 Q1131 49 1322 245 Q1513 441 1513 717 L1513 721 Q1513 997 1323 1191 Q1133 1384 851 1384 Q569 1384 378 1188 Q187 992 186 717 L186 713 ZM848 -25 Q539 -25 324 191 Q109 407 109 713 L109 717 Q109 1022 326 1240 Q543 1458 852 1458 Q1161 1458 1376 1242 Q1591 1026 1591 721 L1591 717 Q1591 412 1374 194 Q1157 -24 848 -25 Z" /><glyph glyph-name="servicemark" unicode="&#x2120;" d="M94 870 Q68 890 68 914 Q68 938 83 953 Q116 986 156 956 Q252 888 350 889 Q407 890 440 912 Q473 934 473 970 Q473 1006 441 1026 Q409 1046 307 1071 Q205 1096 148 1135 Q92 1174 92 1253 L92 1255 Q92 1338 157 1392 Q222 1446 334 1446 Q446 1446 537 1386 Q568 1368 568 1341 Q568 1314 552 1299 Q536 1284 516 1284 Q496 1284 481 1294 Q401 1343 336 1343 Q271 1344 240 1322 Q209 1300 209 1266 Q209 1232 242 1210 Q275 1190 375 1167 Q475 1144 532 1102 Q590 1060 590 977 Q590 895 521 843 Q452 791 328 791 Q204 791 94 870 ZM729 850 L729 1380 Q729 1405 746 1422 Q763 1439 788 1440 L803 1440 Q838 1440 856 1409 L1047 1106 L1239 1409 Q1257 1440 1290 1440 L1305 1440 Q1330 1440 1346 1422 Q1362 1404 1362 1380 L1362 850 Q1362 825 1346 809 Q1330 793 1305 793 Q1280 793 1264 809 Q1248 825 1247 850 L1247 1219 L1096 989 Q1076 958 1046 958 Q1016 958 993 989 L846 1217 L846 850 Q846 825 828 809 Q810 793 787 793 Q763 793 746 809 Q729 825 729 850 Z" /><glyph glyph-name="trademark" unicode="&#x2122;" d="M698 850 L698 1380 Q698 1405 716 1422 Q734 1439 758 1440 L772 1440 Q809 1440 827 1409 L1016 1106 L1208 1409 Q1226 1440 1262 1440 L1276 1440 Q1299 1440 1316 1422 Q1333 1404 1333 1380 L1333 850 Q1333 825 1316 809 Q1299 793 1275 793 Q1251 793 1234 809 Q1217 825 1217 850 L1217 1219 L1067 989 Q1047 958 1017 958 Q987 958 965 989 L815 1217 L815 850 Q815 825 798 809 Q781 793 757 793 Q734 793 716 809 Q698 825 698 850 ZM248 852 L248 1323 L96 1323 Q76 1323 59 1339 Q43 1355 43 1378 Q43 1401 58 1417 Q73 1433 96 1434 L520 1434 Q543 1434 558 1418 Q573 1402 573 1378 Q573 1355 557 1339 Q541 1323 520 1323 L369 1323 L369 852 Q370 827 352 810 Q334 793 308 793 Q282 793 265 810 Q248 827 248 852 Z" /><glyph glyph-name="minus" unicode="&#x2212;" d="M1053 604 L244 604 Q197 604 163 638 Q129 672 129 720 Q129 768 163 802 Q197 836 244 836 L1053 836 Q1102 836 1136 802 Q1170 768 1170 720 Q1170 672 1136 638 Q1102 604 1053 604 Z" /><glyph glyph-name="f_f" unicode="&#xfb00;" d="M981 113 L981 868 L938 868 Q895 868 864 898 Q833 928 834 971 Q834 1014 864 1044 Q894 1074 938 1075 L981 1075 L981 1155 Q981 1333 1068 1420 Q1155 1507 1313 1507 Q1381 1507 1427 1500 Q1472 1493 1498 1464 Q1524 1436 1524 1394 Q1524 1352 1493 1321 Q1462 1290 1426 1293 Q1390 1296 1368 1296 Q1225 1296 1225 1133 L1225 1073 L1417 1073 Q1462 1073 1492 1043 Q1522 1012 1522 970 Q1522 928 1491 898 Q1460 868 1417 868 L1229 868 L1229 113 Q1229 62 1192 26 Q1155 -10 1104 -10 Q1053 -10 1017 26 Q981 62 981 113 ZM211 113 L211 868 L168 868 Q125 868 94 898 Q63 928 63 971 Q63 1014 94 1044 Q125 1074 168 1075 L211 1075 L211 1155 Q211 1333 298 1420 Q385 1507 543 1507 Q611 1507 657 1500 Q702 1493 728 1464 Q754 1436 754 1394 Q754 1352 723 1321 Q692 1290 656 1293 Q620 1296 598 1296 Q455 1296 455 1133 L455 1073 L647 1073 Q692 1073 722 1043 Q752 1012 752 970 Q752 928 721 898 Q690 868 647 868 L459 868 L459 113 Q459 62 422 26 Q385 -10 334 -10 Q283 -10 247 26 Q211 62 211 113 Z" /><glyph glyph-name="fi" unicode="&#xfb01;" d="M211 113 L211 868 L168 868 Q125 868 94 898 Q63 928 63 971 Q63 1014 94 1044 Q125 1074 168 1075 L211 1075 L211 1155 Q211 1333 298 1420 Q385 1507 543 1507 Q611 1507 657 1500 Q702 1493 728 1464 Q754 1436 754 1394 Q754 1352 723 1321 Q692 1290 656 1293 Q620 1296 598 1296 Q455 1296 455 1133 L455 1073 L647 1073 Q692 1073 722 1043 Q752 1012 752 970 Q752 928 721 898 Q690 868 647 868 L459 868 L459 113 Q459 62 422 26 Q385 -10 334 -10 Q283 -10 247 26 Q211 62 211 113 ZM940 113 L940 969 Q940 1022 976 1058 Q1012 1094 1063 1094 Q1114 1094 1151 1057 Q1188 1020 1188 969 L1188 113 Q1188 62 1152 26 Q1116 -10 1064 -10 Q1012 -10 976 26 Q940 62 940 113 ZM922 1360 L922 1372 Q922 1427 962 1460 Q1002 1493 1063 1493 Q1124 1493 1164 1460 Q1204 1427 1204 1372 L1204 1360 Q1204 1305 1164 1271 Q1124 1237 1063 1237 Q1002 1237 962 1271 Q922 1305 922 1360 Z" /><glyph glyph-name="fl" unicode="&#xfb02;" d="M211 113 L211 868 L168 868 Q125 868 94 898 Q63 928 63 971 Q63 1014 94 1044 Q125 1074 168 1075 L211 1075 L211 1155 Q211 1333 298 1420 Q385 1507 543 1507 Q611 1507 657 1500 Q702 1493 728 1464 Q754 1436 754 1394 Q754 1352 723 1321 Q692 1290 656 1293 Q620 1296 598 1296 Q455 1296 455 1133 L455 1073 L647 1073 Q692 1073 722 1043 Q752 1012 752 970 Q752 928 721 898 Q690 868 647 868 L459 868 L459 113 Q459 62 422 26 Q385 -10 334 -10 Q283 -10 247 26 Q211 62 211 113 ZM940 113 L940 1382 Q940 1433 976 1469 Q1012 1505 1063 1505 Q1114 1505 1151 1469 Q1188 1433 1188 1382 L1188 113 Q1188 62 1152 26 Q1116 -10 1064 -10 Q1012 -10 976 26 Q940 62 940 113 Z" /><glyph glyph-name="f_f_i" unicode="&#xfb03;" d="M981 113 L981 868 L938 868 Q895 868 864 898 Q833 928 834 971 Q834 1014 864 1044 Q894 1074 938 1075 L981 1075 L981 1155 Q981 1333 1068 1420 Q1155 1507 1313 1507 Q1381 1507 1427 1500 Q1472 1493 1498 1464 Q1524 1436 1524 1394 Q1524 1352 1493 1321 Q1462 1290 1426 1293 Q1390 1296 1368 1296 Q1225 1296 1225 1133 L1225 1073 L1417 1073 Q1462 1073 1492 1043 Q1522 1012 1522 970 Q1522 928 1491 898 Q1460 868 1417 868 L1229 868 L1229 113 Q1229 62 1192 26 Q1155 -10 1104 -10 Q1053 -10 1017 26 Q981 62 981 113 ZM211 113 L211 868 L168 868 Q125 868 94 898 Q63 928 63 971 Q63 1014 94 1044 Q125 1074 168 1075 L211 1075 L211 1155 Q211 1333 298 1420 Q385 1507 543 1507 Q611 1507 657 1500 Q702 1493 728 1464 Q754 1436 754 1394 Q754 1352 723 1321 Q692 1290 656 1293 Q620 1296 598 1296 Q455 1296 455 1133 L455 1073 L647 1073 Q692 1073 722 1043 Q752 1012 752 970 Q752 928 721 898 Q690 868 647 868 L459 868 L459 113 Q459 62 422 26 Q385 -10 334 -10 Q283 -10 247 26 Q211 62 211 113 ZM1710 113 L1710 969 Q1710 1022 1746 1058 Q1782 1094 1833 1094 Q1884 1094 1921 1057 Q1958 1020 1958 969 L1958 113 Q1958 62 1922 26 Q1886 -10 1834 -10 Q1782 -10 1746 26 Q1710 62 1710 113 ZM1692 1360 L1692 1372 Q1692 1427 1732 1460 Q1772 1493 1833 1493 Q1894 1493 1934 1460 Q1974 1427 1974 1372 L1974 1360 Q1974 1305 1934 1271 Q1894 1237 1833 1237 Q1772 1237 1732 1271 Q1692 1305 1692 1360 Z" /><glyph glyph-name="f_f_l" unicode="&#xfb04;" d="M1710 113 L1710 1382 Q1710 1433 1746 1469 Q1782 1505 1833 1505 Q1884 1505 1921 1469 Q1958 1433 1958 1382 L1958 113 Q1958 62 1922 26 Q1886 -10 1834 -10 Q1782 -10 1746 26 Q1710 62 1710 113 ZM981 113 L981 868 L938 868 Q895 868 864 898 Q833 928 834 971 Q834 1014 864 1044 Q894 1074 938 1075 L981 1075 L981 1155 Q981 1333 1068 1420 Q1155 1507 1313 1507 Q1381 1507 1427 1500 Q1472 1493 1498 1464 Q1524 1436 1524 1394 Q1524 1352 1493 1321 Q1462 1290 1426 1293 Q1390 1296 1368 1296 Q1225 1296 1225 1133 L1225 1073 L1417 1073 Q1462 1073 1492 1043 Q1522 1012 1522 970 Q1522 928 1491 898 Q1460 868 1417 868 L1229 868 L1229 113 Q1229 62 1192 26 Q1155 -10 1104 -10 Q1053 -10 1017 26 Q981 62 981 113 ZM211 113 L211 868 L168 868 Q125 868 94 898 Q63 928 63 971 Q63 1014 94 1044 Q125 1074 168 1075 L211 1075 L211 1155 Q211 1333 298 1420 Q385 1507 543 1507 Q611 1507 657 1500 Q702 1493 728 1464 Q754 1436 754 1394 Q754 1352 723 1321 Q692 1290 656 1293 Q620 1296 598 1296 Q455 1296 455 1133 L455 1073 L647 1073 Q692 1073 722 1043 Q752 1012 752 970 Q752 928 721 898 Q690 868 647 868 L459 868 L459 113 Q459 62 422 26 Q385 -10 334 -10 Q283 -10 247 26 Q211 62 211 113 Z" /></font>
</defs>
</svg>
