<?xml version="1.0" encoding="UTF-8" standalone="no"?>
<svg width="9px" height="17px" viewBox="0 0 9 17" version="1.1" xmlns="http://www.w3.org/2000/svg" xmlns:xlink="http://www.w3.org/1999/xlink">
    <defs></defs>
    <g id="A" stroke="none" stroke-width="1" fill="none" fill-rule="evenodd">
        <g id="article" transform="translate(-329.000000, -3654.000000)" fill="#65b9e8">
            <g id="share" transform="translate(202.000000, 3654.000000)">
                <g id="FB" transform="translate(127.000000, 0.000000)">
                    <path d="M7.85430386,5.62135466 L7.65939558,8.16515757 L5.05162277,8.16515757 L5.05162277,17 L1.7571731,17 L1.7571731,8.16515757 L1.81188398e-13,8.16515757 L1.81188398e-13,5.62135466 L1.7571731,5.62135466 L1.7571731,3.91415804 C1.7571731,3.1605127 1.77616416,1.99905927 2.3239064,1.27939793 C2.89963547,0.51775635 3.69126294,-9.23705556e-14 5.05162277,-9.23705556e-14 C7.26857949,-9.23705556e-14 8.2031397,0.315851364 8.2031397,0.315851364 L7.76334666,2.91962606 C7.76334666,2.91962606 7.03069144,2.70872531 6.3480127,2.70872531 C5.66433443,2.70872531 5.05162277,2.95361007 5.05162277,3.63628881 L5.05162277,5.62135466 L7.85430386,5.62135466 L7.85430386,5.62135466 Z" id="facebook-social"></path>
                </g>
            </g>
        </g>
    </g>
</svg>
