<?xml version="1.0" encoding="UTF-8" standalone="no"?>
<svg width="9px" height="17px" viewBox="0 0 9 17" version="1.1" xmlns="http://www.w3.org/2000/svg" xmlns:xlink="http://www.w3.org/1999/xlink">
    <defs></defs>
    <g id="A-standard" stroke="none" stroke-width="1" fill="none" fill-rule="evenodd">
        <g id="01-home-A" transform="translate(-934.000000, -1642.000000)" fill="#3A579D">
            <g id="footer" transform="translate(42.000000, 1642.000000)">
                <g id="SoMe" transform="translate(856.000000, 0.000000)">
                    <path d="M44.3543039,5.62135466 L44.1593956,8.16515757 L41.5516228,8.16515757 L41.5516228,17 L38.2571731,17 L38.2571731,8.16515757 L36.5,8.16515757 L36.5,5.62135466 L38.2571731,5.62135466 L38.2571731,3.91415804 C38.2571731,3.1605127 38.2761642,1.99905927 38.8239064,1.27939793 C39.3996355,0.51775635 40.1912629,-9.23705556e-14 41.5516228,-9.23705556e-14 C43.7685795,-9.23705556e-14 44.7031397,0.315851364 44.7031397,0.315851364 L44.2633467,2.91962606 C44.2633467,2.91962606 43.5306914,2.70872531 42.8480127,2.70872531 C42.1643344,2.70872531 41.5516228,2.95361007 41.5516228,3.63628881 L41.5516228,5.62135466 L44.3543039,5.62135466 L44.3543039,5.62135466 Z" id="facebook-active"></path>
                </g>
            </g>
        </g>
    </g>
</svg>
