<?xml version="1.0" encoding="UTF-8" standalone="no"?>
<svg width="28px" height="28px" viewBox="0 0 28 28" version="1.1" xmlns="http://www.w3.org/2000/svg" xmlns:xlink="http://www.w3.org/1999/xlink">
    <defs></defs>
    <g id="Page-1" stroke="none" stroke-width="1" fill="none" fill-rule="evenodd">
        <g id="icon-tw_stroke" fill="#9AB2BF">
            <g>
                <path d="M14,1.16666667 C21.1166667,1.16666667 26.8333333,6.88333333 26.8333333,14 C26.8333333,21.1166667 21.1166667,26.8333333 14,26.8333333 C6.88333333,26.8333333 1.16666667,21.1166667 1.16666667,14 C1.16666667,6.88333333 6.88333333,1.16666667 14,1.16666667 L14,1.16666667 L14,1.16666667 Z M14,0 C6.3,0 0,6.3 0,14 C0,21.7 6.3,28 14,28 C21.7,28 28,21.7 28,14 C28,6.3 21.7,0 14,0 L14,0 L14,0 L14,0 Z" id="Shape"></path>
                <path d="M19.6,11.7833333 L19.6,12.25 C19.6,15.9833333 16.6833333,20.4166667 11.4333333,20.4166667 C9.8,20.4166667 8.4,19.95 7,19.1333333 L7.7,19.1333333 C9.1,19.1333333 10.2666667,18.6666667 11.3166667,17.85 C10.0333333,17.85 8.98333333,17.0333333 8.63333333,15.8666667 L9.21666667,15.8666667 C9.45,15.8666667 9.8,15.8666667 9.91666667,15.75 C8.63333333,15.5166667 7.7,14.35 7.7,12.95 L7.7,12.95 C8.16666667,13.1833333 8.51666667,13.1833333 8.98333333,13.4166667 C8.16666667,12.8333333 7.7,12.0166667 7.7,11.0833333 C7.7,10.5 7.81666667,10.15 8.16666667,9.68333333 C9.56666667,11.3166667 11.6666667,12.6 14,12.6 C14,12.3666667 13.8833333,12.1333333 13.8833333,11.9 C13.8833333,10.3833333 15.1666667,8.98333333 16.8,8.98333333 C17.6166667,8.98333333 18.3166667,9.21666667 18.9,9.8 C19.6,9.68333333 20.1833333,9.33333333 20.7666667,9.1 C20.5333333,9.8 20.0666667,10.3833333 19.4833333,10.6166667 C20.0666667,10.6166667 20.65,10.3833333 21.1166667,10.15 C20.5333333,10.9666667 20.1833333,11.4333333 19.6,11.7833333 L19.6,11.7833333 L19.6,11.7833333 Z" id="Shape"></path>
            </g>
        </g>
    </g>
</svg>