<?xml version="1.0" encoding="UTF-8" standalone="no"?>
<svg width="28px" height="28px" viewBox="0 0 28 28" version="1.1" xmlns="http://www.w3.org/2000/svg" xmlns:xlink="http://www.w3.org/1999/xlink">
    <defs></defs>
    <g id="Page-1" stroke="none" stroke-width="1" fill="none" fill-rule="evenodd">
        <g id="icon-in_stroke" fill="#9AB2BF">
            <g>
                <g id="Group">
                    <path d="M14.112,1.568 C20.944,1.568 26.432,7.056 26.432,13.888 C26.432,20.72 20.944,26.208 14.112,26.208 C7.28,26.208 1.792,20.72 1.792,13.888 C1.792,7.056 7.28,1.568 14.112,1.568 L14.112,1.568 L14.112,1.568 L14.112,1.568 Z M14.112,0.448 C6.72,0.448 0.672,6.496 0.672,13.888 C0.672,21.28 6.72,27.328 14.112,27.328 C21.504,27.328 27.552,21.28 27.552,13.888 C27.552,6.496 21.504,0.448 14.112,0.448 L14.112,0.448 L14.112,0.448 L14.112,0.448 L14.112,0.448 Z" id="Shape"></path>
                    <rect id="Rectangle-path" x="7.84" y="11.2" width="2.576" height="8.288"></rect>
                    <path d="M8.848,9.968 L8.848,9.968 C7.952,9.968 7.28,9.296 7.28,8.512 C7.28,7.728 7.952,7.056 8.848,7.056 C9.744,7.056 10.416,7.728 10.416,8.512 C10.528,9.408 9.968,9.968 8.848,9.968 L8.848,9.968 L8.848,9.968 L8.848,9.968 Z" id="Shape"></path>
                    <path d="M20.832,19.488 L17.92,19.488 L17.92,15.232 C17.92,14.112 17.472,13.328 16.464,13.328 C15.68,13.328 15.232,13.888 15.008,14.448 C14.896,14.56 15.008,14.896 15.008,15.12 L15.008,19.712 L12.096,19.712 L12.096,11.424 L15.008,11.424 L15.008,12.768 C15.12,12.208 16.128,11.424 17.584,11.424 C19.488,11.424 20.944,12.656 20.944,15.232 L20.944,19.488 L20.832,19.488 L20.832,19.488 L20.832,19.488 L20.832,19.488 Z" id="Shape"></path>
                </g>
            </g>
        </g>
    </g>
</svg>