<?xml version="1.0" encoding="UTF-8" standalone="no"?>
<svg width="28px" height="28px" viewBox="0 0 28 28" version="1.1" xmlns="http://www.w3.org/2000/svg" xmlns:xlink="http://www.w3.org/1999/xlink">
    <defs></defs>
    <g id="Page-1" stroke="none" stroke-width="1" fill="none" fill-rule="evenodd">
        <g id="icon-fb_stroke" fill="#9AB2BF">
            <g>
                <path d="M14.112,1.568 C20.944,1.568 26.432,7.056 26.432,13.888 C26.432,20.72 20.944,26.208 14.112,26.208 C7.28,26.208 1.792,20.72 1.792,13.888 C1.792,7.056 7.28,1.568 14.112,1.568 L14.112,1.568 L14.112,1.568 Z M14.112,0.448 C6.72,0.448 0.672,6.496 0.672,13.888 C0.672,21.28 6.72,27.328 14.112,27.328 C21.504,27.328 27.552,21.28 27.552,13.888 C27.552,6.384 21.504,0.448 14.112,0.448 L14.112,0.448 L14.112,0.448 L14.112,0.448 Z" id="Shape"></path>
                <path d="M17.024,11.648 L16.912,13.664 L14.896,13.664 L14.896,20.608 L12.32,20.608 L12.32,13.664 L10.976,13.664 L10.976,11.648 L12.32,11.648 L12.32,10.304 C12.32,9.744 12.32,8.848 12.768,8.288 C13.216,7.728 13.888,7.168 14.896,7.168 C16.688,7.168 17.472,7.392 17.472,7.392 L17.024,9.408 C17.024,9.408 16.464,9.296 15.904,9.296 C15.344,9.296 14.784,9.408 14.784,9.968 L14.784,11.536 L17.024,11.648 L17.024,11.648 L17.024,11.648 L17.024,11.648 Z" id="Shape"></path>
            </g>
        </g>
    </g>
</svg>