<?xml version="1.0" encoding="UTF-8" standalone="no"?>
<svg width="21px" height="21px" viewBox="0 0 21 21" version="1.1" xmlns="http://www.w3.org/2000/svg" xmlns:xlink="http://www.w3.org/1999/xlink">
    <defs></defs>
    <g id="Page-1" stroke="none" stroke-width="1" fill="none" fill-rule="evenodd">
        <g id="icon-in_fill" fill="#FF9D00">
            <g>
                <path d="M10.6,0.4 C5.1,0.4 0.6,4.9 0.6,10.4 C0.6,15.9 5.1,20.4 10.6,20.4 C16.1,20.4 20.6,15.9 20.6,10.4 C20.6,4.9 16.1,0.4 10.6,0.4 L10.6,0.4 L10.6,0.4 Z M7.8,14.6 L5.9,14.6 L5.9,8.4 L7.8,8.4 L7.8,14.6 L7.8,14.6 L7.8,14.6 Z M6.7,7.5 L6.7,7.5 C6,7.5 5.5,7 5.5,6.4 C5.5,5.8 6,5.3 6.7,5.3 C7.4,5.3 7.9,5.8 7.9,6.4 C7.9,7.1 7.5,7.5 6.7,7.5 L6.7,7.5 L6.7,7.5 Z M15.6,14.6 L13.4,14.6 L13.4,11.4 C13.4,10.6 13.1,10 12.3,10 C11.7,10 11.4,10.4 11.2,10.8 C11.1,10.9 11.2,11.1 11.2,11.3 L11.2,14.7 L9,14.7 L9,8.5 L11.2,8.5 L11.2,9.5 C11.3,9.1 12,8.5 13.1,8.5 C14.5,8.5 15.6,9.4 15.6,11.3 L15.6,14.6 L15.6,14.6 L15.6,14.6 L15.6,14.6 Z" id="Shape"></path>
            </g>
        </g>
    </g>
</svg>