<?xml version="1.0" encoding="UTF-8" standalone="no"?>
<svg width="20px" height="20px" viewBox="0 0 20 20" version="1.1" xmlns="http://www.w3.org/2000/svg" xmlns:xlink="http://www.w3.org/1999/xlink">
    <defs></defs>
    <g id="Page-1" stroke="none" stroke-width="1" fill="none" fill-rule="evenodd">
        <g id="icon-tw_fill" fill="#FF9D00">
            <g>
                <path d="M0,10 C0,15.5 4.5,20 10,20 C15.5,20 20,15.5 20,10 C20,4.5 15.5,0 10,0 C4.5,0 0,4.5 0,10 Z M14,8.4 L14,8.7 C14,11.4 11.9,14.5 8.2,14.5 C7,14.5 6,14.2 5,13.6 L5.5,13.6 C6.5,13.6 7.3,13.3 8.1,12.7 C7.2,12.7 6.4,12.1 6.2,11.3 L6.6,11.3 C6.8,11.3 7,11.3 7.1,11.2 C6.2,11 5.5,10.2 5.5,9.2 L5.5,9.2 C5.8,9.4 6.1,9.4 6.4,9.5 C5.8,9.1 5.5,8.5 5.5,7.8 C5.5,7.4 5.6,7.1 5.8,6.8 C6.8,8 8.3,8.9 10,8.9 C10,8.7 9.9,8.6 9.9,8.4 C9.9,7.3 10.8,6.3 12,6.3 C12.6,6.3 13.1,6.5 13.5,6.9 C14,6.8 14.4,6.6 14.8,6.4 C14.6,6.9 14.3,7.3 13.9,7.5 C14.3,7.5 14.7,7.3 15.1,7.2 C14.7,7.8 14.4,8.2 14,8.4 L14,8.4 L14,8.4 L14,8.4 Z" id="Shape"></path>
            </g>
        </g>
    </g>
</svg>