<?xml version="1.0" encoding="UTF-8" standalone="no"?>
<svg width="16px" height="23px" viewBox="0 0 16 23" version="1.1" xmlns="http://www.w3.org/2000/svg" xmlns:xlink="http://www.w3.org/1999/xlink">
    <defs></defs>
    <g id="Page-1" stroke="none" stroke-width="1" fill="none" fill-rule="evenodd">
        <g id="icon-BackTop" fill="#9AB2BF">
            <path d="M15.5,7.2 L9,0.7 C8.9,0.6 8.8,0.5 8.7,0.5 C8.5,0.4 8.2,0.4 7.9,0.5 C7.8,0.6 7.7,0.6 7.6,0.7 L1.1,7.2 C0.7,7.6 0.7,8.2 1.1,8.6 C1.3,8.8 1.6,8.9 1.8,8.9 C2,8.9 2.3,8.8 2.5,8.6 L7.3,3.8 L7.3,21.4 C7.3,22 7.7,22.4 8.3,22.4 C8.9,22.4 9.3,22 9.3,21.4 L9.3,3.8 L14.1,8.6 C14.3,8.8 14.6,8.9 14.8,8.9 C15,8.9 15.3,8.8 15.5,8.6 C15.9,8.2 15.9,7.6 15.5,7.2 L15.5,7.2 Z" id="Shape"></path>
        </g>
    </g>
</svg>