<?xml version="1.0" encoding="UTF-8" standalone="no"?>
<svg width="17px" height="17px" viewBox="0 0 17 17" version="1.1" xmlns="http://www.w3.org/2000/svg" xmlns:xlink="http://www.w3.org/1999/xlink">
    <defs></defs>
    <g id="Page-1" stroke="none" stroke-width="1" fill="none" fill-rule="evenodd">
        <g id="icon-search" fill="#FFFFFF">
            <path d="M16.7,15.2 L12.5,11 C13.3,9.9 13.8,8.4 13.8,6.9 C13.8,3.1 10.7,0 6.9,0 C3.1,0 0,3.1 0,6.9 C0,10.7 3.1,13.8 6.9,13.8 C8.4,13.8 9.8,13.3 11,12.5 L15.2,16.7 C15.4,16.9 15.6,17 15.9,17 C16.2,17 16.4,16.9 16.6,16.7 C17.1,16.3 17.1,15.6 16.7,15.2 L16.7,15.2 Z M6.9,11.7 C4.2,11.7 2.1,9.6 2.1,6.9 C2.1,4.2 4.2,2.1 6.9,2.1 C9.6,2.1 11.7,4.2 11.7,6.9 C11.7,9.6 9.6,11.7 6.9,11.7 L6.9,11.7 Z" id="Shape"></path>
        </g>
    </g>
</svg>