<?xml version="1.0" encoding="UTF-8" standalone="no"?>
<svg width="4px" height="18px" viewBox="0 0 4 18" version="1.1" xmlns="http://www.w3.org/2000/svg" xmlns:xlink="http://www.w3.org/1999/xlink">
    <!-- Generator: Sketch 43.2 (39069) - http://www.bohemiancoding.com/sketch -->
    <title>icon-dots</title>
    <desc>Created with Sketch.</desc>
    <defs></defs>
    <g id="Page-1" stroke="none" stroke-width="1" fill="none" fill-rule="evenodd">
        <g id="icon-dots" fill-rule="nonzero" fill="#36355B">
            <path d="M2,4 C0.9,4 0,3.1 0,2 C0,0.9 0.9,0 2,0 C3.1,0 4,0.9 4,2 C4,3.1 3.1,4 2,4 L2,4 Z M2,11 C0.9,11 0,10.1 0,9 C0,7.9 0.9,7 2,7 C3.1,7 4,7.9 4,9 C4,10.1 3.1,11 2,11 L2,11 Z M2,14 C3.1,14 4,14.9 4,16 C4,17.1 3.1,18 2,18 C0.9,18 0,17.1 0,16 C0,14.9 0.9,14 2,14 L2,14 Z" id="Shape"></path>
        </g>
    </g>
</svg>