<?xml version="1.0" encoding="UTF-8" standalone="no"?>
<svg width="21px" height="21px" viewBox="0 0 21 21" version="1.1" xmlns="http://www.w3.org/2000/svg" xmlns:xlink="http://www.w3.org/1999/xlink">
    <defs></defs>
    <g id="Page-1" stroke="none" stroke-width="1" fill="none" fill-rule="evenodd">
        <g id="icon-fb_fill" fill="#FF9D00">
            <g>
                <path d="M10.6,0.4 C5.1,0.4 0.6,4.9 0.6,10.4 C0.6,15.9 5.1,20.4 10.6,20.4 C16.1,20.4 20.6,15.9 20.6,10.4 C20.6,4.8 16.1,0.4 10.6,0.4 L10.6,0.4 L10.6,0.4 Z M12.8,8.7 L12.7,10.2 L11.2,10.2 L11.2,15.4 L9.3,15.4 L9.3,10.2 L8.3,10.2 L8.3,8.7 L9.3,8.7 L9.3,7.7 C9.3,7.3 9.3,6.6 9.6,6.2 C9.9,5.8 10.4,5.4 11.2,5.4 C12.5,5.4 13.1,5.6 13.1,5.6 L12.8,7.1 C12.8,7.1 12.4,7 12,7 C11.6,7 11.2,7.1 11.2,7.5 L11.2,8.7 L12.8,8.7 L12.8,8.7 L12.8,8.7 Z" id="Shape"></path>
            </g>
        </g>
    </g>
</svg>