<?xml version="1.0" encoding="UTF-8" standalone="no"?>
<svg width="28px" height="28px" viewBox="0 0 28 28" version="1.1" xmlns="http://www.w3.org/2000/svg" xmlns:xlink="http://www.w3.org/1999/xlink">
    <defs></defs>
    <g id="Page-1" stroke="none" stroke-width="1" fill="none" fill-rule="evenodd">
        <g id="icon-tw_fill" fill="#9AB2BF">
            <g>
                <path d="M14,0 C6.3,0 0,6.3 0,14 C0,21.7 6.3,28 14,28 C21.7,28 28,21.7 28,14 C28,6.3 21.7,0 14,0 L14,0 L14,0 L14,0 L14,0 Z M19.6,11.76 L19.6,12.18 C19.6,15.96 16.66,20.3 11.48,20.3 C9.8,20.3 8.4,19.88 7,19.04 L7.7,19.04 C9.1,19.04 10.22,18.62 11.34,17.78 C10.08,17.78 8.96,16.94 8.68,15.82 L9.24,15.82 C9.52,15.82 9.8,15.82 9.94,15.68 C8.68,15.4 7.7,14.28 7.7,12.88 L7.7,12.88 C8.12,13.16 8.54,13.16 8.96,13.3 C8.12,12.74 7.7,11.9 7.7,10.92 C7.7,10.36 7.84,9.94 8.12,9.52 C9.52,11.2 11.62,12.46 14,12.46 C14,12.18 13.86,12.04 13.86,11.76 C13.86,10.22 15.12,8.82 16.8,8.82 C17.64,8.82 18.34,9.1 18.9,9.66 C19.6,9.52 20.16,9.24 20.72,8.96 C20.44,9.66 20.02,10.22 19.46,10.5 C20.02,10.5 20.58,10.22 21.14,10.08 C20.58,10.92 20.16,11.48 19.6,11.76 L19.6,11.76 L19.6,11.76 L19.6,11.76 L19.6,11.76 Z" id="Shape"></path>
            </g>
        </g>
    </g>
</svg>