<?xml version="1.0" encoding="UTF-8" standalone="no"?>
<svg width="28px" height="28px" viewBox="0 0 28 28" version="1.1" xmlns="http://www.w3.org/2000/svg" xmlns:xlink="http://www.w3.org/1999/xlink">
    <defs></defs>
    <g id="Page-1" stroke="none" stroke-width="1" fill="none" fill-rule="evenodd">
        <g id="icon-in_fill" fill="#9AB2BF">
            <g>
                <path d="M14.1333333,0.533333333 C6.8,0.533333333 0.8,6.53333334 0.8,13.8666667 C0.8,21.2 6.8,27.2 14.1333333,27.2 C21.4666666,27.2 27.4666667,21.2 27.4666667,13.8666667 C27.4666667,6.53333334 21.4666666,0.533333333 14.1333333,0.533333333 L14.1333333,0.533333333 L14.1333333,0.533333333 L14.1333333,0.533333333 Z M10.4,19.4666667 L7.86666666,19.4666667 L7.86666666,11.2 L10.4,11.2 L10.4,19.4666667 L10.4,19.4666667 L10.4,19.4666667 L10.4,19.4666667 Z M8.93333334,10 L8.93333334,10 C8,10 7.33333333,9.33333334 7.33333333,8.53333333 C7.33333333,7.73333333 8,7.06666666 8.93333334,7.06666666 C9.86666666,7.06666666 10.5333333,7.73333333 10.5333333,8.53333333 C10.5333333,9.46666667 10,10 8.93333334,10 L8.93333334,10 L8.93333334,10 L8.93333334,10 Z M20.8,19.4666667 L17.8666667,19.4666667 L17.8666667,15.2 C17.8666667,14.1333333 17.4666666,13.3333334 16.4,13.3333334 C15.6,13.3333334 15.2,13.8666667 14.9333334,14.4 C14.8,14.5333333 14.9333334,14.8 14.9333334,15.0666667 L14.9333334,19.6 L12,19.6 L12,11.3333333 L14.9333334,11.3333333 L14.9333334,12.6666667 C15.0666667,12.1333334 16,11.3333333 17.4666666,11.3333333 C19.3333334,11.3333333 20.8,12.5333333 20.8,15.0666667 L20.8,19.4666667 L20.8,19.4666667 L20.8,19.4666667 L20.8,19.4666667 L20.8,19.4666667 Z" id="Shape"></path>
            </g>
        </g>
    </g>
</svg>