<?xml version="1.0" encoding="UTF-8" standalone="no"?>
<svg width="28px" height="28px" viewBox="0 0 28 28" version="1.1" xmlns="http://www.w3.org/2000/svg" xmlns:xlink="http://www.w3.org/1999/xlink">
    <defs></defs>
    <g id="Page-1" stroke="none" stroke-width="1" fill="none" fill-rule="evenodd">
        <g id="icon-fb_fill" fill="#9AB2BF">
            <g>
                <path d="M14.1333333,0.533333333 C6.8,0.533333333 0.8,6.53333334 0.8,13.8666667 C0.8,21.2 6.8,27.2 14.1333333,27.2 C21.4666666,27.2 27.4666667,21.2 27.4666667,13.8666667 C27.4666667,6.4 21.4666666,0.533333333 14.1333333,0.533333333 L14.1333333,0.533333333 L14.1333333,0.533333333 L14.1333333,0.533333333 Z M17.0666666,11.6 L16.9333333,13.6 L14.9333334,13.6 L14.9333334,20.5333334 L12.4,20.5333334 L12.4,13.6 L11.0666667,13.6 L11.0666667,11.6 L12.4,11.6 L12.4,10.2666667 C12.4,9.73333334 12.4,8.8 12.8,8.26666667 C13.2,7.73333333 13.8666667,7.2 14.9333334,7.2 C16.6666667,7.2 17.4666666,7.46666666 17.4666666,7.46666666 L17.0666666,9.46666667 C17.0666666,9.46666667 16.5333334,9.33333334 16,9.33333334 C15.4666667,9.33333334 14.9333334,9.46666667 14.9333334,10 L14.9333334,11.6 L17.0666666,11.6 L17.0666666,11.6 L17.0666666,11.6 L17.0666666,11.6 Z" id="Shape"></path>
            </g>
        </g>
    </g>
</svg>