<?xml version="1.0" encoding="UTF-8" standalone="no"?>
<svg width="19px" height="17px" viewBox="0 0 19 17" version="1.1" xmlns="http://www.w3.org/2000/svg" xmlns:xlink="http://www.w3.org/1999/xlink">
    <!-- Generator: Sketch 43.2 (39069) - http://www.bohemiancoding.com/sketch -->
    <title>linkedin-social</title>
    <desc>Created with Sketch.</desc>
    <defs></defs>
    <g id="Page-1" stroke="none" stroke-width="1" fill="none" fill-rule="evenodd">
        <g id="linkedin-social" fill="#FF633D" fill-rule="nonzero">
            <path d="M0.465903,5.45149517 L4.075559,5.45149517 L4.075559,17 L0.465903,17 L0.465903,5.45149517 Z M2.178203,4.00697957 L2.152078,4.00697957 C0.846898,4.00697957 0,3.12415957 0,2.00512262 C0,0.864314529 0.871934,1.4033219e-13 2.204329,1.4033219e-13 C3.534546,1.4033219e-13 4.354229,0.862137414 4.380355,2.00185695 C4.380355,3.1208939 3.534546,4.00697957 2.178203,4.00697957 L2.178203,4.00697957 Z M18.513095,17 L14.421208,17 L14.421208,11.0238202 C14.421208,9.4595633 13.782224,8.39168854 12.373631,8.39168854 C11.297048,8.39168854 10.69943,9.1123135 10.420759,9.80681309 C10.316258,10.0560927 10.331498,10.4033425 10.331498,10.7505923 L10.331498,17 L6.27771,17 C6.27771,17 6.331049,6.41377986 6.27771,5.45149517 L10.331498,5.45149517 L10.331498,7.26394314 C10.572069,6.47147339 11.866364,5.34046232 13.934623,5.34046232 C16.499264,5.34046232 18.513095,7.00160082 18.513095,10.5786002 L18.513095,17 L18.513095,17 Z"></path>
        </g>
    </g>
</svg>