<?xml version="1.0" encoding="UTF-8" standalone="no"?>
<svg width="19px" height="17px" viewBox="0 0 19 17" version="1.1" xmlns="http://www.w3.org/2000/svg" xmlns:xlink="http://www.w3.org/1999/xlink">
    <defs></defs>
    <g id="A" stroke="none" stroke-width="1" fill="none" fill-rule="evenodd">
        <g id="article" transform="translate(-456.000000, -3654.000000)" fill="#B4B4B4">
            <g id="share" transform="translate(202.000000, 3654.000000)">
                <path d="M254.465903,5.45149517 L258.075559,5.45149517 L258.075559,17 L254.465903,17 L254.465903,5.45149517 Z M256.178203,4.00697957 L256.152078,4.00697957 C254.846898,4.00697957 254,3.12415957 254,2.00512262 C254,0.864314529 254.871934,1.39444012e-13 256.204329,1.39444012e-13 C257.534546,1.39444012e-13 258.354229,0.862137414 258.380355,2.00185695 C258.380355,3.1208939 257.534546,4.00697957 256.178203,4.00697957 L256.178203,4.00697957 Z M272.513095,17 L268.421208,17 L268.421208,11.0238202 C268.421208,9.4595633 267.782224,8.39168854 266.373631,8.39168854 C265.297048,8.39168854 264.69943,9.1123135 264.420759,9.80681309 C264.316258,10.0560927 264.331498,10.4033425 264.331498,10.7505923 L264.331498,17 L260.27771,17 C260.27771,17 260.331049,6.41377986 260.27771,5.45149517 L264.331498,5.45149517 L264.331498,7.26394314 C264.572069,6.47147339 265.866364,5.34046232 267.934623,5.34046232 C270.499264,5.34046232 272.513095,7.00160082 272.513095,10.5786002 L272.513095,17 L272.513095,17 Z" id="linkedin-social-active"></path>
            </g>
        </g>
    </g>
</svg>