<?xml version="1.0" encoding="UTF-8" standalone="no"?>
<svg width="19px" height="17px" viewBox="0 0 19 17" version="1.1" xmlns="http://www.w3.org/2000/svg" xmlns:xlink="http://www.w3.org/1999/xlink">
    <defs></defs>
    <g id="A-standard" stroke="none" stroke-width="1" fill="none" fill-rule="evenodd">
        <g id="01-home-A" transform="translate(-963.000000, -1642.000000)" fill="#65B9E8">
            <g id="footer" transform="translate(42.000000, 1642.000000)">
                <g id="SoMe" transform="translate(856.000000, 0.000000)">
                    <path d="M65.4659025,5.45149517 L69.0755587,5.45149517 L69.0755587,17 L65.4659025,17 L65.4659025,5.45149517 Z M67.1782032,4.00697957 L67.1520779,4.00697957 C65.8468976,4.00697957 65,3.12415957 65,2.00512262 C65,0.864314529 65.8719344,1.39444012e-13 67.2043286,1.39444012e-13 C68.5345457,1.39444012e-13 69.3542294,0.862137414 69.3803547,2.00185695 C69.3803547,3.1208939 68.5345457,4.00697957 67.1782032,4.00697957 L67.1782032,4.00697957 Z M83.5130947,17 L79.4212077,17 L79.4212077,11.0238202 C79.4212077,9.4595633 78.7822245,8.39168854 77.3736313,8.39168854 C76.2970481,8.39168854 75.6994301,9.1123135 75.4207594,9.80681309 C75.3162579,10.0560927 75.3314977,10.4033425 75.3314977,10.7505923 L75.3314977,17 L71.2777102,17 C71.2777102,17 71.3310495,6.41377986 71.2777102,5.45149517 L75.3314977,5.45149517 L75.3314977,7.26394314 C75.5720689,6.47147339 76.8663636,5.34046232 78.9346225,5.34046232 C81.4992636,5.34046232 83.5130947,7.00160082 83.5130947,10.5786002 L83.5130947,17 L83.5130947,17 Z" id="linkedin-active"></path>
                </g>
            </g>
        </g>
    </g>
</svg>