<?xml version="1.0" encoding="UTF-8" standalone="no"?>
<svg width="174px" height="30px" viewBox="0 0 174 30" version="1.1" xmlns="http://www.w3.org/2000/svg" xmlns:xlink="http://www.w3.org/1999/xlink">
    <defs></defs>
    <g id="home" stroke="none" stroke-width="1" fill="none" fill-rule="evenodd">
        <g id="01-home" transform="translate(-73.000000, -72.000000)" fill="#FFFFFF">
            <g id="top">
                <g id="logo" transform="translate(73.387097, 72.000000)">
                    <g id="Imported-Layers">
                        <path d="M159.52034,6.92307692 C158.160522,6.92307692 157.058065,8.01481648 157.058065,9.36141472 L157.058065,18.6495276 C157.058065,19.9963366 158.160522,21.0880762 159.52034,21.0880762 L167.836559,21.0880762 L167.836559,23.1429665 L160.701772,23.1429665 L160.701772,28.2692308 L170.763531,28.2692308 C172.123562,28.2692308 173.225806,27.1774912 173.225806,25.8306822 L173.225806,6.92307692 L159.52034,6.92307692 L159.52034,6.92307692 Z M163.4742,16.6285762 C162.907113,16.6285762 162.447312,16.1734564 162.447312,15.6116711 L162.447312,13.2131747 C162.447312,12.6516003 162.907113,12.1962696 163.4742,12.1962696 L167.836559,12.1962696 L167.836559,16.6285762 L163.4742,16.6285762 L163.4742,16.6285762 Z" id="Fill-1"></path>
                        <path d="M152.285931,6.92307692 L141.042888,6.92307692 C139.683088,6.92307692 138.580645,8.0245722 138.580645,9.38320356 L138.580645,20.6167964 C138.580645,21.9754278 139.683088,23.0769231 141.042888,23.0769231 L152.285931,23.0769231 C153.645944,23.0769231 154.748387,21.9754278 154.748387,20.6167964 L154.748387,9.38320356 C154.748387,8.0245722 153.645944,6.92307692 152.285931,6.92307692 L152.285931,6.92307692 Z M149.358998,16.6663865 C149.358998,17.2329791 148.899416,17.6921659 148.332336,17.6921659 L144.996696,17.6923786 C144.429616,17.6923786 143.969822,17.2329791 143.969822,16.6663865 L143.969822,13.3336135 C143.969822,12.7670209 144.429616,12.3076214 144.996696,12.3076214 L148.332336,12.3076214 C148.899416,12.3076214 149.358998,12.7670209 149.358998,13.3336135 L149.358998,16.6663865 L149.358998,16.6663865 Z" id="Fill-2"></path>
                        <path d="M123.992596,23.0769231 C125.352396,23.0769231 126.454839,21.9905875 126.454839,20.6506547 L126.454839,9.57187735 C126.454839,8.23194457 125.352396,7.14560897 123.992596,7.14560897 L115.676273,7.14560897 L115.676273,0 L110.287097,0 L110.287097,23.0769231 L123.992596,23.0769231 L123.992596,23.0769231 Z M121.065662,13.4679186 L121.065662,16.7546134 C121.065662,17.313618 120.605868,17.766485 120.038788,17.766485 L115.676273,17.766485 L115.676273,12.456047 L120.038788,12.456047 C120.605868,12.456047 121.065662,12.9091238 121.065662,13.4679186 L121.065662,13.4679186 Z" id="Fill-3"></path>
                        <path d="M134.53871,23.0769231 L131.79933,23.0769231 C130.442029,23.0769231 129.341935,21.9501042 129.341935,20.5598296 L129.341935,0 L134.53871,0 L134.53871,23.0769231" id="Fill-4"></path>
                        <path d="M59.4741935,6.92307692 L59.4741935,28.2692308 L64.8633699,28.2692308 L64.8633699,22.932745 L73.1794797,22.932745 C74.5394927,22.932745 75.6419355,21.8410809 75.6419355,20.4945758 L75.6419355,9.36124617 C75.6419355,8.01474101 74.5394927,6.92307692 73.1794797,6.92307692 L59.4741935,6.92307692 L59.4741935,6.92307692 Z M69.2258844,17.5962592 L64.8633699,17.5962592 L64.8633699,12.2595627 L69.2258844,12.2595627 C69.7929645,12.2595627 70.2525463,12.7148619 70.2525463,13.2763975 L70.2525463,16.5794244 C70.2525463,17.1409601 69.7929645,17.5962592 69.2258844,17.5962592 L69.2258844,17.5962592 Z" id="Fill-5"></path>
                        <path d="M3.12849214,24.6746048 L0,24.6746048 L1.73225806,30 L6.44952582,30 C8.62783161,30 10.3935484,28.1905814 10.3935484,25.9583622 L10.3935484,6.92307692 L5.19677419,6.92307692 L5.19677419,22.5551324 C5.19677419,23.7257223 4.27080949,24.6746048 3.12849214,24.6746048" id="Fill-6"></path>
                        <path d="M5.19677419,2.30769231 L10.3935484,2.30769231 L10.3935484,5.76923077 L5.19677419,5.76923077 L5.19677419,2.30769231 Z" id="Fill-7"></path>
                        <path d="M33.4903226,0 L33.4903226,16.1538462 L38.8202988,16.1538462 L38.8202988,5.38454449 L42.3736163,5.38454449 L42.3736163,16.1538462 L47.7035925,16.1538462 L47.7035925,5.38454449 L49.7438342,5.38454449 C50.5796365,5.38454449 51.2571205,6.06896461 51.2571205,6.9133238 L51.2571205,16.1538462 L56.5870968,16.1538462 L56.5870968,3.5956515 C56.5870968,1.60981227 54.9935987,0 53.0278845,0 L33.4903226,0" id="Fill-8"></path>
                        <path d="M79.1064516,6.92307692 L79.1064516,28.2692308 L84.495628,28.2692308 L84.495628,22.932745 L92.8119507,22.932745 C94.1717507,22.932745 95.2741935,21.8410809 95.2741935,20.4945758 L95.2741935,9.36124617 C95.2741935,8.01474101 94.1717507,6.92307692 92.8119507,6.92307692 L79.1064516,6.92307692 L79.1064516,6.92307692 Z M88.8581425,17.5962592 L84.495628,17.5962592 L84.495628,12.2595627 L88.8581425,12.2595627 C89.4252226,12.2595627 89.8850172,12.7148619 89.8850172,13.2763975 L89.8850172,16.5794244 C89.8850172,17.1409601 89.4252226,17.5962592 88.8581425,17.5962592 L88.8581425,17.5962592 Z" id="Fill-9"></path>
                        <path d="M13.8580645,7.5 L13.8580645,12.865321 L24.6366301,12.865321 L24.6366301,14.6537614 L15.7481185,14.6537614 C14.7042144,14.6537614 13.8580645,15.4961657 13.8580645,16.535449 L13.8580645,23.5029278 C13.8580645,24.542211 14.7042144,25.3846154 15.7481185,25.3846154 L30.0258065,25.3846154 L30.0258065,9.9513437 C30.0258065,8.59756281 28.9233637,7.5 27.5635636,7.5 L13.8580645,7.5 L13.8580645,7.5 Z M24.6366301,20.9134086 L20.1366029,20.9134086 C19.6455167,20.9134086 19.2472409,20.5171076 19.2472409,20.0279833 L19.2472409,20.0101815 C19.2472409,19.5212691 19.6455167,19.1249682 20.1366029,19.1249682 L24.6366301,19.1249682 L24.6366301,20.9134086 L24.6366301,20.9134086 Z" id="Fill-10"></path>
                    </g>
                </g>
            </g>
        </g>
    </g>
</svg>