<?xml version="1.0" encoding="UTF-8" standalone="no"?>
<svg width="140px" height="25px" viewBox="0 0 140 25" version="1.1" xmlns="http://www.w3.org/2000/svg" xmlns:xlink="http://www.w3.org/1999/xlink">
    <defs></defs>
    <g id="article" stroke="none" stroke-width="1" fill="none" fill-rule="evenodd">
        <g id="06-article" transform="translate(-43.000000, -23.000000)" fill="#EBF7F8">
            <g id="TOP-photo">
                <g id="logo" transform="translate(43.000000, 23.000000)">
                    <path d="M128.923329,5.6187291 C127.824332,5.6187291 126.933333,6.50477859 126.933333,7.59766991 L126.933333,15.1358485 C126.933333,16.2289109 127.824332,17.1149604 128.923329,17.1149604 L135.644444,17.1149604 L135.644444,18.7826975 L129.878155,18.7826975 L129.878155,22.9431438 L138.010005,22.9431438 C139.109173,22.9431438 140,22.0570943 140,20.9640319 L140,5.6187291 L128.923329,5.6187291 L128.923329,5.6187291 Z M132.118813,13.4956561 C131.660497,13.4956561 131.288889,13.1262834 131.288889,12.6703418 L131.288889,10.723736 C131.288889,10.2679654 131.660497,9.89842172 132.118813,9.89842172 L135.644444,9.89842172 L135.644444,13.4956561 L132.118813,13.4956561 L132.118813,13.4956561 Z" id="Fill-1"></path>
                    <path d="M123.076526,5.6187291 L113.989969,5.6187291 C112.890987,5.6187291 112,6.51269628 112,7.61535362 L112,16.7324725 C112,17.8351298 112.890987,18.729097 113.989969,18.729097 L123.076526,18.729097 C124.175679,18.729097 125.066667,17.8351298 125.066667,16.7324725 L125.066667,7.61535362 C125.066667,6.51269628 124.175679,5.6187291 123.076526,5.6187291 L123.076526,5.6187291 Z M120.710996,13.5263426 C120.710996,13.986186 120.339565,14.3588593 119.881255,14.3588593 L117.185412,14.3590319 C116.727101,14.3590319 116.355498,13.986186 116.355498,13.5263426 L116.355498,10.8214835 C116.355498,10.3616401 116.727101,9.98879419 117.185412,9.98879419 L119.881255,9.98879419 C120.339565,9.98879419 120.710996,10.3616401 120.710996,10.8214835 L120.710996,13.5263426 L120.710996,13.5263426 Z" id="Fill-2"></path>
                    <path d="M100.210031,18.729097 C101.309013,18.729097 102.2,17.8474333 102.2,16.7599516 L102.2,7.76848017 C102.2,6.68099849 101.309013,5.79933481 100.210031,5.79933481 L93.4888315,5.79933481 L93.4888315,0 L89.1333333,0 L89.1333333,18.729097 L100.210031,18.729097 L100.210031,18.729097 Z M97.8445018,10.9304847 L97.8445018,13.5979471 C97.8445018,14.051632 97.4728987,14.4191763 97.0145882,14.4191763 L93.4888315,14.4191763 L93.4888315,10.1092555 L97.0145882,10.1092555 C97.4728987,10.1092555 97.8445018,10.4769701 97.8445018,10.9304847 L97.8445018,10.9304847 Z" id="Fill-3"></path>
                    <path d="M108.733333,18.729097 L106.519384,18.729097 C105.422422,18.729097 104.533333,17.8145773 104.533333,16.6862385 L104.533333,0 L108.733333,0 L108.733333,18.729097" id="Fill-4"></path>
                    <path d="M48.0666667,5.6187291 L48.0666667,22.9431438 L52.4221649,22.9431438 L52.4221649,18.6120829 L59.1431922,18.6120829 C60.242346,18.6120829 61.1333333,17.7260947 61.1333333,16.6332789 L61.1333333,7.59753312 C61.1333333,6.50471734 60.242346,5.6187291 59.1431922,5.6187291 L48.0666667,5.6187291 L48.0666667,5.6187291 Z M55.9479215,14.281022 L52.4221649,14.281022 L52.4221649,9.94979001 L55.9479215,9.94979001 C56.406232,9.94979001 56.7776631,10.3193082 56.7776631,10.7750473 L56.7776631,13.4557647 C56.7776631,13.9115038 56.406232,14.281022 55.9479215,14.281022 L55.9479215,14.281022 Z" id="Fill-5"></path>
                    <path d="M2.52842754,20.0257662 L0,20.0257662 L1.4,24.3478261 L5.21246593,24.3478261 C6.97295888,24.3478261 8.4,22.8793125 8.4,21.0676563 L8.4,5.6187291 L4.2,5.6187291 L4.2,18.3056147 C4.2,19.2556587 3.45164119,20.0257662 2.52842754,20.0257662" id="Fill-6"></path>
                    <path d="M4.2,1.8729097 L8.4,1.8729097 L8.4,4.68227425 L4.2,4.68227425 L4.2,1.8729097 Z" id="Fill-7"></path>
                    <path d="M27.0666667,0 L27.0666667,13.1103679 L31.3743197,13.1103679 L31.3743197,4.37006509 L34.2460884,4.37006509 L34.2460884,13.1103679 L38.5537414,13.1103679 L38.5537414,4.37006509 L40.2026519,4.37006509 C40.878142,4.37006509 41.4256803,4.92553649 41.4256803,5.61081352 L41.4256803,13.1103679 L45.7333333,13.1103679 L45.7333333,2.91820992 C45.7333333,1.30651431 44.4454783,0 42.8568005,0 L27.0666667,0" id="Fill-8"></path>
                    <path d="M63.9333333,5.6187291 L63.9333333,22.9431438 L68.2888315,22.9431438 L68.2888315,18.6120829 L75.0100309,18.6120829 C76.1090127,18.6120829 77,17.7260947 77,16.6332789 L77,7.59753312 C77,6.50471734 76.1090127,5.6187291 75.0100309,5.6187291 L63.9333333,5.6187291 L63.9333333,5.6187291 Z M71.8145882,14.281022 L68.2888315,14.281022 L68.2888315,9.94979001 L71.8145882,9.94979001 C72.2728987,9.94979001 72.6445018,10.3193082 72.6445018,10.7750473 L72.6445018,13.4557647 C72.6445018,13.9115038 72.2728987,14.281022 71.8145882,14.281022 L71.8145882,14.281022 Z" id="Fill-9"></path>
                    <path d="M11.2,6.08695652 L11.2,10.44142 L19.9111685,10.44142 L19.9111685,11.8929078 L12.7275297,11.8929078 C11.883853,11.8929078 11.2,12.5765983 11.2,13.4200746 L11.2,19.0748399 C11.2,19.9183162 11.883853,20.6020067 12.7275297,20.6020067 L24.2666667,20.6020067 L24.2666667,8.07645286 C24.2666667,6.97773214 23.3756794,6.08695652 22.2766976,6.08695652 L11.2,6.08695652 L11.2,6.08695652 Z M19.9111685,16.9732011 L16.274275,16.9732011 C15.8773822,16.9732011 15.5554982,16.6515656 15.5554982,16.2545951 L15.5554982,16.2401473 C15.5554982,15.8433489 15.8773822,15.5217133 16.274275,15.5217133 L19.9111685,15.5217133 L19.9111685,16.9732011 L19.9111685,16.9732011 Z" id="Fill-10"></path>
                </g>
            </g>
        </g>
    </g>
</svg>