<?xml version="1.0" encoding="UTF-8" standalone="no"?>
<svg width="303px" height="28px" viewBox="0 0 303 28" version="1.1" xmlns="http://www.w3.org/2000/svg" xmlns:xlink="http://www.w3.org/1999/xlink">
    <!-- Generator: Sketch 43.2 (39069) - http://www.bohemiancoding.com/sketch -->
    <title>logo</title>
    <desc>Created with Sketch.</desc>
    <defs></defs>
    <g id="Page-1" stroke="none" stroke-width="1" fill="none" fill-rule="evenodd">
        <g id="logo" transform="translate(1.000000, 1.000000)">
            <g id="Group" transform="translate(161.000000, 8.000000)" fill-rule="nonzero" fill="#666666">
                <polygon id="Shape" points="7.6 8.2 0.7 4 1.2 3.2 8.8 7.9 8.8 8.5 1.2 13.4 0.7 12.6"></polygon>
                <path d="M13,9.3 C13,6 14.3,4.4 16.8,4.4 C19.3,4.4 20.6,6 20.6,9.3 C20.6,12.6 19.3,14.2 16.8,14.2 C14.3,14.2 13,12.6 13,9.3 L13,9.3 Z M16.8,5.4 C15,5.4 14.1,6.7 14.1,9.3 C14.1,11.9 15,13.2 16.8,13.2 C18.6,13.2 19.5,11.9 19.5,9.3 C19.5,6.7 18.6,5.4 16.8,5.4 L16.8,5.4 Z" id="Shape"></path>
                <path d="M29.3,14 L29.3,13.2 C28,13.9 27,14.2 26.1,14.2 C25.2,14.2 24.6,13.9 24.1,13.3 C23.6,12.7 23.4,11.9 23.4,10.9 L23.4,4.5 L24.5,4.5 L24.5,10.9 C24.5,11.6 24.7,12.1 25,12.5 C25.3,12.9 25.8,13.1 26.4,13.1 C27,13.1 28,12.8 29.4,12.1 L29.4,4.5 L30.5,4.5 L30.5,14 L29.3,14 L29.3,14 Z" id="Shape"></path>
                <path d="M33.5,14 L33.5,13 L35.8,13 L35.8,5.5 L33.5,5.5 L33.5,4.5 L36.8,4.5 L36.8,5.7 C37.2,5.4 37.8,5.2 38.6,4.9 C39.4,4.6 40.1,4.5 40.6,4.4 L40.8,4.4 L40.8,5.6 L40.6,5.6 C40.1,5.6 39.4,5.8 38.6,6 C37.8,6.2 37.2,6.5 36.8,6.7 L36.8,13 L40,13 L40,14 L33.5,14 L33.5,14 Z" id="Shape"></path>
                <path d="M53,5.8 L53,4.8 L54.9,4.8 L54.9,2.4 L56,2.2 L56,4.8 L60.6,4.8 L60.6,5.8 L56,5.8 L56,10.4 C56,11.4 56.1,12.1 56.5,12.6 C56.8,13 57.3,13.3 58.1,13.3 C58.4,13.3 58.8,13.3 59.5,13.2 C60.1,13.1 60.5,13 60.8,12.9 L61,13.9 C60.7,14 60.3,14.1 59.6,14.2 C58.9,14.3 58.4,14.4 58.1,14.4 C56.9,14.4 56.1,14.1 55.6,13.4 C55.2,12.8 54.9,11.8 54.9,10.5 L54.9,5.9 L53,5.9 L53,5.8 Z" id="Shape"></path>
                <path d="M63.2,9.3 C63.2,7.8 63.5,6.6 64.2,5.7 C64.8,4.8 65.8,4.4 67,4.4 C68.2,4.4 69.1,4.8 69.7,5.6 C70.3,6.4 70.6,7.5 70.6,8.8 L70.5,9.8 L64.4,9.8 C64.5,10.8 64.7,11.6 65.2,12.2 C65.7,12.8 66.3,13.1 67.1,13.1 C67.9,13.1 68.9,12.9 70,12.5 L70.3,13.5 C69.2,13.9 68.2,14.1 67.3,14.1 C66,14.1 65,13.7 64.3,12.8 C63.6,11.9 63.2,10.8 63.2,9.3 L63.2,9.3 Z M67,5.4 C65.3,5.4 64.4,6.5 64.3,8.8 L69.3,8.8 C69.4,6.5 68.6,5.4 67,5.4 L67,5.4 Z" id="Shape"></path>
                <path d="M80,4.8 L79.8,5.8 C79,5.5 78.2,5.4 77.5,5.4 C76.5,5.4 75.8,5.7 75.3,6.4 C74.8,7.1 74.6,8 74.6,9.2 C74.6,10.4 74.8,11.3 75.3,12 C75.8,12.7 76.5,13 77.4,13 C78,13 78.8,12.8 79.8,12.5 L80.1,13.5 C79.1,13.9 78.2,14.1 77.4,14.1 C76.1,14.1 75.1,13.7 74.4,12.8 C73.7,11.9 73.4,10.7 73.4,9.1 C73.4,7.5 73.7,6.3 74.4,5.5 C75.1,4.7 76.1,4.3 77.4,4.3 C78.3,4.4 79.1,4.5 80,4.8 L80,4.8 Z" id="Shape"></path>
                <path d="M84.5,6.3 L84.5,14.1 L83.4,14.1 L83.4,0.8 L84.5,0.8 L84.5,5.3 C85.8,4.7 86.8,4.5 87.6,4.5 C89.5,4.5 90.5,5.6 90.5,7.8 L90.5,14.1 L89.4,14.1 L89.4,7.8 C89.4,7.1 89.3,6.6 89,6.2 C88.7,5.8 88.2,5.6 87.5,5.6 C86.7,5.4 85.7,5.7 84.5,6.3 L84.5,6.3 Z" id="Shape"></path>
                <path d="M103.4,14 L103.4,0.7 L104.5,0.7 L104.5,5.4 C105.5,4.7 106.4,4.4 107.2,4.4 C108.4,4.4 109.3,4.8 110,5.6 C110.7,6.4 111,7.6 111,9.1 C111,10.6 110.6,11.8 109.9,12.8 C109.2,13.7 108.2,14.2 106.9,14.2 C106.1,14.2 105.3,14 104.5,13.6 L104.5,14 L103.4,14 L103.4,14 Z M109.8,9.2 C109.8,8 109.6,7.1 109.1,6.5 C108.6,5.9 108,5.5 107.1,5.5 C106.2,5.5 105.3,5.9 104.4,6.6 L104.4,12.6 C104.7,12.7 105.1,12.9 105.6,13 C106.1,13.1 106.5,13.2 106.8,13.2 C107.7,13.2 108.5,12.8 109,12.1 C109.5,11.3 109.8,10.3 109.8,9.2 L109.8,9.2 Z" id="Shape"></path>
                <polygon id="Shape" points="113.7 14 113.7 13 116.8 13 116.8 1.7 113.8 1.7 113.8 0.7 117.9 0.7 117.9 13 121.1 13 121.1 14"></polygon>
                <path d="M123,9.3 C123,6 124.3,4.4 126.8,4.4 C129.3,4.4 130.6,6 130.6,9.3 C130.6,12.6 129.3,14.2 126.8,14.2 C124.3,14.2 123,12.6 123,9.3 L123,9.3 Z M126.8,5.4 C125,5.4 124.1,6.7 124.1,9.3 C124.1,11.9 125,13.2 126.8,13.2 C128.6,13.2 129.5,11.9 129.5,9.3 C129.5,6.7 128.6,5.4 126.8,5.4 L126.8,5.4 Z" id="Shape"></path>
                <path d="M133.9,12.8 C133.3,12 132.9,10.8 132.9,9.3 C132.9,7.8 133.3,6.6 134,5.7 C134.7,4.8 135.7,4.4 137,4.4 C137.7,4.4 138.5,4.6 139.4,5.1 L139.4,4.5 L140.4,4.5 L140.4,11.7 C140.6,13.3 140.7,14.2 140.7,14.5 C140.7,15.7 140.3,16.6 139.5,17.2 C138.7,17.8 137.8,18.1 136.7,18.1 C135.6,18.1 134.4,17.8 133.1,17.3 L133.5,16.3 C134.8,16.8 135.9,17.1 136.7,17.1 C137.5,17.1 138.2,16.9 138.8,16.5 C139.4,16.1 139.7,15.5 139.7,14.6 L139.5,13 C138.4,13.7 137.5,14.1 136.7,14.1 C135.4,14 134.5,13.6 133.9,12.8 L133.9,12.8 Z M134.8,6.4 C134.3,7.1 134,8 134,9.2 C134,10.4 134.2,11.3 134.7,12 C135.2,12.7 135.8,13 136.7,13 C137.6,13 138.4,12.6 139.4,11.8 L139.4,6.2 C138.5,5.7 137.8,5.4 137.1,5.4 C136.1,5.4 135.3,5.7 134.8,6.4 L134.8,6.4 Z" id="Shape"></path>
            </g>
            <g id="Group" transform="translate(80.000000, 1.000000)" fill-rule="nonzero">
                <g id="Shape">
                    <g id="Group" transform="translate(1.000000, 1.000000)" fill="#666666">
                        <path d="M7.8,21.5 C5.2,21.5 3.3,20.7 2.1,19.1 C0.9,17.5 0.3,14.9 0.3,11.4 C0.3,7.9 0.9,5.3 2.1,3.6 C3.3,1.9 5.3,1.1 7.9,1.1 C9.9,1.1 11.8,1.4 13.4,1.9 L13.6,2.2 L13.1,4.8 L12.8,5 C11.5,4.5 9.8,4.3 8,4.3 C6.5,4.3 5.5,4.8 4.9,5.9 C4.3,7 4,8.8 4,11.2 C4,13.6 4.3,15.5 5,16.6 C5.6,17.7 6.6,18.2 7.8,18.2 C8.7,18.2 9.6,18.1 10.6,17.9 L10.6,13.8 L8.1,13.8 L7.9,13.6 L7.9,10.9 L8.1,10.7 L13.8,10.7 L14,10.9 L14,20.4 L13.8,20.6 C12,21.2 10,21.5 7.8,21.5 L7.8,21.5 Z" id="Shape"></path>
                        <path d="M8,1.3 C10,1.3 11.8,1.6 13.4,2.1 L12.9,4.7 C11.5,4.2 9.9,4 8,4 C6.4,4 5.3,4.6 4.7,5.7 C4.1,6.8 3.7,8.6 3.7,11.1 C3.7,13.6 4,15.4 4.7,16.6 C5.4,17.8 6.4,18.3 7.8,18.3 C8.8,18.3 9.8,18.2 10.8,17.9 L10.8,13.3 L8,13.3 L8,10.6 L13.7,10.6 L13.7,20.1 C11.8,20.8 9.8,21.1 7.7,21.1 C5.2,21.1 3.4,20.3 2.2,18.8 C1,17.2 0.5,14.7 0.5,11.2 C0.5,7.7 1.1,5.2 2.3,3.6 C3.6,2.1 5.5,1.3 8,1.3 L8,1.3 Z M8,0.8 C5.3,0.8 3.3,1.7 2,3.4 C0.7,5.1 0.1,7.7 0.1,11.3 C0.1,14.9 0.7,17.5 1.9,19.2 C3.1,20.9 5.1,21.7 7.8,21.7 C10,21.7 12.1,21.4 14,20.7 L14.3,20.2 L14.3,10.7 L13.8,10.2 L8.1,10.2 L7.6,10.7 L7.6,13.4 L8.1,13.9 L10.4,13.9 L10.4,17.6 C9.5,17.8 8.7,17.9 7.9,17.9 C6.7,17.9 5.9,17.4 5.3,16.4 C4.7,15.3 4.3,13.6 4.3,11.2 C4.3,8.8 4.6,7 5.2,6 C5.7,5 6.7,4.6 8.1,4.6 C9.9,4.6 11.5,4.8 12.8,5.3 L13.5,4.9 L14,2.3 L13.7,1.7 C12,1.1 10.1,0.8 8,0.8 L8,0.8 L8,0.8 Z" id="Shape"></path>
                        <path d="M21.9,21.6 C17.4,21.6 15.2,19 15.2,14 C15.2,11.6 15.8,9.7 16.9,8.4 C18,7.1 19.6,6.5 21.5,6.5 C23.5,6.5 25,7.1 26.1,8.3 C27.2,9.5 27.7,11.2 27.8,13.4 L27.7,15.6 L27.5,15.8 L19,15.8 C19.2,17.6 20.2,18.5 21.9,18.5 C23.2,18.5 24.7,18.3 26.1,17.8 L26.4,18 L27,20.6 L26.8,20.9 C26.2,21.1 25.3,21.3 24.3,21.5 C23.5,21.5 22.6,21.6 21.9,21.6 L21.9,21.6 Z M24,12.7 C23.9,10.7 23.2,9.7 21.7,9.7 C20.8,9.7 20.2,9.9 19.8,10.4 C19.4,10.9 19.2,11.6 19.1,12.7 L24,12.7 L24,12.7 Z" id="Shape"></path>
                        <path d="M21.5,6.7 C23.4,6.7 24.9,7.3 25.9,8.4 C26.9,9.5 27.5,11.1 27.5,13.3 L27.4,15.5 L18.8,15.5 C19,17.6 20,18.7 22,18.7 C23.4,18.7 24.8,18.5 26.3,18 L26.9,20.6 C26.3,20.8 25.5,21 24.4,21.2 C23.4,21.4 22.6,21.5 21.9,21.5 C17.6,21.5 15.4,19.1 15.4,14.2 C15.4,11.8 15.9,10 17,8.8 C18.1,7.3 19.6,6.7 21.5,6.7 L21.5,6.7 Z M18.7,13 L24.2,13 C24.2,10.7 23.3,9.5 21.6,9.5 C20.7,9.5 20,9.8 19.5,10.3 C19.1,10.8 18.8,11.7 18.7,13 L18.7,13 Z M21.5,6.2 C19.5,6.2 17.8,6.9 16.7,8.2 C15.6,9.5 15,11.5 15,14 C15,19.2 17.3,21.8 22,21.8 C22.7,21.8 23.5,21.7 24.6,21.5 C25.6,21.3 26.5,21.1 27.1,20.9 L27.4,20.3 L26.8,17.7 L26.2,17.3 C24.7,17.8 23.3,18 22,18 C20.5,18 19.6,17.3 19.4,15.8 L27.5,15.8 L28,15.3 L28.1,13.1 C28.1,10.8 27.5,9 26.4,7.8 C25.1,6.8 23.5,6.2 21.5,6.2 L21.5,6.2 L21.5,6.2 Z M19.3,12.5 C19.4,11.6 19.6,11 19.9,10.6 C20.3,10.2 20.8,10 21.6,10 C22.4,10 23.5,10.3 23.7,12.5 L19.3,12.5 L19.3,12.5 L19.3,12.5 Z" id="Shape"></path>
                        <path d="M35.3,21.6 C30.8,21.6 28.6,19 28.6,14 C28.6,11.6 29.2,9.7 30.3,8.4 C31.4,7.1 33,6.5 34.9,6.5 C36.9,6.5 38.4,7.1 39.5,8.3 C40.6,9.5 41.1,11.2 41.2,13.4 L41.1,15.6 L40.9,15.8 L32.5,15.8 C32.7,17.6 33.7,18.5 35.4,18.5 C36.7,18.5 38.2,18.3 39.6,17.8 L39.9,18 L40.5,20.6 L40.3,20.9 C39.7,21.1 38.8,21.3 37.8,21.5 C36.8,21.5 35.9,21.6 35.3,21.6 L35.3,21.6 Z M37.3,12.7 C37.2,10.7 36.5,9.7 35,9.7 C34.1,9.7 33.5,9.9 33.1,10.4 C32.7,10.9 32.5,11.6 32.4,12.7 L37.3,12.7 L37.3,12.7 Z" id="Shape"></path>
                        <path d="M34.8,6.7 C36.7,6.7 38.2,7.3 39.2,8.4 C40.2,9.5 40.8,11.1 40.8,13.3 L40.7,15.5 L32.1,15.5 C32.3,17.6 33.3,18.7 35.3,18.7 C36.7,18.7 38.1,18.5 39.6,18 L40.2,20.6 C39.6,20.8 38.8,21 37.7,21.2 C36.7,21.4 35.9,21.5 35.2,21.5 C30.9,21.5 28.7,19.1 28.7,14.2 C28.7,11.8 29.2,10 30.3,8.8 C31.4,7.3 32.9,6.7 34.8,6.7 L34.8,6.7 Z M32.1,13 L37.6,13 C37.6,10.7 36.7,9.5 35,9.5 C34.1,9.5 33.4,9.8 32.9,10.3 C32.4,10.8 32.1,11.7 32.1,13 L32.1,13 Z M34.8,6.2 C32.8,6.2 31.1,6.9 30,8.2 C28.9,9.5 28.3,11.5 28.3,14 C28.3,19.2 30.6,21.8 35.3,21.8 C36,21.8 36.8,21.7 37.9,21.5 C38.9,21.3 39.8,21.1 40.4,20.9 L40.7,20.3 L40.1,17.7 L39.5,17.3 C38,17.8 36.6,18 35.3,18 C33.8,18 32.9,17.3 32.7,15.8 L40.8,15.8 L41.3,15.3 L41.4,13.1 C41.4,10.8 40.8,9 39.7,7.8 C38.4,6.8 36.8,6.2 34.8,6.2 L34.8,6.2 L34.8,6.2 Z M32.6,12.5 C32.7,11.6 32.9,11 33.2,10.6 C33.6,10.2 34.1,10 34.9,10 C35.7,10 36.8,10.3 37,12.5 L32.6,12.5 L32.6,12.5 L32.6,12.5 Z" id="Shape"></path>
                        <path d="M51.8,21.3 L51.6,21.2 C50.7,19.2 49.6,17.2 48.4,15.4 L46.7,15.6 L46.7,21.2 L46.5,21.4 L43.5,21.4 L43.3,21.2 L43.3,1.5 L43.5,1.3 L46.5,1.3 L46.7,1.5 L46.7,12.5 L48.3,12.3 C49.4,10.9 50.3,9.4 51.1,7.8 L51.5,7 L51.7,6.9 L55,6.9 L55.2,7.3 C54,9.9 52.6,12 51.1,13.8 C52.3,15.6 53.6,17.7 54.8,20 L55.4,21.1 L55.2,21.5 L51.8,21.5 L51.8,21.3 Z" id="Shape"></path>
                        <path d="M46.4,1.3 L46.4,12.6 L48.4,12.4 C49.5,11 50.5,9.4 51.3,7.8 L51.7,7 L55,7 C53.8,9.6 52.4,11.8 50.9,13.6 C52.2,15.4 53.4,17.5 54.7,20 L55.3,21.1 L51.8,21.1 C50.8,19 49.7,17 48.5,15.1 L46.4,15.3 L46.4,21.1 L43.4,21.1 L43.4,1.4 L46.4,1.4 L46.4,1.3 Z M46.4,0.8 L43.4,0.8 L42.9,1.3 L42.9,21 L43.4,21.5 L46.4,21.5 L46.9,21 L46.9,15.7 L48.2,15.6 C49.4,17.4 50.4,19.3 51.3,21.3 L51.8,21.6 L55.3,21.6 L55.7,20.9 L55.1,19.8 C53.9,17.5 52.7,15.4 51.5,13.7 C52.9,12 54.3,9.8 55.5,7.3 L55,6.6 L51.7,6.6 L51.3,6.9 L50.9,7.7 C50.1,9.3 49.2,10.7 48.2,12.1 L47,12.2 L47,1.5 L46.4,0.8 L46.4,0.8 L46.4,0.8 Z" id="Shape"></path>
                        <path d="M61.5,21.5 C59.8,21.5 57.9,21.2 55.9,20.5 L55.7,20.2 L56.4,17.5 L56.7,17.3 C58.5,17.9 60,18.2 61.1,18.2 C62.2,18.2 62.9,18.1 63.2,17.9 C63.5,17.7 63.7,17.5 63.7,17.1 C63.7,16.7 63.6,16.4 63.3,16.2 C63,16 62.3,15.8 61.4,15.5 C59.4,15 58,14.5 57.2,13.9 C56.4,13.3 55.9,12.2 55.9,10.8 C55.9,7.8 57.8,6.3 61.6,6.3 C63.2,6.3 65,6.6 67.1,7.1 L67.3,7.4 L66.7,10.2 L66.4,10.4 C64.5,9.9 63,9.6 61.9,9.6 C60.6,9.6 60.1,9.7 59.9,9.9 C59.6,10 59.5,10.3 59.5,10.6 C59.5,11 59.6,11.2 59.9,11.4 C60.2,11.6 61.2,11.9 62.7,12.3 C64.2,12.7 65.4,13.2 66.1,13.8 C66.9,14.4 67.3,15.4 67.3,16.8 C67.3,20 65.3,21.5 61.5,21.5 L61.5,21.5 Z" id="Shape"></path>
                        <path d="M61.6,6.7 C63.2,6.7 65,7 67,7.5 L66.4,10.3 C64.4,9.7 62.9,9.5 61.9,9.5 C60.8,9.5 60.1,9.6 59.8,9.8 C59.4,10 59.3,10.3 59.3,10.8 C59.3,11.3 59.5,11.6 59.8,11.8 C60.2,12 61.1,12.3 62.6,12.7 C64.1,13.1 65.2,13.6 65.9,14.1 C66.6,14.6 67,15.6 67,16.9 C67,19.9 65.2,21.4 61.5,21.4 C59.8,21.4 57.9,21.1 56,20.5 L56.7,17.8 C58.6,18.4 60.1,18.7 61.2,18.7 C62.3,18.7 63.1,18.6 63.4,18.4 C63.8,18.2 64,17.8 64,17.3 C64,16.8 63.8,16.4 63.5,16.2 C63.1,16 62.5,15.8 61.5,15.5 C59.5,15 58.2,14.5 57.4,13.9 C56.6,13.3 56.2,12.4 56.2,11 C56.1,8.1 58,6.7 61.6,6.7 L61.6,6.7 Z M61.6,6.2 C56.7,6.2 55.7,8.8 55.7,10.9 C55.7,12.4 56.2,13.5 57.1,14.2 C57.9,14.8 59.3,15.4 61.4,15.9 C62.6,16.2 63.1,16.4 63.3,16.5 C63.4,16.6 63.6,16.7 63.6,17.2 C63.6,17.6 63.4,17.7 63.3,17.8 C63.1,17.9 62.6,18.1 61.3,18.1 C60.3,18.1 58.8,17.8 57,17.2 L56.4,17.6 L55.7,20.3 L56,20.9 C58,21.5 59.9,21.9 61.7,21.9 C66.7,21.9 67.7,19.2 67.7,16.9 C67.7,15.4 67.3,14.4 66.4,13.7 C65.6,13.1 64.5,12.6 62.9,12.2 C61.1,11.7 60.4,11.4 60.2,11.3 C60.1,11.2 59.9,11.1 59.9,10.7 C59.9,10.4 60,10.3 60.2,10.2 C60.4,10.1 60.8,10 62.1,10 C63.1,10 64.6,10.3 66.5,10.8 L67.1,10.4 L67.7,7.6 L67.3,7 C65,6.5 63.2,6.2 61.6,6.2 L61.6,6.2 L61.6,6.2 Z" id="Shape"></path>
                    </g>
                    <g id="Group">
                        <g id="Shape">
                            <path d="M7.8,21.5 C5.2,21.5 3.3,20.7 2.1,19.1 C0.9,17.5 0.3,14.9 0.3,11.4 C0.3,7.9 0.9,5.3 2.1,3.6 C3.3,1.9 5.3,1.1 7.9,1.1 C9.9,1.1 11.8,1.4 13.4,1.9 L13.6,2.2 L13.1,4.8 L12.8,5 C11.5,4.5 9.8,4.3 8,4.3 C6.5,4.3 5.5,4.8 4.9,5.9 C4.3,7 4,8.8 4,11.2 C4,13.6 4.3,15.5 5,16.6 C5.6,17.7 6.6,18.2 7.8,18.2 C8.7,18.2 9.6,18.1 10.6,17.9 L10.6,13.8 L8.1,13.8 L7.9,13.6 L7.9,10.9 L8.1,10.7 L13.8,10.7 L14,10.9 L14,20.4 L13.8,20.6 C12,21.2 10,21.5 7.8,21.5 L7.8,21.5 Z" fill="#FFFFFF"></path>
                            <path d="M8,1.3 C10,1.3 11.8,1.6 13.4,2.1 L12.9,4.7 C11.5,4.2 9.9,4 8,4 C6.4,4 5.3,4.6 4.7,5.7 C4.1,6.8 3.7,8.6 3.7,11.1 C3.7,13.6 4,15.4 4.7,16.6 C5.4,17.8 6.4,18.3 7.8,18.3 C8.8,18.3 9.8,18.2 10.8,17.9 L10.8,13.3 L8,13.3 L8,10.6 L13.7,10.6 L13.7,20.1 C11.8,20.8 9.8,21.1 7.7,21.1 C5.2,21.1 3.4,20.3 2.2,18.8 C1,17.2 0.5,14.7 0.5,11.2 C0.5,7.7 1.1,5.2 2.3,3.6 C3.6,2.1 5.5,1.3 8,1.3 L8,1.3 Z M8,0.8 C5.3,0.8 3.3,1.7 2,3.4 C0.7,5.1 0.1,7.7 0.1,11.3 C0.1,14.9 0.7,17.5 1.9,19.2 C3.1,20.9 5.1,21.7 7.8,21.7 C10,21.7 12.1,21.4 14,20.7 L14.3,20.2 L14.3,10.7 L13.8,10.2 L8.1,10.2 L7.6,10.7 L7.6,13.4 L8.1,13.9 L10.4,13.9 L10.4,17.6 C9.5,17.8 8.7,17.9 7.9,17.9 C6.7,17.9 5.9,17.4 5.3,16.4 C4.7,15.3 4.3,13.6 4.3,11.2 C4.3,8.8 4.6,7 5.2,6 C5.7,5 6.7,4.6 8.1,4.6 C9.9,4.6 11.5,4.8 12.8,5.3 L13.5,4.9 L14,2.3 L13.7,1.7 C12,1.1 10.1,0.8 8,0.8 L8,0.8 L8,0.8 Z" fill="#666666"></path>
                        </g>
                        <g transform="translate(15.000000, 6.000000)" id="Shape">
                            <path d="M7,15.6 C2.5,15.6 0.3,13 0.3,8 C0.3,5.6 0.9,3.7 2,2.4 C3.1,1.1 4.7,0.5 6.6,0.5 C8.6,0.5 10.1,1.1 11.2,2.3 C12.3,3.5 12.8,5.2 12.9,7.4 L12.8,9.6 L12.6,9.8 L4,9.8 C4.2,11.6 5.2,12.5 6.9,12.5 C8.2,12.5 9.7,12.3 11.1,11.8 L11.4,12 L12,14.6 L11.8,14.9 C11.2,15.1 10.3,15.3 9.3,15.5 C8.5,15.5 7.6,15.6 7,15.6 L7,15.6 Z M9,6.8 C8.9,4.8 8.2,3.8 6.7,3.8 C5.8,3.8 5.2,4 4.8,4.5 C4.4,5 4.2,5.7 4.1,6.8 L9,6.8 L9,6.8 Z" fill="#FFFFFF"></path>
                            <path d="M6.5,0.7 C8.4,0.7 9.9,1.3 10.9,2.4 C11.9,3.5 12.5,5.1 12.5,7.3 L12.4,9.5 L3.8,9.5 C4,11.6 5,12.7 7,12.7 C8.4,12.7 9.8,12.5 11.3,12 L11.9,14.6 C11.3,14.8 10.5,15 9.4,15.2 C8.4,15.4 7.6,15.5 6.9,15.5 C2.6,15.5 0.4,13.1 0.4,8.2 C0.4,5.8 0.9,4 2,2.8 C3.1,1.3 4.6,0.7 6.5,0.7 L6.5,0.7 Z M3.8,7 L9.3,7 C9.3,4.7 8.4,3.5 6.7,3.5 C5.8,3.5 5.1,3.8 4.6,4.3 C4.1,4.8 3.8,5.7 3.8,7 L3.8,7 Z M6.5,0.2 C4.5,0.2 2.8,0.9 1.7,2.2 C0.6,3.5 0,5.5 0,8 C0,13.2 2.3,15.8 7,15.8 C7.7,15.8 8.5,15.7 9.6,15.5 C10.6,15.3 11.5,15.1 12.1,14.9 L12.4,14.3 L11.8,11.7 L11.2,11.3 C9.7,11.8 8.3,12 7,12 C5.5,12 4.6,11.3 4.4,9.8 L12.5,9.8 L13,9.3 L13.1,7.1 C13.1,4.8 12.5,3 11.4,1.8 C10.1,0.8 8.5,0.2 6.5,0.2 L6.5,0.2 L6.5,0.2 Z M4.3,6.5 C4.4,5.6 4.6,5 4.9,4.6 C5.3,4.2 5.8,4 6.6,4 C7.4,4 8.5,4.3 8.7,6.5 L4.3,6.5 L4.3,6.5 L4.3,6.5 Z" fill="#666666"></path>
                        </g>
                        <g transform="translate(28.000000, 6.000000)" id="Shape">
                            <path d="M7.3,15.6 C2.8,15.6 0.6,13 0.6,8 C0.6,5.6 1.2,3.7 2.3,2.4 C3.4,1.1 5,0.5 6.9,0.5 C8.9,0.5 10.4,1.1 11.5,2.3 C12.6,3.5 13.1,5.2 13.2,7.4 L13.1,9.6 L12.9,9.8 L4.5,9.8 C4.7,11.6 5.7,12.5 7.4,12.5 C8.7,12.5 10.2,12.3 11.6,11.8 L11.9,12 L12.5,14.6 L12.3,14.9 C11.7,15.1 10.8,15.3 9.8,15.5 C8.8,15.5 7.9,15.6 7.3,15.6 L7.3,15.6 Z M9.3,6.8 C9.2,4.8 8.5,3.8 7,3.8 C6.1,3.8 5.5,4 5.1,4.5 C4.7,5 4.5,5.7 4.4,6.8 L9.3,6.8 L9.3,6.8 Z" fill="#FFFFFF"></path>
                            <path d="M6.8,0.7 C8.7,0.7 10.2,1.3 11.2,2.4 C12.2,3.5 12.8,5.1 12.8,7.3 L12.7,9.5 L4.1,9.5 C4.3,11.6 5.3,12.7 7.3,12.7 C8.7,12.7 10.1,12.5 11.6,12 L12.2,14.6 C11.6,14.8 10.8,15 9.7,15.2 C8.7,15.4 7.9,15.5 7.2,15.5 C2.9,15.5 0.7,13.1 0.7,8.2 C0.7,5.8 1.2,4 2.3,2.8 C3.5,1.3 4.9,0.7 6.8,0.7 L6.8,0.7 Z M4.1,7 L9.6,7 C9.6,4.7 8.7,3.5 7,3.5 C6.1,3.5 5.4,3.8 4.9,4.3 C4.4,4.8 4.1,5.7 4.1,7 L4.1,7 Z M6.8,0.2 C4.8,0.2 3.1,0.9 2,2.2 C0.9,3.5 0.3,5.5 0.3,8 C0.3,13.2 2.6,15.8 7.3,15.8 C8,15.8 8.8,15.7 9.9,15.5 C10.9,15.3 11.8,15.1 12.4,14.9 L12.7,14.3 L12.1,11.7 L11.5,11.3 C10,11.8 8.6,12 7.3,12 C5.8,12 4.9,11.3 4.7,9.8 L12.8,9.8 L13.3,9.3 L13.4,7.1 C13.4,4.8 12.8,3 11.7,1.8 C10.5,0.8 8.9,0.2 6.8,0.2 L6.8,0.2 L6.8,0.2 Z M4.6,6.5 C4.7,5.6 4.9,5 5.2,4.6 C5.6,4.2 6.1,4 6.9,4 C7.7,4 8.8,4.3 9,6.5 L4.6,6.5 L4.6,6.5 L4.6,6.5 Z" fill="#666666"></path>
                        </g>
                        <g transform="translate(42.000000, 0.000000)" id="Shape">
                            <path d="M9.8,21.3 L9.6,21.2 C8.7,19.2 7.6,17.2 6.4,15.4 L4.7,15.6 L4.7,21.2 L4.5,21.4 L1.5,21.4 L1.3,21.2 L1.3,1.5 L1.5,1.3 L4.5,1.3 L4.7,1.5 L4.7,12.5 L6.3,12.3 C7.4,10.9 8.3,9.4 9.1,7.8 L9.5,7 L9.7,6.9 L13,6.9 L13.2,7.3 C12,9.9 10.6,12 9.1,13.8 C10.3,15.6 11.6,17.7 12.8,20 L13.4,21.1 L13.2,21.5 L9.8,21.5 L9.8,21.3 Z" fill="#FFFFFF"></path>
                            <path d="M4.4,1.3 L4.4,12.6 L6.4,12.4 C7.5,11 8.5,9.4 9.3,7.8 L9.7,7 L13,7 C11.8,9.6 10.4,11.8 8.9,13.6 C10.2,15.4 11.4,17.5 12.7,20 L13.3,21.1 L9.8,21.1 C8.8,19 7.7,17 6.5,15.1 L4.4,15.3 L4.4,21.1 L1.4,21.1 L1.4,1.4 L4.4,1.4 L4.4,1.3 Z M4.4,0.8 L1.4,0.8 L0.9,1.3 L0.9,21 L1.4,21.5 L4.4,21.5 L4.9,21 L4.9,15.7 L6.2,15.6 C7.4,17.4 8.4,19.3 9.3,21.3 L9.8,21.6 L13.3,21.6 L13.7,20.9 L13.1,19.8 C11.9,17.5 10.7,15.4 9.5,13.7 C10.9,12 12.3,9.8 13.5,7.3 L13,6.6 L9.7,6.6 L9.3,6.9 L8.9,7.7 C8.1,9.3 7.2,10.7 6.2,12.1 L5,12.2 L5,1.5 L4.4,0.8 L4.4,0.8 L4.4,0.8 Z" fill="#666666"></path>
                        </g>
                        <g transform="translate(55.000000, 6.000000)" id="Shape">
                            <path d="M6.5,15.6 C4.8,15.6 2.9,15.3 0.9,14.6 L0.7,14.3 L1.4,11.6 L1.7,11.4 C3.5,12 5,12.3 6.1,12.3 C7.2,12.3 7.9,12.2 8.2,12 C8.5,11.8 8.7,11.6 8.7,11.2 C8.7,10.8 8.6,10.5 8.3,10.3 C8,10.1 7.3,9.9 6.4,9.6 C4.4,9.1 3,8.6 2.2,8 C1.4,7.4 0.9,6.3 0.9,4.9 C0.9,1.9 2.8,0.4 6.6,0.4 C8.2,0.4 10,0.7 12.1,1.2 L12.3,1.5 L11.7,4.3 L11.4,4.5 C9.5,4 8,3.7 6.9,3.7 C5.6,3.7 5.1,3.8 4.9,4 C4.6,4.1 4.5,4.4 4.5,4.7 C4.5,5.1 4.6,5.3 4.9,5.5 C5.2,5.7 6.2,6 7.7,6.4 C9.2,6.8 10.4,7.3 11.1,7.9 C11.9,8.5 12.3,9.5 12.3,10.9 C12.3,14 10.3,15.6 6.5,15.6 L6.5,15.6 Z" fill="#FFFFFF"></path>
                            <path d="M6.6,0.7 C8.2,0.7 10,1 12,1.5 L11.4,4.3 C9.4,3.7 7.9,3.5 6.9,3.5 C5.8,3.5 5.1,3.6 4.8,3.8 C4.4,4 4.3,4.3 4.3,4.8 C4.3,5.3 4.5,5.6 4.8,5.8 C5.2,6 6.1,6.3 7.6,6.7 C9.1,7.1 10.2,7.6 10.9,8.1 C11.6,8.6 12,9.6 12,10.9 C12,13.9 10.2,15.4 6.5,15.4 C4.8,15.4 2.9,15.1 1,14.5 L1.7,11.8 C3.6,12.4 5.1,12.7 6.2,12.7 C7.3,12.7 8.1,12.6 8.4,12.4 C8.8,12.2 9,11.8 9,11.3 C9,10.8 8.8,10.4 8.5,10.2 C8.1,10 7.5,9.8 6.5,9.5 C4.5,9 3.2,8.5 2.4,7.9 C1.6,7.3 1.2,6.4 1.2,5 C1.2,2.1 3,0.7 6.6,0.7 L6.6,0.7 Z M6.6,0.2 C1.7,0.2 0.7,2.8 0.7,4.9 C0.7,6.4 1.2,7.5 2.1,8.2 C2.9,8.8 4.3,9.4 6.4,9.9 C7.6,10.2 8.1,10.4 8.3,10.5 C8.4,10.6 8.6,10.7 8.6,11.2 C8.6,11.6 8.4,11.7 8.3,11.8 C8.1,11.9 7.6,12.1 6.3,12.1 C5.3,12.1 3.8,11.8 2,11.2 L1.4,11.6 L0.7,14.3 L1,14.9 C3,15.5 4.9,15.9 6.7,15.9 C11.7,15.9 12.7,13.2 12.7,10.9 C12.7,9.4 12.3,8.4 11.4,7.7 C10.6,7.1 9.5,6.6 7.9,6.2 C6.1,5.7 5.4,5.4 5.2,5.3 C5.1,5.2 4.9,5.1 4.9,4.7 C4.9,4.4 5,4.3 5.2,4.2 C5.4,4.1 5.8,4 7.1,4 C8.1,4 9.6,4.3 11.5,4.8 L12.1,4.4 L12.7,1.6 L12.3,1 C10.1,0.5 8.2,0.2 6.6,0.2 L6.6,0.2 L6.6,0.2 Z" fill="#666666"></path>
                        </g>
                    </g>
                </g>
            </g>
            <g id="Group">
                <path d="M32.5,22.1 L39.7,22.1 M39.7,22.1 L45.2,22.1 L45.2,25.7 L52,25.7 L52,22.1 L53.5,22.1 C55.5,22.1 57.4,21.1 58.5,19.6 L58.5,25.7 L65.3,25.7 L65.3,22.1 L66.8,22.1 C70.3,22.1 73.1,19.3 73.1,15.8 L73.1,11.5 C73.1,8 70.3,5.2 66.8,5.2 L58.5,5.2 L45.2,5.2 L45.2,7.6 C44,6.1 42.3,5.2 40.3,5.2 L25.4,5.2 L25.4,7.3 C24.4,6 22.8,5.2 21,5.2 L12.4,5.2 L12.4,0.2 L5.6,0.2 L5.6,5.2 L5.6,7.1 L5.6,19.6 L1.13686838e-13,19.6 L3.4,26.5 L6.2,26.5 C9.5,26.5 12.2,23.9 12.3,20.7 C13.3,21.6 14.7,22.2 16.2,22.2 L25.3,22.2 L26.5,22.2 L32.5,22.2" id="Shape" stroke="#666666" stroke-width="0.5"></path>
                <g transform="translate(3.000000, 2.000000)" fill-rule="nonzero" fill="#373865">
                    <path d="M50.5,5.2 L44.2,5.2 L44.2,21.7 L47,21.7 L47,18.1 L50.5,18.1 C52.9,18.1 54.8,16.2 54.8,13.8 L54.8,9.5 C54.8,7.1 52.9,5.2 50.5,5.2 L50.5,5.2 Z M52,13.8 C52,14.6 51.4,15.2 50.6,15.2 L47,15.2 L47,8 L50.6,8 C51.4,8 52,8.6 52,9.4 L52,13.8 Z" id="Shape"></path>
                    <path d="M63.8,5.2 L57.5,5.2 L57.5,21.7 L60.3,21.7 L60.3,18.1 L63.8,18.1 C66.2,18.1 68.1,16.2 68.1,13.8 L68.1,9.5 C68.1,7.1 66.2,5.2 63.8,5.2 L63.8,5.2 Z M65.3,13.8 C65.3,14.6 64.7,15.2 63.9,15.2 L60.3,15.2 L60.3,8 L63.9,8 C64.7,8 65.3,8.6 65.3,9.4 L65.3,13.8 Z" id="Shape"></path>
                    <rect id="Rectangle-path" x="4.6" y="0.2" width="2.8" height="2.9"></rect>
                    <path d="M37.2,5.2 L24.3,5.2 L24.3,18.1 L27.2,18.1 L27.2,8.1 L31.5,8.1 L31.5,18.1 L34.4,18.1 L34.4,8.1 L37.3,8.1 C38.1,8.1 38.7,8.7 38.7,9.5 L38.7,18.1 L41.6,18.1 L41.6,9.5 C41.5,7.1 39.6,5.2 37.2,5.2" id="Shape"></path>
                    <path d="M4.6,18.1 C4.6,18.9 4,19.5 3.2,19.5 L0.3,19.5 L1.7,22.4 L3.3,22.4 C5.6,22.4 7.5,20.5 7.5,18.2 L7.5,5.2 L4.7,5.2 L4.7,18.1 L4.6,18.1 Z" id="Shape"></path>
                    <path d="M18,5.2 L10.3,5.2 L11.7,8 L17.2,8 C18,8 18.6,8.6 18.6,9.4 L18.6,10.3 L13.2,10.3 C11,10.3 9.3,12 9.3,14.2 C9.3,16.4 11,18.1 13.2,18.1 L21.5,18.1 L21.5,8.8 C21.6,6.8 20,5.2 18,5.2 L18,5.2 Z M18.7,15.3 L13.4,15.3 C12.8,15.3 12.3,14.8 12.3,14.2 C12.3,13.6 12.8,13.1 13.4,13.1 L18.7,13.1 L18.7,15.3 Z" id="Shape"></path>
                </g>
            </g>
        </g>
    </g>
</svg>