<?xml version="1.0" encoding="UTF-8" standalone="no"?>
<svg width="154px" height="29px" viewBox="0 0 154 29" version="1.1" xmlns="http://www.w3.org/2000/svg" xmlns:xlink="http://www.w3.org/1999/xlink">
    <defs></defs>
    <g id="A-standard" stroke="none" stroke-width="1" fill="none" fill-rule="evenodd">
        <g id="03-home---menu" transform="translate(-10.000000, -16.000000)">
            <g id="top">
                <g id="Imported-Layers" transform="translate(10.000000, 16.000000)">
                    <path d="M54.2551333,16.9476 L54.2551333,12.3714 L57.8105333,12.3714 C58.3741,12.3714 58.8323,12.8286333 58.8323,13.3922 L58.8323,15.9268 C58.8323,16.4903667 58.3741,16.9476 57.8105333,16.9476 L54.2551333,16.9476" id="Fill-13" fill="#FFFFFF"></path>
                    <path d="M57.8105333,12.6121 C58.2416667,12.6121 58.5906333,12.9620333 58.5906333,13.3922 L58.5906333,15.9268 C58.5906333,16.3569667 58.2416667,16.7069 57.8105333,16.7069 L54.4968,16.7069 L54.4968,12.6121 L57.8105333,12.6121 M57.8105333,12.1287667 L54.0134667,12.1287667 L54.0134667,17.1902333 L57.8105333,17.1902333 C58.5075,17.1902333 59.0739667,16.6228 59.0739667,15.9268 L59.0739667,13.3922 C59.0739667,12.6962 58.5075,12.1287667 57.8105333,12.1287667" id="Fill-14" fill="#666666"></path>
                    <path d="M3.79996667,28.4345 L0.984066667,19.9906667 L5.9218,19.9906667 L5.9218,2.5288 L14.3656333,2.5288 L14.3656333,6.59556667 L25.3315,6.59556667 C26.2150333,6.59556667 27.0589333,6.88073333 27.7568667,7.40756667 L27.7568667,0.8845 L44.9384,0.8845 C47.6450667,0.8845 49.8471333,3.08656667 49.8471333,5.79323333 L49.8471333,6.34423333 L75.8901,6.34423333 C78.1202,6.34423333 79.9346333,8.1577 79.9346333,10.3887667 L79.9346333,18.9302333 C79.9346333,21.1613 78.1202,22.9757333 75.8901,22.9757333 L71.7469667,22.9757333 L71.7469667,27.0695667 L63.3021667,27.0695667 L63.3021667,22.1115333 C62.5936,22.6722 61.7274667,22.9757333 60.8139667,22.9757333 L56.6718,22.9757333 L56.6718,27.0695667 L48.2279667,27.0695667 L48.2279667,17.5169667 L29.3779667,17.5169667 L29.3779667,24.5929667 L16.356,24.5929667 C15.6155333,24.5929667 14.8953667,24.3590333 14.2863667,23.9269333 C13.9084,26.4876333 11.7034333,28.4345 9.0828,28.4345 L3.79996667,28.4345 L3.79996667,28.4345 Z M9.0828,26.0178333 C10.6633,26.0178333 11.9489667,24.7331333 11.9489667,23.1526333 L11.9489667,9.60866667 L8.33846667,9.60866667 L8.33846667,20.5358667 C8.33846667,21.5682667 7.4994,22.4073333 6.467,22.4073333 L4.33743333,22.4073333 L5.54093333,26.0178333 L9.0828,26.0178333 L9.0828,26.0178333 Z M69.3303,24.6529 L69.3303,20.5590667 L75.8901,20.5590667 C76.7881333,20.5590667 77.5179667,19.8282667 77.5179667,18.9302333 L77.5179667,10.3887667 C77.5179667,9.49073333 76.7881333,8.7609 75.8901,8.7609 L65.7188333,8.7609 L65.7188333,24.6529 L69.3303,24.6529 L69.3303,24.6529 Z M54.2551333,24.6529 L54.2551333,20.5590667 L60.8139667,20.5590667 C61.7129667,20.5590667 62.4437667,19.8282667 62.4437667,18.9302333 L62.4437667,10.3887667 C62.4437667,9.49073333 61.7129667,8.7609 60.8139667,8.7609 L50.6446333,8.7609 L50.6446333,24.6529 L54.2551333,24.6529 L54.2551333,24.6529 Z M16.356,14.4719667 C15.6967333,14.4719667 15.1612,15.0065333 15.1612,15.6658 L15.1612,20.9824667 C15.1612,21.6417333 15.6967333,22.1763 16.356,22.1763 L26.9613,22.1763 L26.9613,10.6420333 C26.9613,9.74303333 26.2305,9.01223333 25.3315,9.01223333 L15.1612,9.01223333 L15.1612,12.6237 L23.3498333,12.6237 L23.3498333,14.4719667 L16.356,14.4719667 L16.356,14.4719667 Z M47.4304667,15.1003 L47.4304667,5.79323333 C47.4304667,4.41863333 46.313,3.30116667 44.9384,3.30116667 L30.1735333,3.30116667 L30.1735333,15.1003 L33.7840333,15.1003 L33.7840333,6.91166667 L36.9962667,6.91166667 L36.9962667,15.1003 L40.6077333,15.1003 L40.6077333,6.91166667 L42.4163667,6.91166667 C43.1906667,6.91166667 43.8209333,7.54193333 43.8209333,8.31526667 L43.8209333,15.1003 L47.4304667,15.1003 L47.4304667,15.1003 Z M8.33846667,6.34423333 L11.9489667,6.34423333 L11.9489667,4.94643333 L8.33846667,4.94643333 L8.33846667,6.34423333 Z" id="Fill-15" fill="#FFFFFF"></path>
                    <path d="M44.9393667,1.12616667 C47.5126333,1.12616667 49.6064333,3.21996667 49.6064333,5.79323333 L49.6064333,6.58493333 L75.8891333,6.58493333 C77.9868,6.58493333 79.6939333,8.2911 79.6939333,10.3887667 L79.6939333,18.9302333 C79.6939333,21.0279 77.9868,22.7340667 75.8891333,22.7340667 L71.5053,22.7340667 L71.5053,26.8279 L63.5448,26.8279 L63.5448,21.5682667 C62.8517,22.2845667 61.886,22.7340667 60.8139667,22.7340667 L56.4301333,22.7340667 L56.4301333,26.8279 L48.4686667,26.8279 L48.4686667,17.2753 L29.1353333,17.2753 L29.1353333,24.3513 L16.356,24.3513 C15.4821333,24.3513 14.6923667,24.0081333 14.0930333,23.461 C13.9296667,26.0942 11.7575667,28.1928333 9.08376667,28.1928333 L3.97396667,28.1928333 L1.32046667,20.2323333 L6.16346667,20.2323333 L6.16346667,2.77143333 L14.1239667,2.77143333 L14.1239667,6.83723333 L25.3315,6.83723333 C26.3706667,6.83723333 27.3112333,7.25773333 27.9985333,7.93536667 L27.9985333,1.12616667 L44.9393667,1.12616667 L44.9393667,1.12616667 Z M29.9318667,15.3419667 L34.0257,15.3419667 L34.0257,7.15333333 L36.7555667,7.15333333 L36.7555667,15.3419667 L40.8494,15.3419667 L40.8494,7.15333333 L42.4163667,7.15333333 C43.0582333,7.15333333 43.5783,7.67436667 43.5783,8.31623333 L43.5783,15.3419667 L47.6731,15.3419667 L47.6731,5.79323333 C47.6731,4.2833 46.4493,3.0595 44.9393667,3.0595 L29.9318667,3.0595 L29.9318667,15.3419667 L29.9318667,15.3419667 Z M8.0968,6.58493333 L12.1906333,6.58493333 L12.1906333,4.70476667 L8.0968,4.70476667 L8.0968,6.58493333 Z M65.4781333,24.8945667 L69.5719667,24.8945667 L69.5719667,20.8007333 L75.8891333,20.8007333 C76.9225,20.8007333 77.7596333,19.9636 77.7596333,18.9302333 L77.7596333,10.3887667 C77.7596333,9.35636667 76.9225,8.51826667 75.8891333,8.51826667 L65.4781333,8.51826667 L65.4781333,24.8945667 L65.4781333,24.8945667 Z M50.402,24.8945667 L54.4968,24.8945667 L54.4968,20.8007333 L60.8139667,20.8007333 C61.8473333,20.8007333 62.6844667,19.9636 62.6844667,18.9302333 L62.6844667,10.3887667 C62.6844667,9.35636667 61.8473333,8.51826667 60.8139667,8.51826667 L50.402,8.51826667 L50.402,24.8945667 L50.402,24.8945667 Z M14.9205,12.8653667 L23.1081667,12.8653667 L23.1081667,14.2293333 L16.356,14.2293333 C15.5623667,14.2293333 14.9205,14.8721667 14.9205,15.6658 L14.9205,20.9824667 C14.9205,21.7751333 15.5623667,22.4179667 16.356,22.4179667 L27.202,22.4179667 L27.202,10.6410667 C27.202,9.60866667 26.3648667,8.77056667 25.3315,8.77056667 L14.9205,8.77056667 L14.9205,12.8653667 L14.9205,12.8653667 Z M5.36693333,26.2595 L9.08376667,26.2595 C10.7996,26.2595 12.1906333,24.8684667 12.1906333,23.1526333 L12.1906333,9.367 L8.0968,9.367 L8.0968,20.5358667 C8.0968,21.4358333 7.36696667,22.1656667 6.467,22.1656667 L4.002,22.1656667 L5.36693333,26.2595 L5.36693333,26.2595 Z M44.9393667,0.642833333 L27.5152,0.642833333 L27.5152,6.9542 C26.8598,6.5627 26.1106333,6.3539 25.3315,6.3539 L14.6073,6.3539 L14.6073,2.2881 L5.68013333,2.2881 L5.68013333,19.749 L0.6496,19.749 L3.625,28.6761667 L9.08376667,28.6761667 C11.6995667,28.6761667 13.9180667,26.8221 14.4594,24.3252 C15.0365,24.6567667 15.6880333,24.8346333 16.356,24.8346333 L29.6186667,24.8346333 L29.6186667,17.7586333 L47.9853333,17.7586333 L47.9853333,27.3112333 L56.9134667,27.3112333 L56.9134667,23.2174 L60.8139667,23.2174 C61.6201667,23.2174 62.3915667,22.9941 63.0614667,22.5774667 L63.0614667,27.3112333 L71.9886333,27.3112333 L71.9886333,23.2174 L75.8891333,23.2174 C78.2536,23.2174 80.1763,21.2937333 80.1763,18.9302333 L80.1763,10.3887667 C80.1763,8.02526667 78.2536,6.1016 75.8891333,6.1016 L50.0897667,6.1016 L50.0897667,5.79323333 C50.0897667,2.95316667 47.7794333,0.642833333 44.9393667,0.642833333 L44.9393667,0.642833333 Z M30.4152,3.54283333 L44.9393667,3.54283333 C46.1796,3.54283333 47.1897667,4.55203333 47.1897667,5.79323333 L47.1897667,14.8586333 L44.0616333,14.8586333 L44.0616333,8.31623333 C44.0616333,7.40853333 43.3240667,6.67 42.4163667,6.67 L40.3660667,6.67 L40.3660667,14.8586333 L37.2389,14.8586333 L37.2389,6.67 L33.5423667,6.67 L33.5423667,14.8586333 L30.4152,14.8586333 L30.4152,3.54283333 L30.4152,3.54283333 Z M8.58013333,5.1881 L11.7073,5.1881 L11.7073,6.1016 L8.58013333,6.1016 L8.58013333,5.1881 Z M65.9614667,9.0016 L75.8891333,9.0016 C76.6547333,9.0016 77.2763,9.62413333 77.2763,10.3887667 L77.2763,18.9302333 C77.2763,19.6948667 76.6547333,20.3174 75.8891333,20.3174 L69.0886333,20.3174 L69.0886333,24.4112333 L65.9614667,24.4112333 L65.9614667,9.0016 L65.9614667,9.0016 Z M50.8853333,9.0016 L60.8139667,9.0016 C61.5786,9.0016 62.2011333,9.62413333 62.2011333,10.3887667 L62.2011333,18.9302333 C62.2011333,19.6948667 61.5786,20.3174 60.8139667,20.3174 L54.0134667,20.3174 L54.0134667,24.4112333 L50.8853333,24.4112333 L50.8853333,9.0016 L50.8853333,9.0016 Z M15.4038333,9.2539 L25.3315,9.2539 C26.0961333,9.2539 26.7186667,9.87643333 26.7186667,10.6410667 L26.7186667,21.9346333 L16.356,21.9346333 C15.8301333,21.9346333 15.4038333,21.5073667 15.4038333,20.9824667 L15.4038333,15.6658 C15.4038333,15.1399333 15.8301333,14.7126667 16.356,14.7126667 L23.5915,14.7126667 L23.5915,12.3820333 L15.4038333,12.3820333 L15.4038333,9.2539 L15.4038333,9.2539 Z M8.58013333,9.85033333 L11.7073,9.85033333 L11.7073,23.1526333 C11.7073,24.5987667 10.5299,25.7761667 9.08376667,25.7761667 L5.71493333,25.7761667 L4.67286667,22.649 L6.467,22.649 C7.63183333,22.649 8.58013333,21.7007 8.58013333,20.5358667 L8.58013333,9.85033333 L8.58013333,9.85033333 Z" id="Fill-16" fill="#666666"></path>
                    <path d="M69.3303,16.9476 L69.3303,12.3714 L72.8857,12.3714 C73.4492667,12.3714 73.9074667,12.8286333 73.9074667,13.3922 L73.9074667,15.9268 C73.9074667,16.4903667 73.4492667,16.9476 72.8857,16.9476 L69.3303,16.9476" id="Fill-17" fill="#FFFFFF"></path>
                    <path d="M72.8857,12.6121 C73.3168333,12.6121 73.6658,12.9620333 73.6658,13.3922 L73.6658,15.9268 C73.6658,16.3569667 73.3168333,16.7069 72.8857,16.7069 L69.5719667,16.7069 L69.5719667,12.6121 L72.8857,12.6121 M72.8857,12.1287667 L69.0886333,12.1287667 L69.0886333,17.1902333 L72.8857,17.1902333 C73.5826667,17.1902333 74.1491333,16.6228 74.1491333,15.9268 L74.1491333,13.3922 C74.1491333,12.6962 73.5826667,12.1287667 72.8857,12.1287667" id="Fill-18" fill="#666666"></path>
                    <path d="M19.6900333,19.2473 C19.1844667,19.2473 18.7726667,18.8355 18.7726667,18.3309 C18.7726667,17.8118 19.1844667,17.4 19.6900333,17.4 L23.3498333,17.4 L23.3498333,19.2473 L19.6900333,19.2473" id="Fill-19" fill="#FFFFFF"></path>
                    <path d="M23.1081667,17.6416667 L23.1081667,19.0066 L19.6900333,19.0066 C19.3169,19.0066 19.0143333,18.7040333 19.0143333,18.3309 L19.0143333,18.3173667 C19.0143333,17.9442333 19.3169,17.6416667 19.6900333,17.6416667 L23.1081667,17.6416667 M23.5915,17.1583333 L19.6900333,17.1583333 C19.0510667,17.1583333 18.531,17.6784 18.531,18.3173667 C18.531,18.9698667 19.0510667,19.4899333 19.6900333,19.4899333 L23.5915,19.4899333 L23.5915,17.1583333" id="Fill-20" fill="#666666"></path>
                    <path d="M50.402,8.51826667 L50.402,24.8945667 L54.4968,24.8945667 L54.4968,20.8007333 L60.8139667,20.8007333 C61.8473333,20.8007333 62.6844667,19.9636 62.6844667,18.9302333 L62.6844667,10.3887667 C62.6844667,9.35636667 61.8473333,8.51826667 60.8139667,8.51826667 L50.402,8.51826667 L50.402,8.51826667 Z M57.8105333,16.7069 L54.4968,16.7069 L54.4968,12.6121 L57.8105333,12.6121 C58.2416667,12.6121 58.5906333,12.9620333 58.5906333,13.3922 L58.5906333,15.9268 C58.5906333,16.3569667 58.2416667,16.7069 57.8105333,16.7069 L57.8105333,16.7069 Z" id="Fill-21" fill="#65B9E7"></path>
                    <path d="M6.467,22.1656667 L4.002,22.1656667 L5.36693333,26.2595 L9.08376667,26.2595 C10.7996,26.2595 12.1906333,24.8684667 12.1906333,23.1526333 L12.1906333,8.51826667 L8.0968,8.51826667 L8.0968,20.5358667 C8.0968,21.4358333 7.36696667,22.1656667 6.467,22.1656667" id="Fill-22" fill="#65B9E7"></path>
                    <path d="M8.0968,4.70476667 L12.1906333,4.70476667 L12.1906333,7.43463333 L8.0968,7.43463333 L8.0968,4.70476667 Z" id="Fill-23" fill="#65B9E7"></path>
                    <path d="M29.9318667,3.0595 L29.9318667,15.3419667 L34.0257,15.3419667 L34.0257,7.15333333 L36.7555667,7.15333333 L36.7555667,15.3419667 L40.8494,15.3419667 L40.8494,7.15333333 L42.4163667,7.15333333 C43.0582333,7.15333333 43.5783,7.67436667 43.5783,8.31623333 L43.5783,15.3419667 L47.6731,15.3419667 L47.6731,5.79323333 C47.6731,4.2833 46.4493,3.0595 44.9393667,3.0595 L29.9318667,3.0595" id="Fill-24" fill="#65B9E7"></path>
                    <path d="M65.4781333,8.51826667 L65.4781333,24.8945667 L69.5719667,24.8945667 L69.5719667,20.8007333 L75.8891333,20.8007333 C76.9225,20.8007333 77.7596333,19.9636 77.7596333,18.9302333 L77.7596333,10.3887667 C77.7596333,9.35636667 76.9225,8.51826667 75.8891333,8.51826667 L65.4781333,8.51826667 L65.4781333,8.51826667 Z M72.8857,16.7069 L69.5719667,16.7069 L69.5719667,12.6121 L72.8857,12.6121 C73.3168333,12.6121 73.6658,12.9620333 73.6658,13.3922 L73.6658,15.9268 C73.6658,16.3569667 73.3168333,16.7069 72.8857,16.7069 L72.8857,16.7069 Z" id="Fill-25" fill="#65B9E7"></path>
                    <path d="M14.9205,8.77056667 L14.9205,12.8653667 L23.1081667,12.8653667 L23.1081667,14.2293333 L16.356,14.2293333 C15.5623667,14.2293333 14.9205,14.8721667 14.9205,15.6658 L14.9205,20.9824667 C14.9205,21.7751333 15.5623667,22.4179667 16.356,22.4179667 L27.202,22.4179667 L27.202,10.6410667 C27.202,9.60866667 26.3648667,8.77056667 25.3315,8.77056667 L14.9205,8.77056667 L14.9205,8.77056667 Z M23.1081667,19.0066 L19.6900333,19.0066 C19.3169,19.0066 19.0143333,18.7040333 19.0143333,18.3309 L19.0143333,18.3173667 C19.0143333,17.9442333 19.3169,17.6416667 19.6900333,17.6416667 L23.1081667,17.6416667 L23.1081667,19.0066 L23.1081667,19.0066 Z" id="Fill-26" fill="#65B9E7"></path>
                    <path d="M95.7106333,3.89953333 C93.2504667,3.89953333 91.4437667,4.6719 90.2895667,6.21663333 C89.1363333,7.7604 88.5602,10.2196 88.5602,13.5942333 C88.5602,16.9688667 89.1179667,19.4097 90.2335,20.9157667 C91.3480667,22.4228 93.1161,23.1748667 95.5385667,23.1748667 C97.5966,23.1748667 99.5328333,22.8510333 101.344367,22.2024 L101.344367,12.9939333 L95.8247,12.9939333 L95.8247,15.6242333 L98.484,15.6242333 L98.484,20.0583333 C97.4545,20.3058 96.4723667,20.4295333 95.5385667,20.4295333 C94.2229333,20.4295333 93.2369333,19.8717667 92.5786333,18.7562333 C91.9203333,17.6407 91.5916667,15.8726667 91.5916667,13.4521333 C91.5916667,11.0306333 91.9019667,9.27613333 92.5216,8.18863333 C93.1402667,7.1021 94.2036,6.55883333 95.7106333,6.55883333 C97.5405333,6.55883333 99.1229667,6.78793333 100.456967,7.24516667 L100.9722,4.69993333 C99.4081333,4.16633333 97.6546,3.89953333 95.7106333,3.89953333" id="Fill-27" fill="#666666"></path>
                    <path d="M95.5385667,23.1748667 C93.1161,23.1748667 91.3480667,22.4228 90.2335,20.9157667 C89.1179667,19.4097 88.5602,16.9688667 88.5602,13.5942333 C88.5602,10.2196 89.1363333,7.7604 90.2895667,6.21663333 C91.4437667,4.6719 93.2504667,3.89953333 95.7106333,3.89953333 C97.6546,3.89953333 99.4081333,4.16633333 100.9722,4.69993333 L100.456967,7.24516667 C99.1229667,6.78793333 97.5405333,6.55883333 95.7106333,6.55883333 C94.2036,6.55883333 93.1402667,7.1021 92.5216,8.18863333 C91.9019667,9.27613333 91.5916667,11.0306333 91.5916667,13.4521333 C91.5916667,15.8726667 91.9203333,17.6407 92.5786333,18.7562333 C93.2369333,19.8717667 94.2229333,20.4295333 95.5385667,20.4295333 C96.4723667,20.4295333 97.4545,20.3058 98.484,20.0583333 L98.484,15.6242333 L95.8247,15.6242333 L95.8247,12.9939333 L101.344367,12.9939333 L101.344367,22.2024 C99.5328333,22.8510333 97.5966,23.1748667 95.5385667,23.1748667 M95.7106333,3.4162 C93.1006333,3.4162 91.147,4.26106667 89.9029,5.92663333 C88.6916667,7.54773333 88.0768667,10.1277667 88.0768667,13.5942333 C88.0768667,17.1080667 88.6549333,19.5972333 89.8449,21.2038333 C91.0503333,22.8326667 92.9662667,23.6582 95.5385667,23.6582 C97.6439667,23.6582 99.6517333,23.3218 101.506767,22.6577 L101.8277,22.5426667 L101.8277,12.5106 L95.3413667,12.5106 L95.3413667,16.1085333 L98.0006667,16.1085333 L98.0006667,19.6716667 C97.1451667,19.8543667 96.3186667,19.9462 95.5385667,19.9462 C94.3969333,19.9462 93.5646333,19.4764 92.9943,18.5107 C92.3843333,17.4763667 92.075,15.7750333 92.075,13.4521333 C92.075,11.1273 92.3659667,9.4366 92.9411333,8.42836667 C93.4728,7.49553333 94.3785667,7.04216667 95.7106333,7.04216667 C97.4777,7.04216667 99.0224333,7.2645 100.300367,7.7024 L100.8214,7.88123333 L101.529967,4.37996667 L101.127833,4.24173333 C99.5212333,3.69363333 97.6981,3.4162 95.7106333,3.4162" id="Fill-28" fill="#666666"></path>
                    <path d="M106.0907,15.167 C106.1487,13.9470667 106.401,13.0751333 106.848567,12.5502333 C107.2971,12.0263 107.968933,11.7643333 108.865033,11.7643333 C110.543167,11.7643333 111.382233,12.8992 111.382233,15.167 L106.0907,15.167 M108.750967,9.10406667 C106.921067,9.10406667 105.4904,9.7005 104.4609,10.8914333 C103.4314,12.0833333 102.916167,13.833 102.916167,16.1394667 C102.916167,20.8693667 105.005133,23.2328667 109.180167,23.2328667 C109.809467,23.2328667 110.609867,23.1516667 111.582333,22.9892667 C112.5548,22.8278333 113.3465,22.6412667 113.956467,22.4315 L113.3552,19.9433 C111.8878,20.4198667 110.4958,20.6586333 109.180167,20.6586333 C107.292267,20.6586333 106.263733,19.6281667 106.0907,17.5691667 L114.441733,17.5691667 L114.556767,15.4531333 C114.5181,13.3757667 113.999,11.7972 112.9985,10.7203333 C111.997033,9.64346667 110.580867,9.10406667 108.750967,9.10406667" id="Fill-29" fill="#666666"></path>
                    <path d="M106.611733,14.6836667 C106.6997,13.8436333 106.9027,13.2327 107.216867,12.8644 C107.571633,12.4487333 108.111033,12.2476667 108.865033,12.2476667 C109.6809,12.2476667 110.7481,12.5115667 110.8844,14.6836667 L106.611733,14.6836667 M108.865033,11.7643333 C107.968933,11.7643333 107.2971,12.0263 106.848567,12.5502333 C106.401,13.0751333 106.1487,13.9470667 106.0907,15.167 L111.382233,15.167 C111.382233,12.8992 110.543167,11.7643333 108.865033,11.7643333 M109.180167,23.2328667 C105.005133,23.2328667 102.916167,20.8693667 102.916167,16.1394667 C102.916167,13.833 103.4314,12.0833333 104.4609,10.8914333 C105.4904,9.7005 106.921067,9.10406667 108.750967,9.10406667 C110.580867,9.10406667 111.997033,9.64346667 112.9985,10.7203333 C113.999,11.7972 114.5181,13.3757667 114.556767,15.4531333 L114.441733,17.5691667 L106.0907,17.5691667 C106.263733,19.6281667 107.292267,20.6586333 109.180167,20.6586333 C110.4958,20.6586333 111.8878,20.4198667 113.3552,19.9433 L113.956467,22.4315 C113.3465,22.6412667 112.5548,22.8278333 111.582333,22.9892667 C110.609867,23.1516667 109.809467,23.2328667 109.180167,23.2328667 M108.750967,8.62073333 C106.782833,8.62073333 105.216833,9.27806667 104.0955,10.5753333 C102.992533,11.8523 102.432833,13.7237667 102.432833,16.1394667 C102.432833,21.1661333 104.703533,23.7152333 109.180167,23.7152333 C109.833633,23.7152333 110.667867,23.6321 111.6616,23.4658333 C112.654367,23.3005333 113.478933,23.1062333 114.113067,22.8897 L114.528733,22.7466333 L113.7032,19.3227 L113.206333,19.4841333 C111.793067,19.9423333 110.438767,20.1753 109.180167,20.1753 C107.718567,20.1753 106.901733,19.4976667 106.640733,18.0525 L114.899933,18.0525 L115.039133,15.4792333 C114.9995,13.253 114.432067,11.5526333 113.3523,10.3916667 C112.260933,9.2162 110.712333,8.62073333 108.750967,8.62073333" id="Fill-30" fill="#666666"></path>
                    <path d="M118.9609,15.167 C119.0189,13.9470667 119.2712,13.0751333 119.718767,12.5502333 C120.166333,12.0263 120.839133,11.7643333 121.735233,11.7643333 C123.4124,11.7643333 124.251467,12.8992 124.251467,15.167 L118.9609,15.167 M121.6202,9.10406667 C119.7903,9.10406667 118.3606,9.7005 117.3311,10.8914333 C116.300633,12.0833333 115.786367,13.833 115.786367,16.1394667 C115.786367,20.8693667 117.874367,23.2328667 122.0494,23.2328667 C122.6787,23.2328667 123.480067,23.1516667 124.451567,22.9892667 C125.425,22.8278333 126.215733,22.6412667 126.8257,22.4315 L126.2254,19.9433 C124.757033,20.4198667 123.365033,20.6586333 122.0494,20.6586333 C120.1615,20.6586333 119.132967,19.6281667 118.9609,17.5691667 L127.311933,17.5691667 L127.426,15.4531333 C127.3883,13.3757667 126.868233,11.7972 125.867733,10.7203333 C124.867233,9.64346667 123.451067,9.10406667 121.6202,9.10406667" id="Fill-31" fill="#666666"></path>
                    <path d="M119.480967,14.6836667 C119.568933,13.8436333 119.771933,13.2327 120.0861,12.8644 C120.440867,12.4487333 120.980267,12.2476667 121.735233,12.2476667 C122.5511,12.2476667 123.6183,12.5115667 123.753633,14.6836667 L119.480967,14.6836667 M121.735233,11.7643333 C120.839133,11.7643333 120.166333,12.0263 119.718767,12.5502333 C119.2712,13.0751333 119.0189,13.9470667 118.9609,15.167 L124.251467,15.167 C124.251467,12.8992 123.4124,11.7643333 121.735233,11.7643333 M122.0494,23.2328667 C117.874367,23.2328667 115.786367,20.8693667 115.786367,16.1394667 C115.786367,13.833 116.300633,12.0833333 117.3311,10.8914333 C118.3606,9.7005 119.7903,9.10406667 121.6202,9.10406667 C123.451067,9.10406667 124.867233,9.64346667 125.867733,10.7203333 C126.868233,11.7972 127.3883,13.3757667 127.426,15.4531333 L127.311933,17.5691667 L118.9609,17.5691667 C119.132967,19.6281667 120.1615,20.6586333 122.0494,20.6586333 C123.365033,20.6586333 124.757033,20.4198667 126.2254,19.9433 L126.8257,22.4315 C126.215733,22.6412667 125.425,22.8278333 124.451567,22.9892667 C123.480067,23.1516667 122.6787,23.2328667 122.0494,23.2328667 M121.6202,8.62073333 C119.653033,8.62073333 118.086067,9.27806667 116.9657,10.5753333 C115.861767,11.8523 115.303033,13.7237667 115.303033,16.1394667 C115.303033,21.1661333 117.572767,23.7152333 122.0494,23.7152333 C122.702867,23.7152333 123.538067,23.6321 124.530833,23.4658333 C125.5236,23.3005333 126.349133,23.1062333 126.9823,22.8887333 L127.398933,22.7456667 L127.2955,22.3184 L126.572433,19.3227 L126.075567,19.4841333 C124.663267,19.9423333 123.308,20.1753 122.0494,20.1753 C120.588767,20.1753 119.770967,19.4976667 119.509967,18.0525 L127.769167,18.0525 L127.909333,15.4792333 C127.868733,13.253 127.3013,11.5526333 126.221533,10.3916667 C125.130167,9.2162 123.582533,8.62073333 121.6202,8.62073333" id="Fill-32" fill="#666666"></path>
                    <path d="M132.832567,3.89953333 L129.886167,3.89953333 L129.886167,22.9177333 L132.832567,22.9177333 L132.832567,17.3120333 L134.833567,17.1129 C136.035133,18.9621333 137.102333,20.8964333 138.0371,22.9177333 L141.382733,22.9177333 L140.810467,21.8312 C139.5712,19.4667333 138.3416,17.4174 137.122633,15.6822333 C138.589067,13.9857333 139.924033,11.8687333 141.124633,9.33316667 L137.923033,9.33316667 L137.522833,10.1335667 C136.722433,11.7353333 135.7867,13.2230333 134.7195,14.5947333 L132.832567,14.7958 L132.832567,3.89953333" id="Fill-33" fill="#666666"></path>
                    <path d="M129.886167,22.9177333 L129.886167,3.89953333 L132.832567,3.89953333 L132.832567,14.7958 L134.7195,14.5947333 C135.7867,13.2230333 136.722433,11.7353333 137.522833,10.1335667 L137.923033,9.33316667 L141.124633,9.33316667 C139.924033,11.8687333 138.589067,13.9857333 137.122633,15.6822333 C138.3416,17.4174 139.5712,19.4667333 140.810467,21.8312 L141.382733,22.9177333 L138.0371,22.9177333 C137.102333,20.8964333 136.035133,18.9621333 134.833567,17.1129 L132.832567,17.3120333 L132.832567,22.9177333 L129.886167,22.9177333 M133.3159,3.4162 L129.402833,3.4162 L129.402833,23.4010667 L133.3159,23.4010667 L133.3159,17.7499333 L134.588033,17.6233 C135.7084,19.3739333 136.7205,21.2212333 137.598233,23.1207333 L137.727767,23.4010667 L142.1841,23.4010667 L141.8245,22.7176333 L141.4939,22.6122667 L141.579933,22.2546 L141.237733,21.6059667 C140.07,19.3758667 138.890667,17.3942 137.731633,15.7112333 C139.128467,14.0350333 140.4151,11.9605667 141.561567,9.54003333 L141.889267,8.84983333 L137.624333,8.84983333 L137.490933,9.1176 L137.090733,9.918 C136.338667,11.4211667 135.455133,12.8392667 134.462367,14.1365333 L133.3159,14.2583333 L133.3159,3.4162" id="Fill-34" fill="#666666"></path>
                    <path d="M147.5027,9.10406667 C143.995633,9.10406667 142.241133,10.4680333 142.241133,13.1940333 C142.241133,14.4719667 142.6133,15.3922333 143.356667,15.9538667 C144.100033,16.5164667 145.415667,17.0268667 147.3026,17.4841 C148.2567,17.7132 148.904367,17.9326333 149.247533,18.1424 C149.591667,18.3512 149.762767,18.7040333 149.762767,19.1999333 C149.762767,19.6958333 149.571367,20.039 149.191467,20.2294333 C148.809633,20.4392 148.084633,20.5436 147.017433,20.5436 C145.949267,20.5436 144.5099,20.2584333 142.698367,19.6861667 L142.069067,22.2884333 C143.9763,22.8993667 145.758833,23.2038667 147.417633,23.2038667 C150.963367,23.2038667 152.7372,21.7645 152.7372,18.8848 C152.7372,17.6271667 152.394033,16.7359 151.7077,16.211 C151.021367,15.6870667 149.943533,15.2240333 148.476133,14.8238333 C147.0068,14.4236333 146.097167,14.1239667 145.7453,13.9238667 C145.3915,13.7237667 145.215567,13.4047667 145.215567,12.9649333 C145.215567,12.5270333 145.3915,12.2177 145.7453,12.0359667 C146.097167,11.8552 146.788333,11.7643333 147.817833,11.7643333 C148.847333,11.7643333 150.306033,12.0311333 152.193933,12.5647333 L152.7372,9.84743333 C150.754567,9.3525 149.009733,9.10406667 147.5027,9.10406667" id="Fill-35" fill="#666666"></path>
                    <path d="M147.017433,20.5436 C148.084633,20.5436 148.809633,20.4392 149.191467,20.2294333 C149.571367,20.039 149.762767,19.6958333 149.762767,19.1999333 C149.762767,18.7040333 149.591667,18.3512 149.247533,18.1424 C148.904367,17.9326333 148.2567,17.7132 147.3026,17.4841 C145.415667,17.0268667 144.100033,16.5164667 143.356667,15.9538667 C142.6133,15.3922333 142.241133,14.4719667 142.241133,13.1940333 C142.241133,10.4680333 143.995633,9.10406667 147.5027,9.10406667 C149.009733,9.10406667 150.754567,9.3525 152.7372,9.84743333 L152.193933,12.5647333 C150.306033,12.0311333 148.847333,11.7643333 147.817833,11.7643333 C146.788333,11.7643333 146.097167,11.8552 145.7453,12.0359667 C145.3915,12.2177 145.215567,12.5270333 145.215567,12.9649333 C145.215567,13.4047667 145.3915,13.7237667 145.7453,13.9238667 C146.097167,14.1239667 147.0068,14.4236333 148.476133,14.8238333 C149.943533,15.2240333 151.021367,15.6870667 151.7077,16.211 C152.394033,16.7359 152.7372,17.6271667 152.7372,18.8848 C152.7372,21.7645 150.963367,23.2038667 147.417633,23.2038667 C145.758833,23.2038667 143.9763,22.8993667 142.069067,22.2884333 L142.698367,19.6861667 C144.5099,20.2584333 145.949267,20.5436 147.017433,20.5436 M147.5027,8.62073333 C142.7554,8.62073333 141.7578,11.1079667 141.7578,13.1940333 C141.7578,14.6256667 142.197633,15.6841667 143.064733,16.3395667 C143.869,16.9476 145.2175,17.4763667 147.1895,17.9539 C148.309867,18.2226333 148.7903,18.4285333 148.9962,18.5551667 C149.128633,18.6354 149.279433,18.7813667 149.279433,19.1999333 C149.279433,19.5924 149.125733,19.7219333 148.974933,19.7963667 C148.785467,19.9007667 148.304067,20.0602667 147.017433,20.0602667 C146.004367,20.0602667 144.5998,19.7799333 142.844333,19.2250667 L142.350367,19.0694333 L141.599267,22.1753333 L141.579933,22.2546 L141.4939,22.6122667 L141.8245,22.7176333 L141.922133,22.7485667 C143.865133,23.3711 145.714367,23.6872 147.417633,23.6872 C152.213267,23.6872 153.220533,21.0752667 153.220533,18.8848 C153.220533,17.4754 152.810667,16.4459 152.001567,15.8272333 C151.257233,15.2598 150.146533,14.7784 148.603733,14.3579 C146.830867,13.8745667 146.2006,13.6261333 145.9831,13.5033667 C145.842933,13.4241 145.6989,13.2974667 145.6989,12.9649333 C145.6989,12.6469 145.827467,12.5367 145.9657,12.4651667 C146.1252,12.3839667 146.5776,12.2476667 147.817833,12.2476667 C148.798033,12.2476667 150.2258,12.5106 152.0615,13.0297 L152.565133,13.1718 L153.301733,9.49073333 L152.854167,9.3786 C150.839633,8.87593333 149.0397,8.62073333 147.5027,8.62073333" id="Fill-36" fill="#666666"></path>
                    <path d="M94.5854333,22.4624333 C92.0933667,22.4624333 90.2431667,21.6697667 89.0851,20.1066667 C87.9444333,18.5638667 87.3654,16.0524667 87.3654,12.6411 C87.3654,9.2278 87.9637667,6.6961 89.1431,5.1185 C90.3388667,3.51673333 92.2277333,2.70473333 94.7565333,2.70473333 C96.7188667,2.70473333 98.5149333,2.9783 100.097367,3.51866667 L100.298433,3.58633333 L99.6855667,6.61006667 L99.4245667,6.52016667 C98.1205333,6.07356667 96.5506667,5.84736667 94.7565333,5.84736667 C93.3307,5.84736667 92.3563,6.34133333 91.7772667,7.35536667 C91.1818,8.40033333 90.8802,10.1316333 90.8802,12.499 C90.8802,14.8654 91.2011333,16.6092667 91.8323667,17.6803333 C92.4510333,18.7262667 93.351,19.2337667 94.5854333,19.2337667 C95.4399667,19.2337667 96.3496,19.1264667 97.2892,18.9128333 L97.2892,14.9127667 L94.6299,14.9127667 L94.6299,11.7991333 L100.631933,11.7991333 L100.631933,21.4194 L100.472433,21.4774 C98.6425333,22.1308667 96.6618333,22.4624333 94.5854333,22.4624333" id="Fill-37" fill="#FFFFFF"></path>
                    <path d="M94.7565333,2.94543333 C96.7014667,2.94543333 98.455,3.2132 100.019067,3.7468 L99.5038333,6.29203333 C98.1698333,5.8348 96.5874,5.6057 94.7565333,5.6057 C93.2504667,5.6057 92.1871333,6.14896667 91.5684667,7.2355 C90.9478667,8.323 90.6385333,10.0775 90.6385333,12.4980333 C90.6385333,14.9195333 90.9672,16.6875667 91.6255,17.8031 C92.2828333,18.9186333 93.2688333,19.4764 94.5854333,19.4764 C95.5192333,19.4764 96.5013667,19.3517 97.5308667,19.1042333 L97.5308667,14.6711 L94.8715667,14.6711 L94.8715667,12.0408 L100.391233,12.0408 L100.391233,21.2492667 C98.5797,21.8979 96.6434667,22.2217333 94.5854333,22.2217333 C92.1629667,22.2217333 90.3949333,21.4687 89.2803667,19.9626333 C88.1648333,18.4565667 87.6070667,16.0157333 87.6070667,12.6411 C87.6070667,9.26646667 88.1832,6.8063 89.3364333,5.2635 C90.4896667,3.71876667 92.2973333,2.94543333 94.7565333,2.94543333 M94.7565333,2.4621 C92.1475,2.4621 90.1938667,3.30696667 88.9497667,4.9735 C87.7375667,6.5946 87.1237333,9.17463333 87.1237333,12.6411 C87.1237333,16.1549333 87.7018,18.6441 88.8917667,20.2507 C90.0972,21.8785667 92.0131333,22.7050667 94.5854333,22.7050667 C96.6898667,22.7050667 98.6976333,22.3686667 100.553633,21.7045667 L100.874567,21.5895333 L100.874567,11.5574667 L94.3882333,11.5574667 L94.3882333,15.1544333 L97.0475333,15.1544333 L97.0475333,18.7185333 C96.1920333,18.9002667 95.3655333,18.9930667 94.5854333,18.9930667 C93.4438,18.9930667 92.6115,18.5232667 92.0411667,17.5575667 C91.4312,16.5232333 91.1218667,14.8209333 91.1218667,12.4980333 C91.1218667,10.1732 91.4128333,8.48346667 91.988,7.47523333 C92.5196667,6.5424 93.4254333,6.08903333 94.7565333,6.08903333 C96.5245667,6.08903333 98.0693,6.31136667 99.3472333,6.74926667 L99.8682667,6.92713333 L100.576833,3.42586667 L100.1747,3.2886 C98.5671333,2.7405 96.7449667,2.4621 94.7565333,2.4621" id="Fill-38" fill="#666666"></path>
                    <path d="M108.227033,22.5214 C103.9099,22.5214 101.721367,20.0535 101.721367,15.1863333 C101.721367,12.8305667 102.260767,11.0113 103.325067,9.78073333 C104.399033,8.53856667 105.904133,7.90926667 107.797833,7.90926667 C109.6896,7.90926667 111.178267,8.47863333 112.222267,9.60286667 C113.2595,10.7203333 113.805667,12.3665667 113.8453,14.4951667 L113.718667,16.8577 L105.4063,16.8577 C105.627667,18.6102667 106.552767,19.4638333 108.227033,19.4638333 C109.5098,19.4638333 110.8902,19.227 112.327633,18.7601 L112.576067,18.6789 L113.2885,21.6349667 L113.080667,21.7065 C112.4562,21.9220667 111.6442,22.1125 110.667867,22.2749 C109.688633,22.4382667 108.866967,22.5214 108.227033,22.5214 L108.227033,22.5214 Z M110.1826,13.9722 C110.128467,12.0079333 109.383167,11.0528667 107.912867,11.0528667 C107.0825,11.0528667 106.483167,11.2819667 106.0791,11.7537 C105.700167,12.1983667 105.4701,12.9446333 105.3947,13.9722 L110.1826,13.9722 L110.1826,13.9722 Z" id="Fill-39" fill="#FFFFFF"></path>
                    <path d="M107.797833,8.15093333 C109.627733,8.15093333 111.0439,8.69033333 112.0444,9.7672 C113.045867,10.8440667 113.564967,12.4226333 113.602667,14.5 L113.4886,16.6160333 L105.137567,16.6160333 C105.309633,18.6750333 106.339133,19.7055 108.227033,19.7055 C109.542667,19.7055 110.9337,19.4667333 112.402067,18.9901667 L113.002367,21.4783667 C112.393367,21.6881333 111.601667,21.8737333 110.6292,22.0361333 C109.656733,22.1985333 108.856333,22.2787667 108.227033,22.2787667 C104.052,22.2787667 101.963033,19.9152667 101.963033,15.1863333 C101.963033,12.8798667 102.478267,11.1302 103.507767,9.9383 C104.537267,8.74736667 105.966967,8.15093333 107.797833,8.15093333 L107.797833,8.15093333 Z M105.137567,14.2138667 L110.428133,14.2138667 C110.428133,11.9451 109.590033,10.8102333 107.9119,10.8102333 C107.0158,10.8102333 106.343967,11.0731667 105.895433,11.5971 C105.447867,12.122 105.195567,12.9939333 105.137567,14.2138667 L105.137567,14.2138667 Z M107.797833,7.6676 C105.8297,7.6676 104.2637,8.32493333 103.142367,9.6222 C102.0394,10.8982 101.4797,12.7706333 101.4797,15.1863333 C101.4797,20.213 103.7504,22.7621 108.227033,22.7621 C108.8805,22.7621 109.714733,22.6789667 110.708467,22.5127 C111.701233,22.3474 112.5258,22.1531 113.159933,21.9356 L113.5756,21.7925333 L112.750067,18.3695667 L112.2532,18.5300333 C110.839933,18.9892 109.485633,19.2221667 108.227033,19.2221667 C106.765433,19.2221667 105.9486,18.5445333 105.6876,17.0993667 L113.9468,17.0993667 L114.086,14.5261 C114.046367,12.2998667 113.477967,10.5995 112.399167,9.43756667 C111.306833,8.26306667 109.7592,7.6676 107.797833,7.6676 L107.797833,7.6676 Z M105.6586,13.7305333 C105.746567,12.8905 105.949567,12.2795667 106.263733,11.9112667 C106.6185,11.4956 107.1579,11.2935667 107.9119,11.2935667 C108.727767,11.2935667 109.794967,11.5584333 109.931267,13.7305333 L105.6586,13.7305333 L105.6586,13.7305333 Z" id="Fill-40" fill="#666666"></path>
                    <path d="M121.096267,22.5214 C116.7801,22.5214 114.591567,20.0535 114.591567,15.1863333 C114.591567,12.8305667 115.130967,11.0113 116.1943,9.78073333 C117.269233,8.53856667 118.773367,7.90926667 120.667067,7.90926667 C122.558833,7.90926667 124.0475,8.47863333 125.0915,9.60286667 C126.128733,10.7203333 126.675867,12.3665667 126.714533,14.4951667 L126.5879,16.8577 L118.275533,16.8577 C118.497867,18.6102667 119.422967,19.4638333 121.096267,19.4638333 C122.38,19.4638333 123.759433,19.227 125.197833,18.7601 L125.4453,18.6789 L126.1587,21.6349667 L125.950867,21.7065 C125.325433,21.9220667 124.5144,22.1125 123.538067,22.2749 C122.557867,22.4382667 121.7362,22.5214 121.096267,22.5214 L121.096267,22.5214 Z M123.0528,13.9722 C122.9977,12.0079333 122.253367,11.0528667 120.781133,11.0528667 C119.9527,11.0528667 119.353367,11.2819667 118.9493,11.7537 C118.5694,12.1983667 118.3403,12.9446333 118.2649,13.9722 L123.0528,13.9722 L123.0528,13.9722 Z" id="Fill-41" fill="#FFFFFF"></path>
                    <path d="M120.667067,8.15093333 C122.497933,8.15093333 123.913133,8.69033333 124.9146,9.7672 C125.9151,10.8440667 126.4342,12.4226333 126.472867,14.5 L126.3588,16.6160333 L118.007767,16.6160333 C118.179833,18.6750333 119.208367,19.7055 121.096267,19.7055 C122.4119,19.7055 123.8039,19.4667333 125.272267,18.9901667 L125.872567,21.4783667 C125.2626,21.6881333 124.4709,21.8737333 123.498433,22.0361333 C122.526933,22.1985333 121.725567,22.2787667 121.096267,22.2787667 C116.921233,22.2787667 114.833233,19.9152667 114.833233,15.1863333 C114.833233,12.8798667 115.3475,11.1302 116.377,9.9383 C117.407467,8.74736667 118.837167,8.15093333 120.667067,8.15093333 L120.667067,8.15093333 Z M118.007767,14.2138667 L123.298333,14.2138667 C123.298333,11.9451 122.459267,10.8102333 120.7821,10.8102333 C119.885033,10.8102333 119.2132,11.0731667 118.765633,11.5971 C118.318067,12.122 118.065767,12.9939333 118.007767,14.2138667 L118.007767,14.2138667 Z M120.667067,7.6676 C118.6999,7.6676 117.132933,8.32493333 116.0116,9.6222 C114.908633,10.8982 114.3499,12.7706333 114.3499,15.1863333 C114.3499,20.213 116.619633,22.7621 121.096267,22.7621 C121.749733,22.7621 122.584933,22.6789667 123.5777,22.5127 C124.570467,22.3474 125.395033,22.1531 126.029167,21.9356 L126.4458,21.7925333 L125.6193,18.3695667 L125.122433,18.5300333 C123.709167,18.9892 122.354867,19.2221667 121.096267,19.2221667 C119.634667,19.2221667 118.817833,18.5445333 118.556833,17.0993667 L126.816033,17.0993667 L126.955233,14.5261 C126.9156,12.2998667 126.348167,10.6004667 125.2684,9.43756667 C124.177033,8.26306667 122.628433,7.6676 120.667067,7.6676 L120.667067,7.6676 Z M118.527833,13.7305333 C118.6158,12.8905 118.8188,12.2795667 119.132967,11.9112667 C119.487733,11.4956 120.027133,11.2935667 120.7821,11.2935667 C121.597967,11.2935667 122.6642,11.5584333 122.8005,13.7305333 L118.527833,13.7305333 L118.527833,13.7305333 Z" id="Fill-42" fill="#666666"></path>
                    <path d="M136.928333,22.2062667 L136.864533,22.0651333 C135.9607,20.1124667 134.915733,18.212 133.757667,16.4130333 L132.1211,16.5773667 L132.1211,22.2062667 L128.6904,22.2062667 L128.6904,2.70473333 L132.1211,2.70473333 L132.1211,13.5739333 L133.6378,13.4125 C134.666333,12.0804333 135.578867,10.6207667 136.353167,9.07313333 L136.820067,8.13836667 L140.5543,8.13836667 L140.389967,8.48346667 C139.218367,10.9552333 137.901767,13.0616 136.474,14.7445667 C137.663967,16.4536333 138.873267,18.4788 140.070967,20.7649667 L140.8298,22.2062667 L136.928333,22.2062667" id="Fill-43" fill="#FFFFFF"></path>
                    <path d="M131.879433,2.94543333 L131.879433,13.8426667 L133.766367,13.6416 C134.833567,12.2699 135.768333,10.7812333 136.568733,9.18043333 L136.968933,8.38003333 L140.1715,8.38003333 C138.9709,10.9156 137.635933,13.0316333 136.168533,14.7291 C137.388467,16.4642667 138.618067,18.5136 139.857333,20.8780667 L140.4296,21.9646 L137.083967,21.9646 C136.1492,19.9433 135.081033,18.009 133.880433,16.1588 L131.879433,16.3589 L131.879433,21.9646 L128.932067,21.9646 L128.932067,2.94543333 L131.879433,2.94543333 M132.3618,2.4621 L128.448733,2.4621 L128.448733,22.4479333 L132.3618,22.4479333 L132.3618,16.7968 L133.633933,16.6692 C134.7543,18.4198333 135.767367,20.2681 136.6451,22.1676 L136.774633,22.4479333 L141.230967,22.4479333 L140.2846,20.6528333 C139.116867,18.4227333 137.937533,16.4410667 136.777533,14.7581 C138.174367,13.0819 139.461967,11.0074333 140.608433,8.5869 L140.935167,7.8967 L136.670233,7.8967 L136.136633,8.96486667 C135.385533,10.4670667 134.502,11.8861333 133.509233,13.1834 L132.3618,13.3052 L132.3618,2.4621" id="Fill-44" fill="#666666"></path>
                    <path d="M146.4645,22.4924 C144.787333,22.4924 142.9642,22.1801667 141.042467,21.5663333 L140.828833,21.4967333 L141.571233,18.4246667 L141.817733,18.5029667 C143.595433,19.0646 145.0232,19.3488 146.0643,19.3488 C147.087033,19.3488 147.779167,19.2531 148.121367,19.0646 C148.428767,18.9109 148.567,18.6518333 148.567,18.2458333 C148.567,17.8369333 148.437467,17.5585333 148.168733,17.3951667 C147.845867,17.1979667 147.2156,16.9862667 146.2934,16.7658667 C144.381333,16.3028333 143.024133,15.7740667 142.257567,15.1940667 C141.454267,14.5860333 141.046333,13.5932667 141.046333,12.2409 C141.046333,9.367 142.8975,7.90926667 146.549567,7.90926667 C148.064333,7.90926667 149.844933,8.16156667 151.842067,8.66036667 L152.066333,8.71643333 L151.425433,11.9151333 L151.1741,11.8436 C149.316167,11.3187 147.866167,11.0528667 146.8647,11.0528667 C145.637033,11.0528667 145.119867,11.1853 144.9014,11.2984 C144.630733,11.4366333 144.5041,11.6628333 144.5041,12.0118 C144.5041,12.3656 144.633633,12.6034 144.9101,12.76 C145.2436,12.9494667 146.144533,13.2443 147.5868,13.6367667 C149.0774,14.0437333 150.191967,14.5241667 150.900533,15.0664667 C151.647767,15.6377667 152.025733,16.6015333 152.025733,17.9316667 C152.025733,20.9583 150.154267,22.4924 146.4645,22.4924" id="Fill-45" fill="#FFFFFF"></path>
                    <path d="M146.549567,8.15093333 C148.0566,8.15093333 149.801433,8.39936667 151.784067,8.8943 L151.239833,11.6116 C149.3529,11.078 147.8942,10.8102333 146.8647,10.8102333 C145.8352,10.8102333 145.144033,10.9020667 144.7912,11.0828333 C144.438367,11.2636 144.262433,11.5739 144.262433,12.0118 C144.262433,12.4506667 144.438367,12.7706333 144.7912,12.9707333 C145.144033,13.1708333 146.053667,13.4705 147.523,13.8707 C148.9904,14.2709 150.068233,14.7339333 150.754567,15.2578667 C151.439933,15.7827667 151.784067,16.6740333 151.784067,17.9316667 C151.784067,20.8113667 150.010233,22.2497667 146.4645,22.2497667 C144.8057,22.2497667 143.0222,21.9462333 141.115933,21.3353 L141.745233,18.7330333 C143.556767,19.3043333 144.996133,19.5904667 146.0643,19.5904667 C147.1315,19.5904667 147.8565,19.4860667 148.237367,19.2763 C148.618233,19.0858667 148.809633,18.7427 148.809633,18.2458333 C148.809633,17.7509 148.638533,17.3980667 148.2944,17.1883 C147.951233,16.9795 147.303567,16.7591 146.349467,16.5309667 C144.462533,16.0737333 143.145933,15.5633333 142.403533,15.0007333 C141.6592,14.4391 141.288,13.5188333 141.288,12.2409 C141.288,9.5149 143.0425,8.15093333 146.549567,8.15093333 M146.549567,7.6676 C141.8013,7.6676 140.804667,10.1548333 140.804667,12.2409 C140.804667,13.6725333 141.2445,14.7310333 142.1116,15.3864333 C142.915867,15.9944667 144.264367,16.5222667 146.236367,16.9998 C147.355767,17.2695 147.837167,17.4754 148.043067,17.6010667 C148.174533,17.6813 148.3263,17.8272667 148.3263,18.2458333 C148.3263,18.6392667 148.1726,18.7688 148.0218,18.8432333 C147.832333,18.9476333 147.350933,19.1071333 146.0643,19.1071333 C145.051233,19.1071333 143.646667,18.8258333 141.890233,18.2719333 L141.397233,18.1163 L140.540767,21.6581667 L140.969,21.7954333 C142.912,22.4179667 144.761233,22.7340667 146.4645,22.7340667 C151.260133,22.7340667 152.2674,20.1221333 152.2674,17.9316667 C152.2674,16.5222667 151.856567,15.4927667 151.047467,14.8741 C150.3041,14.3057 149.1934,13.8252667 147.649633,13.4047667 C145.877733,12.9214333 145.247467,12.673 145.029967,12.5502333 C144.8898,12.47 144.745767,12.3443333 144.745767,12.0118 C144.745767,11.6937667 144.874333,11.5835667 145.012567,11.5120333 C145.1711,11.4308333 145.624467,11.2935667 146.8647,11.2935667 C147.843933,11.2935667 149.2717,11.5574667 151.108367,12.0765667 L151.612,12.2186667 L152.3486,8.5376 L151.901033,8.42546667 C149.8865,7.9228 148.086567,7.6676 146.549567,7.6676" id="Fill-46" fill="#666666"></path>
                </g>
            </g>
        </g>
    </g>
</svg>