<?xml version="1.0" encoding="UTF-8" standalone="no"?>
<svg width="130px" height="23px" viewBox="0 0 130 23" version="1.1" xmlns="http://www.w3.org/2000/svg" xmlns:xlink="http://www.w3.org/1999/xlink">
    <defs></defs>
    <g id="home" stroke="none" stroke-width="1" fill="none" fill-rule="evenodd">
        <g id="02-home---scroll" transform="translate(-20.000000, -20.000000)" fill="#FFFFFF">
            <g id="top">
                <g id="logo" transform="translate(20.000000, 20.000000)">
                    <g id="Imported-Layers">
                        <path d="M119.714519,5.19553073 C118.694023,5.19553073 117.866667,6.01484365 117.866667,7.02541924 L117.866667,13.995828 C117.866667,15.0065617 118.694023,15.8258747 119.714519,15.8258747 L125.955556,15.8258747 L125.955556,17.3679991 L120.601144,17.3679991 L120.601144,21.2150838 L128.152147,21.2150838 C129.172804,21.2150838 130,20.3957709 130,19.3850371 L130,5.19553073 L119.714519,5.19553073 L119.714519,5.19553073 Z M122.681755,12.4791736 C122.256176,12.4791736 121.911111,12.1376218 121.911111,11.7160213 L121.911111,9.91603244 C121.911111,9.49459014 122.256176,9.15288018 122.681755,9.15288018 L125.955556,9.15288018 L125.955556,12.4791736 L122.681755,12.4791736 L122.681755,12.4791736 Z" id="Fill-1"></path>
                        <path d="M114.285345,5.19553073 L105.847828,5.19553073 C104.827345,5.19553073 104,6.02216498 104,7.04177102 L104,15.4721955 C104,16.4918015 104.827345,17.3184358 105.847828,17.3184358 L114.285345,17.3184358 C115.305988,17.3184358 116.133333,16.4918015 116.133333,15.4721955 L116.133333,7.04177102 C116.133333,6.02216498 115.305988,5.19553073 114.285345,5.19553073 L114.285345,5.19553073 Z M112.088782,12.5075489 C112.088782,12.9327571 111.743882,13.277361 111.318308,13.277361 L108.815025,13.2775206 C108.389451,13.2775206 108.044391,12.9327571 108.044391,12.5075489 L108.044391,10.0064176 C108.044391,9.58120933 108.389451,9.23644586 108.815025,9.23644586 L111.318308,9.23644586 C111.743882,9.23644586 112.088782,9.58120933 112.088782,10.0064176 L112.088782,12.5075489 L112.088782,12.5075489 Z" id="Fill-2"></path>
                        <path d="M93.0521715,17.3184358 C94.0726547,17.3184358 94.9,16.5031783 94.9,15.4976049 L94.9,7.1833642 C94.9,6.17779081 94.0726547,5.36253336 93.0521715,5.36253336 L86.8110579,5.36253336 L86.8110579,0 L82.7666667,0 L82.7666667,17.3184358 L93.0521715,17.3184358 L93.0521715,17.3184358 Z M90.8556088,10.1072089 L90.8556088,12.5737602 C90.8556088,12.9932738 90.5105488,13.333135 90.0849747,13.333135 L86.8110579,13.333135 L86.8110579,9.34783416 L90.0849747,9.34783416 C90.5105488,9.34783416 90.8556088,9.68785271 90.8556088,10.1072089 L90.8556088,10.1072089 Z" id="Fill-3"></path>
                        <path d="M100.966667,17.3184358 L98.9108563,17.3184358 C97.8922489,17.3184358 97.0666667,16.472797 97.0666667,15.4294438 L97.0666667,0 L100.966667,0 L100.966667,17.3184358" id="Fill-4"></path>
                        <path d="M44.6333333,5.19553073 L44.6333333,21.2150838 L48.6777245,21.2150838 L48.6777245,17.2102351 L54.9186785,17.2102351 C55.9393213,17.2102351 56.7666667,16.3909788 56.7666667,15.3804731 L56.7666667,7.02529275 C56.7666667,6.01478702 55.9393213,5.19553073 54.9186785,5.19553073 L44.6333333,5.19553073 L44.6333333,5.19553073 Z M51.9516414,13.2053864 L48.6777245,13.2053864 L48.6777245,9.20037945 L51.9516414,9.20037945 C52.3772154,9.20037945 52.7221157,9.54206579 52.7221157,9.96347895 L52.7221157,12.4422868 C52.7221157,12.8637 52.3772154,13.2053864 51.9516414,13.2053864 L51.9516414,13.2053864 Z" id="Fill-5"></path>
                        <path d="M2.34782557,18.5174408 L0,18.5174408 L1.3,22.5139665 L4.84014694,22.5139665 C6.47489039,22.5139665 7.8,21.1560602 7.8,19.4808565 L7.8,5.19553073 L3.9,5.19553073 L3.9,16.9268498 C3.9,17.8053372 3.20509539,18.5174408 2.34782557,18.5174408" id="Fill-6"></path>
                        <path d="M3.9,1.73184358 L7.8,1.73184358 L7.8,4.32960894 L3.9,4.32960894 L3.9,1.73184358 Z" id="Fill-7"></path>
                        <path d="M25.1333333,0 L25.1333333,12.122905 L29.1332969,12.122905 L29.1332969,4.04091514 L31.7999392,4.04091514 L31.7999392,12.122905 L35.7999028,12.122905 L35.7999028,4.04091514 L37.3310339,4.04091514 C37.9582747,4.04091514 38.4667031,4.55454886 38.4667031,5.18821134 L38.4667031,12.122905 L42.4666667,12.122905 L42.4666667,2.69841258 C42.4666667,1.20810865 41.2708013,0 39.7956004,0 L25.1333333,0" id="Fill-8"></path>
                        <path d="M59.3666667,5.19553073 L59.3666667,21.2150838 L63.4110579,21.2150838 L63.4110579,17.2102351 L69.6521715,17.2102351 C70.6726547,17.2102351 71.5,16.3909788 71.5,15.3804731 L71.5,7.02529275 C71.5,6.01478702 70.6726547,5.19553073 69.6521715,5.19553073 L59.3666667,5.19553073 L59.3666667,5.19553073 Z M66.6849747,13.2053864 L63.4110579,13.2053864 L63.4110579,9.20037945 L66.6849747,9.20037945 C67.1105488,9.20037945 67.4556088,9.54206579 67.4556088,9.96347895 L67.4556088,12.4422868 C67.4556088,12.8637 67.1105488,13.2053864 66.6849747,13.2053864 L66.6849747,13.2053864 Z" id="Fill-9"></path>
                        <path d="M10.4,5.62849162 L10.4,9.65498022 L18.4889421,9.65498022 L18.4889421,10.9971431 L11.8184204,10.9971431 C11.0350063,10.9971431 10.4,11.6293385 10.4,12.4092848 L10.4,17.6381376 C10.4,18.4180839 11.0350063,19.0502793 11.8184204,19.0502793 L22.5333333,19.0502793 L22.5333333,7.46814062 C22.5333333,6.4521747 21.705988,5.62849162 20.6855049,5.62849162 L10.4,5.62849162 L10.4,5.62849162 Z M18.4889421,15.6947926 L15.1118268,15.6947926 C14.7432835,15.6947926 14.4443912,15.3973825 14.4443912,15.0303115 L14.4443912,15.0169519 C14.4443912,14.65004 14.7432835,14.3526298 15.1118268,14.3526298 L18.4889421,14.3526298 L18.4889421,15.6947926 L18.4889421,15.6947926 Z" id="Fill-10"></path>
                    </g>
                </g>
            </g>
        </g>
    </g>
</svg>