<?xml version="1.0" encoding="UTF-8" standalone="no"?>
<svg width="300px" height="52px" viewBox="0 0 300 52" version="1.1" xmlns="http://www.w3.org/2000/svg" xmlns:xlink="http://www.w3.org/1999/xlink">
    <defs></defs>
    <g id="home" stroke="none" stroke-width="1" fill="none" fill-rule="evenodd">
        <g id="01-home" transform="translate(-362.000000, -126.000000)" fill="#FFFFFF">
            <g id="TOP">
                <g id="logo" transform="translate(362.000000, 126.000000)">
                    <g id="Imported-Layers">
                        <path d="M276.264276,12 C273.909284,12 272,13.8923486 272,16.2264522 L272,32.3258478 C272,34.6603168 273.909284,36.5526654 276.264276,36.5526654 L290.666667,36.5526654 L290.666667,40.1144753 L278.310332,40.1144753 L278.310332,49 L295.735724,49 C298.091085,49 300,47.1076514 300,44.7731824 L300,12 L276.264276,12 L276.264276,12 Z M283.111743,28.8228654 C282.129636,28.8228654 281.333333,28.033991 281.333333,27.0602299 L281.333333,22.9028362 C281.333333,21.9294405 282.129636,21.1402007 283.111743,21.1402007 L290.666667,21.1402007 L290.666667,28.8228654 L283.111743,28.8228654 L283.111743,28.8228654 Z" id="Fill-1"></path>
                        <path d="M263.735412,12 L244.26422,12 C241.909258,12 240,13.9092585 240,16.2642195 L240,35.7357805 C240,38.0907415 241.909258,40 244.26422,40 L263.735412,40 C266.090742,40 268,38.0907415 268,35.7357805 L268,16.2642195 C268,13.9092585 266.090742,12 263.735412,12 L263.735412,12 Z M258.666421,28.8884032 C258.666421,29.8704972 257.870497,30.6664209 256.888403,30.6664209 L251.111597,30.6667896 C250.129503,30.6667896 249.33321,29.8704972 249.33321,28.8884032 L249.33321,23.1115968 C249.33321,22.1295028 250.129503,21.3332104 251.111597,21.3332104 L256.888403,21.3332104 C257.870497,21.3332104 258.666421,22.1295028 258.666421,23.1115968 L258.666421,28.8884032 L258.666421,28.8884032 Z" id="Fill-2"></path>
                        <path d="M214.73578,40 C217.090742,40 219,38.1170183 219,35.7944681 L219,16.5912541 C219,14.2687039 217.090742,12.3857222 214.73578,12.3857222 L200.33321,12.3857222 L200.33321,0 L191,0 L191,40 L214.73578,40 L214.73578,40 Z M209.66679,23.3443922 L209.66679,29.04133 C209.66679,30.0102711 208.870497,30.7952407 207.888403,30.7952407 L200.33321,30.7952407 L200.33321,21.5904815 L207.888403,21.5904815 C208.870497,21.5904815 209.66679,22.3758146 209.66679,23.3443922 L209.66679,23.3443922 Z" id="Fill-3"></path>
                        <path d="M233,40 L228.255822,40 C225.90519,40 224,38.0468473 224,35.6370379 L224,0 L233,0 L233,40" id="Fill-4"></path>
                        <path d="M103,12 L103,49 L112.33321,49 L112.33321,39.7500913 L126.735412,39.7500913 C129.090742,39.7500913 131,37.8578736 131,35.5239313 L131,16.22616 C131,13.8922178 129.090742,12 126.735412,12 L103,12 L103,12 Z M119.888403,30.5001827 L112.33321,30.5001827 L112.33321,21.2499087 L119.888403,21.2499087 C120.870497,21.2499087 121.666421,22.0390939 121.666421,23.0124224 L121.666421,28.737669 C121.666421,29.7109974 120.870497,30.5001827 119.888403,30.5001827 L119.888403,30.5001827 Z" id="Fill-5"></path>
                        <path d="M5.41805901,42.7693149 L0,42.7693149 L3,52 L11.1695699,52 C14.9420547,52 18,48.8636745 18,44.9944945 L18,12 L9,12 L9,39.0955628 C9,41.1245853 7.39637398,42.7693149 5.41805901,42.7693149" id="Fill-6"></path>
                        <path d="M9,4 L18,4 L18,10 L9,10 L9,4 Z" id="Fill-7"></path>
                        <path d="M58,0 L58,28 L67.2306851,28 L67.2306851,9.33321045 L73.3844752,9.33321045 L73.3844752,28 L82.6151602,28 L82.6151602,9.33321045 L86.1485398,9.33321045 C87.5960185,9.33321045 88.7693149,10.5195387 88.7693149,11.9830946 L88.7693149,28 L98,28 L98,6.23246261 C98,2.79034127 95.2403106,0 91.836001,0 L58,0" id="Fill-8"></path>
                        <path d="M137,12 L137,49 L146.33321,49 L146.33321,39.7500913 L160.73578,39.7500913 C163.090742,39.7500913 165,37.8578736 165,35.5239313 L165,16.22616 C165,13.8922178 163.090742,12 160.73578,12 L137,12 L137,12 Z M153.888403,30.5001827 L146.33321,30.5001827 L146.33321,21.2499087 L153.888403,21.2499087 C154.870497,21.2499087 155.66679,22.0390939 155.66679,23.0124224 L155.66679,28.737669 C155.66679,29.7109974 154.870497,30.5001827 153.888403,30.5001827 L153.888403,30.5001827 Z" id="Fill-9"></path>
                        <path d="M24,13 L24,22.2998898 L42.6667896,22.2998898 L42.6667896,25.3998531 L27.2732779,25.3998531 C25.4653992,25.3998531 24,26.8600206 24,28.6614449 L24,40.7384081 C24,42.5398324 25.4653992,44 27.2732779,44 L52,44 L52,17.2489957 C52,14.9024422 50.0907415,13 47.7357805,13 L24,13 L24,13 Z M42.6667896,36.2499082 L34.8734464,36.2499082 C34.0229619,36.2499082 33.3332104,35.5629866 33.3332104,34.715171 L33.3332104,34.6843147 C33.3332104,33.8368665 34.0229619,33.1499449 34.8734464,33.1499449 L42.6667896,33.1499449 L42.6667896,36.2499082 L42.6667896,36.2499082 Z" id="Fill-10"></path>
                    </g>
                </g>
            </g>
        </g>
    </g>
</svg>