<?xml version="1.0" encoding="UTF-8" standalone="no"?>
<svg width="148px" height="28px" viewBox="0 0 148 28" version="1.1" xmlns="http://www.w3.org/2000/svg" xmlns:xlink="http://www.w3.org/1999/xlink">
    <!-- Generator: Sketch 43.2 (39069) - http://www.bohemiancoding.com/sketch -->
    <title>logo-mobile</title>
    <desc>Created with Sketch.</desc>
    <defs></defs>
    <g id="Page-1" stroke="none" stroke-width="1" fill="none" fill-rule="evenodd">
        <g id="logo-mobile" transform="translate(1.000000, 1.000000)">
            <path d="M88.7106333,3.89953333 C86.2504667,3.89953333 84.4437667,4.6719 83.2895667,6.21663333 C82.1363333,7.7604 81.5602,10.2196 81.5602,13.5942333 C81.5602,16.9688667 82.1179667,19.4097 83.2335,20.9157667 C84.3480667,22.4228 86.1161,23.1748667 88.5385667,23.1748667 C90.5966,23.1748667 92.5328333,22.8510333 94.344367,22.2024 L94.344367,12.9939333 L88.8247,12.9939333 L88.8247,15.6242333 L91.484,15.6242333 L91.484,20.0583333 C90.4545,20.3058 89.4723667,20.4295333 88.5385667,20.4295333 C87.2229333,20.4295333 86.2369333,19.8717667 85.5786333,18.7562333 C84.9203333,17.6407 84.5916667,15.8726667 84.5916667,13.4521333 C84.5916667,11.0306333 84.9019667,9.27613333 85.5216,8.18863333 C86.1402667,7.1021 87.2036,6.55883333 88.7106333,6.55883333 C90.5405333,6.55883333 92.1229667,6.78793333 93.456967,7.24516667 L93.9722,4.69993333 C92.4081333,4.16633333 90.6546,3.89953333 88.7106333,3.89953333" id="Fill-27" fill="#666666" fill-rule="nonzero"></path>
            <path d="M88.5385667,23.1748667 C86.1161,23.1748667 84.3480667,22.4228 83.2335,20.9157667 C82.1179667,19.4097 81.5602,16.9688667 81.5602,13.5942333 C81.5602,10.2196 82.1363333,7.7604 83.2895667,6.21663333 C84.4437667,4.6719 86.2504667,3.89953333 88.7106333,3.89953333 C90.6546,3.89953333 92.4081333,4.16633333 93.9722,4.69993333 L93.456967,7.24516667 C92.1229667,6.78793333 90.5405333,6.55883333 88.7106333,6.55883333 C87.2036,6.55883333 86.1402667,7.1021 85.5216,8.18863333 C84.9019667,9.27613333 84.5916667,11.0306333 84.5916667,13.4521333 C84.5916667,15.8726667 84.9203333,17.6407 85.5786333,18.7562333 C86.2369333,19.8717667 87.2229333,20.4295333 88.5385667,20.4295333 C89.4723667,20.4295333 90.4545,20.3058 91.484,20.0583333 L91.484,15.6242333 L88.8247,15.6242333 L88.8247,12.9939333 L94.344367,12.9939333 L94.344367,22.2024 C92.5328333,22.8510333 90.5966,23.1748667 88.5385667,23.1748667 M88.7106333,3.4162 C86.1006333,3.4162 84.147,4.26106667 82.9029,5.92663333 C81.6916667,7.54773333 81.0768667,10.1277667 81.0768667,13.5942333 C81.0768667,17.1080667 81.6549333,19.5972333 82.8449,21.2038333 C84.0503333,22.8326667 85.9662667,23.6582 88.5385667,23.6582 C90.6439667,23.6582 92.6517333,23.3218 94.506767,22.6577 L94.8277,22.5426667 L94.8277,12.5106 L88.3413667,12.5106 L88.3413667,16.1085333 L91.0006667,16.1085333 L91.0006667,19.6716667 C90.1451667,19.8543667 89.3186667,19.9462 88.5385667,19.9462 C87.3969333,19.9462 86.5646333,19.4764 85.9943,18.5107 C85.3843333,17.4763667 85.075,15.7750333 85.075,13.4521333 C85.075,11.1273 85.3659667,9.4366 85.9411333,8.42836667 C86.4728,7.49553333 87.3785667,7.04216667 88.7106333,7.04216667 C90.4777,7.04216667 92.0224333,7.2645 93.300367,7.7024 L93.8214,7.88123333 L94.529967,4.37996667 L94.127833,4.24173333 C92.5212333,3.69363333 90.6981,3.4162 88.7106333,3.4162" id="Fill-28" fill="#666666" fill-rule="nonzero"></path>
            <path d="M99.0907,15.167 C99.1487,13.9470667 99.401,13.0751333 99.848567,12.5502333 C100.2971,12.0263 100.968933,11.7643333 101.865033,11.7643333 C103.543167,11.7643333 104.382233,12.8992 104.382233,15.167 L99.0907,15.167 M101.750967,9.10406667 C99.921067,9.10406667 98.4904,9.7005 97.4609,10.8914333 C96.4314,12.0833333 95.916167,13.833 95.916167,16.1394667 C95.916167,20.8693667 98.005133,23.2328667 102.180167,23.2328667 C102.809467,23.2328667 103.609867,23.1516667 104.582333,22.9892667 C105.5548,22.8278333 106.3465,22.6412667 106.956467,22.4315 L106.3552,19.9433 C104.8878,20.4198667 103.4958,20.6586333 102.180167,20.6586333 C100.292267,20.6586333 99.263733,19.6281667 99.0907,17.5691667 L107.441733,17.5691667 L107.556767,15.4531333 C107.5181,13.3757667 106.999,11.7972 105.9985,10.7203333 C104.997033,9.64346667 103.580867,9.10406667 101.750967,9.10406667" id="Fill-29" fill="#666666" fill-rule="nonzero"></path>
            <path d="M99.611733,14.6836667 C99.6997,13.8436333 99.9027,13.2327 100.216867,12.8644 C100.571633,12.4487333 101.111033,12.2476667 101.865033,12.2476667 C102.6809,12.2476667 103.7481,12.5115667 103.8844,14.6836667 L99.611733,14.6836667 M101.865033,11.7643333 C100.968933,11.7643333 100.2971,12.0263 99.848567,12.5502333 C99.401,13.0751333 99.1487,13.9470667 99.0907,15.167 L104.382233,15.167 C104.382233,12.8992 103.543167,11.7643333 101.865033,11.7643333 M102.180167,23.2328667 C98.005133,23.2328667 95.916167,20.8693667 95.916167,16.1394667 C95.916167,13.833 96.4314,12.0833333 97.4609,10.8914333 C98.4904,9.7005 99.921067,9.10406667 101.750967,9.10406667 C103.580867,9.10406667 104.997033,9.64346667 105.9985,10.7203333 C106.999,11.7972 107.5181,13.3757667 107.556767,15.4531333 L107.441733,17.5691667 L99.0907,17.5691667 C99.263733,19.6281667 100.292267,20.6586333 102.180167,20.6586333 C103.4958,20.6586333 104.8878,20.4198667 106.3552,19.9433 L106.956467,22.4315 C106.3465,22.6412667 105.5548,22.8278333 104.582333,22.9892667 C103.609867,23.1516667 102.809467,23.2328667 102.180167,23.2328667 M101.750967,8.62073333 C99.782833,8.62073333 98.216833,9.27806667 97.0955,10.5753333 C95.992533,11.8523 95.432833,13.7237667 95.432833,16.1394667 C95.432833,21.1661333 97.703533,23.7152333 102.180167,23.7152333 C102.833633,23.7152333 103.667867,23.6321 104.6616,23.4658333 C105.654367,23.3005333 106.478933,23.1062333 107.113067,22.8897 L107.528733,22.7466333 L106.7032,19.3227 L106.206333,19.4841333 C104.793067,19.9423333 103.438767,20.1753 102.180167,20.1753 C100.718567,20.1753 99.901733,19.4976667 99.640733,18.0525 L107.899933,18.0525 L108.039133,15.4792333 C107.9995,13.253 107.432067,11.5526333 106.3523,10.3916667 C105.260933,9.2162 103.712333,8.62073333 101.750967,8.62073333" id="Fill-30" fill="#666666" fill-rule="nonzero"></path>
            <path d="M111.9609,15.167 C112.0189,13.9470667 112.2712,13.0751333 112.718767,12.5502333 C113.166333,12.0263 113.839133,11.7643333 114.735233,11.7643333 C116.4124,11.7643333 117.251467,12.8992 117.251467,15.167 L111.9609,15.167 M114.6202,9.10406667 C112.7903,9.10406667 111.3606,9.7005 110.3311,10.8914333 C109.300633,12.0833333 108.786367,13.833 108.786367,16.1394667 C108.786367,20.8693667 110.874367,23.2328667 115.0494,23.2328667 C115.6787,23.2328667 116.480067,23.1516667 117.451567,22.9892667 C118.425,22.8278333 119.215733,22.6412667 119.8257,22.4315 L119.2254,19.9433 C117.757033,20.4198667 116.365033,20.6586333 115.0494,20.6586333 C113.1615,20.6586333 112.132967,19.6281667 111.9609,17.5691667 L120.311933,17.5691667 L120.426,15.4531333 C120.3883,13.3757667 119.868233,11.7972 118.867733,10.7203333 C117.867233,9.64346667 116.451067,9.10406667 114.6202,9.10406667" id="Fill-31" fill="#666666" fill-rule="nonzero"></path>
            <path d="M112.480967,14.6836667 C112.568933,13.8436333 112.771933,13.2327 113.0861,12.8644 C113.440867,12.4487333 113.980267,12.2476667 114.735233,12.2476667 C115.5511,12.2476667 116.6183,12.5115667 116.753633,14.6836667 L112.480967,14.6836667 M114.735233,11.7643333 C113.839133,11.7643333 113.166333,12.0263 112.718767,12.5502333 C112.2712,13.0751333 112.0189,13.9470667 111.9609,15.167 L117.251467,15.167 C117.251467,12.8992 116.4124,11.7643333 114.735233,11.7643333 M115.0494,23.2328667 C110.874367,23.2328667 108.786367,20.8693667 108.786367,16.1394667 C108.786367,13.833 109.300633,12.0833333 110.3311,10.8914333 C111.3606,9.7005 112.7903,9.10406667 114.6202,9.10406667 C116.451067,9.10406667 117.867233,9.64346667 118.867733,10.7203333 C119.868233,11.7972 120.3883,13.3757667 120.426,15.4531333 L120.311933,17.5691667 L111.9609,17.5691667 C112.132967,19.6281667 113.1615,20.6586333 115.0494,20.6586333 C116.365033,20.6586333 117.757033,20.4198667 119.2254,19.9433 L119.8257,22.4315 C119.215733,22.6412667 118.425,22.8278333 117.451567,22.9892667 C116.480067,23.1516667 115.6787,23.2328667 115.0494,23.2328667 M114.6202,8.62073333 C112.653033,8.62073333 111.086067,9.27806667 109.9657,10.5753333 C108.861767,11.8523 108.303033,13.7237667 108.303033,16.1394667 C108.303033,21.1661333 110.572767,23.7152333 115.0494,23.7152333 C115.702867,23.7152333 116.538067,23.6321 117.530833,23.4658333 C118.5236,23.3005333 119.349133,23.1062333 119.9823,22.8887333 L120.398933,22.7456667 L120.2955,22.3184 L119.572433,19.3227 L119.075567,19.4841333 C117.663267,19.9423333 116.308,20.1753 115.0494,20.1753 C113.588767,20.1753 112.770967,19.4976667 112.509967,18.0525 L120.769167,18.0525 L120.909333,15.4792333 C120.868733,13.253 120.3013,11.5526333 119.221533,10.3916667 C118.130167,9.2162 116.582533,8.62073333 114.6202,8.62073333" id="Fill-32" fill="#666666" fill-rule="nonzero"></path>
            <path d="M125.832567,3.89953333 L122.886167,3.89953333 L122.886167,22.9177333 L125.832567,22.9177333 L125.832567,17.3120333 L127.833567,17.1129 C129.035133,18.9621333 130.102333,20.8964333 131.0371,22.9177333 L134.382733,22.9177333 L133.810467,21.8312 C132.5712,19.4667333 131.3416,17.4174 130.122633,15.6822333 C131.589067,13.9857333 132.924033,11.8687333 134.124633,9.33316667 L130.923033,9.33316667 L130.522833,10.1335667 C129.722433,11.7353333 128.7867,13.2230333 127.7195,14.5947333 L125.832567,14.7958 L125.832567,3.89953333" id="Fill-33" fill="#666666" fill-rule="nonzero"></path>
            <path d="M122.886167,22.9177333 L122.886167,3.89953333 L125.832567,3.89953333 L125.832567,14.7958 L127.7195,14.5947333 C128.7867,13.2230333 129.722433,11.7353333 130.522833,10.1335667 L130.923033,9.33316667 L134.124633,9.33316667 C132.924033,11.8687333 131.589067,13.9857333 130.122633,15.6822333 C131.3416,17.4174 132.5712,19.4667333 133.810467,21.8312 L134.382733,22.9177333 L131.0371,22.9177333 C130.102333,20.8964333 129.035133,18.9621333 127.833567,17.1129 L125.832567,17.3120333 L125.832567,22.9177333 L122.886167,22.9177333 M126.3159,3.4162 L122.402833,3.4162 L122.402833,23.4010667 L126.3159,23.4010667 L126.3159,17.7499333 L127.588033,17.6233 C128.7084,19.3739333 129.7205,21.2212333 130.598233,23.1207333 L130.727767,23.4010667 L135.1841,23.4010667 L134.8245,22.7176333 L134.4939,22.6122667 L134.579933,22.2546 L134.237733,21.6059667 C133.07,19.3758667 131.890667,17.3942 130.731633,15.7112333 C132.128467,14.0350333 133.4151,11.9605667 134.561567,9.54003333 L134.889267,8.84983333 L130.624333,8.84983333 L130.490933,9.1176 L130.090733,9.918 C129.338667,11.4211667 128.455133,12.8392667 127.462367,14.1365333 L126.3159,14.2583333 L126.3159,3.4162" id="Fill-34" fill="#666666" fill-rule="nonzero"></path>
            <path d="M140.5027,9.10406667 C136.995633,9.10406667 135.241133,10.4680333 135.241133,13.1940333 C135.241133,14.4719667 135.6133,15.3922333 136.356667,15.9538667 C137.100033,16.5164667 138.415667,17.0268667 140.3026,17.4841 C141.2567,17.7132 141.904367,17.9326333 142.247533,18.1424 C142.591667,18.3512 142.762767,18.7040333 142.762767,19.1999333 C142.762767,19.6958333 142.571367,20.039 142.191467,20.2294333 C141.809633,20.4392 141.084633,20.5436 140.017433,20.5436 C138.949267,20.5436 137.5099,20.2584333 135.698367,19.6861667 L135.069067,22.2884333 C136.9763,22.8993667 138.758833,23.2038667 140.417633,23.2038667 C143.963367,23.2038667 145.7372,21.7645 145.7372,18.8848 C145.7372,17.6271667 145.394033,16.7359 144.7077,16.211 C144.021367,15.6870667 142.943533,15.2240333 141.476133,14.8238333 C140.0068,14.4236333 139.097167,14.1239667 138.7453,13.9238667 C138.3915,13.7237667 138.215567,13.4047667 138.215567,12.9649333 C138.215567,12.5270333 138.3915,12.2177 138.7453,12.0359667 C139.097167,11.8552 139.788333,11.7643333 140.817833,11.7643333 C141.847333,11.7643333 143.306033,12.0311333 145.193933,12.5647333 L145.7372,9.84743333 C143.754567,9.3525 142.009733,9.10406667 140.5027,9.10406667" id="Fill-35" fill="#666666" fill-rule="nonzero"></path>
            <path d="M140.017433,20.5436 C141.084633,20.5436 141.809633,20.4392 142.191467,20.2294333 C142.571367,20.039 142.762767,19.6958333 142.762767,19.1999333 C142.762767,18.7040333 142.591667,18.3512 142.247533,18.1424 C141.904367,17.9326333 141.2567,17.7132 140.3026,17.4841 C138.415667,17.0268667 137.100033,16.5164667 136.356667,15.9538667 C135.6133,15.3922333 135.241133,14.4719667 135.241133,13.1940333 C135.241133,10.4680333 136.995633,9.10406667 140.5027,9.10406667 C142.009733,9.10406667 143.754567,9.3525 145.7372,9.84743333 L145.193933,12.5647333 C143.306033,12.0311333 141.847333,11.7643333 140.817833,11.7643333 C139.788333,11.7643333 139.097167,11.8552 138.7453,12.0359667 C138.3915,12.2177 138.215567,12.5270333 138.215567,12.9649333 C138.215567,13.4047667 138.3915,13.7237667 138.7453,13.9238667 C139.097167,14.1239667 140.0068,14.4236333 141.476133,14.8238333 C142.943533,15.2240333 144.021367,15.6870667 144.7077,16.211 C145.394033,16.7359 145.7372,17.6271667 145.7372,18.8848 C145.7372,21.7645 143.963367,23.2038667 140.417633,23.2038667 C138.758833,23.2038667 136.9763,22.8993667 135.069067,22.2884333 L135.698367,19.6861667 C137.5099,20.2584333 138.949267,20.5436 140.017433,20.5436 M140.5027,8.62073333 C135.7554,8.62073333 134.7578,11.1079667 134.7578,13.1940333 C134.7578,14.6256667 135.197633,15.6841667 136.064733,16.3395667 C136.869,16.9476 138.2175,17.4763667 140.1895,17.9539 C141.309867,18.2226333 141.7903,18.4285333 141.9962,18.5551667 C142.128633,18.6354 142.279433,18.7813667 142.279433,19.1999333 C142.279433,19.5924 142.125733,19.7219333 141.974933,19.7963667 C141.785467,19.9007667 141.304067,20.0602667 140.017433,20.0602667 C139.004367,20.0602667 137.5998,19.7799333 135.844333,19.2250667 L135.350367,19.0694333 L134.599267,22.1753333 L134.579933,22.2546 L134.4939,22.6122667 L134.8245,22.7176333 L134.922133,22.7485667 C136.865133,23.3711 138.714367,23.6872 140.417633,23.6872 C145.213267,23.6872 146.220533,21.0752667 146.220533,18.8848 C146.220533,17.4754 145.810667,16.4459 145.001567,15.8272333 C144.257233,15.2598 143.146533,14.7784 141.603733,14.3579 C139.830867,13.8745667 139.2006,13.6261333 138.9831,13.5033667 C138.842933,13.4241 138.6989,13.2974667 138.6989,12.9649333 C138.6989,12.6469 138.827467,12.5367 138.9657,12.4651667 C139.1252,12.3839667 139.5776,12.2476667 140.817833,12.2476667 C141.798033,12.2476667 143.2258,12.5106 145.0615,13.0297 L145.565133,13.1718 L146.301733,9.49073333 L145.854167,9.3786 C143.839633,8.87593333 142.0397,8.62073333 140.5027,8.62073333" id="Fill-36" fill="#666666" fill-rule="nonzero"></path>
            <path d="M87.5854333,22.4624333 C85.0933667,22.4624333 83.2431667,21.6697667 82.0851,20.1066667 C80.9444333,18.5638667 80.3654,16.0524667 80.3654,12.6411 C80.3654,9.2278 80.9637667,6.6961 82.1431,5.1185 C83.3388667,3.51673333 85.2277333,2.70473333 87.7565333,2.70473333 C89.7188667,2.70473333 91.5149333,2.9783 93.097367,3.51866667 L93.298433,3.58633333 L92.6855667,6.61006667 L92.4245667,6.52016667 C91.1205333,6.07356667 89.5506667,5.84736667 87.7565333,5.84736667 C86.3307,5.84736667 85.3563,6.34133333 84.7772667,7.35536667 C84.1818,8.40033333 83.8802,10.1316333 83.8802,12.499 C83.8802,14.8654 84.2011333,16.6092667 84.8323667,17.6803333 C85.4510333,18.7262667 86.351,19.2337667 87.5854333,19.2337667 C88.4399667,19.2337667 89.3496,19.1264667 90.2892,18.9128333 L90.2892,14.9127667 L87.6299,14.9127667 L87.6299,11.7991333 L93.631933,11.7991333 L93.631933,21.4194 L93.472433,21.4774 C91.6425333,22.1308667 89.6618333,22.4624333 87.5854333,22.4624333" id="Fill-37" fill="#FFFFFF" fill-rule="nonzero"></path>
            <path d="M87.7565333,2.94543333 C89.7014667,2.94543333 91.455,3.2132 93.019067,3.7468 L92.5038333,6.29203333 C91.1698333,5.8348 89.5874,5.6057 87.7565333,5.6057 C86.2504667,5.6057 85.1871333,6.14896667 84.5684667,7.2355 C83.9478667,8.323 83.6385333,10.0775 83.6385333,12.4980333 C83.6385333,14.9195333 83.9672,16.6875667 84.6255,17.8031 C85.2828333,18.9186333 86.2688333,19.4764 87.5854333,19.4764 C88.5192333,19.4764 89.5013667,19.3517 90.5308667,19.1042333 L90.5308667,14.6711 L87.8715667,14.6711 L87.8715667,12.0408 L93.391233,12.0408 L93.391233,21.2492667 C91.5797,21.8979 89.6434667,22.2217333 87.5854333,22.2217333 C85.1629667,22.2217333 83.3949333,21.4687 82.2803667,19.9626333 C81.1648333,18.4565667 80.6070667,16.0157333 80.6070667,12.6411 C80.6070667,9.26646667 81.1832,6.8063 82.3364333,5.2635 C83.4896667,3.71876667 85.2973333,2.94543333 87.7565333,2.94543333 M87.7565333,2.4621 C85.1475,2.4621 83.1938667,3.30696667 81.9497667,4.9735 C80.7375667,6.5946 80.1237333,9.17463333 80.1237333,12.6411 C80.1237333,16.1549333 80.7018,18.6441 81.8917667,20.2507 C83.0972,21.8785667 85.0131333,22.7050667 87.5854333,22.7050667 C89.6898667,22.7050667 91.6976333,22.3686667 93.553633,21.7045667 L93.874567,21.5895333 L93.874567,11.5574667 L87.3882333,11.5574667 L87.3882333,15.1544333 L90.0475333,15.1544333 L90.0475333,18.7185333 C89.1920333,18.9002667 88.3655333,18.9930667 87.5854333,18.9930667 C86.4438,18.9930667 85.6115,18.5232667 85.0411667,17.5575667 C84.4312,16.5232333 84.1218667,14.8209333 84.1218667,12.4980333 C84.1218667,10.1732 84.4128333,8.48346667 84.988,7.47523333 C85.5196667,6.5424 86.4254333,6.08903333 87.7565333,6.08903333 C89.5245667,6.08903333 91.0693,6.31136667 92.3472333,6.74926667 L92.8682667,6.92713333 L93.576833,3.42586667 L93.1747,3.2886 C91.5671333,2.7405 89.7449667,2.4621 87.7565333,2.4621" id="Fill-38" fill="#666666" fill-rule="nonzero"></path>
            <path d="M101.227033,22.5214 C96.9099,22.5214 94.721367,20.0535 94.721367,15.1863333 C94.721367,12.8305667 95.260767,11.0113 96.325067,9.78073333 C97.399033,8.53856667 98.904133,7.90926667 100.797833,7.90926667 C102.6896,7.90926667 104.178267,8.47863333 105.222267,9.60286667 C106.2595,10.7203333 106.805667,12.3665667 106.8453,14.4951667 L106.718667,16.8577 L98.4063,16.8577 C98.627667,18.6102667 99.552767,19.4638333 101.227033,19.4638333 C102.5098,19.4638333 103.8902,19.227 105.327633,18.7601 L105.576067,18.6789 L106.2885,21.6349667 L106.080667,21.7065 C105.4562,21.9220667 104.6442,22.1125 103.667867,22.2749 C102.688633,22.4382667 101.866967,22.5214 101.227033,22.5214 L101.227033,22.5214 Z M103.1826,13.9722 C103.128467,12.0079333 102.383167,11.0528667 100.912867,11.0528667 C100.0825,11.0528667 99.483167,11.2819667 99.0791,11.7537 C98.700167,12.1983667 98.4701,12.9446333 98.3947,13.9722 L103.1826,13.9722 L103.1826,13.9722 Z" id="Fill-39" fill="#FFFFFF" fill-rule="nonzero"></path>
            <path d="M100.797833,8.15093333 C102.627733,8.15093333 104.0439,8.69033333 105.0444,9.7672 C106.045867,10.8440667 106.564967,12.4226333 106.602667,14.5 L106.4886,16.6160333 L98.137567,16.6160333 C98.309633,18.6750333 99.339133,19.7055 101.227033,19.7055 C102.542667,19.7055 103.9337,19.4667333 105.402067,18.9901667 L106.002367,21.4783667 C105.393367,21.6881333 104.601667,21.8737333 103.6292,22.0361333 C102.656733,22.1985333 101.856333,22.2787667 101.227033,22.2787667 C97.052,22.2787667 94.963033,19.9152667 94.963033,15.1863333 C94.963033,12.8798667 95.478267,11.1302 96.507767,9.9383 C97.537267,8.74736667 98.966967,8.15093333 100.797833,8.15093333 L100.797833,8.15093333 Z M98.137567,14.2138667 L103.428133,14.2138667 C103.428133,11.9451 102.590033,10.8102333 100.9119,10.8102333 C100.0158,10.8102333 99.343967,11.0731667 98.895433,11.5971 C98.447867,12.122 98.195567,12.9939333 98.137567,14.2138667 L98.137567,14.2138667 Z M100.797833,7.6676 C98.8297,7.6676 97.2637,8.32493333 96.142367,9.6222 C95.0394,10.8982 94.4797,12.7706333 94.4797,15.1863333 C94.4797,20.213 96.7504,22.7621 101.227033,22.7621 C101.8805,22.7621 102.714733,22.6789667 103.708467,22.5127 C104.701233,22.3474 105.5258,22.1531 106.159933,21.9356 L106.5756,21.7925333 L105.750067,18.3695667 L105.2532,18.5300333 C103.839933,18.9892 102.485633,19.2221667 101.227033,19.2221667 C99.765433,19.2221667 98.9486,18.5445333 98.6876,17.0993667 L106.9468,17.0993667 L107.086,14.5261 C107.046367,12.2998667 106.477967,10.5995 105.399167,9.43756667 C104.306833,8.26306667 102.7592,7.6676 100.797833,7.6676 L100.797833,7.6676 Z M98.6586,13.7305333 C98.746567,12.8905 98.949567,12.2795667 99.263733,11.9112667 C99.6185,11.4956 100.1579,11.2935667 100.9119,11.2935667 C101.727767,11.2935667 102.794967,11.5584333 102.931267,13.7305333 L98.6586,13.7305333 L98.6586,13.7305333 Z" id="Fill-40" fill="#666666" fill-rule="nonzero"></path>
            <path d="M114.096267,22.5214 C109.7801,22.5214 107.591567,20.0535 107.591567,15.1863333 C107.591567,12.8305667 108.130967,11.0113 109.1943,9.78073333 C110.269233,8.53856667 111.773367,7.90926667 113.667067,7.90926667 C115.558833,7.90926667 117.0475,8.47863333 118.0915,9.60286667 C119.128733,10.7203333 119.675867,12.3665667 119.714533,14.4951667 L119.5879,16.8577 L111.275533,16.8577 C111.497867,18.6102667 112.422967,19.4638333 114.096267,19.4638333 C115.38,19.4638333 116.759433,19.227 118.197833,18.7601 L118.4453,18.6789 L119.1587,21.6349667 L118.950867,21.7065 C118.325433,21.9220667 117.5144,22.1125 116.538067,22.2749 C115.557867,22.4382667 114.7362,22.5214 114.096267,22.5214 L114.096267,22.5214 Z M116.0528,13.9722 C115.9977,12.0079333 115.253367,11.0528667 113.781133,11.0528667 C112.9527,11.0528667 112.353367,11.2819667 111.9493,11.7537 C111.5694,12.1983667 111.3403,12.9446333 111.2649,13.9722 L116.0528,13.9722 L116.0528,13.9722 Z" id="Fill-41" fill="#FFFFFF" fill-rule="nonzero"></path>
            <path d="M113.667067,8.15093333 C115.497933,8.15093333 116.913133,8.69033333 117.9146,9.7672 C118.9151,10.8440667 119.4342,12.4226333 119.472867,14.5 L119.3588,16.6160333 L111.007767,16.6160333 C111.179833,18.6750333 112.208367,19.7055 114.096267,19.7055 C115.4119,19.7055 116.8039,19.4667333 118.272267,18.9901667 L118.872567,21.4783667 C118.2626,21.6881333 117.4709,21.8737333 116.498433,22.0361333 C115.526933,22.1985333 114.725567,22.2787667 114.096267,22.2787667 C109.921233,22.2787667 107.833233,19.9152667 107.833233,15.1863333 C107.833233,12.8798667 108.3475,11.1302 109.377,9.9383 C110.407467,8.74736667 111.837167,8.15093333 113.667067,8.15093333 L113.667067,8.15093333 Z M111.007767,14.2138667 L116.298333,14.2138667 C116.298333,11.9451 115.459267,10.8102333 113.7821,10.8102333 C112.885033,10.8102333 112.2132,11.0731667 111.765633,11.5971 C111.318067,12.122 111.065767,12.9939333 111.007767,14.2138667 L111.007767,14.2138667 Z M113.667067,7.6676 C111.6999,7.6676 110.132933,8.32493333 109.0116,9.6222 C107.908633,10.8982 107.3499,12.7706333 107.3499,15.1863333 C107.3499,20.213 109.619633,22.7621 114.096267,22.7621 C114.749733,22.7621 115.584933,22.6789667 116.5777,22.5127 C117.570467,22.3474 118.395033,22.1531 119.029167,21.9356 L119.4458,21.7925333 L118.6193,18.3695667 L118.122433,18.5300333 C116.709167,18.9892 115.354867,19.2221667 114.096267,19.2221667 C112.634667,19.2221667 111.817833,18.5445333 111.556833,17.0993667 L119.816033,17.0993667 L119.955233,14.5261 C119.9156,12.2998667 119.348167,10.6004667 118.2684,9.43756667 C117.177033,8.26306667 115.628433,7.6676 113.667067,7.6676 L113.667067,7.6676 Z M111.527833,13.7305333 C111.6158,12.8905 111.8188,12.2795667 112.132967,11.9112667 C112.487733,11.4956 113.027133,11.2935667 113.7821,11.2935667 C114.597967,11.2935667 115.6642,11.5584333 115.8005,13.7305333 L111.527833,13.7305333 L111.527833,13.7305333 Z" id="Fill-42" fill="#666666" fill-rule="nonzero"></path>
            <path d="M129.928333,22.2062667 L129.864533,22.0651333 C128.9607,20.1124667 127.915733,18.212 126.757667,16.4130333 L125.1211,16.5773667 L125.1211,22.2062667 L121.6904,22.2062667 L121.6904,2.70473333 L125.1211,2.70473333 L125.1211,13.5739333 L126.6378,13.4125 C127.666333,12.0804333 128.578867,10.6207667 129.353167,9.07313333 L129.820067,8.13836667 L133.5543,8.13836667 L133.389967,8.48346667 C132.218367,10.9552333 130.901767,13.0616 129.474,14.7445667 C130.663967,16.4536333 131.873267,18.4788 133.070967,20.7649667 L133.8298,22.2062667 L129.928333,22.2062667" id="Fill-43" fill="#FFFFFF" fill-rule="nonzero"></path>
            <path d="M124.879433,2.94543333 L124.879433,13.8426667 L126.766367,13.6416 C127.833567,12.2699 128.768333,10.7812333 129.568733,9.18043333 L129.968933,8.38003333 L133.1715,8.38003333 C131.9709,10.9156 130.635933,13.0316333 129.168533,14.7291 C130.388467,16.4642667 131.618067,18.5136 132.857333,20.8780667 L133.4296,21.9646 L130.083967,21.9646 C129.1492,19.9433 128.081033,18.009 126.880433,16.1588 L124.879433,16.3589 L124.879433,21.9646 L121.932067,21.9646 L121.932067,2.94543333 L124.879433,2.94543333 M125.3618,2.4621 L121.448733,2.4621 L121.448733,22.4479333 L125.3618,22.4479333 L125.3618,16.7968 L126.633933,16.6692 C127.7543,18.4198333 128.767367,20.2681 129.6451,22.1676 L129.774633,22.4479333 L134.230967,22.4479333 L133.2846,20.6528333 C132.116867,18.4227333 130.937533,16.4410667 129.777533,14.7581 C131.174367,13.0819 132.461967,11.0074333 133.608433,8.5869 L133.935167,7.8967 L129.670233,7.8967 L129.136633,8.96486667 C128.385533,10.4670667 127.502,11.8861333 126.509233,13.1834 L125.3618,13.3052 L125.3618,2.4621" id="Fill-44" fill="#666666" fill-rule="nonzero"></path>
            <path d="M139.4645,22.4924 C137.787333,22.4924 135.9642,22.1801667 134.042467,21.5663333 L133.828833,21.4967333 L134.571233,18.4246667 L134.817733,18.5029667 C136.595433,19.0646 138.0232,19.3488 139.0643,19.3488 C140.087033,19.3488 140.779167,19.2531 141.121367,19.0646 C141.428767,18.9109 141.567,18.6518333 141.567,18.2458333 C141.567,17.8369333 141.437467,17.5585333 141.168733,17.3951667 C140.845867,17.1979667 140.2156,16.9862667 139.2934,16.7658667 C137.381333,16.3028333 136.024133,15.7740667 135.257567,15.1940667 C134.454267,14.5860333 134.046333,13.5932667 134.046333,12.2409 C134.046333,9.367 135.8975,7.90926667 139.549567,7.90926667 C141.064333,7.90926667 142.844933,8.16156667 144.842067,8.66036667 L145.066333,8.71643333 L144.425433,11.9151333 L144.1741,11.8436 C142.316167,11.3187 140.866167,11.0528667 139.8647,11.0528667 C138.637033,11.0528667 138.119867,11.1853 137.9014,11.2984 C137.630733,11.4366333 137.5041,11.6628333 137.5041,12.0118 C137.5041,12.3656 137.633633,12.6034 137.9101,12.76 C138.2436,12.9494667 139.144533,13.2443 140.5868,13.6367667 C142.0774,14.0437333 143.191967,14.5241667 143.900533,15.0664667 C144.647767,15.6377667 145.025733,16.6015333 145.025733,17.9316667 C145.025733,20.9583 143.154267,22.4924 139.4645,22.4924" id="Fill-45" fill="#FFFFFF" fill-rule="nonzero"></path>
            <path d="M139.549567,8.15093333 C141.0566,8.15093333 142.801433,8.39936667 144.784067,8.8943 L144.239833,11.6116 C142.3529,11.078 140.8942,10.8102333 139.8647,10.8102333 C138.8352,10.8102333 138.144033,10.9020667 137.7912,11.0828333 C137.438367,11.2636 137.262433,11.5739 137.262433,12.0118 C137.262433,12.4506667 137.438367,12.7706333 137.7912,12.9707333 C138.144033,13.1708333 139.053667,13.4705 140.523,13.8707 C141.9904,14.2709 143.068233,14.7339333 143.754567,15.2578667 C144.439933,15.7827667 144.784067,16.6740333 144.784067,17.9316667 C144.784067,20.8113667 143.010233,22.2497667 139.4645,22.2497667 C137.8057,22.2497667 136.0222,21.9462333 134.115933,21.3353 L134.745233,18.7330333 C136.556767,19.3043333 137.996133,19.5904667 139.0643,19.5904667 C140.1315,19.5904667 140.8565,19.4860667 141.237367,19.2763 C141.618233,19.0858667 141.809633,18.7427 141.809633,18.2458333 C141.809633,17.7509 141.638533,17.3980667 141.2944,17.1883 C140.951233,16.9795 140.303567,16.7591 139.349467,16.5309667 C137.462533,16.0737333 136.145933,15.5633333 135.403533,15.0007333 C134.6592,14.4391 134.288,13.5188333 134.288,12.2409 C134.288,9.5149 136.0425,8.15093333 139.549567,8.15093333 M139.549567,7.6676 C134.8013,7.6676 133.804667,10.1548333 133.804667,12.2409 C133.804667,13.6725333 134.2445,14.7310333 135.1116,15.3864333 C135.915867,15.9944667 137.264367,16.5222667 139.236367,16.9998 C140.355767,17.2695 140.837167,17.4754 141.043067,17.6010667 C141.174533,17.6813 141.3263,17.8272667 141.3263,18.2458333 C141.3263,18.6392667 141.1726,18.7688 141.0218,18.8432333 C140.832333,18.9476333 140.350933,19.1071333 139.0643,19.1071333 C138.051233,19.1071333 136.646667,18.8258333 134.890233,18.2719333 L134.397233,18.1163 L133.540767,21.6581667 L133.969,21.7954333 C135.912,22.4179667 137.761233,22.7340667 139.4645,22.7340667 C144.260133,22.7340667 145.2674,20.1221333 145.2674,17.9316667 C145.2674,16.5222667 144.856567,15.4927667 144.047467,14.8741 C143.3041,14.3057 142.1934,13.8252667 140.649633,13.4047667 C138.877733,12.9214333 138.247467,12.673 138.029967,12.5502333 C137.8898,12.47 137.745767,12.3443333 137.745767,12.0118 C137.745767,11.6937667 137.874333,11.5835667 138.012567,11.5120333 C138.1711,11.4308333 138.624467,11.2935667 139.8647,11.2935667 C140.843933,11.2935667 142.2717,11.5574667 144.108367,12.0765667 L144.612,12.2186667 L145.3486,8.5376 L144.901033,8.42546667 C142.8865,7.9228 141.086567,7.6676 139.549567,7.6676" id="Fill-46" fill="#666666" fill-rule="nonzero"></path>
            <g id="Group">
                <path d="M32.5,22.1 L39.7,22.1 M39.7,22.1 L45.2,22.1 L45.2,25.7 L52,25.7 L52,22.1 L53.5,22.1 C55.5,22.1 57.4,21.1 58.5,19.6 L58.5,25.7 L65.3,25.7 L65.3,22.1 L66.8,22.1 C70.3,22.1 73.1,19.3 73.1,15.8 L73.1,11.5 C73.1,8 70.3,5.2 66.8,5.2 L58.5,5.2 L45.2,5.2 L45.2,7.6 C44,6.1 42.3,5.2 40.3,5.2 L25.4,5.2 L25.4,7.3 C24.4,6 22.8,5.2 21,5.2 L12.4,5.2 L12.4,0.2 L5.6,0.2 L5.6,5.2 L5.6,7.1 L5.6,19.6 L1.13686838e-13,19.6 L3.4,26.5 L6.2,26.5 C9.5,26.5 12.2,23.9 12.3,20.7 C13.3,21.6 14.7,22.2 16.2,22.2 L25.3,22.2 L26.5,22.2 L32.5,22.2" id="Shape" stroke="#666666" stroke-width="0.5"></path>
                <g transform="translate(3.000000, 2.000000)" fill-rule="nonzero" fill="#373865">
                    <path d="M50.5,5.2 L44.2,5.2 L44.2,21.7 L47,21.7 L47,18.1 L50.5,18.1 C52.9,18.1 54.8,16.2 54.8,13.8 L54.8,9.5 C54.8,7.1 52.9,5.2 50.5,5.2 L50.5,5.2 Z M52,13.8 C52,14.6 51.4,15.2 50.6,15.2 L47,15.2 L47,8 L50.6,8 C51.4,8 52,8.6 52,9.4 L52,13.8 Z" id="Shape"></path>
                    <path d="M63.8,5.2 L57.5,5.2 L57.5,21.7 L60.3,21.7 L60.3,18.1 L63.8,18.1 C66.2,18.1 68.1,16.2 68.1,13.8 L68.1,9.5 C68.1,7.1 66.2,5.2 63.8,5.2 L63.8,5.2 Z M65.3,13.8 C65.3,14.6 64.7,15.2 63.9,15.2 L60.3,15.2 L60.3,8 L63.9,8 C64.7,8 65.3,8.6 65.3,9.4 L65.3,13.8 Z" id="Shape"></path>
                    <rect id="Rectangle-path" x="4.6" y="0.2" width="2.8" height="2.9"></rect>
                    <path d="M37.2,5.2 L24.3,5.2 L24.3,18.1 L27.2,18.1 L27.2,8.1 L31.5,8.1 L31.5,18.1 L34.4,18.1 L34.4,8.1 L37.3,8.1 C38.1,8.1 38.7,8.7 38.7,9.5 L38.7,18.1 L41.6,18.1 L41.6,9.5 C41.5,7.1 39.6,5.2 37.2,5.2" id="Shape"></path>
                    <path d="M4.6,18.1 C4.6,18.9 4,19.5 3.2,19.5 L0.3,19.5 L1.7,22.4 L3.3,22.4 C5.6,22.4 7.5,20.5 7.5,18.2 L7.5,5.2 L4.7,5.2 L4.7,18.1 L4.6,18.1 Z" id="Shape"></path>
                    <path d="M18,5.2 L10.3,5.2 L11.7,8 L17.2,8 C18,8 18.6,8.6 18.6,9.4 L18.6,10.3 L13.2,10.3 C11,10.3 9.3,12 9.3,14.2 C9.3,16.4 11,18.1 13.2,18.1 L21.5,18.1 L21.5,8.8 C21.6,6.8 20,5.2 18,5.2 L18,5.2 Z M18.7,15.3 L13.4,15.3 C12.8,15.3 12.3,14.8 12.3,14.2 C12.3,13.6 12.8,13.1 13.4,13.1 L18.7,13.1 L18.7,15.3 Z" id="Shape"></path>
                </g>
            </g>
        </g>
    </g>
</svg>