<?xml version="1.0" encoding="UTF-8" standalone="no"?>
<svg width="15px" height="15px" viewBox="0 0 15 15" version="1.1" xmlns="http://www.w3.org/2000/svg" xmlns:xlink="http://www.w3.org/1999/xlink">
    <defs></defs>
    <g id="A" stroke="none" stroke-width="1" fill="none" fill-rule="evenodd">
        <g id="article" transform="translate(-42.000000, -81.000000)" fill="#A8C7D6">
            <path d="M42,82 L43,82 L43,87 L42,87 L42,82 Z M48,82 L49,82 L49,87 L48,87 L48,82 Z M43,81 L48,81 L48,82 L43,82 L43,81 Z M43,87 L48,87 L48,88 L43,88 L43,87 Z M50,82 L51,82 L51,87 L50,87 L50,82 Z M56,82 L57,82 L57,87 L56,87 L56,82 Z M51,81 L56,81 L56,82 L51,82 L51,81 Z M51,87 L56,87 L56,88 L51,88 L51,87 Z M42,90 L43,90 L43,95 L42,95 L42,90 Z M48,90 L49,90 L49,95 L48,95 L48,90 Z M43,89 L48,89 L48,90 L43,90 L43,89 Z M43,95 L48,95 L48,96 L43,96 L43,95 Z M50,90 L51,90 L51,95 L50,95 L50,90 Z M56,90 L57,90 L57,95 L56,95 L56,90 Z M51,89 L56,89 L56,90 L51,90 L51,89 Z M51,95 L56,95 L56,96 L51,96 L51,95 Z" id="switch"></path>
        </g>
    </g>
</svg>