<?xml version="1.0" encoding="UTF-8" standalone="no"?>
<svg width="15px" height="15px" viewBox="0 0 15 15" version="1.1" xmlns="http://www.w3.org/2000/svg" xmlns:xlink="http://www.w3.org/1999/xlink">
    <defs></defs>
    <g id="A" stroke="none" stroke-width="1" fill="none" fill-rule="evenodd">
        <g id="article" transform="translate(-42.000000, -101.000000)" fill="#B4B4B4">
            <path d="M42,102 L43,102 L43,107 L42,107 L42,102 Z M48,102 L49,102 L49,107 L48,107 L48,102 Z M43,101 L48,101 L48,102 L43,102 L43,101 Z M43,107 L48,107 L48,108 L43,108 L43,107 Z M50,102 L51,102 L51,107 L50,107 L50,102 Z M56,102 L57,102 L57,107 L56,107 L56,102 Z M51,101 L56,101 L56,102 L51,102 L51,101 Z M51,107 L56,107 L56,108 L51,108 L51,107 Z M42,110 L43,110 L43,115 L42,115 L42,110 Z M48,110 L49,110 L49,115 L48,115 L48,110 Z M43,109 L48,109 L48,110 L43,110 L43,109 Z M43,115 L48,115 L48,116 L43,116 L43,115 Z M50,110 L51,110 L51,115 L50,115 L50,110 Z M56,110 L57,110 L57,115 L56,115 L56,110 Z M51,109 L56,109 L56,110 L51,110 L51,109 Z M51,115 L56,115 L56,116 L51,116 L51,115 Z" id="switch-active"></path>
        </g>
    </g>
</svg>