<?xml version="1.0" encoding="UTF-8" standalone="no"?>
<svg width="19px" height="15px" viewBox="0 0 19 15" version="1.1" xmlns="http://www.w3.org/2000/svg" xmlns:xlink="http://www.w3.org/1999/xlink">
    <defs></defs>
    <g id="A" stroke="none" stroke-width="1" fill="none" fill-rule="evenodd">
        <g id="article" transform="translate(-202.000000, -3655.000000)" fill="#5EA9DD">
            <g id="share" transform="translate(202.000000, 3654.000000)">
                <g id="tw" transform="translate(0.000000, 1.000000)">
                    <path d="M16.5687974,3.73564464 C16.5752979,3.89707476 16.5785482,4.06175515 16.5785482,4.22643554 C16.5785482,9.23076923 12.7713976,15 5.80498375,15 C3.66630553,15 1.67605634,14.3726977 -3.12638804e-13,13.3001083 C0.295774648,13.3347779 0.596966414,13.3521127 0.903575298,13.3521127 C2.67713976,13.3521127 4.30985915,12.7464789 5.6056338,11.7302275 C3.94907909,11.7020585 2.5503792,10.6056338 2.06933911,9.10184182 C2.29902492,9.14626219 2.53737811,9.16901408 2.78114843,9.16901408 C3.12676056,9.16901408 3.46153846,9.12459372 3.77898158,9.03575298 C2.04550379,8.68905742 0.741061755,7.15817985 0.741061755,5.32286024 L0.741061755,5.27627302 C1.25135428,5.55796316 1.83640303,5.73022752 2.45720477,5.74864572 C1.44095341,5.06933911 0.77248104,3.91007584 0.77248104,2.59696641 C0.77248104,1.9035753 0.958829902,1.2524377 1.28494041,0.691224269 C3.15384615,2.98483207 5.94366197,4.4907909 9.08992416,4.64897075 C9.02491874,4.3716143 8.99241603,4.08342362 8.99241603,3.78656555 C8.99241603,1.69555796 10.6890574,-1.08357767e-13 12.7789816,-1.08357767e-13 C13.8678223,-1.08357767e-13 14.8537378,0.459371614 15.5427952,1.19501625 C16.4062839,1.02600217 17.2156013,0.710725894 17.9479957,0.277356446 C17.6663055,1.16143012 17.0660888,1.9035753 16.283857,2.3716143 C17.0487541,2.28060672 17.7789816,2.07692308 18.4582882,1.77573131 C17.9523294,2.53521127 17.3087757,3.20151679 16.5687974,3.73564464 L16.5687974,3.73564464 Z" id="twitter-social-active"></path>
                </g>
            </g>
        </g>
    </g>
</svg>
