<?xml version="1.0" encoding="UTF-8" standalone="no"?>
<svg width="19px" height="15px" viewBox="0 0 19 15" version="1.1" xmlns="http://www.w3.org/2000/svg" xmlns:xlink="http://www.w3.org/1999/xlink">
    <defs></defs>
    <g id="A-standard" stroke="none" stroke-width="1" fill="none" fill-rule="evenodd">
        <g id="01-home-A" transform="translate(-898.000000, -1644.000000)" fill="#5EA9DD">
            <g id="footer" transform="translate(42.000000, 1642.000000)">
                <g id="SoMe" transform="translate(856.000000, 0.000000)">
                    <path d="M16.5687974,5.73564464 C16.5752979,5.89707476 16.5785482,6.06175515 16.5785482,6.22643554 C16.5785482,11.2307692 12.7713976,17 5.80498375,17 C3.66630553,17 1.67605634,16.3726977 -3.12638804e-13,15.3001083 C0.295774648,15.3347779 0.596966414,15.3521127 0.903575298,15.3521127 C2.67713976,15.3521127 4.30985915,14.7464789 5.6056338,13.7302275 C3.94907909,13.7020585 2.5503792,12.6056338 2.06933911,11.1018418 C2.29902492,11.1462622 2.53737811,11.1690141 2.78114843,11.1690141 C3.12676056,11.1690141 3.46153846,11.1245937 3.77898158,11.035753 C2.04550379,10.6890574 0.741061755,9.15817985 0.741061755,7.32286024 L0.741061755,7.27627302 C1.25135428,7.55796316 1.83640303,7.73022752 2.45720477,7.74864572 C1.44095341,7.06933911 0.77248104,5.91007584 0.77248104,4.59696641 C0.77248104,3.9035753 0.958829902,3.2524377 1.28494041,2.69122427 C3.15384615,4.98483207 5.94366197,6.4907909 9.08992416,6.64897075 C9.02491874,6.3716143 8.99241603,6.08342362 8.99241603,5.78656555 C8.99241603,3.69555796 10.6890574,2 12.7789816,2 C13.8678223,2 14.8537378,2.45937161 15.5427952,3.19501625 C16.4062839,3.02600217 17.2156013,2.71072589 17.9479957,2.27735645 C17.6663055,3.16143012 17.0660888,3.9035753 16.283857,4.3716143 C17.0487541,4.28060672 17.7789816,4.07692308 18.4582882,3.77573131 C17.9523294,4.53521127 17.3087757,5.20151679 16.5687974,5.73564464 L16.5687974,5.73564464 Z" id="twitter-active"></path>
                </g>
            </g>
        </g>
    </g>
</svg>
