<?xml version="1.0" encoding="UTF-8" standalone="no"?><svg width="314" height="197" viewBox="0 0 314 197" xmlns="http://www.w3.org/2000/svg" xmlns:xlink="http://www.w3.org/1999/xlink"><svg width="11" height="19" viewBox="-1 -1 11 19" id="facebook"><path d="M8.354 5.62L8.16 8.166H5.55V17H2.257V8.165H.5V5.62h1.757V3.915c0-.753.02-1.915.567-2.635C3.4.517 4.19 0 5.552 0c2.217 0 3.15.316 3.15.316l-.44 2.604s-.73-.21-1.414-.21c-.684 0-1.296.244-1.296.926V5.62h2.802z" fill="#B4B4B4" fill-rule="evenodd"/></svg><svg width="11" height="19" viewBox="-1 -1 11 19" id="facebook-active" y="19"><path d="M8.354 5.62L8.16 8.166H5.55V17H2.257V8.165H.5V5.62h1.757V3.915c0-.753.02-1.915.567-2.635C3.4.517 4.19 0 5.552 0c2.217 0 3.15.316 3.15.316l-.44 2.604s-.73-.21-1.414-.21c-.684 0-1.296.244-1.296.926V5.62h2.802z" fill="#65B9E8" fill-rule="evenodd"/></svg><svg width="6" height="20" viewBox="-1 -1 6 20" id="icon-dots" y="38"><path d="M2 4C.9 4 0 3.1 0 2s.9-2 2-2 2 .9 2 2-.9 2-2 2zm0 7c-1.1 0-2-.9-2-2s.9-2 2-2 2 .9 2 2-.9 2-2 2zm0 3c1.1 0 2 .9 2 2s-.9 2-2 2-2-.9-2-2 .9-2 2-2z" fill="#65B9E8" fill-rule="evenodd"/></svg><svg width="17" height="17" viewBox="-1 -1 17 17" id="icon-geek" y="58"><path d="M9 14h5v1H9v-1zm0-6h5v1H9V8zm5 1h1v5h-1V9zM8 9h1v5H8V9zm-7 5h5v1H1v-1zm0-6h5v1H1V8zm5 1h1v5H6V9zM0 9h1v5H0V9zm9-3h5v1H9V6zm0-6h5v1H9V0zm5 1h1v5h-1V1zM8 1h1v5H8V1zM1 6h5v1H1V6zm0-6h5v1H1V0zm5 1h1v5H6V1zM0 1h1v5H0V1z" fill="#A8C7D6" fill-rule="evenodd"/></svg><svg width="19" height="19" viewBox="-1 -1 19 19" id="icon-search" y="75"><path d="M16.7 15.2L12.5 11c.8-1.1 1.3-2.6 1.3-4.1 0-3.8-3.1-6.9-6.9-6.9C3.1 0 0 3.1 0 6.9c0 3.8 3.1 6.9 6.9 6.9 1.5 0 2.9-.5 4.1-1.3l4.2 4.2c.2.2.4.3.7.3.3 0 .5-.1.7-.3.5-.4.5-1.1.1-1.5zm-9.8-3.5c-2.7 0-4.8-2.1-4.8-4.8 0-2.7 2.1-4.8 4.8-4.8 2.7 0 4.8 2.1 4.8 4.8 0 2.7-2.1 4.8-4.8 4.8z" fill="#FFF" fill-rule="evenodd"/></svg><svg width="21" height="19" viewBox="-1 -1 21 19" id="linkedin" y="94"><path d="M.466 5.45h3.61V17H.466V5.45zm1.712-1.443h-.026C.847 4.007 0 3.124 0 2.005 0 .865.872 0 2.204 0c1.33 0 2.15.862 2.176 2.002 0 1.12-.845 2.005-2.202 2.005zM18.513 17H14.42v-5.976c0-1.564-.638-2.632-2.046-2.632-1.077 0-1.675.72-1.953 1.415-.104.25-.09.596-.09.944V17H6.28s.053-10.586 0-11.55h4.053v1.814c.242-.793 1.536-1.924 3.605-1.924 2.564 0 4.578 1.662 4.578 5.24V17z" fill="#B4B4B4" fill-rule="evenodd"/></svg><svg width="21" height="19" viewBox="-1 -1 21 19" id="linkedin-active" y="113"><path d="M.466 5.45h3.61V17H.466V5.45zm1.712-1.443h-.026C.847 4.007 0 3.124 0 2.005 0 .865.872 0 2.204 0c1.33 0 2.15.862 2.176 2.002 0 1.12-.845 2.005-2.202 2.005zM18.513 17H14.42v-5.976c0-1.564-.638-2.632-2.046-2.632-1.077 0-1.675.72-1.953 1.415-.104.25-.09.596-.09.944V17H6.28s.053-10.586 0-11.55h4.053v1.814c.242-.793 1.536-1.924 3.605-1.924 2.564 0 4.578 1.662 4.578 5.24V17z" fill="#65B9E8" fill-rule="evenodd"/></svg><svg width="314" height="31" viewBox="-1 -1 314 31" id="logo" y="132"><g fill="none" fill-rule="evenodd"><g transform="translate(171 8)" fill="#666"><path d="M7.6 8.2L.7 4l.5-.8 7.6 4.7v.6l-7.6 4.9-.5-.8 6.9-4.4zM13 9.3c0-3.3 1.3-4.9 3.8-4.9s3.8 1.6 3.8 4.9c0 3.3-1.3 4.9-3.8 4.9S13 12.6 13 9.3zm3.8-3.9c-1.8 0-2.7 1.3-2.7 3.9 0 2.6.9 3.9 2.7 3.9 1.8 0 2.7-1.3 2.7-3.9 0-2.6-.9-3.9-2.7-3.9zM29.3 14v-.8c-1.3.7-2.3 1-3.2 1-.9 0-1.5-.3-2-.9-.5-.6-.7-1.4-.7-2.4V4.5h1.1v6.4c0 .7.2 1.2.5 1.6.3.4.8.6 1.4.6.6 0 1.6-.3 3-1V4.5h1.1V14h-1.2zM33.5 14v-1h2.3V5.5h-2.3v-1h3.3v1.2c.4-.3 1-.5 1.8-.8.8-.3 1.5-.4 2-.5h.2v1.2h-.2c-.5 0-1.2.2-2 .4s-1.4.5-1.8.7V13H40v1h-6.5zM53 5.8v-1h1.9V2.4l1.1-.2v2.6h4.6v1H56v4.6c0 1 .1 1.7.5 2.2.3.4.8.7 1.6.7.3 0 .7 0 1.4-.1.6-.1 1-.2 1.3-.3l.2 1c-.3.1-.7.2-1.4.3-.7.1-1.2.2-1.5.2-1.2 0-2-.3-2.5-1-.4-.6-.7-1.6-.7-2.9V5.9H53v-.1zM63.2 9.3c0-1.5.3-2.7 1-3.6.6-.9 1.6-1.3 2.8-1.3 1.2 0 2.1.4 2.7 1.2.6.8.9 1.9.9 3.2l-.1 1h-6.1c.1 1 .3 1.8.8 2.4.5.6 1.1.9 1.9.9.8 0 1.8-.2 2.9-.6l.3 1c-1.1.4-2.1.6-3 .6-1.3 0-2.3-.4-3-1.3-.7-.9-1.1-2-1.1-3.5zM67 5.4c-1.7 0-2.6 1.1-2.7 3.4h5c.1-2.3-.7-3.4-2.3-3.4zM80 4.8l-.2 1c-.8-.3-1.6-.4-2.3-.4-1 0-1.7.3-2.2 1-.5.7-.7 1.6-.7 2.8 0 1.2.2 2.1.7 2.8.5.7 1.2 1 2.1 1 .6 0 1.4-.2 2.4-.5l.3 1c-1 .4-1.9.6-2.7.6-1.3 0-2.3-.4-3-1.3-.7-.9-1-2.1-1-3.7s.3-2.8 1-3.6c.7-.8 1.7-1.2 3-1.2.9.1 1.7.2 2.6.5zM84.5 6.3v7.8h-1.1V.8h1.1v4.5c1.3-.6 2.3-.8 3.1-.8 1.9 0 2.9 1.1 2.9 3.3v6.3h-1.1V7.8c0-.7-.1-1.2-.4-1.6-.3-.4-.8-.6-1.5-.6-.8-.2-1.8.1-3 .7zM103.4 14V.7h1.1v4.7c1-.7 1.9-1 2.7-1 1.2 0 2.1.4 2.8 1.2.7.8 1 2 1 3.5s-.4 2.7-1.1 3.7c-.7.9-1.7 1.4-3 1.4-.8 0-1.6-.2-2.4-.6v.4h-1.1zm6.4-4.8c0-1.2-.2-2.1-.7-2.7-.5-.6-1.1-1-2-1-.9 0-1.8.4-2.7 1.1v6c.3.1.7.3 1.2.4.5.1.9.2 1.2.2.9 0 1.7-.4 2.2-1.1.5-.8.8-1.8.8-2.9zM113.7 14v-1h3.1V1.7h-3v-1h4.1V13h3.2v1h-7.4zM123 9.3c0-3.3 1.3-4.9 3.8-4.9s3.8 1.6 3.8 4.9c0 3.3-1.3 4.9-3.8 4.9s-3.8-1.6-3.8-4.9zm3.8-3.9c-1.8 0-2.7 1.3-2.7 3.9 0 2.6.9 3.9 2.7 3.9 1.8 0 2.7-1.3 2.7-3.9 0-2.6-.9-3.9-2.7-3.9zM133.9 12.8c-.6-.8-1-2-1-3.5s.4-2.7 1.1-3.6c.7-.9 1.7-1.3 3-1.3.7 0 1.5.2 2.4.7v-.6h1v7.2c.2 1.6.3 2.5.3 2.8 0 1.2-.4 2.1-1.2 2.7-.8.6-1.7.9-2.8.9-1.1 0-2.3-.3-3.6-.8l.4-1c1.3.5 2.4.8 3.2.8.8 0 1.5-.2 2.1-.6.6-.4.9-1 .9-1.9l-.2-1.6c-1.1.7-2 1.1-2.8 1.1-1.3-.1-2.2-.5-2.8-1.3zm.9-6.4c-.5.7-.8 1.6-.8 2.8 0 1.2.2 2.1.7 2.8.5.7 1.1 1 2 1 .9 0 1.7-.4 2.7-1.2V6.2c-.9-.5-1.6-.8-2.3-.8-1 0-1.8.3-2.3 1z"/></g><g transform="translate(55 11)"><path d="M1.4 5.8l-.2-.2V1.4l.2-.2h3.4c.6 0 1.1.5 1.1 1.1v2.6c0 .6-.5 1.1-1.1 1.1H1.4v-.2z" fill="#FFF"/><path d="M4.8 1.3c.4 0 .8.4.8.8v2.6c0 .4-.4.8-.8.8H1.4V1.3h3.4zm0-.5H1.4l-.5.5v4.2l.5.5h3.4c.7 0 1.3-.6 1.3-1.3V2.1c0-.7-.6-1.3-1.3-1.3z" fill="#666"/></g><path d="M4.1 28.7l-.2-.2-2.7-8.2.2-.3h4.8V2.2l.2-.2h8.2l.2.2v4h11.3c.9 0 1.8.3 2.5.8V.5l.2-.2h17.5c2.8 0 5.1 2.3 5.1 5.1V6h26.9c2.3 0 4.2 1.9 4.2 4.2V19c0 2.3-1.9 4.2-4.2 4.2H74v4l-.2.2h-8.2l-.2-.2v-4.9c-.7.6-1.6.9-2.6.9h-4.3v4l-.2.2h-8.2l-.2-.2v-9.6H30.4v7.1l-.2.2H17c-.8 0-1.5-.2-2.1-.7-.4 2.6-2.7 4.7-5.4 4.7H4.1v-.2z" fill="#FFF"/><path d="M46.5.5c2.7 0 4.8 2.2 4.8 4.8v.8h27.2c2.2 0 3.9 1.8 3.9 3.9v8.8c0 2.2-1.8 3.9-3.9 3.9H74v4.2h-8.2v-5.4c-.7.7-1.7 1.2-2.8 1.2h-4.5v4.2h-8.2V17H30.2v7.3H17c-.9 0-1.7-.4-2.3-.9-.2 2.7-2.4 4.9-5.2 4.9H4.3l-.5-1.4-1.4-4.2-.9-2.6h5V2.2h8.2v4.2H26.3c1.1 0 2 .4 2.8 1.1v-7h17.4zm0-.5H29l-.5.5v6c-.7-.4-1.5-.6-2.3-.6H15.1V2.2l-.5-.5H6.4l-.5.5v17.5H1.4l-.5.7.9 2.6 1.4 4.2.5 1.4.5.3H9.4c2.7 0 5-1.9 5.6-4.5.6.3 1.3.5 2 .5h13.2l.5-.5v-6.8h18.8V27l.5.5h8.2l.5-.5v-3.7h4c.8 0 1.6-.2 2.3-.7V27l.5.5h8.2l.5-.5v-3.7h4c2.4 0 4.4-2 4.4-4.4V10c0-2.4-2-4.4-4.4-4.4H51.5v-.3c.3-2.9-2.1-5.3-5-5.3z" fill="#666"/><g transform="translate(71 11)"><path d="M1 5.8l-.2-.2V1.4l.2-.2h3.4c.6 0 1.1.5 1.1 1.1v2.6C5.5 5.5 5 6 4.4 6H1v-.2z" fill="#FFF"/><path d="M4.4 1.3c.4 0 .8.4.8.8v2.6c0 .4-.4.8-.8.8H1V1.3h3.4zm0-.5H1l-.5.5v4.2L1 6h3.4c.7 0 1.3-.6 1.3-1.3V2.1c0-.7-.6-1.3-1.3-1.3z" fill="#666"/></g><g transform="translate(19 17)"><path d="M1.4 2.2c-.5 0-.9-.4-.9-.9s.4-1 .9-1h3.5l.2.2v1.4l-.2.2H1.4v.1z" fill="#FFF"/><path d="M4.9.5v1.4H1.4c-.4 0-.7-.3-.7-.7 0-.4.3-.7.7-.7h3.5zm0-.5H1.4C.7 0 .2.5.2 1.2s.5 1.2 1.2 1.2h3.5l.5-.5V.5L4.9 0z" fill="#666"/></g><path d="M52.1 8.1V25h4.2v-4.2h6.5c1.1 0 1.9-.9 1.9-1.9V10c0-1.1-.9-1.9-1.9-1.9H52.1zm7.7 8.5h-3.4v-4.2h3.4c.4 0 .8.4.8.8v2.6c0 .4-.4.8-.8.8zM6.7 22.2H4.2l1.4 4.2h3.8c1.8 0 3.2-1.4 3.2-3.2V8.1H8.4v12.4c0 1-.8 1.7-1.7 1.7zM8.4 4.2h4.2V7H8.4zM31 2.5v12.7h4.2V6.7H38v8.5h4.2V6.7h1.6c.7 0 1.2.5 1.2 1.2v7.3h4.2V5.3c0-1.6-1.3-2.8-2.8-2.8H31zM67.7 8.1V25h4.2v-4.2h6.5c1.1 0 1.9-.9 1.9-1.9V10c0-1.1-.9-1.9-1.9-1.9H67.7zm7.7 8.5H72v-4.2h3.4c.4 0 .8.4.8.8v2.6c0 .4-.4.8-.8.8zM15.4 8.4v4.2h8.5V14h-7c-.8 0-1.5.7-1.5 1.5V21c0 .8.7 1.5 1.5 1.5h11.2V10.3c0-1.1-.9-1.9-1.9-1.9H15.4zM23.9 19h-3.5c-.4 0-.7-.3-.7-.7 0-.4.3-.7.7-.7h3.5V19z" fill="#65B9E7"/><g transform="translate(90 1)"><g transform="translate(1 1)" fill="#666"><path d="M7.8 21.5c-2.6 0-4.5-.8-5.7-2.4C.9 17.5.3 14.9.3 11.4s.6-6.1 1.8-7.8c1.2-1.7 3.2-2.5 5.8-2.5 2 0 3.9.3 5.5.8l.2.3-.5 2.6-.3.2c-1.3-.5-3-.7-4.8-.7-1.5 0-2.5.5-3.1 1.6C4.3 7 4 8.8 4 11.2s.3 4.3 1 5.4c.6 1.1 1.6 1.6 2.8 1.6.9 0 1.8-.1 2.8-.3v-4.1H8.1l-.2-.2v-2.7l.2-.2h5.7l.2.2v9.5l-.2.2c-1.8.6-3.8.9-6 .9z"/><path d="M8 1.3c2 0 3.8.3 5.4.8l-.5 2.6C11.5 4.2 9.9 4 8 4c-1.6 0-2.7.6-3.3 1.7-.6 1.1-1 2.9-1 5.4 0 2.5.3 4.3 1 5.5.7 1.2 1.7 1.7 3.1 1.7 1 0 2-.1 3-.4v-4.6H8v-2.7h5.7v9.5c-1.9.7-3.9 1-6 1-2.5 0-4.3-.8-5.5-2.3C1 17.2.5 14.7.5 11.2s.6-6 1.8-7.6C3.6 2.1 5.5 1.3 8 1.3zm0-.5c-2.7 0-4.7.9-6 2.6C.7 5.1.1 7.7.1 11.3c0 3.6.6 6.2 1.8 7.9 1.2 1.7 3.2 2.5 5.9 2.5 2.2 0 4.3-.3 6.2-1l.3-.5v-9.5l-.5-.5H8.1l-.5.5v2.7l.5.5h2.3v3.7c-.9.2-1.7.3-2.5.3-1.2 0-2-.5-2.6-1.5-.6-1.1-1-2.8-1-5.2 0-2.4.3-4.2.9-5.2.5-1 1.5-1.4 2.9-1.4 1.8 0 3.4.2 4.7.7l.7-.4.5-2.6-.3-.6C12 1.1 10.1.8 8 .8zM21.9 21.6c-4.5 0-6.7-2.6-6.7-7.6 0-2.4.6-4.3 1.7-5.6 1.1-1.3 2.7-1.9 4.6-1.9 2 0 3.5.6 4.6 1.8 1.1 1.2 1.6 2.9 1.7 5.1l-.1 2.2-.2.2H19c.2 1.8 1.2 2.7 2.9 2.7 1.3 0 2.8-.2 4.2-.7l.3.2.6 2.6-.2.3c-.6.2-1.5.4-2.5.6-.8 0-1.7.1-2.4.1zm2.1-8.9c-.1-2-.8-3-2.3-3-.9 0-1.5.2-1.9.7-.4.5-.6 1.2-.7 2.3H24z"/><path d="M21.5 6.7c1.9 0 3.4.6 4.4 1.7 1 1.1 1.6 2.7 1.6 4.9l-.1 2.2h-8.6c.2 2.1 1.2 3.2 3.2 3.2 1.4 0 2.8-.2 4.3-.7l.6 2.6c-.6.2-1.4.4-2.5.6-1 .2-1.8.3-2.5.3-4.3 0-6.5-2.4-6.5-7.3 0-2.4.5-4.2 1.6-5.4 1.1-1.5 2.6-2.1 4.5-2.1zM18.7 13h5.5c0-2.3-.9-3.5-2.6-3.5-.9 0-1.6.3-2.1.8-.4.5-.7 1.4-.8 2.7zm2.8-6.8c-2 0-3.7.7-4.8 2C15.6 9.5 15 11.5 15 14c0 5.2 2.3 7.8 7 7.8.7 0 1.5-.1 2.6-.3 1-.2 1.9-.4 2.5-.6l.3-.6-.6-2.6-.6-.4c-1.5.5-2.9.7-4.2.7-1.5 0-2.4-.7-2.6-2.2h8.1l.5-.5.1-2.2c0-2.3-.6-4.1-1.7-5.3-1.3-1-2.9-1.6-4.9-1.6zm-2.2 6.3c.1-.9.3-1.5.6-1.9.4-.4.9-.6 1.7-.6.8 0 1.9.3 2.1 2.5h-4.4zM35.3 21.6c-4.5 0-6.7-2.6-6.7-7.6 0-2.4.6-4.3 1.7-5.6 1.1-1.3 2.7-1.9 4.6-1.9 2 0 3.5.6 4.6 1.8 1.1 1.2 1.6 2.9 1.7 5.1l-.1 2.2-.2.2h-8.4c.2 1.8 1.2 2.7 2.9 2.7 1.3 0 2.8-.2 4.2-.7l.3.2.6 2.6-.2.3c-.6.2-1.5.4-2.5.6-1 0-1.9.1-2.5.1zm2-8.9c-.1-2-.8-3-2.3-3-.9 0-1.5.2-1.9.7-.4.5-.6 1.2-.7 2.3h4.9z"/><path d="M34.8 6.7c1.9 0 3.4.6 4.4 1.7 1 1.1 1.6 2.7 1.6 4.9l-.1 2.2h-8.6c.2 2.1 1.2 3.2 3.2 3.2 1.4 0 2.8-.2 4.3-.7l.6 2.6c-.6.2-1.4.4-2.5.6-1 .2-1.8.3-2.5.3-4.3 0-6.5-2.4-6.5-7.3 0-2.4.5-4.2 1.6-5.4 1.1-1.5 2.6-2.1 4.5-2.1zM32.1 13h5.5c0-2.3-.9-3.5-2.6-3.5-.9 0-1.6.3-2.1.8s-.8 1.4-.8 2.7zm2.7-6.8c-2 0-3.7.7-4.8 2-1.1 1.3-1.7 3.3-1.7 5.8 0 5.2 2.3 7.8 7 7.8.7 0 1.5-.1 2.6-.3 1-.2 1.9-.4 2.5-.6l.3-.6-.6-2.6-.6-.4c-1.5.5-2.9.7-4.2.7-1.5 0-2.4-.7-2.6-2.2h8.1l.5-.5.1-2.2c0-2.3-.6-4.1-1.7-5.3-1.3-1-2.9-1.6-4.9-1.6zm-2.2 6.3c.1-.9.3-1.5.6-1.9.4-.4.9-.6 1.7-.6.8 0 1.9.3 2.1 2.5h-4.4zM51.8 21.3l-.2-.1c-.9-2-2-4-3.2-5.8l-1.7.2v5.6l-.2.2h-3l-.2-.2V1.5l.2-.2h3l.2.2v11l1.6-.2c1.1-1.4 2-2.9 2.8-4.5l.4-.8.2-.1H55l.2.4c-1.2 2.6-2.6 4.7-4.1 6.5 1.2 1.8 2.5 3.9 3.7 6.2l.6 1.1-.2.4h-3.4v-.2z"/><path d="M46.4 1.3v11.3l2-.2c1.1-1.4 2.1-3 2.9-4.6l.4-.8H55c-1.2 2.6-2.6 4.8-4.1 6.6 1.3 1.8 2.5 3.9 3.8 6.4l.6 1.1h-3.5c-1-2.1-2.1-4.1-3.3-6l-2.1.2v5.8h-3V1.4h3v-.1zm0-.5h-3l-.5.5V21l.5.5h3l.5-.5v-5.3l1.3-.1c1.2 1.8 2.2 3.7 3.1 5.7l.5.3h3.5l.4-.7-.6-1.1c-1.2-2.3-2.4-4.4-3.6-6.1 1.4-1.7 2.8-3.9 4-6.4l-.5-.7h-3.3l-.4.3-.4.8c-.8 1.6-1.7 3-2.7 4.4l-1.2.1V1.5l-.6-.7zM61.5 21.5c-1.7 0-3.6-.3-5.6-1l-.2-.3.7-2.7.3-.2c1.8.6 3.3.9 4.4.9 1.1 0 1.8-.1 2.1-.3.3-.2.5-.4.5-.8s-.1-.7-.4-.9c-.3-.2-1-.4-1.9-.7-2-.5-3.4-1-4.2-1.6-.8-.6-1.3-1.7-1.3-3.1 0-3 1.9-4.5 5.7-4.5 1.6 0 3.4.3 5.5.8l.2.3-.6 2.8-.3.2c-1.9-.5-3.4-.8-4.5-.8-1.3 0-1.8.1-2 .3-.3.1-.4.4-.4.7 0 .4.1.6.4.8.3.2 1.3.5 2.8.9 1.5.4 2.7.9 3.4 1.5.8.6 1.2 1.6 1.2 3 0 3.2-2 4.7-5.8 4.7z"/><path d="M61.6 6.7c1.6 0 3.4.3 5.4.8l-.6 2.8c-2-.6-3.5-.8-4.5-.8-1.1 0-1.8.1-2.1.3-.4.2-.5.5-.5 1s.2.8.5 1c.4.2 1.3.5 2.8.9 1.5.4 2.6.9 3.3 1.4.7.5 1.1 1.5 1.1 2.8 0 3-1.8 4.5-5.5 4.5-1.7 0-3.6-.3-5.5-.9l.7-2.7c1.9.6 3.4.9 4.5.9s1.9-.1 2.2-.3c.4-.2.6-.6.6-1.1 0-.5-.2-.9-.5-1.1-.4-.2-1-.4-2-.7-2-.5-3.3-1-4.1-1.6-.8-.6-1.2-1.5-1.2-2.9-.1-2.9 1.8-4.3 5.4-4.3zm0-.5c-4.9 0-5.9 2.6-5.9 4.7 0 1.5.5 2.6 1.4 3.3.8.6 2.2 1.2 4.3 1.7 1.2.3 1.7.5 1.9.6.1.1.3.2.3.7 0 .4-.2.5-.3.6-.2.1-.7.3-2 .3-1 0-2.5-.3-4.3-.9l-.6.4-.7 2.7.3.6c2 .6 3.9 1 5.7 1 5 0 6-2.7 6-5 0-1.5-.4-2.5-1.3-3.2-.8-.6-1.9-1.1-3.5-1.5-1.8-.5-2.5-.8-2.7-.9-.1-.1-.3-.2-.3-.6 0-.3.1-.4.3-.5.2-.1.6-.2 1.9-.2 1 0 2.5.3 4.4.8l.6-.4.6-2.8-.4-.6c-2.3-.5-4.1-.8-5.7-.8z"/></g><path d="M7.8 21.5c-2.6 0-4.5-.8-5.7-2.4C.9 17.5.3 14.9.3 11.4s.6-6.1 1.8-7.8c1.2-1.7 3.2-2.5 5.8-2.5 2 0 3.9.3 5.5.8l.2.3-.5 2.6-.3.2c-1.3-.5-3-.7-4.8-.7-1.5 0-2.5.5-3.1 1.6C4.3 7 4 8.8 4 11.2s.3 4.3 1 5.4c.6 1.1 1.6 1.6 2.8 1.6.9 0 1.8-.1 2.8-.3v-4.1H8.1l-.2-.2v-2.7l.2-.2h5.7l.2.2v9.5l-.2.2c-1.8.6-3.8.9-6 .9z" fill="#FFF"/><path d="M8 1.3c2 0 3.8.3 5.4.8l-.5 2.6C11.5 4.2 9.9 4 8 4c-1.6 0-2.7.6-3.3 1.7-.6 1.1-1 2.9-1 5.4 0 2.5.3 4.3 1 5.5.7 1.2 1.7 1.7 3.1 1.7 1 0 2-.1 3-.4v-4.6H8v-2.7h5.7v9.5c-1.9.7-3.9 1-6 1-2.5 0-4.3-.8-5.5-2.3C1 17.2.5 14.7.5 11.2s.6-6 1.8-7.6C3.6 2.1 5.5 1.3 8 1.3zm0-.5c-2.7 0-4.7.9-6 2.6C.7 5.1.1 7.7.1 11.3c0 3.6.6 6.2 1.8 7.9 1.2 1.7 3.2 2.5 5.9 2.5 2.2 0 4.3-.3 6.2-1l.3-.5v-9.5l-.5-.5H8.1l-.5.5v2.7l.5.5h2.3v3.7c-.9.2-1.7.3-2.5.3-1.2 0-2-.5-2.6-1.5-.6-1.1-1-2.8-1-5.2 0-2.4.3-4.2.9-5.2.5-1 1.5-1.4 2.9-1.4 1.8 0 3.4.2 4.7.7l.7-.4.5-2.6-.3-.6C12 1.1 10.1.8 8 .8z" fill="#666"/><g transform="translate(15 6)"><path d="M7 15.6C2.5 15.6.3 13 .3 8 .3 5.6.9 3.7 2 2.4 3.1 1.1 4.7.5 6.6.5c2 0 3.5.6 4.6 1.8 1.1 1.2 1.6 2.9 1.7 5.1l-.1 2.2-.2.2H4c.2 1.8 1.2 2.7 2.9 2.7 1.3 0 2.8-.2 4.2-.7l.3.2.6 2.6-.2.3c-.6.2-1.5.4-2.5.6-.8 0-1.7.1-2.3.1zm2-8.8c-.1-2-.8-3-2.3-3-.9 0-1.5.2-1.9.7-.4.5-.6 1.2-.7 2.3H9z" fill="#FFF"/><path d="M6.5.7c1.9 0 3.4.6 4.4 1.7 1 1.1 1.6 2.7 1.6 4.9l-.1 2.2H3.8C4 11.6 5 12.7 7 12.7c1.4 0 2.8-.2 4.3-.7l.6 2.6c-.6.2-1.4.4-2.5.6-1 .2-1.8.3-2.5.3-4.3 0-6.5-2.4-6.5-7.3C.4 5.8.9 4 2 2.8 3.1 1.3 4.6.7 6.5.7zM3.8 7h5.5c0-2.3-.9-3.5-2.6-3.5-.9 0-1.6.3-2.1.8S3.8 5.7 3.8 7zM6.5.2c-2 0-3.7.7-4.8 2C.6 3.5 0 5.5 0 8c0 5.2 2.3 7.8 7 7.8.7 0 1.5-.1 2.6-.3 1-.2 1.9-.4 2.5-.6l.3-.6-.6-2.6-.6-.4c-1.5.5-2.9.7-4.2.7-1.5 0-2.4-.7-2.6-2.2h8.1l.5-.5.1-2.2c0-2.3-.6-4.1-1.7-5.3C10.1.8 8.5.2 6.5.2zM4.3 6.5c.1-.9.3-1.5.6-1.9.4-.4.9-.6 1.7-.6.8 0 1.9.3 2.1 2.5H4.3z" fill="#666"/></g><g transform="translate(28 6)"><path d="M7.3 15.6C2.8 15.6.6 13 .6 8c0-2.4.6-4.3 1.7-5.6C3.4 1.1 5 .5 6.9.5c2 0 3.5.6 4.6 1.8 1.1 1.2 1.6 2.9 1.7 5.1l-.1 2.2-.2.2H4.5c.2 1.8 1.2 2.7 2.9 2.7 1.3 0 2.8-.2 4.2-.7l.3.2.6 2.6-.2.3c-.6.2-1.5.4-2.5.6-1 0-1.9.1-2.5.1zm2-8.8c-.1-2-.8-3-2.3-3-.9 0-1.5.2-1.9.7-.4.5-.6 1.2-.7 2.3h4.9z" fill="#FFF"/><path d="M6.8.7c1.9 0 3.4.6 4.4 1.7 1 1.1 1.6 2.7 1.6 4.9l-.1 2.2H4.1c.2 2.1 1.2 3.2 3.2 3.2 1.4 0 2.8-.2 4.3-.7l.6 2.6c-.6.2-1.4.4-2.5.6-1 .2-1.8.3-2.5.3-4.3 0-6.5-2.4-6.5-7.3 0-2.4.5-4.2 1.6-5.4C3.5 1.3 4.9.7 6.8.7zM4.1 7h5.5c0-2.3-.9-3.5-2.6-3.5-.9 0-1.6.3-2.1.8S4.1 5.7 4.1 7zM6.8.2c-2 0-3.7.7-4.8 2C.9 3.5.3 5.5.3 8c0 5.2 2.3 7.8 7 7.8.7 0 1.5-.1 2.6-.3 1-.2 1.9-.4 2.5-.6l.3-.6-.6-2.6-.6-.4c-1.5.5-2.9.7-4.2.7-1.5 0-2.4-.7-2.6-2.2h8.1l.5-.5.1-2.2c0-2.3-.6-4.1-1.7-5.3C10.5.8 8.9.2 6.8.2zM4.6 6.5c.1-.9.3-1.5.6-1.9.4-.4.9-.6 1.7-.6.8 0 1.9.3 2.1 2.5H4.6z" fill="#666"/></g><g transform="translate(42)"><path d="M9.8 21.3l-.2-.1c-.9-2-2-4-3.2-5.8l-1.7.2v5.6l-.2.2h-3l-.2-.2V1.5l.2-.2h3l.2.2v11l1.6-.2c1.1-1.4 2-2.9 2.8-4.5l.4-.8.2-.1H13l.2.4C12 9.9 10.6 12 9.1 13.8c1.2 1.8 2.5 3.9 3.7 6.2l.6 1.1-.2.4H9.8v-.2z" fill="#FFF"/><path d="M4.4 1.3v11.3l2-.2c1.1-1.4 2.1-3 2.9-4.6l.4-.8H13c-1.2 2.6-2.6 4.8-4.1 6.6 1.3 1.8 2.5 3.9 3.8 6.4l.6 1.1H9.8c-1-2.1-2.1-4.1-3.3-6l-2.1.2v5.8h-3V1.4h3v-.1zm0-.5h-3l-.5.5V21l.5.5h3l.5-.5v-5.3l1.3-.1c1.2 1.8 2.2 3.7 3.1 5.7l.5.3h3.5l.4-.7-.6-1.1c-1.2-2.3-2.4-4.4-3.6-6.1 1.4-1.7 2.8-3.9 4-6.4l-.5-.7H9.7l-.4.3-.4.8c-.8 1.6-1.7 3-2.7 4.4l-1.2.1V1.5L4.4.8z" fill="#666"/></g><g transform="translate(55 6)"><path d="M6.5 15.6c-1.7 0-3.6-.3-5.6-1l-.2-.3.7-2.7.3-.2c1.8.6 3.3.9 4.4.9 1.1 0 1.8-.1 2.1-.3.3-.2.5-.4.5-.8s-.1-.7-.4-.9c-.3-.2-1-.4-1.9-.7-2-.5-3.4-1-4.2-1.6C1.4 7.4.9 6.3.9 4.9.9 1.9 2.8.4 6.6.4c1.6 0 3.4.3 5.5.8l.2.3-.6 2.8-.3.2C9.5 4 8 3.7 6.9 3.7c-1.3 0-1.8.1-2 .3-.3.1-.4.4-.4.7 0 .4.1.6.4.8.3.2 1.3.5 2.8.9 1.5.4 2.7.9 3.4 1.5.8.6 1.2 1.6 1.2 3 0 3.1-2 4.7-5.8 4.7z" fill="#FFF"/><path d="M6.6.7c1.6 0 3.4.3 5.4.8l-.6 2.8c-2-.6-3.5-.8-4.5-.8-1.1 0-1.8.1-2.1.3-.4.2-.5.5-.5 1s.2.8.5 1c.4.2 1.3.5 2.8.9 1.5.4 2.6.9 3.3 1.4.7.5 1.1 1.5 1.1 2.8 0 3-1.8 4.5-5.5 4.5-1.7 0-3.6-.3-5.5-.9l.7-2.7c1.9.6 3.4.9 4.5.9s1.9-.1 2.2-.3c.4-.2.6-.6.6-1.1 0-.5-.2-.9-.5-1.1-.4-.2-1-.4-2-.7-2-.5-3.3-1-4.1-1.6-.8-.6-1.2-1.5-1.2-2.9C1.2 2.1 3 .7 6.6.7zm0-.5C1.7.2.7 2.8.7 4.9c0 1.5.5 2.6 1.4 3.3.8.6 2.2 1.2 4.3 1.7 1.2.3 1.7.5 1.9.6.1.1.3.2.3.7 0 .4-.2.5-.3.6-.2.1-.7.3-2 .3-1 0-2.5-.3-4.3-.9l-.6.4-.7 2.7.3.6c2 .6 3.9 1 5.7 1 5 0 6-2.7 6-5 0-1.5-.4-2.5-1.3-3.2-.8-.6-1.9-1.1-3.5-1.5-1.8-.5-2.5-.8-2.7-.9-.1-.1-.3-.2-.3-.6 0-.3.1-.4.3-.5.2-.1.6-.2 1.9-.2 1 0 2.5.3 4.4.8l.6-.4.6-2.8-.4-.6C10.1.5 8.2.2 6.6.2z" fill="#666"/></g></g></g></svg><svg width="21" height="17" viewBox="-1 -1 21 17" id="twitter" y="163"><path d="M16.57 3.736c.005.16.01.326.01.49C16.58 9.23 12.77 15 5.804 15c-2.14 0-4.13-.627-5.805-1.7.296.035.597.052.904.052 1.773 0 3.406-.606 4.702-1.622-1.657-.028-3.056-1.124-3.537-2.628.23.044.467.067.71.067.347 0 .682-.045 1-.134C2.045 8.69.74 7.158.74 5.323v-.047c.51.282 1.096.454 1.717.473C1.44 5.07.772 3.91.772 2.596c0-.693.187-1.345.513-1.906 1.87 2.295 4.66 3.8 7.805 3.96-.065-.278-.098-.567-.098-.863C8.992 1.697 10.69 0 12.78 0c1.088 0 2.074.46 2.763 1.195.863-.17 1.673-.484 2.405-.918-.282.884-.882 1.627-1.664 2.095.765-.09 1.495-.295 2.174-.596-.506.76-1.15 1.426-1.89 1.96z" fill="#B4B4B4" fill-rule="evenodd"/></svg><svg width="21" height="17" viewBox="-1 -1 21 17" id="twitter-active" y="180"><path d="M16.57 3.736c.005.16.01.326.01.49C16.58 9.23 12.77 15 5.804 15c-2.14 0-4.13-.627-5.805-1.7.296.035.597.052.904.052 1.773 0 3.406-.606 4.702-1.622-1.657-.028-3.056-1.124-3.537-2.628.23.044.467.067.71.067.347 0 .682-.045 1-.134C2.045 8.69.74 7.158.74 5.323v-.047c.51.282 1.096.454 1.717.473C1.44 5.07.772 3.91.772 2.596c0-.693.187-1.345.513-1.906 1.87 2.295 4.66 3.8 7.805 3.96-.065-.278-.098-.567-.098-.863C8.992 1.697 10.69 0 12.78 0c1.088 0 2.074.46 2.763 1.195.863-.17 1.673-.484 2.405-.918-.282.884-.882 1.627-1.664 2.095.765-.09 1.495-.295 2.174-.596-.506.76-1.15 1.426-1.89 1.96z" fill="#65B9E8" fill-rule="evenodd"/></svg></svg>