<?xml version="1.0" encoding="UTF-8" standalone="no"?>
<!-- Created with Inkscape (http://www.inkscape.org/) -->

<svg
   xmlns:dc="http://purl.org/dc/elements/1.1/"
   xmlns:cc="http://creativecommons.org/ns#"
   xmlns:rdf="http://www.w3.org/1999/02/22-rdf-syntax-ns#"
   xmlns:svg="http://www.w3.org/2000/svg"
   xmlns="http://www.w3.org/2000/svg"
   xmlns:sodipodi="http://sodipodi.sourceforge.net/DTD/sodipodi-0.dtd"
   xmlns:inkscape="http://www.inkscape.org/namespaces/inkscape"
   width="211.09491"
   height="45.229897"
   viewBox="0 0 211.0949 45.229899"
   id="svg4800"
   version="1.1"
   inkscape:version="0.91 r13725"
   inkscape:export-filename="/home/benjamin/Desktop/logo_color.png"
   inkscape:export-xdpi="90"
   inkscape:export-ydpi="90"
   sodipodi:docname="logo.svg">
  <defs
     id="defs4802" />
  <sodipodi:namedview
     id="base"
     pagecolor="#ffffff"
     bordercolor="#666666"
     borderopacity="1.0"
     inkscape:pageopacity="0.0"
     inkscape:pageshadow="2"
     inkscape:zoom="5.6"
     inkscape:cx="102.69599"
     inkscape:cy="11.167223"
     inkscape:document-units="px"
     inkscape:current-layer="layer1"
     showgrid="false"
     units="px"
     fit-margin-top="2"
     fit-margin-left="2"
     fit-margin-right="2"
     fit-margin-bottom="2"
     inkscape:window-width="1855"
     inkscape:window-height="1056"
     inkscape:window-x="1985"
     inkscape:window-y="24"
     inkscape:window-maximized="1" />
  <metadata
     id="metadata4805">
    <rdf:RDF>
      <cc:Work
         rdf:about="">
        <dc:format>image/svg+xml</dc:format>
        <dc:type
           rdf:resource="http://purl.org/dc/dcmitype/StillImage" />
        <dc:title></dc:title>
      </cc:Work>
    </rdf:RDF>
  </metadata>
  <g
     inkscape:label="Layer 1"
     inkscape:groupmode="layer"
     id="layer1"
     transform="translate(1.6514454,-1008.7093)">
    <path
       inkscape:connector-curvature="0"
       d="m 14.972546,1018.711 0,28.6836 c 0,3.0151 -1.499465,4.529 -4.500271,4.5446 l -5.6240892,-0.023 -4.49964622,-6.7273 4.49964622,0 c 1.4994651,0 2.2501361,-0.7563 2.2501361,-2.2727 l 0,-24.2058 7.8742241,0 z m 0,-2.2057 -7.8742241,0 0,-5.6242 7.8748491,0 0,5.6242 z m 27.4204,26.4347 -19.124275,0 c -2.998932,0 -4.499646,-1.4989 -4.499646,-4.4997 l 0,-6.7485 c 0,-2.6233 1.500714,-3.9372 4.499646,-3.9372 l 11.248175,0 c 0,-1.4987 -0.748169,-3.2726 -2.248259,-3.2726 l -13.499562,0 0,-5.7267 19.393041,0 c 2.820171,0 4.23088,1.5014 4.23088,4.4997 l 0,19.685 z m -7.8761,-9.8738 -6.74853,0 c -0.748795,0 -1.124443,0.6688 -1.124443,2.0002 0,1.3312 0.187512,1.9975 0.561909,1.9975 l 7.310439,0 0,-3.9977 z m 73.681944,-9.788 0,15.1621 c -0.0156,3.0008 -1.52385,4.4997 -4.52278,4.4997 l -11.226299,0 0,8.9987 -7.874219,0 0,-33.1834 19.123648,0 c 2.99892,0 4.49965,1.5077 4.49965,4.5229 z m -10.12436,2.2257 -5.624719,0 0,10.6869 5.602839,0 c 1.49821,0 2.25764,-0.7493 2.27201,-2.2501 l 0,-6.1635 c -6.3e-4,-1.5164 -0.75067,-2.2733 -2.25013,-2.2733 z m 37.1191,-2.2257 0,15.1621 c -0.0151,3.0008 -1.52259,4.4997 -4.52089,4.4997 l -11.22692,0 0,8.9987 -7.8736,0 0,-33.1834 19.12239,0 c 3.00018,0 4.49902,1.5077 4.49902,4.5229 z m -10.12248,2.2257 -5.62533,0 0,10.6869 5.6022,0 c 1.49884,0 2.25827,-0.7493 2.27326,-2.2501 l 0,-6.1635 c -6.2e-4,-1.5164 -0.75129,-2.2733 -2.25013,-2.2733 z m -48.369789,-14.7946 c 2.983933,0 4.483398,1.5006 4.499648,4.4996 l 0,19.685 -7.874226,0 0,-15.1867 c 0,-1.4994 -0.758795,-2.2495 -2.273263,-2.2495 l -3.35145,0 0,17.4362 -7.873599,0 -0.02313,-17.4362 -5.600337,0 0,17.4362 -7.853598,0 -0.02125,-24.1846 30.371203,0 z"
       id="path4233"
       style="fill:#65b9e8;fill-opacity:1" />
    <text
       xml:space="preserve"
       style="font-style:normal;font-variant:normal;font-weight:normal;font-stretch:normal;font-size:22.96001053px;line-height:125%;font-family:Sawasdee;-inkscape-font-specification:Sawasdee;letter-spacing:0px;word-spacing:0px;fill:#000000;fill-opacity:1;stroke:none;stroke-width:1px;stroke-linecap:butt;stroke-linejoin:miter;stroke-opacity:1"
       x="145.86177"
       y="1041.8674"
       id="text6014"
       sodipodi:linespacing="125%"><tspan
         sodipodi:role="line"
         id="tspan6016"
         x="145.86177"
         y="1041.8674">Nerds</tspan></text>
  </g>
</svg>
