<?xml version="1.0" encoding="UTF-8" standalone="no"?><!DOCTYPE svg PUBLIC "-//W3C//DTD SVG 1.1//EN" "http://www.w3.org/Graphics/SVG/1.1/DTD/svg11.dtd"><svg width="302" height="648" viewBox="0 0 302 648" xmlns="http://www.w3.org/2000/svg" xmlns:xlink="http://www.w3.org/1999/xlink"><svg width="18" height="25" viewBox="-1 -1 18 25" id="icon-BackTop"><path d="M15.5 7.2L9 .7C8.9.6 8.8.5 8.7.5c-.2-.1-.5-.1-.8 0-.1.1-.2.1-.3.2L1.1 7.2c-.4.4-.4 1 0 1.4.2.2.5.3.7.3.2 0 .5-.1.7-.3l4.8-4.8v17.6c0 .6.4 1 1 1s1-.4 1-1V3.8l4.8 4.8c.2.2.5.3.7.3.2 0 .5-.1.7-.3.4-.4.4-1 0-1.4z" fill="#9AB2BF" fill-rule="evenodd"/></svg><svg width="23" height="23" viewBox="-1 -1 23 23" id="icon-fb_fill" y="25"><path d="M10.6.4C5.1.4.6 4.9.6 10.4s4.5 10 10 10 10-4.5 10-10c0-5.6-4.5-10-10-10zm2.2 8.3l-.1 1.5h-1.5v5.2H9.3v-5.2h-1V8.7h1v-1c0-.4 0-1.1.3-1.5.3-.4.8-.8 1.6-.8 1.3 0 1.9.2 1.9.2l-.3 1.5S12.4 7 12 7s-.8.1-.8.5v1.2h1.6z" fill="#9AB2BF" fill-rule="evenodd"/></svg><svg width="23" height="23" viewBox="-1 -1 23 23" id="icon-fb_fill-alt" y="48"><path d="M10.6.4C5.1.4.6 4.9.6 10.4s4.5 10 10 10 10-4.5 10-10c0-5.6-4.5-10-10-10zm2.2 8.3l-.1 1.5h-1.5v5.2H9.3v-5.2h-1V8.7h1v-1c0-.4 0-1.1.3-1.5.3-.4.8-.8 1.6-.8 1.3 0 1.9.2 1.9.2l-.3 1.5S12.4 7 12 7s-.8.1-.8.5v1.2h1.6z" fill="#FF9D00" fill-rule="evenodd"/></svg><svg width="30" height="30" viewBox="-1 -1 30 30" id="icon-fb_fill_big" y="71"><path d="M14.133.533C6.8.533.8 6.533.8 13.867.8 21.2 6.8 27.2 14.133 27.2c7.334 0 13.334-6 13.334-13.333 0-7.467-6-13.334-13.334-13.334zM17.067 11.6l-.134 2h-2v6.933H12.4V13.6h-1.333v-2H12.4v-1.333c0-.534 0-1.467.4-2 .4-.534 1.067-1.067 2.133-1.067 1.734 0 2.534.267 2.534.267l-.4 2s-.534-.134-1.067-.134c-.533 0-1.067.134-1.067.667v1.6h2.134z" fill="#9AB2BF" fill-rule="evenodd"/></svg><svg width="30" height="30" viewBox="-1 -1 30 30" id="icon-fb_stroke" y="101"><g fill="#9AB2BF" fill-rule="evenodd"><path d="M14.112 1.568c6.832 0 12.32 5.488 12.32 12.32s-5.488 12.32-12.32 12.32-12.32-5.488-12.32-12.32 5.488-12.32 12.32-12.32zm0-1.12C6.72.448.672 6.496.672 13.888c0 7.392 6.048 13.44 13.44 13.44 7.392 0 13.44-6.048 13.44-13.44 0-7.504-6.048-13.44-13.44-13.44z"/><path d="M17.024 11.648l-.112 2.016h-2.016v6.944H12.32v-6.944h-1.344v-2.016h1.344v-1.344c0-.56 0-1.456.448-2.016s1.12-1.12 2.128-1.12c1.792 0 2.576.224 2.576.224l-.448 2.016s-.56-.112-1.12-.112-1.12.112-1.12.672v1.568l2.24.112z"/></g></svg><svg width="23" height="23" viewBox="-1 -1 23 23" id="icon-in_fill" y="131"><path d="M10.6.4C5.1.4.6 4.9.6 10.4s4.5 10 10 10 10-4.5 10-10-4.5-10-10-10zM7.8 14.6H5.9V8.4h1.9v6.2zM6.7 7.5C6 7.5 5.5 7 5.5 6.4c0-.6.5-1.1 1.2-1.1s1.2.5 1.2 1.1c0 .7-.4 1.1-1.2 1.1zm8.9 7.1h-2.2v-3.2c0-.8-.3-1.4-1.1-1.4-.6 0-.9.4-1.1.8-.1.1 0 .3 0 .5v3.4H9V8.5h2.2v1c.1-.4.8-1 1.9-1 1.4 0 2.5.9 2.5 2.8v3.3z" fill="#9AB2BF" fill-rule="evenodd"/></svg><svg width="23" height="23" viewBox="-1 -1 23 23" id="icon-in_fill-alt" y="154"><path d="M10.6.4C5.1.4.6 4.9.6 10.4s4.5 10 10 10 10-4.5 10-10-4.5-10-10-10zM7.8 14.6H5.9V8.4h1.9v6.2zM6.7 7.5C6 7.5 5.5 7 5.5 6.4c0-.6.5-1.1 1.2-1.1s1.2.5 1.2 1.1c0 .7-.4 1.1-1.2 1.1zm8.9 7.1h-2.2v-3.2c0-.8-.3-1.4-1.1-1.4-.6 0-.9.4-1.1.8-.1.1 0 .3 0 .5v3.4H9V8.5h2.2v1c.1-.4.8-1 1.9-1 1.4 0 2.5.9 2.5 2.8v3.3z" fill="#FF9D00" fill-rule="evenodd"/></svg><svg width="30" height="30" viewBox="-1 -1 30 30" id="icon-in_fill_big" y="177"><path d="M14.133.533C6.8.533.8 6.533.8 13.867.8 21.2 6.8 27.2 14.133 27.2c7.334 0 13.334-6 13.334-13.333 0-7.334-6-13.334-13.334-13.334zM10.4 19.467H7.867V11.2H10.4v8.267zM8.933 10c-.933 0-1.6-.667-1.6-1.467S8 7.067 8.933 7.067c.934 0 1.6.666 1.6 1.466 0 .934-.533 1.467-1.6 1.467zM20.8 19.467h-2.933V15.2c0-1.067-.4-1.867-1.467-1.867-.8 0-1.2.534-1.467 1.067-.133.133 0 .4 0 .667V19.6H12v-8.267h2.933v1.334c.134-.534 1.067-1.334 2.534-1.334 1.866 0 3.333 1.2 3.333 3.734v4.4z" fill="#9AB2BF" fill-rule="evenodd"/></svg><svg width="30" height="30" viewBox="-1 -1 30 30" id="icon-in_stroke" y="207"><g fill="#9AB2BF" fill-rule="evenodd"><path d="M14.112 1.568c6.832 0 12.32 5.488 12.32 12.32s-5.488 12.32-12.32 12.32-12.32-5.488-12.32-12.32 5.488-12.32 12.32-12.32zm0-1.12C6.72.448.672 6.496.672 13.888c0 7.392 6.048 13.44 13.44 13.44 7.392 0 13.44-6.048 13.44-13.44 0-7.392-6.048-13.44-13.44-13.44z"/><path d="M7.84 11.2h2.576v8.288H7.84zM8.848 9.968c-.896 0-1.568-.672-1.568-1.456 0-.784.672-1.456 1.568-1.456s1.568.672 1.568 1.456c.112.896-.448 1.456-1.568 1.456zM20.832 19.488H17.92v-4.256c0-1.12-.448-1.904-1.456-1.904-.784 0-1.232.56-1.456 1.12-.112.112 0 .448 0 .672v4.592h-2.912v-8.288h2.912v1.344c.112-.56 1.12-1.344 2.576-1.344 1.904 0 3.36 1.232 3.36 3.808v4.256h-.112z"/></g></svg><svg width="102" height="102" viewBox="-1 -1 102 102" id="icon-play" y="237"><path d="M50 0C22.386 0 0 22.386 0 50s22.386 50 50 50 50-22.386 50-50S77.614 0 50 0zm0 90.625C27.563 90.625 9.375 72.437 9.375 50S27.563 9.375 50 9.375 90.625 27.563 90.625 50 72.437 90.625 50 90.625zm-12.5-62.5L75 50 37.5 71.875v-43.75z" fill="#FFF" fill-rule="evenodd"/></svg><svg width="20" height="20" viewBox="-1 -1 20 20" id="icon-search" y="339"><defs><circle id="ka" cx="478.5" cy="278.5" r="6.5"/></defs><clipPath id="kb"><use xlink:href="#ka" overflow="visible"/></clipPath><path clip-path="url(#kb)" fill="#FFF" d="M478.5 287c-4.7 0-8.5-3.8-8.5-8.5s3.8-8.5 8.5-8.5 8.5 3.8 8.5 8.5-3.8 8.5-8.5 8.5zm0-13c-2.5 0-4.5 2-4.5 4.5s2 4.5 4.5 4.5 4.5-2 4.5-4.5-2-4.5-4.5-4.5z"/><path fill="#FFF" d="M487 288c-.3 0-.5-.1-.7-.3l-4.2-4.2c-.4-.4-.4-1 0-1.4s1-.4 1.4 0l4.2 4.2c.4.4.4 1 0 1.4-.2.2-.4.3-.7.3z"/></svg><svg width="22" height="22" viewBox="-1 -1 22 22" id="icon-tw_fill" y="359"><path d="M10 0C4.5 0 0 4.5 0 10s4.5 10 10 10 10-4.5 10-10S15.5 0 10 0zm4 8.4v.3c0 2.7-2.1 5.8-5.8 5.8-1.2 0-2.2-.3-3.2-.9h.5c1 0 1.8-.3 2.6-.9-.9 0-1.7-.6-1.9-1.4h.4c.2 0 .4 0 .5-.1-.9-.2-1.6-1-1.6-2 .3.2.6.2.9.3-.6-.4-.9-1-.9-1.7 0-.4.1-.7.3-1C6.8 8 8.3 8.9 10 8.9c0-.2-.1-.3-.1-.5 0-1.1.9-2.1 2.1-2.1.6 0 1.1.2 1.5.6.5-.1.9-.3 1.3-.5-.2.5-.5.9-.9 1.1.4 0 .8-.2 1.2-.3-.4.6-.7 1-1.1 1.2z" fill="#9AB2BF" fill-rule="evenodd"/></svg><svg width="22" height="22" viewBox="-1 -1 22 22" id="icon-tw_fill-alt" y="381"><path d="M0 10c0 5.5 4.5 10 10 10s10-4.5 10-10S15.5 0 10 0 0 4.5 0 10zm14-1.6v.3c0 2.7-2.1 5.8-5.8 5.8-1.2 0-2.2-.3-3.2-.9h.5c1 0 1.8-.3 2.6-.9-.9 0-1.7-.6-1.9-1.4h.4c.2 0 .4 0 .5-.1-.9-.2-1.6-1-1.6-2 .3.2.6.2.9.3-.6-.4-.9-1-.9-1.7 0-.4.1-.7.3-1C6.8 8 8.3 8.9 10 8.9c0-.2-.1-.3-.1-.5 0-1.1.9-2.1 2.1-2.1.6 0 1.1.2 1.5.6.5-.1.9-.3 1.3-.5-.2.5-.5.9-.9 1.1.4 0 .8-.2 1.2-.3-.4.6-.7 1-1.1 1.2z" fill="#FF9D00" fill-rule="evenodd"/></svg><svg width="30" height="30" viewBox="-1 -1 30 30" id="icon-tw_fill_big" y="403"><path d="M14 0C6.3 0 0 6.3 0 14s6.3 14 14 14 14-6.3 14-14S21.7 0 14 0zm5.6 11.76v.42c0 3.78-2.94 8.12-8.12 8.12-1.68 0-3.08-.42-4.48-1.26h.7c1.4 0 2.52-.42 3.64-1.26-1.26 0-2.38-.84-2.66-1.96h.56c.28 0 .56 0 .7-.14-1.26-.28-2.24-1.4-2.24-2.8.42.28.84.28 1.26.42-.84-.56-1.26-1.4-1.26-2.38 0-.56.14-.98.42-1.4 1.4 1.68 3.5 2.94 5.88 2.94 0-.28-.14-.42-.14-.7 0-1.54 1.26-2.94 2.94-2.94.84 0 1.54.28 2.1.84.7-.14 1.26-.42 1.82-.7-.28.7-.7 1.26-1.26 1.54.56 0 1.12-.28 1.68-.42-.56.84-.98 1.4-1.54 1.68z" fill="#9AB2BF" fill-rule="evenodd"/></svg><svg width="30" height="30" viewBox="-1 -1 30 30" id="icon-tw_stroke" y="433"><g fill="#9AB2BF" fill-rule="evenodd"><path d="M14 1.167c7.117 0 12.833 5.716 12.833 12.833S21.117 26.833 14 26.833 1.167 21.117 1.167 14 6.883 1.167 14 1.167zM14 0C6.3 0 0 6.3 0 14s6.3 14 14 14 14-6.3 14-14S21.7 0 14 0z"/><path d="M19.6 11.783v.467c0 3.733-2.917 8.167-8.167 8.167C9.8 20.417 8.4 19.95 7 19.133h.7c1.4 0 2.567-.466 3.617-1.283-1.284 0-2.334-.817-2.684-1.983h.584c.233 0 .583 0 .7-.117-1.284-.233-2.217-1.4-2.217-2.8.467.233.817.233 1.283.467-.816-.584-1.283-1.4-1.283-2.334 0-.583.117-.933.467-1.4 1.4 1.634 3.5 2.917 5.833 2.917 0-.233-.117-.467-.117-.7 0-1.517 1.284-2.917 2.917-2.917.817 0 1.517.234 2.1.817.7-.117 1.283-.467 1.867-.7-.234.7-.7 1.283-1.284 1.517.584 0 1.167-.234 1.634-.467-.584.817-.934 1.283-1.517 1.633z"/></g></svg><svg viewBox="-1 -1 32 20" width="32" height="20" id="icon_hamburger-menu" y="463"><path fill="#FFF" d="M0 0h30v2H0zM0 8h30v2H0zM0 16h30v2H0z"/></svg><svg width="302" height="54" viewBox="-1 -1 302 54" id="logo" y="483"><g fill="#FFF" fill-rule="evenodd"><path d="M276.264 12C273.91 12 272 13.892 272 16.226v16.1c0 2.334 1.91 4.227 4.264 4.227h14.403v3.56H278.31V49h17.426c2.355 0 4.264-1.892 4.264-4.227V12h-23.736zm6.848 16.823c-.982 0-1.78-.79-1.78-1.763v-4.157c0-.974.798-1.763 1.78-1.763h7.555v7.683h-7.555zM263.735 12h-19.47c-2.356 0-4.265 1.91-4.265 4.264v19.472c0 2.355 1.91 4.264 4.264 4.264h19.47c2.357 0 4.266-1.91 4.266-4.264V16.264c0-2.355-1.91-4.264-4.265-4.264zm-5.07 16.888c0 .982-.795 1.778-1.777 1.778h-5.776c-.982 0-1.78-.796-1.78-1.778v-5.776c0-.982.798-1.78 1.78-1.78h5.776c.982 0 1.778.798 1.778 1.78v5.776zM214.736 40c2.355 0 4.264-1.883 4.264-4.206V16.59c0-2.32-1.91-4.204-4.264-4.204h-14.403V0H191v40h23.736zm-5.07-16.656v5.697c0 .97-.796 1.755-1.778 1.755h-7.555V21.59h7.555c.982 0 1.78.786 1.78 1.754zM233 40h-4.744c-2.35 0-4.256-1.953-4.256-4.363V0h9v40M103 12v37h9.333v-9.25h14.402c2.356 0 4.265-1.892 4.265-4.226V16.226c0-2.334-1.91-4.226-4.265-4.226H103zm16.888 18.5h-7.555v-9.25h7.555c.982 0 1.778.79 1.778 1.762v5.726c0 .973-.796 1.762-1.778 1.762zM5.418 42.77H0L3 52h8.17c3.772 0 6.83-3.136 6.83-7.006V12H9v27.096c0 2.03-1.604 3.673-3.582 3.673M9 4h9v6H9V4zM58 0v28h9.23V9.333h6.154V28h9.23V9.333h3.535c1.446 0 2.62 1.187 2.62 2.65V28H98V6.232C98 2.79 95.24 0 91.836 0H58M137 12v37h9.333v-9.25h14.403c2.355 0 4.264-1.892 4.264-4.226V16.226c0-2.334-1.91-4.226-4.264-4.226H137zm16.888 18.5h-7.555v-9.25h7.555c.982 0 1.78.79 1.78 1.762v5.726c0 .973-.798 1.762-1.78 1.762zM24 13v9.3h18.667v3.1H27.273C25.465 25.4 24 26.86 24 28.66V40.74C24 42.54 25.465 44 27.273 44H52V17.25C52 14.9 50.09 13 47.736 13H24zm18.667 23.25h-7.794c-.85 0-1.54-.687-1.54-1.535v-.03c0-.848.69-1.535 1.54-1.535h7.794v3.1z"/></g></svg><svg width="142" height="27" viewBox="-1 -1 142 27" id="logo-blue" y="537"><g fill="#65B9E8" fill-rule="evenodd"><path d="M128.923 5.62c-1.1 0-1.99.885-1.99 1.978v7.538c0 1.093.89 1.98 1.99 1.98h6.72v1.667h-5.765v4.16h8.132c1.1 0 1.99-.886 1.99-1.98V5.62h-11.077zm3.196 7.876c-.46 0-.83-.37-.83-.826v-1.946c0-.456.37-.826.83-.826h3.524v3.598h-3.525zM123.077 5.62h-9.087c-1.1 0-1.99.893-1.99 1.995v9.117c0 1.103.89 1.997 1.99 1.997h9.087c1.1 0 1.99-.895 1.99-1.998V7.615c0-1.102-.89-1.996-1.99-1.996zm-2.366 7.906c0 .46-.37.833-.83.833h-2.695c-.458 0-.83-.374-.83-.834V10.82c0-.458.372-.83.83-.83h2.696c.46 0 .83.372.83.83v2.706zM100.21 18.73c1.1 0 1.99-.883 1.99-1.97V7.768c0-1.087-.89-1.97-1.99-1.97h-6.72V0h-4.357v18.73h11.077zm-2.365-7.8v2.668c0 .454-.372.82-.83.82H93.49v-4.31h3.525c.458 0 .83.37.83.822zM108.733 18.73h-2.214c-1.098 0-1.987-.915-1.987-2.044V0h4.2v18.73M48.067 5.62v17.323h4.355v-4.33h6.72c1.1 0 1.99-.887 1.99-1.98V7.598c0-1.093-.89-1.98-1.99-1.98H48.068zm7.88 8.66h-3.525V9.95h3.526c.458 0 .83.37.83.825v2.68c0 .457-.372.826-.83.826zM2.528 20.026H0l1.4 4.322h3.812c1.76 0 3.188-1.47 3.188-3.28V5.618H4.2v12.688c0 .95-.748 1.72-1.672 1.72M4.2 1.873h4.2v2.81H4.2v-2.81zM27.067 0v13.11h4.307V4.37h2.872v8.74h4.308V4.37h1.65c.674 0 1.222.556 1.222 1.24v7.5h4.307V2.918c0-1.61-1.288-2.918-2.876-2.918h-15.79M63.933 5.62v17.323h4.356v-4.33h6.72c1.1 0 1.99-.887 1.99-1.98V7.598c0-1.093-.89-1.98-1.99-1.98H63.933zm7.882 8.66H68.29V9.95h3.525c.458 0 .83.37.83.825v2.68c0 .457-.372.826-.83.826zM11.2 6.087v4.354h8.71v1.453H12.73c-.844 0-1.528.684-1.528 1.527v5.655c0 .843.684 1.527 1.528 1.527h11.54V8.076c0-1.098-.892-1.99-1.99-1.99H11.2zm8.71 10.886h-3.636c-.397 0-.72-.32-.72-.718v-.015c0-.397.323-.718.72-.718h3.637v1.45z"/></g></svg><svg width="142" height="27" viewBox="-1 -1 142 27" id="logo-white" y="564"><g fill="#EBF7F8" fill-rule="evenodd"><path d="M128.923 5.62c-1.1 0-1.99.885-1.99 1.978v7.538c0 1.093.89 1.98 1.99 1.98h6.72v1.667h-5.765v4.16h8.132c1.1 0 1.99-.886 1.99-1.98V5.62h-11.077zm3.196 7.876c-.46 0-.83-.37-.83-.826v-1.946c0-.456.37-.826.83-.826h3.524v3.598h-3.525zM123.077 5.62h-9.087c-1.1 0-1.99.893-1.99 1.995v9.117c0 1.103.89 1.997 1.99 1.997h9.087c1.1 0 1.99-.895 1.99-1.998V7.615c0-1.102-.89-1.996-1.99-1.996zm-2.366 7.906c0 .46-.37.833-.83.833h-2.695c-.458 0-.83-.374-.83-.834V10.82c0-.458.372-.83.83-.83h2.696c.46 0 .83.372.83.83v2.706zM100.21 18.73c1.1 0 1.99-.883 1.99-1.97V7.768c0-1.087-.89-1.97-1.99-1.97h-6.72V0h-4.357v18.73h11.077zm-2.365-7.8v2.668c0 .454-.372.82-.83.82H93.49v-4.31h3.525c.458 0 .83.37.83.822zM108.733 18.73h-2.214c-1.098 0-1.987-.915-1.987-2.044V0h4.2v18.73M48.067 5.62v17.323h4.355v-4.33h6.72c1.1 0 1.99-.887 1.99-1.98V7.598c0-1.093-.89-1.98-1.99-1.98H48.068zm7.88 8.66h-3.525V9.95h3.526c.458 0 .83.37.83.825v2.68c0 .457-.372.826-.83.826zM2.528 20.026H0l1.4 4.322h3.812c1.76 0 3.188-1.47 3.188-3.28V5.618H4.2v12.688c0 .95-.748 1.72-1.672 1.72M4.2 1.873h4.2v2.81H4.2v-2.81zM27.067 0v13.11h4.307V4.37h2.872v8.74h4.308V4.37h1.65c.674 0 1.222.556 1.222 1.24v7.5h4.307V2.918c0-1.61-1.288-2.918-2.876-2.918h-15.79M63.933 5.62v17.323h4.356v-4.33h6.72c1.1 0 1.99-.887 1.99-1.98V7.598c0-1.093-.89-1.98-1.99-1.98H63.933zm7.882 8.66H68.29V9.95h3.525c.458 0 .83.37.83.825v2.68c0 .457-.372.826-.83.826zM11.2 6.087v4.354h8.71v1.453H12.73c-.844 0-1.528.684-1.528 1.527v5.655c0 .843.684 1.527 1.528 1.527h11.54V8.076c0-1.098-.892-1.99-1.99-1.99H11.2zm8.71 10.886h-3.636c-.397 0-.72-.32-.72-.718v-.015c0-.397.323-.718.72-.718h3.637v1.45z"/></g></svg><svg width="176" height="32" viewBox="-1 -1 176 32" id="logo-white-small" y="591"><g transform="translate(.387)" fill="#FFF" fill-rule="evenodd"><path d="M159.52 6.923c-1.36 0-2.462 1.092-2.462 2.438v9.29c0 1.346 1.103 2.438 2.462 2.438h8.317v2.055h-7.135v5.126h10.062c1.36 0 2.462-1.093 2.462-2.44V6.924H159.52zm3.954 9.706c-.567 0-1.027-.457-1.027-1.018v-2.4c0-.56.46-1.016 1.027-1.016h4.363v4.433h-4.363zM152.286 6.923h-11.243c-1.36 0-2.462 1.102-2.462 2.46v11.234c0 1.358 1.103 2.46 2.463 2.46h11.243c1.36 0 2.462-1.102 2.462-2.46V9.383c0-1.358-1.102-2.46-2.462-2.46zm-2.927 9.743c0 .567-.46 1.026-1.028 1.026h-3.335c-.567 0-1.027-.46-1.027-1.026v-3.332c0-.567.46-1.026 1.027-1.026h3.335c.567 0 1.027.46 1.027 1.026v3.332zM123.993 23.077c1.36 0 2.462-1.086 2.462-2.426V9.573c0-1.34-1.103-2.426-2.462-2.426h-8.317V0h-5.39v23.077h13.707zm-2.927-9.61v3.288c0 .56-.46 1.01-1.027 1.01h-4.364v-5.31h4.363c.566 0 1.026.454 1.026 1.013zM134.54 23.077h-2.74c-1.358 0-2.458-1.127-2.458-2.517V0h5.197v23.077M59.474 6.923V28.27h5.39v-5.337h8.315c1.36 0 2.462-1.092 2.462-2.438V9.36c0-1.345-1.103-2.437-2.463-2.437H59.473zm9.752 10.673h-4.363V12.26h4.363c.567 0 1.027.455 1.027 1.016v3.303c0 .56-.46 1.016-1.027 1.016zM3.128 24.675H0L1.732 30H6.45c2.178 0 3.944-1.81 3.944-4.042V6.923H5.197v15.632c0 1.17-.926 2.12-2.07 2.12M5.197 2.308h5.197v3.46H5.197V2.31zM33.49 0v16.154h5.33V5.384h3.554v10.77h5.33V5.384h2.04c.836 0 1.513.685 1.513 1.53v9.24h5.33V3.596C56.587 1.61 54.994 0 53.027 0H33.49M79.106 6.923V28.27h5.39v-5.337h8.316c1.36 0 2.462-1.092 2.462-2.438V9.36c0-1.345-1.102-2.437-2.462-2.437H79.106zm9.752 10.673h-4.362V12.26h4.362c.567 0 1.027.455 1.027 1.016v3.303c0 .56-.46 1.016-1.027 1.016zM13.858 7.5v5.365h10.78v1.79h-8.89c-1.044 0-1.89.84-1.89 1.88v6.968c0 1.04.846 1.882 1.89 1.882h14.278V9.95c0-1.352-1.103-2.45-2.462-2.45H13.858zm10.78 13.413h-4.5c-.492 0-.89-.396-.89-.885v-.018c0-.49.398-.885.89-.885h4.5v1.788z"/></g></svg><svg width="132" height="25" viewBox="-1 -1 132 25" id="logo-white-tiny" y="623"><g fill="#FFF" fill-rule="evenodd"><path d="M119.715 5.196c-1.02 0-1.848.82-1.848 1.83v6.97c0 1.01.827 1.83 1.848 1.83h6.24v1.542h-5.354v3.847h7.552c1.02 0 1.848-.82 1.848-1.83V5.195h-10.285zm2.967 7.283c-.426 0-.77-.342-.77-.764v-1.8c0-.42.344-.763.77-.763h3.274v3.326h-3.274zM114.285 5.196h-8.437c-1.02 0-1.848.826-1.848 1.846v8.43c0 1.02.827 1.846 1.848 1.846h8.437c1.02 0 1.848-.826 1.848-1.846v-8.43c0-1.02-.827-1.846-1.848-1.846zm-2.196 7.312c0 .425-.346.77-.772.77h-2.503c-.426 0-.77-.345-.77-.77v-2.502c0-.425.344-.77.77-.77h2.503c.426 0 .77.345.77.77v2.502zM93.052 17.318c1.02 0 1.848-.815 1.848-1.82V7.183c0-1.005-.827-1.82-1.848-1.82h-6.24V0h-4.045v17.318h10.285zm-2.196-7.21v2.466c0 .42-.345.76-.77.76H86.81V9.347h3.275c.426 0 .77.34.77.76zM100.967 17.318H98.91c-1.018 0-1.843-.845-1.843-1.89V0h3.9v17.318M44.633 5.196v16.02h4.045V17.21h6.24c1.02 0 1.85-.82 1.85-1.83V7.025c0-1.01-.83-1.83-1.85-1.83H44.634zm7.32 8.01h-3.275V9.2h3.274c.425 0 .77.342.77.763v2.48c0 .42-.345.762-.77.762zM2.348 18.517H0l1.3 3.997h3.54c1.635 0 2.96-1.358 2.96-3.033V5.197H3.9v11.73c0 .88-.695 1.59-1.552 1.59M3.9 1.732h3.9V4.33H3.9V1.732zM25.133 0v12.123h4V4.04H31.8v8.083h4V4.04h1.53c.628 0 1.137.515 1.137 1.148v6.935h4V2.698c0-1.49-1.196-2.698-2.67-2.698H25.132M59.367 5.196v16.02h4.044V17.21h6.242c1.02 0 1.848-.82 1.848-1.83V7.025c0-1.01-.827-1.83-1.848-1.83H59.367zm7.318 8.01H63.41V9.2h3.275c.426 0 .77.342.77.763v2.48c0 .42-.344.762-.77.762zM10.4 5.628v4.027h8.09v1.342h-6.672c-.783 0-1.418.632-1.418 1.412v5.228c0 .78.635 1.412 1.418 1.412h10.715V7.468c0-1.016-.827-1.84-1.847-1.84H10.4zm8.09 10.067H15.11c-.37 0-.668-.298-.668-.665v-.013c0-.367.3-.664.668-.664h3.377v1.342z"/></g></svg></svg>