<svg width="304" height="509" viewBox="0 0 304 509" xmlns="http://www.w3.org/2000/svg"><title>Untitled</title><g fill="none" fill-rule="evenodd"><path d="M9.4 5.6l-.2 2.5H6.6v8.8H3.3V8.1H1.5V5.6h1.8V3.9c0-.8 0-1.9.6-2.6C4.5.5 5.3 0 6.6 0c2.2 0 3.2.3 3.2.3l-.4 2.6s-.7-.2-1.4-.2-1.3.2-1.3.9v2h2.7z" fill="#B4B4B4" fill-rule="nonzero"/><path d="M9.4 24.6l-.2 2.5H6.6v8.8H3.3v-8.8H1.5v-2.5h1.8v-1.7c0-.8 0-1.9.6-2.6.6-.8 1.4-1.3 2.7-1.3 2.2 0 3.2.3 3.2.3l-.4 2.6s-.7-.2-1.4-.2-1.3.2-1.3.9v2h2.7z" fill="#3A579D" fill-rule="nonzero"/><path d="M8.9 43.6l-.2 2.5H6.1v8.8H2.8v-8.8H1v-2.5h1.8v-1.7c0-.8 0-1.9.6-2.6.6-.8 1.4-1.3 2.7-1.3 2.2 0 3.2.3 3.2.3l-.4 2.6s-.7-.2-1.4-.2-1.3.2-1.3.9v2h2.7z" fill="#FF633D" fill-rule="nonzero"/><path d="M8.9 62.6l-.2 2.5H6.1v8.8H2.8v-8.8H1v-2.5h1.8v-1.7c0-.8 0-1.9.6-2.6.6-.8 1.4-1.3 2.7-1.3 2.2 0 3.2.3 3.2.3l-.4 2.6s-.7-.2-1.4-.2-1.3.2-1.3.9v2h2.7z" fill="#3A579D" fill-rule="nonzero"/><path d="M9 76c-4.4 0-8 3.6-8 8 0 3.5 2.3 6.5 5.5 7.6.4.1.6-.2.6-.4v-1.5c-2 .4-2.5-.5-2.7-.9-.1-.2-.5-.9-.8-1.1-.3-.1-.7-.5 0-.5.6 0 1.1.6 1.2.8.7 1.2 1.9.9 2.3.7.1-.5.3-.9.5-1.1-1.8-.2-3.6-.9-3.6-4 0-.9.3-1.6.8-2.1-.1-.2-.4-1 .1-2.1 0 0 .7-.2 2.2.8.6-.2 1.3-.3 2-.3s1.4.1 2 .3c1.5-1 2.2-.8 2.2-.8.4 1.1.2 1.9.1 2.1.5.6.8 1.3.8 2.1 0 3.1-1.9 3.8-3.7 4 .3.2.5.7.5 1.5v2.2c0 .2.2.5.5.4 3.3-1.1 5.4-4.2 5.5-7.6 0-4.5-3.6-8.1-8-8.1z" fill="#B4B4B4" fill-rule="nonzero"/><path d="M9 94c-4.4 0-8 3.6-8 8 0 3.5 2.3 6.5 5.5 7.6.4.1.6-.2.6-.4v-1.5c-2 .4-2.5-.5-2.7-.9-.1-.2-.5-.9-.8-1.1-.3-.1-.7-.5 0-.5.6 0 1.1.6 1.2.8.7 1.2 1.9.9 2.3.7.1-.5.3-.9.5-1.1-1.8-.2-3.6-.9-3.6-4 0-.9.3-1.6.8-2.1-.1-.2-.4-1 .1-2.1 0 0 .7-.2 2.2.8.6-.2 1.3-.3 2-.3s1.4.1 2 .3c1.5-1 2.2-.8 2.2-.8.4 1.1.2 1.9.1 2.1.5.6.8 1.3.8 2.1 0 3.1-1.9 3.8-3.7 4 .3.2.5.7.5 1.5v2.2c0 .2.2.5.5.4 3.3-1.1 5.4-4.2 5.5-7.6 0-4.5-3.6-8.1-8-8.1z" fill="#111" fill-rule="nonzero"/><path d="M3 116c-1.1 0-2-.9-2-2s.9-2 2-2 2 .9 2 2-.9 2-2 2zm0 7c-1.1 0-2-.9-2-2s.9-2 2-2 2 .9 2 2-.9 2-2 2zm0 3c1.1 0 2 .9 2 2s-.9 2-2 2-2-.9-2-2 .9-2 2-2zM10 146h5v1h-5v-1zm0-6h5v1h-5v-1zm5 1h1v5h-1v-5zm-6 0h1v5H9v-5zm-7 5h5v1H2v-1zm0-6h5v1H2v-1zm5 1h1v5H7v-5zm-6 0h1v5H1v-5zm9-3h5v1h-5v-1zm0-6h5v1h-5v-1zm5 1h1v5h-1v-5zm-6 0h1v5H9v-5zm-7 5h5v1H2v-1zm0-6h5v1H2v-1zm5 1h1v5H7v-5zm-6 0h1v5H1v-5z" fill="#36355B" fill-rule="nonzero"/><path d="M51 149c-27.6 0-50 22.4-50 50s22.4 50 50 50 50-22.4 50-50-22.4-50-50-50zm0 90.6c-22.4 0-40.6-18.2-40.6-40.6 0-22.4 18.2-40.6 40.6-40.6 22.4 0 40.6 18.2 40.6 40.6 0 22.4-18.2 40.6-40.6 40.6zm-12.5-62.5L76 199l-37.5 21.9v-43.8zM17.7 266.2l-4.2-4.2c.8-1.1 1.3-2.6 1.3-4.1 0-3.8-3.1-6.9-6.9-6.9-3.8 0-6.9 3.1-6.9 6.9 0 3.8 3.1 6.9 6.9 6.9 1.5 0 2.9-.5 4.1-1.3l4.2 4.2c.2.2.4.3.7.3.3 0 .5-.1.7-.3.5-.4.5-1.1.1-1.5zm-9.8-3.5c-2.7 0-4.8-2.1-4.8-4.8 0-2.7 2.1-4.8 4.8-4.8 2.7 0 4.8 2.1 4.8 4.8 0 2.7-2.1 4.8-4.8 4.8z" fill="#FFF" fill-rule="nonzero"/><path d="M1.5 275.5h3.6V287H1.5v-11.5zm1.7-1.5c-1.3 0-2.2-.9-2.2-2s.9-2 2.2-2c1.3 0 2.2.9 2.2 2s-.9 2-2.2 2zm16.3 13h-4.1v-6c0-1.6-.6-2.6-2-2.6-1.1 0-1.7.7-2 1.4-.1.2-.1.6-.1.9v6.2H7.2s.1-10.6 0-11.5h4.1v1.8c.2-.8 1.5-1.9 3.6-1.9 2.6 0 4.6 1.7 4.6 5.2v6.5z" fill="#B4B4B4" fill-rule="nonzero"/><path d="M1.5 294.5h3.6V306H1.5v-11.5zm1.7-1.5c-1.3 0-2.2-.9-2.2-2s.9-2 2.2-2c1.3 0 2.2.9 2.2 2s-.9 2-2.2 2zm16.3 13h-4.1v-6c0-1.6-.6-2.6-2-2.6-1.1 0-1.7.7-2 1.4-.1.2-.1.6-.1.9v6.2H7.2s.1-10.6 0-11.5h4.1v1.8c.2-.8 1.5-1.9 3.6-1.9 2.6 0 4.6 1.7 4.6 5.2v6.5z" fill="#0274B3" fill-rule="nonzero"/><path d="M1.5 313.5h3.6V325H1.5v-11.5zm1.7-1.5c-1.3 0-2.2-.9-2.2-2s.9-2 2.2-2c1.3 0 2.2.9 2.2 2s-.9 2-2.2 2zm16.3 13h-4.1v-6c0-1.6-.6-2.6-2-2.6-1.1 0-1.7.7-2 1.4-.1.2-.1.6-.1.9v6.2H7.2s.1-10.6 0-11.5h4.1v1.8c.2-.8 1.5-1.9 3.6-1.9 2.6 0 4.6 1.7 4.6 5.2v6.5z" fill="#FF633D" fill-rule="nonzero"/><path d="M1.5 332.5h3.6V344H1.5v-11.5zm1.7-1.5c-1.3 0-2.2-.9-2.2-2s.9-2 2.2-2c1.3 0 2.2.9 2.2 2s-.9 2-2.2 2zm16.3 13h-4.1v-6c0-1.6-.6-2.6-2-2.6-1.1 0-1.7.7-2 1.4-.1.2-.1.6-.1.9v6.2H7.2s.1-10.6 0-11.5h4.1v1.8c.2-.8 1.5-1.9 3.6-1.9 2.6 0 4.6 1.7 4.6 5.2v6.5z" fill="#0274B3" fill-rule="nonzero"/><path d="M1 409h1v5H1v-5zm6 0h1v5H7v-5zm-5-1h5v1H2v-1zm0 6h5v1H2v-1zm7-5h1v5H9v-5zm6 0h1v5h-1v-5zm-5-1h5v1h-5v-1zm0 6h5v1h-5v-1zm-9 3h1v5H1v-5zm6 0h1v5H7v-5zm-5-1h5v1H2v-1zm0 6h5v1H2v-1zm7-5h1v5H9v-5zm6 0h1v5h-1v-5zm-5-1h5v1h-5v-1zm0 6h5v1h-5v-1z" fill="#36355B" fill-rule="nonzero"/><path d="M1 426h1v5H1v-5zm6 0h1v5H7v-5zm-5-1h5v1H2v-1zm0 6h5v1H2v-1zm7-5h1v5H9v-5zm6 0h1v5h-1v-5zm-5-1h5v1h-5v-1zm0 6h5v1h-5v-1zm-9 3h1v5H1v-5zm6 0h1v5H7v-5zm-5-1h5v1H2v-1zm0 6h5v1H2v-1zm7-5h1v5H9v-5zm6 0h1v5h-1v-5zm-5-1h5v1h-5v-1zm0 6h5v1h-5v-1zM17.6 445.7v.5c0 5-3.8 10.8-10.8 10.8-2.1 0-4.1-.6-5.8-1.7.3 0 .6.1.9.1 1.7 0 3.4-.6 4.7-1.6-1.6 0-3-1.1-3.5-2.6.6.1 1.2.1 1.7-.1-1.8-.4-3-1.9-3-3.7.5.3 1.1.5 1.7.5-1.1-.7-1.7-1.9-1.7-3.2 0-.7.2-1.3.5-1.9 1.9 2.3 4.7 3.8 7.8 4-.5-2 .8-4.1 2.8-4.6 1.3-.3 2.7.1 3.6 1.1.8-.2 1.7-.5 2.4-.9-.3.9-.9 1.6-1.7 2.1.8-.1 1.5-.3 2.2-.6-.4.6-1.1 1.3-1.8 1.8z" fill="#B4B4B4" fill-rule="nonzero"/><path d="M17.6 462.7v.5c0 5-3.8 10.8-10.8 10.8-2.1 0-4.1-.6-5.8-1.7.3 0 .6.1.9.1 1.7 0 3.4-.6 4.7-1.6-1.6 0-3-1.1-3.5-2.6.6.1 1.2.1 1.7-.1-1.8-.4-3-1.9-3-3.7.5.3 1.1.5 1.7.5-1.1-.7-1.7-1.9-1.7-3.2 0-.7.2-1.3.5-1.9 1.9 2.3 4.7 3.8 7.8 4-.5-2 .8-4.1 2.8-4.6 1.3-.3 2.7.1 3.6 1.1.8-.2 1.7-.5 2.4-.9-.3.9-.9 1.6-1.7 2.1.8-.1 1.5-.3 2.2-.6-.4.6-1.1 1.3-1.8 1.8z" fill="#5EA9DD" fill-rule="nonzero"/><path d="M17.6 479.7v.5c0 5-3.8 10.8-10.8 10.8-2.1 0-4.1-.6-5.8-1.7.3 0 .6.1.9.1 1.7 0 3.4-.6 4.7-1.6-1.6 0-3-1.1-3.5-2.6.6.1 1.2.1 1.7-.1-1.8-.4-3-1.9-3-3.7.5.3 1.1.5 1.7.5-1.1-.7-1.7-1.9-1.7-3.2 0-.7.2-1.3.5-1.9 1.9 2.3 4.7 3.8 7.8 4-.5-2 .8-4.1 2.8-4.6 1.3-.3 2.7.1 3.6 1.1.8-.2 1.7-.5 2.4-.9-.3.9-.9 1.6-1.7 2.1.8-.1 1.5-.3 2.2-.6-.4.6-1.1 1.3-1.8 1.8z" fill="#FF633D" fill-rule="nonzero"/><path d="M17.6 496.7v.5c0 5-3.8 10.8-10.8 10.8-2.1 0-4.1-.6-5.8-1.7.3 0 .6.1.9.1 1.7 0 3.4-.6 4.7-1.6-1.6 0-3-1.1-3.5-2.6.6.1 1.2.1 1.7-.1-1.8-.4-3-1.9-3-3.7.5.3 1.1.5 1.7.5-1.1-.7-1.7-1.9-1.7-3.2 0-.7.2-1.3.5-1.9 1.9 2.3 4.7 3.8 7.8 4-.5-2 .8-4.1 2.8-4.6 1.3-.3 2.7.1 3.6 1.1.8-.2 1.7-.5 2.4-.9-.3.9-.9 1.6-1.7 2.1.8-.1 1.5-.3 2.2-.6-.4.6-1.1 1.3-1.8 1.8z" fill="#5EA9DD" fill-rule="nonzero"/><g fill-rule="nonzero"><path d="M170 363.5l-6.9-4.2.5-.8 7.6 4.7v.6l-7.6 4.9-.5-.8 6.9-4.4zm5.4 1.1c0-3.3 1.3-4.9 3.8-4.9s3.8 1.6 3.8 4.9c0 3.3-1.3 4.9-3.8 4.9s-3.8-1.6-3.8-4.9zm3.8-3.9c-1.8 0-2.7 1.3-2.7 3.9 0 2.6.9 3.9 2.7 3.9 1.8 0 2.7-1.3 2.7-3.9 0-2.6-.9-3.9-2.7-3.9zm12.5 8.6v-.8c-1.3.7-2.3 1-3.2 1-.9 0-1.5-.3-2-.9-.5-.6-.7-1.4-.7-2.4v-6.4h1.1v6.4c0 .7.2 1.2.5 1.6.3.4.8.6 1.4.6.6 0 1.6-.3 3-1v-7.6h1.1v9.5h-1.2zm4.2 0v-1h2.3v-7.5h-2.3v-1h3.3v1.2c.4-.3 1-.5 1.8-.8.8-.3 1.5-.4 2-.5h.2v1.2h-.2c-.5 0-1.2.2-2 .4s-1.4.5-1.8.7v6.3h3.2v1h-6.5zm19.5-8.2v-1h1.9v-2.4l1.1-.2v2.6h4.6v1h-4.6v4.6c0 1 .1 1.7.5 2.2.3.4.8.7 1.6.7.3 0 .7 0 1.4-.1.6-.1 1-.2 1.3-.3l.2 1c-.3.1-.7.2-1.4.3-.7.1-1.2.2-1.5.2-1.2 0-2-.3-2.5-1-.4-.6-.7-1.6-.7-2.9v-4.6h-1.9v-.1zm10.2 3.5c0-1.5.3-2.7 1-3.6.6-.9 1.6-1.3 2.8-1.3 1.2 0 2.1.4 2.7 1.2.6.8.9 1.9.9 3.2l-.1 1h-6.1c.1 1 .3 1.8.8 2.4.5.6 1.1.9 1.9.9.8 0 1.8-.2 2.9-.6l.3 1c-1.1.4-2.1.6-3 .6-1.3 0-2.3-.4-3-1.3-.7-.9-1.1-2-1.1-3.5zm3.8-3.9c-1.7 0-2.6 1.1-2.7 3.4h5c.1-2.3-.7-3.4-2.3-3.4zm13-.6l-.2 1c-.8-.3-1.6-.4-2.3-.4-1 0-1.7.3-2.2 1-.5.7-.7 1.6-.7 2.8 0 1.2.2 2.1.7 2.8.5.7 1.2 1 2.1 1 .6 0 1.4-.2 2.4-.5l.3 1c-1 .4-1.9.6-2.7.6-1.3 0-2.3-.4-3-1.3-.7-.9-1-2.1-1-3.7s.3-2.8 1-3.6c.7-.8 1.7-1.2 3-1.2.9.1 1.7.2 2.6.5zm4.5 1.5v7.8h-1.1v-13.3h1.1v4.5c1.3-.6 2.3-.8 3.1-.8 1.9 0 2.9 1.1 2.9 3.3v6.3h-1.1v-6.3c0-.7-.1-1.2-.4-1.6-.3-.4-.8-.6-1.5-.6-.8-.2-1.8.1-3 .7zm18.9 7.7V356h1.1v4.7c1-.7 1.9-1 2.7-1 1.2 0 2.1.4 2.8 1.2.7.8 1 2 1 3.5s-.4 2.7-1.1 3.7c-.7.9-1.7 1.4-3 1.4-.8 0-1.6-.2-2.4-.6v.4h-1.1zm6.4-4.8c0-1.2-.2-2.1-.7-2.7-.5-.6-1.1-1-2-1-.9 0-1.8.4-2.7 1.1v6c.3.1.7.3 1.2.4.5.1.9.2 1.2.2.9 0 1.7-.4 2.2-1.1.5-.8.8-1.8.8-2.9zm3.9 4.8v-1h3.1V357h-3v-1h4.1v12.3h3.2v1h-7.4zm9.3-4.7c0-3.3 1.3-4.9 3.8-4.9s3.8 1.6 3.8 4.9c0 3.3-1.3 4.9-3.8 4.9s-3.8-1.6-3.8-4.9zm3.8-3.9c-1.8 0-2.7 1.3-2.7 3.9 0 2.6.9 3.9 2.7 3.9 1.8 0 2.7-1.3 2.7-3.9 0-2.6-.9-3.9-2.7-3.9zm7.1 7.4c-.6-.8-1-2-1-3.5s.4-2.7 1.1-3.6c.7-.9 1.7-1.3 3-1.3.7 0 1.5.2 2.4.7v-.6h1v7.2c.2 1.6.3 2.5.3 2.8 0 1.2-.4 2.1-1.2 2.7-.8.6-1.7.9-2.8.9-1.1 0-2.3-.3-3.6-.8l.4-1c1.3.5 2.4.8 3.2.8.8 0 1.5-.2 2.1-.6.6-.4.9-1 .9-1.9l-.2-1.6c-1.1.7-2 1.1-2.8 1.1-1.3-.1-2.2-.5-2.8-1.3zm.9-6.4c-.5.7-.8 1.6-.8 2.8 0 1.2.2 2.1.7 2.8.5.7 1.1 1 2 1 .9 0 1.7-.4 2.7-1.2v-5.6c-.9-.5-1.6-.8-2.3-.8-1 0-1.8.3-2.3 1z" fill="#666"/><g fill="#666"><path d="M90.2 370.8c-2.6 0-4.5-.8-5.7-2.4-1.2-1.6-1.8-4.2-1.8-7.7s.6-6.1 1.8-7.8c1.2-1.7 3.2-2.5 5.8-2.5 2 0 3.9.3 5.5.8l.2.3-.5 2.6-.3.2c-1.3-.5-3-.7-4.8-.7-1.5 0-2.5.5-3.1 1.6-.6 1.1-.9 2.9-.9 5.3s.3 4.3 1 5.4c.6 1.1 1.6 1.6 2.8 1.6.9 0 1.8-.1 2.8-.3v-4.1h-2.5l-.2-.2v-2.7l.2-.2h5.7l.2.2v9.5l-.2.2c-1.8.6-3.8.9-6 .9z"/><path d="M90.4 350.6c2 0 3.8.3 5.4.8l-.5 2.6c-1.4-.5-3-.7-4.9-.7-1.6 0-2.7.6-3.3 1.7-.6 1.1-1 2.9-1 5.4 0 2.5.3 4.3 1 5.5.7 1.2 1.7 1.7 3.1 1.7 1 0 2-.1 3-.4v-4.6h-2.8v-2.7h5.7v9.5c-1.9.7-3.9 1-6 1-2.5 0-4.3-.8-5.5-2.3-1.2-1.6-1.7-4.1-1.7-7.6s.6-6 1.8-7.6c1.3-1.5 3.2-2.3 5.7-2.3zm0-.5c-2.7 0-4.7.9-6 2.6-1.3 1.7-1.9 4.3-1.9 7.9 0 3.6.6 6.2 1.8 7.9 1.2 1.7 3.2 2.5 5.9 2.5 2.2 0 4.3-.3 6.2-1l.3-.5V360l-.5-.5h-5.7l-.5.5v2.7l.5.5h2.3v3.7c-.9.2-1.7.3-2.5.3-1.2 0-2-.5-2.6-1.5-.6-1.1-1-2.8-1-5.2 0-2.4.3-4.2.9-5.2.5-1 1.5-1.4 2.9-1.4 1.8 0 3.4.2 4.7.7l.7-.4.5-2.6-.3-.6c-1.7-.6-3.6-.9-5.7-.9zm13.9 20.8c-4.5 0-6.7-2.6-6.7-7.6 0-2.4.6-4.3 1.7-5.6 1.1-1.3 2.7-1.9 4.6-1.9 2 0 3.5.6 4.6 1.8 1.1 1.2 1.6 2.9 1.7 5.1l-.1 2.2-.2.2h-8.5c.2 1.8 1.2 2.7 2.9 2.7 1.3 0 2.8-.2 4.2-.7l.3.2.6 2.6-.2.3c-.6.2-1.5.4-2.5.6-.8 0-1.7.1-2.4.1zm2.1-8.9c-.1-2-.8-3-2.3-3-.9 0-1.5.2-1.9.7-.4.5-.6 1.2-.7 2.3h4.9z"/><path d="M103.9 356c1.9 0 3.4.6 4.4 1.7 1 1.1 1.6 2.7 1.6 4.9l-.1 2.2h-8.6c.2 2.1 1.2 3.2 3.2 3.2 1.4 0 2.8-.2 4.3-.7l.6 2.6c-.6.2-1.4.4-2.5.6-1 .2-1.8.3-2.5.3-4.3 0-6.5-2.4-6.5-7.3 0-2.4.5-4.2 1.6-5.4 1.1-1.5 2.6-2.1 4.5-2.1zm-2.8 6.3h5.5c0-2.3-.9-3.5-2.6-3.5-.9 0-1.6.3-2.1.8-.4.5-.7 1.4-.8 2.7zm2.8-6.8c-2 0-3.7.7-4.8 2-1.1 1.3-1.7 3.3-1.7 5.8 0 5.2 2.3 7.8 7 7.8.7 0 1.5-.1 2.6-.3 1-.2 1.9-.4 2.5-.6l.3-.6-.6-2.6-.6-.4c-1.5.5-2.9.7-4.2.7-1.5 0-2.4-.7-2.6-2.2h8.1l.5-.5.1-2.2c0-2.3-.6-4.1-1.7-5.3-1.3-1-2.9-1.6-4.9-1.6zm-2.2 6.3c.1-.9.3-1.5.6-1.9.4-.4.9-.6 1.7-.6.8 0 1.9.3 2.1 2.5h-4.4zm16 9.1c-4.5 0-6.7-2.6-6.7-7.6 0-2.4.6-4.3 1.7-5.6 1.1-1.3 2.7-1.9 4.6-1.9 2 0 3.5.6 4.6 1.8 1.1 1.2 1.6 2.9 1.7 5.1l-.1 2.2-.2.2h-8.4c.2 1.8 1.2 2.7 2.9 2.7 1.3 0 2.8-.2 4.2-.7l.3.2.6 2.6-.2.3c-.6.2-1.5.4-2.5.6-1 0-1.9.1-2.5.1zm2-8.9c-.1-2-.8-3-2.3-3-.9 0-1.5.2-1.9.7-.4.5-.6 1.2-.7 2.3h4.9z"/><path d="M117.2 356c1.9 0 3.4.6 4.4 1.7 1 1.1 1.6 2.7 1.6 4.9l-.1 2.2h-8.6c.2 2.1 1.2 3.2 3.2 3.2 1.4 0 2.8-.2 4.3-.7l.6 2.6c-.6.2-1.4.4-2.5.6-1 .2-1.8.3-2.5.3-4.3 0-6.5-2.4-6.5-7.3 0-2.4.5-4.2 1.6-5.4 1.1-1.5 2.6-2.1 4.5-2.1zm-2.7 6.3h5.5c0-2.3-.9-3.5-2.6-3.5-.9 0-1.6.3-2.1.8s-.8 1.4-.8 2.7zm2.7-6.8c-2 0-3.7.7-4.8 2-1.1 1.3-1.7 3.3-1.7 5.8 0 5.2 2.3 7.8 7 7.8.7 0 1.5-.1 2.6-.3 1-.2 1.9-.4 2.5-.6l.3-.6-.6-2.6-.6-.4c-1.5.5-2.9.7-4.2.7-1.5 0-2.4-.7-2.6-2.2h8.1l.5-.5.1-2.2c0-2.3-.6-4.1-1.7-5.3-1.3-1-2.9-1.6-4.9-1.6zm-2.2 6.3c.1-.9.3-1.5.6-1.9.4-.4.9-.6 1.7-.6.8 0 1.9.3 2.1 2.5H115zm19.2 8.8l-.2-.1c-.9-2-2-4-3.2-5.8l-1.7.2v5.6l-.2.2h-3l-.2-.2v-19.7l.2-.2h3l.2.2v11l1.6-.2c1.1-1.4 2-2.9 2.8-4.5l.4-.8.2-.1h3.3l.2.4c-1.2 2.6-2.6 4.7-4.1 6.5 1.2 1.8 2.5 3.9 3.7 6.2l.6 1.1-.2.4h-3.4v-.2z"/><path d="M128.8 350.6v11.3l2-.2c1.1-1.4 2.1-3 2.9-4.6l.4-.8h3.3c-1.2 2.6-2.6 4.8-4.1 6.6 1.3 1.8 2.5 3.9 3.8 6.4l.6 1.1h-3.5c-1-2.1-2.1-4.1-3.3-6l-2.1.2v5.8h-3v-19.7h3v-.1zm0-.5h-3l-.5.5v19.7l.5.5h3l.5-.5V365l1.3-.1c1.2 1.8 2.2 3.7 3.1 5.7l.5.3h3.5l.4-.7-.6-1.1c-1.2-2.3-2.4-4.4-3.6-6.1 1.4-1.7 2.8-3.9 4-6.4l-.5-.7h-3.3l-.4.3-.4.8c-.8 1.6-1.7 3-2.7 4.4l-1.2.1v-10.7l-.6-.7zm15.1 20.7c-1.7 0-3.6-.3-5.6-1l-.2-.3.7-2.7.3-.2c1.8.6 3.3.9 4.4.9 1.1 0 1.8-.1 2.1-.3.3-.2.5-.4.5-.8s-.1-.7-.4-.9c-.3-.2-1-.4-1.9-.7-2-.5-3.4-1-4.2-1.6-.8-.6-1.3-1.7-1.3-3.1 0-3 1.9-4.5 5.7-4.5 1.6 0 3.4.3 5.5.8l.2.3-.6 2.8-.3.2c-1.9-.5-3.4-.8-4.5-.8-1.3 0-1.8.1-2 .3-.3.1-.4.4-.4.7 0 .4.1.6.4.8.3.2 1.3.5 2.8.9 1.5.4 2.7.9 3.4 1.5.8.6 1.2 1.6 1.2 3 0 3.2-2 4.7-5.8 4.7z"/><path d="M144 356c1.6 0 3.4.3 5.4.8l-.6 2.8c-2-.6-3.5-.8-4.5-.8-1.1 0-1.8.1-2.1.3-.4.2-.5.5-.5 1s.2.8.5 1c.4.2 1.3.5 2.8.9 1.5.4 2.6.9 3.3 1.4.7.5 1.1 1.5 1.1 2.8 0 3-1.8 4.5-5.5 4.5-1.7 0-3.6-.3-5.5-.9l.7-2.7c1.9.6 3.4.9 4.5.9s1.9-.1 2.2-.3c.4-.2.6-.6.6-1.1 0-.5-.2-.9-.5-1.1-.4-.2-1-.4-2-.7-2-.5-3.3-1-4.1-1.6-.8-.6-1.2-1.5-1.2-2.9-.1-2.9 1.8-4.3 5.4-4.3zm0-.5c-4.9 0-5.9 2.6-5.9 4.7 0 1.5.5 2.6 1.4 3.3.8.6 2.2 1.2 4.3 1.7 1.2.3 1.7.5 1.9.6.1.1.3.2.3.7 0 .4-.2.5-.3.6-.2.1-.7.3-2 .3-1 0-2.5-.3-4.3-.9l-.6.4-.7 2.7.3.6c2 .6 3.9 1 5.7 1 5 0 6-2.7 6-5 0-1.5-.4-2.5-1.3-3.2-.8-.6-1.9-1.1-3.5-1.5-1.8-.5-2.5-.8-2.7-.9-.1-.1-.3-.2-.3-.6 0-.3.1-.4.3-.5.2-.1.6-.2 1.9-.2 1 0 2.5.3 4.4.8l.6-.4.6-2.8-.4-.6c-2.3-.5-4.1-.8-5.7-.8z"/></g><path d="M89.2 369.8c-2.6 0-4.5-.8-5.7-2.4-1.2-1.6-1.8-4.2-1.8-7.7s.6-6.1 1.8-7.8c1.2-1.7 3.2-2.5 5.8-2.5 2 0 3.9.3 5.5.8l.2.3-.5 2.6-.3.2c-1.3-.5-3-.7-4.8-.7-1.5 0-2.5.5-3.1 1.6-.6 1.1-.9 2.9-.9 5.3s.3 4.3 1 5.4c.6 1.1 1.6 1.6 2.8 1.6.9 0 1.8-.1 2.8-.3v-4.1h-2.5l-.2-.2v-2.7l.2-.2h5.7l.2.2v9.5l-.2.2c-1.8.6-3.8.9-6 .9z" fill="#FFF"/><path d="M89.4 349.6c2 0 3.8.3 5.4.8l-.5 2.6c-1.4-.5-3-.7-4.9-.7-1.6 0-2.7.6-3.3 1.7-.6 1.1-1 2.9-1 5.4 0 2.5.3 4.3 1 5.5.7 1.2 1.7 1.7 3.1 1.7 1 0 2-.1 3-.4v-4.6h-2.8v-2.7h5.7v9.5c-1.9.7-3.9 1-6 1-2.5 0-4.3-.8-5.5-2.3-1.2-1.6-1.7-4.1-1.7-7.6s.6-6 1.8-7.6c1.3-1.5 3.2-2.3 5.7-2.3zm0-.5c-2.7 0-4.7.9-6 2.6-1.3 1.7-1.9 4.3-1.9 7.9 0 3.6.6 6.2 1.8 7.9 1.2 1.7 3.2 2.5 5.9 2.5 2.2 0 4.3-.3 6.2-1l.3-.5V359l-.5-.5h-5.7l-.5.5v2.7l.5.5h2.3v3.7c-.9.2-1.7.3-2.5.3-1.2 0-2-.5-2.6-1.5-.6-1.1-1-2.8-1-5.2 0-2.4.3-4.2.9-5.2.5-1 1.5-1.4 2.9-1.4 1.8 0 3.4.2 4.7.7l.7-.4.5-2.6-.3-.6c-1.7-.6-3.6-.9-5.7-.9z" fill="#666"/><path d="M103.4 369.9c-4.5 0-6.7-2.6-6.7-7.6 0-2.4.6-4.3 1.7-5.6 1.1-1.3 2.7-1.9 4.6-1.9 2 0 3.5.6 4.6 1.8 1.1 1.2 1.6 2.9 1.7 5.1l-.1 2.2-.2.2h-8.6c.2 1.8 1.2 2.7 2.9 2.7 1.3 0 2.8-.2 4.2-.7l.3.2.6 2.6-.2.3c-.6.2-1.5.4-2.5.6-.8 0-1.7.1-2.3.1zm2-8.8c-.1-2-.8-3-2.3-3-.9 0-1.5.2-1.9.7-.4.5-.6 1.2-.7 2.3h4.9z" fill="#FFF"/><path d="M102.9 355c1.9 0 3.4.6 4.4 1.7 1 1.1 1.6 2.7 1.6 4.9l-.1 2.2h-8.6c.2 2.1 1.2 3.2 3.2 3.2 1.4 0 2.8-.2 4.3-.7l.6 2.6c-.6.2-1.4.4-2.5.6-1 .2-1.8.3-2.5.3-4.3 0-6.5-2.4-6.5-7.3 0-2.4.5-4.2 1.6-5.4 1.1-1.5 2.6-2.1 4.5-2.1zm-2.7 6.3h5.5c0-2.3-.9-3.5-2.6-3.5-.9 0-1.6.3-2.1.8s-.8 1.4-.8 2.7zm2.7-6.8c-2 0-3.7.7-4.8 2-1.1 1.3-1.7 3.3-1.7 5.8 0 5.2 2.3 7.8 7 7.8.7 0 1.5-.1 2.6-.3 1-.2 1.9-.4 2.5-.6l.3-.6-.6-2.6-.6-.4c-1.5.5-2.9.7-4.2.7-1.5 0-2.4-.7-2.6-2.2h8.1l.5-.5.1-2.2c0-2.3-.6-4.1-1.7-5.3-1.3-1-2.9-1.6-4.9-1.6zm-2.2 6.3c.1-.9.3-1.5.6-1.9.4-.4.9-.6 1.7-.6.8 0 1.9.3 2.1 2.5h-4.4z" fill="#666"/><path d="M116.7 369.9c-4.5 0-6.7-2.6-6.7-7.6 0-2.4.6-4.3 1.7-5.6 1.1-1.3 2.7-1.9 4.6-1.9 2 0 3.5.6 4.6 1.8 1.1 1.2 1.6 2.9 1.7 5.1l-.1 2.2-.2.2h-8.4c.2 1.8 1.2 2.7 2.9 2.7 1.3 0 2.8-.2 4.2-.7l.3.2.6 2.6-.2.3c-.6.2-1.5.4-2.5.6-1 0-1.9.1-2.5.1zm2-8.8c-.1-2-.8-3-2.3-3-.9 0-1.5.2-1.9.7-.4.5-.6 1.2-.7 2.3h4.9z" fill="#FFF"/><path d="M116.2 355c1.9 0 3.4.6 4.4 1.7 1 1.1 1.6 2.7 1.6 4.9l-.1 2.2h-8.6c.2 2.1 1.2 3.2 3.2 3.2 1.4 0 2.8-.2 4.3-.7l.6 2.6c-.6.2-1.4.4-2.5.6-1 .2-1.8.3-2.5.3-4.3 0-6.5-2.4-6.5-7.3 0-2.4.5-4.2 1.6-5.4 1.2-1.5 2.6-2.1 4.5-2.1zm-2.7 6.3h5.5c0-2.3-.9-3.5-2.6-3.5-.9 0-1.6.3-2.1.8s-.8 1.4-.8 2.7zm2.7-6.8c-2 0-3.7.7-4.8 2-1.1 1.3-1.7 3.3-1.7 5.8 0 5.2 2.3 7.8 7 7.8.7 0 1.5-.1 2.6-.3 1-.2 1.9-.4 2.5-.6l.3-.6-.6-2.6-.6-.4c-1.5.5-2.9.7-4.2.7-1.5 0-2.4-.7-2.6-2.2h8.1l.5-.5.1-2.2c0-2.3-.6-4.1-1.7-5.3-1.2-1-2.8-1.6-4.9-1.6zm-2.2 6.3c.1-.9.3-1.5.6-1.9.4-.4.9-.6 1.7-.6.8 0 1.9.3 2.1 2.5H114z" fill="#666"/><path d="M133.2 369.6l-.2-.1c-.9-2-2-4-3.2-5.8l-1.7.2v5.6l-.2.2h-3l-.2-.2v-19.7l.2-.2h3l.2.2v11l1.6-.2c1.1-1.4 2-2.9 2.8-4.5l.4-.8.2-.1h3.3l.2.4c-1.2 2.6-2.6 4.7-4.1 6.5 1.2 1.8 2.5 3.9 3.7 6.2l.6 1.1-.2.4h-3.4v-.2z" fill="#FFF"/><path d="M127.8 349.6v11.3l2-.2c1.1-1.4 2.1-3 2.9-4.6l.4-.8h3.3c-1.2 2.6-2.6 4.8-4.1 6.6 1.3 1.8 2.5 3.9 3.8 6.4l.6 1.1h-3.5c-1-2.1-2.1-4.1-3.3-6l-2.1.2v5.8h-3v-19.7h3v-.1zm0-.5h-3l-.5.5v19.7l.5.5h3l.5-.5V364l1.3-.1c1.2 1.8 2.2 3.7 3.1 5.7l.5.3h3.5l.4-.7-.6-1.1c-1.2-2.3-2.4-4.4-3.6-6.1 1.4-1.7 2.8-3.9 4-6.4l-.5-.7h-3.3l-.4.3-.4.8c-.8 1.6-1.7 3-2.7 4.4l-1.2.1v-10.7l-.6-.7z" fill="#666"/><g><path d="M142.9 369.9c-1.7 0-3.6-.3-5.6-1l-.2-.3.7-2.7.3-.2c1.8.6 3.3.9 4.4.9 1.1 0 1.8-.1 2.1-.3.3-.2.5-.4.5-.8s-.1-.7-.4-.9c-.3-.2-1-.4-1.9-.7-2-.5-3.4-1-4.2-1.6-.8-.6-1.3-1.7-1.3-3.1 0-3 1.9-4.5 5.7-4.5 1.6 0 3.4.3 5.5.8l.2.3-.6 2.8-.3.2c-1.9-.5-3.4-.8-4.5-.8-1.3 0-1.8.1-2 .3-.3.1-.4.4-.4.7 0 .4.1.6.4.8.3.2 1.3.5 2.8.9 1.5.4 2.7.9 3.4 1.5.8.6 1.2 1.6 1.2 3 0 3.1-2 4.7-5.8 4.7z" fill="#FFF"/><path d="M143 355c1.6 0 3.4.3 5.4.8l-.6 2.8c-2-.6-3.5-.8-4.5-.8-1.1 0-1.8.1-2.1.3-.4.2-.5.5-.5 1s.2.8.5 1c.4.2 1.3.5 2.8.9 1.5.4 2.6.9 3.3 1.4.7.5 1.1 1.5 1.1 2.8 0 3-1.8 4.5-5.5 4.5-1.7 0-3.6-.3-5.5-.9l.7-2.7c1.9.6 3.4.9 4.5.9s1.9-.1 2.2-.3c.4-.2.6-.6.6-1.1 0-.5-.2-.9-.5-1.1-.4-.2-1-.4-2-.7-2-.5-3.3-1-4.1-1.6-.8-.6-1.2-1.5-1.2-2.9 0-2.9 1.8-4.3 5.4-4.3zm0-.5c-4.9 0-5.9 2.6-5.9 4.7 0 1.5.5 2.6 1.4 3.3.8.6 2.2 1.2 4.3 1.7 1.2.3 1.7.5 1.9.6.1.1.3.2.3.7 0 .4-.2.5-.3.6-.2.1-.7.3-2 .3-1 0-2.5-.3-4.3-.9l-.6.4-.7 2.7.3.6c2 .6 3.9 1 5.7 1 5 0 6-2.7 6-5 0-1.5-.4-2.5-1.3-3.2-.8-.6-1.9-1.1-3.5-1.5-1.8-.5-2.5-.8-2.7-.9-.1-.1-.3-.2-.3-.6 0-.3.1-.4.3-.5.2-.1.6-.2 1.9-.2 1 0 2.5.3 4.4.8l.6-.4.6-2.8-.4-.6c-2.2-.5-4.1-.8-5.7-.8z" fill="#666"/></g></g><path d="M33.5 370.1h7.2m0 0h5.5v3.6H53v-3.6h1.5c2 0 3.9-1 5-2.5v6.1h6.8v-3.6h1.5c3.5 0 6.3-2.8 6.3-6.3v-4.3c0-3.5-2.8-6.3-6.3-6.3H46.2v2.4c-1.2-1.5-2.9-2.4-4.9-2.4H26.4v2.1c-1-1.3-2.6-2.1-4.4-2.1h-8.6v-5H6.6v19.4H1l3.4 6.9h2.8c3.3 0 6-2.6 6.1-5.8 1 .9 2.4 1.5 3.9 1.5H33.5" stroke="#666" stroke-width=".5"/><g fill-rule="nonzero" fill="#373865"><path d="M54.5 355.2h-6.3v16.5H51v-3.6h3.5c2.4 0 4.3-1.9 4.3-4.3v-4.3c0-2.4-1.9-4.3-4.3-4.3zm1.5 8.6c0 .8-.6 1.4-1.4 1.4H51V358h3.6c.8 0 1.4.6 1.4 1.4v4.4zM67.8 355.2h-6.3v16.5h2.8v-3.6h3.5c2.4 0 4.3-1.9 4.3-4.3v-4.3c0-2.4-1.9-4.3-4.3-4.3zm1.5 8.6c0 .8-.6 1.4-1.4 1.4h-3.6V358h3.6c.8 0 1.4.6 1.4 1.4v4.4zM8.6 350.2h2.8v2.9H8.6zM41.2 355.2H28.3v12.9h2.9v-10h4.3v10h2.9v-10h2.9c.8 0 1.4.6 1.4 1.4v8.6h2.9v-8.6c-.1-2.4-2-4.3-4.4-4.3M8.6 368.1c0 .8-.6 1.4-1.4 1.4H4.3l1.4 2.9h1.6c2.3 0 4.2-1.9 4.2-4.2v-13H8.7v12.9h-.1zM22 355.2h-7.7l1.4 2.8h5.5c.8 0 1.4.6 1.4 1.4v.9h-5.4c-2.2 0-3.9 1.7-3.9 3.9s1.7 3.9 3.9 3.9h8.3v-9.3c.1-2-1.5-3.6-3.5-3.6zm.7 10.1h-5.3c-.6 0-1.1-.5-1.1-1.1 0-.6.5-1.1 1.1-1.1h5.3v2.2z"/></g><g><g fill-rule="nonzero"><path d="M90.1 382.2c-2.5 0-4.3.8-5.4 2.3-1.2 1.5-1.7 4-1.7 7.4 0 3.4.6 5.8 1.7 7.3s2.9 2.3 5.3 2.3c2.1 0 4-.3 5.8-1v-9.2h-5.5v2.6H93v4.4c-1 .2-2 .4-2.9.4-1.3 0-2.3-.6-3-1.7-.7-1.1-1-2.9-1-5.3s.3-4.2.9-5.3c.6-1.1 1.7-1.6 3.2-1.6 1.8 0 3.4.2 4.7.7l.5-2.5c-1.6-.5-3.3-.8-5.3-.8" fill="#666"/><path d="M90 401.5c-2.4 0-4.2-.8-5.3-2.3-1.1-1.5-1.7-3.9-1.7-7.3s.6-5.8 1.7-7.4c1.2-1.5 3-2.3 5.4-2.3 1.9 0 3.7.3 5.3.8l-.5 2.5c-1.3-.5-2.9-.7-4.7-.7-1.5 0-2.6.5-3.2 1.6-.6 1.1-.9 2.8-.9 5.3 0 2.4.3 4.2 1 5.3.7 1.1 1.6 1.7 3 1.7.9 0 1.9-.1 2.9-.4v-4.4h-2.7v-2.6h5.5v9.2c-1.8.7-3.8 1-5.8 1m.1-19.8c-2.6 0-4.6.8-5.8 2.5-1.2 1.6-1.8 4.2-1.8 7.7s.6 6 1.8 7.6c1.2 1.6 3.1 2.5 5.7 2.5 2.1 0 4.1-.3 6-1l.3-.1v-10h-6.5v3.6h2.7v3.6c-.9.2-1.7.3-2.5.3-1.1 0-2-.5-2.5-1.4-.6-1-.9-2.7-.9-5.1 0-2.3.3-4 .9-5 .5-.9 1.4-1.4 2.8-1.4 1.8 0 3.3.2 4.6.7l.5.2.7-3.5-.4-.1c-1.7-.8-3.6-1.1-5.6-1.1m10.4 11.8c.1-1.2.3-2.1.8-2.6.4-.5 1.1-.8 2-.8 1.7 0 2.5 1.1 2.5 3.4h-5.3m2.7-6.1c-1.8 0-3.3.6-4.3 1.8-1 1.2-1.5 2.9-1.5 5.2 0 4.7 2.1 7.1 6.3 7.1.6 0 1.4-.1 2.4-.2 1-.2 1.8-.3 2.4-.6l-.6-2.5c-1.5.5-2.9.7-4.2.7-1.9 0-2.9-1-3.1-3.1h8.4l.1-2.1c0-2.1-.6-3.7-1.6-4.7-1.1-1-2.5-1.6-4.3-1.6" fill="#666"/><path d="M101 393c.1-.8.3-1.5.6-1.8.4-.4.9-.6 1.6-.6.8 0 1.9.3 2 2.4H101m2.3-2.9c-.9 0-1.6.3-2 .8-.4.5-.7 1.4-.8 2.6h5.3c0-2.3-.8-3.4-2.5-3.4m.3 11.4c-4.2 0-6.3-2.4-6.3-7.1 0-2.3.5-4.1 1.5-5.2 1-1.2 2.5-1.8 4.3-1.8 1.8 0 3.2.5 4.2 1.6s1.5 2.7 1.6 4.7l-.1 2.1h-8.3c.2 2.1 1.2 3.1 3.1 3.1 1.3 0 2.7-.2 4.2-.7l.6 2.5c-.6.2-1.4.4-2.4.6-1 .2-1.8.2-2.4.2m-.4-14.6c-2 0-3.5.7-4.7 2-1.1 1.3-1.7 3.2-1.7 5.6 0 5 2.3 7.6 6.7 7.6.7 0 1.5-.1 2.5-.2 1-.2 1.8-.4 2.4-.6l.4-.1-.8-3.4-.5.2c-1.4.5-2.8.7-4 .7-1.5 0-2.3-.7-2.5-2.1h8.3l.1-2.6c0-2.2-.6-3.9-1.7-5.1-1-1.4-2.6-2-4.5-2m10.2 6.6c.1-1.2.3-2.1.8-2.6.4-.5 1.1-.8 2-.8 1.7 0 2.5 1.1 2.5 3.4h-5.3m2.7-6.1c-1.8 0-3.3.6-4.3 1.8-1 1.2-1.5 2.9-1.5 5.2 0 4.7 2.1 7.1 6.3 7.1.6 0 1.4-.1 2.4-.2 1-.2 1.8-.3 2.4-.6l-.6-2.5c-1.5.5-2.9.7-4.2.7-1.9 0-2.9-1-3.1-3.1h8.4l.1-2.1c0-2.1-.6-3.7-1.6-4.7-1.1-1-2.5-1.6-4.3-1.6" fill="#666"/><path d="M113.9 393c.1-.8.3-1.5.6-1.8.4-.4.9-.6 1.6-.6.8 0 1.9.3 2 2.4h-4.2m2.3-2.9c-.9 0-1.6.3-2 .8-.5.5-.7 1.4-.8 2.6h5.3c0-2.3-.9-3.4-2.5-3.4m.3 11.4c-4.2 0-6.3-2.4-6.3-7.1 0-2.3.5-4.1 1.5-5.2 1-1.2 2.5-1.8 4.3-1.8 1.8 0 3.2.5 4.2 1.6s1.5 2.7 1.6 4.7l-.1 2.1h-8.4c.2 2.1 1.2 3.1 3.1 3.1 1.3 0 2.7-.2 4.2-.7l.6 2.5c-.6.2-1.4.4-2.4.6-.9.2-1.7.2-2.3.2m-.4-14.6c-2 0-3.5.7-4.7 2-1.1 1.3-1.7 3.2-1.7 5.6 0 5 2.3 7.6 6.7 7.6.7 0 1.5-.1 2.5-.2 1-.2 1.8-.4 2.5-.6l.4-.1-.1-.4-.7-3-.5.2c-1.4.5-2.8.7-4 .7-1.5 0-2.3-.7-2.5-2.1h8.3l.1-2.6c0-2.2-.6-3.9-1.7-5.1-1.1-1.4-2.7-2-4.6-2m11.2-4.7h-2.9v19h2.9v-5.6l2-.2c1.2 1.9 2.3 3.8 3.2 5.8h3.3l-.6-1.1c-1.2-2.4-2.5-4.4-3.7-6.1 1.5-1.7 2.8-3.8 4-6.3h-3.2l-.4.8c-.8 1.6-1.7 3.1-2.8 4.5l-1.9.2.1-11" fill="#666"/><path d="M124.3 401.2v-19h2.9v10.9l1.9-.2c1.1-1.4 2-2.9 2.8-4.5l.4-.8h3.2c-1.2 2.5-2.5 4.7-4 6.3 1.2 1.7 2.4 3.8 3.7 6.2l.6 1.1h-3.3c-.9-2-2-3.9-3.2-5.8l-2 .2v5.6h-3m3.4-19.5h-3.9v20h3.9V396l1.3-.1c1.1 1.8 2.1 3.6 3 5.5l.1.3h4.5l-.4-.7-.3-.1.1-.4-.3-.6c-1.2-2.2-2.3-4.2-3.5-5.9 1.4-1.7 2.7-3.8 3.8-6.2l.3-.7H132l-.1.3-.4.8c-.7 1.5-1.6 2.9-2.6 4.2l-1.1.1v-10.8" fill="#666"/><path d="M141.9 387.4c-3.5 0-5.3 1.4-5.3 4.1 0 1.3.4 2.2 1.1 2.8.7.6 2.1 1.1 3.9 1.5 1 .2 1.6.5 1.9.7.3.2.5.6.5 1.1 0 .5-.2.8-.6 1-.4.2-1.1.3-2.2.3s-2.5-.3-4.3-.9l-.6 2.6c1.9.6 3.7.9 5.3.9 3.5 0 5.3-1.4 5.3-4.3 0-1.3-.3-2.1-1-2.7-.7-.5-1.8-1-3.2-1.4-1.5-.4-2.4-.7-2.7-.9-.4-.2-.5-.5-.5-1 0-.4.2-.7.5-.9.3-.2 1-.3 2.1-.3s2.5.3 4.4.8l.5-2.7c-1.8-.4-3.6-.7-5.1-.7" fill="#666"/><path d="M141.4 398.9c1.1 0 1.8-.1 2.2-.3.4-.2.6-.5.6-1s-.2-.9-.5-1.1c-.3-.2-1-.4-1.9-.7-1.9-.5-3.2-1-3.9-1.5-.7-.6-1.1-1.5-1.1-2.8 0-2.7 1.8-4.1 5.3-4.1 1.5 0 3.3.2 5.2.7l-.5 2.7c-1.9-.5-3.3-.8-4.4-.8-1 0-1.7.1-2.1.3-.4.2-.5.5-.5.9s.2.8.5 1c.4.2 1.3.5 2.7.9 1.5.4 2.5.9 3.2 1.4.7.5 1 1.4 1 2.7 0 2.9-1.8 4.3-5.3 4.3-1.7 0-3.4-.3-5.3-.9l.6-2.6c1.7.6 3.2.9 4.2.9m.5-12c-4.7 0-5.7 2.5-5.7 4.6 0 1.4.4 2.5 1.3 3.1.8.6 2.2 1.1 4.1 1.6 1.1.3 1.6.5 1.8.6.1.1.3.2.3.6 0 .4-.2.5-.3.6-.2.1-.7.3-2 .3-1 0-2.4-.3-4.2-.8l-.5-.2-.8 3.1v.1l-.1.4.3.1h.1c1.9.6 3.8.9 5.5.9 4.8 0 5.8-2.6 5.8-4.8 0-1.4-.4-2.4-1.2-3.1-.7-.6-1.9-1.1-3.4-1.5-1.8-.5-2.4-.7-2.6-.9-.1-.1-.3-.2-.3-.5s.1-.4.3-.5c.2-.1.6-.2 1.9-.2 1 0 2.4.3 4.2.8l.5.1.7-3.7-.4-.1c-1.9-.3-3.7-.6-5.3-.6" fill="#666"/><path d="M89 400.8c-2.5 0-4.3-.8-5.5-2.4-1.1-1.5-1.7-4.1-1.7-7.5 0-3.4.6-5.9 1.8-7.5 1.2-1.6 3.1-2.4 5.6-2.4 2 0 3.8.3 5.3.8l.2.1-.6 3-.3-.1c-1.3-.4-2.9-.7-4.7-.7-1.4 0-2.4.5-3 1.5-.6 1-.9 2.8-.9 5.1 0 2.4.3 4.1 1 5.2.6 1 1.5 1.6 2.8 1.6.9 0 1.8-.1 2.7-.3v-4H89v-3.1h6v9.6l-.2.1c-1.7.6-3.7 1-5.8 1" fill="#FFF"/><path d="M89.2 381.3c1.9 0 3.7.3 5.3.8l-.5 2.5c-1.3-.5-2.9-.7-4.7-.7-1.5 0-2.6.5-3.2 1.6-.6 1.1-.9 2.8-.9 5.3 0 2.4.3 4.2 1 5.3.7 1.1 1.6 1.7 3 1.7.9 0 1.9-.1 2.9-.4V393h-2.7v-2.6h5.5v9.2c-1.8.6-3.8 1-5.8 1-2.4 0-4.2-.8-5.3-2.3-1.1-1.5-1.7-3.9-1.7-7.3s.6-5.8 1.7-7.4c1.1-1.6 2.9-2.3 5.4-2.3m0-.5c-2.6 0-4.6.8-5.8 2.5-1.2 1.6-1.8 4.2-1.8 7.7s.6 6 1.8 7.6c1.2 1.6 3.1 2.5 5.7 2.5 2.1 0 4.1-.3 6-1l.3-.1v-10h-6.5v3.6h2.7v3.6c-.8.2-1.6.3-2.5.3-1.1 0-2-.5-2.5-1.4-.6-1-.9-2.7-.9-5.1 0-2.3.3-4 .9-5 .5-.9 1.4-1.4 2.8-1.4 1.8 0 3.3.2 4.6.7l.5.2.7-3.5-.4-.1c-1.8-.8-3.6-1.1-5.6-1.1" fill="#666"/><path d="M102.7 400.8c-4.3 0-6.5-2.5-6.5-7.3 0-2.4.5-4.2 1.6-5.4 1.1-1.2 2.6-1.9 4.5-1.9s3.4.6 4.4 1.7c1 1.1 1.6 2.8 1.6 4.9l-.1 2.4h-8.3c.2 1.8 1.1 2.6 2.8 2.6 1.3 0 2.7-.2 4.1-.7l.2-.1.7 3-.2.1c-.6.2-1.4.4-2.4.6-1 .1-1.8.1-2.4.1zm1.9-8.5c-.1-2-.8-2.9-2.3-2.9-.8 0-1.4.2-1.8.7-.4.4-.6 1.2-.7 2.2h4.8z" fill="#FFF"/><path d="M102.2 386.5c1.8 0 3.2.5 4.2 1.6s1.5 2.7 1.6 4.7l-.1 2.1h-8.4c.2 2.1 1.2 3.1 3.1 3.1 1.3 0 2.7-.2 4.2-.7l.6 2.5c-.6.2-1.4.4-2.4.6-1 .2-1.8.2-2.4.2-4.2 0-6.3-2.4-6.3-7.1 0-2.3.5-4.1 1.5-5.2 1.2-1.2 2.6-1.8 4.4-1.8zm-2.6 6h5.3c0-2.3-.8-3.4-2.5-3.4-.9 0-1.6.3-2 .8-.5.5-.8 1.4-.8 2.6zm2.6-6.5c-2 0-3.5.7-4.7 2-1.1 1.3-1.7 3.2-1.7 5.6 0 5 2.3 7.6 6.7 7.6.7 0 1.5-.1 2.5-.2 1-.2 1.8-.4 2.5-.6l.4-.1-.8-3.4-.5.2c-1.4.5-2.8.7-4 .7-1.5 0-2.3-.7-2.5-2.1h8.3l.1-2.6c0-2.2-.6-3.9-1.7-5.1-1.1-1.4-2.6-2-4.6-2zm-2.1 6c.1-.8.3-1.5.6-1.8.4-.4.9-.6 1.6-.6.8 0 1.9.3 2 2.4h-4.2z" fill="#666"/><path d="M115.5 400.8c-4.3 0-6.5-2.5-6.5-7.3 0-2.4.5-4.2 1.6-5.4 1.1-1.2 2.6-1.9 4.5-1.9s3.4.6 4.4 1.7c1 1.1 1.6 2.8 1.6 4.9l-.1 2.4h-8.3c.2 1.8 1.1 2.6 2.8 2.6 1.3 0 2.7-.2 4.1-.7l.2-.1.7 3-.2.1c-.6.2-1.4.4-2.4.6-.9.1-1.7.1-2.4.1zm2-8.5c-.1-2-.8-2.9-2.3-2.9-.8 0-1.4.2-1.8.7-.4.4-.6 1.2-.7 2.2h4.8z" fill="#FFF"/><path d="M115.1 386.5c1.8 0 3.2.5 4.2 1.6s1.5 2.7 1.6 4.7l-.1 2.1h-8.4c.2 2.1 1.2 3.1 3.1 3.1 1.3 0 2.7-.2 4.2-.7l.6 2.5c-.6.2-1.4.4-2.4.6-1 .2-1.8.2-2.4.2-4.2 0-6.3-2.4-6.3-7.1 0-2.3.5-4.1 1.5-5.2 1.1-1.2 2.6-1.8 4.4-1.8zm-2.7 6h5.3c0-2.3-.8-3.4-2.5-3.4-.9 0-1.6.3-2 .8-.4.5-.7 1.4-.8 2.6zm2.7-6.5c-2 0-3.5.7-4.7 2-1.1 1.3-1.7 3.2-1.7 5.6 0 5 2.3 7.6 6.7 7.6.7 0 1.5-.1 2.5-.2 1-.2 1.8-.4 2.4-.6l.4-.1-.8-3.4-.5.2c-1.4.5-2.8.7-4 .7-1.5 0-2.3-.7-2.5-2.1h8.3l.1-2.6c0-2.2-.6-3.9-1.7-5.1-1-1.4-2.5-2-4.5-2zm-2.1 6c.1-.8.3-1.5.6-1.8.4-.4.9-.6 1.6-.6.8 0 1.9.3 2 2.4H113z" fill="#666"/><path d="M131.4 400.5l-.1-.1c-.9-2-1.9-3.8-3.1-5.7l-1.6.2v5.6h-3.4V381h3.4v10.9l1.5-.2c1-1.4 2-2.8 2.7-4.3l.5-.9h3.7l-.2.3c-1.2 2.5-2.5 4.6-3.9 6.3 1.2 1.7 2.4 3.7 3.6 6l.8 1.4h-3.9" fill="#FFF"/><path d="M126.3 381.3v10.9l1.9-.2c1.1-1.4 2-2.9 2.8-4.5l.4-.8h3.2c-1.2 2.5-2.5 4.7-4 6.3 1.2 1.7 2.4 3.8 3.7 6.1l.6 1.1h-3.3c-.9-2-2-3.9-3.2-5.8l-2 .2v5.6h-2.9v-19h2.8m.5-.4h-3.9v20h3.9v-5.6l1.3-.1c1.1 1.8 2.1 3.6 3 5.5l.1.3h4.5l-.9-1.8c-1.2-2.2-2.3-4.2-3.5-5.9 1.4-1.7 2.7-3.8 3.8-6.2l.3-.7h-4.3l-.5 1.1c-.7 1.5-1.6 2.9-2.6 4.2l-1.1.1-.1-10.9" fill="#666"/><path d="M140.9 400.8c-1.7 0-3.5-.3-5.4-.9l-.2-.1.7-3.1.2.1c1.8.6 3.2.8 4.2.8s1.7-.1 2.1-.3c.3-.2.4-.4.4-.8s-.1-.7-.4-.9c-.3-.2-1-.4-1.9-.6-1.9-.5-3.3-1-4-1.6-.8-.6-1.2-1.6-1.2-3 0-2.9 1.9-4.3 5.5-4.3 1.5 0 3.3.3 5.3.8l.2.1-.6 3.2-.3-.1c-1.9-.5-3.3-.8-4.3-.8-1.2 0-1.7.1-2 .2-.3.1-.4.4-.4.7 0 .4.1.6.4.7.3.2 1.2.5 2.7.9 1.5.4 2.6.9 3.3 1.4.7.6 1.1 1.5 1.1 2.9.2 3.2-1.7 4.7-5.4 4.7" fill="#FFF"/><path d="M141 386.5c1.5 0 3.2.2 5.2.7l-.5 2.7c-1.9-.5-3.3-.8-4.4-.8-1 0-1.7.1-2.1.3-.4.2-.5.5-.5.9s.2.8.5 1c.4.2 1.3.5 2.7.9 1.5.4 2.5.9 3.2 1.4.7.5 1 1.4 1 2.7 0 2.9-1.8 4.3-5.3 4.3-1.7 0-3.4-.3-5.4-.9l.6-2.6c1.8.6 3.2.9 4.3.9 1.1 0 1.8-.1 2.2-.3.4-.2.6-.5.6-1s-.2-.8-.5-1.1c-.3-.2-1-.4-1.9-.7-1.9-.5-3.2-1-3.9-1.5-.7-.6-1.1-1.5-1.1-2.8 0-2.8 1.8-4.1 5.3-4.1m0-.5c-4.8 0-5.7 2.5-5.7 4.6 0 1.4.4 2.5 1.3 3.1.8.6 2.2 1.1 4.1 1.6 1.1.3 1.6.5 1.8.6.1.1.3.2.3.6 0 .4-.2.5-.3.6-.2.1-.7.3-2 .3-1 0-2.4-.3-4.2-.8l-.5-.2-.9 3.5.4.1c1.9.6 3.8.9 5.5.9 4.8 0 5.8-2.6 5.8-4.8 0-1.4-.4-2.4-1.2-3.1-.7-.6-1.9-1-3.4-1.5-1.8-.5-2.4-.7-2.6-.9-.1-.1-.3-.2-.3-.5s.1-.4.3-.5c.2-.1.6-.2 1.9-.2 1 0 2.4.3 4.2.8l.5.1.7-3.7-.4-.1c-2-.3-3.8-.5-5.3-.5" fill="#666"/></g><path d="M33.5 400.2h7.2m0 0h5.5v3.6H53v-3.6h1.5c2 0 3.9-1 5-2.5v6.1h6.8v-3.6h1.5c3.5 0 6.3-2.8 6.3-6.3v-4.3c0-3.5-2.8-6.3-6.3-6.3H46.2v2.4c-1.2-1.5-2.9-2.4-4.9-2.4H26.4v2.1c-1-1.3-2.6-2.1-4.4-2.1h-8.6v-5H6.6v19.4H1l3.4 6.9h2.8c3.3 0 6-2.6 6.1-5.8 1 .9 2.4 1.5 3.9 1.5H33.5" stroke="#666" stroke-width=".5"/><g fill-rule="nonzero" fill="#373865"><path d="M54.5 385.3h-6.3v16.5H51v-3.6h3.5c2.4 0 4.3-1.9 4.3-4.3v-4.3c0-2.4-1.9-4.3-4.3-4.3zm1.5 8.6c0 .8-.6 1.4-1.4 1.4H51v-7.2h3.6c.8 0 1.4.6 1.4 1.4v4.4zM67.8 385.3h-6.3v16.5h2.8v-3.6h3.5c2.4 0 4.3-1.9 4.3-4.3v-4.3c0-2.4-1.9-4.3-4.3-4.3zm1.5 8.6c0 .8-.6 1.4-1.4 1.4h-3.6v-7.2h3.6c.8 0 1.4.6 1.4 1.4v4.4zM8.6 380.3h2.8v2.9H8.6zM41.2 385.3H28.3v12.9h2.9v-10h4.3v10h2.9v-10h2.9c.8 0 1.4.6 1.4 1.4v8.6h2.9v-8.6c-.1-2.4-2-4.3-4.4-4.3M8.6 398.2c0 .8-.6 1.4-1.4 1.4H4.3l1.4 2.9h1.6c2.3 0 4.2-1.9 4.2-4.2v-13H8.7v12.9h-.1zM22 385.3h-7.7l1.4 2.8h5.5c.8 0 1.4.6 1.4 1.4v.9h-5.4c-2.2 0-3.9 1.7-3.9 3.9s1.7 3.9 3.9 3.9h8.3v-9.3c.1-2-1.5-3.6-3.5-3.6zm.7 10.1h-5.3c-.6 0-1.1-.5-1.1-1.1 0-.6.5-1.1 1.1-1.1h5.3v2.2z"/></g></g></g></svg>