<?xml version="1.0" encoding="UTF-8" standalone="no"?><svg width="314" height="474" viewBox="0 0 314 474" xmlns="http://www.w3.org/2000/svg" xmlns:xlink="http://www.w3.org/1999/xlink"><svg width="11" height="19" viewBox="-1 -1 11 19" id="facebook"><path d="M8.354 5.62L8.16 8.166H5.55V17H2.257V8.165H.5V5.62h1.757V3.915c0-.753.02-1.915.567-2.635C3.4.517 4.19 0 5.552 0c2.217 0 3.15.316 3.15.316l-.44 2.604s-.73-.21-1.414-.21c-.684 0-1.296.244-1.296.926V5.62h2.802z" fill="#B4B4B4" fill-rule="evenodd"/></svg><svg width="11" height="19" viewBox="-1 -1 11 19" id="facebook-active" y="19"><path d="M8.354 5.62L8.16 8.166H5.55V17H2.257V8.165H.5V5.62h1.757V3.915c0-.753.02-1.915.567-2.635C3.4.517 4.19 0 5.552 0c2.217 0 3.15.316 3.15.316l-.44 2.604s-.73-.21-1.414-.21c-.684 0-1.296.244-1.296.926V5.62h2.802z" fill="#3A579D" fill-rule="evenodd"/></svg><svg width="11" height="19" viewBox="-1 -1 11 19" id="facebook-social" y="38"><path d="M7.854 5.62L7.66 8.166H5.05V17H1.757V8.165H0V5.62h1.757V3.915c0-.753.02-1.915.567-2.635C2.9.517 3.69 0 5.052 0c2.217 0 3.15.316 3.15.316l-.44 2.604s-.73-.21-1.414-.21c-.684 0-1.296.244-1.296.926V5.62h2.802z" fill="#65b9e8" fill-rule="evenodd"/></svg><svg width="11" height="19" viewBox="-1 -1 11 19" id="facebook-social-active" y="57"><path d="M7.854 5.62L7.66 8.166H5.05V17H1.757V8.165H0V5.62h1.757V3.915c0-.753.02-1.915.567-2.635C2.9.517 3.69 0 5.052 0c2.217 0 3.15.316 3.15.316l-.44 2.604s-.73-.21-1.414-.21c-.684 0-1.296.244-1.296.926V5.62h2.802z" fill="#3A579D" fill-rule="evenodd"/></svg><svg width="6" height="20" viewBox="-1 -1 6 20" id="icon-dots" y="76"><path d="M2 4C.9 4 0 3.1 0 2s.9-2 2-2 2 .9 2 2-.9 2-2 2zm0 7c-1.1 0-2-.9-2-2s.9-2 2-2 2 .9 2 2-.9 2-2 2zm0 3c1.1 0 2 .9 2 2s-.9 2-2 2-2-.9-2-2 .9-2 2-2z" fill="#65B9E8" fill-rule="evenodd"/></svg><svg width="17" height="17" viewBox="-1 -1 17 17" id="icon-geek" y="96"><path d="M9 14h5v1H9v-1zm0-6h5v1H9V8zm5 1h1v5h-1V9zM8 9h1v5H8V9zm-7 5h5v1H1v-1zm0-6h5v1H1V8zm5 1h1v5H6V9zM0 9h1v5H0V9zm9-3h5v1H9V6zm0-6h5v1H9V0zm5 1h1v5h-1V1zM8 1h1v5H8V1zM1 6h5v1H1V6zm0-6h5v1H1V0zm5 1h1v5H6V1zM0 1h1v5H0V1z" fill="#A8C7D6" fill-rule="evenodd"/></svg><svg width="102" height="102" viewBox="-1 -1 102 102" id="icon-play" y="113"><path d="M50 0C22.386 0 0 22.386 0 50s22.386 50 50 50 50-22.386 50-50S77.614 0 50 0zm0 90.625C27.563 90.625 9.375 72.437 9.375 50S27.563 9.375 50 9.375 90.625 27.563 90.625 50 72.437 90.625 50 90.625zm-12.5-62.5L75 50 37.5 71.875v-43.75z" fill="#FFF" fill-rule="evenodd"/></svg><svg width="19" height="19" viewBox="-1 -1 19 19" id="icon-search" y="215"><path d="M16.7 15.2L12.5 11c.8-1.1 1.3-2.6 1.3-4.1 0-3.8-3.1-6.9-6.9-6.9C3.1 0 0 3.1 0 6.9c0 3.8 3.1 6.9 6.9 6.9 1.5 0 2.9-.5 4.1-1.3l4.2 4.2c.2.2.4.3.7.3.3 0 .5-.1.7-.3.5-.4.5-1.1.1-1.5zm-9.8-3.5c-2.7 0-4.8-2.1-4.8-4.8 0-2.7 2.1-4.8 4.8-4.8 2.7 0 4.8 2.1 4.8 4.8 0 2.7-2.1 4.8-4.8 4.8z" fill="#FFF" fill-rule="evenodd"/></svg><svg width="21" height="19" viewBox="-1 -1 21 19" id="linkedin" y="234"><path d="M.466 5.45h3.61V17H.466V5.45zm1.712-1.443h-.026C.847 4.007 0 3.124 0 2.005 0 .865.872 0 2.204 0c1.33 0 2.15.862 2.176 2.002 0 1.12-.845 2.005-2.202 2.005zM18.513 17H14.42v-5.976c0-1.564-.638-2.632-2.046-2.632-1.077 0-1.675.72-1.953 1.415-.104.25-.09.596-.09.944V17H6.28s.053-10.586 0-11.55h4.053v1.814c.242-.793 1.536-1.924 3.605-1.924 2.564 0 4.578 1.662 4.578 5.24V17z" fill="#B4B4B4" fill-rule="evenodd"/></svg><svg width="21" height="19" viewBox="-1 -1 21 19" id="linkedin-active" y="253"><path d="M.466 5.45h3.61V17H.466V5.45zm1.712-1.443h-.026C.847 4.007 0 3.124 0 2.005 0 .865.872 0 2.204 0c1.33 0 2.15.862 2.176 2.002 0 1.12-.845 2.005-2.202 2.005zM18.513 17H14.42v-5.976c0-1.564-.638-2.632-2.046-2.632-1.077 0-1.675.72-1.953 1.415-.104.25-.09.596-.09.944V17H6.28s.053-10.586 0-11.55h4.053v1.814c.242-.793 1.536-1.924 3.605-1.924 2.564 0 4.578 1.662 4.578 5.24V17z" fill="#0274B3" fill-rule="evenodd"/></svg><svg width="21" height="19" viewBox="-1 -1 21 19" id="linkedin-social" y="272"><path d="M.466 5.45h3.61V17H.466V5.45zm1.712-1.443h-.026C.847 4.007 0 3.124 0 2.005 0 .865.872 0 2.204 0c1.33 0 2.15.862 2.176 2.002 0 1.12-.845 2.005-2.202 2.005zM18.513 17H14.42v-5.976c0-1.564-.638-2.632-2.046-2.632-1.077 0-1.675.72-1.953 1.415-.104.25-.09.596-.09.944V17H6.28s.053-10.586 0-11.55h4.053v1.814c.242-.793 1.536-1.924 3.605-1.924 2.564 0 4.578 1.662 4.578 5.24V17z" fill="#65b9e8" fill-rule="evenodd"/></svg><svg width="21" height="19" viewBox="-1 -1 21 19" id="linkedin-social-active" y="291"><path d="M.466 5.45h3.61V17H.466V5.45zm1.712-1.443h-.026C.847 4.007 0 3.124 0 2.005 0 .865.872 0 2.204 0c1.33 0 2.15.862 2.176 2.002 0 1.12-.845 2.005-2.202 2.005zM18.513 17H14.42v-5.976c0-1.564-.638-2.632-2.046-2.632-1.077 0-1.675.72-1.953 1.415-.104.25-.09.596-.09.944V17H6.28s.053-10.586 0-11.55h4.053v1.814c.242-.793 1.536-1.924 3.605-1.924 2.564 0 4.578 1.662 4.578 5.24V17z" fill="#0274B3" fill-rule="evenodd"/></svg><svg width="314" height="31" viewBox="-1 -1 314 31" id="logo" y="310"><g fill="none" fill-rule="evenodd"><g transform="translate(171 8)" fill="#666"><path d="M7.6 8.2L.7 4l.5-.8 7.6 4.7v.6l-7.6 4.9-.5-.8 6.9-4.4zM13 9.3c0-3.3 1.3-4.9 3.8-4.9s3.8 1.6 3.8 4.9c0 3.3-1.3 4.9-3.8 4.9S13 12.6 13 9.3zm3.8-3.9c-1.8 0-2.7 1.3-2.7 3.9 0 2.6.9 3.9 2.7 3.9 1.8 0 2.7-1.3 2.7-3.9 0-2.6-.9-3.9-2.7-3.9zM29.3 14v-.8c-1.3.7-2.3 1-3.2 1-.9 0-1.5-.3-2-.9-.5-.6-.7-1.4-.7-2.4V4.5h1.1v6.4c0 .7.2 1.2.5 1.6.3.4.8.6 1.4.6.6 0 1.6-.3 3-1V4.5h1.1V14h-1.2zM33.5 14v-1h2.3V5.5h-2.3v-1h3.3v1.2c.4-.3 1-.5 1.8-.8.8-.3 1.5-.4 2-.5h.2v1.2h-.2c-.5 0-1.2.2-2 .4s-1.4.5-1.8.7V13H40v1h-6.5zM53 5.8v-1h1.9V2.4l1.1-.2v2.6h4.6v1H56v4.6c0 1 .1 1.7.5 2.2.3.4.8.7 1.6.7.3 0 .7 0 1.4-.1.6-.1 1-.2 1.3-.3l.2 1c-.3.1-.7.2-1.4.3-.7.1-1.2.2-1.5.2-1.2 0-2-.3-2.5-1-.4-.6-.7-1.6-.7-2.9V5.9H53v-.1zM63.2 9.3c0-1.5.3-2.7 1-3.6.6-.9 1.6-1.3 2.8-1.3 1.2 0 2.1.4 2.7 1.2.6.8.9 1.9.9 3.2l-.1 1h-6.1c.1 1 .3 1.8.8 2.4.5.6 1.1.9 1.9.9.8 0 1.8-.2 2.9-.6l.3 1c-1.1.4-2.1.6-3 .6-1.3 0-2.3-.4-3-1.3-.7-.9-1.1-2-1.1-3.5zM67 5.4c-1.7 0-2.6 1.1-2.7 3.4h5c.1-2.3-.7-3.4-2.3-3.4zM80 4.8l-.2 1c-.8-.3-1.6-.4-2.3-.4-1 0-1.7.3-2.2 1-.5.7-.7 1.6-.7 2.8 0 1.2.2 2.1.7 2.8.5.7 1.2 1 2.1 1 .6 0 1.4-.2 2.4-.5l.3 1c-1 .4-1.9.6-2.7.6-1.3 0-2.3-.4-3-1.3-.7-.9-1-2.1-1-3.7s.3-2.8 1-3.6c.7-.8 1.7-1.2 3-1.2.9.1 1.7.2 2.6.5zM84.5 6.3v7.8h-1.1V.8h1.1v4.5c1.3-.6 2.3-.8 3.1-.8 1.9 0 2.9 1.1 2.9 3.3v6.3h-1.1V7.8c0-.7-.1-1.2-.4-1.6-.3-.4-.8-.6-1.5-.6-.8-.2-1.8.1-3 .7zM103.4 14V.7h1.1v4.7c1-.7 1.9-1 2.7-1 1.2 0 2.1.4 2.8 1.2.7.8 1 2 1 3.5s-.4 2.7-1.1 3.7c-.7.9-1.7 1.4-3 1.4-.8 0-1.6-.2-2.4-.6v.4h-1.1zm6.4-4.8c0-1.2-.2-2.1-.7-2.7-.5-.6-1.1-1-2-1-.9 0-1.8.4-2.7 1.1v6c.3.1.7.3 1.2.4.5.1.9.2 1.2.2.9 0 1.7-.4 2.2-1.1.5-.8.8-1.8.8-2.9zM113.7 14v-1h3.1V1.7h-3v-1h4.1V13h3.2v1h-7.4zM123 9.3c0-3.3 1.3-4.9 3.8-4.9s3.8 1.6 3.8 4.9c0 3.3-1.3 4.9-3.8 4.9s-3.8-1.6-3.8-4.9zm3.8-3.9c-1.8 0-2.7 1.3-2.7 3.9 0 2.6.9 3.9 2.7 3.9 1.8 0 2.7-1.3 2.7-3.9 0-2.6-.9-3.9-2.7-3.9zM133.9 12.8c-.6-.8-1-2-1-3.5s.4-2.7 1.1-3.6c.7-.9 1.7-1.3 3-1.3.7 0 1.5.2 2.4.7v-.6h1v7.2c.2 1.6.3 2.5.3 2.8 0 1.2-.4 2.1-1.2 2.7-.8.6-1.7.9-2.8.9-1.1 0-2.3-.3-3.6-.8l.4-1c1.3.5 2.4.8 3.2.8.8 0 1.5-.2 2.1-.6.6-.4.9-1 .9-1.9l-.2-1.6c-1.1.7-2 1.1-2.8 1.1-1.3-.1-2.2-.5-2.8-1.3zm.9-6.4c-.5.7-.8 1.6-.8 2.8 0 1.2.2 2.1.7 2.8.5.7 1.1 1 2 1 .9 0 1.7-.4 2.7-1.2V6.2c-.9-.5-1.6-.8-2.3-.8-1 0-1.8.3-2.3 1z"/></g><g transform="translate(55 11)"><path d="M1.4 5.8l-.2-.2V1.4l.2-.2h3.4c.6 0 1.1.5 1.1 1.1v2.6c0 .6-.5 1.1-1.1 1.1H1.4v-.2z" fill="#FFF"/><path d="M4.8 1.3c.4 0 .8.4.8.8v2.6c0 .4-.4.8-.8.8H1.4V1.3h3.4zm0-.5H1.4l-.5.5v4.2l.5.5h3.4c.7 0 1.3-.6 1.3-1.3V2.1c0-.7-.6-1.3-1.3-1.3z" fill="#666"/></g><path d="M4.1 28.7l-.2-.2-2.7-8.2.2-.3h4.8V2.2l.2-.2h8.2l.2.2v4h11.3c.9 0 1.8.3 2.5.8V.5l.2-.2h17.5c2.8 0 5.1 2.3 5.1 5.1V6h26.9c2.3 0 4.2 1.9 4.2 4.2V19c0 2.3-1.9 4.2-4.2 4.2H74v4l-.2.2h-8.2l-.2-.2v-4.9c-.7.6-1.6.9-2.6.9h-4.3v4l-.2.2h-8.2l-.2-.2v-9.6H30.4v7.1l-.2.2H17c-.8 0-1.5-.2-2.1-.7-.4 2.6-2.7 4.7-5.4 4.7H4.1v-.2z" fill="#FFF"/><path d="M46.5.5c2.7 0 4.8 2.2 4.8 4.8v.8h27.2c2.2 0 3.9 1.8 3.9 3.9v8.8c0 2.2-1.8 3.9-3.9 3.9H74v4.2h-8.2v-5.4c-.7.7-1.7 1.2-2.8 1.2h-4.5v4.2h-8.2V17H30.2v7.3H17c-.9 0-1.7-.4-2.3-.9-.2 2.7-2.4 4.9-5.2 4.9H4.3l-.5-1.4-1.4-4.2-.9-2.6h5V2.2h8.2v4.2H26.3c1.1 0 2 .4 2.8 1.1v-7h17.4zm0-.5H29l-.5.5v6c-.7-.4-1.5-.6-2.3-.6H15.1V2.2l-.5-.5H6.4l-.5.5v17.5H1.4l-.5.7.9 2.6 1.4 4.2.5 1.4.5.3H9.4c2.7 0 5-1.9 5.6-4.5.6.3 1.3.5 2 .5h13.2l.5-.5v-6.8h18.8V27l.5.5h8.2l.5-.5v-3.7h4c.8 0 1.6-.2 2.3-.7V27l.5.5h8.2l.5-.5v-3.7h4c2.4 0 4.4-2 4.4-4.4V10c0-2.4-2-4.4-4.4-4.4H51.5v-.3c.3-2.9-2.1-5.3-5-5.3z" fill="#666"/><g transform="translate(71 11)"><path d="M1 5.8l-.2-.2V1.4l.2-.2h3.4c.6 0 1.1.5 1.1 1.1v2.6C5.5 5.5 5 6 4.4 6H1v-.2z" fill="#FFF"/><path d="M4.4 1.3c.4 0 .8.4.8.8v2.6c0 .4-.4.8-.8.8H1V1.3h3.4zm0-.5H1l-.5.5v4.2L1 6h3.4c.7 0 1.3-.6 1.3-1.3V2.1c0-.7-.6-1.3-1.3-1.3z" fill="#666"/></g><g transform="translate(19 17)"><path d="M1.4 2.2c-.5 0-.9-.4-.9-.9s.4-1 .9-1h3.5l.2.2v1.4l-.2.2H1.4v.1z" fill="#FFF"/><path d="M4.9.5v1.4H1.4c-.4 0-.7-.3-.7-.7 0-.4.3-.7.7-.7h3.5zm0-.5H1.4C.7 0 .2.5.2 1.2s.5 1.2 1.2 1.2h3.5l.5-.5V.5L4.9 0z" fill="#666"/></g><path d="M52.1 8.1V25h4.2v-4.2h6.5c1.1 0 1.9-.9 1.9-1.9V10c0-1.1-.9-1.9-1.9-1.9H52.1zm7.7 8.5h-3.4v-4.2h3.4c.4 0 .8.4.8.8v2.6c0 .4-.4.8-.8.8zM6.7 22.2H4.2l1.4 4.2h3.8c1.8 0 3.2-1.4 3.2-3.2V8.1H8.4v12.4c0 1-.8 1.7-1.7 1.7zM8.4 4.2h4.2V7H8.4zM31 2.5v12.7h4.2V6.7H38v8.5h4.2V6.7h1.6c.7 0 1.2.5 1.2 1.2v7.3h4.2V5.3c0-1.6-1.3-2.8-2.8-2.8H31zM67.7 8.1V25h4.2v-4.2h6.5c1.1 0 1.9-.9 1.9-1.9V10c0-1.1-.9-1.9-1.9-1.9H67.7zm7.7 8.5H72v-4.2h3.4c.4 0 .8.4.8.8v2.6c0 .4-.4.8-.8.8zM15.4 8.4v4.2h8.5V14h-7c-.8 0-1.5.7-1.5 1.5V21c0 .8.7 1.5 1.5 1.5h11.2V10.3c0-1.1-.9-1.9-1.9-1.9H15.4zM23.9 19h-3.5c-.4 0-.7-.3-.7-.7 0-.4.3-.7.7-.7h3.5V19z" fill="#65B9E7"/><g transform="translate(90 1)"><g transform="translate(1 1)" fill="#666"><path d="M7.8 21.5c-2.6 0-4.5-.8-5.7-2.4C.9 17.5.3 14.9.3 11.4s.6-6.1 1.8-7.8c1.2-1.7 3.2-2.5 5.8-2.5 2 0 3.9.3 5.5.8l.2.3-.5 2.6-.3.2c-1.3-.5-3-.7-4.8-.7-1.5 0-2.5.5-3.1 1.6C4.3 7 4 8.8 4 11.2s.3 4.3 1 5.4c.6 1.1 1.6 1.6 2.8 1.6.9 0 1.8-.1 2.8-.3v-4.1H8.1l-.2-.2v-2.7l.2-.2h5.7l.2.2v9.5l-.2.2c-1.8.6-3.8.9-6 .9z"/><path d="M8 1.3c2 0 3.8.3 5.4.8l-.5 2.6C11.5 4.2 9.9 4 8 4c-1.6 0-2.7.6-3.3 1.7-.6 1.1-1 2.9-1 5.4 0 2.5.3 4.3 1 5.5.7 1.2 1.7 1.7 3.1 1.7 1 0 2-.1 3-.4v-4.6H8v-2.7h5.7v9.5c-1.9.7-3.9 1-6 1-2.5 0-4.3-.8-5.5-2.3C1 17.2.5 14.7.5 11.2s.6-6 1.8-7.6C3.6 2.1 5.5 1.3 8 1.3zm0-.5c-2.7 0-4.7.9-6 2.6C.7 5.1.1 7.7.1 11.3c0 3.6.6 6.2 1.8 7.9 1.2 1.7 3.2 2.5 5.9 2.5 2.2 0 4.3-.3 6.2-1l.3-.5v-9.5l-.5-.5H8.1l-.5.5v2.7l.5.5h2.3v3.7c-.9.2-1.7.3-2.5.3-1.2 0-2-.5-2.6-1.5-.6-1.1-1-2.8-1-5.2 0-2.4.3-4.2.9-5.2.5-1 1.5-1.4 2.9-1.4 1.8 0 3.4.2 4.7.7l.7-.4.5-2.6-.3-.6C12 1.1 10.1.8 8 .8zM21.9 21.6c-4.5 0-6.7-2.6-6.7-7.6 0-2.4.6-4.3 1.7-5.6 1.1-1.3 2.7-1.9 4.6-1.9 2 0 3.5.6 4.6 1.8 1.1 1.2 1.6 2.9 1.7 5.1l-.1 2.2-.2.2H19c.2 1.8 1.2 2.7 2.9 2.7 1.3 0 2.8-.2 4.2-.7l.3.2.6 2.6-.2.3c-.6.2-1.5.4-2.5.6-.8 0-1.7.1-2.4.1zm2.1-8.9c-.1-2-.8-3-2.3-3-.9 0-1.5.2-1.9.7-.4.5-.6 1.2-.7 2.3H24z"/><path d="M21.5 6.7c1.9 0 3.4.6 4.4 1.7 1 1.1 1.6 2.7 1.6 4.9l-.1 2.2h-8.6c.2 2.1 1.2 3.2 3.2 3.2 1.4 0 2.8-.2 4.3-.7l.6 2.6c-.6.2-1.4.4-2.5.6-1 .2-1.8.3-2.5.3-4.3 0-6.5-2.4-6.5-7.3 0-2.4.5-4.2 1.6-5.4 1.1-1.5 2.6-2.1 4.5-2.1zM18.7 13h5.5c0-2.3-.9-3.5-2.6-3.5-.9 0-1.6.3-2.1.8-.4.5-.7 1.4-.8 2.7zm2.8-6.8c-2 0-3.7.7-4.8 2C15.6 9.5 15 11.5 15 14c0 5.2 2.3 7.8 7 7.8.7 0 1.5-.1 2.6-.3 1-.2 1.9-.4 2.5-.6l.3-.6-.6-2.6-.6-.4c-1.5.5-2.9.7-4.2.7-1.5 0-2.4-.7-2.6-2.2h8.1l.5-.5.1-2.2c0-2.3-.6-4.1-1.7-5.3-1.3-1-2.9-1.6-4.9-1.6zm-2.2 6.3c.1-.9.3-1.5.6-1.9.4-.4.9-.6 1.7-.6.8 0 1.9.3 2.1 2.5h-4.4zM35.3 21.6c-4.5 0-6.7-2.6-6.7-7.6 0-2.4.6-4.3 1.7-5.6 1.1-1.3 2.7-1.9 4.6-1.9 2 0 3.5.6 4.6 1.8 1.1 1.2 1.6 2.9 1.7 5.1l-.1 2.2-.2.2h-8.4c.2 1.8 1.2 2.7 2.9 2.7 1.3 0 2.8-.2 4.2-.7l.3.2.6 2.6-.2.3c-.6.2-1.5.4-2.5.6-1 0-1.9.1-2.5.1zm2-8.9c-.1-2-.8-3-2.3-3-.9 0-1.5.2-1.9.7-.4.5-.6 1.2-.7 2.3h4.9z"/><path d="M34.8 6.7c1.9 0 3.4.6 4.4 1.7 1 1.1 1.6 2.7 1.6 4.9l-.1 2.2h-8.6c.2 2.1 1.2 3.2 3.2 3.2 1.4 0 2.8-.2 4.3-.7l.6 2.6c-.6.2-1.4.4-2.5.6-1 .2-1.8.3-2.5.3-4.3 0-6.5-2.4-6.5-7.3 0-2.4.5-4.2 1.6-5.4 1.1-1.5 2.6-2.1 4.5-2.1zM32.1 13h5.5c0-2.3-.9-3.5-2.6-3.5-.9 0-1.6.3-2.1.8s-.8 1.4-.8 2.7zm2.7-6.8c-2 0-3.7.7-4.8 2-1.1 1.3-1.7 3.3-1.7 5.8 0 5.2 2.3 7.8 7 7.8.7 0 1.5-.1 2.6-.3 1-.2 1.9-.4 2.5-.6l.3-.6-.6-2.6-.6-.4c-1.5.5-2.9.7-4.2.7-1.5 0-2.4-.7-2.6-2.2h8.1l.5-.5.1-2.2c0-2.3-.6-4.1-1.7-5.3-1.3-1-2.9-1.6-4.9-1.6zm-2.2 6.3c.1-.9.3-1.5.6-1.9.4-.4.9-.6 1.7-.6.8 0 1.9.3 2.1 2.5h-4.4zM51.8 21.3l-.2-.1c-.9-2-2-4-3.2-5.8l-1.7.2v5.6l-.2.2h-3l-.2-.2V1.5l.2-.2h3l.2.2v11l1.6-.2c1.1-1.4 2-2.9 2.8-4.5l.4-.8.2-.1H55l.2.4c-1.2 2.6-2.6 4.7-4.1 6.5 1.2 1.8 2.5 3.9 3.7 6.2l.6 1.1-.2.4h-3.4v-.2z"/><path d="M46.4 1.3v11.3l2-.2c1.1-1.4 2.1-3 2.9-4.6l.4-.8H55c-1.2 2.6-2.6 4.8-4.1 6.6 1.3 1.8 2.5 3.9 3.8 6.4l.6 1.1h-3.5c-1-2.1-2.1-4.1-3.3-6l-2.1.2v5.8h-3V1.4h3v-.1zm0-.5h-3l-.5.5V21l.5.5h3l.5-.5v-5.3l1.3-.1c1.2 1.8 2.2 3.7 3.1 5.7l.5.3h3.5l.4-.7-.6-1.1c-1.2-2.3-2.4-4.4-3.6-6.1 1.4-1.7 2.8-3.9 4-6.4l-.5-.7h-3.3l-.4.3-.4.8c-.8 1.6-1.7 3-2.7 4.4l-1.2.1V1.5l-.6-.7zM61.5 21.5c-1.7 0-3.6-.3-5.6-1l-.2-.3.7-2.7.3-.2c1.8.6 3.3.9 4.4.9 1.1 0 1.8-.1 2.1-.3.3-.2.5-.4.5-.8s-.1-.7-.4-.9c-.3-.2-1-.4-1.9-.7-2-.5-3.4-1-4.2-1.6-.8-.6-1.3-1.7-1.3-3.1 0-3 1.9-4.5 5.7-4.5 1.6 0 3.4.3 5.5.8l.2.3-.6 2.8-.3.2c-1.9-.5-3.4-.8-4.5-.8-1.3 0-1.8.1-2 .3-.3.1-.4.4-.4.7 0 .4.1.6.4.8.3.2 1.3.5 2.8.9 1.5.4 2.7.9 3.4 1.5.8.6 1.2 1.6 1.2 3 0 3.2-2 4.7-5.8 4.7z"/><path d="M61.6 6.7c1.6 0 3.4.3 5.4.8l-.6 2.8c-2-.6-3.5-.8-4.5-.8-1.1 0-1.8.1-2.1.3-.4.2-.5.5-.5 1s.2.8.5 1c.4.2 1.3.5 2.8.9 1.5.4 2.6.9 3.3 1.4.7.5 1.1 1.5 1.1 2.8 0 3-1.8 4.5-5.5 4.5-1.7 0-3.6-.3-5.5-.9l.7-2.7c1.9.6 3.4.9 4.5.9s1.9-.1 2.2-.3c.4-.2.6-.6.6-1.1 0-.5-.2-.9-.5-1.1-.4-.2-1-.4-2-.7-2-.5-3.3-1-4.1-1.6-.8-.6-1.2-1.5-1.2-2.9-.1-2.9 1.8-4.3 5.4-4.3zm0-.5c-4.9 0-5.9 2.6-5.9 4.7 0 1.5.5 2.6 1.4 3.3.8.6 2.2 1.2 4.3 1.7 1.2.3 1.7.5 1.9.6.1.1.3.2.3.7 0 .4-.2.5-.3.6-.2.1-.7.3-2 .3-1 0-2.5-.3-4.3-.9l-.6.4-.7 2.7.3.6c2 .6 3.9 1 5.7 1 5 0 6-2.7 6-5 0-1.5-.4-2.5-1.3-3.2-.8-.6-1.9-1.1-3.5-1.5-1.8-.5-2.5-.8-2.7-.9-.1-.1-.3-.2-.3-.6 0-.3.1-.4.3-.5.2-.1.6-.2 1.9-.2 1 0 2.5.3 4.4.8l.6-.4.6-2.8-.4-.6c-2.3-.5-4.1-.8-5.7-.8z"/></g><path d="M7.8 21.5c-2.6 0-4.5-.8-5.7-2.4C.9 17.5.3 14.9.3 11.4s.6-6.1 1.8-7.8c1.2-1.7 3.2-2.5 5.8-2.5 2 0 3.9.3 5.5.8l.2.3-.5 2.6-.3.2c-1.3-.5-3-.7-4.8-.7-1.5 0-2.5.5-3.1 1.6C4.3 7 4 8.8 4 11.2s.3 4.3 1 5.4c.6 1.1 1.6 1.6 2.8 1.6.9 0 1.8-.1 2.8-.3v-4.1H8.1l-.2-.2v-2.7l.2-.2h5.7l.2.2v9.5l-.2.2c-1.8.6-3.8.9-6 .9z" fill="#FFF"/><path d="M8 1.3c2 0 3.8.3 5.4.8l-.5 2.6C11.5 4.2 9.9 4 8 4c-1.6 0-2.7.6-3.3 1.7-.6 1.1-1 2.9-1 5.4 0 2.5.3 4.3 1 5.5.7 1.2 1.7 1.7 3.1 1.7 1 0 2-.1 3-.4v-4.6H8v-2.7h5.7v9.5c-1.9.7-3.9 1-6 1-2.5 0-4.3-.8-5.5-2.3C1 17.2.5 14.7.5 11.2s.6-6 1.8-7.6C3.6 2.1 5.5 1.3 8 1.3zm0-.5c-2.7 0-4.7.9-6 2.6C.7 5.1.1 7.7.1 11.3c0 3.6.6 6.2 1.8 7.9 1.2 1.7 3.2 2.5 5.9 2.5 2.2 0 4.3-.3 6.2-1l.3-.5v-9.5l-.5-.5H8.1l-.5.5v2.7l.5.5h2.3v3.7c-.9.2-1.7.3-2.5.3-1.2 0-2-.5-2.6-1.5-.6-1.1-1-2.8-1-5.2 0-2.4.3-4.2.9-5.2.5-1 1.5-1.4 2.9-1.4 1.8 0 3.4.2 4.7.7l.7-.4.5-2.6-.3-.6C12 1.1 10.1.8 8 .8z" fill="#666"/><g transform="translate(15 6)"><path d="M7 15.6C2.5 15.6.3 13 .3 8 .3 5.6.9 3.7 2 2.4 3.1 1.1 4.7.5 6.6.5c2 0 3.5.6 4.6 1.8 1.1 1.2 1.6 2.9 1.7 5.1l-.1 2.2-.2.2H4c.2 1.8 1.2 2.7 2.9 2.7 1.3 0 2.8-.2 4.2-.7l.3.2.6 2.6-.2.3c-.6.2-1.5.4-2.5.6-.8 0-1.7.1-2.3.1zm2-8.8c-.1-2-.8-3-2.3-3-.9 0-1.5.2-1.9.7-.4.5-.6 1.2-.7 2.3H9z" fill="#FFF"/><path d="M6.5.7c1.9 0 3.4.6 4.4 1.7 1 1.1 1.6 2.7 1.6 4.9l-.1 2.2H3.8C4 11.6 5 12.7 7 12.7c1.4 0 2.8-.2 4.3-.7l.6 2.6c-.6.2-1.4.4-2.5.6-1 .2-1.8.3-2.5.3-4.3 0-6.5-2.4-6.5-7.3C.4 5.8.9 4 2 2.8 3.1 1.3 4.6.7 6.5.7zM3.8 7h5.5c0-2.3-.9-3.5-2.6-3.5-.9 0-1.6.3-2.1.8S3.8 5.7 3.8 7zM6.5.2c-2 0-3.7.7-4.8 2C.6 3.5 0 5.5 0 8c0 5.2 2.3 7.8 7 7.8.7 0 1.5-.1 2.6-.3 1-.2 1.9-.4 2.5-.6l.3-.6-.6-2.6-.6-.4c-1.5.5-2.9.7-4.2.7-1.5 0-2.4-.7-2.6-2.2h8.1l.5-.5.1-2.2c0-2.3-.6-4.1-1.7-5.3C10.1.8 8.5.2 6.5.2zM4.3 6.5c.1-.9.3-1.5.6-1.9.4-.4.9-.6 1.7-.6.8 0 1.9.3 2.1 2.5H4.3z" fill="#666"/></g><g transform="translate(28 6)"><path d="M7.3 15.6C2.8 15.6.6 13 .6 8c0-2.4.6-4.3 1.7-5.6C3.4 1.1 5 .5 6.9.5c2 0 3.5.6 4.6 1.8 1.1 1.2 1.6 2.9 1.7 5.1l-.1 2.2-.2.2H4.5c.2 1.8 1.2 2.7 2.9 2.7 1.3 0 2.8-.2 4.2-.7l.3.2.6 2.6-.2.3c-.6.2-1.5.4-2.5.6-1 0-1.9.1-2.5.1zm2-8.8c-.1-2-.8-3-2.3-3-.9 0-1.5.2-1.9.7-.4.5-.6 1.2-.7 2.3h4.9z" fill="#FFF"/><path d="M6.8.7c1.9 0 3.4.6 4.4 1.7 1 1.1 1.6 2.7 1.6 4.9l-.1 2.2H4.1c.2 2.1 1.2 3.2 3.2 3.2 1.4 0 2.8-.2 4.3-.7l.6 2.6c-.6.2-1.4.4-2.5.6-1 .2-1.8.3-2.5.3-4.3 0-6.5-2.4-6.5-7.3 0-2.4.5-4.2 1.6-5.4C3.5 1.3 4.9.7 6.8.7zM4.1 7h5.5c0-2.3-.9-3.5-2.6-3.5-.9 0-1.6.3-2.1.8S4.1 5.7 4.1 7zM6.8.2c-2 0-3.7.7-4.8 2C.9 3.5.3 5.5.3 8c0 5.2 2.3 7.8 7 7.8.7 0 1.5-.1 2.6-.3 1-.2 1.9-.4 2.5-.6l.3-.6-.6-2.6-.6-.4c-1.5.5-2.9.7-4.2.7-1.5 0-2.4-.7-2.6-2.2h8.1l.5-.5.1-2.2c0-2.3-.6-4.1-1.7-5.3C10.5.8 8.9.2 6.8.2zM4.6 6.5c.1-.9.3-1.5.6-1.9.4-.4.9-.6 1.7-.6.8 0 1.9.3 2.1 2.5H4.6z" fill="#666"/></g><g transform="translate(42)"><path d="M9.8 21.3l-.2-.1c-.9-2-2-4-3.2-5.8l-1.7.2v5.6l-.2.2h-3l-.2-.2V1.5l.2-.2h3l.2.2v11l1.6-.2c1.1-1.4 2-2.9 2.8-4.5l.4-.8.2-.1H13l.2.4C12 9.9 10.6 12 9.1 13.8c1.2 1.8 2.5 3.9 3.7 6.2l.6 1.1-.2.4H9.8v-.2z" fill="#FFF"/><path d="M4.4 1.3v11.3l2-.2c1.1-1.4 2.1-3 2.9-4.6l.4-.8H13c-1.2 2.6-2.6 4.8-4.1 6.6 1.3 1.8 2.5 3.9 3.8 6.4l.6 1.1H9.8c-1-2.1-2.1-4.1-3.3-6l-2.1.2v5.8h-3V1.4h3v-.1zm0-.5h-3l-.5.5V21l.5.5h3l.5-.5v-5.3l1.3-.1c1.2 1.8 2.2 3.7 3.1 5.7l.5.3h3.5l.4-.7-.6-1.1c-1.2-2.3-2.4-4.4-3.6-6.1 1.4-1.7 2.8-3.9 4-6.4l-.5-.7H9.7l-.4.3-.4.8c-.8 1.6-1.7 3-2.7 4.4l-1.2.1V1.5L4.4.8z" fill="#666"/></g><g transform="translate(55 6)"><path d="M6.5 15.6c-1.7 0-3.6-.3-5.6-1l-.2-.3.7-2.7.3-.2c1.8.6 3.3.9 4.4.9 1.1 0 1.8-.1 2.1-.3.3-.2.5-.4.5-.8s-.1-.7-.4-.9c-.3-.2-1-.4-1.9-.7-2-.5-3.4-1-4.2-1.6C1.4 7.4.9 6.3.9 4.9.9 1.9 2.8.4 6.6.4c1.6 0 3.4.3 5.5.8l.2.3-.6 2.8-.3.2C9.5 4 8 3.7 6.9 3.7c-1.3 0-1.8.1-2 .3-.3.1-.4.4-.4.7 0 .4.1.6.4.8.3.2 1.3.5 2.8.9 1.5.4 2.7.9 3.4 1.5.8.6 1.2 1.6 1.2 3 0 3.1-2 4.7-5.8 4.7z" fill="#FFF"/><path d="M6.6.7c1.6 0 3.4.3 5.4.8l-.6 2.8c-2-.6-3.5-.8-4.5-.8-1.1 0-1.8.1-2.1.3-.4.2-.5.5-.5 1s.2.8.5 1c.4.2 1.3.5 2.8.9 1.5.4 2.6.9 3.3 1.4.7.5 1.1 1.5 1.1 2.8 0 3-1.8 4.5-5.5 4.5-1.7 0-3.6-.3-5.5-.9l.7-2.7c1.9.6 3.4.9 4.5.9s1.9-.1 2.2-.3c.4-.2.6-.6.6-1.1 0-.5-.2-.9-.5-1.1-.4-.2-1-.4-2-.7-2-.5-3.3-1-4.1-1.6-.8-.6-1.2-1.5-1.2-2.9C1.2 2.1 3 .7 6.6.7zm0-.5C1.7.2.7 2.8.7 4.9c0 1.5.5 2.6 1.4 3.3.8.6 2.2 1.2 4.3 1.7 1.2.3 1.7.5 1.9.6.1.1.3.2.3.7 0 .4-.2.5-.3.6-.2.1-.7.3-2 .3-1 0-2.5-.3-4.3-.9l-.6.4-.7 2.7.3.6c2 .6 3.9 1 5.7 1 5 0 6-2.7 6-5 0-1.5-.4-2.5-1.3-3.2-.8-.6-1.9-1.1-3.5-1.5-1.8-.5-2.5-.8-2.7-.9-.1-.1-.3-.2-.3-.6 0-.3.1-.4.3-.5.2-.1.6-.2 1.9-.2 1 0 2.5.3 4.4.8l.6-.4.6-2.8-.4-.6C10.1.5 8.2.2 6.6.2z" fill="#666"/></g></g></g></svg><svg width="156" height="31" viewBox="-1 -1 156 31" id="logo-mobile" y="341"><g fill="none" fill-rule="evenodd"><path d="M54.255 16.948V12.37h3.556c.564 0 1.022.46 1.022 1.022v2.535c0 .563-.458 1.02-1.02 1.02h-3.557" fill="#FFF"/><path d="M57.81 12.612c.432 0 .78.35.78.78v2.535c0 .43-.348.78-.78.78h-3.313v-4.095h3.314m0-.483h-3.797v5.06h3.798c.697 0 1.264-.567 1.264-1.263v-2.535c0-.696-.566-1.263-1.263-1.263" fill="#666"/><path d="M3.8 28.434L.984 19.992h4.938V2.53h8.444v4.066H25.33c.885 0 1.73.285 2.427.812V.884h17.18c2.708 0 4.91 2.203 4.91 4.91v.55H75.89c2.23 0 4.045 1.814 4.045 4.045v8.54c0 2.23-1.815 4.046-4.045 4.046h-4.143v4.094h-8.445v-4.958c-.708.56-1.575.864-2.488.864h-4.142v4.094h-8.444v-9.553h-18.85v7.076H16.356c-.74 0-1.46-.234-2.07-.666-.378 2.56-2.583 4.508-5.203 4.508H3.8zm5.283-2.416c1.58 0 2.866-1.285 2.866-2.865V9.61H8.337v10.926c0 1.032-.84 1.87-1.87 1.87h-2.13L5.54 26.02h3.543zm60.247-1.365V20.56h6.56c.898 0 1.628-.732 1.628-1.63v-8.54c0-.9-.73-1.63-1.628-1.63H65.72v15.893h3.61zm-15.075 0V20.56h6.56c.898 0 1.63-.732 1.63-1.63v-8.54c0-.9-.732-1.63-1.63-1.63h-10.17v15.893h3.61zm-37.9-10.18c-.658 0-1.194.534-1.194 1.193v5.316c0 .66.537 1.194 1.196 1.194H26.96V10.642c0-.9-.73-1.63-1.63-1.63H15.16v3.612h8.19v1.848h-6.994zm31.075.627V5.793c0-1.374-1.117-2.492-2.492-2.492H30.174v11.8h3.61V6.912h3.212V15.1h3.612V6.912h1.808c.775 0 1.405.63 1.405 1.403V15.1h3.61zM8.338 6.344h3.61V4.946H8.34v1.398z" fill="#FFF"/><path d="M44.94 1.126c2.573 0 4.666 2.094 4.666 4.667v.792H75.89c2.097 0 3.804 1.706 3.804 3.804v8.54c0 2.098-1.707 3.804-3.805 3.804h-4.385v4.094h-7.96v-5.26c-.693.717-1.66 1.166-2.73 1.166H56.43v4.094h-7.96v-9.553H29.134v7.076h-12.78c-.873 0-1.663-.342-2.262-.89-.163 2.634-2.335 4.733-5.01 4.733h-5.11l-2.653-7.96h4.843V2.77h7.96v4.067h11.208c1.04 0 1.98.42 2.67 1.098v-6.81h16.94zM29.93 15.342h4.094v-8.19h2.73v8.19h4.093v-8.19h1.566c.642 0 1.162.522 1.162 1.164v7.026h4.095v-9.55c0-1.51-1.224-2.732-2.734-2.732H29.93v12.282zM8.097 6.585h4.094v-1.88H8.098v1.88zm57.38 18.31h4.095V20.8h6.317c1.032 0 1.87-.836 1.87-1.87v-8.54c0-1.034-.838-1.872-1.87-1.872H65.477v16.377zm-15.075 0h4.095V20.8h6.317c1.033 0 1.87-.836 1.87-1.87v-8.54c0-1.034-.837-1.872-1.87-1.872H50.402v16.377zM14.92 12.865h8.188v1.364h-6.752c-.794 0-1.436.642-1.436 1.436v5.316c0 .793.642 1.436 1.436 1.436h10.846V10.64c0-1.03-.837-1.87-1.87-1.87H14.92v4.095zM5.368 26.26h3.717c1.716 0 3.107-1.392 3.107-3.107V9.367H8.098v11.17c0 .9-.73 1.63-1.63 1.63H4.002l1.365 4.092zM44.94.642H27.514v6.31c-.655-.39-1.404-.6-2.184-.6H14.608V2.29H5.68v17.46H.65l2.975 8.928h5.46c2.615 0 4.833-1.854 5.374-4.35.576.33 1.228.51 1.896.51H29.62v-7.077h18.365v9.55h8.928v-4.093h3.9c.807 0 1.58-.223 2.248-.64v4.734h8.93v-4.093h3.9c2.364 0 4.286-1.923 4.286-4.287v-8.54c0-2.365-1.922-4.288-4.287-4.288h-25.8v-.31c0-2.84-2.31-5.15-5.15-5.15zm-14.525 2.9H44.94c1.24 0 2.25 1.01 2.25 2.25v9.066h-3.128V8.315c0-.907-.738-1.646-1.646-1.646h-2.05v8.19H37.24V6.67H33.54v8.19h-3.127V3.542zM8.58 5.188h3.127v.914H8.58v-.914zm57.38 3.814h9.93c.765 0 1.386.622 1.386 1.387v8.54c0 .765-.62 1.387-1.387 1.387h-6.8v4.094h-3.13V9.003zm-15.075 0h9.93c.764 0 1.386.622 1.386 1.387v8.54c0 .765-.62 1.387-1.386 1.387h-6.8v4.094h-3.13V9.003zm-35.48.252h9.926c.766 0 1.39.622 1.39 1.387v11.295H16.355c-.526 0-.952-.428-.952-.953v-5.316c0-.526.426-.953.952-.953h7.235l.002-2.33h-8.188v-3.13zM8.58 9.85h3.127v13.303c0 1.446-1.177 2.623-2.623 2.623h-3.37l-1.04-3.127h1.793c1.165 0 2.113-.95 2.113-2.114V9.85z" fill="#666"/><path d="M69.33 16.948V12.37h3.556c.563 0 1.02.46 1.02 1.022v2.535c0 .563-.457 1.02-1.02 1.02H69.33" fill="#FFF"/><path d="M72.886 12.612c.43 0 .78.35.78.78v2.535c0 .43-.35.78-.78.78h-3.314v-4.095h3.314m0-.483H69.09v5.06h3.796c.697 0 1.263-.567 1.263-1.263v-2.535c0-.696-.567-1.263-1.264-1.263" fill="#666"/><path d="M19.69 19.247c-.506 0-.917-.412-.917-.916 0-.518.41-.93.917-.93h3.66v1.847h-3.66" fill="#FFF"/><path d="M23.108 17.642v1.365H19.69c-.373 0-.676-.303-.676-.676v-.013c0-.373.303-.675.676-.675h3.418m.483-.484h-3.9c-.64 0-1.16.52-1.16 1.16 0 .652.52 1.172 1.16 1.172h3.9l.002-2.332" fill="#666"/><path d="M50.402 8.518v16.377h4.095V20.8h6.317c1.033 0 1.87-.836 1.87-1.87v-8.54c0-1.034-.837-1.872-1.87-1.872H50.402zm7.41 8.19h-3.315V12.61h3.314c.432 0 .78.35.78.78v2.535c0 .43-.348.78-.78.78zM6.467 22.166H4.002l1.365 4.093h3.717c1.716 0 3.107-1.392 3.107-3.107V8.518H8.098v12.018c0 .9-.73 1.63-1.63 1.63M8.097 4.705h4.094v2.73H8.098v-2.73zM29.932 3.06v12.282h4.094v-8.19h2.73v8.19h4.093v-8.19h1.566c.642 0 1.162.522 1.162 1.164v7.026h4.095v-9.55c0-1.51-1.224-2.732-2.734-2.732H29.93M65.478 8.518v16.377h4.094V20.8h6.317c1.032 0 1.87-.836 1.87-1.87v-8.54c0-1.034-.838-1.872-1.87-1.872H65.477zm7.408 8.19h-3.314V12.61h3.314c.43 0 .78.35.78.78v2.535c0 .43-.35.78-.78.78zM14.92 8.77v4.095h8.188v1.364h-6.752c-.794 0-1.436.642-1.436 1.436v5.316c0 .793.642 1.436 1.436 1.436h10.846V10.64c0-1.03-.837-1.87-1.87-1.87H14.92zm8.188 10.237H19.69c-.373 0-.676-.303-.676-.676v-.013c0-.373.303-.675.676-.675h3.418v1.365z" fill="#65B9E7"/><path d="M95.71 3.9c-2.46 0-4.266.772-5.42 2.317-1.154 1.543-1.73 4.003-1.73 7.377 0 3.375.558 5.816 1.674 7.322 1.114 1.507 2.882 2.26 5.305 2.26 2.057 0 3.993-.325 5.804-.974v-9.208h-5.52v2.63h2.66v4.434c-1.03.248-2.012.372-2.945.372-1.317 0-2.303-.558-2.96-1.674-.66-1.115-.988-2.883-.988-5.304 0-2.42.31-4.176.93-5.263.618-1.088 1.682-1.63 3.19-1.63 1.83 0 3.41.228 4.745.685l.515-2.545c-1.564-.534-3.317-.8-5.26-.8" fill="#666"/><path d="M95.54 23.175c-2.424 0-4.192-.752-5.306-2.26-1.116-1.505-1.674-3.946-1.674-7.32 0-3.375.576-5.835 1.73-7.378C91.444 4.672 93.25 3.9 95.71 3.9c1.945 0 3.698.266 5.262.8l-.515 2.545c-1.334-.457-2.916-.686-4.746-.686-1.506 0-2.57.542-3.188 1.63-.62 1.086-.93 2.84-.93 5.262 0 2.42.328 4.19.987 5.304.657 1.116 1.643 1.674 2.96 1.674.932 0 1.914-.124 2.944-.372v-4.434h-2.66v-2.63h5.52v9.208c-1.81.65-3.747.973-5.805.973m.17-19.76c-2.61 0-4.563.846-5.807 2.512-1.21 1.62-1.826 4.2-1.826 7.667 0 3.514.578 6.003 1.768 7.61 1.205 1.63 3.12 2.454 5.694 2.454 2.104 0 4.112-.336 5.967-1l.32-.115V12.51h-6.486v3.6H98v3.562c-.855.182-1.68.274-2.46.274-1.143 0-1.975-.47-2.546-1.435-.61-1.034-.92-2.735-.92-5.058 0-2.325.292-4.015.867-5.024.533-.932 1.44-1.386 2.77-1.386 1.768 0 3.312.223 4.59.66l.52.18.71-3.502-.402-.138c-1.607-.548-3.43-.826-5.417-.826M106.09 15.167c.06-1.22.31-2.092.76-2.617.447-.524 1.12-.786 2.015-.786 1.678 0 2.517 1.135 2.517 3.403h-5.29m2.66-6.063c-1.83 0-3.262.597-4.29 1.787-1.03 1.193-1.546 2.943-1.546 5.25 0 4.73 2.09 7.093 6.264 7.093.63 0 1.43-.08 2.402-.244.973-.162 1.765-.35 2.374-.558l-.6-2.49c-1.468.478-2.86.717-4.176.717-1.888 0-2.916-1.032-3.09-3.09h8.352l.115-2.117c-.04-2.077-.558-3.656-1.558-4.733-1.003-1.077-2.42-1.616-4.25-1.616" fill="#666"/><path d="M106.612 14.684c.088-.84.29-1.45.605-1.82.355-.415.894-.616 1.648-.616.816 0 1.883.264 2.02 2.436h-4.273m2.253-2.92c-.896 0-1.568.262-2.016.786-.45.525-.7 1.397-.76 2.617h5.292c0-2.268-.84-3.403-2.517-3.403m.315 11.47c-4.175 0-6.264-2.365-6.264-7.095 0-2.307.515-4.057 1.545-5.25 1.03-1.19 2.46-1.786 4.29-1.786s3.247.54 4.25 1.616c1 1.077 1.518 2.656 1.557 4.733l-.115 2.116h-8.35c.172 2.058 1.2 3.09 3.088 3.09 1.316 0 2.708-.24 4.175-.717l.6 2.488c-.608.21-1.4.398-2.373.56-.972.162-1.773.243-2.402.243m-.43-14.612c-1.967 0-3.533.658-4.654 1.955-1.103 1.277-1.663 3.15-1.663 5.564 0 5.026 2.27 7.575 6.747 7.575.654 0 1.488-.083 2.482-.25.992-.164 1.817-.36 2.45-.575l.417-.143-.827-3.424-.497.16c-1.413.46-2.767.692-4.026.692-1.46 0-2.278-.677-2.54-2.123h8.26l.14-2.573c-.04-2.227-.608-3.927-1.688-5.088-1.09-1.176-2.64-1.77-4.6-1.77M118.96 15.167c.06-1.22.31-2.092.76-2.617.446-.524 1.12-.786 2.015-.786 1.677 0 2.516 1.135 2.516 3.403h-5.29m2.66-6.063c-1.83 0-3.26.597-4.29 1.787-1.03 1.193-1.544 2.943-1.544 5.25 0 4.73 2.088 7.093 6.263 7.093.63 0 1.43-.08 2.402-.244.973-.162 1.764-.35 2.374-.558l-.6-2.49c-1.47.478-2.86.717-4.177.717-1.888 0-2.917-1.032-3.09-3.09h8.352l.114-2.117c-.038-2.077-.558-3.656-1.558-4.733-1-1.077-2.417-1.616-4.248-1.616" fill="#666"/><path d="M119.48 14.684c.09-.84.292-1.45.606-1.82.355-.415.894-.616 1.65-.616.815 0 1.882.264 2.018 2.436h-4.273m2.255-2.92c-.896 0-1.57.262-2.016.786-.45.525-.7 1.397-.76 2.617h5.29c0-2.268-.838-3.403-2.515-3.403m.314 11.47c-4.176 0-6.264-2.365-6.264-7.095 0-2.307.515-4.057 1.545-5.25 1.03-1.19 2.46-1.786 4.29-1.786s3.247.54 4.248 1.616c1 1.077 1.52 2.656 1.558 4.733l-.114 2.116h-8.35c.17 2.058 1.2 3.09 3.087 3.09 1.315 0 2.707-.24 4.175-.717l.6 2.488c-.61.21-1.4.398-2.373.56-.972.162-1.773.243-2.403.243m-.43-14.612c-1.967 0-3.534.658-4.654 1.955-1.104 1.277-1.663 3.15-1.663 5.564 0 5.026 2.27 7.575 6.746 7.575.653 0 1.488-.083 2.48-.25.994-.164 1.82-.36 2.452-.576l.417-.144-.105-.428-.723-2.995-.496.16c-1.413.46-2.768.692-4.027.692-1.46 0-2.28-.677-2.54-2.123h8.26l.14-2.573c-.04-2.227-.61-3.927-1.688-5.088-1.092-1.176-2.64-1.77-4.602-1.77M132.833 3.9h-2.947v19.018h2.947v-5.606l2-.2c1.202 1.85 2.27 3.784 3.204 5.806h3.346l-.573-1.087c-1.24-2.363-2.468-4.413-3.687-6.148 1.466-1.696 2.8-3.813 4.002-6.35h-3.202l-.4.802c-.8 1.6-1.736 3.09-2.803 4.46l-1.887.202V3.9" fill="#666"/><path d="M129.886 22.918V3.9h2.947v10.896l1.887-.2c1.067-1.373 2.002-2.86 2.803-4.462l.4-.8h3.202c-1.2 2.535-2.536 4.652-4.002 6.348 1.22 1.735 2.448 3.785 3.687 6.15l.573 1.086h-3.346c-.935-2.022-2.002-3.956-3.203-5.805l-2 .2v5.605h-2.948m3.43-19.502h-3.913V23.4h3.913v-5.65l1.272-.127c1.12 1.75 2.132 3.598 3.01 5.498l.13.28h4.456l-.36-.682-.33-.106.086-.357-.342-.65c-1.168-2.23-2.347-4.21-3.506-5.894 1.396-1.675 2.683-3.75 3.83-6.17l.327-.69h-4.266l-.133.268-.4.8c-.75 1.503-1.635 2.92-2.628 4.22l-1.146.12V3.416" fill="#666"/><path d="M147.503 9.104c-3.507 0-5.262 1.364-5.262 4.09 0 1.278.373 2.198 1.117 2.76.743.562 2.06 1.073 3.946 1.53.954.23 1.6.45 1.945.658.344.21.515.562.515 1.058s-.192.84-.572 1.03c-.38.21-1.105.314-2.173.314s-2.507-.286-4.32-.858l-.628 2.602c1.906.61 3.69.916 5.348.916 3.545 0 5.32-1.44 5.32-4.32 0-1.257-.344-2.148-1.03-2.673-.687-.523-1.764-.986-3.232-1.386-1.47-.4-2.38-.7-2.73-.9-.355-.2-.53-.52-.53-.96 0-.437.175-.746.53-.928.35-.18 1.042-.272 2.072-.272s2.488.267 4.376.8l.543-2.717c-1.982-.495-3.727-.743-5.234-.743" fill="#666"/><path d="M147.017 20.544c1.068 0 1.793-.105 2.174-.315.38-.19.573-.534.573-1.03s-.17-.85-.515-1.058c-.344-.21-.99-.43-1.945-.658-1.887-.457-3.203-.968-3.946-1.53-.744-.562-1.116-1.482-1.116-2.76 0-2.726 1.756-4.09 5.263-4.09 1.507 0 3.252.248 5.234.743l-.543 2.718c-1.888-.534-3.347-.8-4.376-.8-1.03 0-1.72.09-2.073.27-.353.183-.53.492-.53.93 0 .44.177.76.53.96.352.2 1.262.5 2.73.9 1.47.4 2.546.862 3.233 1.386.686.526 1.03 1.417 1.03 2.675 0 2.88-1.775 4.32-5.32 4.32-1.66 0-3.442-.306-5.35-.917l.63-2.602c1.812.572 3.25.858 4.32.858m.485-11.923c-4.748 0-5.745 2.488-5.745 4.574 0 1.432.44 2.49 1.307 3.146.804.608 2.153 1.136 4.125 1.614 1.12.27 1.6.475 1.806.6.133.08.283.227.283.646 0 .392-.154.522-.305.596-.19.105-.67.264-1.958.264-1.013 0-2.417-.28-4.173-.835l-.494-.156-.75 3.105-.02.08-.086.357.33.106.098.03c1.943.623 3.792.94 5.496.94 4.795 0 5.803-2.613 5.803-4.803 0-1.41-.41-2.44-1.218-3.058-.745-.567-1.855-1.05-3.398-1.47-1.773-.482-2.403-.73-2.62-.854-.14-.08-.285-.206-.285-.538 0-.318.127-.428.266-.5.16-.08.612-.217 1.852-.217.98 0 2.408.263 4.243.782l.505.142.737-3.68-.448-.113c-2.014-.504-3.814-.76-5.35-.76" fill="#666"/><path d="M94.585 22.462c-2.492 0-4.342-.792-5.5-2.355-1.14-1.543-1.72-4.055-1.72-7.466 0-3.412.6-5.944 1.778-7.522 1.196-1.6 3.085-2.413 5.614-2.413 1.962 0 3.758.273 5.34.814l.2.066-.61 3.024-.262-.09c-1.304-.446-2.874-.673-4.668-.673-1.426 0-2.4.494-2.98 1.508-.595 1.045-.897 2.777-.897 5.144 0 2.365.32 4.11.952 5.18.62 1.046 1.52 1.554 2.753 1.554.855 0 1.765-.108 2.704-.32v-4h-2.66v-3.115h6.002v9.62l-.16.057c-1.83.654-3.81.985-5.887.985" fill="#FFF"/><path d="M94.757 2.945c1.944 0 3.698.268 5.262.802l-.516 2.545c-1.334-.457-2.917-.686-4.747-.686-1.507 0-2.57.543-3.19 1.63-.62 1.087-.928 2.842-.928 5.262 0 2.422.327 4.19.986 5.305.657 1.116 1.643 1.673 2.96 1.673.933 0 1.915-.124 2.945-.372V14.67h-2.658v-2.63h5.52v9.21c-1.812.648-3.75.972-5.807.972-2.422 0-4.19-.753-5.305-2.26-1.115-1.505-1.673-3.946-1.673-7.32 0-3.376.576-5.836 1.73-7.378 1.153-1.545 2.96-2.32 5.42-2.32m0-.482c-2.61 0-4.563.845-5.807 2.51-1.212 1.623-1.826 4.203-1.826 7.67 0 3.513.578 6.002 1.768 7.61 1.205 1.627 3.12 2.453 5.693 2.453 2.105 0 4.113-.336 5.97-1l.32-.115V11.557h-6.487v3.597h2.66v3.565c-.856.18-1.682.273-2.463.273-1.14 0-1.973-.47-2.544-1.435-.61-1.035-.918-2.737-.918-5.06 0-2.325.29-4.015.866-5.023.532-.933 1.437-1.386 2.77-1.386 1.767 0 3.31.22 4.59.66l.52.177.71-3.5-.403-.138c-1.608-.55-3.43-.828-5.418-.828" fill="#666"/><path d="M108.227 22.52c-4.317 0-6.506-2.466-6.506-7.334 0-2.355.54-4.175 1.605-5.405 1.074-1.24 2.58-1.87 4.473-1.87 1.892 0 3.38.57 4.424 1.693 1.038 1.117 1.584 2.764 1.623 4.892l-.126 2.363h-8.314c.222 1.752 1.147 2.606 2.82 2.606 1.284 0 2.664-.237 4.102-.704l.248-.08.713 2.955-.21.07c-.624.217-1.436.408-2.412.57-.98.163-1.8.246-2.44.246zm1.956-8.548c-.055-1.964-.8-2.92-2.27-2.92-.83 0-1.43.23-1.834.702-.38.444-.61 1.19-.685 2.218h4.788z" fill="#FFF"/><path d="M107.798 8.15c1.83 0 3.246.54 4.246 1.617 1.002 1.077 1.52 2.656 1.56 4.733l-.115 2.116h-8.352c.172 2.06 1.2 3.09 3.09 3.09 1.315 0 2.706-.24 4.174-.716l.6 2.488c-.61.21-1.4.396-2.373.558-.973.163-1.774.243-2.403.243-4.175 0-6.264-2.365-6.264-7.094 0-2.306.515-4.056 1.545-5.248 1.03-1.19 2.46-1.787 4.29-1.787zm-2.66 6.064h5.29c0-2.27-.838-3.404-2.516-3.404-.896 0-1.568.263-2.017.787-.447.525-.7 1.397-.757 2.617zm2.66-6.546c-1.968 0-3.534.657-4.656 1.954-1.103 1.276-1.662 3.15-1.662 5.564 0 5.027 2.27 7.576 6.747 7.576.653 0 1.488-.083 2.48-.25.994-.165 1.82-.36 2.453-.576l.416-.143-.826-3.423-.497.16c-1.413.46-2.767.692-4.026.692-1.462 0-2.278-.677-2.54-2.123h8.26l.14-2.574c-.04-2.226-.61-3.926-1.688-5.088-1.093-1.175-2.64-1.77-4.602-1.77zm-2.14 6.063c.09-.84.292-1.45.606-1.82.355-.414.894-.616 1.648-.616.816 0 1.883.264 2.02 2.437h-4.273z" fill="#666"/><path d="M121.096 22.52c-4.316 0-6.504-2.466-6.504-7.334 0-2.355.54-4.175 1.602-5.405 1.075-1.24 2.58-1.87 4.473-1.87 1.892 0 3.38.57 4.424 1.693 1.04 1.117 1.586 2.764 1.625 4.892l-.127 2.363h-8.312c.222 1.752 1.147 2.606 2.82 2.606 1.284 0 2.663-.237 4.102-.704l.247-.08.714 2.955-.21.07c-.625.217-1.436.408-2.412.57-.98.163-1.802.246-2.442.246zm1.957-8.548c-.055-1.964-.8-2.92-2.272-2.92-.827 0-1.427.23-1.83.702-.38.444-.61 1.19-.685 2.218h4.788z" fill="#FFF"/><path d="M120.667 8.15c1.83 0 3.246.54 4.248 1.617 1 1.077 1.52 2.656 1.558 4.733l-.114 2.116h-8.352c.172 2.06 1.2 3.09 3.088 3.09 1.316 0 2.708-.24 4.176-.716l.6 2.488c-.61.21-1.4.396-2.374.558-.97.163-1.772.243-2.402.243-4.175 0-6.263-2.365-6.263-7.094 0-2.306.514-4.056 1.544-5.248 1.03-1.19 2.46-1.787 4.29-1.787zm-2.66 6.064h5.29c0-2.27-.838-3.404-2.515-3.404-.897 0-1.57.263-2.016.787-.448.525-.7 1.397-.758 2.617zm2.66-6.546c-1.967 0-3.534.657-4.655 1.954-1.103 1.276-1.662 3.15-1.662 5.564 0 5.027 2.27 7.576 6.746 7.576.654 0 1.49-.083 2.482-.25.992-.165 1.817-.36 2.45-.576l.418-.143-.827-3.423-.498.16c-1.413.46-2.767.692-4.026.692-1.46 0-2.278-.677-2.54-2.123h8.26l.14-2.574c-.04-2.226-.608-3.926-1.688-5.088-1.09-1.175-2.64-1.77-4.6-1.77zm-2.14 6.063c.09-.84.292-1.45.606-1.82.355-.414.894-.616 1.65-.616.815 0 1.88.264 2.017 2.437h-4.272z" fill="#666"/><path d="M136.928 22.206l-.063-.14c-.904-1.954-1.95-3.854-3.107-5.653l-1.637.164v5.63h-3.43V2.704h3.43v10.87l1.518-.162c1.028-1.333 1.94-2.792 2.715-4.34l.467-.935h3.734l-.164.345c-1.172 2.472-2.488 4.58-3.916 6.262 1.19 1.71 2.4 3.734 3.597 6.02l.76 1.44h-3.902" fill="#FFF"/><path d="M131.88 2.945v10.898l1.886-.2c1.068-1.373 2.002-2.862 2.803-4.463l.4-.8h3.202c-1.2 2.536-2.536 4.652-4.003 6.35 1.218 1.734 2.448 3.784 3.687 6.148l.573 1.087h-3.346c-.935-2.022-2.003-3.956-3.204-5.806l-2 .2v5.605h-2.948V2.945h2.947m.482-.483h-3.913v19.986h3.912v-5.65l1.272-.13c1.12 1.752 2.133 3.6 3.01 5.5l.13.28h4.457l-.945-1.795c-1.168-2.23-2.347-4.212-3.507-5.895 1.396-1.676 2.684-3.75 3.83-6.17l.327-.69h-4.265l-.533 1.067c-.75 1.502-1.635 2.92-2.628 4.218l-1.148.122V2.462" fill="#666"/><path d="M146.464 22.492c-1.677 0-3.5-.312-5.422-.926l-.213-.07.74-3.07.248.077c1.777.562 3.205.846 4.246.846 1.023 0 1.715-.097 2.057-.285.31-.154.447-.413.447-.82 0-.408-.13-.686-.398-.85-.324-.197-.954-.41-1.877-.63-1.912-.462-3.27-.99-4.035-1.57-.804-.61-1.212-1.602-1.212-2.954 0-2.873 1.852-4.33 5.504-4.33 1.514 0 3.295.252 5.292.75l.224.056-.64 3.2-.252-.072c-1.858-.525-3.308-.79-4.31-.79-1.227 0-1.744.13-1.963.244-.27.14-.396.365-.396.714 0 .354.13.59.406.748.334.19 1.235.484 2.677.877 1.49.407 2.605.887 3.314 1.43.748.57 1.126 1.535 1.126 2.865 0 3.026-1.872 4.56-5.562 4.56" fill="#FFF"/><path d="M146.55 8.15c1.507 0 3.25.25 5.234.744l-.544 2.718c-1.887-.534-3.346-.802-4.375-.802-1.03 0-1.72.092-2.074.273-.352.18-.528.49-.528.93 0 .438.176.758.53.958.352.2 1.262.5 2.73.9s2.546.864 3.233 1.388c.685.525 1.03 1.416 1.03 2.674 0 2.88-1.775 4.318-5.32 4.318-1.66 0-3.443-.304-5.35-.915l.63-2.602c1.812.57 3.25.857 4.32.857 1.066 0 1.792-.104 2.172-.314.38-.19.573-.533.573-1.03 0-.495-.17-.848-.516-1.058-.343-.208-.99-.43-1.945-.657-1.887-.456-3.204-.967-3.946-1.53-.745-.56-1.116-1.48-1.116-2.76 0-2.725 1.754-4.09 5.262-4.09m0-.482c-4.75 0-5.745 2.487-5.745 4.573 0 1.433.44 2.49 1.307 3.146.804.608 2.152 1.136 4.124 1.614 1.12.27 1.6.475 1.807.6.132.08.283.227.283.646 0 .393-.153.523-.304.597-.19.105-.67.264-1.958.264-1.013 0-2.417-.28-4.174-.835l-.493-.156-.856 3.542.43.137c1.942.623 3.79.94 5.494.94 4.796 0 5.803-2.613 5.803-4.803 0-1.41-.41-2.44-1.22-3.058-.743-.568-1.854-1.05-3.397-1.47-1.772-.483-2.403-.73-2.62-.854-.14-.08-.284-.206-.284-.538 0-.318.128-.428.267-.5.158-.08.61-.218 1.852-.218.98 0 2.407.263 4.243.783l.504.142.737-3.682-.45-.113c-2.013-.502-3.813-.757-5.35-.757" fill="#666"/></g></svg><svg width="17" height="17" viewBox="-1 -1 17 17" id="switch" y="372"><path d="M0 1h1v5H0V1zm6 0h1v5H6V1zM1 0h5v1H1V0zm0 6h5v1H1V6zm7-5h1v5H8V1zm6 0h1v5h-1V1zM9 0h5v1H9V0zm0 6h5v1H9V6zM0 9h1v5H0V9zm6 0h1v5H6V9zM1 8h5v1H1V8zm0 6h5v1H1v-1zm7-5h1v5H8V9zm6 0h1v5h-1V9zM9 8h5v1H9V8zm0 6h5v1H9v-1z" fill="#A8C7D6" fill-rule="evenodd"/></svg><svg width="17" height="17" viewBox="-1 -1 17 17" id="switch-active" y="389"><path d="M0 1h1v5H0V1zm6 0h1v5H6V1zM1 0h5v1H1V0zm0 6h5v1H1V6zm7-5h1v5H8V1zm6 0h1v5h-1V1zM9 0h5v1H9V0zm0 6h5v1H9V6zM0 9h1v5H0V9zm6 0h1v5H6V9zM1 8h5v1H1V8zm0 6h5v1H1v-1zm7-5h1v5H8V9zm6 0h1v5h-1V9zM9 8h5v1H9V8zm0 6h5v1H9v-1z" fill="#B4B4B4" fill-rule="evenodd"/></svg><svg width="21" height="17" viewBox="-1 -1 21 17" id="twitter" y="406"><path d="M16.57 3.736c.005.16.01.326.01.49C16.58 9.23 12.77 15 5.804 15c-2.14 0-4.13-.627-5.805-1.7.296.035.597.052.904.052 1.773 0 3.406-.606 4.702-1.622-1.657-.028-3.056-1.124-3.537-2.628.23.044.467.067.71.067.347 0 .682-.045 1-.134C2.045 8.69.74 7.158.74 5.323v-.047c.51.282 1.096.454 1.717.473C1.44 5.07.772 3.91.772 2.596c0-.693.187-1.345.513-1.906 1.87 2.295 4.66 3.8 7.805 3.96-.065-.278-.098-.567-.098-.863C8.992 1.697 10.69 0 12.78 0c1.088 0 2.074.46 2.763 1.195.863-.17 1.673-.484 2.405-.918-.282.884-.882 1.627-1.664 2.095.765-.09 1.495-.295 2.174-.596-.506.76-1.15 1.426-1.89 1.96z" fill="#B4B4B4" fill-rule="evenodd"/></svg><svg width="21" height="17" viewBox="-1 -1 21 17" id="twitter-active" y="423"><path d="M16.57 3.736c.005.16.01.326.01.49C16.58 9.23 12.77 15 5.804 15c-2.14 0-4.13-.627-5.805-1.7.296.035.597.052.904.052 1.773 0 3.406-.606 4.702-1.622-1.657-.028-3.056-1.124-3.537-2.628.23.044.467.067.71.067.347 0 .682-.045 1-.134C2.045 8.69.74 7.158.74 5.323v-.047c.51.282 1.096.454 1.717.473C1.44 5.07.772 3.91.772 2.596c0-.693.187-1.345.513-1.906 1.87 2.295 4.66 3.8 7.805 3.96-.065-.278-.098-.567-.098-.863C8.992 1.697 10.69 0 12.78 0c1.088 0 2.074.46 2.763 1.195.863-.17 1.673-.484 2.405-.918-.282.884-.882 1.627-1.664 2.095.765-.09 1.495-.295 2.174-.596-.506.76-1.15 1.426-1.89 1.96z" fill="#5EA9DD" fill-rule="evenodd"/></svg><svg width="21" height="17" viewBox="-1 -1 21 17" id="twitter-social" y="440"><path d="M16.57 3.736c.005.16.01.326.01.49C16.58 9.23 12.77 15 5.804 15c-2.14 0-4.13-.627-5.805-1.7.296.035.597.052.904.052 1.773 0 3.406-.606 4.702-1.622-1.657-.028-3.056-1.124-3.537-2.628.23.044.467.067.71.067.347 0 .682-.045 1-.134C2.045 8.69.74 7.158.74 5.323v-.047c.51.282 1.096.454 1.717.473C1.44 5.07.772 3.91.772 2.596c0-.693.187-1.345.513-1.906 1.87 2.295 4.66 3.8 7.805 3.96-.065-.278-.098-.567-.098-.863C8.992 1.697 10.69 0 12.78 0c1.088 0 2.074.46 2.763 1.195.863-.17 1.673-.484 2.405-.918-.282.884-.882 1.627-1.664 2.095.765-.09 1.495-.295 2.174-.596-.506.76-1.15 1.426-1.89 1.96z" fill="#65b9e8" fill-rule="evenodd"/></svg><svg width="21" height="17" viewBox="-1 -1 21 17" id="twitter-social-active" y="457"><path d="M16.57 3.736c.005.16.01.326.01.49C16.58 9.23 12.77 15 5.804 15c-2.14 0-4.13-.627-5.805-1.7.296.035.597.052.904.052 1.773 0 3.406-.606 4.702-1.622-1.657-.028-3.056-1.124-3.537-2.628.23.044.467.067.71.067.347 0 .682-.045 1-.134C2.045 8.69.74 7.158.74 5.323v-.047c.51.282 1.096.454 1.717.473C1.44 5.07.772 3.91.772 2.596c0-.693.187-1.345.513-1.906 1.87 2.295 4.66 3.8 7.805 3.96-.065-.278-.098-.567-.098-.863C8.992 1.697 10.69 0 12.78 0c1.088 0 2.074.46 2.763 1.195.863-.17 1.673-.484 2.405-.918-.282.884-.882 1.627-1.664 2.095.765-.09 1.495-.295 2.174-.596-.506.76-1.15 1.426-1.89 1.96z" fill="#5EA9DD" fill-rule="evenodd"/></svg></svg>