<?xml version="1.0" encoding="UTF-8"?>
<svg width="304px" height="509px" viewBox="0 0 304 509" version="1.1" xmlns="http://www.w3.org/2000/svg" xmlns:xlink="http://www.w3.org/1999/xlink">
    <!-- Generator: Sketch 42 (36781) - http://www.bohemiancoding.com/sketch -->
    <title>Untitled</title>
    <desc>Created with Sketch.</desc>
    <defs></defs>
    <g id="Page-1" stroke="none" stroke-width="1" fill="none" fill-rule="evenodd">
        <g id="sprite" transform="translate(1.000000, 0.000000)">
            <g id="Page-1">
                <g id="sprite">
                    <g id="Page-1">
                        <g id="sprite">
                            <path d="M8.4,5.6 L8.2,8.1 L5.6,8.1 L5.6,16.9 L2.3,16.9 L2.3,8.1 L0.5,8.1 L0.5,5.6 L2.3,5.6 L2.3,3.9 C2.3,3.1 2.3,2 2.9,1.3 C3.5,0.5 4.3,0 5.6,0 C7.8,0 8.8,0.3 8.8,0.3 L8.4,2.9 C8.4,2.9 7.7,2.7 7,2.7 C6.3,2.7 5.7,2.9 5.7,3.6 L5.7,5.6 L8.4,5.6 Z" id="Shape" fill="#B4B4B4" fill-rule="nonzero"></path>
                            <path d="M8.4,24.6 L8.2,27.1 L5.6,27.1 L5.6,35.9 L2.3,35.9 L2.3,27.1 L0.5,27.1 L0.5,24.6 L2.3,24.6 L2.3,22.9 C2.3,22.1 2.3,21 2.9,20.3 C3.5,19.5 4.3,19 5.6,19 C7.8,19 8.8,19.3 8.8,19.3 L8.4,21.9 C8.4,21.9 7.7,21.7 7,21.7 C6.3,21.7 5.7,21.9 5.7,22.6 L5.7,24.6 L8.4,24.6 Z" id="Shape" fill="#3A579D" fill-rule="nonzero"></path>
                            <path d="M7.9,43.6 L7.7,46.1 L5.1,46.1 L5.1,54.9 L1.8,54.9 L1.8,46.1 L0,46.1 L0,43.6 L1.8,43.6 L1.8,41.9 C1.8,41.1 1.8,40 2.4,39.3 C3,38.5 3.8,38 5.1,38 C7.3,38 8.3,38.3 8.3,38.3 L7.9,40.9 C7.9,40.9 7.2,40.7 6.5,40.7 C5.8,40.7 5.2,40.9 5.2,41.6 L5.2,43.6 C5.1,43.6 7.9,43.6 7.9,43.6 Z" id="Shape" fill="#FF633D" fill-rule="nonzero"></path>
                            <path d="M7.9,62.6 L7.7,65.1 L5.1,65.1 L5.1,73.9 L1.8,73.9 L1.8,65.1 L0,65.1 L0,62.6 L1.8,62.6 L1.8,60.9 C1.8,60.1 1.8,59 2.4,58.3 C3,57.5 3.8,57 5.1,57 C7.3,57 8.3,57.3 8.3,57.3 L7.9,59.9 C7.9,59.9 7.2,59.7 6.5,59.7 C5.8,59.7 5.2,59.9 5.2,60.6 L5.2,62.6 C5.1,62.6 7.9,62.6 7.9,62.6 Z" id="Shape" fill="#3A579D" fill-rule="nonzero"></path>
                            <path d="M8,76 C3.6,76 0,79.6 0,84 C0,87.5 2.3,90.5 5.5,91.6 C5.9,91.7 6.1,91.4 6.1,91.2 L6.1,89.7 C4.1,90.1 3.6,89.2 3.4,88.8 C3.3,88.6 2.9,87.9 2.6,87.7 C2.3,87.6 1.9,87.2 2.6,87.2 C3.2,87.2 3.7,87.8 3.8,88 C4.5,89.2 5.7,88.9 6.1,88.7 C6.2,88.2 6.4,87.8 6.6,87.6 C4.8,87.4 3,86.7 3,83.6 C3,82.7 3.3,82 3.8,81.5 C3.7,81.3 3.4,80.5 3.9,79.4 C3.9,79.4 4.6,79.2 6.1,80.2 C6.7,80 7.4,79.9 8.1,79.9 C8.8,79.9 9.5,80 10.1,80.2 C11.6,79.2 12.3,79.4 12.3,79.4 C12.7,80.5 12.5,81.3 12.4,81.5 C12.9,82.1 13.2,82.8 13.2,83.6 C13.2,86.7 11.3,87.4 9.5,87.6 C9.8,87.8 10,88.3 10,89.1 L10,91.3 C10,91.5 10.2,91.8 10.5,91.7 C13.8,90.6 15.9,87.5 16,84.1 C16,79.6 12.4,76 8,76 Z" id="Shape" fill="#B4B4B4" fill-rule="nonzero"></path>
                            <path d="M8,94 C3.6,94 0,97.6 0,102 C0,105.5 2.3,108.5 5.5,109.6 C5.9,109.7 6.1,109.4 6.1,109.2 L6.1,107.7 C4.1,108.1 3.6,107.2 3.4,106.8 C3.3,106.6 2.9,105.9 2.6,105.7 C2.3,105.6 1.9,105.2 2.6,105.2 C3.2,105.2 3.7,105.8 3.8,106 C4.5,107.2 5.7,106.9 6.1,106.7 C6.2,106.2 6.4,105.8 6.6,105.6 C4.8,105.4 3,104.7 3,101.6 C3,100.7 3.3,100 3.8,99.5 C3.7,99.3 3.4,98.5 3.9,97.4 C3.9,97.4 4.6,97.2 6.1,98.2 C6.7,98 7.4,97.9 8.1,97.9 C8.8,97.9 9.5,98 10.1,98.2 C11.6,97.2 12.3,97.4 12.3,97.4 C12.7,98.5 12.5,99.3 12.4,99.5 C12.9,100.1 13.2,100.8 13.2,101.6 C13.2,104.7 11.3,105.4 9.5,105.6 C9.8,105.8 10,106.3 10,107.1 L10,109.3 C10,109.5 10.2,109.8 10.5,109.7 C13.8,108.6 15.9,105.5 16,102.1 C16,97.6 12.4,94 8,94 Z" id="Shape" fill="#111111" fill-rule="nonzero"></path>
                            <path d="M2,116 C0.9,116 0,115.1 0,114 C0,112.9 0.9,112 2,112 C3.1,112 4,112.9 4,114 C4,115.1 3.1,116 2,116 Z M2,123 C0.9,123 0,122.1 0,121 C0,119.9 0.9,119 2,119 C3.1,119 4,119.9 4,121 C4,122.1 3.1,123 2,123 Z M2,126 C3.1,126 4,126.9 4,128 C4,129.1 3.1,130 2,130 C0.9,130 0,129.1 0,128 C0,126.9 0.9,126 2,126 Z" id="Shape" fill="#36355B" fill-rule="nonzero"></path>
                            <path d="M9,146 L14,146 L14,147 L9,147 L9,146 Z M9,140 L14,140 L14,141 L9,141 L9,140 Z M14,141 L15,141 L15,146 L14,146 L14,141 Z M8,141 L9,141 L9,146 L8,146 L8,141 Z M1,146 L6,146 L6,147 L1,147 L1,146 Z M1,140 L6,140 L6,141 L1,141 L1,140 Z M6,141 L7,141 L7,146 L6,146 L6,141 Z M0,141 L1,141 L1,146 L0,146 L0,141 Z M9,138 L14,138 L14,139 L9,139 L9,138 Z M9,132 L14,132 L14,133 L9,133 L9,132 Z M14,133 L15,133 L15,138 L14,138 L14,133 Z M8,133 L9,133 L9,138 L8,138 L8,133 Z M1,138 L6,138 L6,139 L1,139 L1,138 Z M1,132 L6,132 L6,133 L1,133 L1,132 Z M6,133 L7,133 L7,138 L6,138 L6,133 Z M0,133 L1,133 L1,138 L0,138 L0,133 Z" id="Shape" fill="#36355B" fill-rule="nonzero"></path>
                            <path d="M50,149 C22.4,149 0,171.4 0,199 C0,226.6 22.4,249 50,249 C77.6,249 100,226.6 100,199 C100,171.4 77.6,149 50,149 Z M50,239.6 C27.6,239.6 9.4,221.4 9.4,199 C9.4,176.6 27.6,158.4 50,158.4 C72.4,158.4 90.6,176.6 90.6,199 C90.6,221.4 72.4,239.6 50,239.6 Z M37.5,177.1 L75,199 L37.5,220.9 L37.5,177.1 Z" id="Shape" fill="#FFFFFF" fill-rule="nonzero"></path>
                            <path d="M16.7,266.2 L12.5,262 C13.3,260.9 13.8,259.4 13.8,257.9 C13.8,254.1 10.7,251 6.9,251 C3.1,251 0,254.1 0,257.9 C0,261.7 3.1,264.8 6.9,264.8 C8.4,264.8 9.8,264.3 11,263.5 L15.2,267.7 C15.4,267.9 15.6,268 15.9,268 C16.2,268 16.4,267.9 16.6,267.7 C17.1,267.3 17.1,266.6 16.7,266.2 Z M6.9,262.7 C4.2,262.7 2.1,260.6 2.1,257.9 C2.1,255.2 4.2,253.1 6.9,253.1 C9.6,253.1 11.7,255.2 11.7,257.9 C11.7,260.6 9.6,262.7 6.9,262.7 Z" id="Shape" fill="#FFFFFF" fill-rule="nonzero"></path>
                            <path d="M0.5,275.5 L4.1,275.5 L4.1,287 L0.5,287 L0.5,275.5 Z M2.2,274 L2.2,274 C0.9,274 0,273.1 0,272 C0,270.9 0.9,270 2.2,270 C3.5,270 4.4,270.9 4.4,272 C4.4,273.1 3.5,274 2.2,274 Z M18.5,287 L14.4,287 L14.4,281 C14.4,279.4 13.8,278.4 12.4,278.4 C11.3,278.4 10.7,279.1 10.4,279.8 C10.3,280 10.3,280.4 10.3,280.7 L10.3,286.9 L6.2,286.9 C6.2,286.9 6.3,276.3 6.2,275.4 L10.3,275.4 L10.3,277.2 C10.5,276.4 11.8,275.3 13.9,275.3 C16.5,275.3 18.5,277 18.5,280.5 L18.5,287 L18.5,287 Z" id="Shape" fill="#B4B4B4" fill-rule="nonzero"></path>
                            <path d="M0.5,294.5 L4.1,294.5 L4.1,306 L0.5,306 L0.5,294.5 Z M2.2,293 L2.2,293 C0.9,293 0,292.1 0,291 C0,289.9 0.9,289 2.2,289 C3.5,289 4.4,289.9 4.4,291 C4.4,292.1 3.5,293 2.2,293 Z M18.5,306 L14.4,306 L14.4,300 C14.4,298.4 13.8,297.4 12.4,297.4 C11.3,297.4 10.7,298.1 10.4,298.8 C10.3,299 10.3,299.4 10.3,299.7 L10.3,305.9 L6.2,305.9 C6.2,305.9 6.3,295.3 6.2,294.4 L10.3,294.4 L10.3,296.2 C10.5,295.4 11.8,294.3 13.9,294.3 C16.5,294.3 18.5,296 18.5,299.5 L18.5,306 L18.5,306 Z" id="Shape" fill="#0274B3" fill-rule="nonzero"></path>
                            <path d="M0.5,313.5 L4.1,313.5 L4.1,325 L0.5,325 L0.5,313.5 Z M2.2,312 L2.2,312 C0.9,312 0,311.1 0,310 C0,308.9 0.9,308 2.2,308 C3.5,308 4.4,308.9 4.4,310 C4.4,311.1 3.5,312 2.2,312 Z M18.5,325 L14.4,325 L14.4,319 C14.4,317.4 13.8,316.4 12.4,316.4 C11.3,316.4 10.7,317.1 10.4,317.8 C10.3,318 10.3,318.4 10.3,318.7 L10.3,324.9 L6.2,324.9 C6.2,324.9 6.3,314.3 6.2,313.4 L10.3,313.4 L10.3,315.2 C10.5,314.4 11.8,313.3 13.9,313.3 C16.5,313.3 18.5,315 18.5,318.5 L18.5,325 L18.5,325 Z" id="Shape" fill="#FF633D" fill-rule="nonzero"></path>
                            <path d="M0.5,332.5 L4.1,332.5 L4.1,344 L0.5,344 L0.5,332.5 Z M2.2,331 L2.2,331 C0.9,331 0,330.1 0,329 C0,327.9 0.9,327 2.2,327 C3.5,327 4.4,327.9 4.4,329 C4.4,330.1 3.5,331 2.2,331 Z M18.5,344 L14.4,344 L14.4,338 C14.4,336.4 13.8,335.4 12.4,335.4 C11.3,335.4 10.7,336.1 10.4,336.8 C10.3,337 10.3,337.4 10.3,337.7 L10.3,343.9 L6.2,343.9 C6.2,343.9 6.3,333.3 6.2,332.4 L10.3,332.4 L10.3,334.2 C10.5,333.4 11.8,332.3 13.9,332.3 C16.5,332.3 18.5,334 18.5,337.5 L18.5,344 L18.5,344 Z" id="Shape" fill="#0274B3" fill-rule="nonzero"></path>
                            <path d="M0,409 L1,409 L1,414 L0,414 L0,409 Z M6,409 L7,409 L7,414 L6,414 L6,409 Z M1,408 L6,408 L6,409 L1,409 L1,408 Z M1,414 L6,414 L6,415 L1,415 L1,414 Z M8,409 L9,409 L9,414 L8,414 L8,409 Z M14,409 L15,409 L15,414 L14,414 L14,409 Z M9,408 L14,408 L14,409 L9,409 L9,408 Z M9,414 L14,414 L14,415 L9,415 L9,414 Z M0,417 L1,417 L1,422 L0,422 L0,417 Z M6,417 L7,417 L7,422 L6,422 L6,417 Z M1,416 L6,416 L6,417 L1,417 L1,416 Z M1,422 L6,422 L6,423 L1,423 L1,422 Z M8,417 L9,417 L9,422 L8,422 L8,417 Z M14,417 L15,417 L15,422 L14,422 L14,417 Z M9,416 L14,416 L14,417 L9,417 L9,416 Z M9,422 L14,422 L14,423 L9,423 L9,422 Z" id="Shape" fill="#A6D5F2" fill-rule="nonzero"></path>
                            <path d="M0,426 L1,426 L1,431 L0,431 L0,426 Z M6,426 L7,426 L7,431 L6,431 L6,426 Z M1,425 L6,425 L6,426 L1,426 L1,425 Z M1,431 L6,431 L6,432 L1,432 L1,431 Z M8,426 L9,426 L9,431 L8,431 L8,426 Z M14,426 L15,426 L15,431 L14,431 L14,426 Z M9,425 L14,425 L14,426 L9,426 L9,425 Z M9,431 L14,431 L14,432 L9,432 L9,431 Z M0,434 L1,434 L1,439 L0,439 L0,434 Z M6,434 L7,434 L7,439 L6,439 L6,434 Z M1,433 L6,433 L6,434 L1,434 L1,433 Z M1,439 L6,439 L6,440 L1,440 L1,439 Z M8,434 L9,434 L9,439 L8,439 L8,434 Z M14,434 L15,434 L15,439 L14,439 L14,434 Z M9,433 L14,433 L14,434 L9,434 L9,433 Z M9,439 L14,439 L14,440 L9,440 L9,439 Z" id="Shape" fill="#B4B4B4" fill-rule="nonzero"></path>
                            <path d="M16.6,445.7 L16.6,446.2 C16.6,451.2 12.8,457 5.8,457 C3.7,457 1.7,456.4 1.13686838e-13,455.3 C0.3,455.3 0.6,455.4 0.9,455.4 C2.6,455.4 4.3,454.8 5.6,453.8 C4,453.8 2.6,452.7 2.1,451.2 C2.7,451.3 3.3,451.3 3.8,451.1 C2,450.7 0.8,449.2 0.8,447.4 L0.8,447.4 C1.3,447.7 1.9,447.9 2.5,447.9 C1.4,447.2 0.8,446 0.8,444.7 C0.8,444 1,443.4 1.3,442.8 C3.2,445.1 6,446.6 9.1,446.8 C8.6,444.8 9.9,442.7 11.9,442.2 C13.2,441.9 14.6,442.3 15.5,443.3 C16.3,443.1 17.2,442.8 17.9,442.4 C17.6,443.3 17,444 16.2,444.5 C17,444.4 17.7,444.2 18.4,443.9 C18,444.5 17.3,445.2 16.6,445.7 L16.6,445.7 Z" id="Shape" fill="#B4B4B4" fill-rule="nonzero"></path>
                            <path d="M16.6,462.7 L16.6,463.2 C16.6,468.2 12.8,474 5.8,474 C3.7,474 1.7,473.4 1.13686838e-13,472.3 C0.3,472.3 0.6,472.4 0.9,472.4 C2.6,472.4 4.3,471.8 5.6,470.8 C4,470.8 2.6,469.7 2.1,468.2 C2.7,468.3 3.3,468.3 3.8,468.1 C2,467.7 0.8,466.2 0.8,464.4 L0.8,464.4 C1.3,464.7 1.9,464.9 2.5,464.9 C1.4,464.2 0.8,463 0.8,461.7 C0.8,461 1,460.4 1.3,459.8 C3.2,462.1 6,463.6 9.1,463.8 C8.6,461.8 9.9,459.7 11.9,459.2 C13.2,458.9 14.6,459.3 15.5,460.3 C16.3,460.1 17.2,459.8 17.9,459.4 C17.6,460.3 17,461 16.2,461.5 C17,461.4 17.7,461.2 18.4,460.9 C18,461.5 17.3,462.2 16.6,462.7 L16.6,462.7 Z" id="Shape" fill="#5EA9DD" fill-rule="nonzero"></path>
                            <path d="M16.6,479.7 L16.6,480.2 C16.6,485.2 12.8,491 5.8,491 C3.7,491 1.7,490.4 1.13686838e-13,489.3 C0.3,489.3 0.6,489.4 0.9,489.4 C2.6,489.4 4.3,488.8 5.6,487.8 C4,487.8 2.6,486.7 2.1,485.2 C2.7,485.3 3.3,485.3 3.8,485.1 C2,484.7 0.8,483.2 0.8,481.4 L0.8,481.4 C1.3,481.7 1.9,481.9 2.5,481.9 C1.4,481.2 0.8,480 0.8,478.7 C0.8,478 1,477.4 1.3,476.8 C3.2,479.1 6,480.6 9.1,480.8 C8.6,478.8 9.9,476.7 11.9,476.2 C13.2,475.9 14.6,476.3 15.5,477.3 C16.3,477.1 17.2,476.8 17.9,476.4 C17.6,477.3 17,478 16.2,478.5 C17,478.4 17.7,478.2 18.4,477.9 C18,478.5 17.3,479.2 16.6,479.7 L16.6,479.7 Z" id="Shape" fill="#FF633D" fill-rule="nonzero"></path>
                            <path d="M16.6,496.7 L16.6,497.2 C16.6,502.2 12.8,508 5.8,508 C3.7,508 1.7,507.4 1.13686838e-13,506.3 C0.3,506.3 0.6,506.4 0.9,506.4 C2.6,506.4 4.3,505.8 5.6,504.8 C4,504.8 2.6,503.7 2.1,502.2 C2.7,502.3 3.3,502.3 3.8,502.1 C2,501.7 0.8,500.2 0.8,498.4 L0.8,498.4 C1.3,498.7 1.9,498.9 2.5,498.9 C1.4,498.2 0.8,497 0.8,495.7 C0.8,495 1,494.4 1.3,493.8 C3.2,496.1 6,497.6 9.1,497.8 C8.6,495.8 9.9,493.7 11.9,493.2 C13.2,492.9 14.6,493.3 15.5,494.3 C16.3,494.1 17.2,493.8 17.9,493.4 C17.6,494.3 17,495 16.2,495.5 C17,495.4 17.7,495.2 18.4,494.9 C18,495.5 17.3,496.2 16.6,496.7 L16.6,496.7 Z" id="Shape" fill="#5EA9DD" fill-rule="nonzero"></path>
                            <g id="Group" transform="translate(0.000000, 348.000000)">
                                <g id="Shape" transform="translate(80.000000, 1.000000)" fill-rule="nonzero">
                                    <path d="M89,14.5 L82.1,10.3 L82.6,9.5 L90.2,14.2 L90.2,14.8 L82.6,19.7 L82.1,18.9 L89,14.5 Z M94.4,15.6 C94.4,12.3 95.7,10.7 98.2,10.7 C100.7,10.7 102,12.3 102,15.6 C102,18.9 100.7,20.5 98.2,20.5 C95.7,20.5 94.4,18.9 94.4,15.6 Z M98.2,11.7 C96.4,11.7 95.5,13 95.5,15.6 C95.5,18.2 96.4,19.5 98.2,19.5 C100,19.5 100.9,18.2 100.9,15.6 C100.9,13 100,11.7 98.2,11.7 Z M110.7,20.3 L110.7,19.5 C109.4,20.2 108.4,20.5 107.5,20.5 C106.6,20.5 106,20.2 105.5,19.6 C105,19 104.8,18.2 104.8,17.2 L104.8,10.8 L105.9,10.8 L105.9,17.2 C105.9,17.9 106.1,18.4 106.4,18.8 C106.7,19.2 107.2,19.4 107.8,19.4 C108.4,19.4 109.4,19.1 110.8,18.4 L110.8,10.8 L111.9,10.8 L111.9,20.3 L110.7,20.3 L110.7,20.3 Z M114.9,20.3 L114.9,19.3 L117.2,19.3 L117.2,11.8 L114.9,11.8 L114.9,10.8 L118.2,10.8 L118.2,12 C118.6,11.7 119.2,11.5 120,11.2 C120.8,10.9 121.5,10.8 122,10.7 L122.2,10.7 L122.2,11.9 L122,11.9 C121.5,11.9 120.8,12.1 120,12.3 C119.2,12.5 118.6,12.8 118.2,13 L118.2,19.3 L121.4,19.3 L121.4,20.3 L114.9,20.3 Z M134.4,12.1 L134.4,11.1 L136.3,11.1 L136.3,8.7 L137.4,8.5 L137.4,11.1 L142,11.1 L142,12.1 L137.4,12.1 L137.4,16.7 C137.4,17.7 137.5,18.4 137.9,18.9 C138.2,19.3 138.7,19.6 139.5,19.6 C139.8,19.6 140.2,19.6 140.9,19.5 C141.5,19.4 141.9,19.3 142.2,19.2 L142.4,20.2 C142.1,20.3 141.7,20.4 141,20.5 C140.3,20.6 139.8,20.7 139.5,20.7 C138.3,20.7 137.5,20.4 137,19.7 C136.6,19.1 136.3,18.1 136.3,16.8 L136.3,12.2 L134.4,12.2 L134.4,12.1 Z M144.6,15.6 C144.6,14.1 144.9,12.9 145.6,12 C146.2,11.1 147.2,10.7 148.4,10.7 C149.6,10.7 150.5,11.1 151.1,11.9 C151.7,12.7 152,13.8 152,15.1 L151.9,16.1 L145.8,16.1 C145.9,17.1 146.1,17.9 146.6,18.5 C147.1,19.1 147.7,19.4 148.5,19.4 C149.3,19.4 150.3,19.2 151.4,18.8 L151.7,19.8 C150.6,20.2 149.6,20.4 148.7,20.4 C147.4,20.4 146.4,20 145.7,19.1 C145,18.2 144.6,17.1 144.6,15.6 L144.6,15.6 Z M148.4,11.7 C146.7,11.7 145.8,12.8 145.7,15.1 L150.7,15.1 C150.8,12.8 150,11.7 148.4,11.7 Z M161.4,11.1 L161.2,12.1 C160.4,11.8 159.6,11.7 158.9,11.7 C157.9,11.7 157.2,12 156.7,12.7 C156.2,13.4 156,14.3 156,15.5 C156,16.7 156.2,17.6 156.7,18.3 C157.2,19 157.9,19.3 158.8,19.3 C159.4,19.3 160.2,19.1 161.2,18.8 L161.5,19.8 C160.5,20.2 159.6,20.4 158.8,20.4 C157.5,20.4 156.5,20 155.8,19.1 C155.1,18.2 154.8,17 154.8,15.4 C154.8,13.8 155.1,12.6 155.8,11.8 C156.5,11 157.5,10.6 158.8,10.6 C159.7,10.7 160.5,10.8 161.4,11.1 L161.4,11.1 Z M165.9,12.6 L165.9,20.4 L164.8,20.4 L164.8,7.1 L165.9,7.1 L165.9,11.6 C167.2,11 168.2,10.8 169,10.8 C170.9,10.8 171.9,11.9 171.9,14.1 L171.9,20.4 L170.8,20.4 L170.8,14.1 C170.8,13.4 170.7,12.9 170.4,12.5 C170.1,12.1 169.6,11.9 168.9,11.9 C168.1,11.7 167.1,12 165.9,12.6 Z M184.8,20.3 L184.8,7 L185.9,7 L185.9,11.7 C186.9,11 187.8,10.7 188.6,10.7 C189.8,10.7 190.7,11.1 191.4,11.9 C192.1,12.7 192.4,13.9 192.4,15.4 C192.4,16.9 192,18.1 191.3,19.1 C190.6,20 189.6,20.5 188.3,20.5 C187.5,20.5 186.7,20.3 185.9,19.9 L185.9,20.3 L184.8,20.3 Z M191.2,15.5 C191.2,14.3 191,13.4 190.5,12.8 C190,12.2 189.4,11.8 188.5,11.8 C187.6,11.8 186.7,12.2 185.8,12.9 L185.8,18.9 C186.1,19 186.5,19.2 187,19.3 C187.5,19.4 187.9,19.5 188.2,19.5 C189.1,19.5 189.9,19.1 190.4,18.4 C190.9,17.6 191.2,16.6 191.2,15.5 Z M195.1,20.3 L195.1,19.3 L198.2,19.3 L198.2,8 L195.2,8 L195.2,7 L199.3,7 L199.3,19.3 L202.5,19.3 L202.5,20.3 L195.1,20.3 L195.1,20.3 Z M204.4,15.6 C204.4,12.3 205.7,10.7 208.2,10.7 C210.7,10.7 212,12.3 212,15.6 C212,18.9 210.7,20.5 208.2,20.5 C205.7,20.5 204.4,18.9 204.4,15.6 Z M208.2,11.7 C206.4,11.7 205.5,13 205.5,15.6 C205.5,18.2 206.4,19.5 208.2,19.5 C210,19.5 210.9,18.2 210.9,15.6 C210.9,13 210,11.7 208.2,11.7 Z M215.3,19.1 C214.7,18.3 214.3,17.1 214.3,15.6 C214.3,14.1 214.7,12.9 215.4,12 C216.1,11.1 217.1,10.7 218.4,10.7 C219.1,10.7 219.9,10.9 220.8,11.4 L220.8,10.8 L221.8,10.8 L221.8,18 C222,19.6 222.1,20.5 222.1,20.8 C222.1,22 221.7,22.9 220.9,23.5 C220.1,24.1 219.2,24.4 218.1,24.4 C217,24.4 215.8,24.1 214.5,23.6 L214.9,22.6 C216.2,23.1 217.3,23.4 218.1,23.4 C218.9,23.4 219.6,23.2 220.2,22.8 C220.8,22.4 221.1,21.8 221.1,20.9 L220.9,19.3 C219.8,20 218.9,20.4 218.1,20.4 C216.8,20.3 215.9,19.9 215.3,19.1 Z M216.2,12.7 C215.7,13.4 215.4,14.3 215.4,15.5 C215.4,16.7 215.6,17.6 216.1,18.3 C216.6,19 217.2,19.3 218.1,19.3 C219,19.3 219.8,18.9 220.8,18.1 L220.8,12.5 C219.9,12 219.2,11.7 218.5,11.7 C217.5,11.7 216.7,12 216.2,12.7 L216.2,12.7 Z" fill="#666666"></path>
                                    <g id="Group">
                                        <g id="Shape" transform="translate(1.000000, 1.000000)" fill="#666666">
                                            <path d="M8.2,20.8 C5.6,20.8 3.7,20 2.5,18.4 C1.3,16.8 0.7,14.2 0.7,10.7 C0.7,7.2 1.3,4.6 2.5,2.9 C3.7,1.2 5.7,0.4 8.3,0.4 C10.3,0.4 12.2,0.7 13.8,1.2 L14,1.5 L13.5,4.1 L13.2,4.3 C11.9,3.8 10.2,3.6 8.4,3.6 C6.9,3.6 5.9,4.1 5.3,5.2 C4.7,6.3 4.4,8.1 4.4,10.5 C4.4,12.9 4.7,14.8 5.4,15.9 C6,17 7,17.5 8.2,17.5 C9.1,17.5 10,17.4 11,17.2 L11,13.1 L8.5,13.1 L8.3,12.9 L8.3,10.2 L8.5,10 L14.2,10 L14.4,10.2 L14.4,19.7 L14.2,19.9 C12.4,20.5 10.4,20.8 8.2,20.8 Z"></path>
                                            <path d="M8.4,0.6 C10.4,0.6 12.2,0.9 13.8,1.4 L13.3,4 C11.9,3.5 10.3,3.3 8.4,3.3 C6.8,3.3 5.7,3.9 5.1,5 C4.5,6.1 4.1,7.9 4.1,10.4 C4.1,12.9 4.4,14.7 5.1,15.9 C5.8,17.1 6.8,17.6 8.2,17.6 C9.2,17.6 10.2,17.5 11.2,17.2 L11.2,12.6 L8.4,12.6 L8.4,9.9 L14.1,9.9 L14.1,19.4 C12.2,20.1 10.2,20.4 8.1,20.4 C5.6,20.4 3.8,19.6 2.6,18.1 C1.4,16.5 0.9,14 0.9,10.5 C0.9,7 1.5,4.5 2.7,2.9 C4,1.4 5.9,0.6 8.4,0.6 Z M8.4,0.1 C5.7,0.1 3.7,1 2.4,2.7 C1.1,4.4 0.5,7 0.5,10.6 C0.5,14.2 1.1,16.8 2.3,18.5 C3.5,20.2 5.5,21 8.2,21 C10.4,21 12.5,20.7 14.4,20 L14.7,19.5 L14.7,10 L14.2,9.5 L8.5,9.5 L8,10 L8,12.7 L8.5,13.2 L10.8,13.2 L10.8,16.9 C9.9,17.1 9.1,17.2 8.3,17.2 C7.1,17.2 6.3,16.7 5.7,15.7 C5.1,14.6 4.7,12.9 4.7,10.5 C4.7,8.1 5,6.3 5.6,5.3 C6.1,4.3 7.1,3.9 8.5,3.9 C10.3,3.9 11.9,4.1 13.2,4.6 L13.9,4.2 L14.4,1.6 L14.1,1 C12.4,0.4 10.5,0.1 8.4,0.1 Z M22.3,20.9 C17.8,20.9 15.6,18.3 15.6,13.3 C15.6,10.9 16.2,9 17.3,7.7 C18.4,6.4 20,5.8 21.9,5.8 C23.9,5.8 25.4,6.4 26.5,7.6 C27.6,8.8 28.1,10.5 28.2,12.7 L28.1,14.9 L27.9,15.1 L19.4,15.1 C19.6,16.9 20.6,17.8 22.3,17.8 C23.6,17.8 25.1,17.6 26.5,17.1 L26.8,17.3 L27.4,19.9 L27.2,20.2 C26.6,20.4 25.7,20.6 24.7,20.8 C23.9,20.8 23,20.9 22.3,20.9 Z M24.4,12 C24.3,10 23.6,9 22.1,9 C21.2,9 20.6,9.2 20.2,9.7 C19.8,10.2 19.6,10.9 19.5,12 L24.4,12 Z"></path>
                                            <path d="M21.9,6 C23.8,6 25.3,6.6 26.3,7.7 C27.3,8.8 27.9,10.4 27.9,12.6 L27.8,14.8 L19.2,14.8 C19.4,16.9 20.4,18 22.4,18 C23.8,18 25.2,17.8 26.7,17.3 L27.3,19.9 C26.7,20.1 25.9,20.3 24.8,20.5 C23.8,20.7 23,20.8 22.3,20.8 C18,20.8 15.8,18.4 15.8,13.5 C15.8,11.1 16.3,9.3 17.4,8.1 C18.5,6.6 20,6 21.9,6 Z M19.1,12.3 L24.6,12.3 C24.6,10 23.7,8.8 22,8.8 C21.1,8.8 20.4,9.1 19.9,9.6 C19.5,10.1 19.2,11 19.1,12.3 Z M21.9,5.5 C19.9,5.5 18.2,6.2 17.1,7.5 C16,8.8 15.4,10.8 15.4,13.3 C15.4,18.5 17.7,21.1 22.4,21.1 C23.1,21.1 23.9,21 25,20.8 C26,20.6 26.9,20.4 27.5,20.2 L27.8,19.6 L27.2,17 L26.6,16.6 C25.1,17.1 23.7,17.3 22.4,17.3 C20.9,17.3 20,16.6 19.8,15.1 L27.9,15.1 L28.4,14.6 L28.5,12.4 C28.5,10.1 27.9,8.3 26.8,7.1 C25.5,6.1 23.9,5.5 21.9,5.5 Z M19.7,11.8 C19.8,10.9 20,10.3 20.3,9.9 C20.7,9.5 21.2,9.3 22,9.3 C22.8,9.3 23.9,9.6 24.1,11.8 L19.7,11.8 Z M35.7,20.9 C31.2,20.9 29,18.3 29,13.3 C29,10.9 29.6,9 30.7,7.7 C31.8,6.4 33.4,5.8 35.3,5.8 C37.3,5.8 38.8,6.4 39.9,7.6 C41,8.8 41.5,10.5 41.6,12.7 L41.5,14.9 L41.3,15.1 L32.9,15.1 C33.1,16.9 34.1,17.8 35.8,17.8 C37.1,17.8 38.6,17.6 40,17.1 L40.3,17.3 L40.9,19.9 L40.7,20.2 C40.1,20.4 39.2,20.6 38.2,20.8 C37.2,20.8 36.3,20.9 35.7,20.9 Z M37.7,12 C37.6,10 36.9,9 35.4,9 C34.5,9 33.9,9.2 33.5,9.7 C33.1,10.2 32.9,10.9 32.8,12 L37.7,12 Z"></path>
                                            <path d="M35.2,6 C37.1,6 38.6,6.6 39.6,7.7 C40.6,8.8 41.2,10.4 41.2,12.6 L41.1,14.8 L32.5,14.8 C32.7,16.9 33.7,18 35.7,18 C37.1,18 38.5,17.8 40,17.3 L40.6,19.9 C40,20.1 39.2,20.3 38.1,20.5 C37.1,20.7 36.3,20.8 35.6,20.8 C31.3,20.8 29.1,18.4 29.1,13.5 C29.1,11.1 29.6,9.3 30.7,8.1 C31.8,6.6 33.3,6 35.2,6 Z M32.5,12.3 L38,12.3 C38,10 37.1,8.8 35.4,8.8 C34.5,8.8 33.8,9.1 33.3,9.6 C32.8,10.1 32.5,11 32.5,12.3 Z M35.2,5.5 C33.2,5.5 31.5,6.2 30.4,7.5 C29.3,8.8 28.7,10.8 28.7,13.3 C28.7,18.5 31,21.1 35.7,21.1 C36.4,21.1 37.2,21 38.3,20.8 C39.3,20.6 40.2,20.4 40.8,20.2 L41.1,19.6 L40.5,17 L39.9,16.6 C38.4,17.1 37,17.3 35.7,17.3 C34.2,17.3 33.3,16.6 33.1,15.1 L41.2,15.1 L41.7,14.6 L41.8,12.4 C41.8,10.1 41.2,8.3 40.1,7.1 C38.8,6.1 37.2,5.5 35.2,5.5 Z M33,11.8 C33.1,10.9 33.3,10.3 33.6,9.9 C34,9.5 34.5,9.3 35.3,9.3 C36.1,9.3 37.2,9.6 37.4,11.8 L33,11.8 Z M52.2,20.6 L52,20.5 C51.1,18.5 50,16.5 48.8,14.7 L47.1,14.9 L47.1,20.5 L46.9,20.7 L43.9,20.7 L43.7,20.5 L43.7,0.8 L43.9,0.6 L46.9,0.6 L47.1,0.8 L47.1,11.8 L48.7,11.6 C49.8,10.2 50.7,8.7 51.5,7.1 L51.9,6.3 L52.1,6.2 L55.4,6.2 L55.6,6.6 C54.4,9.2 53,11.3 51.5,13.1 C52.7,14.9 54,17 55.2,19.3 L55.8,20.4 L55.6,20.8 L52.2,20.8 L52.2,20.6 L52.2,20.6 Z"></path>
                                            <path d="M46.8,0.6 L46.8,11.9 L48.8,11.7 C49.9,10.3 50.9,8.7 51.7,7.1 L52.1,6.3 L55.4,6.3 C54.2,8.9 52.8,11.1 51.3,12.9 C52.6,14.7 53.8,16.8 55.1,19.3 L55.7,20.4 L52.2,20.4 C51.2,18.3 50.1,16.3 48.9,14.4 L46.8,14.6 L46.8,20.4 L43.8,20.4 L43.8,0.7 L46.8,0.7 L46.8,0.6 L46.8,0.6 Z M46.8,0.1 L43.8,0.1 L43.3,0.6 L43.3,20.3 L43.8,20.8 L46.8,20.8 L47.3,20.3 L47.3,15 L48.6,14.9 C49.8,16.7 50.8,18.6 51.7,20.6 L52.2,20.9 L55.7,20.9 L56.1,20.2 L55.5,19.1 C54.3,16.8 53.1,14.7 51.9,13 C53.3,11.3 54.7,9.1 55.9,6.6 L55.4,5.9 L52.1,5.9 L51.7,6.2 L51.3,7 C50.5,8.6 49.6,10 48.6,11.4 L47.4,11.5 L47.4,0.8 L46.8,0.1 Z M61.9,20.8 C60.2,20.8 58.3,20.5 56.3,19.8 L56.1,19.5 L56.8,16.8 L57.1,16.6 C58.9,17.2 60.4,17.5 61.5,17.5 C62.6,17.5 63.3,17.4 63.6,17.2 C63.9,17 64.1,16.8 64.1,16.4 C64.1,16 64,15.7 63.7,15.5 C63.4,15.3 62.7,15.1 61.8,14.8 C59.8,14.3 58.4,13.8 57.6,13.2 C56.8,12.6 56.3,11.5 56.3,10.1 C56.3,7.1 58.2,5.6 62,5.6 C63.6,5.6 65.4,5.9 67.5,6.4 L67.7,6.7 L67.1,9.5 L66.8,9.7 C64.9,9.2 63.4,8.9 62.3,8.9 C61,8.9 60.5,9 60.3,9.2 C60,9.3 59.9,9.6 59.9,9.9 C59.9,10.3 60,10.5 60.3,10.7 C60.6,10.9 61.6,11.2 63.1,11.6 C64.6,12 65.8,12.5 66.5,13.1 C67.3,13.7 67.7,14.7 67.7,16.1 C67.7,19.3 65.7,20.8 61.9,20.8 L61.9,20.8 Z"></path>
                                            <path d="M62,6 C63.6,6 65.4,6.3 67.4,6.8 L66.8,9.6 C64.8,9 63.3,8.8 62.3,8.8 C61.2,8.8 60.5,8.9 60.2,9.1 C59.8,9.3 59.7,9.6 59.7,10.1 C59.7,10.6 59.9,10.9 60.2,11.1 C60.6,11.3 61.5,11.6 63,12 C64.5,12.4 65.6,12.9 66.3,13.4 C67,13.9 67.4,14.9 67.4,16.2 C67.4,19.2 65.6,20.7 61.9,20.7 C60.2,20.7 58.3,20.4 56.4,19.8 L57.1,17.1 C59,17.7 60.5,18 61.6,18 C62.7,18 63.5,17.9 63.8,17.7 C64.2,17.5 64.4,17.1 64.4,16.6 C64.4,16.1 64.2,15.7 63.9,15.5 C63.5,15.3 62.9,15.1 61.9,14.8 C59.9,14.3 58.6,13.8 57.8,13.2 C57,12.6 56.6,11.7 56.6,10.3 C56.5,7.4 58.4,6 62,6 L62,6 Z M62,5.5 C57.1,5.5 56.1,8.1 56.1,10.2 C56.1,11.7 56.6,12.8 57.5,13.5 C58.3,14.1 59.7,14.7 61.8,15.2 C63,15.5 63.5,15.7 63.7,15.8 C63.8,15.9 64,16 64,16.5 C64,16.9 63.8,17 63.7,17.1 C63.5,17.2 63,17.4 61.7,17.4 C60.7,17.4 59.2,17.1 57.4,16.5 L56.8,16.9 L56.1,19.6 L56.4,20.2 C58.4,20.8 60.3,21.2 62.1,21.2 C67.1,21.2 68.1,18.5 68.1,16.2 C68.1,14.7 67.7,13.7 66.8,13 C66,12.4 64.9,11.9 63.3,11.5 C61.5,11 60.8,10.7 60.6,10.6 C60.5,10.5 60.3,10.4 60.3,10 C60.3,9.7 60.4,9.6 60.6,9.5 C60.8,9.4 61.2,9.3 62.5,9.3 C63.5,9.3 65,9.6 66.9,10.1 L67.5,9.7 L68.1,6.9 L67.7,6.3 C65.4,5.8 63.6,5.5 62,5.5 Z"></path>
                                        </g>
                                        <path d="M8.2,20.8 C5.6,20.8 3.7,20 2.5,18.4 C1.3,16.8 0.7,14.2 0.7,10.7 C0.7,7.2 1.3,4.6 2.5,2.9 C3.7,1.2 5.7,0.4 8.3,0.4 C10.3,0.4 12.2,0.7 13.8,1.2 L14,1.5 L13.5,4.1 L13.2,4.3 C11.9,3.8 10.2,3.6 8.4,3.6 C6.9,3.6 5.9,4.1 5.3,5.2 C4.7,6.3 4.4,8.1 4.4,10.5 C4.4,12.9 4.7,14.8 5.4,15.9 C6,17 7,17.5 8.2,17.5 C9.1,17.5 10,17.4 11,17.2 L11,13.1 L8.5,13.1 L8.3,12.9 L8.3,10.2 L8.5,10 L14.2,10 L14.4,10.2 L14.4,19.7 L14.2,19.9 C12.4,20.5 10.4,20.8 8.2,20.8 Z" id="Shape" fill="#FFFFFF"></path>
                                        <path d="M8.4,0.6 C10.4,0.6 12.2,0.9 13.8,1.4 L13.3,4 C11.9,3.5 10.3,3.3 8.4,3.3 C6.8,3.3 5.7,3.9 5.1,5 C4.5,6.1 4.1,7.9 4.1,10.4 C4.1,12.9 4.4,14.7 5.1,15.9 C5.8,17.1 6.8,17.6 8.2,17.6 C9.2,17.6 10.2,17.5 11.2,17.2 L11.2,12.6 L8.4,12.6 L8.4,9.9 L14.1,9.9 L14.1,19.4 C12.2,20.1 10.2,20.4 8.1,20.4 C5.6,20.4 3.8,19.6 2.6,18.1 C1.4,16.5 0.9,14 0.9,10.5 C0.9,7 1.5,4.5 2.7,2.9 C4,1.4 5.9,0.6 8.4,0.6 Z M8.4,0.1 C5.7,0.1 3.7,1 2.4,2.7 C1.1,4.4 0.5,7 0.5,10.6 C0.5,14.2 1.1,16.8 2.3,18.5 C3.5,20.2 5.5,21 8.2,21 C10.4,21 12.5,20.7 14.4,20 L14.7,19.5 L14.7,10 L14.2,9.5 L8.5,9.5 L8,10 L8,12.7 L8.5,13.2 L10.8,13.2 L10.8,16.9 C9.9,17.1 9.1,17.2 8.3,17.2 C7.1,17.2 6.3,16.7 5.7,15.7 C5.1,14.6 4.7,12.9 4.7,10.5 C4.7,8.1 5,6.3 5.6,5.3 C6.1,4.3 7.1,3.9 8.5,3.9 C10.3,3.9 11.9,4.1 13.2,4.6 L13.9,4.2 L14.4,1.6 L14.1,1 C12.4,0.4 10.5,0.1 8.4,0.1 Z" id="Shape" fill="#666666"></path>
                                        <path d="M22.4,20.9 C17.9,20.9 15.7,18.3 15.7,13.3 C15.7,10.9 16.3,9 17.4,7.7 C18.5,6.4 20.1,5.8 22,5.8 C24,5.8 25.5,6.4 26.6,7.6 C27.7,8.8 28.2,10.5 28.3,12.7 L28.2,14.9 L28,15.1 L19.4,15.1 C19.6,16.9 20.6,17.8 22.3,17.8 C23.6,17.8 25.1,17.6 26.5,17.1 L26.8,17.3 L27.4,19.9 L27.2,20.2 C26.6,20.4 25.7,20.6 24.7,20.8 C23.9,20.8 23,20.9 22.4,20.9 Z M24.4,12.1 C24.3,10.1 23.6,9.1 22.1,9.1 C21.2,9.1 20.6,9.3 20.2,9.8 C19.8,10.3 19.6,11 19.5,12.1 L24.4,12.1 Z" id="Shape" fill="#FFFFFF"></path>
                                        <path d="M21.9,6 C23.8,6 25.3,6.6 26.3,7.7 C27.3,8.8 27.9,10.4 27.9,12.6 L27.8,14.8 L19.2,14.8 C19.4,16.9 20.4,18 22.4,18 C23.8,18 25.2,17.8 26.7,17.3 L27.3,19.9 C26.7,20.1 25.9,20.3 24.8,20.5 C23.8,20.7 23,20.8 22.3,20.8 C18,20.8 15.8,18.4 15.8,13.5 C15.8,11.1 16.3,9.3 17.4,8.1 C18.5,6.6 20,6 21.9,6 Z M19.2,12.3 L24.7,12.3 C24.7,10 23.8,8.8 22.1,8.8 C21.2,8.8 20.5,9.1 20,9.6 C19.5,10.1 19.2,11 19.2,12.3 Z M21.9,5.5 C19.9,5.5 18.2,6.2 17.1,7.5 C16,8.8 15.4,10.8 15.4,13.3 C15.4,18.5 17.7,21.1 22.4,21.1 C23.1,21.1 23.9,21 25,20.8 C26,20.6 26.9,20.4 27.5,20.2 L27.8,19.6 L27.2,17 L26.6,16.6 C25.1,17.1 23.7,17.3 22.4,17.3 C20.9,17.3 20,16.6 19.8,15.1 L27.9,15.1 L28.4,14.6 L28.5,12.4 C28.5,10.1 27.9,8.3 26.8,7.1 C25.5,6.1 23.9,5.5 21.9,5.5 Z M19.7,11.8 C19.8,10.9 20,10.3 20.3,9.9 C20.7,9.5 21.2,9.3 22,9.3 C22.8,9.3 23.9,9.6 24.1,11.8 L19.7,11.8 Z" id="Shape" fill="#666666"></path>
                                        <path d="M35.7,20.9 C31.2,20.9 29,18.3 29,13.3 C29,10.9 29.6,9 30.7,7.7 C31.8,6.4 33.4,5.8 35.3,5.8 C37.3,5.8 38.8,6.4 39.9,7.6 C41,8.8 41.5,10.5 41.6,12.7 L41.5,14.9 L41.3,15.1 L32.9,15.1 C33.1,16.9 34.1,17.8 35.8,17.8 C37.1,17.8 38.6,17.6 40,17.1 L40.3,17.3 L40.9,19.9 L40.7,20.2 C40.1,20.4 39.2,20.6 38.2,20.8 C37.2,20.8 36.3,20.9 35.7,20.9 Z M37.7,12.1 C37.6,10.1 36.9,9.1 35.4,9.1 C34.5,9.1 33.9,9.3 33.5,9.8 C33.1,10.3 32.9,11 32.8,12.1 L37.7,12.1 Z" id="Shape" fill="#FFFFFF"></path>
                                        <path d="M35.2,6 C37.1,6 38.6,6.6 39.6,7.7 C40.6,8.8 41.2,10.4 41.2,12.6 L41.1,14.8 L32.5,14.8 C32.7,16.9 33.7,18 35.7,18 C37.1,18 38.5,17.8 40,17.3 L40.6,19.9 C40,20.1 39.2,20.3 38.1,20.5 C37.1,20.7 36.3,20.8 35.6,20.8 C31.3,20.8 29.1,18.4 29.1,13.5 C29.1,11.1 29.6,9.3 30.7,8.1 C31.9,6.6 33.3,6 35.2,6 Z M32.5,12.3 L38,12.3 C38,10 37.1,8.8 35.4,8.8 C34.5,8.8 33.8,9.1 33.3,9.6 C32.8,10.1 32.5,11 32.5,12.3 Z M35.2,5.5 C33.2,5.5 31.5,6.2 30.4,7.5 C29.3,8.8 28.7,10.8 28.7,13.3 C28.7,18.5 31,21.1 35.7,21.1 C36.4,21.1 37.2,21 38.3,20.8 C39.3,20.6 40.2,20.4 40.8,20.2 L41.1,19.6 L40.5,17 L39.9,16.6 C38.4,17.1 37,17.3 35.7,17.3 C34.2,17.3 33.3,16.6 33.1,15.1 L41.2,15.1 L41.7,14.6 L41.8,12.4 C41.8,10.1 41.2,8.3 40.1,7.1 C38.9,6.1 37.3,5.5 35.2,5.5 Z M33,11.8 C33.1,10.9 33.3,10.3 33.6,9.9 C34,9.5 34.5,9.3 35.3,9.3 C36.1,9.3 37.2,9.6 37.4,11.8 L33,11.8 Z" id="Shape" fill="#666666"></path>
                                        <g id="Shape" transform="translate(43.000000, 0.000000)">
                                            <path d="M9.2,20.6 L9,20.5 C8.1,18.5 7,16.5 5.8,14.7 L4.1,14.9 L4.1,20.5 L3.9,20.7 L0.9,20.7 L0.7,20.5 L0.7,0.8 L0.9,0.6 L3.9,0.6 L4.1,0.8 L4.1,11.8 L5.7,11.6 C6.8,10.2 7.7,8.7 8.5,7.1 L8.9,6.3 L9.1,6.2 L12.4,6.2 L12.6,6.6 C11.4,9.2 10,11.3 8.5,13.1 C9.7,14.9 11,17 12.2,19.3 L12.8,20.4 L12.6,20.8 L9.2,20.8 L9.2,20.6 L9.2,20.6 Z" fill="#FFFFFF"></path>
                                            <path d="M3.8,0.6 L3.8,11.9 L5.8,11.7 C6.9,10.3 7.9,8.7 8.7,7.1 L9.1,6.3 L12.4,6.3 C11.2,8.9 9.8,11.1 8.3,12.9 C9.6,14.7 10.8,16.8 12.1,19.3 L12.7,20.4 L9.2,20.4 C8.2,18.3 7.1,16.3 5.9,14.4 L3.8,14.6 L3.8,20.4 L0.8,20.4 L0.8,0.7 L3.8,0.7 L3.8,0.6 L3.8,0.6 Z M3.8,0.1 L0.8,0.1 L0.3,0.6 L0.3,20.3 L0.8,20.8 L3.8,20.8 L4.3,20.3 L4.3,15 L5.6,14.9 C6.8,16.7 7.8,18.6 8.7,20.6 L9.2,20.9 L12.7,20.9 L13.1,20.2 L12.5,19.1 C11.3,16.8 10.1,14.7 8.9,13 C10.3,11.3 11.7,9.1 12.9,6.6 L12.4,5.9 L9.1,5.9 L8.7,6.2 L8.3,7 C7.5,8.6 6.6,10 5.6,11.4 L4.4,11.5 L4.4,0.8 L3.8,0.1 Z" fill="#666666"></path>
                                        </g>
                                        <g id="Shape" transform="translate(56.000000, 5.000000)">
                                            <path d="M5.9,15.9 C4.2,15.9 2.3,15.6 0.3,14.9 L0.1,14.6 L0.8,11.9 L1.1,11.7 C2.9,12.3 4.4,12.6 5.5,12.6 C6.6,12.6 7.3,12.5 7.6,12.3 C7.9,12.1 8.1,11.9 8.1,11.5 C8.1,11.1 8,10.8 7.7,10.6 C7.4,10.4 6.7,10.2 5.8,9.9 C3.8,9.4 2.4,8.9 1.6,8.3 C0.8,7.7 0.3,6.6 0.3,5.2 C0.3,2.2 2.2,0.7 6,0.7 C7.6,0.7 9.4,1 11.5,1.5 L11.7,1.8 L11.1,4.6 L10.8,4.8 C8.9,4.3 7.4,4 6.3,4 C5,4 4.5,4.1 4.3,4.3 C4,4.4 3.9,4.7 3.9,5 C3.9,5.4 4,5.6 4.3,5.8 C4.6,6 5.6,6.3 7.1,6.7 C8.6,7.1 9.8,7.6 10.5,8.2 C11.3,8.8 11.7,9.8 11.7,11.2 C11.7,14.3 9.7,15.9 5.9,15.9 L5.9,15.9 Z" fill="#FFFFFF"></path>
                                            <path d="M6,1 C7.6,1 9.4,1.3 11.4,1.8 L10.8,4.6 C8.8,4 7.3,3.8 6.3,3.8 C5.2,3.8 4.5,3.9 4.2,4.1 C3.8,4.3 3.7,4.6 3.7,5.1 C3.7,5.6 3.9,5.9 4.2,6.1 C4.6,6.3 5.5,6.6 7,7 C8.5,7.4 9.6,7.9 10.3,8.4 C11,8.9 11.4,9.9 11.4,11.2 C11.4,14.2 9.6,15.7 5.9,15.7 C4.2,15.7 2.3,15.4 0.4,14.8 L1.1,12.1 C3,12.7 4.5,13 5.6,13 C6.7,13 7.5,12.9 7.8,12.7 C8.2,12.5 8.4,12.1 8.4,11.6 C8.4,11.1 8.2,10.7 7.9,10.5 C7.5,10.3 6.9,10.1 5.9,9.8 C3.9,9.3 2.6,8.8 1.8,8.2 C1,7.6 0.6,6.7 0.6,5.3 C0.6,2.4 2.4,1 6,1 L6,1 Z M6,0.5 C1.1,0.5 0.1,3.1 0.1,5.2 C0.1,6.7 0.6,7.8 1.5,8.5 C2.3,9.1 3.7,9.7 5.8,10.2 C7,10.5 7.5,10.7 7.7,10.8 C7.8,10.9 8,11 8,11.5 C8,11.9 7.8,12 7.7,12.1 C7.5,12.2 7,12.4 5.7,12.4 C4.7,12.4 3.2,12.1 1.4,11.5 L0.8,11.9 L0.1,14.6 L0.4,15.2 C2.4,15.8 4.3,16.2 6.1,16.2 C11.1,16.2 12.1,13.5 12.1,11.2 C12.1,9.7 11.7,8.7 10.8,8 C10,7.4 8.9,6.9 7.3,6.5 C5.5,6 4.8,5.7 4.6,5.6 C4.5,5.5 4.3,5.4 4.3,5 C4.3,4.7 4.4,4.6 4.6,4.5 C4.8,4.4 5.2,4.3 6.5,4.3 C7.5,4.3 9,4.6 10.9,5.1 L11.5,4.7 L12.1,1.9 L11.7,1.3 C9.5,0.8 7.6,0.5 6,0.5 Z" fill="#666666"></path>
                                        </g>
                                    </g>
                                </g>
                                <g>
                                    <path d="M32.5,22.1 L39.7,22.1 M39.7,22.1 L45.2,22.1 L45.2,25.7 L52,25.7 L52,22.1 L53.5,22.1 C55.5,22.1 57.4,21.1 58.5,19.6 L58.5,25.7 L65.3,25.7 L65.3,22.1 L66.8,22.1 C70.3,22.1 73.1,19.3 73.1,15.8 L73.1,11.5 C73.1,8 70.3,5.2 66.8,5.2 L58.5,5.2 L45.2,5.2 L45.2,7.6 C44,6.1 42.3,5.2 40.3,5.2 L25.4,5.2 L25.4,7.3 C24.4,6 22.8,5.2 21,5.2 L12.4,5.2 L12.4,0.2 L5.6,0.2 L5.6,5.2 L5.6,7.1 L5.6,19.6 L1.13686838e-13,19.6 L3.4,26.5 L6.2,26.5 C9.5,26.5 12.2,23.9 12.3,20.7 C13.3,21.6 14.7,22.2 16.2,22.2 L25.3,22.2 L26.5,22.2 L32.5,22.2" id="Shape" stroke="#666666" stroke-width="0.5"></path>
                                    <g transform="translate(3.000000, 2.000000)" fill-rule="nonzero" fill="#373865">
                                        <path d="M50.5,5.2 L44.2,5.2 L44.2,21.7 L47,21.7 L47,18.1 L50.5,18.1 C52.9,18.1 54.8,16.2 54.8,13.8 L54.8,9.5 C54.8,7.1 52.9,5.2 50.5,5.2 L50.5,5.2 Z M52,13.8 C52,14.6 51.4,15.2 50.6,15.2 L47,15.2 L47,8 L50.6,8 C51.4,8 52,8.6 52,9.4 L52,13.8 Z" id="Shape"></path>
                                        <path d="M63.8,5.2 L57.5,5.2 L57.5,21.7 L60.3,21.7 L60.3,18.1 L63.8,18.1 C66.2,18.1 68.1,16.2 68.1,13.8 L68.1,9.5 C68.1,7.1 66.2,5.2 63.8,5.2 L63.8,5.2 Z M65.3,13.8 C65.3,14.6 64.7,15.2 63.9,15.2 L60.3,15.2 L60.3,8 L63.9,8 C64.7,8 65.3,8.6 65.3,9.4 L65.3,13.8 Z" id="Shape"></path>
                                        <rect id="Rectangle-path" x="4.6" y="0.2" width="2.8" height="2.9"></rect>
                                        <path d="M37.2,5.2 L24.3,5.2 L24.3,18.1 L27.2,18.1 L27.2,8.1 L31.5,8.1 L31.5,18.1 L34.4,18.1 L34.4,8.1 L37.3,8.1 C38.1,8.1 38.7,8.7 38.7,9.5 L38.7,18.1 L41.6,18.1 L41.6,9.5 C41.5,7.1 39.6,5.2 37.2,5.2" id="Shape"></path>
                                        <path d="M4.6,18.1 C4.6,18.9 4,19.5 3.2,19.5 L0.3,19.5 L1.7,22.4 L3.3,22.4 C5.6,22.4 7.5,20.5 7.5,18.2 L7.5,5.2 L4.7,5.2 L4.7,18.1 L4.6,18.1 Z" id="Shape"></path>
                                        <path d="M18,5.2 L10.3,5.2 L11.7,8 L17.2,8 C18,8 18.6,8.6 18.6,9.4 L18.6,10.3 L13.2,10.3 C11,10.3 9.3,12 9.3,14.2 C9.3,16.4 11,18.1 13.2,18.1 L21.5,18.1 L21.5,8.8 C21.6,6.8 20,5.2 18,5.2 L18,5.2 Z M18.7,15.3 L13.4,15.3 C12.8,15.3 12.3,14.8 12.3,14.2 C12.3,13.6 12.8,13.1 13.4,13.1 L18.7,13.1 L18.7,15.3 Z" id="Shape"></path>
                                    </g>
                                </g>
                            </g>
                            <g id="Group" transform="translate(0.000000, 378.000000)">
                                <g id="Shape" transform="translate(80.000000, 2.000000)" fill-rule="nonzero">
                                    <path d="M9.1,2.2 C6.6,2.2 4.8,3 3.7,4.5 C2.5,6 2,8.5 2,11.9 C2,15.3 2.6,17.7 3.7,19.2 C4.8,20.7 6.6,21.5 9,21.5 C11.1,21.5 13,21.2 14.8,20.5 L14.8,11.3 L9.3,11.3 L9.3,13.9 L12,13.9 L12,18.3 C11,18.5 10,18.7 9.1,18.7 C7.8,18.7 6.8,18.1 6.1,17 C5.4,15.9 5.1,14.1 5.1,11.7 C5.1,9.3 5.4,7.5 6,6.4 C6.6,5.3 7.7,4.8 9.2,4.8 C11,4.8 12.6,5 13.9,5.5 L14.4,3 C12.8,2.5 11.1,2.2 9.1,2.2" fill="#666666"></path>
                                    <path d="M9,21.5 C6.6,21.5 4.8,20.7 3.7,19.2 C2.6,17.7 2,15.3 2,11.9 C2,8.5 2.6,6.1 3.7,4.5 C4.9,3 6.7,2.2 9.1,2.2 C11,2.2 12.8,2.5 14.4,3 L13.9,5.5 C12.6,5 11,4.8 9.2,4.8 C7.7,4.8 6.6,5.3 6,6.4 C5.4,7.5 5.1,9.2 5.1,11.7 C5.1,14.1 5.4,15.9 6.1,17 C6.8,18.1 7.7,18.7 9.1,18.7 C10,18.7 11,18.6 12,18.3 L12,13.9 L9.3,13.9 L9.3,11.3 L14.8,11.3 L14.8,20.5 C13,21.2 11,21.5 9,21.5 M9.1,1.7 C6.5,1.7 4.5,2.5 3.3,4.2 C2.1,5.8 1.5,8.4 1.5,11.9 C1.5,15.4 2.1,17.9 3.3,19.5 C4.5,21.1 6.4,22 9,22 C11.1,22 13.1,21.7 15,21 L15.3,20.9 L15.3,10.9 L8.8,10.9 L8.8,14.5 L11.5,14.5 L11.5,18.1 C10.6,18.3 9.8,18.4 9,18.4 C7.9,18.4 7,17.9 6.5,17 C5.9,16 5.6,14.3 5.6,11.9 C5.6,9.6 5.9,7.9 6.5,6.9 C7,6 7.9,5.5 9.3,5.5 C11.1,5.5 12.6,5.7 13.9,6.2 L14.4,6.4 L15.1,2.9 L14.7,2.8 C13,2 11.1,1.7 9.1,1.7 M19.5,13.5 C19.6,12.3 19.8,11.4 20.3,10.9 C20.7,10.4 21.4,10.1 22.3,10.1 C24,10.1 24.8,11.2 24.8,13.5 L19.5,13.5 M22.2,7.4 C20.4,7.4 18.9,8 17.9,9.2 C16.9,10.4 16.4,12.1 16.4,14.4 C16.4,19.1 18.5,21.5 22.7,21.5 C23.3,21.5 24.1,21.4 25.1,21.3 C26.1,21.1 26.9,21 27.5,20.7 L26.9,18.2 C25.4,18.7 24,18.9 22.7,18.9 C20.8,18.9 19.8,17.9 19.6,15.8 L28,15.8 L28.1,13.7 C28.1,11.6 27.5,10 26.5,9 C25.4,8 24,7.4 22.2,7.4" fill="#666666"></path>
                                    <path d="M20,13 C20.1,12.2 20.3,11.5 20.6,11.2 C21,10.8 21.5,10.6 22.2,10.6 C23,10.6 24.1,10.9 24.2,13 L20,13 M22.3,10.1 C21.4,10.1 20.7,10.4 20.3,10.9 C19.9,11.4 19.6,12.3 19.5,13.5 L24.8,13.5 C24.8,11.2 24,10.1 22.3,10.1 M22.6,21.5 C18.4,21.5 16.3,19.1 16.3,14.4 C16.3,12.1 16.8,10.3 17.8,9.2 C18.8,8 20.3,7.4 22.1,7.4 C23.9,7.4 25.3,7.9 26.3,9 C27.3,10.1 27.8,11.7 27.9,13.7 L27.8,15.8 L19.5,15.8 C19.7,17.9 20.7,18.9 22.6,18.9 C23.9,18.9 25.3,18.7 26.8,18.2 L27.4,20.7 C26.8,20.9 26,21.1 25,21.3 C24,21.5 23.2,21.5 22.6,21.5 M22.2,6.9 C20.2,6.9 18.7,7.6 17.5,8.9 C16.4,10.2 15.8,12.1 15.8,14.5 C15.8,19.5 18.1,22.1 22.5,22.1 C23.2,22.1 24,22 25,21.9 C26,21.7 26.8,21.5 27.4,21.3 L27.8,21.2 L27,17.8 L26.5,18 C25.1,18.5 23.7,18.7 22.5,18.7 C21,18.7 20.2,18 20,16.6 L28.3,16.6 L28.4,14 C28.4,11.8 27.8,10.1 26.7,8.9 C25.7,7.5 24.1,6.9 22.2,6.9 M32.4,13.5 C32.5,12.3 32.7,11.4 33.2,10.9 C33.6,10.4 34.3,10.1 35.2,10.1 C36.9,10.1 37.7,11.2 37.7,13.5 L32.4,13.5 M35.1,7.4 C33.3,7.4 31.8,8 30.8,9.2 C29.8,10.4 29.3,12.1 29.3,14.4 C29.3,19.1 31.4,21.5 35.6,21.5 C36.2,21.5 37,21.4 38,21.3 C39,21.1 39.8,21 40.4,20.7 L39.8,18.2 C38.3,18.7 36.9,18.9 35.6,18.9 C33.7,18.9 32.7,17.9 32.5,15.8 L40.9,15.8 L41,13.7 C41,11.6 40.4,10 39.4,9 C38.3,8 36.9,7.4 35.1,7.4" fill="#666666"></path>
                                    <path d="M32.9,13 C33,12.2 33.2,11.5 33.5,11.2 C33.9,10.8 34.4,10.6 35.1,10.6 C35.9,10.6 37,10.9 37.1,13 L32.9,13 M35.2,10.1 C34.3,10.1 33.6,10.4 33.2,10.9 C32.7,11.4 32.5,12.3 32.4,13.5 L37.7,13.5 C37.7,11.2 36.8,10.1 35.2,10.1 M35.5,21.5 C31.3,21.5 29.2,19.1 29.2,14.4 C29.2,12.1 29.7,10.3 30.7,9.2 C31.7,8 33.2,7.4 35,7.4 C36.8,7.4 38.2,7.9 39.2,9 C40.2,10.1 40.7,11.7 40.8,13.7 L40.7,15.8 L32.3,15.8 C32.5,17.9 33.5,18.9 35.4,18.9 C36.7,18.9 38.1,18.7 39.6,18.2 L40.2,20.7 C39.6,20.9 38.8,21.1 37.8,21.3 C36.9,21.5 36.1,21.5 35.5,21.5 M35.1,6.9 C33.1,6.9 31.6,7.6 30.4,8.9 C29.3,10.2 28.7,12.1 28.7,14.5 C28.7,19.5 31,22.1 35.4,22.1 C36.1,22.1 36.9,22 37.9,21.9 C38.9,21.7 39.7,21.5 40.4,21.3 L40.8,21.2 L40.7,20.8 L40,17.8 L39.5,18 C38.1,18.5 36.7,18.7 35.5,18.7 C34,18.7 33.2,18 33,16.6 L41.3,16.6 L41.4,14 C41.4,11.8 40.8,10.1 39.7,8.9 C38.6,7.5 37,6.9 35.1,6.9 M46.3,2.2 L43.4,2.2 L43.4,21.2 L46.3,21.2 L46.3,15.6 L48.3,15.4 C49.5,17.3 50.6,19.2 51.5,21.2 L54.8,21.2 L54.2,20.1 C53,17.7 51.7,15.7 50.5,14 C52,12.3 53.3,10.2 54.5,7.7 L51.3,7.7 L50.9,8.5 C50.1,10.1 49.2,11.6 48.1,13 L46.2,13.2 L46.3,2.2" fill="#666666"></path>
                                    <path d="M43.3,21.2 L43.3,2.2 L46.2,2.2 L46.2,13.1 L48.1,12.9 C49.2,11.5 50.1,10 50.9,8.4 L51.3,7.6 L54.5,7.6 C53.3,10.1 52,12.3 50.5,13.9 C51.7,15.6 52.9,17.7 54.2,20.1 L54.8,21.2 L51.5,21.2 C50.6,19.2 49.5,17.3 48.3,15.4 L46.3,15.6 L46.3,21.2 L43.3,21.2 M46.7,1.7 L42.8,1.7 L42.8,21.7 L46.7,21.7 L46.7,16 L48,15.9 C49.1,17.7 50.1,19.5 51,21.4 L51.1,21.7 L55.6,21.7 L55.2,21 L54.9,20.9 L55,20.5 L54.7,19.9 C53.5,17.7 52.4,15.7 51.2,14 C52.6,12.3 53.9,10.2 55,7.8 L55.3,7.1 L51,7.1 L50.9,7.4 L50.5,8.2 C49.8,9.7 48.9,11.1 47.9,12.4 L46.8,12.5 L46.8,1.7" fill="#666666"></path>
                                    <path d="M60.9,7.4 C57.4,7.4 55.6,8.8 55.6,11.5 C55.6,12.8 56,13.7 56.7,14.3 C57.4,14.9 58.8,15.4 60.6,15.8 C61.6,16 62.2,16.3 62.5,16.5 C62.8,16.7 63,17.1 63,17.6 C63,18.1 62.8,18.4 62.4,18.6 C62,18.8 61.3,18.9 60.2,18.9 C59.1,18.9 57.7,18.6 55.9,18 L55.3,20.6 C57.2,21.2 59,21.5 60.6,21.5 C64.1,21.5 65.9,20.1 65.9,17.2 C65.9,15.9 65.6,15.1 64.9,14.5 C64.2,14 63.1,13.5 61.7,13.1 C60.2,12.7 59.3,12.4 59,12.2 C58.6,12 58.5,11.7 58.5,11.2 C58.5,10.8 58.7,10.5 59,10.3 C59.3,10.1 60,10 61.1,10 C62.2,10 63.6,10.3 65.5,10.8 L66,8.1 C64.2,7.7 62.4,7.4 60.9,7.4" fill="#666666"></path>
                                    <path d="M60.4,18.9 C61.5,18.9 62.2,18.8 62.6,18.6 C63,18.4 63.2,18.1 63.2,17.6 C63.2,17.1 63,16.7 62.7,16.5 C62.4,16.3 61.7,16.1 60.8,15.8 C58.9,15.3 57.6,14.8 56.9,14.3 C56.2,13.7 55.8,12.8 55.8,11.5 C55.8,8.8 57.6,7.4 61.1,7.4 C62.6,7.4 64.4,7.6 66.3,8.1 L65.8,10.8 C63.9,10.3 62.5,10 61.4,10 C60.4,10 59.7,10.1 59.3,10.3 C58.9,10.5 58.8,10.8 58.8,11.2 C58.8,11.6 59,12 59.3,12.2 C59.7,12.4 60.6,12.7 62,13.1 C63.5,13.5 64.5,14 65.2,14.5 C65.9,15 66.2,15.9 66.2,17.2 C66.2,20.1 64.4,21.5 60.9,21.5 C59.2,21.5 57.5,21.2 55.6,20.6 L56.2,18 C57.9,18.6 59.4,18.9 60.4,18.9 M60.9,6.9 C56.2,6.9 55.2,9.4 55.2,11.5 C55.2,12.9 55.6,14 56.5,14.6 C57.3,15.2 58.7,15.7 60.6,16.2 C61.7,16.5 62.2,16.7 62.4,16.8 C62.5,16.9 62.7,17 62.7,17.4 C62.7,17.8 62.5,17.9 62.4,18 C62.2,18.1 61.7,18.3 60.4,18.3 C59.4,18.3 58,18 56.2,17.5 L55.7,17.3 L54.9,20.4 L54.9,20.5 L54.8,20.9 L55.1,21 L55.2,21 C57.1,21.6 59,21.9 60.7,21.9 C65.5,21.9 66.5,19.3 66.5,17.1 C66.5,15.7 66.1,14.7 65.3,14 C64.6,13.4 63.4,12.9 61.9,12.5 C60.1,12 59.5,11.8 59.3,11.6 C59.2,11.5 59,11.4 59,11.1 C59,10.8 59.1,10.7 59.3,10.6 C59.5,10.5 59.9,10.4 61.2,10.4 C62.2,10.4 63.6,10.7 65.4,11.2 L65.9,11.3 L66.6,7.6 L66.2,7.5 C64.3,7.2 62.5,6.9 60.9,6.9" fill="#666666"></path>
                                    <path d="M8,20.8 C5.5,20.8 3.7,20 2.5,18.4 C1.4,16.9 0.8,14.3 0.8,10.9 C0.8,7.5 1.4,5 2.6,3.4 C3.8,1.8 5.7,1 8.2,1 C10.2,1 12,1.3 13.5,1.8 L13.7,1.9 L13.1,4.9 L12.8,4.8 C11.5,4.4 9.9,4.1 8.1,4.1 C6.7,4.1 5.7,4.6 5.1,5.6 C4.5,6.6 4.2,8.4 4.2,10.7 C4.2,13.1 4.5,14.8 5.2,15.9 C5.8,16.9 6.7,17.5 8,17.5 C8.9,17.5 9.8,17.4 10.7,17.2 L10.7,13.2 L8,13.2 L8,10.1 L14,10.1 L14,19.7 L13.8,19.8 C12.1,20.4 10.1,20.8 8,20.8" fill="#FFFFFF"></path>
                                    <path d="M8.2,1.3 C10.1,1.3 11.9,1.6 13.5,2.1 L13,4.6 C11.7,4.1 10.1,3.9 8.3,3.9 C6.8,3.9 5.7,4.4 5.1,5.5 C4.5,6.6 4.2,8.3 4.2,10.8 C4.2,13.2 4.5,15 5.2,16.1 C5.9,17.2 6.8,17.8 8.2,17.8 C9.1,17.8 10.1,17.7 11.1,17.4 L11.1,13 L8.4,13 L8.4,10.4 L13.9,10.4 L13.9,19.6 C12.1,20.2 10.1,20.6 8.1,20.6 C5.7,20.6 3.9,19.8 2.8,18.3 C1.7,16.8 1.1,14.4 1.1,11 C1.1,7.6 1.7,5.2 2.8,3.6 C3.9,2 5.7,1.3 8.2,1.3 M8.2,0.8 C5.6,0.8 3.6,1.6 2.4,3.3 C1.2,4.9 0.6,7.5 0.6,11 C0.6,14.5 1.2,17 2.4,18.6 C3.6,20.2 5.5,21.1 8.1,21.1 C10.2,21.1 12.2,20.8 14.1,20.1 L14.4,20 L14.4,10 L7.9,10 L7.9,13.6 L10.6,13.6 L10.6,17.2 C9.8,17.4 9,17.5 8.1,17.5 C7,17.5 6.1,17 5.6,16.1 C5,15.1 4.7,13.4 4.7,11 C4.7,8.7 5,7 5.6,6 C6.1,5.1 7,4.6 8.4,4.6 C10.2,4.6 11.7,4.8 13,5.3 L13.5,5.5 L14.2,2 L13.8,1.9 C12,1.1 10.2,0.8 8.2,0.8" fill="#666666"></path>
                                    <path d="M21.7,20.8 C17.4,20.8 15.2,18.3 15.2,13.5 C15.2,11.1 15.7,9.3 16.8,8.1 C17.9,6.9 19.4,6.2 21.3,6.2 C23.2,6.2 24.7,6.8 25.7,7.9 C26.7,9 27.3,10.7 27.3,12.8 L27.2,15.2 L18.9,15.2 C19.1,17 20,17.8 21.7,17.8 C23,17.8 24.4,17.6 25.8,17.1 L26,17 L26.7,20 L26.5,20.1 C25.9,20.3 25.1,20.5 24.1,20.7 C23.1,20.8 22.3,20.8 21.7,20.8 L21.7,20.8 Z M23.6,12.3 C23.5,10.3 22.8,9.4 21.3,9.4 C20.5,9.4 19.9,9.6 19.5,10.1 C19.1,10.5 18.9,11.3 18.8,12.3 L23.6,12.3 L23.6,12.3 Z" fill="#FFFFFF"></path>
                                    <path d="M21.2,6.5 C23,6.5 24.4,7 25.4,8.1 C26.4,9.2 26.9,10.8 27,12.8 L26.9,14.9 L18.5,14.9 C18.7,17 19.7,18 21.6,18 C22.9,18 24.3,17.8 25.8,17.3 L26.4,19.8 C25.8,20 25,20.2 24,20.4 C23,20.6 22.2,20.6 21.6,20.6 C17.4,20.6 15.3,18.2 15.3,13.5 C15.3,11.2 15.8,9.4 16.8,8.3 C18,7.1 19.4,6.5 21.2,6.5 L21.2,6.5 Z M18.6,12.5 L23.9,12.5 C23.9,10.2 23.1,9.1 21.4,9.1 C20.5,9.1 19.8,9.4 19.4,9.9 C18.9,10.4 18.6,11.3 18.6,12.5 Z M21.2,6 C19.2,6 17.7,6.7 16.5,8 C15.4,9.3 14.8,11.2 14.8,13.6 C14.8,18.6 17.1,21.2 21.5,21.2 C22.2,21.2 23,21.1 24,21 C25,20.8 25.8,20.6 26.5,20.4 L26.9,20.3 L26.1,16.9 L25.6,17.1 C24.2,17.6 22.8,17.8 21.6,17.8 C20.1,17.8 19.3,17.1 19.1,15.7 L27.4,15.7 L27.5,13.1 C27.5,10.9 26.9,9.2 25.8,8 C24.7,6.6 23.2,6 21.2,6 L21.2,6 Z M19.1,12 C19.2,11.2 19.4,10.5 19.7,10.2 C20.1,9.8 20.6,9.6 21.3,9.6 C22.1,9.6 23.2,9.9 23.3,12 L19.1,12 L19.1,12 Z" fill="#666666"></path>
                                    <path d="M34.5,20.8 C30.2,20.8 28,18.3 28,13.5 C28,11.1 28.5,9.3 29.6,8.1 C30.7,6.9 32.2,6.2 34.1,6.2 C36,6.2 37.5,6.8 38.5,7.9 C39.5,9 40.1,10.7 40.1,12.8 L40,15.2 L31.7,15.2 C31.9,17 32.8,17.8 34.5,17.8 C35.8,17.8 37.2,17.6 38.6,17.1 L38.8,17 L39.5,20 L39.3,20.1 C38.7,20.3 37.9,20.5 36.9,20.7 C36,20.8 35.2,20.8 34.5,20.8 L34.5,20.8 Z M36.5,12.3 C36.4,10.3 35.7,9.4 34.2,9.4 C33.4,9.4 32.8,9.6 32.4,10.1 C32,10.5 31.8,11.3 31.7,12.3 L36.5,12.3 L36.5,12.3 Z" fill="#FFFFFF"></path>
                                    <path d="M34.1,6.5 C35.9,6.5 37.3,7 38.3,8.1 C39.3,9.2 39.8,10.8 39.9,12.8 L39.8,14.9 L31.4,14.9 C31.6,17 32.6,18 34.5,18 C35.8,18 37.2,17.8 38.7,17.3 L39.3,19.8 C38.7,20 37.9,20.2 36.9,20.4 C35.9,20.6 35.1,20.6 34.5,20.6 C30.3,20.6 28.2,18.2 28.2,13.5 C28.2,11.2 28.7,9.4 29.7,8.3 C30.8,7.1 32.3,6.5 34.1,6.5 L34.1,6.5 Z M31.4,12.5 L36.7,12.5 C36.7,10.2 35.9,9.1 34.2,9.1 C33.3,9.1 32.6,9.4 32.2,9.9 C31.8,10.4 31.5,11.3 31.4,12.5 L31.4,12.5 Z M34.1,6 C32.1,6 30.6,6.7 29.4,8 C28.3,9.3 27.7,11.2 27.7,13.6 C27.7,18.6 30,21.2 34.4,21.2 C35.1,21.2 35.9,21.1 36.9,21 C37.9,20.8 38.7,20.6 39.3,20.4 L39.7,20.3 L38.9,16.9 L38.4,17.1 C37,17.6 35.6,17.8 34.4,17.8 C32.9,17.8 32.1,17.1 31.9,15.7 L40.2,15.7 L40.3,13.1 C40.3,10.9 39.7,9.2 38.6,8 C37.6,6.6 36.1,6 34.1,6 L34.1,6 Z M32,12 C32.1,11.2 32.3,10.5 32.6,10.2 C33,9.8 33.5,9.6 34.2,9.6 C35,9.6 36.1,9.9 36.2,12 L32,12 L32,12 Z" fill="#666666"></path>
                                    <path d="M50.4,20.5 L50.3,20.4 C49.4,18.4 48.4,16.6 47.2,14.7 L45.6,14.9 L45.6,20.5 L42.2,20.5 L42.2,1 L45.6,1 L45.6,11.9 L47.1,11.7 C48.1,10.3 49.1,8.9 49.8,7.4 L50.3,6.5 L54,6.5 L53.8,6.8 C52.6,9.3 51.3,11.4 49.9,13.1 C51.1,14.8 52.3,16.8 53.5,19.1 L54.3,20.5 L50.4,20.5" fill="#FFFFFF"></path>
                                    <path d="M45.3,1.3 L45.3,12.2 L47.2,12 C48.3,10.6 49.2,9.1 50,7.5 L50.4,6.7 L53.6,6.7 C52.4,9.2 51.1,11.4 49.6,13 C50.8,14.7 52,16.8 53.3,19.1 L53.9,20.2 L50.6,20.2 C49.7,18.2 48.6,16.3 47.4,14.4 L45.4,14.6 L45.4,20.2 L42.5,20.2 L42.5,1.2 L45.3,1.2 M45.8,0.8 L41.9,0.8 L41.9,20.8 L45.8,20.8 L45.8,15.2 L47.1,15.1 C48.2,16.9 49.2,18.7 50.1,20.6 L50.2,20.9 L54.7,20.9 L53.8,19.1 C52.6,16.9 51.5,14.9 50.3,13.2 C51.7,11.5 53,9.4 54.1,7 L54.4,6.3 L50.1,6.3 L49.6,7.4 C48.9,8.9 48,10.3 47,11.6 L45.9,11.7 L45.8,0.8" fill="#666666"></path>
                                    <path d="M59.9,20.8 C58.2,20.8 56.4,20.5 54.5,19.9 L54.3,19.8 L55,16.7 L55.2,16.8 C57,17.4 58.4,17.6 59.4,17.6 C60.4,17.6 61.1,17.5 61.5,17.3 C61.8,17.1 61.9,16.9 61.9,16.5 C61.9,16.1 61.8,15.8 61.5,15.6 C61.2,15.4 60.5,15.2 59.6,15 C57.7,14.5 56.3,14 55.6,13.4 C54.8,12.8 54.4,11.8 54.4,10.4 C54.4,7.5 56.3,6.1 59.9,6.1 C61.4,6.1 63.2,6.4 65.2,6.9 L65.4,7 L64.8,10.2 L64.5,10.1 C62.6,9.6 61.2,9.3 60.2,9.3 C59,9.3 58.5,9.4 58.2,9.5 C57.9,9.6 57.8,9.9 57.8,10.2 C57.8,10.6 57.9,10.8 58.2,10.9 C58.5,11.1 59.4,11.4 60.9,11.8 C62.4,12.2 63.5,12.7 64.2,13.2 C64.9,13.8 65.3,14.7 65.3,16.1 C65.5,19.3 63.6,20.8 59.9,20.8" fill="#FFFFFF"></path>
                                    <path d="M60,6.5 C61.5,6.5 63.2,6.7 65.2,7.2 L64.7,9.9 C62.8,9.4 61.4,9.1 60.3,9.1 C59.3,9.1 58.6,9.2 58.2,9.4 C57.8,9.6 57.7,9.9 57.7,10.3 C57.7,10.7 57.9,11.1 58.2,11.3 C58.6,11.5 59.5,11.8 60.9,12.2 C62.4,12.6 63.4,13.1 64.1,13.6 C64.8,14.1 65.1,15 65.1,16.3 C65.1,19.2 63.3,20.6 59.8,20.6 C58.1,20.6 56.4,20.3 54.4,19.7 L55,17.1 C56.8,17.7 58.2,18 59.3,18 C60.4,18 61.1,17.9 61.5,17.7 C61.9,17.5 62.1,17.2 62.1,16.7 C62.1,16.2 61.9,15.9 61.6,15.6 C61.3,15.4 60.6,15.2 59.7,14.9 C57.8,14.4 56.5,13.9 55.8,13.4 C55.1,12.8 54.7,11.9 54.7,10.6 C54.7,7.8 56.5,6.5 60,6.5 M60,6 C55.2,6 54.3,8.5 54.3,10.6 C54.3,12 54.7,13.1 55.6,13.7 C56.4,14.3 57.8,14.8 59.7,15.3 C60.8,15.6 61.3,15.8 61.5,15.9 C61.6,16 61.8,16.1 61.8,16.5 C61.8,16.9 61.6,17 61.5,17.1 C61.3,17.2 60.8,17.4 59.5,17.4 C58.5,17.4 57.1,17.1 55.3,16.6 L54.8,16.4 L53.9,19.9 L54.3,20 C56.2,20.6 58.1,20.9 59.8,20.9 C64.6,20.9 65.6,18.3 65.6,16.1 C65.6,14.7 65.2,13.7 64.4,13 C63.7,12.4 62.5,12 61,11.5 C59.2,11 58.6,10.8 58.4,10.6 C58.3,10.5 58.1,10.4 58.1,10.1 C58.1,9.8 58.2,9.7 58.4,9.6 C58.6,9.5 59,9.4 60.3,9.4 C61.3,9.4 62.7,9.7 64.5,10.2 L65,10.3 L65.7,6.6 L65.3,6.5 C63.3,6.2 61.5,6 60,6" fill="#666666"></path>
                                </g>
                                <g>
                                    <path d="M32.5,22.2 L39.7,22.2 M39.7,22.2 L45.2,22.2 L45.2,25.8 L52,25.8 L52,22.2 L53.5,22.2 C55.5,22.2 57.4,21.2 58.5,19.7 L58.5,25.8 L65.3,25.8 L65.3,22.2 L66.8,22.2 C70.3,22.2 73.1,19.4 73.1,15.9 L73.1,11.6 C73.1,8.1 70.3,5.3 66.8,5.3 L58.5,5.3 L45.2,5.3 L45.2,7.7 C44,6.2 42.3,5.3 40.3,5.3 L25.4,5.3 L25.4,7.4 C24.4,6.1 22.8,5.3 21,5.3 L12.4,5.3 L12.4,0.3 L5.6,0.3 L5.6,5.3 L5.6,7.2 L5.6,19.7 L1.13686838e-13,19.7 L3.4,26.6 L6.2,26.6 C9.5,26.6 12.2,24 12.3,20.8 C13.3,21.7 14.7,22.3 16.2,22.3 L25.3,22.3 L26.5,22.3 L32.5,22.3" id="Shape" stroke="#666666" stroke-width="0.5"></path>
                                    <g transform="translate(3.000000, 2.000000)" fill-rule="nonzero" fill="#373865">
                                        <path d="M50.5,5.3 L44.2,5.3 L44.2,21.8 L47,21.8 L47,18.2 L50.5,18.2 C52.9,18.2 54.8,16.3 54.8,13.9 L54.8,9.6 C54.8,7.2 52.9,5.3 50.5,5.3 L50.5,5.3 Z M52,13.9 C52,14.7 51.4,15.3 50.6,15.3 L47,15.3 L47,8.1 L50.6,8.1 C51.4,8.1 52,8.7 52,9.5 L52,13.9 Z" id="Shape"></path>
                                        <path d="M63.8,5.3 L57.5,5.3 L57.5,21.8 L60.3,21.8 L60.3,18.2 L63.8,18.2 C66.2,18.2 68.1,16.3 68.1,13.9 L68.1,9.6 C68.1,7.2 66.2,5.3 63.8,5.3 L63.8,5.3 Z M65.3,13.9 C65.3,14.7 64.7,15.3 63.9,15.3 L60.3,15.3 L60.3,8.1 L63.9,8.1 C64.7,8.1 65.3,8.7 65.3,9.5 L65.3,13.9 Z" id="Shape"></path>
                                        <rect id="Rectangle-path" x="4.6" y="0.3" width="2.8" height="2.9"></rect>
                                        <path d="M37.2,5.3 L24.3,5.3 L24.3,18.2 L27.2,18.2 L27.2,8.2 L31.5,8.2 L31.5,18.2 L34.4,18.2 L34.4,8.2 L37.3,8.2 C38.1,8.2 38.7,8.8 38.7,9.6 L38.7,18.2 L41.6,18.2 L41.6,9.6 C41.5,7.2 39.6,5.3 37.2,5.3" id="Shape"></path>
                                        <path d="M4.6,18.2 C4.6,19 4,19.6 3.2,19.6 L0.3,19.6 L1.7,22.5 L3.3,22.5 C5.6,22.5 7.5,20.6 7.5,18.3 L7.5,5.3 L4.7,5.3 L4.7,18.2 L4.6,18.2 Z" id="Shape"></path>
                                        <path d="M18,5.3 L10.3,5.3 L11.7,8.1 L17.2,8.1 C18,8.1 18.6,8.7 18.6,9.5 L18.6,10.4 L13.2,10.4 C11,10.4 9.3,12.1 9.3,14.3 C9.3,16.5 11,18.2 13.2,18.2 L21.5,18.2 L21.5,8.9 C21.6,6.9 20,5.3 18,5.3 L18,5.3 Z M18.7,15.4 L13.4,15.4 C12.8,15.4 12.3,14.9 12.3,14.3 C12.3,13.7 12.8,13.2 13.4,13.2 L18.7,13.2 L18.7,15.4 Z" id="Shape"></path>
                                    </g>
                                </g>
                            </g>
                        </g>
                    </g>
                </g>
            </g>
        </g>
    </g>
</svg>