<?xml version="1.0" encoding="UTF-8" standalone="no"?><svg width="305" height="508" viewBox="0 0 305 508" xmlns="http://www.w3.org/2000/svg" xmlns:xlink="http://www.w3.org/1999/xlink"><svg width="11" height="19" viewBox="-1 -1 11 19" id="facebook"><path d="M8.354 5.621L8.16 8.165H5.552V17H2.257V8.165H.5V5.621h1.757V3.914c0-.753.02-1.915.567-2.635C3.4.518 4.19 0 5.552 0c2.217 0 3.151.316 3.151.316l-.44 2.604s-.732-.211-1.415-.211c-.684 0-1.296.245-1.296.927v1.985h2.802z" fill="#B4B4B4" fill-rule="evenodd"/></svg><svg width="11" height="19" viewBox="-1 -1 11 19" id="facebook-active" y="19"><path d="M8.354 5.621L8.16 8.165H5.552V17H2.257V8.165H.5V5.621h1.757V3.914c0-.753.02-1.915.567-2.635C3.4.518 4.19 0 5.552 0c2.217 0 3.151.316 3.151.316l-.44 2.604s-.732-.211-1.415-.211c-.684 0-1.296.245-1.296.927v1.985h2.802z" fill="#3A579D" fill-rule="evenodd"/></svg><svg width="11" height="19" viewBox="-1 -1 11 19" id="facebook-social" y="38"><title>facebook-social</title><path d="M7.854 5.621L7.66 8.165H5.052V17H1.757V8.165H0V5.621h1.757V3.914c0-.753.02-1.915.567-2.635C2.9.518 3.69 0 5.052 0c2.217 0 3.151.316 3.151.316l-.44 2.604s-.732-.211-1.415-.211c-.684 0-1.296.245-1.296.927v1.985h2.802z" fill="#FF633D" fill-rule="nonzero"/></svg><svg width="11" height="19" viewBox="-1 -1 11 19" id="facebook-social-active" y="57"><path d="M7.854 5.621L7.66 8.165H5.052V17H1.757V8.165H0V5.621h1.757V3.914c0-.753.02-1.915.567-2.635C2.9.518 3.69 0 5.052 0c2.217 0 3.151.316 3.151.316l-.44 2.604s-.732-.211-1.415-.211c-.684 0-1.296.245-1.296.927v1.985h2.802z" fill="#3A579D" fill-rule="evenodd"/></svg><svg width="18" height="18" viewBox="-1 -1 18 18" id="github" y="76"><path d="M8 0C3.58 0 0 3.58 0 8c0 3.54 2.29 6.53 5.47 7.59.4.07.55-.17.55-.38 0-.19-.01-.82-.01-1.49-2.01.37-2.53-.49-2.69-.94-.09-.23-.48-.94-.82-1.13-.28-.15-.68-.52-.01-.53.63-.01 1.08.58 1.23.82.72 1.21 1.87.87 2.33.66.07-.52.28-.87.51-1.07-1.78-.2-3.64-.89-3.64-3.95 0-.87.31-1.59.82-2.15-.08-.2-.36-1.02.08-2.12 0 0 .67-.21 2.2.82.64-.18 1.32-.27 2-.27.68 0 1.36.09 2 .27 1.53-1.04 2.2-.82 2.2-.82.44 1.1.16 1.92.08 2.12.51.56.82 1.27.82 2.15 0 3.07-1.87 3.75-3.65 3.95.29.25.54.73.54 1.48 0 1.07-.01 1.93-.01 2.2 0 .21.15.46.55.38A8.013 8.013 0 0 0 16 8c0-4.42-3.58-8-8-8z" fill="#B4B4B4" fill-rule="evenodd"/></svg><svg width="18" height="18" viewBox="-1 -1 18 18" id="github-active" y="94"><path d="M8 0C3.58 0 0 3.58 0 8c0 3.54 2.29 6.53 5.47 7.59.4.07.55-.17.55-.38 0-.19-.01-.82-.01-1.49-2.01.37-2.53-.49-2.69-.94-.09-.23-.48-.94-.82-1.13-.28-.15-.68-.52-.01-.53.63-.01 1.08.58 1.23.82.72 1.21 1.87.87 2.33.66.07-.52.28-.87.51-1.07-1.78-.2-3.64-.89-3.64-3.95 0-.87.31-1.59.82-2.15-.08-.2-.36-1.02.08-2.12 0 0 .67-.21 2.2.82.64-.18 1.32-.27 2-.27.68 0 1.36.09 2 .27 1.53-1.04 2.2-.82 2.2-.82.44 1.1.16 1.92.08 2.12.51.56.82 1.27.82 2.15 0 3.07-1.87 3.75-3.65 3.95.29.25.54.73.54 1.48 0 1.07-.01 1.93-.01 2.2 0 .21.15.46.55.38A8.013 8.013 0 0 0 16 8c0-4.42-3.58-8-8-8z" fill="#111" fill-rule="evenodd"/></svg><svg width="6" height="20" viewBox="-1 -1 6 20" id="icon-dots" y="112"><title>icon-dots</title><path d="M2 4C.9 4 0 3.1 0 2s.9-2 2-2 2 .9 2 2-.9 2-2 2zm0 7c-1.1 0-2-.9-2-2s.9-2 2-2 2 .9 2 2-.9 2-2 2zm0 3c1.1 0 2 .9 2 2s-.9 2-2 2-2-.9-2-2 .9-2 2-2z" fill-rule="nonzero" fill="#36355B"/></svg><svg width="17" height="17" viewBox="-1 -1 17 17" id="icon-geek" y="132"><title>Shape</title><path d="M9 14h5v1H9v-1zm0-6h5v1H9V8zm5 1h1v5h-1V9zM8 9h1v5H8V9zm-7 5h5v1H1v-1zm0-6h5v1H1V8zm5 1h1v5H6V9zM0 9h1v5H0V9zm9-3h5v1H9V6zm0-6h5v1H9V0zm5 1h1v5h-1V1zM8 1h1v5H8V1zM1 6h5v1H1V6zm0-6h5v1H1V0zm5 1h1v5H6V1zM0 1h1v5H0V1z" fill-rule="nonzero" fill="#36355B"/></svg><svg width="102" height="102" viewBox="-1 -1 102 102" id="icon-play" y="149"><path d="M50 0C22.386 0 0 22.386 0 50s22.386 50 50 50 50-22.386 50-50S77.614 0 50 0zm0 90.625C27.563 90.625 9.375 72.437 9.375 50S27.563 9.375 50 9.375 90.625 27.563 90.625 50 72.437 90.625 50 90.625zm-12.5-62.5L75 50 37.5 71.875v-43.75z" fill="#FFF" fill-rule="evenodd"/></svg><svg width="19" height="19" viewBox="-1 -1 19 19" id="icon-search" y="251"><path d="M16.7 15.2L12.5 11c.8-1.1 1.3-2.6 1.3-4.1 0-3.8-3.1-6.9-6.9-6.9C3.1 0 0 3.1 0 6.9c0 3.8 3.1 6.9 6.9 6.9 1.5 0 2.9-.5 4.1-1.3l4.2 4.2c.2.2.4.3.7.3.3 0 .5-.1.7-.3.5-.4.5-1.1.1-1.5zm-9.8-3.5c-2.7 0-4.8-2.1-4.8-4.8 0-2.7 2.1-4.8 4.8-4.8 2.7 0 4.8 2.1 4.8 4.8 0 2.7-2.1 4.8-4.8 4.8z" fill="#FFF" fill-rule="evenodd"/></svg><svg width="21" height="19" viewBox="-1 -1 21 19" id="linkedin" y="270"><path d="M.466 5.451h3.61V17H.466V5.451zm1.712-1.444h-.026C.847 4.007 0 3.124 0 2.005 0 .865.872 0 2.204 0c1.33 0 2.15.862 2.176 2.002 0 1.119-.845 2.005-2.202 2.005zM18.513 17h-4.092v-5.976c0-1.564-.639-2.632-2.047-2.632-1.077 0-1.675.72-1.953 1.415-.105.25-.09.596-.09.944V17H6.278s.053-10.586 0-11.549h4.053v1.813c.241-.793 1.535-1.924 3.604-1.924 2.564 0 4.578 1.662 4.578 5.239V17z" fill="#B4B4B4" fill-rule="evenodd"/></svg><svg width="21" height="19" viewBox="-1 -1 21 19" id="linkedin-active" y="289"><path d="M.466 5.451h3.61V17H.466V5.451zm1.712-1.444h-.026C.847 4.007 0 3.124 0 2.005 0 .865.872 0 2.204 0c1.33 0 2.15.862 2.176 2.002 0 1.119-.845 2.005-2.202 2.005zM18.513 17h-4.092v-5.976c0-1.564-.639-2.632-2.047-2.632-1.077 0-1.675.72-1.953 1.415-.105.25-.09.596-.09.944V17H6.278s.053-10.586 0-11.549h4.053v1.813c.241-.793 1.535-1.924 3.604-1.924 2.564 0 4.578 1.662 4.578 5.239V17z" fill="#0274B3" fill-rule="evenodd"/></svg><svg width="21" height="19" viewBox="-1 -1 21 19" id="linkedin-social" y="308"><title>linkedin-social</title><path d="M.466 5.451h3.61V17H.466V5.451zm1.712-1.444h-.026C.847 4.007 0 3.124 0 2.005 0 .865.872 0 2.204 0c1.33 0 2.15.862 2.176 2.002 0 1.119-.845 2.005-2.202 2.005zM18.513 17h-4.092v-5.976c0-1.564-.639-2.632-2.047-2.632-1.077 0-1.675.72-1.953 1.415-.105.25-.09.596-.09.944V17H6.278s.053-10.586 0-11.549h4.053v1.813c.241-.793 1.535-1.924 3.604-1.924 2.564 0 4.578 1.662 4.578 5.239V17z" fill="#FF633D" fill-rule="nonzero"/></svg><svg width="21" height="19" viewBox="-1 -1 21 19" id="linkedin-social-active" y="327"><path d="M.466 5.451h3.61V17H.466V5.451zm1.712-1.444h-.026C.847 4.007 0 3.124 0 2.005 0 .865.872 0 2.204 0c1.33 0 2.15.862 2.176 2.002 0 1.119-.845 2.005-2.202 2.005zM18.513 17h-4.092v-5.976c0-1.564-.639-2.632-2.047-2.632-1.077 0-1.675.72-1.953 1.415-.105.25-.09.596-.09.944V17H6.278s.053-10.586 0-11.549h4.053v1.813c.241-.793 1.535-1.924 3.604-1.924 2.564 0 4.578 1.662 4.578 5.239V17z" fill="#0274B3" fill-rule="evenodd"/></svg><svg width="305" height="30" viewBox="-1 -1 305 30" id="logo" y="346"><title>logo</title><g transform="translate(1 1)" fill="none" fill-rule="evenodd"><g transform="translate(161 8)" fill-rule="nonzero" fill="#666"><path d="M7.6 8.2L.7 4l.5-.8 7.6 4.7v.6l-7.6 4.9-.5-.8zM13 9.3c0-3.3 1.3-4.9 3.8-4.9s3.8 1.6 3.8 4.9c0 3.3-1.3 4.9-3.8 4.9S13 12.6 13 9.3zm3.8-3.9c-1.8 0-2.7 1.3-2.7 3.9 0 2.6.9 3.9 2.7 3.9 1.8 0 2.7-1.3 2.7-3.9 0-2.6-.9-3.9-2.7-3.9zM29.3 14v-.8c-1.3.7-2.3 1-3.2 1-.9 0-1.5-.3-2-.9-.5-.6-.7-1.4-.7-2.4V4.5h1.1v6.4c0 .7.2 1.2.5 1.6.3.4.8.6 1.4.6.6 0 1.6-.3 3-1V4.5h1.1V14h-1.2zM33.5 14v-1h2.3V5.5h-2.3v-1h3.3v1.2c.4-.3 1-.5 1.8-.8.8-.3 1.5-.4 2-.5h.2v1.2h-.2c-.5 0-1.2.2-2 .4s-1.4.5-1.8.7V13H40v1h-6.5zM53 5.8v-1h1.9V2.4l1.1-.2v2.6h4.6v1H56v4.6c0 1 .1 1.7.5 2.2.3.4.8.7 1.6.7.3 0 .7 0 1.4-.1.6-.1 1-.2 1.3-.3l.2 1c-.3.1-.7.2-1.4.3-.7.1-1.2.2-1.5.2-1.2 0-2-.3-2.5-1-.4-.6-.7-1.6-.7-2.9V5.9H53v-.1zM63.2 9.3c0-1.5.3-2.7 1-3.6.6-.9 1.6-1.3 2.8-1.3 1.2 0 2.1.4 2.7 1.2.6.8.9 1.9.9 3.2l-.1 1h-6.1c.1 1 .3 1.8.8 2.4.5.6 1.1.9 1.9.9.8 0 1.8-.2 2.9-.6l.3 1c-1.1.4-2.1.6-3 .6-1.3 0-2.3-.4-3-1.3-.7-.9-1.1-2-1.1-3.5zM67 5.4c-1.7 0-2.6 1.1-2.7 3.4h5c.1-2.3-.7-3.4-2.3-3.4zM80 4.8l-.2 1c-.8-.3-1.6-.4-2.3-.4-1 0-1.7.3-2.2 1-.5.7-.7 1.6-.7 2.8 0 1.2.2 2.1.7 2.8.5.7 1.2 1 2.1 1 .6 0 1.4-.2 2.4-.5l.3 1c-1 .4-1.9.6-2.7.6-1.3 0-2.3-.4-3-1.3-.7-.9-1-2.1-1-3.7s.3-2.8 1-3.6c.7-.8 1.7-1.2 3-1.2.9.1 1.7.2 2.6.5zM84.5 6.3v7.8h-1.1V.8h1.1v4.5c1.3-.6 2.3-.8 3.1-.8 1.9 0 2.9 1.1 2.9 3.3v6.3h-1.1V7.8c0-.7-.1-1.2-.4-1.6-.3-.4-.8-.6-1.5-.6-.8-.2-1.8.1-3 .7zM103.4 14V.7h1.1v4.7c1-.7 1.9-1 2.7-1 1.2 0 2.1.4 2.8 1.2.7.8 1 2 1 3.5s-.4 2.7-1.1 3.7c-.7.9-1.7 1.4-3 1.4-.8 0-1.6-.2-2.4-.6v.4h-1.1zm6.4-4.8c0-1.2-.2-2.1-.7-2.7-.5-.6-1.1-1-2-1-.9 0-1.8.4-2.7 1.1v6c.3.1.7.3 1.2.4.5.1.9.2 1.2.2.9 0 1.7-.4 2.2-1.1.5-.8.8-1.8.8-2.9zM113.7 14v-1h3.1V1.7h-3v-1h4.1V13h3.2v1zM123 9.3c0-3.3 1.3-4.9 3.8-4.9s3.8 1.6 3.8 4.9c0 3.3-1.3 4.9-3.8 4.9s-3.8-1.6-3.8-4.9zm3.8-3.9c-1.8 0-2.7 1.3-2.7 3.9 0 2.6.9 3.9 2.7 3.9 1.8 0 2.7-1.3 2.7-3.9 0-2.6-.9-3.9-2.7-3.9zM133.9 12.8c-.6-.8-1-2-1-3.5s.4-2.7 1.1-3.6c.7-.9 1.7-1.3 3-1.3.7 0 1.5.2 2.4.7v-.6h1v7.2c.2 1.6.3 2.5.3 2.8 0 1.2-.4 2.1-1.2 2.7-.8.6-1.7.9-2.8.9-1.1 0-2.3-.3-3.6-.8l.4-1c1.3.5 2.4.8 3.2.8.8 0 1.5-.2 2.1-.6.6-.4.9-1 .9-1.9l-.2-1.6c-1.1.7-2 1.1-2.8 1.1-1.3-.1-2.2-.5-2.8-1.3zm.9-6.4c-.5.7-.8 1.6-.8 2.8 0 1.2.2 2.1.7 2.8.5.7 1.1 1 2 1 .9 0 1.7-.4 2.7-1.2V6.2c-.9-.5-1.6-.8-2.3-.8-1 0-1.8.3-2.3 1z"/></g><g transform="translate(80 1)" fill-rule="nonzero"><g transform="translate(1 1)" fill="#666"><path d="M7.8 21.5c-2.6 0-4.5-.8-5.7-2.4C.9 17.5.3 14.9.3 11.4s.6-6.1 1.8-7.8c1.2-1.7 3.2-2.5 5.8-2.5 2 0 3.9.3 5.5.8l.2.3-.5 2.6-.3.2c-1.3-.5-3-.7-4.8-.7-1.5 0-2.5.5-3.1 1.6C4.3 7 4 8.8 4 11.2s.3 4.3 1 5.4c.6 1.1 1.6 1.6 2.8 1.6.9 0 1.8-.1 2.8-.3v-4.1H8.1l-.2-.2v-2.7l.2-.2h5.7l.2.2v9.5l-.2.2c-1.8.6-3.8.9-6 .9z"/><path d="M8 1.3c2 0 3.8.3 5.4.8l-.5 2.6C11.5 4.2 9.9 4 8 4c-1.6 0-2.7.6-3.3 1.7-.6 1.1-1 2.9-1 5.4 0 2.5.3 4.3 1 5.5.7 1.2 1.7 1.7 3.1 1.7 1 0 2-.1 3-.4v-4.6H8v-2.7h5.7v9.5c-1.9.7-3.9 1-6 1-2.5 0-4.3-.8-5.5-2.3C1 17.2.5 14.7.5 11.2s.6-6 1.8-7.6C3.6 2.1 5.5 1.3 8 1.3zm0-.5c-2.7 0-4.7.9-6 2.6C.7 5.1.1 7.7.1 11.3c0 3.6.6 6.2 1.8 7.9 1.2 1.7 3.2 2.5 5.9 2.5 2.2 0 4.3-.3 6.2-1l.3-.5v-9.5l-.5-.5H8.1l-.5.5v2.7l.5.5h2.3v3.7c-.9.2-1.7.3-2.5.3-1.2 0-2-.5-2.6-1.5-.6-1.1-1-2.8-1-5.2 0-2.4.3-4.2.9-5.2.5-1 1.5-1.4 2.9-1.4 1.8 0 3.4.2 4.7.7l.7-.4.5-2.6-.3-.6C12 1.1 10.1.8 8 .8zM21.9 21.6c-4.5 0-6.7-2.6-6.7-7.6 0-2.4.6-4.3 1.7-5.6 1.1-1.3 2.7-1.9 4.6-1.9 2 0 3.5.6 4.6 1.8 1.1 1.2 1.6 2.9 1.7 5.1l-.1 2.2-.2.2H19c.2 1.8 1.2 2.7 2.9 2.7 1.3 0 2.8-.2 4.2-.7l.3.2.6 2.6-.2.3c-.6.2-1.5.4-2.5.6-.8 0-1.7.1-2.4.1zm2.1-8.9c-.1-2-.8-3-2.3-3-.9 0-1.5.2-1.9.7-.4.5-.6 1.2-.7 2.3H24z"/><path d="M21.5 6.7c1.9 0 3.4.6 4.4 1.7 1 1.1 1.6 2.7 1.6 4.9l-.1 2.2h-8.6c.2 2.1 1.2 3.2 3.2 3.2 1.4 0 2.8-.2 4.3-.7l.6 2.6c-.6.2-1.4.4-2.5.6-1 .2-1.8.3-2.5.3-4.3 0-6.5-2.4-6.5-7.3 0-2.4.5-4.2 1.6-5.4 1.1-1.5 2.6-2.1 4.5-2.1zM18.7 13h5.5c0-2.3-.9-3.5-2.6-3.5-.9 0-1.6.3-2.1.8-.4.5-.7 1.4-.8 2.7zm2.8-6.8c-2 0-3.7.7-4.8 2C15.6 9.5 15 11.5 15 14c0 5.2 2.3 7.8 7 7.8.7 0 1.5-.1 2.6-.3 1-.2 1.9-.4 2.5-.6l.3-.6-.6-2.6-.6-.4c-1.5.5-2.9.7-4.2.7-1.5 0-2.4-.7-2.6-2.2h8.1l.5-.5.1-2.2c0-2.3-.6-4.1-1.7-5.3-1.3-1-2.9-1.6-4.9-1.6zm-2.2 6.3c.1-.9.3-1.5.6-1.9.4-.4.9-.6 1.7-.6.8 0 1.9.3 2.1 2.5h-4.4zM35.3 21.6c-4.5 0-6.7-2.6-6.7-7.6 0-2.4.6-4.3 1.7-5.6 1.1-1.3 2.7-1.9 4.6-1.9 2 0 3.5.6 4.6 1.8 1.1 1.2 1.6 2.9 1.7 5.1l-.1 2.2-.2.2h-8.4c.2 1.8 1.2 2.7 2.9 2.7 1.3 0 2.8-.2 4.2-.7l.3.2.6 2.6-.2.3c-.6.2-1.5.4-2.5.6-1 0-1.9.1-2.5.1zm2-8.9c-.1-2-.8-3-2.3-3-.9 0-1.5.2-1.9.7-.4.5-.6 1.2-.7 2.3h4.9z"/><path d="M34.8 6.7c1.9 0 3.4.6 4.4 1.7 1 1.1 1.6 2.7 1.6 4.9l-.1 2.2h-8.6c.2 2.1 1.2 3.2 3.2 3.2 1.4 0 2.8-.2 4.3-.7l.6 2.6c-.6.2-1.4.4-2.5.6-1 .2-1.8.3-2.5.3-4.3 0-6.5-2.4-6.5-7.3 0-2.4.5-4.2 1.6-5.4 1.1-1.5 2.6-2.1 4.5-2.1zM32.1 13h5.5c0-2.3-.9-3.5-2.6-3.5-.9 0-1.6.3-2.1.8s-.8 1.4-.8 2.7zm2.7-6.8c-2 0-3.7.7-4.8 2-1.1 1.3-1.7 3.3-1.7 5.8 0 5.2 2.3 7.8 7 7.8.7 0 1.5-.1 2.6-.3 1-.2 1.9-.4 2.5-.6l.3-.6-.6-2.6-.6-.4c-1.5.5-2.9.7-4.2.7-1.5 0-2.4-.7-2.6-2.2h8.1l.5-.5.1-2.2c0-2.3-.6-4.1-1.7-5.3-1.3-1-2.9-1.6-4.9-1.6zm-2.2 6.3c.1-.9.3-1.5.6-1.9.4-.4.9-.6 1.7-.6.8 0 1.9.3 2.1 2.5h-4.4zM51.8 21.3l-.2-.1c-.9-2-2-4-3.2-5.8l-1.7.2v5.6l-.2.2h-3l-.2-.2V1.5l.2-.2h3l.2.2v11l1.6-.2c1.1-1.4 2-2.9 2.8-4.5l.4-.8.2-.1H55l.2.4c-1.2 2.6-2.6 4.7-4.1 6.5 1.2 1.8 2.5 3.9 3.7 6.2l.6 1.1-.2.4h-3.4v-.2z"/><path d="M46.4 1.3v11.3l2-.2c1.1-1.4 2.1-3 2.9-4.6l.4-.8H55c-1.2 2.6-2.6 4.8-4.1 6.6 1.3 1.8 2.5 3.9 3.8 6.4l.6 1.1h-3.5c-1-2.1-2.1-4.1-3.3-6l-2.1.2v5.8h-3V1.4h3v-.1zm0-.5h-3l-.5.5V21l.5.5h3l.5-.5v-5.3l1.3-.1c1.2 1.8 2.2 3.7 3.1 5.7l.5.3h3.5l.4-.7-.6-1.1c-1.2-2.3-2.4-4.4-3.6-6.1 1.4-1.7 2.8-3.9 4-6.4l-.5-.7h-3.3l-.4.3-.4.8c-.8 1.6-1.7 3-2.7 4.4l-1.2.1V1.5l-.6-.7zM61.5 21.5c-1.7 0-3.6-.3-5.6-1l-.2-.3.7-2.7.3-.2c1.8.6 3.3.9 4.4.9 1.1 0 1.8-.1 2.1-.3.3-.2.5-.4.5-.8s-.1-.7-.4-.9c-.3-.2-1-.4-1.9-.7-2-.5-3.4-1-4.2-1.6-.8-.6-1.3-1.7-1.3-3.1 0-3 1.9-4.5 5.7-4.5 1.6 0 3.4.3 5.5.8l.2.3-.6 2.8-.3.2c-1.9-.5-3.4-.8-4.5-.8-1.3 0-1.8.1-2 .3-.3.1-.4.4-.4.7 0 .4.1.6.4.8.3.2 1.3.5 2.8.9 1.5.4 2.7.9 3.4 1.5.8.6 1.2 1.6 1.2 3 0 3.2-2 4.7-5.8 4.7z"/><path d="M61.6 6.7c1.6 0 3.4.3 5.4.8l-.6 2.8c-2-.6-3.5-.8-4.5-.8-1.1 0-1.8.1-2.1.3-.4.2-.5.5-.5 1s.2.8.5 1c.4.2 1.3.5 2.8.9 1.5.4 2.6.9 3.3 1.4.7.5 1.1 1.5 1.1 2.8 0 3-1.8 4.5-5.5 4.5-1.7 0-3.6-.3-5.5-.9l.7-2.7c1.9.6 3.4.9 4.5.9s1.9-.1 2.2-.3c.4-.2.6-.6.6-1.1 0-.5-.2-.9-.5-1.1-.4-.2-1-.4-2-.7-2-.5-3.3-1-4.1-1.6-.8-.6-1.2-1.5-1.2-2.9-.1-2.9 1.8-4.3 5.4-4.3zm0-.5c-4.9 0-5.9 2.6-5.9 4.7 0 1.5.5 2.6 1.4 3.3.8.6 2.2 1.2 4.3 1.7 1.2.3 1.7.5 1.9.6.1.1.3.2.3.7 0 .4-.2.5-.3.6-.2.1-.7.3-2 .3-1 0-2.5-.3-4.3-.9l-.6.4-.7 2.7.3.6c2 .6 3.9 1 5.7 1 5 0 6-2.7 6-5 0-1.5-.4-2.5-1.3-3.2-.8-.6-1.9-1.1-3.5-1.5-1.8-.5-2.5-.8-2.7-.9-.1-.1-.3-.2-.3-.6 0-.3.1-.4.3-.5.2-.1.6-.2 1.9-.2 1 0 2.5.3 4.4.8l.6-.4.6-2.8-.4-.6c-2.3-.5-4.1-.8-5.7-.8z"/></g><path d="M7.8 21.5c-2.6 0-4.5-.8-5.7-2.4C.9 17.5.3 14.9.3 11.4s.6-6.1 1.8-7.8c1.2-1.7 3.2-2.5 5.8-2.5 2 0 3.9.3 5.5.8l.2.3-.5 2.6-.3.2c-1.3-.5-3-.7-4.8-.7-1.5 0-2.5.5-3.1 1.6C4.3 7 4 8.8 4 11.2s.3 4.3 1 5.4c.6 1.1 1.6 1.6 2.8 1.6.9 0 1.8-.1 2.8-.3v-4.1H8.1l-.2-.2v-2.7l.2-.2h5.7l.2.2v9.5l-.2.2c-1.8.6-3.8.9-6 .9z" fill="#FFF"/><path d="M8 1.3c2 0 3.8.3 5.4.8l-.5 2.6C11.5 4.2 9.9 4 8 4c-1.6 0-2.7.6-3.3 1.7-.6 1.1-1 2.9-1 5.4 0 2.5.3 4.3 1 5.5.7 1.2 1.7 1.7 3.1 1.7 1 0 2-.1 3-.4v-4.6H8v-2.7h5.7v9.5c-1.9.7-3.9 1-6 1-2.5 0-4.3-.8-5.5-2.3C1 17.2.5 14.7.5 11.2s.6-6 1.8-7.6C3.6 2.1 5.5 1.3 8 1.3zm0-.5c-2.7 0-4.7.9-6 2.6C.7 5.1.1 7.7.1 11.3c0 3.6.6 6.2 1.8 7.9 1.2 1.7 3.2 2.5 5.9 2.5 2.2 0 4.3-.3 6.2-1l.3-.5v-9.5l-.5-.5H8.1l-.5.5v2.7l.5.5h2.3v3.7c-.9.2-1.7.3-2.5.3-1.2 0-2-.5-2.6-1.5-.6-1.1-1-2.8-1-5.2 0-2.4.3-4.2.9-5.2.5-1 1.5-1.4 2.9-1.4 1.8 0 3.4.2 4.7.7l.7-.4.5-2.6-.3-.6C12 1.1 10.1.8 8 .8z" fill="#666"/><g transform="translate(15 6)"><path d="M7 15.6C2.5 15.6.3 13 .3 8 .3 5.6.9 3.7 2 2.4 3.1 1.1 4.7.5 6.6.5c2 0 3.5.6 4.6 1.8 1.1 1.2 1.6 2.9 1.7 5.1l-.1 2.2-.2.2H4c.2 1.8 1.2 2.7 2.9 2.7 1.3 0 2.8-.2 4.2-.7l.3.2.6 2.6-.2.3c-.6.2-1.5.4-2.5.6-.8 0-1.7.1-2.3.1zm2-8.8c-.1-2-.8-3-2.3-3-.9 0-1.5.2-1.9.7-.4.5-.6 1.2-.7 2.3H9z" fill="#FFF"/><path d="M6.5.7c1.9 0 3.4.6 4.4 1.7 1 1.1 1.6 2.7 1.6 4.9l-.1 2.2H3.8C4 11.6 5 12.7 7 12.7c1.4 0 2.8-.2 4.3-.7l.6 2.6c-.6.2-1.4.4-2.5.6-1 .2-1.8.3-2.5.3-4.3 0-6.5-2.4-6.5-7.3C.4 5.8.9 4 2 2.8 3.1 1.3 4.6.7 6.5.7zM3.8 7h5.5c0-2.3-.9-3.5-2.6-3.5-.9 0-1.6.3-2.1.8S3.8 5.7 3.8 7zM6.5.2c-2 0-3.7.7-4.8 2C.6 3.5 0 5.5 0 8c0 5.2 2.3 7.8 7 7.8.7 0 1.5-.1 2.6-.3 1-.2 1.9-.4 2.5-.6l.3-.6-.6-2.6-.6-.4c-1.5.5-2.9.7-4.2.7-1.5 0-2.4-.7-2.6-2.2h8.1l.5-.5.1-2.2c0-2.3-.6-4.1-1.7-5.3C10.1.8 8.5.2 6.5.2zM4.3 6.5c.1-.9.3-1.5.6-1.9.4-.4.9-.6 1.7-.6.8 0 1.9.3 2.1 2.5H4.3z" fill="#666"/></g><g transform="translate(28 6)"><path d="M7.3 15.6C2.8 15.6.6 13 .6 8c0-2.4.6-4.3 1.7-5.6C3.4 1.1 5 .5 6.9.5c2 0 3.5.6 4.6 1.8 1.1 1.2 1.6 2.9 1.7 5.1l-.1 2.2-.2.2H4.5c.2 1.8 1.2 2.7 2.9 2.7 1.3 0 2.8-.2 4.2-.7l.3.2.6 2.6-.2.3c-.6.2-1.5.4-2.5.6-1 0-1.9.1-2.5.1zm2-8.8c-.1-2-.8-3-2.3-3-.9 0-1.5.2-1.9.7-.4.5-.6 1.2-.7 2.3h4.9z" fill="#FFF"/><path d="M6.8.7c1.9 0 3.4.6 4.4 1.7 1 1.1 1.6 2.7 1.6 4.9l-.1 2.2H4.1c.2 2.1 1.2 3.2 3.2 3.2 1.4 0 2.8-.2 4.3-.7l.6 2.6c-.6.2-1.4.4-2.5.6-1 .2-1.8.3-2.5.3-4.3 0-6.5-2.4-6.5-7.3 0-2.4.5-4.2 1.6-5.4C3.5 1.3 4.9.7 6.8.7zM4.1 7h5.5c0-2.3-.9-3.5-2.6-3.5-.9 0-1.6.3-2.1.8S4.1 5.7 4.1 7zM6.8.2c-2 0-3.7.7-4.8 2C.9 3.5.3 5.5.3 8c0 5.2 2.3 7.8 7 7.8.7 0 1.5-.1 2.6-.3 1-.2 1.9-.4 2.5-.6l.3-.6-.6-2.6-.6-.4c-1.5.5-2.9.7-4.2.7-1.5 0-2.4-.7-2.6-2.2h8.1l.5-.5.1-2.2c0-2.3-.6-4.1-1.7-5.3C10.5.8 8.9.2 6.8.2zM4.6 6.5c.1-.9.3-1.5.6-1.9.4-.4.9-.6 1.7-.6.8 0 1.9.3 2.1 2.5H4.6z" fill="#666"/></g><g transform="translate(42)"><path d="M9.8 21.3l-.2-.1c-.9-2-2-4-3.2-5.8l-1.7.2v5.6l-.2.2h-3l-.2-.2V1.5l.2-.2h3l.2.2v11l1.6-.2c1.1-1.4 2-2.9 2.8-4.5l.4-.8.2-.1H13l.2.4C12 9.9 10.6 12 9.1 13.8c1.2 1.8 2.5 3.9 3.7 6.2l.6 1.1-.2.4H9.8v-.2z" fill="#FFF"/><path d="M4.4 1.3v11.3l2-.2c1.1-1.4 2.1-3 2.9-4.6l.4-.8H13c-1.2 2.6-2.6 4.8-4.1 6.6 1.3 1.8 2.5 3.9 3.8 6.4l.6 1.1H9.8c-1-2.1-2.1-4.1-3.3-6l-2.1.2v5.8h-3V1.4h3v-.1zm0-.5h-3l-.5.5V21l.5.5h3l.5-.5v-5.3l1.3-.1c1.2 1.8 2.2 3.7 3.1 5.7l.5.3h3.5l.4-.7-.6-1.1c-1.2-2.3-2.4-4.4-3.6-6.1 1.4-1.7 2.8-3.9 4-6.4l-.5-.7H9.7l-.4.3-.4.8c-.8 1.6-1.7 3-2.7 4.4l-1.2.1V1.5L4.4.8z" fill="#666"/></g><g transform="translate(55 6)"><path d="M6.5 15.6c-1.7 0-3.6-.3-5.6-1l-.2-.3.7-2.7.3-.2c1.8.6 3.3.9 4.4.9 1.1 0 1.8-.1 2.1-.3.3-.2.5-.4.5-.8s-.1-.7-.4-.9c-.3-.2-1-.4-1.9-.7-2-.5-3.4-1-4.2-1.6C1.4 7.4.9 6.3.9 4.9.9 1.9 2.8.4 6.6.4c1.6 0 3.4.3 5.5.8l.2.3-.6 2.8-.3.2C9.5 4 8 3.7 6.9 3.7c-1.3 0-1.8.1-2 .3-.3.1-.4.4-.4.7 0 .4.1.6.4.8.3.2 1.3.5 2.8.9 1.5.4 2.7.9 3.4 1.5.8.6 1.2 1.6 1.2 3 0 3.1-2 4.7-5.8 4.7z" fill="#FFF"/><path d="M6.6.7c1.6 0 3.4.3 5.4.8l-.6 2.8c-2-.6-3.5-.8-4.5-.8-1.1 0-1.8.1-2.1.3-.4.2-.5.5-.5 1s.2.8.5 1c.4.2 1.3.5 2.8.9 1.5.4 2.6.9 3.3 1.4.7.5 1.1 1.5 1.1 2.8 0 3-1.8 4.5-5.5 4.5-1.7 0-3.6-.3-5.5-.9l.7-2.7c1.9.6 3.4.9 4.5.9s1.9-.1 2.2-.3c.4-.2.6-.6.6-1.1 0-.5-.2-.9-.5-1.1-.4-.2-1-.4-2-.7-2-.5-3.3-1-4.1-1.6-.8-.6-1.2-1.5-1.2-2.9C1.2 2.1 3 .7 6.6.7zm0-.5C1.7.2.7 2.8.7 4.9c0 1.5.5 2.6 1.4 3.3.8.6 2.2 1.2 4.3 1.7 1.2.3 1.7.5 1.9.6.1.1.3.2.3.7 0 .4-.2.5-.3.6-.2.1-.7.3-2 .3-1 0-2.5-.3-4.3-.9l-.6.4-.7 2.7.3.6c2 .6 3.9 1 5.7 1 5 0 6-2.7 6-5 0-1.5-.4-2.5-1.3-3.2-.8-.6-1.9-1.1-3.5-1.5-1.8-.5-2.5-.8-2.7-.9-.1-.1-.3-.2-.3-.6 0-.3.1-.4.3-.5.2-.1.6-.2 1.9-.2 1 0 2.5.3 4.4.8l.6-.4.6-2.8-.4-.6C10.1.5 8.2.2 6.6.2z" fill="#666"/></g></g><path d="M32.5 22.1h7.2m0 0h5.5v3.6H52v-3.6h1.5c2 0 3.9-1 5-2.5v6.1h6.8v-3.6h1.5c3.5 0 6.3-2.8 6.3-6.3v-4.3c0-3.5-2.8-6.3-6.3-6.3H45.2v2.4c-1.2-1.5-2.9-2.4-4.9-2.4H25.4v2.1c-1-1.3-2.6-2.1-4.4-2.1h-8.6v-5H5.6v19.4H0l3.4 6.9h2.8c3.3 0 6-2.6 6.1-5.8 1 .9 2.4 1.5 3.9 1.5H32.5" stroke="#666" stroke-width=".5"/><g transform="translate(3 2)" fill-rule="nonzero" fill="#373865"><path d="M50.5 5.2h-6.3v16.5H47v-3.6h3.5c2.4 0 4.3-1.9 4.3-4.3V9.5c0-2.4-1.9-4.3-4.3-4.3zm1.5 8.6c0 .8-.6 1.4-1.4 1.4H47V8h3.6c.8 0 1.4.6 1.4 1.4v4.4zM63.8 5.2h-6.3v16.5h2.8v-3.6h3.5c2.4 0 4.3-1.9 4.3-4.3V9.5c0-2.4-1.9-4.3-4.3-4.3zm1.5 8.6c0 .8-.6 1.4-1.4 1.4h-3.6V8h3.6c.8 0 1.4.6 1.4 1.4v4.4zM4.6.2h2.8v2.9H4.6zM37.2 5.2H24.3v12.9h2.9v-10h4.3v10h2.9v-10h2.9c.8 0 1.4.6 1.4 1.4v8.6h2.9V9.5c-.1-2.4-2-4.3-4.4-4.3M4.6 18.1c0 .8-.6 1.4-1.4 1.4H.3l1.4 2.9h1.6c2.3 0 4.2-1.9 4.2-4.2v-13H4.7v12.9h-.1zM18 5.2h-7.7L11.7 8h5.5c.8 0 1.4.6 1.4 1.4v.9h-5.4c-2.2 0-3.9 1.7-3.9 3.9s1.7 3.9 3.9 3.9h8.3V8.8c.1-2-1.5-3.6-3.5-3.6zm.7 10.1h-5.3c-.6 0-1.1-.5-1.1-1.1 0-.6.5-1.1 1.1-1.1h5.3v2.2z"/></g></g></svg><svg width="150" height="30" viewBox="-1 -1 150 30" id="logo-mobile" y="376"><title>logo-mobile</title><g transform="translate(1 1)" fill="none" fill-rule="evenodd"><path d="M88.71 3.9c-2.46 0-4.266.772-5.42 2.317-1.154 1.543-1.73 4.003-1.73 7.377 0 3.375.558 5.816 1.674 7.322 1.114 1.507 2.882 2.259 5.305 2.259 2.058 0 3.994-.324 5.805-.973v-9.208h-5.52v2.63h2.66v4.434a12.61 12.61 0 0 1-2.945.372c-1.316 0-2.302-.558-2.96-1.674-.659-1.115-.987-2.883-.987-5.304 0-2.421.31-4.176.93-5.263.618-1.087 1.682-1.63 3.189-1.63 1.83 0 3.412.229 4.746.686l.515-2.545c-1.564-.534-3.317-.8-5.261-.8" fill="#666" fill-rule="nonzero"/><path d="M88.539 23.175c-2.423 0-4.19-.752-5.305-2.26-1.116-1.505-1.674-3.946-1.674-7.32 0-3.375.576-5.835 1.73-7.378C84.444 4.672 86.25 3.9 88.71 3.9c1.945 0 3.698.266 5.262.8l-.515 2.545c-1.334-.457-2.916-.686-4.746-.686-1.507 0-2.57.543-3.19 1.63-.619 1.087-.93 2.842-.93 5.263 0 2.42.33 4.189.988 5.304.658 1.116 1.644 1.674 2.96 1.674.933 0 1.915-.124 2.945-.372v-4.434h-2.66v-2.63h5.52v9.208c-1.811.649-3.747.973-5.805.973m.172-19.759c-2.61 0-4.564.845-5.808 2.51-1.211 1.622-1.826 4.202-1.826 7.668 0 3.514.578 6.003 1.768 7.61 1.205 1.629 3.121 2.454 5.694 2.454 2.105 0 4.113-.336 5.968-1l.32-.115V12.51h-6.486v3.598h2.66v3.563c-.856.182-1.682.274-2.462.274-1.142 0-1.974-.47-2.545-1.435-.61-1.035-.919-2.736-.919-5.059 0-2.325.291-4.015.866-5.024.532-.932 1.438-1.386 2.77-1.386 1.767 0 3.311.223 4.59.66l.52.18.709-3.502-.402-.138c-1.607-.548-3.43-.826-5.417-.826M99.09 15.167c.059-1.22.311-2.092.759-2.617.448-.524 1.12-.786 2.016-.786 1.678 0 2.517 1.135 2.517 3.403h-5.291m2.66-6.063c-1.83 0-3.26.597-4.29 1.787-1.03 1.192-1.545 2.942-1.545 5.248 0 4.73 2.09 7.094 6.264 7.094.63 0 1.43-.081 2.402-.244.973-.161 1.765-.348 2.374-.558l-.6-2.488c-1.468.477-2.86.716-4.176.716-1.888 0-2.916-1.03-3.09-3.09h8.352l.115-2.116c-.039-2.077-.558-3.656-1.558-4.733-1.002-1.077-2.418-1.616-4.248-1.616" fill="#666" fill-rule="nonzero"/><path d="M99.612 14.684c.088-.84.29-1.451.605-1.82.355-.415.894-.616 1.648-.616.816 0 1.883.264 2.02 2.436h-4.273m2.253-2.92c-.896 0-1.568.262-2.016.786-.448.525-.7 1.397-.758 2.617h5.291c0-2.268-.839-3.403-2.517-3.403m.315 11.469c-4.175 0-6.264-2.364-6.264-7.094 0-2.306.515-4.056 1.545-5.248 1.03-1.19 2.46-1.787 4.29-1.787s3.246.54 4.248 1.616c1 1.077 1.52 2.656 1.558 4.733l-.115 2.116H99.09c.173 2.06 1.201 3.09 3.09 3.09 1.315 0 2.707-.24 4.174-.716l.601 2.488c-.61.21-1.401.397-2.374.558-.972.163-1.773.244-2.402.244m-.429-14.612c-1.968 0-3.534.657-4.656 1.954-1.102 1.277-1.662 3.149-1.662 5.564 0 5.027 2.27 7.576 6.747 7.576.654 0 1.488-.083 2.482-.25.992-.164 1.817-.359 2.451-.575l.416-.143-.826-3.424-.497.161c-1.413.458-2.767.691-4.026.691-1.461 0-2.278-.677-2.54-2.123h8.26l.14-2.573c-.04-2.226-.608-3.926-1.688-5.087-1.091-1.176-2.64-1.771-4.601-1.771M111.96 15.167c.059-1.22.311-2.092.759-2.617.447-.524 1.12-.786 2.016-.786 1.677 0 2.516 1.135 2.516 3.403h-5.29m2.66-6.063c-1.83 0-3.26.597-4.29 1.787-1.03 1.192-1.545 2.942-1.545 5.248 0 4.73 2.088 7.094 6.263 7.094.63 0 1.431-.081 2.403-.244.973-.161 1.764-.348 2.374-.558l-.6-2.488c-1.469.477-2.861.716-4.177.716-1.888 0-2.916-1.03-3.088-3.09h8.35l.115-2.116c-.038-2.077-.558-3.656-1.558-4.733-1-1.077-2.417-1.616-4.248-1.616" fill="#666" fill-rule="nonzero"/><path d="M112.481 14.684c.088-.84.29-1.451.605-1.82.355-.415.894-.616 1.65-.616.815 0 1.882.264 2.018 2.436h-4.273m2.254-2.92c-.896 0-1.569.262-2.016.786-.448.525-.7 1.397-.758 2.617h5.29c0-2.268-.839-3.403-2.516-3.403m.314 11.469c-4.175 0-6.263-2.364-6.263-7.094 0-2.306.515-4.056 1.545-5.248 1.03-1.19 2.46-1.787 4.29-1.787s3.246.54 4.247 1.616c1 1.077 1.52 2.656 1.558 4.733l-.114 2.116h-8.351c.172 2.06 1.2 3.09 3.088 3.09 1.316 0 2.708-.24 4.176-.716l.6 2.488c-.61.21-1.4.397-2.373.558-.972.163-1.773.244-2.403.244M114.62 8.62c-1.967 0-3.534.657-4.654 1.954-1.104 1.277-1.663 3.149-1.663 5.564 0 5.027 2.27 7.576 6.746 7.576.654 0 1.49-.083 2.482-.25.993-.164 1.818-.359 2.451-.576l.417-.143-.103-.428-.724-2.995-.496.161c-1.413.458-2.768.691-4.027.691-1.46 0-2.278-.677-2.539-2.123h8.26l.14-2.573c-.041-2.226-.609-3.926-1.688-5.087-1.092-1.176-2.64-1.771-4.602-1.771M125.833 3.9h-2.947v19.018h2.947v-5.606l2-.2a46.323 46.323 0 0 1 3.204 5.806h3.346l-.573-1.087c-1.239-2.364-2.468-4.414-3.687-6.149 1.466-1.696 2.801-3.813 4.002-6.349h-3.202l-.4.8a26.63 26.63 0 0 1-2.803 4.462l-1.887.2V3.9" fill="#666" fill-rule="nonzero"/><path d="M122.886 22.918V3.9h2.947v10.896l1.886-.201a26.63 26.63 0 0 0 2.804-4.461l.4-.8h3.202c-1.201 2.535-2.536 4.652-4.002 6.348 1.219 1.735 2.448 3.785 3.687 6.15l.573 1.086h-3.346a46.323 46.323 0 0 0-3.203-5.805l-2.001.199v5.606h-2.947m3.43-19.502h-3.913v19.985h3.913V17.75l1.272-.127a46.109 46.109 0 0 1 3.01 5.498l.13.28h4.456l-.36-.683-.33-.106.086-.357-.342-.649c-1.168-2.23-2.347-4.212-3.506-5.895 1.396-1.676 2.683-3.75 3.83-6.171l.327-.69h-4.265l-.133.268-.4.8a26.352 26.352 0 0 1-2.629 4.219l-1.146.121V3.416" fill="#666" fill-rule="nonzero"/><path d="M140.503 9.104c-3.507 0-5.262 1.364-5.262 4.09 0 1.278.372 2.198 1.116 2.76.743.562 2.059 1.073 3.946 1.53.954.23 1.601.449 1.945.658.344.21.515.562.515 1.058s-.192.839-.572 1.03c-.381.21-1.106.314-2.174.314-1.068 0-2.507-.286-4.319-.858l-.629 2.602c1.907.611 3.69.916 5.349.916 3.545 0 5.32-1.44 5.32-4.32 0-1.257-.344-2.148-1.03-2.673-.687-.524-1.764-.987-3.232-1.387-1.47-.4-2.379-.7-2.73-.9-.355-.2-.53-.52-.53-.96 0-.437.175-.746.53-.928.351-.18 1.042-.272 2.072-.272s2.488.267 4.376.8l.543-2.717c-1.982-.495-3.727-.743-5.234-.743" fill="#666" fill-rule="nonzero"/><path d="M140.017 20.544c1.068 0 1.793-.105 2.174-.315.38-.19.572-.533.572-1.03 0-.495-.171-.848-.515-1.057-.344-.21-.991-.429-1.945-.658-1.887-.457-3.203-.968-3.946-1.53-.744-.562-1.116-1.482-1.116-2.76 0-2.726 1.755-4.09 5.262-4.09 1.507 0 3.252.248 5.234.743l-.543 2.718c-1.888-.534-3.347-.8-4.376-.8-1.03 0-1.72.09-2.073.271-.353.182-.53.491-.53.929 0 .44.177.759.53.959.352.2 1.262.5 2.731.9 1.468.4 2.545.863 3.232 1.387.686.525 1.03 1.416 1.03 2.674 0 2.88-1.775 4.319-5.32 4.319-1.66 0-3.442-.305-5.349-.916l.63-2.602c1.81.572 3.25.858 4.318.858m.486-11.923c-4.748 0-5.745 2.487-5.745 4.573 0 1.432.44 2.49 1.307 3.146.804.608 2.153 1.136 4.125 1.614 1.12.269 1.6.475 1.806.601.133.08.283.226.283.645 0 .392-.153.522-.304.596-.19.105-.67.264-1.958.264-1.013 0-2.417-.28-4.173-.835l-.494-.156-.75 3.106-.02.08-.086.357.33.106.098.03c1.943.623 3.792.94 5.496.94 4.795 0 5.803-2.613 5.803-4.803 0-1.41-.41-2.44-1.22-3.058-.744-.567-1.854-1.049-3.397-1.47-1.773-.482-2.403-.73-2.62-.854-.141-.079-.285-.206-.285-.538 0-.318.128-.428.267-.5.16-.081.612-.217 1.852-.217.98 0 2.408.263 4.243.782l.504.142.737-3.681-.448-.112c-2.014-.503-3.814-.758-5.351-.758" fill="#666" fill-rule="nonzero"/><path d="M87.585 22.462c-2.492 0-4.342-.792-5.5-2.355-1.14-1.543-1.72-4.055-1.72-7.466 0-3.413.599-5.945 1.778-7.522 1.196-1.602 3.085-2.414 5.614-2.414 1.962 0 3.758.273 5.34.814l.201.067-.612 3.024-.261-.09c-1.304-.446-2.874-.673-4.668-.673-1.426 0-2.4.494-2.98 1.508-.595 1.045-.897 2.777-.897 5.144 0 2.366.321 4.11.952 5.181.619 1.046 1.519 1.554 2.753 1.554.855 0 1.765-.108 2.704-.321v-4h-2.66v-3.114h6.003v9.62l-.16.058c-1.83.654-3.81.985-5.887.985" fill="#FFF" fill-rule="nonzero"/><path d="M87.757 2.945c1.944 0 3.698.268 5.262.802l-.515 2.545c-1.334-.457-2.917-.686-4.747-.686-1.507 0-2.57.543-3.189 1.63-.62 1.087-.93 2.842-.93 5.262 0 2.422.33 4.19.987 5.305.658 1.116 1.644 1.673 2.96 1.673.934 0 1.916-.124 2.946-.372v-4.433h-2.66v-2.63h5.52v9.208c-1.811.649-3.748.973-5.806.973-2.422 0-4.19-.753-5.305-2.26-1.115-1.505-1.673-3.946-1.673-7.32 0-3.376.576-5.836 1.73-7.378 1.153-1.545 2.96-2.319 5.42-2.319m0-.483c-2.61 0-4.563.845-5.807 2.511-1.212 1.622-1.826 4.202-1.826 7.668 0 3.514.578 6.003 1.768 7.61 1.205 1.628 3.121 2.454 5.693 2.454 2.105 0 4.113-.336 5.969-1l.32-.115V11.557h-6.486v3.597h2.66v3.565c-.856.181-1.682.274-2.463.274-1.141 0-1.973-.47-2.544-1.435-.61-1.035-.92-2.737-.92-5.06 0-2.325.292-4.015.867-5.023.532-.933 1.437-1.386 2.769-1.386 1.768 0 3.312.222 4.59.66l.521.178.709-3.501-.402-.137c-1.608-.549-3.43-.827-5.418-.827" fill="#666" fill-rule="nonzero"/><path d="M101.227 22.521c-4.317 0-6.506-2.468-6.506-7.335 0-2.355.54-4.175 1.604-5.405 1.074-1.242 2.58-1.872 4.473-1.872 1.892 0 3.38.57 4.424 1.694 1.038 1.117 1.584 2.764 1.623 4.892l-.126 2.363h-8.313c.222 1.752 1.147 2.606 2.821 2.606 1.283 0 2.663-.237 4.1-.704l.25-.081.712 2.956-.208.071c-.625.216-1.437.407-2.413.569-.98.163-1.801.246-2.441.246zm1.956-8.549c-.055-1.964-.8-2.92-2.27-2.92-.83 0-1.43.23-1.834.702-.379.444-.609 1.19-.684 2.218h4.788z" fill="#FFF" fill-rule="nonzero"/><path d="M100.798 8.15c1.83 0 3.246.54 4.246 1.617 1.002 1.077 1.521 2.656 1.559 4.733l-.114 2.116h-8.351c.172 2.059 1.201 3.09 3.089 3.09 1.316 0 2.707-.24 4.175-.716l.6 2.488c-.609.21-1.4.396-2.373.558-.972.163-1.773.243-2.402.243-4.175 0-6.264-2.364-6.264-7.093 0-2.306.515-4.056 1.545-5.248 1.03-1.19 2.459-1.787 4.29-1.787zm-2.66 6.064h5.29c0-2.269-.838-3.404-2.516-3.404-.896 0-1.568.263-2.017.787-.447.525-.7 1.397-.757 2.617zm2.66-6.546c-1.968 0-3.534.657-4.656 1.954-1.103 1.276-1.662 3.149-1.662 5.564 0 5.027 2.27 7.576 6.747 7.576.653 0 1.488-.083 2.481-.25.993-.165 1.818-.359 2.452-.576l.416-.143-.826-3.423-.497.16c-1.413.46-2.767.692-4.026.692-1.462 0-2.278-.677-2.54-2.123h8.26l.139-2.573c-.04-2.226-.608-3.926-1.687-5.088-1.092-1.175-2.64-1.77-4.601-1.77zm-2.14 6.063c.089-.84.292-1.451.606-1.82.355-.415.894-.617 1.648-.617.816 0 1.883.264 2.02 2.437h-4.273z" fill="#666" fill-rule="nonzero"/><path d="M114.096 22.521c-4.316 0-6.504-2.468-6.504-7.335 0-2.355.539-4.175 1.602-5.405 1.075-1.242 2.58-1.872 4.473-1.872 1.892 0 3.38.57 4.424 1.694 1.038 1.117 1.585 2.764 1.624 4.892l-.127 2.363h-8.312c.222 1.752 1.147 2.606 2.82 2.606 1.284 0 2.663-.237 4.102-.704l.247-.081.714 2.956-.208.071c-.626.216-1.437.407-2.413.569-.98.163-1.802.246-2.442.246zm1.957-8.549c-.055-1.964-.8-2.92-2.272-2.92-.828 0-1.428.23-1.832.702-.38.444-.609 1.19-.684 2.218h4.788z" fill="#FFF" fill-rule="nonzero"/><path d="M113.667 8.15c1.83 0 3.246.54 4.248 1.617 1 1.077 1.52 2.656 1.558 4.733l-.114 2.116h-8.351c.172 2.059 1.2 3.09 3.088 3.09 1.316 0 2.708-.24 4.176-.716l.6 2.488c-.61.21-1.401.396-2.374.558-.971.163-1.772.243-2.402.243-4.175 0-6.263-2.364-6.263-7.093 0-2.306.514-4.056 1.544-5.248 1.03-1.19 2.46-1.787 4.29-1.787zm-2.66 6.064h5.291c0-2.269-.839-3.404-2.516-3.404-.897 0-1.569.263-2.016.787-.448.525-.7 1.397-.758 2.617zm2.66-6.546c-1.967 0-3.534.657-4.655 1.954-1.103 1.276-1.662 3.149-1.662 5.564 0 5.027 2.27 7.576 6.746 7.576.654 0 1.489-.083 2.482-.25.992-.165 1.817-.359 2.451-.576l.417-.143-.827-3.423-.497.16c-1.413.46-2.767.692-4.026.692-1.461 0-2.278-.677-2.54-2.123h8.26l.14-2.573c-.04-2.226-.608-3.926-1.688-5.088-1.091-1.175-2.64-1.77-4.6-1.77zm-2.14 6.063c.089-.84.292-1.451.606-1.82.355-.415.894-.617 1.65-.617.815 0 1.881.264 2.017 2.437h-4.272z" fill="#666" fill-rule="nonzero"/><path d="M129.928 22.206l-.063-.14a46.77 46.77 0 0 0-3.107-5.653l-1.637.164v5.63h-3.43V2.704h3.43v10.869l1.517-.162a26.54 26.54 0 0 0 2.715-4.339l.467-.935h3.734l-.164.345c-1.172 2.472-2.488 4.579-3.916 6.262 1.19 1.709 2.4 3.734 3.597 6.02l.759 1.441h-3.902" fill="#FFF" fill-rule="nonzero"/><path d="M124.88 2.945v10.898l1.886-.201a26.665 26.665 0 0 0 2.803-4.462l.4-.8h3.203c-1.201 2.536-2.536 4.652-4.003 6.35 1.22 1.734 2.45 3.784 3.688 6.148l.573 1.087h-3.346a46.527 46.527 0 0 0-3.204-5.806l-2 .2v5.606h-2.948V2.945h2.947m.483-.483h-3.913v19.986h3.913v-5.651l1.272-.128a46.128 46.128 0 0 1 3.011 5.499l.13.28h4.456l-.946-1.795c-1.168-2.23-2.347-4.212-3.507-5.895 1.396-1.676 2.684-3.75 3.83-6.171l.327-.69h-4.265l-.533 1.068a26.321 26.321 0 0 1-2.628 4.218l-1.147.122V2.462" fill="#666" fill-rule="nonzero"/><path d="M139.464 22.492c-1.677 0-3.5-.312-5.422-.926l-.213-.07.742-3.071.247.078c1.777.562 3.205.846 4.246.846 1.023 0 1.715-.096 2.057-.284.308-.154.446-.413.446-.82 0-.408-.13-.686-.398-.85-.323-.197-.953-.409-1.876-.63-1.912-.462-3.269-.99-4.035-1.57-.804-.609-1.212-1.602-1.212-2.954 0-2.874 1.852-4.332 5.504-4.332 1.514 0 3.295.253 5.292.751l.224.056-.64 3.2-.252-.072c-1.858-.525-3.308-.791-4.31-.791-1.227 0-1.744.132-1.963.245-.27.139-.397.365-.397.714 0 .354.13.591.406.748.334.19 1.235.484 2.677.877 1.49.407 2.605.887 3.314 1.43.747.57 1.125 1.535 1.125 2.865 0 3.026-1.872 4.56-5.562 4.56" fill="#FFF" fill-rule="nonzero"/><path d="M139.55 8.15c1.507 0 3.251.25 5.234.744l-.544 2.718c-1.887-.534-3.346-.802-4.375-.802-1.03 0-1.721.092-2.074.273-.353.18-.529.49-.529.929 0 .439.176.759.53.959.352.2 1.262.5 2.731.9 1.467.4 2.545.863 3.232 1.387.685.525 1.03 1.416 1.03 2.674 0 2.88-1.775 4.318-5.32 4.318-1.66 0-3.443-.304-5.35-.915l.63-2.602c1.812.571 3.251.857 4.32.857 1.066 0 1.792-.104 2.172-.314.381-.19.573-.533.573-1.03 0-.495-.171-.848-.516-1.058-.343-.208-.99-.429-1.945-.657-1.886-.457-3.203-.968-3.945-1.53-.745-.562-1.116-1.482-1.116-2.76 0-2.726 1.754-4.09 5.262-4.09m0-.483c-4.749 0-5.745 2.487-5.745 4.573 0 1.432.44 2.49 1.307 3.145.804.608 2.152 1.136 4.124 1.614 1.12.27 1.601.475 1.807.601.132.08.283.226.283.645 0 .393-.153.523-.304.597-.19.105-.671.264-1.958.264-1.013 0-2.417-.281-4.174-.835l-.493-.156-.856 3.542.428.137c1.943.623 3.792.94 5.495.94 4.796 0 5.803-2.613 5.803-4.803 0-1.41-.41-2.44-1.22-3.058-.743-.568-1.854-1.049-3.397-1.47-1.772-.483-2.403-.731-2.62-.854-.14-.08-.284-.206-.284-.538 0-.318.128-.428.267-.5.158-.081.611-.218 1.852-.218.979 0 2.407.263 4.243.783l.504.142.737-3.681-.448-.113c-2.014-.502-3.814-.757-5.351-.757" fill="#666" fill-rule="nonzero"/><path d="M32.5 22.1h7.2m0 0h5.5v3.6H52v-3.6h1.5c2 0 3.9-1 5-2.5v6.1h6.8v-3.6h1.5c3.5 0 6.3-2.8 6.3-6.3v-4.3c0-3.5-2.8-6.3-6.3-6.3H45.2v2.4c-1.2-1.5-2.9-2.4-4.9-2.4H25.4v2.1c-1-1.3-2.6-2.1-4.4-2.1h-8.6v-5H5.6v19.4H0l3.4 6.9h2.8c3.3 0 6-2.6 6.1-5.8 1 .9 2.4 1.5 3.9 1.5H32.5" stroke="#666" stroke-width=".5"/><g transform="translate(3 2)" fill-rule="nonzero" fill="#373865"><path d="M50.5 5.2h-6.3v16.5H47v-3.6h3.5c2.4 0 4.3-1.9 4.3-4.3V9.5c0-2.4-1.9-4.3-4.3-4.3zm1.5 8.6c0 .8-.6 1.4-1.4 1.4H47V8h3.6c.8 0 1.4.6 1.4 1.4v4.4zM63.8 5.2h-6.3v16.5h2.8v-3.6h3.5c2.4 0 4.3-1.9 4.3-4.3V9.5c0-2.4-1.9-4.3-4.3-4.3zm1.5 8.6c0 .8-.6 1.4-1.4 1.4h-3.6V8h3.6c.8 0 1.4.6 1.4 1.4v4.4zM4.6.2h2.8v2.9H4.6zM37.2 5.2H24.3v12.9h2.9v-10h4.3v10h2.9v-10h2.9c.8 0 1.4.6 1.4 1.4v8.6h2.9V9.5c-.1-2.4-2-4.3-4.4-4.3M4.6 18.1c0 .8-.6 1.4-1.4 1.4H.3l1.4 2.9h1.6c2.3 0 4.2-1.9 4.2-4.2v-13H4.7v12.9h-.1zM18 5.2h-7.7L11.7 8h5.5c.8 0 1.4.6 1.4 1.4v.9h-5.4c-2.2 0-3.9 1.7-3.9 3.9s1.7 3.9 3.9 3.9h8.3V8.8c.1-2-1.5-3.6-3.5-3.6zm.7 10.1h-5.3c-.6 0-1.1-.5-1.1-1.1 0-.6.5-1.1 1.1-1.1h5.3v2.2z"/></g></g></svg><svg width="17" height="17" viewBox="-1 -1 17 17" id="switch" y="406"><title>switch</title><path d="M0 1h1v5H0V1zm6 0h1v5H6V1zM1 0h5v1H1V0zm0 6h5v1H1V6zm7-5h1v5H8V1zm6 0h1v5h-1V1zM9 0h5v1H9V0zm0 6h5v1H9V6zM0 9h1v5H0V9zm6 0h1v5H6V9zM1 8h5v1H1V8zm0 6h5v1H1v-1zm7-5h1v5H8V9zm6 0h1v5h-1V9zM9 8h5v1H9V8zm0 6h5v1H9v-1z" fill="#36355B" fill-rule="nonzero"/></svg><svg width="17" height="17" viewBox="-1 -1 17 17" id="switch-active" y="423"><path d="M0 1h1v5H0V1zm6 0h1v5H6V1zM1 0h5v1H1V0zm0 6h5v1H1V6zm7-5h1v5H8V1zm6 0h1v5h-1V1zM9 0h5v1H9V0zm0 6h5v1H9V6zM0 9h1v5H0V9zm6 0h1v5H6V9zM1 8h5v1H1V8zm0 6h5v1H1v-1zm7-5h1v5H8V9zm6 0h1v5h-1V9zM9 8h5v1H9V8zm0 6h5v1H9v-1z" fill="#B4B4B4" fill-rule="evenodd"/></svg><svg width="21" height="17" viewBox="-1 -1 21 17" id="twitter" y="440"><path d="M16.569 3.736c.006.161.01.326.01.49C16.579 9.231 12.77 15 5.805 15 3.666 15 1.676 14.373 0 13.3c.296.035.597.052.904.052a7.593 7.593 0 0 0 4.702-1.622 3.785 3.785 0 0 1-3.537-2.628c.23.044.468.067.712.067.346 0 .68-.044.998-.133A3.786 3.786 0 0 1 .741 5.323v-.047c.51.282 1.095.454 1.716.473A3.786 3.786 0 0 1 .772 2.597c0-.693.187-1.345.513-1.906A10.747 10.747 0 0 0 9.09 4.65a3.788 3.788 0 0 1 6.453-3.454 7.575 7.575 0 0 0 2.405-.918 3.787 3.787 0 0 1-1.664 2.095 7.561 7.561 0 0 0 2.174-.596 7.665 7.665 0 0 1-1.89 1.96z" fill="#B4B4B4" fill-rule="evenodd"/></svg><svg width="21" height="17" viewBox="-1 -1 21 17" id="twitter-active" y="457"><path d="M16.569 3.736c.006.161.01.326.01.49C16.579 9.231 12.77 15 5.805 15 3.666 15 1.676 14.373 0 13.3c.296.035.597.052.904.052a7.593 7.593 0 0 0 4.702-1.622 3.785 3.785 0 0 1-3.537-2.628c.23.044.468.067.712.067.346 0 .68-.044.998-.133A3.786 3.786 0 0 1 .741 5.323v-.047c.51.282 1.095.454 1.716.473A3.786 3.786 0 0 1 .772 2.597c0-.693.187-1.345.513-1.906A10.747 10.747 0 0 0 9.09 4.65a3.788 3.788 0 0 1 6.453-3.454 7.575 7.575 0 0 0 2.405-.918 3.787 3.787 0 0 1-1.664 2.095 7.561 7.561 0 0 0 2.174-.596 7.665 7.665 0 0 1-1.89 1.96z" fill="#5EA9DD" fill-rule="evenodd"/></svg><svg width="21" height="17" viewBox="-1 -1 21 17" id="twitter-social" y="474"><title>twitter-social</title><path d="M16.569 3.736c.006.161.01.326.01.49C16.579 9.231 12.77 15 5.805 15 3.666 15 1.676 14.373 0 13.3c.296.035.597.052.904.052a7.593 7.593 0 0 0 4.702-1.622 3.785 3.785 0 0 1-3.537-2.628c.23.044.468.067.712.067.346 0 .68-.044.998-.133A3.786 3.786 0 0 1 .741 5.323v-.047c.51.282 1.095.454 1.716.473A3.786 3.786 0 0 1 .772 2.597c0-.693.187-1.345.513-1.906A10.747 10.747 0 0 0 9.09 4.65a3.788 3.788 0 0 1 6.453-3.454 7.575 7.575 0 0 0 2.405-.918 3.787 3.787 0 0 1-1.664 2.095 7.561 7.561 0 0 0 2.174-.596 7.665 7.665 0 0 1-1.89 1.96z" fill="#FF633D" fill-rule="nonzero"/></svg><svg width="21" height="17" viewBox="-1 -1 21 17" id="twitter-social-active" y="491"><path d="M16.569 3.736c.006.161.01.326.01.49C16.579 9.231 12.77 15 5.805 15 3.666 15 1.676 14.373 0 13.3c.296.035.597.052.904.052a7.593 7.593 0 0 0 4.702-1.622 3.785 3.785 0 0 1-3.537-2.628c.23.044.468.067.712.067.346 0 .68-.044.998-.133A3.786 3.786 0 0 1 .741 5.323v-.047c.51.282 1.095.454 1.716.473A3.786 3.786 0 0 1 .772 2.597c0-.693.187-1.345.513-1.906A10.747 10.747 0 0 0 9.09 4.65a3.788 3.788 0 0 1 6.453-3.454 7.575 7.575 0 0 0 2.405-.918 3.787 3.787 0 0 1-1.664 2.095 7.561 7.561 0 0 0 2.174-.596 7.665 7.665 0 0 1-1.89 1.96z" fill="#5EA9DD" fill-rule="evenodd"/></svg></svg>